G04 #@! TF.GenerationSoftware,KiCad,Pcbnew,8.0.5*
G04 #@! TF.CreationDate,2024-09-20T17:02:11+03:00*
G04 #@! TF.ProjectId,control_board,636f6e74-726f-46c5-9f62-6f6172642e6b,rev?*
G04 #@! TF.SameCoordinates,Original*
G04 #@! TF.FileFunction,Copper,L3,Inr*
G04 #@! TF.FilePolarity,Positive*
%FSLAX46Y46*%
G04 Gerber Fmt 4.6, Leading zero omitted, Abs format (unit mm)*
G04 Created by KiCad (PCBNEW 8.0.5) date 2024-09-20 17:02:11*
%MOMM*%
%LPD*%
G01*
G04 APERTURE LIST*
G04 #@! TA.AperFunction,ComponentPad*
%ADD10C,1.500000*%
G04 #@! TD*
G04 #@! TA.AperFunction,HeatsinkPad*
%ADD11C,0.600000*%
G04 #@! TD*
G04 #@! TA.AperFunction,ComponentPad*
%ADD12O,0.950000X2.150000*%
G04 #@! TD*
G04 #@! TA.AperFunction,ComponentPad*
%ADD13O,1.000000X1.900000*%
G04 #@! TD*
G04 #@! TA.AperFunction,ViaPad*
%ADD14C,0.600000*%
G04 #@! TD*
G04 #@! TA.AperFunction,Conductor*
%ADD15C,1.000000*%
G04 #@! TD*
G04 #@! TA.AperFunction,Conductor*
%ADD16C,2.000000*%
G04 #@! TD*
G04 #@! TA.AperFunction,Conductor*
%ADD17C,0.500000*%
G04 #@! TD*
G04 #@! TA.AperFunction,Conductor*
%ADD18C,0.200000*%
G04 #@! TD*
G04 APERTURE END LIST*
D10*
X30700000Y-39400000D03*
X33104163Y-36995837D03*
X-30700000Y-39400000D03*
X-33104163Y-36995837D03*
X-34200000Y46400000D03*
X-31795837Y48804163D03*
X34200000Y46400000D03*
X31795837Y48804163D03*
D11*
X-3100000Y-37900000D03*
X-3100000Y-39300000D03*
X-2400000Y-37200000D03*
X-2400000Y-38600000D03*
X-2400000Y-40000000D03*
X-1700000Y-37900000D03*
X-1700000Y-39300000D03*
X-1000000Y-37200000D03*
X-1000000Y-38600000D03*
X-1000000Y-40000000D03*
X-300000Y-37900000D03*
X-300000Y-39300000D03*
D12*
X-5540000Y51100000D03*
D13*
X-5540000Y47200000D03*
D12*
X5540000Y51100000D03*
D13*
X5540000Y47200000D03*
D14*
X-20400000Y-50300000D03*
X-15800000Y-49200000D03*
X15900000Y-48900000D03*
X19900000Y-48600000D03*
X20400000Y-50100000D03*
X18100000Y-52300000D03*
X19700000Y-51600000D03*
X-16300000Y-51700000D03*
X-19600000Y-51800000D03*
X15600000Y-50200000D03*
X-17900000Y-52400000D03*
X16400000Y-51700000D03*
X-15700000Y-50600000D03*
X2400000Y45500000D03*
X-2400000Y47230000D03*
X13800000Y2600000D03*
X2400000Y47200000D03*
X13400000Y4600000D03*
X-2400000Y45500000D03*
X12800000Y6000000D03*
X13200000Y6800000D03*
X-517087Y44750000D03*
X750000Y45046984D03*
X24800000Y-39200000D03*
X-29400000Y12600000D03*
X8700000Y-21500000D03*
X29100000Y-11313960D03*
X-24800000Y-9200000D03*
X20600000Y-27000000D03*
X3500000Y47100000D03*
X-24600000Y50000000D03*
X-12001469Y-45784998D03*
X28645352Y11500000D03*
X30400000Y-22800000D03*
X27200000Y-24400000D03*
X-36200000Y21900000D03*
X-28050000Y-20800000D03*
X-15800000Y-19000000D03*
X31900000Y21900000D03*
X-28700000Y-18500000D03*
X-29400000Y11400000D03*
X35500000Y24400000D03*
X15000000Y46800000D03*
X33200000Y20800000D03*
X32200000Y-20200000D03*
X34200000Y20800000D03*
X30400000Y-18400000D03*
X12400000Y0D03*
X-16200000Y47400000D03*
X-32100000Y21000000D03*
X7800000Y-46400000D03*
X-7600000Y50600000D03*
X13600000Y-24400000D03*
X-31900000Y-19900000D03*
X1600000Y43200000D03*
X-18200000Y7400000D03*
X-29800000Y-22800000D03*
X-8400000Y-3100000D03*
X12200000Y1200000D03*
X15400000Y27600000D03*
X10400000Y5800000D03*
X-12000000Y47000000D03*
X-41400000Y-26400000D03*
X24800000Y-32800000D03*
X-30800000Y46200000D03*
X-29300000Y-11300000D03*
X31595678Y-19244208D03*
X10400000Y7200000D03*
X-35800000Y21200000D03*
X-15800000Y3675646D03*
X-475000Y37500000D03*
X-31700000Y21900000D03*
X-29400000Y7500000D03*
X-28500000Y-22200000D03*
X18800000Y-27000000D03*
X-10000000Y45800000D03*
X31600000Y-22200000D03*
X41600000Y34000000D03*
X28500000Y-8600000D03*
X-36000000Y-23600000D03*
X-30000000Y-18100000D03*
X-26100000Y-41500000D03*
X35700000Y21000000D03*
X32800000Y-32800000D03*
X16200000Y-33200000D03*
X-15823874Y50566309D03*
X28645352Y12496822D03*
X34200000Y44400000D03*
X28500000Y-7500000D03*
X-35800000Y23800000D03*
X15400000Y26600000D03*
X-37600000Y-28200000D03*
X-8200000Y-46400000D03*
X-31100000Y-22300000D03*
X-3500000Y45600000D03*
X-1600000Y43200000D03*
X36300000Y22100000D03*
X-21800000Y46400000D03*
X-21400000Y45000000D03*
X-33415717Y-35406212D03*
X-29300000Y-12900000D03*
X-17000000Y-35000000D03*
X-3850000Y42000000D03*
X-35000000Y24600000D03*
X3400000Y37200000D03*
X-42200000Y36600000D03*
X4200000Y46400000D03*
X-14000000Y47000000D03*
X29600000Y-36800000D03*
X9400000Y-12000000D03*
X-26800000Y46600000D03*
X9400000Y-9300000D03*
X-29400000Y8500000D03*
X-36300000Y23000000D03*
X25600000Y-6900000D03*
X-10000000Y47200000D03*
X-13600000Y-35000000D03*
X-31700000Y23000000D03*
X27800000Y-32800000D03*
X2300000Y37300000D03*
X-31800000Y-21200000D03*
X-28198724Y-19439126D03*
X29100000Y-12700000D03*
X-3500000Y47100000D03*
X32300000Y21100000D03*
X18800000Y-25800000D03*
X29800000Y-32800000D03*
X29200000Y-18300000D03*
X26800000Y-21800000D03*
X36200000Y23400000D03*
X32300000Y-21200000D03*
X-31413187Y-18989483D03*
X20600000Y-25800000D03*
X-26000000Y48400000D03*
X-7800000Y48200000D03*
X16200000Y32800000D03*
X-41000000Y-22800000D03*
X-3675000Y37400000D03*
X-29300000Y-7100000D03*
X12600000Y-27000000D03*
X-11199999Y-22248528D03*
X-10000000Y-45200000D03*
X-18300000Y45300000D03*
X13800000Y27600000D03*
X20157164Y-29671363D03*
X24800000Y-36400000D03*
X-16600000Y7400000D03*
X14400000Y-30600000D03*
X8200000Y41800000D03*
X18600000Y-28800000D03*
X12305857Y-46491643D03*
X-23800000Y-6400000D03*
X12600000Y45400000D03*
X-42200000Y38600000D03*
X-11000000Y-45800000D03*
X12500000Y-4400000D03*
X14400000Y-27000000D03*
X38100000Y32000000D03*
X-35934639Y-27765361D03*
X1800000Y41400000D03*
X-35400000Y-21000000D03*
X12600000Y-30600000D03*
X-16200000Y49600000D03*
X-8000000Y-45000000D03*
X13800000Y-32800000D03*
X-22200000Y-10000000D03*
X10597914Y-44600000D03*
X-22600000Y-22148527D03*
X-24372500Y-26879851D03*
X-26453898Y4202425D03*
X-15800000Y5600000D03*
X21100000Y-6000000D03*
X-38100000Y-25900000D03*
X10707107Y-41707107D03*
X38000000Y38100000D03*
X-22105005Y-12881665D03*
X38000000Y36000000D03*
X10300000Y-42400000D03*
X-20003607Y-9078090D03*
X-26600000Y5000000D03*
X20750000Y-6950000D03*
X-15000000Y5000000D03*
X-38222500Y-23322500D03*
X10600000Y-43600000D03*
X-1000000Y-53400000D03*
X34400000Y-31400000D03*
X11200000Y-23900000D03*
X21700000Y-27100000D03*
X-28000000Y-31800000D03*
X-24300000Y-22100000D03*
X6700000Y-30700000D03*
X-33800000Y43000000D03*
X4200000Y-32200000D03*
X24800000Y-44800000D03*
X11083750Y-9416250D03*
X5400000Y-27600000D03*
X-12400000Y50600000D03*
X-8800000Y47500000D03*
X10700000Y-5500000D03*
X27900000Y-9400000D03*
X4400000Y-26400000D03*
X4450000Y-19050000D03*
X-21200000Y31700000D03*
X-23100000Y29700000D03*
X4500000Y-21950000D03*
X5200000Y-43900000D03*
X-38700000Y28700000D03*
X4450000Y-20450000D03*
X-22500000Y30500000D03*
X6200000Y-11000000D03*
X1300000Y38300000D03*
X2250000Y-22000000D03*
X1800000Y-27600000D03*
X-2700000Y38900000D03*
X3000000Y-27600000D03*
X-26800000Y900000D03*
X2700000Y-21100000D03*
X-600000Y35550000D03*
X-10400000Y-30300000D03*
X-10400000Y-31200000D03*
X2500000Y35225000D03*
X-16400000Y46000000D03*
X-12950000Y48800000D03*
X-10382500Y-43780000D03*
X-1392985Y35444269D03*
X2068756Y34551181D03*
X-1300000Y38300000D03*
X-7600000Y-43800000D03*
X2700000Y34000000D03*
X-16200000Y48200000D03*
X-23750000Y2200000D03*
X5400000Y19400000D03*
X3800000Y21500000D03*
X-22100000Y700000D03*
X5300000Y22100000D03*
X-22100000Y-150000D03*
X-21400000Y-1200000D03*
X200000Y29448530D03*
X-21425000Y-2200000D03*
X3329178Y24458357D03*
X4900000Y24600000D03*
X-10400000Y-2500000D03*
X2632843Y24900000D03*
X-10400000Y-1692821D03*
X3000021Y26338470D03*
X-10000000Y-1000000D03*
X4900000Y27000000D03*
X-9500000Y-200000D03*
X1424265Y28275735D03*
X-9500000Y700000D03*
X-10400000Y700000D03*
X4100000Y28100000D03*
X-10400000Y1600000D03*
X5060662Y29260662D03*
X-23000000Y-3000000D03*
X-3200000Y20100000D03*
X1954165Y20545835D03*
X-22100000Y1500003D03*
X-6800000Y20900000D03*
X-25500000Y-3800000D03*
X-24874265Y-3225735D03*
X-4400000Y21000000D03*
X-2100000Y20900000D03*
X-23100000Y-2100000D03*
X-6800000Y23400000D03*
X-27100000Y-1700000D03*
X-4400000Y23400000D03*
X-24724265Y-424265D03*
X-24980211Y-1182220D03*
X-2930304Y23100000D03*
X-13721045Y-21678955D03*
X-8026328Y25222200D03*
X-13200000Y-20800000D03*
X-5551922Y24967948D03*
X-13000000Y-22400000D03*
X-3199472Y24900700D03*
X-13315573Y-18884427D03*
X-7899689Y27742586D03*
X-5350691Y27813341D03*
X-13207108Y-17792892D03*
X-3058357Y27529178D03*
X-12600000Y-16600000D03*
X-23750000Y3900000D03*
X1500000Y19300000D03*
X3700000Y18700000D03*
X-23750000Y3050000D03*
X21300000Y-35600000D03*
X-22900000Y45655000D03*
X37600000Y42200000D03*
X24411177Y46204769D03*
X22400000Y46400000D03*
X36600000Y43395000D03*
X10400000Y50000000D03*
X26505276Y47705276D03*
X7800000Y45802500D03*
X20400000Y46200000D03*
X22000000Y52800000D03*
X-10000000Y39800000D03*
X18000000Y52800000D03*
X-7600000Y42000000D03*
X27400000Y45800000D03*
X14000000Y52800000D03*
X-22000000Y-24800000D03*
X9800000Y52800000D03*
X2600000Y42800000D03*
X31800000Y46600000D03*
X8800000Y47600000D03*
X6200000Y43200000D03*
X13650000Y48550000D03*
X38000000Y43800000D03*
X-34600000Y-23900000D03*
X-35200000Y-24700000D03*
X19600000Y44400000D03*
X31800000Y43200000D03*
X-18126640Y-19632966D03*
X-27374265Y-23925735D03*
X-36700000Y-20100000D03*
X-32600000Y-23600000D03*
X-16400000Y1200000D03*
X-17100000Y-5500000D03*
X35600000Y42200000D03*
X23561117Y46861011D03*
X29800000Y51000000D03*
X18000000Y50200000D03*
X27400000Y47800000D03*
X15074265Y49125735D03*
X0Y-1200000D03*
X-7600000Y-36160000D03*
X-3400000Y-27600000D03*
X200000Y-19000000D03*
X-7600000Y-37430000D03*
X0Y-3000000D03*
X-10200000Y-40000000D03*
X0Y1000000D03*
X-7600000Y-34890000D03*
X0Y-11000000D03*
X-7600000Y-33620000D03*
X0Y-9000000D03*
X0Y3000000D03*
X-10200000Y-38800000D03*
X0Y5000000D03*
X-10200000Y-42400000D03*
X-4600000Y-27600000D03*
X245000Y-12250170D03*
X200000Y-17749998D03*
X-2200000Y-27600000D03*
X400000Y-27600000D03*
X0Y-5000000D03*
X-800000Y-27600000D03*
X0Y-7000000D03*
X-245000Y-14399999D03*
X-7600000Y-32350000D03*
X800000Y-46200000D03*
X-18800000Y-22200000D03*
X0Y7000000D03*
X-10200000Y-41200000D03*
X-23400000Y33800000D03*
X-18300000Y-4900000D03*
X-14824265Y-13000000D03*
X-21209789Y45809790D03*
X-15200000Y2800000D03*
X-10400000Y-13900000D03*
X-10400000Y-14900000D03*
X-16300000Y2900000D03*
X-10445000Y-5949998D03*
X-13600000Y6000000D03*
X-14400000Y4400000D03*
X-10400000Y-9900000D03*
X-14800000Y3700000D03*
X-10445000Y-11900000D03*
X-14000000Y5100000D03*
X-10445000Y-7900000D03*
X-15358235Y-7358235D03*
X-16300000Y2100000D03*
X-9955000Y-18749750D03*
X-19900000Y-21600000D03*
X-17600000Y-22200000D03*
X-10100000Y-20400000D03*
X-10445000Y-21250004D03*
X-14204630Y-13596667D03*
X19200000Y50200000D03*
X27400000Y51200000D03*
X6600000Y5500000D03*
X6400000Y8000000D03*
X7014579Y8512149D03*
X7200000Y6200000D03*
X5900000Y4800000D03*
X5800000Y7414579D03*
X5300000Y4000000D03*
X5200000Y6800000D03*
X19000000Y-3600000D03*
X24800000Y-27600000D03*
X15400000Y-2800000D03*
X24800000Y-42000000D03*
X27800000Y-27600000D03*
X15400000Y-2000000D03*
X19000000Y-1400000D03*
X33000000Y-27600000D03*
X29800000Y-27600000D03*
D15*
X-1650000Y46400000D02*
X1650000Y46400000D01*
D16*
X23000000Y22771522D02*
X23000000Y11000000D01*
X12800000Y6000000D02*
X13400000Y5400000D01*
D15*
X-2200000Y46950000D02*
X-1650000Y46400000D01*
D16*
X13400000Y5400000D02*
X13400000Y3000000D01*
X18000000Y6000000D02*
X12800000Y6000000D01*
X4200000Y41571522D02*
X23000000Y22771522D01*
X4200000Y43700000D02*
X4200000Y41571522D01*
X23000000Y11000000D02*
X18000000Y6000000D01*
D15*
X1650000Y46400000D02*
X2200000Y46950000D01*
D16*
X13400000Y3000000D02*
X13800000Y2600000D01*
X2400000Y45500000D02*
X4200000Y43700000D01*
D15*
X12600000Y-27000000D02*
X7400000Y-21800000D01*
X-20400000Y-2614214D02*
X-20400000Y4400000D01*
X-3675000Y37400000D02*
X-3700000Y37425000D01*
D17*
X-35400000Y-21900000D02*
X-35400000Y-21000000D01*
D15*
X-18700000Y6100000D02*
X-17700000Y6100000D01*
X-21400000Y48400000D02*
X-26000000Y48400000D01*
X-5000000Y37400000D02*
X-12600000Y45000000D01*
D18*
X20157164Y-29671363D02*
X20800000Y-30314199D01*
D15*
X11998650Y-46184436D02*
X12305857Y-46491643D01*
D17*
X12500000Y-4400000D02*
X12200000Y-4100000D01*
D15*
X9200000Y-4100000D02*
X9200000Y-6800000D01*
D17*
X-41000000Y-25600000D02*
X-41000000Y-22800000D01*
D15*
X-3700000Y39700000D02*
X-2000000Y41400000D01*
D17*
X-11600000Y-21848527D02*
X-11600000Y-3660661D01*
D18*
X15804163Y48804163D02*
X31795837Y48804163D01*
D17*
X-24500000Y-7100000D02*
X-23800000Y-6400000D01*
X-11199999Y-22248528D02*
X-11600000Y-21848527D01*
D15*
X38100000Y32000000D02*
X17000000Y32000000D01*
D17*
X-35400000Y-21000000D02*
X-39200000Y-21000000D01*
D15*
X-11800000Y6600000D02*
X-11800000Y2400000D01*
D17*
X-23060661Y-24800000D02*
X-32500000Y-24800000D01*
D18*
X20800000Y-32400000D02*
X24800000Y-36400000D01*
X24800000Y-36400000D02*
X25000000Y-36400000D01*
D15*
X-10200000Y-45000000D02*
X-8000000Y-45000000D01*
X-3675000Y37400000D02*
X-5000000Y37400000D01*
X-26800000Y48400000D02*
X-26000000Y48400000D01*
X8000000Y-8000000D02*
X7985786Y-8000000D01*
X9200000Y-6800000D02*
X8000000Y-8000000D01*
D18*
X-16200000Y49600000D02*
X-16400000Y49600000D01*
D15*
X-12600000Y7400000D02*
X-11800000Y6600000D01*
X13800000Y27600000D02*
X12585000Y27600000D01*
D17*
X-11800000Y-3460661D02*
X-11800000Y2400000D01*
X-22310661Y-25550000D02*
X-23060661Y-24800000D01*
D15*
X11414214Y-45600000D02*
X8414214Y-45600000D01*
X9200000Y24215000D02*
X9200000Y-4100000D01*
X12585000Y27600000D02*
X9200000Y24215000D01*
D18*
X31508326Y-35400000D02*
X33104163Y-36995837D01*
D15*
X-12600000Y45000000D02*
X-18000000Y45000000D01*
X-23800000Y-6014214D02*
X-20400000Y-2614214D01*
X17000000Y32000000D02*
X16200000Y32800000D01*
X-36400000Y44400000D02*
X-30800000Y44400000D01*
D18*
X15200000Y48400000D02*
X15400000Y48400000D01*
D17*
X-29300000Y-7100000D02*
X-24500000Y-7100000D01*
D18*
X11800000Y45400000D02*
X12600000Y45400000D01*
D15*
X-16600000Y7400000D02*
X-12600000Y7400000D01*
X-42200000Y38600000D02*
X-36400000Y44400000D01*
X-16600000Y7200000D02*
X-16600000Y7400000D01*
X5800000Y-23400000D02*
X-1000000Y-23400000D01*
X12600000Y-30600000D02*
X11998650Y-31201350D01*
X8414214Y-45600000D02*
X7814214Y-45000000D01*
D17*
X-39200000Y-21000000D02*
X-41000000Y-22800000D01*
D15*
X11998650Y-31201350D02*
X11998650Y-46184436D01*
D17*
X-36250000Y-27450000D02*
X-39150000Y-27450000D01*
D15*
X-20400000Y4400000D02*
X-18700000Y6100000D01*
X-6000000Y-18400000D02*
X-6000000Y-8700000D01*
X-2000000Y41400000D02*
X1800000Y41400000D01*
D17*
X-22200000Y-10000000D02*
X-21250000Y-10950000D01*
X12200000Y-4100000D02*
X9200000Y-4100000D01*
D15*
X-1000000Y-23400000D02*
X-6000000Y-18400000D01*
D18*
X12600000Y45800000D02*
X15200000Y48400000D01*
D15*
X-17700000Y6100000D02*
X-16600000Y7200000D01*
D18*
X15400000Y48400000D02*
X15804163Y48804163D01*
X20800000Y-30314199D02*
X20800000Y-32400000D01*
D17*
X-21689339Y-25550000D02*
X-22310661Y-25550000D01*
X-21250000Y-10950000D02*
X-21250000Y-25110661D01*
D18*
X12600000Y45400000D02*
X12600000Y45800000D01*
D15*
X-11800000Y-2900000D02*
X-11800000Y2400000D01*
X-23800000Y-6400000D02*
X-23800000Y-6014214D01*
X-3700000Y37425000D02*
X-3700000Y39700000D01*
X7985786Y-8000000D02*
X7400000Y-8585786D01*
D17*
X-21250000Y-25110661D02*
X-21689339Y-25550000D01*
D15*
X7814214Y-45000000D02*
X-8000000Y-45000000D01*
X-11000000Y-45800000D02*
X-10200000Y-45000000D01*
D18*
X-17600000Y48400000D02*
X-26000000Y48400000D01*
D17*
X-32500000Y-24800000D02*
X-35400000Y-21900000D01*
D18*
X26000000Y-35400000D02*
X31508326Y-35400000D01*
X25000000Y-36400000D02*
X26000000Y-35400000D01*
X8200000Y41800000D02*
X11800000Y45400000D01*
D15*
X-30800000Y44400000D02*
X-26800000Y48400000D01*
X7400000Y-21800000D02*
X5800000Y-23400000D01*
D17*
X-39150000Y-27450000D02*
X-41000000Y-25600000D01*
X-35934639Y-27765361D02*
X-36250000Y-27450000D01*
X-11600000Y-3660661D02*
X-11800000Y-3460661D01*
D15*
X12305857Y-46491643D02*
X11414214Y-45600000D01*
X-6000000Y-8700000D02*
X-11800000Y-2900000D01*
X7400000Y-8585786D02*
X7400000Y-21800000D01*
X-18000000Y45000000D02*
X-21400000Y48400000D01*
D18*
X-16400000Y49600000D02*
X-17600000Y48400000D01*
D15*
X14400000Y-27000000D02*
X12600000Y-27000000D01*
D18*
X42400000Y31668629D02*
X42400000Y35600000D01*
X-24000000Y-26800000D02*
X-24292649Y-26800000D01*
X31600000Y28000000D02*
X38731371Y28000000D01*
X-23000000Y-10400000D02*
X-23000000Y-7651471D01*
X-19100000Y-3751471D02*
X-19100000Y2300000D01*
X9200000Y-35800000D02*
X2100000Y-28700000D01*
X-19000000Y-28700000D02*
X-20900000Y-26800000D01*
X10900000Y-41900000D02*
X10900000Y-42648529D01*
X16300000Y-29700000D02*
X12000000Y-29700000D01*
X12000000Y-29700000D02*
X10707107Y-30992893D01*
X26200000Y-11700000D02*
X26200000Y-24300000D01*
X-23000000Y-7651471D02*
X-19100000Y-3751471D01*
X-20900000Y-26800000D02*
X-24000000Y-26800000D01*
X21100000Y-6000000D02*
X21350000Y-6250000D01*
X21350000Y-6250000D02*
X21350000Y-6850000D01*
X16000000Y-6300000D02*
X14300000Y-4600000D01*
X2100000Y-28700000D02*
X-19000000Y-28700000D01*
X-24000000Y-26800000D02*
X-37200000Y-26800000D01*
X-37200000Y-26800000D02*
X-38100000Y-25900000D01*
X38731371Y28000000D02*
X42400000Y31668629D01*
X18848529Y-28200000D02*
X17800000Y-28200000D01*
X-22105005Y-11294995D02*
X-23000000Y-10400000D01*
X26200000Y-24300000D02*
X22000000Y-28500000D01*
X-22105005Y-12881665D02*
X-22105005Y-11294995D01*
X21350000Y-6850000D02*
X26200000Y-11700000D01*
X10051471Y-43000000D02*
X9200000Y-42148529D01*
X14300000Y-4600000D02*
X14300000Y-1000000D01*
X17800000Y-28200000D02*
X16300000Y-29700000D01*
X42400000Y35600000D02*
X39900000Y38100000D01*
X10900000Y-42648529D02*
X10548529Y-43000000D01*
X21100000Y-6000000D02*
X20800000Y-6300000D01*
X10548529Y-43000000D02*
X10051471Y-43000000D01*
X-22600000Y-13376660D02*
X-22600000Y-22148527D01*
X10707107Y-30992893D02*
X10707107Y-41707107D01*
X20800000Y-6300000D02*
X16000000Y-6300000D01*
X14300000Y-1000000D02*
X28800000Y13500000D01*
X-22105005Y-12881665D02*
X-22600000Y-13376660D01*
X22000000Y-28500000D02*
X19148529Y-28500000D01*
X-19100000Y2300000D02*
X-15800000Y5600000D01*
X28800000Y13500000D02*
X28800000Y25200000D01*
X10707107Y-41707107D02*
X10900000Y-41900000D01*
X19148529Y-28500000D02*
X18848529Y-28200000D01*
X39900000Y38100000D02*
X38000000Y38100000D01*
X-24292649Y-26800000D02*
X-24372500Y-26879851D01*
X28800000Y25200000D02*
X31600000Y28000000D01*
X9200000Y-42148529D02*
X9200000Y-35800000D01*
X27200000Y13300000D02*
X27200000Y25600000D01*
X-15324175Y5000000D02*
X-15000000Y5000000D01*
X16300000Y-29100000D02*
X17600000Y-27800000D01*
X13300000Y-4165686D02*
X13300000Y-600000D01*
X10107107Y-42207107D02*
X10107107Y-35407107D01*
X-17700000Y2624175D02*
X-15324175Y5000000D01*
X-20500000Y-9574483D02*
X-20003607Y-9078090D01*
X2900000Y-28200000D02*
X-18500000Y-28200000D01*
X38000000Y29400000D02*
X38900000Y30300000D01*
X20500000Y-6700000D02*
X15834314Y-6700000D01*
X25600000Y-24100000D02*
X25600000Y-11800000D01*
X-17700000Y-3400000D02*
X-17700000Y2624175D01*
X-20003607Y-5755078D02*
X-17700000Y-3451471D01*
X-20500000Y-26200000D02*
X-35345000Y-26200000D01*
X-20500000Y-26200000D02*
X-20500000Y-9574483D01*
X10107107Y-35407107D02*
X2900000Y-28200000D01*
X17600000Y-27800000D02*
X21900000Y-27800000D01*
X31000000Y29400000D02*
X38000000Y29400000D01*
X-17700000Y-3451471D02*
X-17700000Y-3400000D01*
X13300000Y-600000D02*
X27200000Y13300000D01*
X38900000Y30300000D02*
X38900000Y35100000D01*
X-20003607Y-9078090D02*
X-20003607Y-5755078D01*
X10107107Y-31027207D02*
X12034314Y-29100000D01*
X10300000Y-42400000D02*
X10107107Y-42207107D01*
X21900000Y-27800000D02*
X25600000Y-24100000D01*
X25600000Y-11800000D02*
X20500000Y-6700000D01*
X-35345000Y-26200000D02*
X-38222500Y-23322500D01*
X15834314Y-6700000D02*
X13300000Y-4165686D01*
X38900000Y35100000D02*
X38000000Y36000000D01*
X27200000Y25600000D02*
X31000000Y29400000D01*
X-18500000Y-28200000D02*
X-20500000Y-26200000D01*
X12034314Y-29100000D02*
X16300000Y-29100000D01*
X10107107Y-42207107D02*
X10107107Y-31027207D01*
D17*
X18300000Y-23500000D02*
X18300000Y-25000000D01*
X-10050000Y-31950000D02*
X-27850000Y-31950000D01*
D18*
X24800000Y-44800000D02*
X27400000Y-44800000D01*
D17*
X18300000Y-23500000D02*
X20200000Y-23500000D01*
X18300000Y-25000000D02*
X14750000Y-28550000D01*
D18*
X-27600000Y-19400000D02*
X-27600000Y-10365686D01*
D17*
X10400000Y-23100000D02*
X10400000Y-10100000D01*
D18*
X-30400000Y-7565686D02*
X-30400000Y26300000D01*
X-30400000Y26300000D02*
X-33800000Y29700000D01*
X-27600000Y-10365686D02*
X-30400000Y-7565686D01*
D17*
X3600000Y-31600000D02*
X-9700000Y-31600000D01*
X11200000Y-23900000D02*
X10400000Y-23100000D01*
D18*
X-24300000Y-22100000D02*
X-26500000Y-22100000D01*
D17*
X-27850000Y-31950000D02*
X-28000000Y-31800000D01*
D18*
X27400000Y-44800000D02*
X34400000Y-37800000D01*
X34400000Y-37800000D02*
X34400000Y-31400000D01*
D17*
X10400000Y-10100000D02*
X11083750Y-9416250D01*
X20200000Y-23500000D02*
X21700000Y-25000000D01*
D18*
X-33800000Y29700000D02*
X-33800000Y43000000D01*
D17*
X11200000Y-23900000D02*
X11600000Y-23500000D01*
X21700000Y-25000000D02*
X21700000Y-27100000D01*
X14750000Y-28550000D02*
X8850000Y-28550000D01*
X-9700000Y-31600000D02*
X-10050000Y-31950000D01*
X11600000Y-23500000D02*
X18300000Y-23500000D01*
X4200000Y-32200000D02*
X3600000Y-31600000D01*
X8850000Y-28550000D02*
X6700000Y-30700000D01*
D18*
X-26500000Y-22100000D02*
X-27400000Y-21200000D01*
X-27400000Y-19600000D02*
X-27600000Y-19400000D01*
X-27400000Y-21200000D02*
X-27400000Y-19600000D01*
X3600000Y7700000D02*
X-20400000Y31700000D01*
X-20400000Y31700000D02*
X-21200000Y31700000D01*
X4450000Y-19050000D02*
X3600000Y-18200000D01*
X3600000Y-18200000D02*
X3600000Y7700000D01*
X1600000Y-19050000D02*
X1600000Y6500000D01*
X-21600000Y29700000D02*
X-23100000Y29700000D01*
X4500000Y-21950000D02*
X1600000Y-19050000D01*
X1600000Y6500000D02*
X-21600000Y29700000D01*
X-20800000Y30500000D02*
X-22500000Y30500000D01*
X4450000Y-20450000D02*
X4150000Y-20450000D01*
X4150000Y-20450000D02*
X2800000Y-19100000D01*
X2800000Y6900000D02*
X-20800000Y30500000D01*
X2800000Y-19100000D02*
X2800000Y6900000D01*
X4698529Y-22600000D02*
X2850000Y-22600000D01*
X6200000Y-21098529D02*
X4698529Y-22600000D01*
X6200000Y-11000000D02*
X6200000Y-21098529D01*
X2850000Y-22600000D02*
X2250000Y-22000000D01*
X-2200000Y8200000D02*
X-20298529Y8200000D01*
X2700000Y-21100000D02*
X1100000Y-19500000D01*
X1100000Y4900000D02*
X-2200000Y8200000D01*
X1100000Y-19500000D02*
X1100000Y4900000D01*
X-26800000Y1698529D02*
X-26800000Y900000D01*
X-20298529Y8200000D02*
X-26800000Y1698529D01*
X9200000Y51200000D02*
X9200000Y52200000D01*
X2400000Y42600000D02*
X-7000000Y42600000D01*
X-30000000Y24200000D02*
X-30000000Y-7400000D01*
X-19300000Y34900000D02*
X-30000000Y24200000D01*
X21200000Y52800000D02*
X19200000Y50800000D01*
X14000000Y52400000D02*
X14000000Y52800000D01*
X17200000Y52000000D02*
X18000000Y52800000D01*
X9200000Y52200000D02*
X9800000Y52800000D01*
X-12410004Y34900000D02*
X-19300000Y34900000D01*
X32845837Y47645837D02*
X32845837Y49239088D01*
X-23200000Y-19100000D02*
X-23200000Y-23600000D01*
X28200000Y46600000D02*
X27400000Y45800000D01*
X9600000Y50800000D02*
X9200000Y51200000D01*
X22000000Y52800000D02*
X21200000Y52800000D01*
X-10000000Y37310004D02*
X-12410004Y34900000D01*
X2600000Y42800000D02*
X2400000Y42600000D01*
X31800000Y46600000D02*
X32845837Y47645837D01*
X9600000Y50800000D02*
X9600000Y50600000D01*
X-7000000Y42600000D02*
X-7600000Y42000000D01*
X9600000Y50600000D02*
X8800000Y49800000D01*
X32845837Y49239088D02*
X29684925Y52400000D01*
X22400000Y52400000D02*
X22000000Y52800000D01*
X13600000Y50800000D02*
X13400000Y51000000D01*
X-10000000Y39800000D02*
X-10000000Y37310004D01*
X13600000Y50800000D02*
X9600000Y50800000D01*
X13400000Y51000000D02*
X13400000Y51800000D01*
X-27200000Y-10200000D02*
X-27200000Y-15100000D01*
X-27200000Y-15100000D02*
X-23200000Y-19100000D01*
X29684925Y52400000D02*
X22400000Y52400000D01*
X8800000Y49800000D02*
X8800000Y47600000D01*
X19200000Y50800000D02*
X17200000Y50800000D01*
X-30000000Y-7400000D02*
X-27200000Y-10200000D01*
X17200000Y50800000D02*
X13600000Y50800000D01*
X8800000Y45800000D02*
X6200000Y43200000D01*
X8800000Y47600000D02*
X8800000Y45800000D01*
X31800000Y46600000D02*
X28200000Y46600000D01*
X17200000Y50800000D02*
X17200000Y52000000D01*
X-23200000Y-23600000D02*
X-22000000Y-24800000D01*
X13400000Y51800000D02*
X14000000Y52400000D01*
D16*
X20821321Y-3600000D02*
X22650000Y-5428679D01*
X19000000Y-3600000D02*
X20821321Y-3600000D01*
X33000000Y-27600000D02*
X24800000Y-27600000D01*
X22650000Y-6311522D02*
X27600000Y-11261522D01*
X27600000Y-20478679D02*
X28300000Y-21178679D01*
D18*
X24800000Y-42000000D02*
X23609374Y-40809374D01*
X23609374Y-36809374D02*
X19400000Y-32600000D01*
D16*
X28300000Y-21178679D02*
X28300000Y-22421321D01*
D18*
X19400000Y-32600000D02*
X19400000Y-29500000D01*
D16*
X15900000Y-2500000D02*
X18100000Y-2500000D01*
X28300000Y-22421321D02*
X28060661Y-22660661D01*
D18*
X23609374Y-40809374D02*
X23609374Y-36809374D01*
D16*
X27600000Y-11261522D02*
X27600000Y-20478679D01*
X22650000Y-5428679D02*
X22650000Y-6311522D01*
X28060661Y-22660661D02*
X33000000Y-27600000D01*
D18*
X19400000Y-29500000D02*
X20000000Y-28900000D01*
X23500000Y-28900000D02*
X24800000Y-27600000D01*
X20000000Y-28900000D02*
X23500000Y-28900000D01*
D16*
X19000000Y-1400000D02*
X19000000Y-3600000D01*
M02*
