M48
; DRILL file {KiCad 8.0.5} date 2024-09-20T17:02:34+0300
; FORMAT={-:-/ absolute / inch / decimal}
; #@! TF.CreationDate,2024-09-20T17:02:34+03:00
; #@! TF.GenerationSoftware,Kicad,Pcbnew,8.0.5
; #@! TF.FileFunction,Plated,1,4,PTH
FMAT,2
INCH
; #@! TA.AperFunction,Plated,PTH,ViaDrill
T1C0.0118
; #@! TA.AperFunction,Plated,PTH,ComponentDrill
T2C0.0118
; #@! TA.AperFunction,Plated,PTH,ComponentDrill
T3C0.0236
; #@! TA.AperFunction,Plated,PTH,ComponentDrill
T4C0.0315
%
G90
G05
T1
X-1.6614Y1.5197
X-1.6614Y1.4409
X-1.6299Y-1.0394
X-1.6142Y-0.8976
X-1.5236Y1.1299
X-1.5048Y-0.9182
X-1.5Y-1.0197
X-1.4803Y-1.1102
X-1.4449Y-0.7913
X-1.4291Y0.9055
X-1.4252Y0.8622
X-1.4173Y-0.9291
X-1.4147Y-1.0931
X-1.4094Y0.937
X-1.4094Y0.8346
X-1.3937Y-0.8268
X-1.3858Y-0.9724
X-1.378Y0.9685
X-1.3622Y-0.9409
X-1.3307Y1.6929
X-1.3156Y-1.3939
X-1.2835Y-0.9291
X-1.2638Y0.8268
X-1.2559Y-0.7835
X-1.252Y-0.8346
X-1.248Y0.9055
X-1.248Y0.8622
X-1.2367Y-0.7476
X-1.2244Y-0.878
X-1.2126Y1.8189
X-1.1811Y-0.7126
X-1.1732Y-0.8976
X-1.1575Y0.4961
X-1.1575Y0.4488
X-1.1575Y0.3346
X-1.1575Y0.2953
X-1.1535Y-0.2795
X-1.1535Y-0.4449
X-1.1535Y-0.5079
X-1.1299Y-0.7283
X-1.122Y-0.874
X-1.1102Y-0.7653
X-1.1043Y-0.8189
X-1.1024Y-1.252
X-1.0777Y-0.942
X-1.0669Y-0.0669
X-1.0551Y1.8346
X-1.0551Y0.0354
X-1.0472Y0.1969
X-1.0415Y0.1654
X-1.0276Y-1.6339
X-1.0236Y1.9055
X-1.0039Y-0.1496
X-0.9835Y-0.0465
X-0.9793Y-0.127
X-0.9764Y-0.3622
X-0.9734Y-0.0167
X-0.9685Y1.9685
X-0.9595Y-1.0583
X-0.9567Y-0.8701
X-0.937Y-0.252
X-0.935Y0.1535
X-0.935Y0.1201
X-0.935Y0.0866
X-0.9213Y1.3307
X-0.9094Y1.1693
X-0.9094Y-0.0827
X-0.9055Y-0.1181
X-0.9016Y1.7974
X-0.8898Y-0.872
X-0.8858Y1.2008
X-0.874Y-0.3937
X-0.8703Y-0.5072
X-0.8701Y0.0591
X-0.8701Y0.0276
X-0.8701Y-0.0059
X-0.8661Y-0.9764
X-0.8583Y1.8268
X-0.8435Y-0.0866
X-0.8425Y1.7717
X-0.8425Y-0.0472
X-0.835Y1.8035
X-0.8346Y1.248
X-0.8031Y-1.9803
X-0.7875Y-0.3574
X-0.7835Y-0.8504
X-0.7717Y-2.0394
X-0.7402Y-0.874
X-0.7205Y1.7835
X-0.7205Y-0.1929
X-0.7165Y0.2913
X-0.7136Y-0.773
X-0.7047Y-2.063
X-0.6929Y-0.874
X-0.6732Y-0.2165
X-0.6693Y-1.378
X-0.6535Y0.2913
X-0.6457Y1.811
X-0.6457Y0.0472
X-0.6417Y0.1142
X-0.6417Y0.0827
X-0.6417Y-2.0354
X-0.6378Y1.9528
X-0.6378Y1.8976
X-0.6378Y1.8661
X-0.623Y1.9908
X-0.622Y0.2205
X-0.622Y0.1447
X-0.622Y-0.748
X-0.622Y-1.937
X-0.6181Y-1.9921
X-0.6047Y-0.2897
X-0.5984Y0.1102
X-0.5906Y0.1969
X-0.5836Y-0.5118
X-0.5827Y0.1457
X-0.5669Y0.1732
X-0.5592Y-0.5353
X-0.5512Y1.8504
X-0.5512Y0.2008
X-0.5402Y-0.8535
X-0.5354Y0.2362
X-0.5354Y-1.378
X-0.5242Y-0.7435
X-0.52Y-0.7005
X-0.5197Y-0.8189
X-0.5118Y-0.8819
X-0.5098Y1.9213
X-0.4961Y-0.6535
X-0.4882Y1.9921
X-0.4725Y-1.8026
X-0.4724Y1.8504
X-0.4409Y-0.8759
X-0.4331Y-1.8031
X-0.4112Y-0.2343
X-0.4112Y-0.311
X-0.4112Y-0.4685
X-0.4112Y-0.8366
X-0.4094Y0.063
X-0.4094Y0.0276
X-0.4094Y-0.0666
X-0.4094Y-0.0984
X-0.4094Y-0.3898
X-0.4094Y-0.5472
X-0.4094Y-0.5866
X-0.4094Y-1.1929
X-0.4094Y-1.2283
X-0.4088Y-1.7236
X-0.4016Y-1.5276
X-0.4016Y-1.5748
X-0.4016Y-1.622
X-0.4016Y-1.6693
X-0.3976Y-0.8031
X-0.3937Y1.8583
X-0.3937Y1.8031
X-0.3937Y1.5669
X-0.3937Y-0.0394
X-0.3937Y-1.7795
X-0.3919Y-0.7382
X-0.374Y0.0276
X-0.374Y-0.0079
X-0.3465Y1.8701
X-0.3307Y-0.122
X-0.3228Y-1.8268
X-0.316Y0.993
X-0.315Y-1.7717
X-0.311Y1.0922
X-0.3071Y1.8976
X-0.2992Y1.9921
X-0.2992Y1.6535
X-0.2992Y-1.2736
X-0.2992Y-1.3236
X-0.2992Y-1.3736
X-0.2992Y-1.4236
X-0.2992Y-1.4736
X-0.2992Y-1.7244
X-0.2677Y0.9213
X-0.2677Y0.8228
X-0.2186Y0.983
X-0.2107Y1.095
X-0.1811Y-1.0866
X-0.1732Y0.9213
X-0.1732Y0.8268
X-0.1516Y1.6535
X-0.1447Y1.4724
X-0.1378Y1.8543
X-0.1378Y1.7953
X-0.1339Y-1.0866
X-0.126Y0.7913
X-0.126Y0.9803
X-0.1204Y1.0838
X-0.1154Y0.9094
X-0.1063Y1.5315
X-0.0945Y1.8594
X-0.0945Y1.7913
X-0.0866Y-1.0866
X-0.0827Y0.8228
X-0.063Y1.7008
X-0.0548Y1.3954
X-0.0512Y1.5079
X-0.0394Y-2.1024
X-0.0315Y-1.0866
X-0.0236Y1.3996
X-0.0204Y1.7618
X-0.0187Y1.4764
X-0.0096Y-0.5669
X0.0Y0.2756
X0.0Y0.1969
X0.0Y0.1181
X0.0Y0.0394
X0.0Y-0.0472
X0.0Y-0.1181
X0.0Y-0.1969
X0.0Y-0.2756
X0.0Y-0.3543
X0.0Y-0.4331
X0.0079Y1.1594
X0.0079Y-0.6988
X0.0079Y-0.748
X0.0096Y-0.4823
X0.0157Y-1.0866
X0.0295Y1.7735
X0.0315Y-1.8189
X0.0512Y1.5079
X0.0561Y1.1132
X0.0591Y0.7598
X0.063Y1.7008
X0.0709Y1.6299
X0.0709Y-1.0866
X0.0769Y0.8089
X0.0814Y1.3603
X0.0886Y-0.8661
X0.0906Y1.4685
X0.0945Y1.8583
X0.0945Y1.7913
X0.0984Y1.3868
X0.1024Y1.685
X0.1037Y0.9803
X0.1063Y1.3386
X0.1063Y-0.8307
X0.1181Y-1.0866
X0.1181Y1.0369
X0.1311Y0.9629
X0.1339Y1.4646
X0.1378Y1.8543
X0.1457Y0.7362
X0.1496Y0.8465
X0.1614Y1.1063
X0.1654Y1.8268
X0.1654Y-1.2677
X0.1732Y-1.0394
X0.1752Y-0.75
X0.1752Y-0.8051
X0.1772Y-0.8642
X0.1929Y1.063
X0.1929Y0.9685
X0.1992Y1.152
X0.2047Y0.2677
X0.2047Y-1.7283
X0.2087Y0.8701
X0.2087Y0.1575
X0.2126Y0.7638
X0.2126Y-1.0866
X0.2283Y0.2919
X0.2323Y0.189
X0.2441Y1.7008
X0.2441Y-0.4331
X0.252Y0.315
X0.2598Y0.2165
X0.2638Y-1.2087
X0.2762Y0.3351
X0.2835Y0.2441
X0.3071Y1.8032
X0.3071Y-1.8268
X0.3228Y1.6457
X0.3425Y-0.8465
X0.3465Y1.874
X0.3701Y-0.3661
X0.3701Y-0.4724
X0.3858Y2.0787
X0.4055Y-1.6693
X0.4094Y1.9685
X0.4094Y0.2835
X0.4094Y0.2283
X0.4172Y-1.7559
X0.4173Y-1.7165
X0.4213Y-0.2165
X0.4215Y-1.642
X0.4364Y-0.3707
X0.4409Y-0.9409
X0.4803Y0.0472
X0.4845Y-1.8304
X0.4882Y0.0
X0.4921Y-0.1732
X0.4961Y1.7874
X0.4961Y-1.063
X0.4961Y-1.2047
X0.5039Y0.2362
X0.5197Y0.2677
X0.5276Y0.1811
X0.5354Y-0.9606
X0.5374Y1.9114
X0.5433Y1.0866
X0.5433Y0.1024
X0.5433Y-1.2913
X0.5512Y2.0787
X0.5669Y-1.063
X0.5669Y-1.2047
X0.5906Y1.8425
X0.5935Y1.9341
X0.6063Y1.0866
X0.6063Y1.0472
X0.6063Y-0.0787
X0.6063Y-0.1102
X0.6142Y-1.9764
X0.626Y-1.9252
X0.6378Y1.2913
X0.6378Y-1.3071
X0.6457Y-2.0354
X0.7087Y2.0787
X0.7087Y1.9764
X0.7126Y-2.0591
X0.7323Y-1.1339
X0.7402Y-1.0157
X0.7402Y-1.063
X0.748Y-0.0551
X0.748Y-0.1417
X0.7559Y1.9764
X0.7717Y1.748
X0.7756Y-2.0315
X0.7835Y-1.9134
X0.7936Y-1.1682
X0.8031Y1.8189
X0.8031Y-1.9724
X0.811Y-1.0157
X0.811Y-1.063
X0.8169Y-0.2736
X0.8307Y-0.2362
X0.8386Y-1.4016
X0.8543Y-1.0669
X0.8661Y2.0787
X0.8819Y1.8268
X0.9276Y1.8449
X0.9611Y1.8191
X0.9764Y-1.0866
X0.9764Y-1.2913
X0.9764Y-1.4331
X0.9764Y-1.5433
X0.9764Y-1.6535
X0.9764Y-1.7638
X1.0079Y-0.2717
X1.0435Y1.8782
X1.0551Y-0.8583
X1.0709Y-0.9606
X1.0787Y2.0157
X1.0787Y1.8819
X1.0787Y1.8031
X1.0945Y-1.0866
X1.0945Y-1.2913
X1.0984Y-0.3701
X1.122Y-0.2953
X1.122Y-0.3386
X1.1278Y0.492
X1.1278Y0.4528
X1.1457Y-0.4454
X1.1457Y-0.5
X1.1496Y-0.7205
X1.1654Y-1.4488
X1.1732Y2.0079
X1.1732Y-1.0866
X1.1732Y-1.2913
X1.1969Y-0.7244
X1.1969Y-0.8976
X1.2439Y-0.7576
X1.2441Y-0.874
X1.252Y1.8346
X1.252Y1.7008
X1.2559Y0.8622
X1.2677Y-0.7953
X1.2717Y0.8307
X1.2717Y-0.8346
X1.2913Y-1.2913
X1.2992Y-1.0866
X1.3071Y0.8189
X1.3465Y1.748
X1.3465Y0.8189
X1.3543Y-1.2362
X1.3976Y0.9606
X1.4016Y1.6614
X1.4055Y0.8268
X1.4252Y0.9213
X1.4291Y0.8701
X1.4409Y1.7085
X1.4803Y1.6614
X1.4961Y1.7244
X1.4961Y1.5
X1.4961Y1.4173
X1.5Y1.2598
X1.6378Y1.3386
T2
X-0.122Y-1.4921
X-0.122Y-1.5472
X-0.0945Y-1.4646
X-0.0945Y-1.5197
X-0.0945Y-1.5748
X-0.0669Y-1.4921
X-0.0669Y-1.5472
X-0.0394Y-1.4646
X-0.0394Y-1.5197
X-0.0394Y-1.5748
X-0.0118Y-1.4921
X-0.0118Y-1.5472
T4
X-1.3465Y1.8268
X-1.3033Y-1.4565
X-1.2518Y1.9214
X-1.2087Y-1.5512
X1.2087Y-1.5512
X1.2518Y1.9214
X1.3033Y-1.4565
X1.3465Y1.8268
T3
G00X-0.2181Y2.0354
M15
G01X-0.2181Y1.9882
M16
G05
G00X-0.2181Y1.876
M15
G01X-0.2181Y1.8406
M16
G05
G00X0.2181Y2.0354
M15
G01X0.2181Y1.9882
M16
G05
G00X0.2181Y1.876
M15
G01X0.2181Y1.8406
M16
G05
M30
