G04 #@! TF.GenerationSoftware,KiCad,Pcbnew,8.0.5*
G04 #@! TF.CreationDate,2024-09-20T17:02:11+03:00*
G04 #@! TF.ProjectId,control_board,636f6e74-726f-46c5-9f62-6f6172642e6b,rev?*
G04 #@! TF.SameCoordinates,Original*
G04 #@! TF.FileFunction,Copper,L4,Bot*
G04 #@! TF.FilePolarity,Positive*
%FSLAX46Y46*%
G04 Gerber Fmt 4.6, Leading zero omitted, Abs format (unit mm)*
G04 Created by KiCad (PCBNEW 8.0.5) date 2024-09-20 17:02:11*
%MOMM*%
%LPD*%
G01*
G04 APERTURE LIST*
G04 Aperture macros list*
%AMRoundRect*
0 Rectangle with rounded corners*
0 $1 Rounding radius*
0 $2 $3 $4 $5 $6 $7 $8 $9 X,Y pos of 4 corners*
0 Add a 4 corners polygon primitive as box body*
4,1,4,$2,$3,$4,$5,$6,$7,$8,$9,$2,$3,0*
0 Add four circle primitives for the rounded corners*
1,1,$1+$1,$2,$3*
1,1,$1+$1,$4,$5*
1,1,$1+$1,$6,$7*
1,1,$1+$1,$8,$9*
0 Add four rect primitives between the rounded corners*
20,1,$1+$1,$2,$3,$4,$5,0*
20,1,$1+$1,$4,$5,$6,$7,0*
20,1,$1+$1,$6,$7,$8,$9,0*
20,1,$1+$1,$8,$9,$2,$3,0*%
%AMRotRect*
0 Rectangle, with rotation*
0 The origin of the aperture is its center*
0 $1 length*
0 $2 width*
0 $3 Rotation angle, in degrees counterclockwise*
0 Add horizontal line*
21,1,$1,$2,0,0,$3*%
%AMOutline4P*
0 Free polygon, 4 corners , with rotation*
0 The origin of the aperture is its center*
0 number of corners: always 4*
0 $1 to $8 corner X, Y*
0 $9 Rotation angle, in degrees counterclockwise*
0 create outline with 4 corners*
4,1,4,$1,$2,$3,$4,$5,$6,$7,$8,$1,$2,$9*%
%AMFreePoly0*
4,1,101,-2.043524,2.729949,-1.716882,2.670090,-1.399837,2.571295,-1.097011,2.435004,-0.812822,2.263206,-0.551413,2.058405,-0.316595,1.823587,-0.111794,1.562178,0.060004,1.277989,0.196295,0.975163,0.295090,0.658118,0.354949,0.331476,0.375000,0.000000,0.354949,-0.331476,0.295090,-0.658118,0.196295,-0.975163,0.060004,-1.277989,-0.111794,-1.562178,-0.316595,-1.823587,-0.551413,-2.058405,
-0.812822,-2.263206,-1.097011,-2.435004,-1.399837,-2.571295,-1.716882,-2.670090,-2.043524,-2.729949,-2.375000,-2.750000,-2.706476,-2.729949,-3.033118,-2.670090,-3.350163,-2.571295,-3.652989,-2.435004,-3.937178,-2.263206,-4.198587,-2.058405,-4.433405,-1.823587,-4.638206,-1.562178,-4.810004,-1.277989,-4.946295,-0.975163,-5.045090,-0.658118,-5.104949,-0.331476,-5.125000,0.000000,-4.380109,0.000000,
-4.359700,-0.285357,-4.298888,-0.564904,-4.198911,-0.832952,-4.061805,-1.084044,-3.890360,-1.313067,-3.688067,-1.515360,-3.459044,-1.686805,-3.207952,-1.823911,-2.939904,-1.923888,-2.660357,-1.984700,-2.375000,-2.005109,-2.089643,-1.984700,-1.810096,-1.923888,-1.542048,-1.823911,-1.290956,-1.686805,-1.061933,-1.515360,-0.859640,-1.313067,-0.688195,-1.084044,-0.551089,-0.832952,-0.451112,-0.564904,
-0.390300,-0.285357,-0.371480,-0.022221,-0.375000,0.000000,-0.371480,0.022221,-0.390300,0.285357,-0.451112,0.564904,-0.551089,0.832952,-0.688195,1.084044,-0.859640,1.313067,-1.061933,1.515360,-1.290956,1.686805,-1.542048,1.823911,-1.810096,1.923888,-2.089643,1.984700,-2.375000,2.005109,-2.660357,1.984700,-2.939904,1.923888,-3.207952,1.823911,-3.459044,1.686805,-3.688067,1.515360,
-3.890360,1.313067,-4.061805,1.084044,-4.198911,0.832952,-4.298888,0.564904,-4.359700,0.285357,-4.380109,0.000000,-5.125000,0.000000,-5.104949,0.331476,-5.045090,0.658118,-4.946295,0.975163,-4.810004,1.277989,-4.638206,1.562178,-4.433405,1.823587,-4.198587,2.058405,-3.937178,2.263206,-3.652989,2.435004,-3.350163,2.571295,-3.033118,2.670090,-2.706476,2.729949,-2.375000,2.750000,
-2.043524,2.729949,-2.043524,2.729949,$1*%
%AMFreePoly1*
4,1,19,0.550000,-0.750000,0.000000,-0.750000,0.000000,-0.744911,-0.071157,-0.744911,-0.207708,-0.704816,-0.327430,-0.627875,-0.420627,-0.520320,-0.479746,-0.390866,-0.500000,-0.250000,-0.500000,0.250000,-0.479746,0.390866,-0.420627,0.520320,-0.327430,0.627875,-0.207708,0.704816,-0.071157,0.744911,0.000000,0.744911,0.000000,0.750000,0.550000,0.750000,0.550000,-0.750000,0.550000,-0.750000,
$1*%
%AMFreePoly2*
4,1,19,0.000000,0.744911,0.071157,0.744911,0.207708,0.704816,0.327430,0.627875,0.420627,0.520320,0.479746,0.390866,0.500000,0.250000,0.500000,-0.250000,0.479746,-0.390866,0.420627,-0.520320,0.327430,-0.627875,0.207708,-0.704816,0.071157,-0.744911,0.000000,-0.744911,0.000000,-0.750000,-0.550000,-0.750000,-0.550000,0.750000,0.000000,0.750000,0.000000,0.744911,0.000000,0.744911,
$1*%
%AMFreePoly3*
4,1,9,0.775000,-0.600000,0.225000,-0.600000,0.225000,-0.274999,-0.225000,-0.274999,-0.225000,0.274999,0.225000,0.274999,0.225000,0.600000,0.775000,0.600000,0.775000,-0.600000,0.775000,-0.600000,$1*%
%AMFreePoly4*
4,1,19,0.500000,-0.750000,0.000000,-0.750000,0.000000,-0.744911,-0.071157,-0.744911,-0.207708,-0.704816,-0.327430,-0.627875,-0.420627,-0.520320,-0.479746,-0.390866,-0.500000,-0.250000,-0.500000,0.250000,-0.479746,0.390866,-0.420627,0.520320,-0.327430,0.627875,-0.207708,0.704816,-0.071157,0.744911,0.000000,0.744911,0.000000,0.750000,0.500000,0.750000,0.500000,-0.750000,0.500000,-0.750000,
$1*%
%AMFreePoly5*
4,1,19,0.000000,0.744911,0.071157,0.744911,0.207708,0.704816,0.327430,0.627875,0.420627,0.520320,0.479746,0.390866,0.500000,0.250000,0.500000,-0.250000,0.479746,-0.390866,0.420627,-0.520320,0.327430,-0.627875,0.207708,-0.704816,0.071157,-0.744911,0.000000,-0.744911,0.000000,-0.750000,-0.500000,-0.750000,-0.500000,0.750000,0.000000,0.750000,0.000000,0.744911,0.000000,0.744911,
$1*%
%AMFreePoly6*
4,1,24,-1.150000,0.575000,-1.130407,0.723821,-1.072965,0.862500,-0.981586,0.981586,-0.862500,1.072965,-0.723821,1.130407,-0.575000,1.150000,0.575000,1.150000,0.723821,1.130407,0.862500,1.072965,0.981586,0.981586,1.072965,0.862500,1.130407,0.723821,1.150000,0.575000,1.150000,0.000000,0.000000,-1.150000,-0.575000,-1.150000,-0.723821,-1.130407,-0.862500,-1.072965,-0.981586,-0.981586,
-1.072965,-0.862500,-1.130407,-0.723821,-1.150000,-0.575000,-1.150000,0.575000,-1.150000,0.575000,$1*%
G04 Aperture macros list end*
G04 #@! TA.AperFunction,ComponentPad*
%ADD10C,1.500000*%
G04 #@! TD*
G04 #@! TA.AperFunction,SMDPad,CuDef*
%ADD11RoundRect,0.250000X0.362500X0.700000X-0.362500X0.700000X-0.362500X-0.700000X0.362500X-0.700000X0*%
G04 #@! TD*
G04 #@! TA.AperFunction,SMDPad,CuDef*
%ADD12RoundRect,0.237500X-0.035355X-0.371231X0.371231X0.035355X0.035355X0.371231X-0.371231X-0.035355X0*%
G04 #@! TD*
G04 #@! TA.AperFunction,SMDPad,CuDef*
%ADD13RoundRect,0.155000X0.212500X0.155000X-0.212500X0.155000X-0.212500X-0.155000X0.212500X-0.155000X0*%
G04 #@! TD*
G04 #@! TA.AperFunction,SMDPad,CuDef*
%ADD14C,2.000000*%
G04 #@! TD*
G04 #@! TA.AperFunction,SMDPad,CuDef*
%ADD15FreePoly0,180.000000*%
G04 #@! TD*
G04 #@! TA.AperFunction,SMDPad,CuDef*
%ADD16RoundRect,0.160000X-0.160000X0.197500X-0.160000X-0.197500X0.160000X-0.197500X0.160000X0.197500X0*%
G04 #@! TD*
G04 #@! TA.AperFunction,SMDPad,CuDef*
%ADD17R,0.250000X1.100000*%
G04 #@! TD*
G04 #@! TA.AperFunction,SMDPad,CuDef*
%ADD18FreePoly1,180.000000*%
G04 #@! TD*
G04 #@! TA.AperFunction,SMDPad,CuDef*
%ADD19R,1.000000X1.500000*%
G04 #@! TD*
G04 #@! TA.AperFunction,SMDPad,CuDef*
%ADD20FreePoly2,180.000000*%
G04 #@! TD*
G04 #@! TA.AperFunction,SMDPad,CuDef*
%ADD21R,3.150000X1.000000*%
G04 #@! TD*
G04 #@! TA.AperFunction,SMDPad,CuDef*
%ADD22RoundRect,0.160000X0.026517X0.252791X-0.252791X-0.026517X-0.026517X-0.252791X0.252791X0.026517X0*%
G04 #@! TD*
G04 #@! TA.AperFunction,SMDPad,CuDef*
%ADD23R,1.500000X0.900000*%
G04 #@! TD*
G04 #@! TA.AperFunction,SMDPad,CuDef*
%ADD24R,0.900000X1.500000*%
G04 #@! TD*
G04 #@! TA.AperFunction,HeatsinkPad*
%ADD25C,0.600000*%
G04 #@! TD*
G04 #@! TA.AperFunction,SMDPad,CuDef*
%ADD26R,3.900000X3.900000*%
G04 #@! TD*
G04 #@! TA.AperFunction,SMDPad,CuDef*
%ADD27FreePoly1,0.000000*%
G04 #@! TD*
G04 #@! TA.AperFunction,SMDPad,CuDef*
%ADD28FreePoly2,0.000000*%
G04 #@! TD*
G04 #@! TA.AperFunction,SMDPad,CuDef*
%ADD29RoundRect,0.160000X0.197500X0.160000X-0.197500X0.160000X-0.197500X-0.160000X0.197500X-0.160000X0*%
G04 #@! TD*
G04 #@! TA.AperFunction,SMDPad,CuDef*
%ADD30RoundRect,0.160000X-0.197500X-0.160000X0.197500X-0.160000X0.197500X0.160000X-0.197500X0.160000X0*%
G04 #@! TD*
G04 #@! TA.AperFunction,SMDPad,CuDef*
%ADD31FreePoly3,225.000000*%
G04 #@! TD*
G04 #@! TA.AperFunction,SMDPad,CuDef*
%ADD32RotRect,0.700000X1.200000X45.000000*%
G04 #@! TD*
G04 #@! TA.AperFunction,SMDPad,CuDef*
%ADD33RotRect,0.450000X1.200000X45.000000*%
G04 #@! TD*
G04 #@! TA.AperFunction,SMDPad,CuDef*
%ADD34FreePoly3,45.000000*%
G04 #@! TD*
G04 #@! TA.AperFunction,SMDPad,CuDef*
%ADD35RoundRect,0.225000X-0.225000X-0.250000X0.225000X-0.250000X0.225000X0.250000X-0.225000X0.250000X0*%
G04 #@! TD*
G04 #@! TA.AperFunction,SMDPad,CuDef*
%ADD36Outline4P,-1.800000X-1.150000X1.800000X-0.550000X1.800000X0.550000X-1.800000X1.150000X180.000000*%
G04 #@! TD*
G04 #@! TA.AperFunction,SMDPad,CuDef*
%ADD37Outline4P,-1.800000X-1.150000X1.800000X-0.550000X1.800000X0.550000X-1.800000X1.150000X0.000000*%
G04 #@! TD*
G04 #@! TA.AperFunction,SMDPad,CuDef*
%ADD38RoundRect,0.150000X0.150000X-0.825000X0.150000X0.825000X-0.150000X0.825000X-0.150000X-0.825000X0*%
G04 #@! TD*
G04 #@! TA.AperFunction,SMDPad,CuDef*
%ADD39RoundRect,0.155000X-0.212500X-0.155000X0.212500X-0.155000X0.212500X0.155000X-0.212500X0.155000X0*%
G04 #@! TD*
G04 #@! TA.AperFunction,SMDPad,CuDef*
%ADD40RoundRect,0.225000X0.225000X0.250000X-0.225000X0.250000X-0.225000X-0.250000X0.225000X-0.250000X0*%
G04 #@! TD*
G04 #@! TA.AperFunction,SMDPad,CuDef*
%ADD41RoundRect,0.250000X0.275000X0.350000X-0.275000X0.350000X-0.275000X-0.350000X0.275000X-0.350000X0*%
G04 #@! TD*
G04 #@! TA.AperFunction,SMDPad,CuDef*
%ADD42FreePoly4,90.000000*%
G04 #@! TD*
G04 #@! TA.AperFunction,SMDPad,CuDef*
%ADD43FreePoly5,90.000000*%
G04 #@! TD*
G04 #@! TA.AperFunction,SMDPad,CuDef*
%ADD44RoundRect,0.375000X0.625000X0.375000X-0.625000X0.375000X-0.625000X-0.375000X0.625000X-0.375000X0*%
G04 #@! TD*
G04 #@! TA.AperFunction,SMDPad,CuDef*
%ADD45RoundRect,0.500000X0.500000X1.400000X-0.500000X1.400000X-0.500000X-1.400000X0.500000X-1.400000X0*%
G04 #@! TD*
G04 #@! TA.AperFunction,SMDPad,CuDef*
%ADD46RoundRect,0.237500X-0.237500X0.300000X-0.237500X-0.300000X0.237500X-0.300000X0.237500X0.300000X0*%
G04 #@! TD*
G04 #@! TA.AperFunction,SMDPad,CuDef*
%ADD47RoundRect,0.160000X0.160000X-0.197500X0.160000X0.197500X-0.160000X0.197500X-0.160000X-0.197500X0*%
G04 #@! TD*
G04 #@! TA.AperFunction,SMDPad,CuDef*
%ADD48RoundRect,0.162500X0.617500X0.162500X-0.617500X0.162500X-0.617500X-0.162500X0.617500X-0.162500X0*%
G04 #@! TD*
G04 #@! TA.AperFunction,SMDPad,CuDef*
%ADD49RoundRect,0.155000X-0.155000X0.212500X-0.155000X-0.212500X0.155000X-0.212500X0.155000X0.212500X0*%
G04 #@! TD*
G04 #@! TA.AperFunction,SMDPad,CuDef*
%ADD50FreePoly1,270.000000*%
G04 #@! TD*
G04 #@! TA.AperFunction,SMDPad,CuDef*
%ADD51R,1.500000X1.000000*%
G04 #@! TD*
G04 #@! TA.AperFunction,SMDPad,CuDef*
%ADD52FreePoly2,270.000000*%
G04 #@! TD*
G04 #@! TA.AperFunction,SMDPad,CuDef*
%ADD53RoundRect,0.150000X-0.587500X-0.150000X0.587500X-0.150000X0.587500X0.150000X-0.587500X0.150000X0*%
G04 #@! TD*
G04 #@! TA.AperFunction,SMDPad,CuDef*
%ADD54R,0.300000X0.850000*%
G04 #@! TD*
G04 #@! TA.AperFunction,SMDPad,CuDef*
%ADD55RoundRect,0.225000X0.375000X-0.225000X0.375000X0.225000X-0.375000X0.225000X-0.375000X-0.225000X0*%
G04 #@! TD*
G04 #@! TA.AperFunction,SMDPad,CuDef*
%ADD56RoundRect,0.250000X-1.500000X0.250000X-1.500000X-0.250000X1.500000X-0.250000X1.500000X0.250000X0*%
G04 #@! TD*
G04 #@! TA.AperFunction,SMDPad,CuDef*
%ADD57RoundRect,0.250001X-1.449999X0.499999X-1.449999X-0.499999X1.449999X-0.499999X1.449999X0.499999X0*%
G04 #@! TD*
G04 #@! TA.AperFunction,SMDPad,CuDef*
%ADD58RoundRect,0.075000X0.175000X0.300000X-0.175000X0.300000X-0.175000X-0.300000X0.175000X-0.300000X0*%
G04 #@! TD*
G04 #@! TA.AperFunction,SMDPad,CuDef*
%ADD59RoundRect,0.250000X-0.300000X-0.300000X0.300000X-0.300000X0.300000X0.300000X-0.300000X0.300000X0*%
G04 #@! TD*
G04 #@! TA.AperFunction,SMDPad,CuDef*
%ADD60R,0.600000X1.500000*%
G04 #@! TD*
G04 #@! TA.AperFunction,SMDPad,CuDef*
%ADD61R,0.300000X1.500000*%
G04 #@! TD*
G04 #@! TA.AperFunction,ComponentPad*
%ADD62O,0.950000X2.150000*%
G04 #@! TD*
G04 #@! TA.AperFunction,ComponentPad*
%ADD63O,1.000000X1.900000*%
G04 #@! TD*
G04 #@! TA.AperFunction,SMDPad,CuDef*
%ADD64RoundRect,0.575000X0.575000X0.575000X-0.575000X0.575000X-0.575000X-0.575000X0.575000X-0.575000X0*%
G04 #@! TD*
G04 #@! TA.AperFunction,SMDPad,CuDef*
%ADD65FreePoly6,180.000000*%
G04 #@! TD*
G04 #@! TA.AperFunction,SMDPad,CuDef*
%ADD66R,1.750000X0.450000*%
G04 #@! TD*
G04 #@! TA.AperFunction,SMDPad,CuDef*
%ADD67RoundRect,0.237500X-0.300000X-0.237500X0.300000X-0.237500X0.300000X0.237500X-0.300000X0.237500X0*%
G04 #@! TD*
G04 #@! TA.AperFunction,SMDPad,CuDef*
%ADD68RoundRect,0.150000X0.200000X-0.150000X0.200000X0.150000X-0.200000X0.150000X-0.200000X-0.150000X0*%
G04 #@! TD*
G04 #@! TA.AperFunction,SMDPad,CuDef*
%ADD69RotRect,0.700000X1.200000X225.000000*%
G04 #@! TD*
G04 #@! TA.AperFunction,SMDPad,CuDef*
%ADD70RotRect,0.450000X1.200000X225.000000*%
G04 #@! TD*
G04 #@! TA.AperFunction,SMDPad,CuDef*
%ADD71FreePoly3,315.000000*%
G04 #@! TD*
G04 #@! TA.AperFunction,SMDPad,CuDef*
%ADD72RotRect,0.700000X1.200000X135.000000*%
G04 #@! TD*
G04 #@! TA.AperFunction,SMDPad,CuDef*
%ADD73RotRect,0.450000X1.200000X135.000000*%
G04 #@! TD*
G04 #@! TA.AperFunction,SMDPad,CuDef*
%ADD74FreePoly3,135.000000*%
G04 #@! TD*
G04 #@! TA.AperFunction,SMDPad,CuDef*
%ADD75RoundRect,0.150000X0.150000X-0.587500X0.150000X0.587500X-0.150000X0.587500X-0.150000X-0.587500X0*%
G04 #@! TD*
G04 #@! TA.AperFunction,SMDPad,CuDef*
%ADD76FreePoly3,0.000000*%
G04 #@! TD*
G04 #@! TA.AperFunction,SMDPad,CuDef*
%ADD77R,0.700000X1.200000*%
G04 #@! TD*
G04 #@! TA.AperFunction,SMDPad,CuDef*
%ADD78R,0.450000X1.200000*%
G04 #@! TD*
G04 #@! TA.AperFunction,SMDPad,CuDef*
%ADD79FreePoly3,180.000000*%
G04 #@! TD*
G04 #@! TA.AperFunction,SMDPad,CuDef*
%ADD80RoundRect,0.150000X0.587500X0.150000X-0.587500X0.150000X-0.587500X-0.150000X0.587500X-0.150000X0*%
G04 #@! TD*
G04 #@! TA.AperFunction,SMDPad,CuDef*
%ADD81RoundRect,0.250000X1.500000X-0.250000X1.500000X0.250000X-1.500000X0.250000X-1.500000X-0.250000X0*%
G04 #@! TD*
G04 #@! TA.AperFunction,SMDPad,CuDef*
%ADD82RoundRect,0.250001X1.449999X-0.499999X1.449999X0.499999X-1.449999X0.499999X-1.449999X-0.499999X0*%
G04 #@! TD*
G04 #@! TA.AperFunction,SMDPad,CuDef*
%ADD83RoundRect,0.059000X-0.626000X0.236000X-0.626000X-0.236000X0.626000X-0.236000X0.626000X0.236000X0*%
G04 #@! TD*
G04 #@! TA.AperFunction,SMDPad,CuDef*
%ADD84RotRect,0.700000X1.200000X315.000000*%
G04 #@! TD*
G04 #@! TA.AperFunction,SMDPad,CuDef*
%ADD85RotRect,0.450000X1.200000X315.000000*%
G04 #@! TD*
G04 #@! TA.AperFunction,SMDPad,CuDef*
%ADD86RoundRect,0.237500X0.287500X0.237500X-0.287500X0.237500X-0.287500X-0.237500X0.287500X-0.237500X0*%
G04 #@! TD*
G04 #@! TA.AperFunction,SMDPad,CuDef*
%ADD87RoundRect,0.250000X-0.325000X-0.450000X0.325000X-0.450000X0.325000X0.450000X-0.325000X0.450000X0*%
G04 #@! TD*
G04 #@! TA.AperFunction,SMDPad,CuDef*
%ADD88RoundRect,0.100000X0.637500X0.100000X-0.637500X0.100000X-0.637500X-0.100000X0.637500X-0.100000X0*%
G04 #@! TD*
G04 #@! TA.AperFunction,SMDPad,CuDef*
%ADD89RoundRect,0.237500X-0.250000X-0.237500X0.250000X-0.237500X0.250000X0.237500X-0.250000X0.237500X0*%
G04 #@! TD*
G04 #@! TA.AperFunction,ViaPad*
%ADD90C,0.600000*%
G04 #@! TD*
G04 #@! TA.AperFunction,Conductor*
%ADD91C,1.000000*%
G04 #@! TD*
G04 #@! TA.AperFunction,Conductor*
%ADD92C,0.150000*%
G04 #@! TD*
G04 #@! TA.AperFunction,Conductor*
%ADD93C,0.500000*%
G04 #@! TD*
G04 #@! TA.AperFunction,Conductor*
%ADD94C,0.200000*%
G04 #@! TD*
G04 #@! TA.AperFunction,Conductor*
%ADD95C,2.000000*%
G04 #@! TD*
G04 APERTURE END LIST*
D10*
X30700000Y-39400000D03*
X33104163Y-36995837D03*
X-30700000Y-39400000D03*
X-33104163Y-36995837D03*
X-34200000Y46400000D03*
X-31795837Y48804163D03*
X34200000Y46400000D03*
X31795837Y48804163D03*
D11*
X13235000Y3600000D03*
X9910000Y3600000D03*
D12*
X20281282Y51081282D03*
X21518718Y52318718D03*
D13*
X12140000Y5400000D03*
X11005000Y5400000D03*
D14*
X6400000Y23400000D03*
D12*
X8181282Y51081282D03*
X9418718Y52318718D03*
D15*
X15625000Y-50000000D03*
D16*
X-12600000Y48597500D03*
X-12600000Y47402500D03*
D17*
X-36800000Y-22450000D03*
X-36300000Y-22450000D03*
X-35800000Y-22450000D03*
X-35300000Y-22450000D03*
X-34800000Y-22450000D03*
X-34800000Y-26750000D03*
X-35300000Y-26750000D03*
X-35800000Y-26750000D03*
X-36300000Y-26750000D03*
X-36800000Y-26750000D03*
D18*
X-8900000Y-22000000D03*
D19*
X-10200000Y-22000000D03*
D20*
X-11500000Y-22000000D03*
D14*
X1600000Y25800000D03*
D21*
X-12075000Y26620000D03*
X-17125000Y26620000D03*
X-12075000Y24080000D03*
X-17125000Y24080000D03*
X-12075000Y21540000D03*
X-17125000Y21540000D03*
X-12075000Y19000000D03*
X-17125000Y19000000D03*
X-12075000Y16460000D03*
X-17125000Y16460000D03*
X-12075000Y13920000D03*
X-17125000Y13920000D03*
X-12075000Y11380000D03*
X-17125000Y11380000D03*
D15*
X-36375000Y22500000D03*
X-20375000Y-50000000D03*
D22*
X9822496Y50622496D03*
X8977504Y49777504D03*
D23*
X-8950000Y-46320000D03*
X-8950000Y-45050000D03*
X-8950000Y-43780000D03*
X-8950000Y-42510000D03*
X-8950000Y-41240000D03*
X-8950000Y-39970000D03*
X-8950000Y-38700000D03*
X-8950000Y-37430000D03*
X-8950000Y-36160000D03*
X-8950000Y-34890000D03*
X-8950000Y-33620000D03*
X-8950000Y-32350000D03*
X-8950000Y-31080000D03*
X-8950000Y-29810000D03*
D24*
X-7185000Y-28560000D03*
X-5915000Y-28560000D03*
X-4645000Y-28560000D03*
X-3375000Y-28560000D03*
X-2105000Y-28560000D03*
X-835000Y-28560000D03*
X435000Y-28560000D03*
X1705000Y-28560000D03*
X2975000Y-28560000D03*
X4245000Y-28560000D03*
X5515000Y-28560000D03*
X6785000Y-28560000D03*
D23*
X8550000Y-29810000D03*
X8550000Y-31080000D03*
X8550000Y-32350000D03*
X8550000Y-33620000D03*
X8550000Y-34890000D03*
X8550000Y-36160000D03*
X8550000Y-37430000D03*
X8550000Y-38700000D03*
X8550000Y-39970000D03*
X8550000Y-41240000D03*
X8550000Y-42510000D03*
X8550000Y-43780000D03*
X8550000Y-45050000D03*
X8550000Y-46320000D03*
D25*
X-3100000Y-37900000D03*
X-3100000Y-39300000D03*
X-2400000Y-37200000D03*
X-2400000Y-38600000D03*
X-2400000Y-40000000D03*
X-1700000Y-37900000D03*
D26*
X-1700000Y-38600000D03*
D25*
X-1700000Y-39300000D03*
X-1000000Y-37200000D03*
X-1000000Y-38600000D03*
X-1000000Y-40000000D03*
X-300000Y-37900000D03*
X-300000Y-39300000D03*
D14*
X4000000Y28200000D03*
D27*
X-1300000Y-15000000D03*
D19*
X0Y-15000000D03*
D28*
X1300000Y-15000000D03*
D27*
X-1300000Y3000000D03*
D19*
X0Y3000000D03*
D28*
X1300000Y3000000D03*
D14*
X6400000Y21000000D03*
D16*
X7400000Y47197500D03*
X7400000Y46002500D03*
D29*
X31197500Y-37200000D03*
X30002500Y-37200000D03*
D30*
X-11997500Y-44200000D03*
X-10802500Y-44200000D03*
D29*
X12197500Y-43600000D03*
X11002500Y-43600000D03*
D14*
X-2000000Y18600000D03*
D31*
X12667247Y-8832753D03*
D32*
X11518198Y-9981802D03*
D33*
X10793414Y-10706586D03*
D34*
X9732753Y-11767247D03*
D35*
X13925000Y-33200000D03*
X15475000Y-33200000D03*
D14*
X-4400000Y28200000D03*
X-4400000Y25800000D03*
X-2000000Y25800000D03*
X-6800000Y23400000D03*
D18*
X-8900000Y-13200000D03*
D19*
X-10200000Y-13200000D03*
D20*
X-11500000Y-13200000D03*
D29*
X20997500Y49000000D03*
X19802500Y49000000D03*
D36*
X17200000Y-2400000D03*
D37*
X11400000Y-2400000D03*
D27*
X-1310688Y-1020251D03*
D19*
X-10688Y-1020251D03*
D28*
X1289312Y-1020251D03*
D38*
X30010000Y45125000D03*
X28740000Y45125000D03*
X27470000Y45125000D03*
X26200000Y45125000D03*
X24930000Y45125000D03*
X23660000Y45125000D03*
X22390000Y45125000D03*
X22390000Y50075000D03*
X23660000Y50075000D03*
X24930000Y50075000D03*
X26200000Y50075000D03*
X27470000Y50075000D03*
X28740000Y50075000D03*
X30010000Y50075000D03*
D27*
X-1300000Y-3000000D03*
D19*
X0Y-3000000D03*
D28*
X1300000Y-3000000D03*
D15*
X27625000Y-20500000D03*
D39*
X26032500Y-8400000D03*
X27167500Y-8400000D03*
D21*
X-15325000Y-24920000D03*
X-20375000Y-24920000D03*
X-15325000Y-27460000D03*
X-20375000Y-27460000D03*
X-15325000Y-30000000D03*
X-20375000Y-30000000D03*
X-15325000Y-32540000D03*
X-20375000Y-32540000D03*
X-15325000Y-35080000D03*
X-20375000Y-35080000D03*
D14*
X1600000Y21000000D03*
D40*
X12175000Y-46000000D03*
X10625000Y-46000000D03*
D41*
X-7250000Y46400000D03*
X-9550000Y46400000D03*
D40*
X-11025000Y-46400000D03*
X-12575000Y-46400000D03*
D13*
X-10832500Y-45200000D03*
X-11967500Y-45200000D03*
D42*
X34200000Y-29650000D03*
D43*
X34200000Y-28350000D03*
D21*
X31325000Y-27660000D03*
X26275000Y-27660000D03*
X31325000Y-30200000D03*
X26275000Y-30200000D03*
X31325000Y-32740000D03*
X26275000Y-32740000D03*
D14*
X24800000Y-44800000D03*
D12*
X16281282Y51081282D03*
X17518718Y52318718D03*
D16*
X1200000Y44147500D03*
X1200000Y42952500D03*
D39*
X25632500Y-24400000D03*
X26767500Y-24400000D03*
D29*
X12197500Y-44600000D03*
X11002500Y-44600000D03*
D14*
X6400000Y28200000D03*
D44*
X19700000Y-26500000D03*
X19700000Y-28800000D03*
D45*
X13400000Y-28800000D03*
D44*
X19700000Y-31100000D03*
D27*
X-1300000Y-5000000D03*
D19*
X0Y-5000000D03*
D28*
X1300000Y-5000000D03*
D30*
X-23597500Y45000000D03*
X-22402500Y45000000D03*
D46*
X31800000Y46062500D03*
X31800000Y44337500D03*
D47*
X13000000Y44402500D03*
X13000000Y45597500D03*
D48*
X-17450000Y48350000D03*
X-17450000Y47400000D03*
X-17450000Y46450000D03*
X-20150000Y46450000D03*
X-20150000Y47400000D03*
X-20150000Y48350000D03*
D49*
X-11600000Y48567500D03*
X-11600000Y47432500D03*
D14*
X-6800000Y28200000D03*
D50*
X-39000000Y-23300000D03*
D51*
X-39000000Y-24600000D03*
D52*
X-39000000Y-25900000D03*
D14*
X4000000Y18600000D03*
X-2000000Y28200000D03*
D53*
X15000000Y44650000D03*
X15000000Y46550000D03*
X16875000Y45600000D03*
D29*
X-32602500Y-35000000D03*
X-33797500Y-35000000D03*
D47*
X9400000Y46002500D03*
X9400000Y47197500D03*
D54*
X100000Y35900000D03*
X600000Y35900000D03*
X1100000Y35900000D03*
X1100000Y34500000D03*
X600000Y34500000D03*
X100000Y34500000D03*
D13*
X10467500Y-8800000D03*
X9332500Y-8800000D03*
D55*
X20400000Y44550000D03*
X20400000Y47850000D03*
D49*
X-14600000Y48567500D03*
X-14600000Y47432500D03*
D14*
X-2000000Y21000000D03*
D56*
X3550000Y41800000D03*
X3550000Y39800000D03*
X3550000Y37800000D03*
D57*
X9300000Y44150000D03*
X9300000Y35450000D03*
D22*
X17822496Y50622496D03*
X16977504Y49777504D03*
D13*
X12367500Y-47200000D03*
X11232500Y-47200000D03*
D27*
X-1300000Y7000000D03*
D19*
X0Y7000000D03*
D28*
X1300000Y7000000D03*
D58*
X1600000Y-54400000D03*
X800000Y-54400000D03*
X0Y-54400000D03*
X-800000Y-54400000D03*
X-1600000Y-54400000D03*
D27*
X-1300000Y-17000000D03*
D19*
X0Y-17000000D03*
D28*
X1300000Y-17000000D03*
D39*
X11005000Y1800000D03*
X12140000Y1800000D03*
D14*
X6400000Y25800000D03*
D40*
X-23425000Y-8600000D03*
X-24975000Y-8600000D03*
D47*
X34200000Y42202500D03*
X34200000Y43397500D03*
D29*
X12197500Y-42600000D03*
X11002500Y-42600000D03*
D59*
X-28000000Y-35400000D03*
X-25200000Y-35400000D03*
D22*
X13822496Y50622496D03*
X12977504Y49777504D03*
D15*
X31625000Y22500000D03*
D18*
X-8900000Y-11200000D03*
D19*
X-10200000Y-11200000D03*
D20*
X-11500000Y-11200000D03*
D14*
X4000000Y21000000D03*
D27*
X-1300000Y1000000D03*
D19*
X0Y1000000D03*
D28*
X1300000Y1000000D03*
D60*
X-3200000Y46350000D03*
X-2400000Y46350000D03*
D61*
X-1250000Y46350000D03*
X-250000Y46350000D03*
X250000Y46350000D03*
X1250000Y46350000D03*
D60*
X2400000Y46350000D03*
X3200000Y46350000D03*
X3200000Y46350000D03*
X2400000Y46350000D03*
D61*
X1750000Y46350000D03*
X750000Y46350000D03*
X-750000Y46350000D03*
X-1750000Y46350000D03*
D60*
X-2400000Y46350000D03*
X-3200000Y46350000D03*
D62*
X-5540000Y51100000D03*
D63*
X-5540000Y47200000D03*
D62*
X5540000Y51100000D03*
D63*
X5540000Y47200000D03*
D47*
X36200000Y42200000D03*
X36200000Y43395000D03*
D18*
X-8900000Y-18000000D03*
D19*
X-10200000Y-18000000D03*
D20*
X-11500000Y-18000000D03*
D13*
X-19832500Y45000000D03*
X-20967500Y45000000D03*
X-24032500Y-9800000D03*
X-25167500Y-9800000D03*
D64*
X-32550000Y-32450000D03*
D65*
X-32550000Y-25350000D03*
D64*
X-25450000Y-25350000D03*
X-25450000Y-32450000D03*
D18*
X-8900000Y-9200000D03*
D19*
X-10200000Y-9200000D03*
D20*
X-11500000Y-9200000D03*
D14*
X-2000000Y23400000D03*
X-4400000Y23400000D03*
X24800000Y-39200000D03*
X4000000Y23400000D03*
D47*
X38200000Y42200000D03*
X38200000Y43395000D03*
D66*
X-16600000Y-11425000D03*
X-16600000Y-12075000D03*
X-16600000Y-12725000D03*
X-16600000Y-13375000D03*
X-16600000Y-14025000D03*
X-16600000Y-14675000D03*
X-16600000Y-15325000D03*
X-16600000Y-15975000D03*
X-16600000Y-16625000D03*
X-16600000Y-17275000D03*
X-16600000Y-17925000D03*
X-16600000Y-18575000D03*
X-23800000Y-18575000D03*
X-23800000Y-17925000D03*
X-23800000Y-17275000D03*
X-23800000Y-16625000D03*
X-23800000Y-15975000D03*
X-23800000Y-15325000D03*
X-23800000Y-14675000D03*
X-23800000Y-14025000D03*
X-23800000Y-13375000D03*
X-23800000Y-12725000D03*
X-23800000Y-12075000D03*
X-23800000Y-11425000D03*
D29*
X-36002500Y-21000000D03*
X-37197500Y-21000000D03*
D40*
X-22625000Y50000000D03*
X-24175000Y50000000D03*
D14*
X1600000Y18600000D03*
D30*
X-17997500Y49900000D03*
X-16802500Y49900000D03*
D13*
X-17032500Y6800000D03*
X-18167500Y6800000D03*
D27*
X-1300000Y-9000000D03*
D19*
X0Y-9000000D03*
D28*
X1300000Y-9000000D03*
D50*
X-11600000Y-25900000D03*
D51*
X-11600000Y-27200000D03*
D52*
X-11600000Y-28500000D03*
D49*
X-13600000Y48567500D03*
X-13600000Y47432500D03*
D16*
X37200000Y43395000D03*
X37200000Y42200000D03*
D27*
X-1300000Y5000000D03*
D19*
X0Y5000000D03*
D28*
X1300000Y5000000D03*
D27*
X-1300000Y-13000000D03*
D19*
X0Y-13000000D03*
D28*
X1300000Y-13000000D03*
D27*
X-1300000Y-19000000D03*
D19*
X0Y-19000000D03*
D28*
X1300000Y-19000000D03*
D67*
X10710000Y600000D03*
X12435000Y600000D03*
D68*
X13200000Y48100000D03*
X13200000Y46700000D03*
D14*
X1600000Y23400000D03*
D18*
X-8900000Y-20000000D03*
D19*
X-10200000Y-20000000D03*
D20*
X-11500000Y-20000000D03*
D34*
X23332753Y-24367247D03*
D69*
X24481802Y-23218198D03*
D70*
X25206586Y-22493414D03*
D31*
X26267247Y-21432753D03*
D71*
X10532753Y-21132753D03*
D72*
X11681802Y-22281802D03*
D73*
X12406586Y-23006586D03*
D74*
X13467247Y-24067247D03*
D49*
X-26600000Y48167500D03*
X-26600000Y47032500D03*
D75*
X21950000Y-35337500D03*
X20050000Y-35337500D03*
X21000000Y-33462500D03*
D30*
X-25997500Y-42800000D03*
X-24802500Y-42800000D03*
D29*
X12197500Y-41600000D03*
X11002500Y-41600000D03*
D30*
X-32397500Y46400000D03*
X-31202500Y46400000D03*
D15*
X-32375000Y-20500000D03*
D76*
X-12025000Y50250000D03*
D77*
X-10400000Y50250000D03*
D78*
X-9375000Y50250000D03*
D79*
X-7875000Y50250000D03*
D14*
X-6800000Y25800000D03*
D80*
X-25262500Y-39450000D03*
X-25262500Y-41350000D03*
X-27137500Y-40400000D03*
D40*
X-16425000Y8000000D03*
X-17975000Y8000000D03*
D14*
X4000000Y25800000D03*
D81*
X-3550000Y37800000D03*
X-3550000Y39800000D03*
X-3550000Y41800000D03*
D82*
X-9300000Y35450000D03*
X-9300000Y44150000D03*
D18*
X-8900000Y-15200000D03*
D19*
X-10200000Y-15200000D03*
D20*
X-11500000Y-15200000D03*
D18*
X-8900000Y-7200000D03*
D19*
X-10200000Y-7200000D03*
D20*
X-11500000Y-7200000D03*
D12*
X12281282Y51081282D03*
X13518718Y52318718D03*
D83*
X-22625000Y48350000D03*
X-22625000Y47400000D03*
X-22625000Y46450000D03*
X-24975000Y46450000D03*
X-24975000Y48350000D03*
D27*
X-1300000Y-11000000D03*
D19*
X0Y-11000000D03*
D28*
X1300000Y-11000000D03*
D16*
X-15600000Y48597500D03*
X-15600000Y47402500D03*
D56*
X-40550000Y38750000D03*
X-40550000Y36750000D03*
X-40550000Y34750000D03*
X-40550000Y32750000D03*
X-40550000Y30750000D03*
X-40550000Y28750000D03*
D57*
X-34800000Y41100000D03*
X-34800000Y26400000D03*
D81*
X39850000Y32000000D03*
X39850000Y34000000D03*
X39850000Y36000000D03*
X39850000Y38000000D03*
D82*
X34100000Y29650000D03*
X34100000Y40350000D03*
D40*
X18475000Y-33200000D03*
X16925000Y-33200000D03*
D14*
X-4400000Y21000000D03*
D16*
X35200000Y43395000D03*
X35200000Y42200000D03*
D21*
X17125000Y27090000D03*
X12075000Y27090000D03*
X17125000Y24550000D03*
X12075000Y24550000D03*
X17125000Y22010000D03*
X12075000Y22010000D03*
X17125000Y19470000D03*
X12075000Y19470000D03*
X17125000Y16930000D03*
X12075000Y16930000D03*
X17125000Y14390000D03*
X12075000Y14390000D03*
X17125000Y11850000D03*
X12075000Y11850000D03*
X17125000Y9310000D03*
X12075000Y9310000D03*
D18*
X-8900000Y-5200000D03*
D19*
X-10200000Y-5200000D03*
D20*
X-11500000Y-5200000D03*
D74*
X26667247Y-11267247D03*
D84*
X25518198Y-10118198D03*
D85*
X24793414Y-9393414D03*
D71*
X23732753Y-8332753D03*
D14*
X24800000Y-42000000D03*
D13*
X-36032500Y-28200000D03*
X-37167500Y-28200000D03*
D29*
X35797500Y44800000D03*
X34602500Y44800000D03*
D16*
X-1200000Y44147500D03*
X-1200000Y42952500D03*
D50*
X-41000000Y-23300000D03*
D51*
X-41000000Y-24600000D03*
D52*
X-41000000Y-25900000D03*
D14*
X6400000Y18600000D03*
D47*
X8400000Y46002500D03*
X8400000Y47197500D03*
D86*
X-16400000Y51200000D03*
X-18150000Y51200000D03*
D14*
X1600000Y28200000D03*
X-6800000Y21000000D03*
D13*
X9967500Y-23400000D03*
X8832500Y-23400000D03*
D14*
X24800000Y-36400000D03*
D87*
X-27225000Y-37600000D03*
X-25175000Y-37600000D03*
D88*
X-11937500Y5450000D03*
X-11937500Y4800000D03*
X-11937500Y4150000D03*
X-11937500Y3500000D03*
X-11937500Y2850000D03*
X-11937500Y2200000D03*
X-11937500Y1550000D03*
X-11937500Y900000D03*
X-11937500Y250000D03*
X-11937500Y-400000D03*
X-11937500Y-1050000D03*
X-11937500Y-1700000D03*
X-11937500Y-2350000D03*
X-11937500Y-3000000D03*
X-17662500Y-3000000D03*
X-17662500Y-2350000D03*
X-17662500Y-1700000D03*
X-17662500Y-1050000D03*
X-17662500Y-400000D03*
X-17662500Y250000D03*
X-17662500Y900000D03*
X-17662500Y1550000D03*
X-17662500Y2200000D03*
X-17662500Y2850000D03*
X-17662500Y3500000D03*
X-17662500Y4150000D03*
X-17662500Y4800000D03*
X-17662500Y5450000D03*
D27*
X-1300000Y-7000000D03*
D19*
X0Y-7000000D03*
D28*
X1300000Y-7000000D03*
D89*
X10660000Y6600000D03*
X12485000Y6600000D03*
D90*
X-20400000Y-50300000D03*
X-15800000Y-49200000D03*
X15900000Y-48900000D03*
X19900000Y-48600000D03*
X20400000Y-50100000D03*
X18100000Y-52300000D03*
X19700000Y-51600000D03*
X-16300000Y-51700000D03*
X-19600000Y-51800000D03*
X15600000Y-50200000D03*
X-17900000Y-52400000D03*
X16400000Y-51700000D03*
X-15700000Y-50600000D03*
X2400000Y45500000D03*
X-2400000Y47230000D03*
X13800000Y2600000D03*
X2400000Y47200000D03*
X13400000Y4600000D03*
X-2400000Y45500000D03*
X12800000Y6000000D03*
X13200000Y6800000D03*
X-517087Y44750000D03*
X750000Y45046984D03*
X24800000Y-39200000D03*
X-29400000Y12600000D03*
X8700000Y-21500000D03*
X29100000Y-11313960D03*
X-24800000Y-9200000D03*
X20600000Y-27000000D03*
X3500000Y47100000D03*
X-24600000Y50000000D03*
X-12001469Y-45784998D03*
X28645352Y11500000D03*
X30400000Y-22800000D03*
X27200000Y-24400000D03*
X-36200000Y21900000D03*
X-28050000Y-20800000D03*
X-15800000Y-19000000D03*
X31900000Y21900000D03*
X-28700000Y-18500000D03*
X-29400000Y11400000D03*
X35500000Y24400000D03*
X15000000Y46800000D03*
X33200000Y20800000D03*
X32200000Y-20200000D03*
X34200000Y20800000D03*
X30400000Y-18400000D03*
X12400000Y0D03*
X-16200000Y47400000D03*
X-32100000Y21000000D03*
X7800000Y-46400000D03*
X-7600000Y50600000D03*
X13600000Y-24400000D03*
X-31900000Y-19900000D03*
X1600000Y43200000D03*
X-18200000Y7400000D03*
X-29800000Y-22800000D03*
X-8400000Y-3100000D03*
X12200000Y1200000D03*
X15400000Y27600000D03*
X10400000Y5800000D03*
X-12000000Y47000000D03*
X-41400000Y-26400000D03*
X24800000Y-32800000D03*
X-30800000Y46200000D03*
X-29300000Y-11300000D03*
X31595678Y-19244208D03*
X10400000Y7200000D03*
X-35800000Y21200000D03*
X-15800000Y3675646D03*
X-475000Y37500000D03*
X-31700000Y21900000D03*
X-29400000Y7500000D03*
X-28500000Y-22200000D03*
X18800000Y-27000000D03*
X-10000000Y45800000D03*
X31600000Y-22200000D03*
X41600000Y34000000D03*
X28500000Y-8600000D03*
X-36000000Y-23600000D03*
X-30000000Y-18100000D03*
X-26100000Y-41500000D03*
X35700000Y21000000D03*
X32800000Y-32800000D03*
X16200000Y-33200000D03*
X-15823874Y50566309D03*
X28645352Y12496822D03*
X34200000Y44400000D03*
X28500000Y-7500000D03*
X-35800000Y23800000D03*
X15400000Y26600000D03*
X-37600000Y-28200000D03*
X-8200000Y-46400000D03*
X-31100000Y-22300000D03*
X-3500000Y45600000D03*
X-1600000Y43200000D03*
X36300000Y22100000D03*
X-21800000Y46400000D03*
X-21400000Y45000000D03*
X-33415717Y-35406212D03*
X-29300000Y-12900000D03*
X-17000000Y-35000000D03*
X-3850000Y42000000D03*
X-35000000Y24600000D03*
X3400000Y37200000D03*
X-42200000Y36600000D03*
X4200000Y46400000D03*
X-14000000Y47000000D03*
X29600000Y-36800000D03*
X9400000Y-12000000D03*
X-26800000Y46600000D03*
X9400000Y-9300000D03*
X-29400000Y8500000D03*
X-36300000Y23000000D03*
X25600000Y-6900000D03*
X-10000000Y47200000D03*
X-13600000Y-35000000D03*
X-31700000Y23000000D03*
X27800000Y-32800000D03*
X2300000Y37300000D03*
X-31800000Y-21200000D03*
X-28198724Y-19439126D03*
X29100000Y-12700000D03*
X-3500000Y47100000D03*
X32300000Y21100000D03*
X18800000Y-25800000D03*
X29800000Y-32800000D03*
X29200000Y-18300000D03*
X26800000Y-21800000D03*
X36200000Y23400000D03*
X32300000Y-21200000D03*
X-31413187Y-18989483D03*
X20600000Y-25800000D03*
X-26000000Y48400000D03*
X-7800000Y48200000D03*
X16200000Y32800000D03*
X-41000000Y-22800000D03*
X-3675000Y37400000D03*
X-29300000Y-7100000D03*
X12600000Y-27000000D03*
X-11199999Y-22248528D03*
X-10000000Y-45200000D03*
X-18300000Y45300000D03*
X13800000Y27600000D03*
X20157164Y-29671363D03*
X24800000Y-36400000D03*
X-16600000Y7400000D03*
X14400000Y-30600000D03*
X8200000Y41800000D03*
X18600000Y-28800000D03*
X12305857Y-46491643D03*
X-23800000Y-6400000D03*
X12600000Y45400000D03*
X-42200000Y38600000D03*
X-11000000Y-45800000D03*
X12500000Y-4400000D03*
X14400000Y-27000000D03*
X38100000Y32000000D03*
X-35934639Y-27765361D03*
X1800000Y41400000D03*
X-35400000Y-21000000D03*
X12600000Y-30600000D03*
X-16200000Y49600000D03*
X-8000000Y-45000000D03*
X13800000Y-32800000D03*
X-22200000Y-10000000D03*
X10597914Y-44600000D03*
X-22600000Y-22148527D03*
X-24372500Y-26879851D03*
X-26453898Y4202425D03*
X-15800000Y5600000D03*
X21100000Y-6000000D03*
X-38100000Y-25900000D03*
X10707107Y-41707107D03*
X38000000Y38100000D03*
X-22105005Y-12881665D03*
X38000000Y36000000D03*
X10300000Y-42400000D03*
X-20003607Y-9078090D03*
X-26600000Y5000000D03*
X20750000Y-6950000D03*
X-15000000Y5000000D03*
X-38222500Y-23322500D03*
X10600000Y-43600000D03*
X-1000000Y-53400000D03*
X34400000Y-31400000D03*
X11200000Y-23900000D03*
X21700000Y-27100000D03*
X-28000000Y-31800000D03*
X-24300000Y-22100000D03*
X6700000Y-30700000D03*
X-33800000Y43000000D03*
X4200000Y-32200000D03*
X24800000Y-44800000D03*
X11083750Y-9416250D03*
X5400000Y-27600000D03*
X-12400000Y50600000D03*
X-8800000Y47500000D03*
X10700000Y-5500000D03*
X27900000Y-9400000D03*
X4400000Y-26400000D03*
X4450000Y-19050000D03*
X-21200000Y31700000D03*
X-23100000Y29700000D03*
X4500000Y-21950000D03*
X5200000Y-43900000D03*
X-38700000Y28700000D03*
X4450000Y-20450000D03*
X-22500000Y30500000D03*
X6200000Y-11000000D03*
X1300000Y38300000D03*
X2250000Y-22000000D03*
X1800000Y-27600000D03*
X-2700000Y38900000D03*
X3000000Y-27600000D03*
X-26800000Y900000D03*
X2700000Y-21100000D03*
X-600000Y35550000D03*
X-10400000Y-30300000D03*
X-10400000Y-31200000D03*
X2500000Y35225000D03*
X-16400000Y46000000D03*
X-12950000Y48800000D03*
X-10382500Y-43780000D03*
X-1392985Y35444269D03*
X2068756Y34551181D03*
X-1300000Y38300000D03*
X-7600000Y-43800000D03*
X2700000Y34000000D03*
X-16200000Y48200000D03*
X-23750000Y2200000D03*
X5400000Y19400000D03*
X3800000Y21500000D03*
X-22100000Y700000D03*
X5300000Y22100000D03*
X-22100000Y-150000D03*
X-21400000Y-1200000D03*
X200000Y29448530D03*
X-21425000Y-2200000D03*
X3329178Y24458357D03*
X4900000Y24600000D03*
X-10400000Y-2500000D03*
X2632843Y24900000D03*
X-10400000Y-1692821D03*
X3000021Y26338470D03*
X-10000000Y-1000000D03*
X4900000Y27000000D03*
X-9500000Y-200000D03*
X1424265Y28275735D03*
X-9500000Y700000D03*
X-10400000Y700000D03*
X4100000Y28100000D03*
X-10400000Y1600000D03*
X5060662Y29260662D03*
X-23000000Y-3000000D03*
X-3200000Y20100000D03*
X1954165Y20545835D03*
X-22100000Y1500003D03*
X-6800000Y20900000D03*
X-25500000Y-3800000D03*
X-24874265Y-3225735D03*
X-4400000Y21000000D03*
X-2100000Y20900000D03*
X-23100000Y-2100000D03*
X-6800000Y23400000D03*
X-27100000Y-1700000D03*
X-4400000Y23400000D03*
X-24724265Y-424265D03*
X-24980211Y-1182220D03*
X-2930304Y23100000D03*
X-13721045Y-21678955D03*
X-8026328Y25222200D03*
X-13200000Y-20800000D03*
X-5551922Y24967948D03*
X-13000000Y-22400000D03*
X-3199472Y24900700D03*
X-13315573Y-18884427D03*
X-7899689Y27742586D03*
X-5350691Y27813341D03*
X-13207108Y-17792892D03*
X-3058357Y27529178D03*
X-12600000Y-16600000D03*
X-23750000Y3900000D03*
X1500000Y19300000D03*
X3700000Y18700000D03*
X-23750000Y3050000D03*
X21300000Y-35600000D03*
X-22900000Y45655000D03*
X37600000Y42200000D03*
X24411177Y46204769D03*
X22400000Y46400000D03*
X36600000Y43395000D03*
X10400000Y50000000D03*
X26505276Y47705276D03*
X7800000Y45802500D03*
X20400000Y46200000D03*
X22000000Y52800000D03*
X-10000000Y39800000D03*
X18000000Y52800000D03*
X-7600000Y42000000D03*
X27400000Y45800000D03*
X14000000Y52800000D03*
X-22000000Y-24800000D03*
X9800000Y52800000D03*
X2600000Y42800000D03*
X31800000Y46600000D03*
X8800000Y47600000D03*
X6200000Y43200000D03*
X13650000Y48550000D03*
X38000000Y43800000D03*
X-34600000Y-23900000D03*
X-35200000Y-24700000D03*
X19600000Y44400000D03*
X31800000Y43200000D03*
X-18126640Y-19632966D03*
X-27374265Y-23925735D03*
X-36700000Y-20100000D03*
X-32600000Y-23600000D03*
X-16400000Y1200000D03*
X-17100000Y-5500000D03*
X35600000Y42200000D03*
X23561117Y46861011D03*
X29800000Y51000000D03*
X18000000Y50200000D03*
X27400000Y47800000D03*
X15074265Y49125735D03*
X0Y-1200000D03*
X-7600000Y-36160000D03*
X-3400000Y-27600000D03*
X200000Y-19000000D03*
X-7600000Y-37430000D03*
X0Y-3000000D03*
X-10200000Y-40000000D03*
X0Y1000000D03*
X-7600000Y-34890000D03*
X0Y-11000000D03*
X-7600000Y-33620000D03*
X0Y-9000000D03*
X0Y3000000D03*
X-10200000Y-38800000D03*
X0Y5000000D03*
X-10200000Y-42400000D03*
X-4600000Y-27600000D03*
X245000Y-12250170D03*
X200000Y-17749998D03*
X-2200000Y-27600000D03*
X400000Y-27600000D03*
X0Y-5000000D03*
X-800000Y-27600000D03*
X0Y-7000000D03*
X-245000Y-14399999D03*
X-7600000Y-32350000D03*
X800000Y-46200000D03*
X-18800000Y-22200000D03*
X0Y7000000D03*
X-10200000Y-41200000D03*
X-23400000Y33800000D03*
X-18300000Y-4900000D03*
X-14824265Y-13000000D03*
X-21209789Y45809790D03*
X-15200000Y2800000D03*
X-10400000Y-13900000D03*
X-10400000Y-14900000D03*
X-16300000Y2900000D03*
X-10445000Y-5949998D03*
X-13600000Y6000000D03*
X-14400000Y4400000D03*
X-10400000Y-9900000D03*
X-14800000Y3700000D03*
X-10445000Y-11900000D03*
X-14000000Y5100000D03*
X-10445000Y-7900000D03*
X-15358235Y-7358235D03*
X-16300000Y2100000D03*
X-9955000Y-18749750D03*
X-19900000Y-21600000D03*
X-17600000Y-22200000D03*
X-10100000Y-20400000D03*
X-10445000Y-21250004D03*
X-14204630Y-13596667D03*
X19200000Y50200000D03*
X27400000Y51200000D03*
X6600000Y5500000D03*
X6400000Y8000000D03*
X7014579Y8512149D03*
X7200000Y6200000D03*
X5900000Y4800000D03*
X5800000Y7414579D03*
X5300000Y4000000D03*
X5200000Y6800000D03*
X19000000Y-3600000D03*
X24800000Y-27600000D03*
X15400000Y-2800000D03*
X24800000Y-42000000D03*
X27800000Y-27600000D03*
X15400000Y-2000000D03*
X19000000Y-1400000D03*
X33000000Y-27600000D03*
X29800000Y-27600000D03*
D91*
X12800000Y6400000D02*
X12800000Y4035000D01*
X12800000Y4035000D02*
X13235000Y3600000D01*
X13200000Y6800000D02*
X12800000Y6400000D01*
D92*
X-517087Y44750000D02*
X100000Y44132913D01*
X-250000Y46350000D02*
X-250000Y47300000D01*
X750000Y47225000D02*
X750000Y46350000D01*
X-250000Y47300000D02*
X-150000Y47400000D01*
X575000Y47400000D02*
X750000Y47225000D01*
X-150000Y47400000D02*
X575000Y47400000D01*
X750000Y46350000D02*
X750000Y45046984D01*
X100000Y44132913D02*
X100000Y35900000D01*
X-6340000Y46400000D02*
X-5540000Y47200000D01*
X-7250000Y46400000D02*
X-6340000Y46400000D01*
X-1200000Y44147500D02*
X-1200000Y46300000D01*
X-1200000Y46300000D02*
X-1250000Y46350000D01*
D93*
X2557333Y-53575000D02*
X1025000Y-53575000D01*
D91*
X10400000Y7200000D02*
X10400000Y5500000D01*
D93*
X28300000Y-8400000D02*
X28500000Y-8600000D01*
D94*
X-36000000Y-23600000D02*
X-35800000Y-23400000D01*
X25165506Y-6900000D02*
X23732753Y-8332753D01*
X-8900000Y-3600000D02*
X-8900000Y-5200000D01*
D93*
X11232500Y-47200000D02*
X11232500Y-46607500D01*
D91*
X12435000Y1505000D02*
X12435000Y35000D01*
D94*
X-12700000Y-3000000D02*
X-12800000Y-3100000D01*
D93*
X10225000Y-46400000D02*
X7800000Y-46400000D01*
X-650000Y-54200000D02*
X-200000Y-54200000D01*
D94*
X-24975000Y-8600000D02*
X-24975000Y-9607500D01*
D91*
X12435000Y35000D02*
X12400000Y0D01*
D94*
X-12000000Y47000000D02*
X-12197500Y47000000D01*
X8832500Y-21632500D02*
X8700000Y-21500000D01*
D91*
X12140000Y1800000D02*
X12435000Y1505000D01*
D94*
X-35800000Y-23400000D02*
X-35800000Y-22450000D01*
X-15823874Y50623874D02*
X-16400000Y51200000D01*
X-12000000Y47000000D02*
X-12000000Y47032500D01*
X-14000000Y47000000D02*
X-13567500Y47432500D01*
D93*
X10200000Y-52800000D02*
X8950000Y-54050000D01*
D91*
X10400000Y5500000D02*
X10500000Y5400000D01*
D94*
X-11937500Y-3000000D02*
X-12700000Y-3000000D01*
D93*
X-16760661Y3500000D02*
X-16585015Y3675646D01*
D94*
X-14400000Y47400000D02*
X-14000000Y47000000D01*
X-12800000Y-3100000D02*
X-8400000Y-3100000D01*
X26800000Y-21800000D02*
X26634494Y-21800000D01*
D93*
X1025000Y-53575000D02*
X400000Y-54200000D01*
X10625000Y-46000000D02*
X10225000Y-46400000D01*
D94*
X8832500Y-23400000D02*
X8832500Y-21632500D01*
X-24975000Y-9607500D02*
X-25167500Y-9800000D01*
D91*
X-18232500Y7742500D02*
X-18232500Y6800000D01*
D94*
X-12197500Y47000000D02*
X-12600000Y47402500D01*
X-8900000Y-5200000D02*
X-8900000Y-22000000D01*
X-8400000Y-3100000D02*
X-8900000Y-3600000D01*
X-13567500Y47432500D02*
X-11600000Y47432500D01*
D93*
X-17662500Y3500000D02*
X-16760661Y3500000D01*
D94*
X26634494Y-21800000D02*
X26267247Y-21432753D01*
X2300000Y37300000D02*
X2300000Y37100000D01*
D93*
X27167500Y-8400000D02*
X28300000Y-8400000D01*
X-16585015Y3675646D02*
X-15800000Y3675646D01*
X11232500Y-46607500D02*
X10625000Y-46000000D01*
X7800000Y-46400000D02*
X10200000Y-48800000D01*
D94*
X-15823874Y50566309D02*
X-15823874Y50623874D01*
D93*
X10200000Y-48800000D02*
X10200000Y-52800000D01*
D94*
X-17450000Y47400000D02*
X-14400000Y47400000D01*
D91*
X-17975000Y8000000D02*
X-18232500Y7742500D01*
D93*
X3032333Y-54050000D02*
X2557333Y-53575000D01*
X-11967500Y-45200000D02*
X-11967500Y-45792500D01*
X8950000Y-54050000D02*
X3032333Y-54050000D01*
D94*
X2300000Y37100000D02*
X1100000Y35900000D01*
D93*
X-11967500Y-45792500D02*
X-12575000Y-46400000D01*
D94*
X-12000000Y47032500D02*
X-11600000Y47432500D01*
X25600000Y-6900000D02*
X25165506Y-6900000D01*
D92*
X250000Y46350000D02*
X250000Y45400000D01*
X450000Y36600000D02*
X600000Y36450000D01*
X250000Y45400000D02*
X175000Y45325000D01*
X244974Y44482913D02*
X244975Y44482913D01*
X600000Y36450000D02*
X600000Y35900000D01*
X-625000Y45325000D02*
X-750000Y45450000D01*
X175000Y45325000D02*
X-625000Y45325000D01*
X244975Y44482913D02*
X450000Y44277888D01*
X175000Y45325000D02*
X175000Y44552887D01*
X450000Y44277888D02*
X450000Y36600000D01*
X175000Y44552887D02*
X244974Y44482913D01*
X-750000Y45450000D02*
X-750000Y46350000D01*
X1750000Y44697500D02*
X1750000Y46350000D01*
X1200000Y44147500D02*
X1750000Y44697500D01*
D94*
X-35800000Y-27967500D02*
X-36032500Y-28200000D01*
X-19370001Y47400000D02*
X-18800000Y47970001D01*
X-36032500Y-27863222D02*
X-36032500Y-28200000D01*
D91*
X6350000Y33325000D02*
X6350000Y39950000D01*
X-23425000Y-9625000D02*
X-23800000Y-10000000D01*
D94*
X-26600000Y48167500D02*
X-31159174Y48167500D01*
X-31159174Y48167500D02*
X-31795837Y48804163D01*
D91*
X-16425000Y7407500D02*
X-17032500Y6800000D01*
X-23400000Y-8575000D02*
X-23425000Y-8600000D01*
D94*
X-18600000Y45000000D02*
X-19832500Y45000000D01*
D91*
X13800000Y-32800000D02*
X13800000Y-29200000D01*
D94*
X-18280000Y49000000D02*
X-17702500Y49000000D01*
X-33104163Y-36995837D02*
X-35934639Y-34165361D01*
D91*
X12585000Y27600000D02*
X12075000Y27090000D01*
D94*
X-35934639Y-34165361D02*
X-35934639Y-27765361D01*
D95*
X19700000Y-28800000D02*
X13400000Y-28800000D01*
D93*
X-22200000Y-9375000D02*
X-22975000Y-8600000D01*
D94*
X-20150000Y47400000D02*
X-19370001Y47400000D01*
X-35934639Y-27765361D02*
X-36032500Y-27863222D01*
D91*
X12075000Y27090000D02*
X12075000Y27600000D01*
D94*
X-18300000Y45300000D02*
X-18600000Y45000000D01*
D91*
X13800000Y27600000D02*
X12585000Y27600000D01*
X-23800000Y-10000000D02*
X-23800000Y-11150000D01*
D94*
X-35800000Y-26750000D02*
X-35800000Y-27967500D01*
D91*
X-23800000Y-7200000D02*
X-23400000Y-7600000D01*
X3950000Y41400000D02*
X3550000Y41800000D01*
D94*
X-18800000Y47970001D02*
X-18800000Y48480000D01*
D93*
X-17662500Y5450000D02*
X-17032500Y6080000D01*
D94*
X-26600000Y48167500D02*
X-26367500Y48400000D01*
D93*
X-17032500Y6080000D02*
X-17032500Y6800000D01*
X12197500Y-47030000D02*
X12367500Y-47200000D01*
D91*
X3150000Y41400000D02*
X1800000Y41400000D01*
X-8000000Y-45000000D02*
X-10024342Y-45000000D01*
X12075000Y27600000D02*
X6350000Y33325000D01*
X12075000Y28675000D02*
X16200000Y32800000D01*
X-10024342Y-45000000D02*
X-11025000Y-46000658D01*
D94*
X-16502500Y49600000D02*
X-16802500Y49900000D01*
X-11500000Y-5200000D02*
X-11500000Y-22000000D01*
D91*
X-11025000Y-46000658D02*
X-11025000Y-46400000D01*
X-16425000Y8000000D02*
X-16425000Y7407500D01*
D94*
X-11997500Y-44200000D02*
X-11832500Y-44200000D01*
D93*
X-22200000Y-10000000D02*
X-22200000Y-9375000D01*
D94*
X-18800000Y48480000D02*
X-18280000Y49000000D01*
D91*
X-23425000Y-8600000D02*
X-23425000Y-9625000D01*
X-23400000Y-7600000D02*
X-23400000Y-8575000D01*
D94*
X2604515Y-54400000D02*
X1600000Y-54400000D01*
D93*
X12197500Y-41600000D02*
X12197500Y-47030000D01*
D94*
X-26367500Y48400000D02*
X-25025000Y48400000D01*
X-11832500Y-44200000D02*
X-10832500Y-45200000D01*
D91*
X13800000Y-29200000D02*
X13400000Y-28800000D01*
D94*
X-18300000Y45300000D02*
X-18800000Y45800000D01*
X2804515Y-54600000D02*
X2604515Y-54400000D01*
D91*
X12075000Y27600000D02*
X12075000Y28675000D01*
D94*
X10900000Y-54600000D02*
X2804515Y-54600000D01*
D91*
X6350000Y39950000D02*
X7800000Y41400000D01*
D94*
X12367500Y-47200000D02*
X12367500Y-53132500D01*
X12367500Y-53132500D02*
X10900000Y-54600000D01*
D91*
X7800000Y41400000D02*
X3950000Y41400000D01*
D94*
X-18800000Y45800000D02*
X-18800000Y47970001D01*
D91*
X3550000Y41800000D02*
X3150000Y41400000D01*
D94*
X-25025000Y48400000D02*
X-24975000Y48350000D01*
D91*
X-23800000Y-6400000D02*
X-23800000Y-7200000D01*
D94*
X-17702500Y49000000D02*
X-16802500Y49900000D01*
X-16200000Y49600000D02*
X-16502500Y49600000D01*
X10597914Y-44600000D02*
X11002500Y-44600000D01*
X-17586854Y4225646D02*
X-17662500Y4150000D01*
X-15800000Y5200000D02*
X-16774354Y4225646D01*
X9500000Y-43780000D02*
X9600000Y-43680000D01*
X-18668456Y4500000D02*
X-18318456Y4150000D01*
X-38100000Y-25900000D02*
X-37650000Y-25900000D01*
X-26156323Y4500000D02*
X-18668456Y4500000D01*
X-22680000Y-12725000D02*
X-23800000Y-12725000D01*
X-39000000Y-25900000D02*
X-38100000Y-25900000D01*
X9900000Y-41600000D02*
X11002500Y-41600000D01*
X-26453898Y4202425D02*
X-26156323Y4500000D01*
X-15800000Y5600000D02*
X-15800000Y5200000D01*
X-22523335Y-12881665D02*
X-22680000Y-12725000D01*
X9600000Y-41900000D02*
X9900000Y-41600000D01*
X11002500Y-41600000D02*
X10814214Y-41600000D01*
X10814214Y-41600000D02*
X10707107Y-41707107D01*
X-22105005Y-12881665D02*
X-22523335Y-12881665D01*
X-16774354Y4225646D02*
X-17586854Y4225646D01*
X-37650000Y-25900000D02*
X-36800000Y-26750000D01*
X9600000Y-43680000D02*
X9600000Y-41900000D01*
X8550000Y-43780000D02*
X9500000Y-43780000D01*
X-18318456Y4150000D02*
X-17662500Y4150000D01*
X-38222500Y-23322500D02*
X-36300000Y-25245000D01*
X10600000Y-42600000D02*
X11002500Y-42600000D01*
X-26600000Y5000000D02*
X-26300000Y5300000D01*
X-16134682Y6200000D02*
X-16482500Y5852182D01*
X10000000Y-43200000D02*
X10600000Y-42600000D01*
X-20210517Y-9285000D02*
X-21010000Y-9285000D01*
X10000000Y-44550000D02*
X10000000Y-43200000D01*
X-36300000Y-25245000D02*
X-36300000Y-26750000D01*
X-22750000Y-12075000D02*
X-23800000Y-12075000D01*
X8550000Y-45050000D02*
X9500000Y-45050000D01*
X-21400000Y-9675000D02*
X-21400000Y-10725000D01*
X-17006544Y4800000D02*
X-17662500Y4800000D01*
X-18318456Y4800000D02*
X-17662500Y4800000D01*
X-18818456Y5300000D02*
X-18318456Y4800000D01*
X9500000Y-45050000D02*
X10000000Y-44550000D01*
X-20003607Y-9078090D02*
X-20210517Y-9285000D01*
X-26300000Y5300000D02*
X-18818456Y5300000D01*
X-21010000Y-9285000D02*
X-21400000Y-9675000D01*
X-15000000Y5000000D02*
X-15000000Y5648529D01*
X-15551471Y6200000D02*
X-16134682Y6200000D01*
X-38245000Y-23300000D02*
X-38222500Y-23322500D01*
X-15000000Y5648529D02*
X-15551471Y6200000D01*
X-16482500Y5852182D02*
X-16482500Y5324044D01*
X10300000Y-42400000D02*
X10802500Y-42400000D01*
X-16482500Y5324044D02*
X-17006544Y4800000D01*
X10802500Y-42400000D02*
X11002500Y-42600000D01*
X-39000000Y-23300000D02*
X-38245000Y-23300000D01*
X-21400000Y-10725000D02*
X-22750000Y-12075000D01*
X-1600000Y-54000000D02*
X-1600000Y-54400000D01*
X11002500Y-43600000D02*
X10600000Y-43600000D01*
X-1000000Y-53400000D02*
X-1600000Y-54000000D01*
X22700000Y-25000000D02*
X23332753Y-24367247D01*
X12189975Y-23223197D02*
X12189975Y-24069840D01*
X13120135Y-25000000D02*
X22700000Y-25000000D01*
X12406586Y-23006586D02*
X12189975Y-23223197D01*
X12189975Y-24069840D02*
X13120135Y-25000000D01*
X-10400000Y49767500D02*
X-11600000Y48567500D01*
X11518198Y-9981802D02*
X11518198Y-9850698D01*
D91*
X-28000000Y-27900000D02*
X-25450000Y-25350000D01*
D94*
X25518198Y-10118198D02*
X26032500Y-9603896D01*
X-10400000Y50250000D02*
X-10400000Y49767500D01*
X-11600000Y48567500D02*
X-10990000Y47957500D01*
X11200000Y-23200000D02*
X11200000Y-23900000D01*
D91*
X22500000Y-27100000D02*
X25200000Y-24400000D01*
D94*
X-13900000Y44100000D02*
X-32700000Y44100000D01*
D91*
X21700000Y-27100000D02*
X21700000Y-27578679D01*
D94*
X34400000Y-31400000D02*
X34400000Y-30950000D01*
D91*
X25200000Y-24400000D02*
X25632500Y-24400000D01*
D94*
X-32700000Y44100000D02*
X-33800000Y43000000D01*
D91*
X21700000Y-27578679D02*
X23031250Y-28909929D01*
D94*
X-24500000Y-22300000D02*
X-24500000Y-24400000D01*
X25093934Y-10542462D02*
X25518198Y-10118198D01*
X-24300000Y-22100000D02*
X-24500000Y-22300000D01*
X24057538Y-21542462D02*
X26000000Y-19600000D01*
X24481802Y-23218198D02*
X24481802Y-23249302D01*
X25093934Y-11393934D02*
X25093934Y-10542462D01*
X26032500Y-9603896D02*
X26032500Y-8400000D01*
D95*
X33650000Y-30200000D02*
X26275000Y-30200000D01*
D94*
X10981802Y-22981802D02*
X10563604Y-23400000D01*
X-10990000Y47010000D02*
X-13900000Y44100000D01*
D95*
X21800000Y-32662500D02*
X21800000Y-33000000D01*
X24262500Y-30200000D02*
X23031250Y-31431250D01*
D94*
X26000000Y-19600000D02*
X26000000Y-12300000D01*
D95*
X26275000Y-30200000D02*
X24262500Y-30200000D01*
D94*
X-24500000Y-24400000D02*
X-25450000Y-25350000D01*
X11083750Y-9416250D02*
X10467500Y-8800000D01*
D91*
X21700000Y-27100000D02*
X22500000Y-27100000D01*
D94*
X10563604Y-23400000D02*
X9967500Y-23400000D01*
X-10990000Y47957500D02*
X-10990000Y47010000D01*
X11681802Y-22281802D02*
X10981802Y-22981802D01*
D95*
X23031250Y-31431250D02*
X21800000Y-32662500D01*
D94*
X10981802Y-22981802D02*
X11200000Y-23200000D01*
D91*
X-28000000Y-35400000D02*
X-28000000Y-31800000D01*
D94*
X26000000Y-12300000D02*
X25093934Y-11393934D01*
D91*
X-28000000Y-31800000D02*
X-28000000Y-27900000D01*
D94*
X24481802Y-23249302D02*
X25632500Y-24400000D01*
X24057538Y-22793934D02*
X24057538Y-21542462D01*
X24481802Y-23218198D02*
X24057538Y-22793934D01*
X11518198Y-9850698D02*
X11083750Y-9416250D01*
X34400000Y-30950000D02*
X33650000Y-30200000D01*
D91*
X23031250Y-28909929D02*
X23031250Y-31431250D01*
D94*
X8800000Y-19400000D02*
X10532753Y-21132753D01*
X10576803Y-10489975D02*
X9710025Y-10489975D01*
X8800000Y-11400000D02*
X8800000Y-19400000D01*
X9710025Y-10489975D02*
X8800000Y-11400000D01*
X10793414Y-10706586D02*
X10576803Y-10489975D01*
X5515000Y-28560000D02*
X5515000Y-27715000D01*
X5515000Y-27715000D02*
X5400000Y-27600000D01*
X-9375000Y50250000D02*
X-9375000Y48075000D01*
X10700000Y-5500000D02*
X10700000Y-6865506D01*
X10700000Y-6865506D02*
X12667247Y-8832753D01*
X-9375000Y48075000D02*
X-8800000Y47500000D01*
X27400000Y-12000000D02*
X26667247Y-11267247D01*
X24989975Y-21175711D02*
X26500000Y-19665686D01*
X26500000Y-19665686D02*
X26500000Y-16800000D01*
X26500000Y-16800000D02*
X27400000Y-15900000D01*
X25206586Y-22493414D02*
X24989975Y-22276803D01*
X27400000Y-15900000D02*
X27400000Y-12000000D01*
X24989975Y-22276803D02*
X24989975Y-21175711D01*
X-7800000Y-26400000D02*
X-11600000Y-30200000D01*
X29700000Y-7400000D02*
X28900000Y-6600000D01*
X25010025Y-8189976D02*
X25010025Y-9176803D01*
X-11600000Y-30200000D02*
X-11600000Y-31490000D01*
X25700001Y-7500000D02*
X25010025Y-8189976D01*
X28900000Y-6600000D02*
X26748529Y-6600000D01*
X-14010000Y-33900000D02*
X-17350000Y-33900000D01*
X25010025Y-9176803D02*
X24793414Y-9393414D01*
X-17350000Y-33900000D02*
X-18530000Y-35080000D01*
X29700000Y-8900000D02*
X29700000Y-7400000D01*
X-11600000Y-31490000D02*
X-14010000Y-33900000D01*
X25848529Y-7500000D02*
X25700001Y-7500000D01*
X4400000Y-26400000D02*
X-7800000Y-26400000D01*
X-18530000Y-35080000D02*
X-20375000Y-35080000D01*
X27900000Y-9400000D02*
X29200000Y-9400000D01*
X29200000Y-9400000D02*
X29700000Y-8900000D01*
X26748529Y-6600000D02*
X25848529Y-7500000D01*
X4450000Y-19050000D02*
X7350000Y-21950000D01*
X12000000Y-27734314D02*
X12000000Y-36200000D01*
X-21200000Y31700000D02*
X-21600000Y32100000D01*
X-21600000Y32100000D02*
X-34200000Y32100000D01*
X9500000Y-38700000D02*
X8550000Y-38700000D01*
X7350000Y-23084314D02*
X12000000Y-27734314D01*
X12000000Y-36200000D02*
X9500000Y-38700000D01*
X7350000Y-21950000D02*
X7350000Y-23084314D01*
X-36850000Y34750000D02*
X-40550000Y34750000D01*
X-34200000Y32100000D02*
X-36850000Y34750000D01*
X-43300000Y32200000D02*
X-42750000Y32750000D01*
X-42700000Y29700000D02*
X-43300000Y30300000D01*
X11200000Y-34460000D02*
X9500000Y-36160000D01*
X-43300000Y30300000D02*
X-43300000Y32200000D01*
X11200000Y-28300000D02*
X11200000Y-34460000D01*
X9500000Y-36160000D02*
X8550000Y-36160000D01*
X-23100000Y29700000D02*
X-42700000Y29700000D01*
X4500000Y-21950000D02*
X4650000Y-22100000D01*
X5000000Y-22100000D02*
X11200000Y-28300000D01*
X4650000Y-22100000D02*
X5000000Y-22100000D01*
X-42750000Y32750000D02*
X-40550000Y32750000D01*
X7860000Y-41240000D02*
X8550000Y-41240000D01*
X-40500000Y28700000D02*
X-40550000Y28750000D01*
X-38700000Y28700000D02*
X-40500000Y28700000D01*
X5200000Y-43900000D02*
X7860000Y-41240000D01*
X11600000Y-27900000D02*
X11600000Y-35330000D01*
X-22850000Y30750000D02*
X-40550000Y30750000D01*
X4450000Y-20750000D02*
X11600000Y-27900000D01*
X4450000Y-20450000D02*
X4450000Y-20750000D01*
X9500000Y-37430000D02*
X8550000Y-37430000D01*
X-22600000Y30500000D02*
X-22850000Y30750000D01*
X-22500000Y30500000D02*
X-22600000Y30500000D01*
X11600000Y-35330000D02*
X9500000Y-37430000D01*
X1705000Y-28560000D02*
X1705000Y-27695000D01*
X1300000Y38300000D02*
X2800000Y39800000D01*
X2800000Y39800000D02*
X3550000Y39800000D01*
X1705000Y-27695000D02*
X1800000Y-27600000D01*
X2975000Y-28560000D02*
X2975000Y-27625000D01*
X-2700000Y38900000D02*
X-3550000Y39750000D01*
X-3550000Y39750000D02*
X-3550000Y39800000D01*
X2975000Y-27625000D02*
X3000000Y-27600000D01*
D92*
X-600000Y35200000D02*
X100000Y34500000D01*
X-600000Y35550000D02*
X-600000Y35200000D01*
X-10100000Y-30000000D02*
X-9140000Y-30000000D01*
X-9140000Y-30000000D02*
X-8950000Y-29810000D01*
X-10400000Y-30300000D02*
X-10100000Y-30000000D01*
X600000Y35125000D02*
X600000Y34500000D01*
X-10400000Y-31200000D02*
X-9070000Y-31200000D01*
X-9070000Y-31200000D02*
X-8950000Y-31080000D01*
X2475000Y35200000D02*
X675000Y35200000D01*
X2500000Y35225000D02*
X2475000Y35200000D01*
X675000Y35200000D02*
X600000Y35125000D01*
D93*
X-25100000Y-37525000D02*
X-25175000Y-37600000D01*
X-25450000Y-32450000D02*
X-25100000Y-32800000D01*
X-25100000Y-32800000D02*
X-25100000Y-37525000D01*
D94*
X-12600000Y48597500D02*
X-12950000Y48947500D01*
X-12950000Y48947500D02*
X-12950000Y49000000D01*
X-17000000Y46000000D02*
X-17450000Y46450000D01*
X-16400000Y46000000D02*
X-17000000Y46000000D01*
X-12950000Y49000000D02*
X-13167500Y49000000D01*
X-13167500Y49000000D02*
X-13600000Y48567500D01*
X1475000Y33700000D02*
X2068756Y34293756D01*
X2068756Y34293756D02*
X2068756Y34551181D01*
X-1392985Y35444269D02*
X-350000Y34401284D01*
X-350000Y34401284D02*
X-350000Y33775000D01*
X-275000Y33700000D02*
X1475000Y33700000D01*
X-350000Y33775000D02*
X-275000Y33700000D01*
X-10382500Y-43780000D02*
X-10802500Y-44200000D01*
X-8950000Y-43780000D02*
X-10382500Y-43780000D01*
X1800000Y33100000D02*
X-400000Y33100000D01*
X-5200000Y-41400000D02*
X-7600000Y-43800000D01*
X-2000000Y35850000D02*
X-1300000Y36550000D01*
X-1300000Y36550000D02*
X-1300000Y38300000D01*
X-5200000Y-36600000D02*
X-5200000Y-41400000D01*
X-400000Y33100000D02*
X-2000000Y34700000D01*
X-2000000Y34700000D02*
X-2000000Y35850000D01*
X1590000Y-29810000D02*
X-5200000Y-36600000D01*
X2700000Y34000000D02*
X1800000Y33100000D01*
X8550000Y-29810000D02*
X1590000Y-29810000D01*
X-17300000Y48200000D02*
X-17450000Y48350000D01*
X-16200000Y48200000D02*
X-17300000Y48200000D01*
X-16200000Y48200000D02*
X-15802500Y48597500D01*
X-15802500Y48597500D02*
X-14630000Y48597500D01*
X-14630000Y48597500D02*
X-14600000Y48567500D01*
X-23597500Y45000000D02*
X-23597500Y45072500D01*
X-22625000Y48350000D02*
X-23075000Y48350000D01*
X-23597500Y45072500D02*
X-24975000Y46450000D01*
X-22625000Y48350000D02*
X-22625000Y50000000D01*
X-23075000Y48350000D02*
X-24975000Y46450000D01*
X-21800000Y47400000D02*
X-20850000Y48350000D01*
X-22625000Y47400000D02*
X-21800000Y47400000D01*
X-20850000Y48350000D02*
X-20150000Y48350000D01*
X-18750000Y300000D02*
X-17712500Y300000D01*
X-17712500Y300000D02*
X-17662500Y250000D01*
X6200000Y18600000D02*
X5400000Y19400000D01*
X-20650000Y2200000D02*
X-18750000Y300000D01*
X6400000Y18600000D02*
X6200000Y18600000D01*
X-23750000Y2200000D02*
X-20650000Y2200000D01*
X4000000Y21300000D02*
X3800000Y21500000D01*
X4000000Y21000000D02*
X4000000Y21300000D01*
X-22100000Y700000D02*
X-20650000Y700000D01*
X-18900000Y-1050000D02*
X-17662500Y-1050000D01*
X-20650000Y700000D02*
X-18900000Y-1050000D01*
X-18815686Y-1700000D02*
X-17662500Y-1700000D01*
X-20365686Y-150000D02*
X-18815686Y-1700000D01*
X6400000Y21000000D02*
X5300000Y22100000D01*
X-22100000Y-150000D02*
X-20365686Y-150000D01*
X200000Y29448530D02*
X200000Y24800000D01*
X-20250000Y-2350000D02*
X-17662500Y-2350000D01*
X200000Y24800000D02*
X1600000Y23400000D01*
X-21400000Y-1200000D02*
X-20250000Y-2350000D01*
X-21425000Y-2200000D02*
X-20625000Y-3000000D01*
X4000000Y23787535D02*
X4000000Y23400000D01*
X3329178Y24458357D02*
X4000000Y23787535D01*
X-20625000Y-3000000D02*
X-17662500Y-3000000D01*
X6400000Y23400000D02*
X6100000Y23400000D01*
X-10400000Y-2500000D02*
X-11787500Y-2500000D01*
X-11787500Y-2500000D02*
X-11937500Y-2350000D01*
X6100000Y23400000D02*
X4900000Y24600000D01*
X2632843Y24900000D02*
X1732843Y25800000D01*
X-10400000Y-1692821D02*
X-11930321Y-1692821D01*
X1732843Y25800000D02*
X1600000Y25800000D01*
X-11930321Y-1692821D02*
X-11937500Y-1700000D01*
X3000021Y26338470D02*
X3461530Y26338470D01*
X3461530Y26338470D02*
X4000000Y25800000D01*
X-10000000Y-1000000D02*
X-11887500Y-1000000D01*
X-11887500Y-1000000D02*
X-11937500Y-1050000D01*
X-9700000Y-400000D02*
X-11937500Y-400000D01*
X-9500000Y-200000D02*
X-9700000Y-400000D01*
X6100000Y25800000D02*
X4900000Y27000000D01*
X6400000Y25800000D02*
X6100000Y25800000D01*
X1500000Y28200000D02*
X1424265Y28275735D01*
X-9500000Y700000D02*
X-10100000Y100000D01*
X-11787500Y100000D02*
X-11937500Y250000D01*
X-10100000Y100000D02*
X-11787500Y100000D01*
X1600000Y28200000D02*
X1500000Y28200000D01*
X-10400000Y700000D02*
X-10600000Y900000D01*
X-10600000Y900000D02*
X-11937500Y900000D01*
X4000000Y28200000D02*
X4100000Y28100000D01*
X-11887500Y1600000D02*
X-11937500Y1550000D01*
X6121324Y28200000D02*
X5060662Y29260662D01*
X6400000Y28200000D02*
X6121324Y28200000D01*
X-10400000Y1600000D02*
X-11887500Y1600000D01*
X-3200000Y19800000D02*
X-2000000Y18600000D01*
X-23800000Y-3000000D02*
X-25835000Y-5035000D01*
X-25835000Y-5035000D02*
X-25835000Y-13040000D01*
X-24850000Y-14025000D02*
X-23800000Y-14025000D01*
X-23000000Y-3000000D02*
X-23800000Y-3000000D01*
X-25835000Y-13040000D02*
X-24850000Y-14025000D01*
X-3200000Y20100000D02*
X-3200000Y19800000D01*
X-18900000Y-400000D02*
X-17662500Y-400000D01*
X1600000Y21000000D02*
X1600000Y20900000D01*
X-22100000Y1500003D02*
X-20800003Y1500003D01*
X1600000Y20900000D02*
X1954165Y20545835D01*
X-20800003Y1500003D02*
X-18900000Y-400000D01*
X-6800000Y21000000D02*
X-6800000Y20900000D01*
X-26235000Y-4535000D02*
X-26235000Y-13205686D01*
X-24765686Y-14675000D02*
X-23800000Y-14675000D01*
X-26235000Y-13205686D02*
X-24765686Y-14675000D01*
X-25500000Y-3800000D02*
X-26235000Y-4535000D01*
X-24874265Y-3225735D02*
X-25225736Y-3225735D01*
X-25800000Y-3200000D02*
X-26635000Y-4035000D01*
X-24975000Y-15325000D02*
X-23800000Y-15325000D01*
X-25225736Y-3225735D02*
X-25251471Y-3200000D01*
X-26635000Y-13665000D02*
X-24975000Y-15325000D01*
X-25251471Y-3200000D02*
X-25800000Y-3200000D01*
X-26635000Y-4035000D02*
X-26635000Y-13665000D01*
X-23100000Y-2100000D02*
X-23600000Y-2600000D01*
X-27035000Y-13965000D02*
X-25025000Y-15975000D01*
X-23600000Y-2600000D02*
X-25800000Y-2600000D01*
X-27035000Y-3835000D02*
X-27035000Y-13965000D01*
X-25025000Y-15975000D02*
X-23800000Y-15975000D01*
X-2000000Y21000000D02*
X-2100000Y20900000D01*
X-25800000Y-2600000D02*
X-27035000Y-3835000D01*
X-27435000Y-2035000D02*
X-27435000Y-14815000D01*
X-27100000Y-1700000D02*
X-27435000Y-2035000D01*
X-25625000Y-16625000D02*
X-23800000Y-16625000D01*
X-27435000Y-14815000D02*
X-25625000Y-16625000D01*
X-27835000Y-15265000D02*
X-25825000Y-17275000D01*
X-25910960Y-1100000D02*
X-27500000Y-1100000D01*
X-27835000Y-1435000D02*
X-27835000Y-15265000D01*
X-24300000Y-848530D02*
X-24300000Y-1400000D01*
X-27500000Y-1100000D02*
X-27835000Y-1435000D01*
X-24724265Y-424265D02*
X-24300000Y-848530D01*
X-24300000Y-1400000D02*
X-24682220Y-1782220D01*
X-25825000Y-17275000D02*
X-23800000Y-17275000D01*
X-25228740Y-1782220D02*
X-25910960Y-1100000D01*
X-24682220Y-1782220D02*
X-25228740Y-1782220D01*
X-24980211Y-1182220D02*
X-25562431Y-600000D01*
X-25875000Y-17925000D02*
X-23800000Y-17925000D01*
X-28300000Y-15500000D02*
X-25875000Y-17925000D01*
X-25562431Y-600000D02*
X-27600000Y-600000D01*
X-28300000Y-1300000D02*
X-28300000Y-15500000D01*
X-2630304Y23400000D02*
X-2930304Y23100000D01*
X-27600000Y-600000D02*
X-28300000Y-1300000D01*
X-2000000Y23400000D02*
X-2630304Y23400000D01*
X-7377800Y25222200D02*
X-6800000Y25800000D01*
X-13765448Y-22020577D02*
X-14544871Y-22800000D01*
X-13765448Y-21723358D02*
X-13765448Y-22020577D01*
X-8026328Y25222200D02*
X-7377800Y25222200D01*
X-14544871Y-22800000D02*
X-19575000Y-22800000D01*
X-13721045Y-21678955D02*
X-13765448Y-21723358D01*
X-19575000Y-22800000D02*
X-23800000Y-18575000D01*
X-15550000Y-17925000D02*
X-16600000Y-17925000D01*
X-14800000Y-19800000D02*
X-14800000Y-18675000D01*
X-5232052Y24967948D02*
X-5551922Y24967948D01*
X-4400000Y25800000D02*
X-5232052Y24967948D01*
X-14800000Y-18675000D02*
X-15550000Y-17925000D01*
X-13800000Y-20800000D02*
X-14800000Y-19800000D01*
X-13200000Y-20800000D02*
X-13800000Y-20800000D01*
X-2899300Y24900700D02*
X-2000000Y25800000D01*
X-13200000Y-22088967D02*
X-12600000Y-21488967D01*
X-12600000Y-20551471D02*
X-14000000Y-19151471D01*
X-13200000Y-22200000D02*
X-13200000Y-22088967D01*
X-14000000Y-19151471D02*
X-14000000Y-18825000D01*
X-13000000Y-22400000D02*
X-13200000Y-22200000D01*
X-3199472Y24900700D02*
X-2899300Y24900700D01*
X-12600000Y-21488967D02*
X-12600000Y-20551471D01*
X-15550000Y-17275000D02*
X-16600000Y-17275000D01*
X-14000000Y-18825000D02*
X-15550000Y-17275000D01*
X-15375000Y-16625000D02*
X-16600000Y-16625000D01*
X-13315573Y-18884427D02*
X-13315573Y-18684427D01*
X-13315573Y-18684427D02*
X-15375000Y-16625000D01*
X-13207108Y-17792892D02*
X-15025000Y-15975000D01*
X-15025000Y-15975000D02*
X-16600000Y-15975000D01*
X-12600000Y-16600000D02*
X-13875000Y-15325000D01*
X-13875000Y-15325000D02*
X-16600000Y-15325000D01*
X-20600000Y3600000D02*
X-18550000Y1550000D01*
X-23750000Y3900000D02*
X-23450000Y3600000D01*
X-18550000Y1550000D02*
X-17662500Y1550000D01*
X1600000Y18600000D02*
X1600000Y19200000D01*
X-23450000Y3600000D02*
X-20600000Y3600000D01*
X1600000Y19200000D02*
X1500000Y19300000D01*
X4000000Y18600000D02*
X3800000Y18600000D01*
X-20600000Y2850000D02*
X-18650000Y900000D01*
X-18650000Y900000D02*
X-17662500Y900000D01*
X3800000Y18600000D02*
X3700000Y18700000D01*
X-23750000Y3050000D02*
X-23550000Y2850000D01*
X-23550000Y2850000D02*
X-20600000Y2850000D01*
X21687500Y-35600000D02*
X21950000Y-35337500D01*
X21300000Y-35600000D02*
X21687500Y-35600000D01*
X-22402500Y45157500D02*
X-22900000Y45655000D01*
X-22402500Y45000000D02*
X-22402500Y45157500D01*
X37200000Y42200000D02*
X37600000Y42200000D01*
X24930000Y45685946D02*
X24930000Y45125000D01*
X38200000Y42200000D02*
X37600000Y42200000D01*
X24411177Y46204769D02*
X24930000Y45685946D01*
X24930000Y45125000D02*
X24930000Y45730000D01*
X24930000Y45730000D02*
X25000000Y45800000D01*
X36200000Y43395000D02*
X36600000Y43395000D01*
X37200000Y43395000D02*
X36600000Y43395000D01*
X22400000Y45135000D02*
X22390000Y45125000D01*
X22400000Y46400000D02*
X22400000Y45135000D01*
X8977504Y50285060D02*
X8181282Y51081282D01*
X8977504Y49777504D02*
X8977504Y50285060D01*
X26505276Y47705276D02*
X28740000Y45470552D01*
X10400000Y50000000D02*
X10400000Y50044992D01*
X10400000Y50044992D02*
X9822496Y50622496D01*
X28740000Y45470552D02*
X28740000Y45125000D01*
X22390000Y50075000D02*
X22390000Y51049999D01*
X22390000Y47258529D02*
X22390000Y50075000D01*
X22740001Y51400000D02*
X24579999Y51400000D01*
X24579999Y51400000D02*
X24930000Y51049999D01*
X24930000Y48270000D02*
X24930000Y50075000D01*
X24930000Y51049999D02*
X24930000Y50075000D01*
X25600000Y47600000D02*
X24930000Y48270000D01*
X7800000Y45802500D02*
X7600000Y45802500D01*
X22390000Y47258529D02*
X21458529Y47258529D01*
X23000000Y45805000D02*
X23000000Y46648529D01*
X26200000Y45125000D02*
X25600000Y45725000D01*
X7600000Y45802500D02*
X7400000Y46002500D01*
X23000000Y46648529D02*
X22390000Y47258529D01*
X23660000Y45125000D02*
X22990000Y45795000D01*
X22990000Y45795000D02*
X23000000Y45805000D01*
X21458529Y47258529D02*
X20400000Y46200000D01*
X25600000Y45725000D02*
X25600000Y47600000D01*
X8400000Y46002500D02*
X8200000Y45802500D01*
X8200000Y45802500D02*
X7800000Y45802500D01*
X22390000Y51049999D02*
X22740001Y51400000D01*
X9200000Y47197500D02*
X9400000Y47197500D01*
X8800000Y47597500D02*
X9200000Y47197500D01*
X8800000Y47597500D02*
X8400000Y47197500D01*
X8800000Y47600000D02*
X8800000Y47597500D01*
X38200000Y43395000D02*
X38200000Y43600000D01*
X11102500Y46002500D02*
X13200000Y48100000D01*
X13650000Y48550000D02*
X13200000Y48100000D01*
X38200000Y43600000D02*
X38000000Y43800000D01*
X9400000Y46002500D02*
X11102500Y46002500D01*
X-17997500Y51047500D02*
X-18150000Y51200000D01*
X-17997500Y49900000D02*
X-17997500Y51047500D01*
X15000000Y44650000D02*
X13586063Y44650000D01*
X13586063Y44650000D02*
X12992277Y44056214D01*
X-32700000Y-35000000D02*
X-32602500Y-35000000D01*
X-35300000Y-32400000D02*
X-32700000Y-35000000D01*
X-30700000Y-36902500D02*
X-30700000Y-39400000D01*
X-35300000Y-26750000D02*
X-35300000Y-32400000D01*
X-32602500Y-35000000D02*
X-30700000Y-36902500D01*
X-26800000Y-21900000D02*
X-26800000Y-18600000D01*
X-34800000Y-25600000D02*
X-33200000Y-24000000D01*
X-28577206Y-23677206D02*
X-26800000Y-21900000D01*
X-37000000Y41797500D02*
X-32397500Y46400000D01*
X-33200000Y-24000000D02*
X-33200000Y-23200000D01*
X-32397500Y46400000D02*
X-34200000Y46400000D01*
X-31410688Y-13989312D02*
X-31410688Y17289312D01*
X-17000000Y31700000D02*
X-18500000Y33200000D01*
X-18500000Y33200000D02*
X-30700000Y33200000D01*
X-34800000Y-26750000D02*
X-34800000Y-25600000D01*
X-30700000Y33200000D02*
X-37000000Y39500000D01*
X-31946878Y-23000000D02*
X-31269672Y-23677206D01*
X-37000000Y39500000D02*
X-37000000Y41797500D01*
X-26800000Y-18600000D02*
X-31410688Y-13989312D01*
X-31410688Y17289312D02*
X-17000000Y31700000D01*
X-33200000Y-23200000D02*
X-33000000Y-23000000D01*
X-33000000Y-23000000D02*
X-31946878Y-23000000D01*
X-31269672Y-23677206D02*
X-28577206Y-23677206D01*
X-34800000Y-22450000D02*
X-34800000Y-23700000D01*
X-34800000Y-23700000D02*
X-34600000Y-23900000D01*
X35797500Y44802500D02*
X34200000Y46400000D01*
X35797500Y44800000D02*
X35797500Y44802500D01*
X31197500Y-38902500D02*
X30700000Y-39400000D01*
X31197500Y-37200000D02*
X31197500Y-38902500D01*
X-35200000Y-24700000D02*
X-35300000Y-24600000D01*
X-35300000Y-24600000D02*
X-35300000Y-22450000D01*
X32575000Y46673529D02*
X31448529Y47800000D01*
X29000000Y47800000D02*
X28000000Y48800000D01*
X35200000Y43395000D02*
X34202500Y43395000D01*
X34200000Y43397500D02*
X32575000Y45022500D01*
X31448529Y47800000D02*
X29000000Y47800000D01*
X27129448Y48800000D02*
X26200000Y49729448D01*
X28000000Y48800000D02*
X27129448Y48800000D01*
X32575000Y45022500D02*
X32575000Y46673529D01*
X26200000Y49729448D02*
X26200000Y50075000D01*
X34202500Y43395000D02*
X34200000Y43397500D01*
X7400000Y47354999D02*
X8845001Y48800000D01*
X16875000Y45600000D02*
X14300000Y45600000D01*
X14050000Y49150000D02*
X16875000Y46325000D01*
X19600000Y44400000D02*
X18400000Y45600000D01*
X31800000Y43200000D02*
X31800000Y44337500D01*
X13051471Y48800000D02*
X13401471Y49150000D01*
X7400000Y47197500D02*
X7400000Y47354999D01*
X31800000Y43200000D02*
X32797500Y42202500D01*
X18400000Y45600000D02*
X16875000Y45600000D01*
X32797500Y42202500D02*
X34200000Y42202500D01*
X13401471Y49150000D02*
X14050000Y49150000D01*
X16875000Y46325000D02*
X16875000Y45600000D01*
X8845001Y48800000D02*
X13051471Y48800000D01*
X19600000Y44400000D02*
X20250000Y44400000D01*
X20250000Y44400000D02*
X20400000Y44550000D01*
X14300000Y45600000D02*
X13200000Y46700000D01*
X-37197500Y-20597500D02*
X-36700000Y-20100000D01*
X-36300000Y-21800000D02*
X-36300000Y-22450000D01*
X-36840001Y-21000000D02*
X-36700000Y-21140001D01*
X-27374265Y-23925735D02*
X-28048530Y-24600000D01*
X-36700000Y-21140001D02*
X-36700000Y-21400000D01*
X-18126640Y-19632966D02*
X-18100000Y-19606326D01*
X-37197500Y-21000000D02*
X-37197500Y-20597500D01*
X-37197500Y-21000000D02*
X-36840001Y-21000000D01*
X-36700000Y-21400000D02*
X-36300000Y-21800000D01*
X-30912564Y-24600000D02*
X-31912564Y-23600000D01*
X-18100000Y-15125000D02*
X-17650000Y-14675000D01*
X-17650000Y-14675000D02*
X-16600000Y-14675000D01*
X-18100000Y-19606326D02*
X-18100000Y-15125000D01*
X-31912564Y-23600000D02*
X-32600000Y-23600000D01*
X-28048530Y-24600000D02*
X-30912564Y-24600000D01*
X-24225000Y-40487500D02*
X-24225000Y-42222500D01*
X-24225000Y-42222500D02*
X-24802500Y-42800000D01*
X-25262500Y-39450000D02*
X-24225000Y-40487500D01*
X-29650000Y-39504999D02*
X-29650000Y-27050000D01*
X-28700000Y-15800000D02*
X-28700000Y-1000000D01*
X-25000000Y-22400000D02*
X-25000000Y-19500000D01*
X-28700000Y-1000000D02*
X-27400000Y300000D01*
X-26354999Y-42800000D02*
X-29650000Y-39504999D01*
X-27400000Y300000D02*
X-24600000Y300000D01*
X-22500000Y-1800000D02*
X-22500000Y-2665686D01*
X-19665686Y-5500000D02*
X-17100000Y-5500000D01*
X-16400000Y1200000D02*
X-15951471Y1200000D01*
X-22500000Y-2665686D02*
X-19665686Y-5500000D01*
X-25000000Y-19500000D02*
X-28700000Y-15800000D01*
X-25997500Y-42800000D02*
X-26354999Y-42800000D01*
X-29650000Y-27050000D02*
X-25000000Y-22400000D01*
X-24600000Y300000D02*
X-22500000Y-1800000D01*
X-14951471Y2200000D02*
X-11937500Y2200000D01*
X-15951471Y1200000D02*
X-14951471Y2200000D01*
X25600000Y52200000D02*
X28200000Y52200000D01*
X28740000Y51660000D02*
X28740000Y50075000D01*
X28200000Y52200000D02*
X28740000Y51660000D01*
X25200000Y51800000D02*
X25600000Y52200000D01*
X20997500Y49000000D02*
X20997500Y50298052D01*
X22499448Y51800000D02*
X25200000Y51800000D01*
X20997500Y50298052D02*
X22499448Y51800000D01*
X19802500Y50602500D02*
X20281282Y51081282D01*
X19802500Y49000000D02*
X19802500Y50602500D01*
X23660000Y46959894D02*
X23660000Y50075000D01*
X23561117Y46861011D02*
X23660000Y46959894D01*
X35200000Y42200000D02*
X35600000Y42200000D01*
X30010000Y50075000D02*
X30010000Y50790000D01*
X30010000Y50790000D02*
X29800000Y51000000D01*
X18000000Y50200000D02*
X18000000Y50444992D01*
X18000000Y50444992D02*
X17822496Y50622496D01*
X16281282Y50318718D02*
X16281282Y51081282D01*
X16822496Y49777504D02*
X16281282Y50318718D01*
X16977504Y49777504D02*
X16822496Y49777504D01*
X30010000Y45125000D02*
X30010000Y46099999D01*
X28309999Y47800000D02*
X27400000Y47800000D01*
X15074265Y49125735D02*
X15074265Y49370727D01*
X15074265Y49370727D02*
X13822496Y50622496D01*
X30010000Y46099999D02*
X28309999Y47800000D01*
X12400000Y50355008D02*
X12400000Y50962564D01*
X12400000Y50962564D02*
X12281282Y51081282D01*
X12977504Y49777504D02*
X12400000Y50355008D01*
X-10688Y-1189312D02*
X0Y-1200000D01*
X-7600000Y-36160000D02*
X-8950000Y-36160000D01*
X-10688Y-1020251D02*
X-10688Y-1189312D01*
X-3400000Y-27600000D02*
X-3400000Y-28535000D01*
X-3400000Y-28535000D02*
X-3375000Y-28560000D01*
X-20375000Y-30000000D02*
X-21450000Y-30000000D01*
X-23000000Y-28450000D02*
X-23000000Y-24234314D01*
X10800000Y-28562942D02*
X10800000Y-33365686D01*
X9275686Y-34890000D02*
X8550000Y-34890000D01*
X5437058Y-23200000D02*
X10800000Y-28562942D01*
X-23000000Y-24234314D02*
X-21965686Y-23200000D01*
X-21965686Y-23200000D02*
X5437058Y-23200000D01*
X10800000Y-33365686D02*
X9275686Y-34890000D01*
X-21450000Y-30000000D02*
X-23000000Y-28450000D01*
X-7600000Y-37430000D02*
X-8950000Y-37430000D01*
X6030000Y-39970000D02*
X8550000Y-39970000D01*
X-23600000Y-35100000D02*
X-23600000Y-46100000D01*
X-15325000Y-32540000D02*
X-17540000Y-32540000D01*
X-1400000Y-47400000D02*
X6030000Y-39970000D01*
X-16600000Y-53200000D02*
X-10800000Y-47400000D01*
X-23600000Y-46100000D02*
X-22300000Y-47400000D01*
X-19700000Y-53200000D02*
X-16600000Y-53200000D01*
X-22300000Y-50600000D02*
X-19700000Y-53200000D01*
X-22300000Y-33800000D02*
X-23600000Y-35100000D01*
X-22300000Y-47400000D02*
X-22300000Y-50600000D01*
X-18800000Y-33800000D02*
X-22300000Y-33800000D01*
X-10800000Y-47400000D02*
X-1400000Y-47400000D01*
X-17540000Y-32540000D02*
X-18800000Y-33800000D01*
X-9568664Y-25600000D02*
X-11168664Y-27200000D01*
X-11168664Y-27200000D02*
X-11600000Y-27200000D01*
X4245000Y-28560000D02*
X4245000Y-27803529D01*
X5500000Y-26548529D02*
X5500000Y-26150000D01*
X4245000Y-27803529D02*
X5500000Y-26548529D01*
X5500000Y-26150000D02*
X4950000Y-25600000D01*
X4950000Y-25600000D02*
X-9568664Y-25600000D01*
X-10200000Y-40000000D02*
X-8980000Y-40000000D01*
X-8980000Y-40000000D02*
X-8950000Y-39970000D01*
X-7600000Y-34890000D02*
X-8950000Y-34890000D01*
X-7600000Y-33620000D02*
X-8950000Y-33620000D01*
X-10100000Y-38700000D02*
X-8950000Y-38700000D01*
X-10200000Y-38800000D02*
X-10100000Y-38700000D01*
X-10200000Y-42400000D02*
X-9060000Y-42400000D01*
X-9060000Y-42400000D02*
X-8950000Y-42510000D01*
X-4600000Y-28515000D02*
X-4645000Y-28560000D01*
X-4600000Y-27600000D02*
X-4600000Y-28515000D01*
X200000Y-17749998D02*
X0Y-17549998D01*
X-2200000Y-28465000D02*
X-2105000Y-28560000D01*
X0Y-17549998D02*
X0Y-17000000D01*
X-2200000Y-27600000D02*
X-2200000Y-28465000D01*
X400000Y-28525000D02*
X435000Y-28560000D01*
X400000Y-27600000D02*
X400000Y-28525000D01*
X9500000Y-31080000D02*
X8550000Y-31080000D01*
X5460000Y-24920000D02*
X9600000Y-29060000D01*
X-15325000Y-24920000D02*
X5460000Y-24920000D01*
X9600000Y-29060000D02*
X9600000Y-30980000D01*
X9600000Y-30980000D02*
X9500000Y-31080000D01*
X10000000Y-28894314D02*
X10000000Y-31430000D01*
X-17035000Y-24120000D02*
X5225686Y-24120000D01*
X5225686Y-24120000D02*
X10000000Y-28894314D01*
X10000000Y-31430000D02*
X9080000Y-32350000D01*
X-20375000Y-27460000D02*
X-17035000Y-24120000D01*
X9080000Y-32350000D02*
X8550000Y-32350000D01*
X-800000Y-27600000D02*
X-800000Y-28525000D01*
X-800000Y-28525000D02*
X-835000Y-28560000D01*
X5271372Y-23600000D02*
X10400000Y-28728628D01*
X-21800000Y-23600000D02*
X5271372Y-23600000D01*
X9980000Y-33620000D02*
X8550000Y-33620000D01*
X10400000Y-33200000D02*
X9980000Y-33620000D01*
X-22600000Y-24400000D02*
X-21800000Y-23600000D01*
X-16125000Y-28260000D02*
X-22250000Y-28260000D01*
X-15325000Y-27460000D02*
X-16125000Y-28260000D01*
X-22600000Y-27910000D02*
X-22600000Y-24400000D01*
X10400000Y-28728628D02*
X10400000Y-33200000D01*
X-22250000Y-28260000D02*
X-22600000Y-27910000D01*
X-7600000Y-32350000D02*
X-8950000Y-32350000D01*
X-19200000Y-21800000D02*
X-19200000Y-12634314D01*
X4100000Y-46200000D02*
X7790000Y-42510000D01*
X7790000Y-42510000D02*
X8550000Y-42510000D01*
X-18800000Y-22200000D02*
X-19200000Y-21800000D01*
X-17990686Y-11425000D02*
X-16600000Y-11425000D01*
X800000Y-46200000D02*
X4100000Y-46200000D01*
X-19200000Y-12634314D02*
X-17990686Y-11425000D01*
X-10200000Y-41200000D02*
X-8990000Y-41200000D01*
X-8990000Y-41200000D02*
X-8950000Y-41240000D01*
X-22100000Y-1000000D02*
X-30500000Y7400000D01*
X-30500000Y7400000D02*
X-30500000Y16751471D01*
X-22100000Y-2500000D02*
X-22100000Y-1000000D01*
X-14824265Y-13000000D02*
X-15199265Y-13375000D01*
X-30500000Y16751471D02*
X-16300000Y30951471D01*
X-20790210Y45809790D02*
X-20150000Y46450000D01*
X-18300000Y33800000D02*
X-23400000Y33800000D01*
X-18300000Y-4900000D02*
X-19700000Y-4900000D01*
X-21209789Y45809790D02*
X-20790210Y45809790D01*
X-15199265Y-13375000D02*
X-16600000Y-13375000D01*
X-19700000Y-4900000D02*
X-22100000Y-2500000D01*
X-16300000Y30951471D02*
X-16300000Y31800000D01*
X-16300000Y31800000D02*
X-18300000Y33800000D01*
D93*
X-27225000Y-37600000D02*
X-27225000Y-40312500D01*
X-27225000Y-40312500D02*
X-27137500Y-40400000D01*
D95*
X19200000Y-31600000D02*
X19700000Y-31100000D01*
X19400000Y-34800000D02*
X19200000Y-34600000D01*
X19200000Y-34600000D02*
X19200000Y-31600000D01*
D94*
X-15200000Y2800000D02*
X-15100000Y2700000D01*
X-12087500Y2700000D02*
X-11937500Y2850000D01*
X-10200000Y-13700000D02*
X-10400000Y-13900000D01*
X-10200000Y-13200000D02*
X-10200000Y-13700000D01*
X-15100000Y2700000D02*
X-12087500Y2700000D01*
X-16300000Y2900000D02*
X-17612500Y2900000D01*
X-10200000Y-15200000D02*
X-10200000Y-15100000D01*
X-10200000Y-15100000D02*
X-10400000Y-14900000D01*
X-17612500Y2900000D02*
X-17662500Y2850000D01*
X-10200000Y-5200000D02*
X-10200000Y-5704998D01*
X-13600000Y6000000D02*
X-13050000Y5450000D01*
X-13050000Y5450000D02*
X-11937500Y5450000D01*
X-10200000Y-5704998D02*
X-10445000Y-5949998D01*
X-14150000Y4150000D02*
X-11937500Y4150000D01*
X-10200000Y-9700000D02*
X-10400000Y-9900000D01*
X-14400000Y4400000D02*
X-14150000Y4150000D01*
X-10200000Y-9200000D02*
X-10200000Y-9700000D01*
X-10200000Y-11655000D02*
X-10445000Y-11900000D01*
X-10200000Y-11200000D02*
X-10200000Y-11655000D01*
X-14800000Y3700000D02*
X-14600000Y3500000D01*
X-14600000Y3500000D02*
X-11937500Y3500000D01*
X-14000000Y5100000D02*
X-13700000Y4800000D01*
X-10200000Y-7200000D02*
X-10200000Y-7655000D01*
X-10200000Y-7655000D02*
X-10445000Y-7900000D01*
X-13700000Y4800000D02*
X-11937500Y4800000D01*
X-15358235Y-7358235D02*
X-13604630Y-9111840D01*
X-16300000Y2100000D02*
X-16400000Y2200000D01*
X-16400000Y2200000D02*
X-17662500Y2200000D01*
X-13604630Y-13845196D02*
X-14159434Y-14400000D01*
X-13604630Y-9111840D02*
X-13604630Y-13845196D01*
X-15550000Y-14025000D02*
X-16600000Y-14025000D01*
X-14159434Y-14400000D02*
X-15175000Y-14400000D01*
X-15175000Y-14400000D02*
X-15550000Y-14025000D01*
X-42055000Y-22961123D02*
X-41193877Y-22100000D01*
X-42055000Y-23976336D02*
X-42055000Y-22961123D01*
X-41193877Y-22100000D02*
X-37150000Y-22100000D01*
X-37150000Y-22100000D02*
X-36800000Y-22450000D01*
X-41000000Y-24600000D02*
X-41431336Y-24600000D01*
X-41431336Y-24600000D02*
X-42055000Y-23976336D01*
X-41000000Y-24600000D02*
X-39000000Y-24600000D01*
X-22750000Y-13375000D02*
X-23800000Y-13375000D01*
X-19700000Y-16425000D02*
X-22750000Y-13375000D01*
X-19700000Y-21400000D02*
X-19700000Y-16425000D01*
X-19900000Y-21600000D02*
X-19700000Y-21400000D01*
X-9955000Y-18749750D02*
X-10200000Y-18504750D01*
X-10200000Y-18504750D02*
X-10200000Y-18000000D01*
X-10200000Y-20000000D02*
X-10200000Y-20300000D01*
X-10200000Y-20300000D02*
X-10100000Y-20400000D01*
X-17600000Y-22200000D02*
X-18800000Y-21000000D01*
X-18075000Y-12075000D02*
X-16600000Y-12075000D01*
X-18800000Y-21000000D02*
X-18800000Y-12800000D01*
X-18800000Y-12800000D02*
X-18075000Y-12075000D01*
X-14200000Y-13592037D02*
X-14200000Y-12600000D01*
X-15550000Y-12725000D02*
X-16600000Y-12725000D01*
X-14204630Y-13596667D02*
X-14200000Y-13592037D01*
X-14200000Y-12600000D02*
X-14400000Y-12400000D01*
X-10200000Y-21495004D02*
X-10200000Y-22000000D01*
X-10445000Y-21250004D02*
X-10200000Y-21495004D01*
X-15225000Y-12400000D02*
X-15550000Y-12725000D01*
X-14400000Y-12400000D02*
X-15225000Y-12400000D01*
X27470000Y51130000D02*
X27400000Y51200000D01*
X18800000Y48400000D02*
X19350000Y47850000D01*
X19350000Y47850000D02*
X20400000Y47850000D01*
X18800000Y49800000D02*
X18800000Y48400000D01*
X19200000Y50200000D02*
X18800000Y49800000D01*
X27470000Y50075000D02*
X27470000Y51130000D01*
X-5800000Y-8500000D02*
X-5800000Y11400000D01*
X-8320000Y13920000D02*
X-12075000Y13920000D01*
X-1300000Y-13000000D02*
X-5800000Y-8500000D01*
X-5800000Y11400000D02*
X-8320000Y13920000D01*
X10200000Y15700000D02*
X15815000Y15700000D01*
X1300000Y-13000000D02*
X6600000Y-7700000D01*
X6400000Y11900000D02*
X10200000Y15700000D01*
X15815000Y15700000D02*
X17125000Y14390000D01*
X6400000Y8000000D02*
X6400000Y11900000D01*
X6600000Y-7700000D02*
X6600000Y5500000D01*
X-6200000Y11200000D02*
X-7600000Y12600000D01*
X-1300000Y-15000000D02*
X-6200000Y-10100000D01*
X-6200000Y-10100000D02*
X-6200000Y11200000D01*
X-15805000Y12600000D02*
X-17125000Y13920000D01*
X-7600000Y12600000D02*
X-15805000Y12600000D01*
X7200000Y-9100000D02*
X7200000Y6200000D01*
X1300000Y-15000000D02*
X7200000Y-9100000D01*
X9790000Y14390000D02*
X12075000Y14390000D01*
X7014579Y11614579D02*
X9790000Y14390000D01*
X7014579Y8512149D02*
X7014579Y11614579D01*
X1300000Y-11000000D02*
X5900000Y-6400000D01*
X5800000Y7414579D02*
X5800000Y12100000D01*
X5900000Y-6400000D02*
X5900000Y4800000D01*
X5800000Y12100000D02*
X10630000Y16930000D01*
X10630000Y16930000D02*
X12075000Y16930000D01*
X-9000000Y15200000D02*
X-15865000Y15200000D01*
X-15865000Y15200000D02*
X-17125000Y16460000D01*
X-5400000Y11600000D02*
X-9000000Y15200000D01*
X-1300000Y-11000000D02*
X-5400000Y-6900000D01*
X-5400000Y-6900000D02*
X-5400000Y11600000D01*
X-12800000Y-26550000D02*
X-12800000Y-27600000D01*
X-16635000Y-28800000D02*
X-20375000Y-32540000D01*
X-12800000Y-27600000D02*
X-14000000Y-28800000D01*
X-14000000Y-28800000D02*
X-16635000Y-28800000D01*
X-11600000Y-25900000D02*
X-12150000Y-25900000D01*
X-12150000Y-25900000D02*
X-12800000Y-26550000D01*
X-11600000Y-28500000D02*
X-12100000Y-28500000D01*
X-12100000Y-28500000D02*
X-13600000Y-30000000D01*
X-13600000Y-30000000D02*
X-15325000Y-30000000D01*
X-10540000Y21540000D02*
X-12075000Y21540000D01*
X-9800000Y20800000D02*
X-10540000Y21540000D01*
X-3400000Y12634314D02*
X-9800000Y19034314D01*
X-3400000Y1069061D02*
X-3400000Y12634314D01*
X-1310688Y-1020251D02*
X-3400000Y1069061D01*
X-9800000Y19034314D02*
X-9800000Y20800000D01*
X9300000Y17398778D02*
X9300000Y19800000D01*
X3400000Y13100000D02*
X4200000Y13900000D01*
X13700000Y20700000D02*
X14930000Y19470000D01*
X3400000Y1090437D02*
X3400000Y13100000D01*
X4200000Y13900000D02*
X5801222Y13900000D01*
X5801222Y13900000D02*
X9300000Y17398778D01*
X1289312Y-1020251D02*
X3400000Y1090437D01*
X9300000Y19800000D02*
X10200000Y20700000D01*
X10200000Y20700000D02*
X13700000Y20700000D01*
X14930000Y19470000D02*
X17125000Y19470000D01*
X5200000Y12167406D02*
X10200000Y17167406D01*
X10200000Y17167406D02*
X10200000Y17730000D01*
X15855000Y18200000D02*
X17125000Y16930000D01*
X5300000Y-5000000D02*
X5300000Y4000000D01*
X1300000Y-9000000D02*
X5300000Y-5000000D01*
X10200000Y17730000D02*
X10670000Y18200000D01*
X5200000Y6800000D02*
X5200000Y12167406D01*
X10670000Y18200000D02*
X15855000Y18200000D01*
X-9660000Y16460000D02*
X-12075000Y16460000D01*
X-1300000Y-9000000D02*
X-5000000Y-5300000D01*
X-5000000Y-5300000D02*
X-5000000Y11800000D01*
X-5000000Y11800000D02*
X-9660000Y16460000D01*
X1300000Y-3000000D02*
X3800000Y-500000D01*
X10170000Y19470000D02*
X12075000Y19470000D01*
X9700000Y17233092D02*
X9700000Y19000000D01*
X3800000Y-500000D02*
X3800000Y12900000D01*
X4400000Y13500000D02*
X5966908Y13500000D01*
X5966908Y13500000D02*
X9700000Y17233092D01*
X9700000Y19000000D02*
X10170000Y19470000D01*
X3800000Y12900000D02*
X4400000Y13500000D01*
X-15540000Y21540000D02*
X-17125000Y21540000D01*
X-10200000Y19800000D02*
X-10800000Y20400000D01*
X-10800000Y20400000D02*
X-14400000Y20400000D01*
X-14400000Y20400000D02*
X-15540000Y21540000D01*
X-1300000Y-2424816D02*
X-3800000Y75184D01*
X-10200000Y18868628D02*
X-10200000Y19800000D01*
X-3800000Y12468628D02*
X-10200000Y18868628D01*
X-3800000Y75184D02*
X-3800000Y12468628D01*
X-1300000Y-3000000D02*
X-1300000Y-2424816D01*
X3800000Y14700000D02*
X5469850Y14700000D01*
X10100000Y23200000D02*
X14000000Y23200000D01*
X15190000Y22010000D02*
X17125000Y22010000D01*
X2600000Y13500000D02*
X3800000Y14700000D01*
X1300000Y3000000D02*
X2600000Y4300000D01*
X8500000Y21600000D02*
X10100000Y23200000D01*
X5469850Y14700000D02*
X8500000Y17730150D01*
X14000000Y23200000D02*
X15190000Y22010000D01*
X2600000Y4300000D02*
X2600000Y13500000D01*
X8500000Y17730150D02*
X8500000Y21600000D01*
X-10480000Y24080000D02*
X-12075000Y24080000D01*
X-9000000Y19600000D02*
X-9000000Y22600000D01*
X-9000000Y22600000D02*
X-10480000Y24080000D01*
X-2510091Y4110091D02*
X-2510091Y13110091D01*
X-2510091Y13110091D02*
X-9000000Y19600000D01*
X-1300000Y3000000D02*
X-1400000Y3000000D01*
X-1400000Y3000000D02*
X-2510091Y4110091D01*
X1300000Y1000000D02*
X3000000Y2700000D01*
X8900000Y17564464D02*
X8900000Y21000000D01*
X3000000Y2700000D02*
X3000000Y13300000D01*
X5635536Y14300000D02*
X8900000Y17564464D01*
X3000000Y13300000D02*
X4000000Y14300000D01*
X9910000Y22010000D02*
X12075000Y22010000D01*
X8900000Y21000000D02*
X9910000Y22010000D01*
X4000000Y14300000D02*
X5635536Y14300000D01*
X-9400000Y19200000D02*
X-9400000Y21800000D01*
X-1300000Y1500000D02*
X-2910091Y3110091D01*
X-15480000Y24080000D02*
X-17125000Y24080000D01*
X-14200000Y22800000D02*
X-15480000Y24080000D01*
X-10400000Y22800000D02*
X-14200000Y22800000D01*
X-1300000Y1000000D02*
X-1300000Y1500000D01*
X-2910091Y3110091D02*
X-2910091Y12710091D01*
X-9400000Y21800000D02*
X-10400000Y22800000D01*
X-2910091Y12710091D02*
X-9400000Y19200000D01*
X-1300000Y7000000D02*
X-1600000Y7300000D01*
X-1600000Y13400000D02*
X-8200000Y20000000D01*
X-8200000Y24400000D02*
X-10420000Y26620000D01*
X-8200000Y20000000D02*
X-8200000Y24400000D01*
X-1600000Y7300000D02*
X-1600000Y13400000D01*
X-10420000Y26620000D02*
X-12075000Y26620000D01*
X15975000Y25700000D02*
X17125000Y24550000D01*
X7700000Y18061522D02*
X7700000Y23000000D01*
X1300000Y7000000D02*
X1300000Y13700000D01*
X7700000Y23000000D02*
X10400000Y25700000D01*
X1300000Y13700000D02*
X3100000Y15500000D01*
X3100000Y15500000D02*
X5138478Y15500000D01*
X5138478Y15500000D02*
X7700000Y18061522D01*
X10400000Y25700000D02*
X15975000Y25700000D01*
X-1300000Y5245000D02*
X-2110091Y6055091D01*
X-2110091Y6055091D02*
X-2110091Y13310091D01*
X-14600000Y25400000D02*
X-15820000Y26620000D01*
X-2110091Y13310091D02*
X-8600000Y19800000D01*
X-8600000Y24200000D02*
X-9800000Y25400000D01*
X-9800000Y25400000D02*
X-14600000Y25400000D01*
X-1300000Y5000000D02*
X-1300000Y5245000D01*
X-15820000Y26620000D02*
X-17125000Y26620000D01*
X-8600000Y19800000D02*
X-8600000Y24200000D01*
X2110091Y13589909D02*
X2100000Y13600000D01*
X9815686Y24550000D02*
X12075000Y24550000D01*
X8100000Y22834314D02*
X9815686Y24550000D01*
X3600000Y15100000D02*
X5304164Y15100000D01*
X5304164Y15100000D02*
X8100000Y17895836D01*
X2110091Y5810091D02*
X2110091Y13589909D01*
X2100000Y13600000D02*
X3600000Y15100000D01*
X1300000Y5000000D02*
X2110091Y5810091D01*
X8100000Y17895836D02*
X8100000Y22834314D01*
X7800000Y6700000D02*
X9500000Y8400000D01*
X20000000Y10500000D02*
X19400000Y11100000D01*
X18450000Y11850000D02*
X17125000Y11850000D01*
X7800000Y-10500000D02*
X7800000Y6700000D01*
X18900000Y8400000D02*
X20000000Y9500000D01*
X20000000Y9500000D02*
X20000000Y10500000D01*
X19400000Y11100000D02*
X19200000Y11100000D01*
X19200000Y11100000D02*
X18450000Y11850000D01*
X1300000Y-17000000D02*
X7800000Y-10500000D01*
X9500000Y8400000D02*
X18900000Y8400000D01*
X-6600000Y-11700000D02*
X-6600000Y10600000D01*
X-1300000Y-17000000D02*
X-6600000Y-11700000D01*
X-7380000Y11380000D02*
X-12075000Y11380000D01*
X-6600000Y10600000D02*
X-7380000Y11380000D01*
X20400000Y9334314D02*
X20400000Y11250000D01*
X19065686Y8000000D02*
X20400000Y9334314D01*
X20400000Y11250000D02*
X18550000Y13100000D01*
X15400000Y13100000D02*
X14150000Y11850000D01*
X8200000Y6500000D02*
X9700000Y8000000D01*
X18550000Y13100000D02*
X15400000Y13100000D01*
X1300000Y-19000000D02*
X8200000Y-12100000D01*
X8200000Y-12100000D02*
X8200000Y6500000D01*
X9700000Y8000000D02*
X19065686Y8000000D01*
X14150000Y11850000D02*
X12075000Y11850000D01*
X-1300000Y-19000000D02*
X-7000000Y-13300000D01*
X-7000000Y9000000D02*
X-8000000Y10000000D01*
X-7000000Y-13300000D02*
X-7000000Y9000000D01*
X-15745000Y10000000D02*
X-17125000Y11380000D01*
X-8000000Y10000000D02*
X-15745000Y10000000D01*
X-4200000Y12200000D02*
X-11000000Y19000000D01*
X-1300000Y-5000000D02*
X-4200000Y-2100000D01*
X-4200000Y-2100000D02*
X-4200000Y12200000D01*
X-11000000Y19000000D02*
X-12075000Y19000000D01*
X1300000Y-5000000D02*
X4300000Y-2000000D01*
X9900000Y10400000D02*
X16035000Y10400000D01*
X4300000Y-2000000D02*
X4300000Y4800000D01*
X16035000Y10400000D02*
X17125000Y9310000D01*
X4300000Y4800000D02*
X9900000Y10400000D01*
X-10400000Y17800000D02*
X-15925000Y17800000D01*
X-1300000Y-7000000D02*
X-4600000Y-3700000D01*
X-4600000Y-3700000D02*
X-4600000Y12000000D01*
X-4600000Y12000000D02*
X-10400000Y17800000D01*
X-15925000Y17800000D02*
X-17125000Y19000000D01*
X4700000Y-3600000D02*
X4700000Y4600000D01*
X4700000Y4600000D02*
X9410000Y9310000D01*
X1300000Y-7000000D02*
X4700000Y-3600000D01*
X9410000Y9310000D02*
X12075000Y9310000D01*
D95*
X9910000Y3600000D02*
X10200000Y3310000D01*
X10200000Y3310000D02*
X10200000Y-1200000D01*
X10200000Y-1200000D02*
X11400000Y-2400000D01*
X33450000Y-27600000D02*
X24800000Y-27600000D01*
M02*
