M48
; DRILL file {KiCad 8.0.5} date 2024-09-20T17:14:03+0300
; FORMAT={-:-/ absolute / inch / decimal}
; #@! TF.CreationDate,2024-09-20T17:14:03+03:00
; #@! TF.GenerationSoftware,Kicad,Pcbnew,8.0.5
; #@! TF.FileFunction,Plated,1,4,PTH
FMAT,2
INCH
; #@! TA.AperFunction,Plated,PTH,ViaDrill
T1C0.0118
; #@! TA.AperFunction,Plated,PTH,ComponentDrill
T2C0.0236
; #@! TA.AperFunction,Plated,PTH,ComponentDrill
T3C0.0276
; #@! TA.AperFunction,Plated,PTH,ComponentDrill
T4C0.0315
; #@! TA.AperFunction,Plated,PTH,ComponentDrill
T5C0.0394
%
G90
G05
T1
X-1.7264Y1.0866
X-1.7244Y-0.8917
X-1.6437Y-0.9606
X-1.6201Y0.9646
X-1.5866Y0.9449
X-1.5709Y-0.9488
X-1.5Y1.4961
X-1.5Y1.4134
X-1.5Y1.3386
X-1.5Y1.2598
X-1.4843Y-0.9173
X-1.4764Y-1.0827
X-1.3976Y1.8465
X-1.374Y-0.9409
X-1.3701Y-1.122
X-1.3189Y1.6496
X-1.3179Y1.5157
X-1.311Y1.752
X-1.2972Y1.9429
X-1.2919Y1.5394
X-1.2795Y1.6654
X-1.2771Y1.7043
X-1.2736Y-1.5787
X-1.2682Y1.5118
X-1.2563Y1.6441
X-1.2424Y1.5298
X-1.2402Y1.7677
X-1.2362Y1.8031
X-1.2283Y0.5315
X-1.2283Y0.4134
X-1.2283Y0.374
X-1.2283Y0.2559
X-1.2283Y0.2165
X-1.2283Y0.0984
X-1.2283Y0.0591
X-1.2283Y-0.0591
X-1.2283Y-0.0984
X-1.2283Y-0.2165
X-1.2283Y-0.2559
X-1.2283Y-0.374
X-1.2283Y-0.4134
X-1.2283Y-0.5315
X-1.2244Y1.6441
X-1.2165Y1.4882
X-1.2106Y-1.5709
X-1.1995Y1.8543
X-1.189Y1.7323
X-1.189Y1.6929
X-1.1693Y1.6063
X-1.1673Y-1.5433
X-1.1662Y1.4907
X-1.1496Y1.7323
X-1.1496Y1.6929
X-1.1487Y1.5306
X-1.1417Y1.8583
X-1.1364Y1.8085
X-1.122Y0.4921
X-1.122Y0.4528
X-1.122Y0.3346
X-1.122Y0.2953
X-1.122Y0.1772
X-1.122Y0.1378
X-1.122Y0.0197
X-1.122Y-0.0197
X-1.122Y-0.1378
X-1.122Y-0.1772
X-1.122Y-0.2953
X-1.122Y-0.3346
X-1.122Y-0.4528
X-1.122Y-0.4921
X-1.1198Y1.5056
X-1.1122Y-1.5866
X-1.1102Y1.6378
X-1.1032Y1.8084
X-1.0882Y1.4982
X-1.0709Y1.7835
X-1.0709Y0.3307
X-1.0709Y0.2756
X-1.0709Y0.2244
X-1.0537Y1.5054
X-1.0276Y1.712
X-1.0197Y1.5551
X-1.0079Y1.4567
X-1.0039Y0.3307
X-1.0039Y0.2756
X-1.0039Y0.2244
X-0.9685Y1.4567
X-0.9409Y0.9154
X-0.937Y2.0118
X-0.9331Y1.4646
X-0.8976Y1.4685
X-0.8969Y1.5593
X-0.878Y1.7953
X-0.878Y1.6908
X-0.8583Y1.4764
X-0.8537Y1.7658
X-0.8207Y1.5096
X-0.8073Y1.7835
X-0.8071Y1.2323
X-0.7923Y-0.9811
X-0.7579Y1.7795
X-0.7323Y0.3307
X-0.7323Y0.2756
X-0.7323Y0.2244
X-0.7264Y1.7657
X-0.7126Y0.8898
X-0.7106Y-0.9764
X-0.7087Y-1.0807
X-0.7057Y-1.3927
X-0.7047Y-1.1575
X-0.6988Y1.874
X-0.6732Y1.748
X-0.6654Y0.3307
X-0.6654Y0.2756
X-0.6654Y0.2244
X-0.6654Y-0.0866
X-0.6654Y-0.189
X-0.6339Y-0.6417
X-0.6299Y-0.5354
X-0.6299Y-0.752
X-0.6211Y1.4891
X-0.6142Y1.5866
X-0.6063Y-2.1102
X-0.5866Y1.5315
X-0.5748Y-2.0709
X-0.5636Y1.4573
X-0.563Y-0.0866
X-0.563Y-0.189
X-0.561Y-2.1368
X-0.5512Y1.5472
X-0.5512Y-1.937
X-0.5484Y-2.039
X-0.5472Y1.6535
X-0.5454Y1.483
X-0.5374Y-1.3839
X-0.5354Y1.5748
X-0.5354Y0.0846
X-0.5354Y0.0413
X-0.5354Y-1.2835
X-0.5276Y-0.0984
X-0.5197Y-0.3538
X-0.5157Y-0.5354
X-0.5157Y-0.6417
X-0.5157Y-0.752
X-0.5111Y1.6558
X-0.5106Y1.6908
X-0.4921Y0.3268
X-0.4921Y0.2756
X-0.4921Y0.2244
X-0.4803Y0.1575
X-0.4617Y-1.8769
X-0.4592Y1.7569
X-0.4567Y2.0414
X-0.4324Y-0.0155
X-0.4272Y-0.0689
X-0.4213Y-1.4055
X-0.4193Y-2.1476
X-0.4173Y-0.2874
X-0.4134Y0.3268
X-0.4134Y0.2244
X-0.4094Y0.2756
X-0.4094Y0.0177
X-0.4055Y0.5472
X-0.3975Y-2.0397
X-0.3898Y-1.8465
X-0.3858Y1.878
X-0.3504Y2.0906
X-0.3268Y-1.4409
X-0.3051Y2.0551
X-0.2283Y1.878
X-0.2047Y2.0945
X-0.1836Y1.7126
X-0.1783Y1.6814
X-0.1575Y1.5984
X-0.1535Y1.722
X-0.1408Y1.9085
X-0.1102Y1.6654
X-0.0846Y-2.124
X-0.0645Y1.6555
X-0.0315Y1.5354
X0.0645Y1.6417
X0.0645Y1.563
X0.0748Y1.748
X0.0984Y1.7913
X0.1102Y1.7441
X0.1308Y1.6417
X0.1555Y-2.1299
X0.1772Y1.8937
X0.1785Y1.5428
X0.1865Y1.8124
X0.1925Y1.8625
X0.2047Y2.0945
X0.2304Y1.7795
X0.2323Y1.8701
X0.2692Y1.7874
X0.2913Y-2.0079
X0.2992Y-1.9685
X0.3465Y1.7874
X0.3504Y-2.0492
X0.3858Y1.8701
X0.3976Y-1.9213
X0.4016Y2.0945
X0.4134Y-0.4961
X0.4193Y-2.1614
X0.4291Y1.7835
X0.4291Y-0.0866
X0.4291Y-0.1575
X0.4331Y-1.874
X0.4331Y-2.0413
X0.437Y2.0512
X0.437Y-0.4291
X0.4528Y-0.3819
X0.4528Y-0.5669
X0.4567Y-0.2756
X0.4606Y-0.689
X0.4685Y-0.752
X0.4744Y2.0394
X0.4843Y-0.0787
X0.4882Y-2.1654
X0.4981Y1.679
X0.5039Y1.7835
X0.5059Y-0.6752
X0.5079Y-0.4567
X0.5118Y1.0059
X0.5118Y0.9173
X0.5118Y0.8189
X0.5118Y0.7205
X0.5157Y-0.3386
X0.5157Y-1.8937
X0.5167Y-0.5394
X0.5197Y0.2874
X0.5197Y-0.874
X0.5276Y1.3031
X0.5394Y1.6693
X0.5394Y0.4134
X0.5433Y0.6181
X0.5472Y-0.5945
X0.5472Y-1.1575
X0.5472Y-1.2992
X0.5512Y-0.9528
X0.5519Y-2.0393
X0.5542Y1.5906
X0.5551Y-0.3858
X0.5558Y0.023
X0.5571Y-2.0925
X0.5591Y0.5157
X0.5636Y1.6491
X0.5709Y1.563
X0.5713Y1.6181
X0.5728Y2.0413
X0.5787Y-0.1811
X0.5787Y1.5282
X0.5827Y-0.6614
X0.5906Y-0.5669
X0.5906Y-0.7244
X0.5945Y1.5009
X0.5984Y-0.815
X0.6024Y-0.4843
X0.6181Y1.4801
X0.6239Y1.0472
X0.624Y1.0846
X0.6299Y-0.0709
X0.6378Y-0.5079
X0.6378Y-0.6063
X0.6397Y0.3228
X0.6417Y1.4567
X0.6457Y-0.685
X0.6521Y-0.3622
X0.6554Y0.8189
X0.6554Y0.7165
X0.6554Y0.6181
X0.6554Y0.5157
X0.6554Y0.4173
X0.6575Y-0.252
X0.6693Y-1.5
X0.6693Y-1.6378
X0.6712Y0.9173
X0.6722Y1.4487
X0.6772Y-0.5
X0.689Y-0.626
X0.6929Y1.4843
X0.7047Y-0.3858
X0.7283Y-0.1654
X0.7283Y-0.2756
X0.7283Y-0.8858
X0.7283Y-0.937
X0.7283Y-1.5
X0.7323Y1.7283
X0.7362Y1.9843
X0.7441Y-0.2205
X0.7441Y-0.3307
X0.748Y-0.1102
X0.748Y-0.685
X0.7579Y1.4488
X0.7835Y-1.5
X0.7913Y1.4488
X0.8009Y-0.3841
X0.8009Y-0.4252
X0.8009Y-0.4702
X0.8307Y1.1417
X0.8327Y-0.2854
X0.8386Y-1.5
X0.8486Y1.6693
X0.8661Y-0.5439
X0.8661Y-0.5827
X0.8723Y-0.5101
X0.874Y-0.9173
X0.876Y1.9508
X0.9134Y1.6378
X0.9173Y1.9843
X0.9291Y1.5157
X0.937Y-0.8228
X0.937Y-0.8819
X0.9606Y-1.4173
X0.9685Y-1.2913
X1.001Y1.7175
X1.0354Y1.6457
X1.0472Y1.6102
X1.0618Y1.6658
X1.0669Y1.6969
X1.0709Y-1.4567
X1.081Y1.8189
X1.0866Y1.5984
X1.0906Y-1.0906
X1.096Y1.9134
X1.0984Y-1.2913
X1.1134Y1.8173
X1.1181Y1.626
X1.1201Y2.0177
X1.122Y0.4921
X1.122Y0.4528
X1.122Y0.3346
X1.122Y0.2953
X1.122Y0.1772
X1.122Y0.1378
X1.122Y0.0197
X1.122Y-0.0197
X1.122Y-0.1378
X1.122Y-0.1772
X1.122Y-0.2953
X1.122Y-0.3346
X1.122Y-0.4528
X1.122Y-0.4921
X1.122Y-1.0906
X1.1457Y1.7677
X1.1457Y1.7283
X1.1535Y-1.0906
X1.1575Y1.9291
X1.1654Y-1.6791
X1.1673Y-1.4862
X1.1693Y-1.2913
X1.1811Y-1.4173
X1.185Y1.7677
X1.185Y1.7283
X1.1994Y1.6173
X1.2047Y1.8976
X1.2051Y1.8071
X1.2126Y1.6752
X1.2283Y0.5315
X1.2283Y0.4134
X1.2283Y0.374
X1.2283Y0.2559
X1.2283Y0.2165
X1.2283Y0.0984
X1.2283Y0.0591
X1.2283Y-0.0591
X1.2283Y-0.0984
X1.2283Y-0.2165
X1.2283Y-0.2559
X1.2283Y-0.374
X1.2283Y-0.4134
X1.2283Y-0.5315
X1.2323Y1.7878
X1.2362Y1.9449
X1.248Y1.6614
X1.2559Y-0.9843
X1.2691Y1.6864
X1.2795Y1.6457
X1.2953Y-1.2913
X1.3307Y1.7087
X1.3307Y1.6457
X1.3425Y1.7913
X1.3465Y-0.937
X1.3701Y-1.0669
X1.378Y-1.3228
X1.4488Y1.7992
X1.4567Y-1.2795
X1.4685Y-0.937
X1.498Y1.2657
X1.5Y1.4921
X1.502Y1.3386
X1.5709Y0.9646
X1.5866Y1.0276
X1.6024Y-0.9016
X1.6378Y-0.8839
X1.6398Y1.4173
X1.7244Y-1.0315
X1.7323Y0.8799
T2
X-0.2756Y-2.1299
X0.2756Y-2.1299
T3
X0.4196Y0.2681
X0.4196Y-0.0319
T4
X-0.0669Y-1.9685
X0.0669Y-1.9685
T5
G00X-0.1102Y1.4567
M15
G01X0.1102Y1.4567
M16
G05
G00X-0.1102Y-1.4567
M15
G01X0.1102Y-1.4567
M16
G05
M30
