G04 #@! TF.GenerationSoftware,KiCad,Pcbnew,8.0.5*
G04 #@! TF.CreationDate,2024-09-20T17:14:00+03:00*
G04 #@! TF.ProjectId,Microbot,4d696372-6f62-46f7-942e-6b696361645f,rev?*
G04 #@! TF.SameCoordinates,Original*
G04 #@! TF.FileFunction,Copper,L3,Inr*
G04 #@! TF.FilePolarity,Positive*
%FSLAX46Y46*%
G04 Gerber Fmt 4.6, Leading zero omitted, Abs format (unit mm)*
G04 Created by KiCad (PCBNEW 8.0.5) date 2024-09-20 17:14:00*
%MOMM*%
%LPD*%
G01*
G04 APERTURE LIST*
G04 #@! TA.AperFunction,ComponentPad*
%ADD10C,1.400000*%
G04 #@! TD*
G04 #@! TA.AperFunction,ComponentPad*
%ADD11O,1.400000X1.400000*%
G04 #@! TD*
G04 #@! TA.AperFunction,ComponentPad*
%ADD12O,7.200000X1.600000*%
G04 #@! TD*
G04 #@! TA.AperFunction,ComponentPad*
%ADD13C,1.000000*%
G04 #@! TD*
G04 #@! TA.AperFunction,ComponentPad*
%ADD14C,1.500000*%
G04 #@! TD*
G04 #@! TA.AperFunction,ViaPad*
%ADD15C,0.600000*%
G04 #@! TD*
G04 #@! TA.AperFunction,Conductor*
%ADD16C,1.000000*%
G04 #@! TD*
G04 #@! TA.AperFunction,Conductor*
%ADD17C,3.000000*%
G04 #@! TD*
G04 #@! TA.AperFunction,Conductor*
%ADD18C,0.150000*%
G04 #@! TD*
G04 #@! TA.AperFunction,Conductor*
%ADD19C,1.500000*%
G04 #@! TD*
G04 #@! TA.AperFunction,Conductor*
%ADD20C,2.000000*%
G04 #@! TD*
G04 #@! TA.AperFunction,Conductor*
%ADD21C,0.500000*%
G04 #@! TD*
G04 #@! TA.AperFunction,Conductor*
%ADD22C,0.200000*%
G04 #@! TD*
G04 APERTURE END LIST*
D10*
X10657500Y-810000D03*
D11*
X10657500Y6810000D03*
D12*
X0Y37000000D03*
X0Y-37000000D03*
D13*
X7000000Y-54100000D03*
X-7000000Y-54100000D03*
D14*
X1700000Y-50000000D03*
X-1700000Y-50000000D03*
D15*
X17000000Y-41600000D03*
X37300000Y-23800000D03*
X17500000Y-15900000D03*
X29100000Y43900000D03*
X-28500000Y12500000D03*
X5900000Y47500000D03*
X28500000Y11500000D03*
X22200000Y-23300000D03*
X1637500Y41700000D03*
X-8900000Y53100000D03*
X40700000Y-22900000D03*
X-4529708Y42708551D03*
X28500000Y-3500000D03*
X-16900000Y-2200000D03*
X-10500000Y8300000D03*
X43800000Y-26200000D03*
X35000000Y-33600000D03*
X-10700000Y-35700000D03*
X31200000Y-2500000D03*
X-31200000Y-6500000D03*
X-39900000Y-24100000D03*
X-23800000Y51100000D03*
X-28500000Y8500000D03*
X-28500000Y-7500000D03*
X-31200000Y5500000D03*
X18700000Y50400000D03*
X27900000Y-32800000D03*
X28500000Y4500000D03*
X17900000Y-9800000D03*
X-43850000Y27600000D03*
X29700000Y-32800000D03*
X-28500000Y-8500000D03*
X-14250000Y-54275000D03*
X-28500000Y-4500000D03*
X32900000Y-32800000D03*
X-10500000Y5700000D03*
X14018690Y-51797230D03*
X-10600000Y-7300000D03*
X18900000Y-8400000D03*
X28500000Y7500000D03*
X-13600000Y1050000D03*
X27837500Y48600000D03*
X13125000Y-13700000D03*
X40300000Y26100000D03*
X29100000Y44900000D03*
X20342893Y-10800000D03*
X20342893Y-9757107D03*
X31200000Y-1500000D03*
X13200000Y7300000D03*
X-28500000Y-12500000D03*
X30100000Y44900000D03*
X-31200000Y10500000D03*
X-31200000Y2500000D03*
X31200000Y-13500000D03*
X14550000Y51850000D03*
X31400000Y49400000D03*
X-31200000Y1500000D03*
X-5800000Y47700000D03*
X31200000Y-9500000D03*
X-30200000Y43000000D03*
X-29700000Y40800000D03*
X28500000Y3500000D03*
X-31200000Y6500000D03*
X-1637500Y42050000D03*
X-32950000Y49350000D03*
X31200000Y9500000D03*
X-31200000Y13500000D03*
X31200000Y6500000D03*
X18500000Y-22500000D03*
X-14300000Y-2200000D03*
X-31200000Y9500000D03*
X-28500000Y-11500000D03*
X28450000Y51250000D03*
X-18450000Y44850000D03*
X10650000Y-54900000D03*
X18500000Y-7000000D03*
X-31200000Y-13500000D03*
X-12500000Y8300000D03*
X-14300000Y-4800000D03*
X33800000Y43400000D03*
X34200000Y-23800000D03*
X-28500000Y500000D03*
X28500000Y-12500000D03*
X-16900000Y-4800000D03*
X28500000Y12500000D03*
X-15400000Y-53600000D03*
X20342893Y-11942893D03*
X-34800000Y-28500000D03*
X-31200000Y-1500000D03*
X-30200000Y44000000D03*
X-43800000Y-22650000D03*
X-28500000Y-500000D03*
X28500000Y8500000D03*
X-29200000Y44000000D03*
X30464079Y41078640D03*
X-28500000Y-3500000D03*
X10100000Y-48800000D03*
X28500000Y500000D03*
X15847794Y26600000D03*
X-12500000Y5700000D03*
X-32350000Y-40100000D03*
X29600000Y-42650000D03*
X-13600000Y2150000D03*
X-28250000Y-40300000D03*
X-28500000Y7500000D03*
X28500000Y-500000D03*
X7400000Y-51000000D03*
X-14000000Y-49200000D03*
X17200000Y-12700000D03*
X28500000Y-4500000D03*
X31200000Y2500000D03*
X-37700000Y-23300000D03*
X-10400000Y450000D03*
X-28500000Y4500000D03*
X4533957Y39186059D03*
X33800000Y41800000D03*
X1637500Y39700000D03*
X-28500000Y11500000D03*
X-26100000Y43483750D03*
X-10400000Y7000000D03*
X-12500000Y7000000D03*
X12900000Y-11600000D03*
X15850000Y27550000D03*
X18900000Y-5600000D03*
X28500000Y-8500000D03*
X28500000Y-7500000D03*
X-31200000Y-5500000D03*
X-9800000Y47700000D03*
X-17750000Y47600000D03*
X18500000Y-4200000D03*
X31200000Y-10500000D03*
X44000000Y22350000D03*
X-31200000Y-10500000D03*
X9800000Y47500000D03*
X18500000Y-23800000D03*
X31200000Y5500000D03*
X-29200000Y43000000D03*
X-13650000Y-35150000D03*
X31200000Y13500000D03*
X-10095651Y-51807248D03*
X31200000Y-5500000D03*
X29650000Y-37750000D03*
X36800000Y45700000D03*
X31200000Y10500000D03*
X31200000Y-6500000D03*
X-28500000Y3500000D03*
X24600000Y-32800000D03*
X30100000Y43900000D03*
X31200000Y1500000D03*
X-33500000Y41900000D03*
X-31200000Y-9500000D03*
X28500000Y-11500000D03*
X-40300000Y24000000D03*
X12300000Y-2000000D03*
X19000000Y-2800000D03*
X-31200000Y-2500000D03*
X23300000Y50400000D03*
X22250000Y49550000D03*
X-29000000Y47200000D03*
X34800000Y-27100000D03*
X11000000Y-51850000D03*
X13100000Y-48100000D03*
X-17900000Y-29400000D03*
X-11726250Y-47673750D03*
X-18000000Y-27450000D03*
X-13930000Y-51790000D03*
X-37500000Y-27500000D03*
X-34900000Y-23900000D03*
X23800000Y-20900000D03*
X-20125000Y-24920000D03*
X16700000Y-6400000D03*
X-18050000Y-24800000D03*
X-16000000Y-13600000D03*
X30000000Y-36000000D03*
X-16100000Y-16300000D03*
X19000000Y-17400000D03*
X-13100000Y-13600000D03*
X-13200000Y-8987500D03*
X15000000Y-14400000D03*
X14800000Y-16800000D03*
X11600000Y-7000000D03*
X-10851250Y-1751250D03*
X11500000Y-9700000D03*
X15000000Y-18400000D03*
X-13100000Y-16300000D03*
X-16000000Y-19100000D03*
X-13100000Y-19100000D03*
X23800000Y-22400000D03*
X22000000Y-13814214D03*
X22000000Y-14800000D03*
X22157107Y-12957107D03*
X16200000Y-12900000D03*
X14116116Y583884D03*
X14700000Y-4600000D03*
X11700000Y-17500000D03*
X27200000Y-37000000D03*
X11900000Y-19100000D03*
X11100000Y-10900000D03*
X27700000Y-27700000D03*
X16200000Y-15400000D03*
X10900000Y-4000000D03*
X1900000Y44400000D03*
X10900000Y-2200000D03*
X29300000Y-27700000D03*
X28500000Y-27700000D03*
X11500000Y-14400000D03*
X16400000Y-17400000D03*
X15200000Y-20700000D03*
X13900000Y-15100000D03*
X16562500Y-9200000D03*
X29400000Y49000000D03*
X-16900000Y7000000D03*
X18500000Y-38100000D03*
X-4000000Y40600000D03*
X-14600000Y-52600000D03*
X31700000Y42200000D03*
X-18600000Y7000000D03*
X3321147Y41699999D03*
X-25500000Y5700000D03*
X-33300000Y44500000D03*
X-30467500Y47100000D03*
X-16900000Y8400000D03*
X11100000Y52100000D03*
X-16900000Y5700000D03*
X17000000Y-38100000D03*
X24400000Y-36000000D03*
X37000000Y-32500000D03*
X19900000Y-38100000D03*
X-18600000Y5700000D03*
X-25500000Y8400000D03*
X14150000Y-53150000D03*
X-29650000Y-39200000D03*
X-18600000Y8400000D03*
X-3575735Y48475735D03*
X-27200000Y7000000D03*
X-41750000Y-24400000D03*
X-27200000Y5700000D03*
X41600000Y-22450000D03*
X8900000Y-52050000D03*
X-27200000Y8400000D03*
X39900000Y24500000D03*
X-26763173Y38236827D03*
X21300000Y-38100000D03*
X-25500000Y7000000D03*
X-41150000Y24500000D03*
X11000000Y-47600000D03*
X-2800000Y42300000D03*
X21100000Y29000000D03*
X31900000Y-25000000D03*
X-22300000Y45600000D03*
X27600000Y40600000D03*
X31300000Y45410002D03*
X30600000Y48200000D03*
X32500000Y41800000D03*
X27456587Y46200000D03*
X28400000Y41300000D03*
X-27640320Y38053313D03*
X-27200000Y45300000D03*
X-28441792Y38241792D03*
X-28864318Y45935777D03*
X-31500000Y44900000D03*
X-29622149Y37862990D03*
X2500000Y45500000D03*
X14100000Y-9800000D03*
X-5200000Y53200000D03*
X5200000Y53200000D03*
X13100000Y-8600000D03*
X2800000Y44300000D03*
X13900000Y-33000000D03*
X13200000Y-22200000D03*
X10500000Y-12600000D03*
X14000000Y-24200000D03*
X13900000Y-29400000D03*
X12400000Y-55000000D03*
X-17925000Y-35375000D03*
X16647794Y10600000D03*
X20100000Y36800000D03*
X23600000Y38500000D03*
X14510050Y41100000D03*
X38150000Y34000000D03*
X16647794Y13100000D03*
X19250000Y36800000D03*
X17600000Y37700000D03*
X14500000Y39700000D03*
X38050000Y32150000D03*
X-38100000Y35900000D03*
X-13900000Y42000000D03*
X13800000Y15700000D03*
X-20505025Y45300000D03*
X-12970502Y42946974D03*
X-38100000Y38000000D03*
X-22300000Y42946974D03*
X-25900000Y39500000D03*
X14200000Y13100000D03*
X-19250000Y45200000D03*
X41650000Y36000000D03*
X12651336Y42647684D03*
X38100000Y37900000D03*
X14314579Y41887851D03*
X-38100000Y32000000D03*
X-15600000Y40300000D03*
X-38100000Y34000000D03*
X-14000000Y39300000D03*
X-14314214Y37014214D03*
X13000000Y18300000D03*
X16647794Y15700000D03*
X17074135Y36798209D03*
X4500000Y48100000D03*
X16247794Y8200000D03*
X15700000Y37594329D03*
X17047794Y23300000D03*
X21555000Y42400000D03*
X5851456Y45200000D03*
X16647794Y20800000D03*
X-800000Y39000000D03*
X13700000Y10500000D03*
X13000000Y20800000D03*
X-13852332Y37667413D03*
X-14900000Y38900000D03*
X13000000Y25550002D03*
X16647794Y18200000D03*
X16300000Y37000000D03*
X-21684877Y44850841D03*
X-17100000Y44400000D03*
X-15775735Y37824265D03*
X13000000Y23300000D03*
X-9900000Y-46900000D03*
X-2150000Y-53950000D03*
X3950000Y-54100000D03*
X7600000Y-50000000D03*
X13400000Y33100000D03*
X12850000Y-17150000D03*
X-8300000Y-36600000D03*
X-10983964Y-394600D03*
X-13600000Y-32600000D03*
X21150000Y-7250000D03*
X-11662500Y44624999D03*
X-32813810Y39100001D03*
X-32500000Y42300000D03*
X26600000Y40900000D03*
X-20844975Y38344975D03*
X-31555800Y38855800D03*
X-32213255Y38400000D03*
X-31909747Y41760000D03*
X25424265Y43624265D03*
X-23700000Y37200000D03*
X26968480Y42310883D03*
X-22781174Y39605653D03*
X-23900000Y23250000D03*
X32235165Y42835165D03*
X-25600000Y37000000D03*
X-20500000Y31300000D03*
X27100000Y43100000D03*
X-22800000Y37300000D03*
X26300000Y41800000D03*
X-21800000Y37500000D03*
X-30900000Y37800000D03*
X-31100000Y41760000D03*
X-18100000Y22600000D03*
X-29177817Y38877817D03*
X-10300000Y13900000D03*
X-28200000Y41600000D03*
X30800000Y42550000D03*
X-24600000Y37000000D03*
X-33475000Y38500000D03*
X-32438172Y43290001D03*
X15300000Y-12300000D03*
X16000000Y-1800000D03*
X4890637Y47306697D03*
X18600000Y43900000D03*
X23200000Y41600000D03*
X4737500Y46036216D03*
X10200000Y53200000D03*
X34100000Y45500000D03*
X12050000Y51800000D03*
X-7750000Y52200000D03*
X-35500000Y46900000D03*
X-11599265Y51850735D03*
X-13400000Y-2500000D03*
X-12200000Y4000000D03*
X14700001Y38816300D03*
X8800000Y45400000D03*
X15100000Y38123478D03*
X6837499Y45400000D03*
X13700000Y42400000D03*
X12800000Y45300000D03*
X10900000Y45300000D03*
X14075501Y40400000D03*
X-3899853Y43739829D03*
X-12981121Y42056084D03*
X-13600000Y40000000D03*
X-4663110Y43500000D03*
X30610002Y45900000D03*
X28280684Y46158654D03*
X-28020310Y45933876D03*
X-31400000Y45800000D03*
X-10650000Y-54550000D03*
X-30750000Y-39900000D03*
D16*
X12300000Y-6800000D02*
X11700000Y-7400000D01*
D17*
X-21200002Y27299998D02*
X-21200002Y-6999998D01*
D18*
X27750000Y-26350000D02*
X23800000Y-22400000D01*
X30000000Y-36000000D02*
X32100000Y-33900000D01*
D19*
X12300000Y-4500000D02*
X14750000Y-2050000D01*
D20*
X23800000Y-22400000D02*
X23800000Y-20900000D01*
D16*
X11700000Y-7400000D02*
X11700000Y-9700000D01*
X15000000Y-14400000D02*
X15200000Y-14200000D01*
D18*
X30550000Y-26350000D02*
X27750000Y-26350000D01*
D20*
X11000000Y35332474D02*
X9332474Y37000000D01*
D19*
X14750000Y-550000D02*
X17300000Y2000000D01*
D17*
X-21200002Y-6999998D02*
X-14600000Y-13600000D01*
D20*
X25000000Y20521321D02*
X16421321Y29100000D01*
D19*
X14750000Y-2050000D02*
X14750000Y-550000D01*
X17300000Y2000000D02*
X17300000Y3900000D01*
D17*
X-11500000Y37000000D02*
X-21200002Y27299998D01*
D20*
X11000000Y30900000D02*
X11000000Y35332474D01*
D16*
X25000000Y-8700000D02*
X25000000Y-3600000D01*
D20*
X12800000Y29100000D02*
X11000000Y30900000D01*
D16*
X19500000Y-14200000D02*
X25000000Y-8700000D01*
D18*
X32100000Y-27900000D02*
X30550000Y-26350000D01*
D17*
X-14600000Y-13600000D02*
X-14600000Y-18300000D01*
D16*
X15000000Y-14400000D02*
X15000000Y-18400000D01*
D20*
X25000000Y-3600000D02*
X25000000Y11600000D01*
D21*
X19000000Y-15900000D02*
X19000000Y-17400000D01*
D16*
X12300000Y-4500000D02*
X12300000Y-6800000D01*
D20*
X16421321Y29100000D02*
X12800000Y29100000D01*
X25000000Y11600000D02*
X25000000Y20521321D01*
D18*
X32100000Y-33900000D02*
X32100000Y-27900000D01*
D20*
X9332474Y37000000D02*
X-2800000Y37000000D01*
D19*
X17300000Y3900000D02*
X25000000Y11600000D01*
D20*
X25000000Y-19700000D02*
X25000000Y-3600000D01*
X23800000Y-20900000D02*
X25000000Y-19700000D01*
D16*
X15200000Y-14200000D02*
X19500000Y-14200000D01*
D21*
X15000000Y-14400000D02*
X17500000Y-14400000D01*
D17*
X0Y37000000D02*
X-11500000Y37000000D01*
D21*
X17500000Y-14400000D02*
X19000000Y-15900000D01*
D16*
X29300000Y-27700000D02*
X27700000Y-27700000D01*
X16900000Y-16714214D02*
X16900000Y-23500000D01*
X16200000Y-16014214D02*
X16900000Y-16714214D01*
X11700000Y-14500000D02*
X11700000Y-14450000D01*
X16900000Y-23500000D02*
X16600000Y-23800000D01*
X11100000Y-10900000D02*
X10500000Y-10300000D01*
X27700000Y-27700000D02*
X26100000Y-27700000D01*
X11700000Y-14500000D02*
X11700000Y-18800000D01*
X20600000Y-27800000D02*
X16600000Y-23800000D01*
X26000000Y-27800000D02*
X20600000Y-27800000D01*
X11700000Y-14450000D02*
X11700000Y-11500000D01*
X11700000Y-18000000D02*
X11700000Y-18900000D01*
X10500000Y-10300000D02*
X10500000Y-2600000D01*
X26100000Y-27700000D02*
X26000000Y-27800000D01*
X11700000Y-11500000D02*
X11100000Y-10900000D01*
D18*
X27200000Y-37000000D02*
X27200000Y-28200000D01*
D16*
X16600000Y-23800000D02*
X11900000Y-19100000D01*
X11700000Y-18900000D02*
X11900000Y-19100000D01*
X16200000Y-15400000D02*
X16200000Y-16014214D01*
D18*
X27200000Y-28200000D02*
X27700000Y-27700000D01*
D16*
X10500000Y-2600000D02*
X10900000Y-2200000D01*
D21*
X13900000Y-19400000D02*
X13900000Y-15100000D01*
X15200000Y-20700000D02*
X13900000Y-19400000D01*
X16562500Y-9200000D02*
X13900000Y-11862500D01*
X13900000Y-11862500D02*
X13900000Y-15100000D01*
D16*
X-12587868Y46200000D02*
X-11823287Y46200000D01*
X-3900000Y40700000D02*
X2321148Y40700000D01*
D21*
X-29500000Y25600000D02*
X-25500000Y29600000D01*
D16*
X-3575735Y48475735D02*
X-3424265Y48475735D01*
D22*
X-26400000Y-33900000D02*
X-26400000Y-30300000D01*
X41600000Y-27900000D02*
X37000000Y-32500000D01*
D16*
X29400000Y48300000D02*
X29400000Y49000000D01*
X20014214Y47200000D02*
X28300000Y47200000D01*
D21*
X31700000Y42200000D02*
X31700000Y41253900D01*
D22*
X11100000Y51901471D02*
X12501471Y50500000D01*
X-41750000Y-24400000D02*
X-39650000Y-22300000D01*
D16*
X-23300000Y42532760D02*
X-20955108Y40187868D01*
X-26600000Y47800000D02*
X-27000000Y48200000D01*
D21*
X-40050000Y25600000D02*
X-29500000Y25600000D01*
D16*
X-27000000Y48200000D02*
X-29414214Y48200000D01*
D22*
X41600000Y-22450000D02*
X41600000Y-27900000D01*
X-29650000Y-39200000D02*
X-29650000Y-37150000D01*
D21*
X-25350000Y43173089D02*
X-26763173Y41759916D01*
D16*
X16714214Y50500000D02*
X20014214Y47200000D01*
D20*
X-18600000Y40187868D02*
X-18600000Y40293934D01*
D21*
X26500000Y46500000D02*
X27200000Y47200000D01*
D22*
X-28400000Y-23800000D02*
X-26400000Y-21800000D01*
X-14600000Y-40500000D02*
X-14900000Y-40200000D01*
D16*
X-23300000Y44500000D02*
X-23300000Y42532760D01*
D22*
X8550000Y-51700000D02*
X-3300000Y-51700000D01*
D16*
X-29414214Y48200000D02*
X-30467500Y47146714D01*
D20*
X-12693934Y46200000D02*
X-12587868Y46200000D01*
D22*
X-34537868Y-22300000D02*
X-33037868Y-23800000D01*
D17*
X-7100000Y-40200000D02*
X14900000Y-40200000D01*
D21*
X30153418Y40328640D02*
X29150000Y41332058D01*
D22*
X8900000Y-52050000D02*
X8550000Y-51700000D01*
D20*
X-3900000Y40700000D02*
X-5100000Y40700000D01*
D21*
X-26763173Y41759916D02*
X-26763173Y38236827D01*
D16*
X-26600000Y47800000D02*
X-23300000Y44500000D01*
D20*
X-12587868Y46200000D02*
X-4700000Y46200000D01*
D21*
X30774740Y33625260D02*
X39900000Y24500000D01*
D22*
X-39650000Y-22300000D02*
X-34537868Y-22300000D01*
X-29650000Y-37150000D02*
X-26400000Y-33900000D01*
D21*
X-25350000Y46550000D02*
X-25350000Y43173089D01*
X27900000Y42860661D02*
X27900000Y43600000D01*
X-41150000Y24500000D02*
X-40050000Y25600000D01*
D22*
X12501471Y50500000D02*
X13500000Y50500000D01*
D21*
X27200000Y47200000D02*
X28300000Y47200000D01*
D16*
X-4100000Y46800000D02*
X-4700000Y46200000D01*
D17*
X-14900000Y-40200000D02*
X-7100000Y-40200000D01*
D21*
X27900000Y43600000D02*
X26500000Y45000000D01*
D22*
X-14600000Y-52600000D02*
X-14600000Y-40500000D01*
D16*
X-4000000Y40600000D02*
X-3900000Y40700000D01*
D21*
X30774740Y40328640D02*
X30774740Y33625260D01*
D16*
X2321148Y40700000D02*
X3321147Y41699999D01*
X-30467500Y47146714D02*
X-30467500Y47100000D01*
X-20955108Y40187868D02*
X-18600000Y40187868D01*
D22*
X-7100000Y-47900000D02*
X-7100000Y-40200000D01*
X10000000Y-53150000D02*
X8900000Y-52050000D01*
D17*
X-26400000Y-21800000D02*
X-26400000Y-30300000D01*
D16*
X-1400000Y50500000D02*
X13500000Y50500000D01*
D20*
X-10600000Y46200000D02*
X-11823287Y46200000D01*
D17*
X-26400000Y-30300000D02*
X-16500000Y-40200000D01*
D21*
X30774740Y40328640D02*
X30153418Y40328640D01*
X29150000Y41332058D02*
X29150000Y41610661D01*
D17*
X17000000Y-38100000D02*
X21300000Y-38100000D01*
D20*
X-18600000Y40293934D02*
X-12693934Y46200000D01*
D22*
X14150000Y-53150000D02*
X10000000Y-53150000D01*
D16*
X13500000Y50500000D02*
X16714214Y50500000D01*
D20*
X-25500000Y29600000D02*
X-18600000Y36500000D01*
D17*
X-26400000Y28700000D02*
X-26400000Y-21800000D01*
X-16500000Y-40200000D02*
X-14900000Y-40200000D01*
D21*
X29150000Y41610661D02*
X27900000Y42860661D01*
X-33300000Y44500000D02*
X-33300000Y44960661D01*
X31700000Y41253900D02*
X30774740Y40328640D01*
X26500000Y45000000D02*
X26500000Y46500000D01*
D17*
X14900000Y-40200000D02*
X17000000Y-38100000D01*
D22*
X-3300000Y-51700000D02*
X-7100000Y-47900000D01*
D21*
X-31160661Y47100000D02*
X-30467500Y47100000D01*
X-33300000Y44960661D02*
X-31160661Y47100000D01*
D16*
X-4100000Y47951470D02*
X-4100000Y46800000D01*
D20*
X-18600000Y36500000D02*
X-18600000Y40187868D01*
X-5100000Y40700000D02*
X-10600000Y46200000D01*
D21*
X-26600000Y47800000D02*
X-25350000Y46550000D01*
D17*
X-25500000Y29600000D02*
X-26400000Y28700000D01*
D22*
X11100000Y52100000D02*
X11100000Y51901471D01*
D16*
X-3424265Y48475735D02*
X-1400000Y50500000D01*
X28300000Y47200000D02*
X29400000Y48300000D01*
D22*
X-33037868Y-23800000D02*
X-28400000Y-23800000D01*
D16*
X-3575735Y48475735D02*
X-4100000Y47951470D01*
X26700000Y23400000D02*
X26700000Y-22400000D01*
X21100000Y29000000D02*
X26700000Y23400000D01*
X34000000Y-33000000D02*
X35800000Y-31200000D01*
X22900000Y-46000000D02*
X34000000Y-34900000D01*
X35800000Y-26685786D02*
X34114214Y-25000000D01*
X29300000Y-25000000D02*
X31900000Y-25000000D01*
X700000Y-47600000D02*
X-1700000Y-50000000D01*
X34114214Y-25000000D02*
X31900000Y-25000000D01*
X11000000Y-47600000D02*
X700000Y-47600000D01*
X34000000Y-34900000D02*
X34000000Y-33000000D01*
X26700000Y-22400000D02*
X29300000Y-25000000D01*
X11000000Y-47600000D02*
X12600000Y-46000000D01*
X35800000Y-31200000D02*
X35800000Y-26685786D01*
X12600000Y-46000000D02*
X22900000Y-46000000D01*
X13900000Y-22900000D02*
X13900000Y-29400000D01*
X10500000Y-19500000D02*
X13900000Y-22900000D01*
X13900000Y-33000000D02*
X13900000Y-29400000D01*
X10500000Y-12600000D02*
X10500000Y-19500000D01*
M02*
