G04 #@! TF.GenerationSoftware,KiCad,Pcbnew,8.0.5*
G04 #@! TF.CreationDate,2024-09-20T17:14:00+03:00*
G04 #@! TF.ProjectId,Microbot,4d696372-6f62-46f7-942e-6b696361645f,rev?*
G04 #@! TF.SameCoordinates,Original*
G04 #@! TF.FileFunction,Profile,NP*
%FSLAX46Y46*%
G04 Gerber Fmt 4.6, Leading zero omitted, Abs format (unit mm)*
G04 Created by KiCad (PCBNEW 8.0.5) date 2024-09-20 17:14:00*
%MOMM*%
%LPD*%
G01*
G04 APERTURE LIST*
G04 #@! TA.AperFunction,Profile*
%ADD10C,0.100000*%
G04 #@! TD*
G04 APERTURE END LIST*
D10*
X32000000Y17000000D02*
X32000000Y-17000001D01*
X41999999Y-19000000D02*
G75*
G02*
X45000000Y-22000001I1J-3000000D01*
G01*
X-32928925Y51071075D02*
G75*
G02*
X-25857870Y54000000I7071047J-7071042D01*
G01*
X-45000000Y34857850D02*
G75*
G02*
X-42071065Y41928935I10000046J-5D01*
G01*
X33999999Y-19000000D02*
X41999999Y-19000000D01*
X-32928925Y51071075D02*
X-42071065Y41928935D01*
X45000000Y34857862D02*
X45000000Y22000001D01*
X42071065Y-31928935D02*
X20928934Y-53071066D01*
X25857862Y54000000D02*
G75*
G02*
X32928933Y51071063I-2J-10000000D01*
G01*
X45000000Y22000001D02*
G75*
G02*
X41999998Y19000000I-3000000J-1D01*
G01*
X42071066Y41928934D02*
G75*
G02*
X45000003Y34857862I-7071066J-7071074D01*
G01*
X0Y54000000D02*
X25857862Y54000000D01*
X0Y54000000D02*
X-25857870Y54000000D01*
X-42000000Y19000000D02*
X-34000000Y19000000D01*
X-42000000Y19000000D02*
G75*
G02*
X-45000000Y22000000I1J3000001D01*
G01*
X-45000000Y-22000000D02*
X-45000000Y-24857864D01*
X-34000000Y19000000D02*
G75*
G02*
X-32000000Y17000000I1J-1999999D01*
G01*
X-13857850Y-56000000D02*
X13857862Y-56000000D01*
X33999999Y-19000000D02*
G75*
G02*
X32000000Y-17000001I1J2000000D01*
G01*
X-34000000Y-19000000D02*
X-42000000Y-19000000D01*
X32928935Y51071065D02*
X42071066Y41928934D01*
X-32000000Y17000000D02*
X-32000000Y-17000000D01*
X45000000Y-24857862D02*
G75*
G02*
X42071063Y-31928933I-10000000J2D01*
G01*
X-42071050Y-31928950D02*
G75*
G02*
X-45000000Y-24857864I7071190J7071144D01*
G01*
X-32000000Y-17000000D02*
G75*
G02*
X-34000000Y-19000000I-1999999J-1D01*
G01*
X32000000Y17000000D02*
G75*
G02*
X33999999Y19000000I2000000J0D01*
G01*
X45000000Y-22000001D02*
X45000000Y-24857862D01*
X-42071050Y-31928950D02*
X-20928935Y-53071065D01*
X41999998Y19000000D02*
X33999999Y19000000D01*
X-13857850Y-56000000D02*
G75*
G02*
X-20928935Y-53071065I5J10000046D01*
G01*
X-45000000Y34857850D02*
X-45000000Y22000000D01*
X20928934Y-53071066D02*
G75*
G02*
X13857862Y-56000003I-7071074J7071066D01*
G01*
X-45000000Y-22000000D02*
G75*
G02*
X-42000000Y-19000000I3000001J-1D01*
G01*
X-9500000Y-34500000D02*
X-9500000Y34500000D01*
X-9000000Y35000000D02*
X9000000Y35000000D01*
X9000000Y-35000000D02*
X-9000000Y-35000000D01*
X9500000Y34500000D02*
X9500000Y-34500000D01*
X-9500000Y34500000D02*
G75*
G02*
X-9000000Y35000000I500001J-1D01*
G01*
X-9000000Y-35000000D02*
G75*
G02*
X-9500000Y-34500000I1J500001D01*
G01*
X9000000Y35000000D02*
G75*
G02*
X9500000Y34500000I0J-500000D01*
G01*
X9500000Y-34500000D02*
G75*
G02*
X9000000Y-35000000I-500000J0D01*
G01*
M02*
