G04 #@! TF.GenerationSoftware,KiCad,Pcbnew,8.0.5*
G04 #@! TF.CreationDate,2024-09-20T17:14:00+03:00*
G04 #@! TF.ProjectId,Microbot,4d696372-6f62-46f7-942e-6b696361645f,rev?*
G04 #@! TF.SameCoordinates,Original*
G04 #@! TF.FileFunction,Copper,L1,Top*
G04 #@! TF.FilePolarity,Positive*
%FSLAX46Y46*%
G04 Gerber Fmt 4.6, Leading zero omitted, Abs format (unit mm)*
G04 Created by KiCad (PCBNEW 8.0.5) date 2024-09-20 17:14:00*
%MOMM*%
%LPD*%
G01*
G04 APERTURE LIST*
G04 Aperture macros list*
%AMRoundRect*
0 Rectangle with rounded corners*
0 $1 Rounding radius*
0 $2 $3 $4 $5 $6 $7 $8 $9 X,Y pos of 4 corners*
0 Add a 4 corners polygon primitive as box body*
4,1,4,$2,$3,$4,$5,$6,$7,$8,$9,$2,$3,0*
0 Add four circle primitives for the rounded corners*
1,1,$1+$1,$2,$3*
1,1,$1+$1,$4,$5*
1,1,$1+$1,$6,$7*
1,1,$1+$1,$8,$9*
0 Add four rect primitives between the rounded corners*
20,1,$1+$1,$2,$3,$4,$5,0*
20,1,$1+$1,$4,$5,$6,$7,0*
20,1,$1+$1,$6,$7,$8,$9,0*
20,1,$1+$1,$8,$9,$2,$3,0*%
%AMRotRect*
0 Rectangle, with rotation*
0 The origin of the aperture is its center*
0 $1 length*
0 $2 width*
0 $3 Rotation angle, in degrees counterclockwise*
0 Add horizontal line*
21,1,$1,$2,0,0,$3*%
%AMOutline4P*
0 Free polygon, 4 corners , with rotation*
0 The origin of the aperture is its center*
0 number of corners: always 4*
0 $1 to $8 corner X, Y*
0 $9 Rotation angle, in degrees counterclockwise*
0 create outline with 4 corners*
4,1,4,$1,$2,$3,$4,$5,$6,$7,$8,$1,$2,$9*%
%AMFreePoly0*
4,1,19,0.550000,-0.750000,0.000000,-0.750000,0.000000,-0.744911,-0.071157,-0.744911,-0.207708,-0.704816,-0.327430,-0.627875,-0.420627,-0.520320,-0.479746,-0.390866,-0.500000,-0.250000,-0.500000,0.250000,-0.479746,0.390866,-0.420627,0.520320,-0.327430,0.627875,-0.207708,0.704816,-0.071157,0.744911,0.000000,0.744911,0.000000,0.750000,0.550000,0.750000,0.550000,-0.750000,0.550000,-0.750000,
$1*%
%AMFreePoly1*
4,1,19,0.000000,0.744911,0.071157,0.744911,0.207708,0.704816,0.327430,0.627875,0.420627,0.520320,0.479746,0.390866,0.500000,0.250000,0.500000,-0.250000,0.479746,-0.390866,0.420627,-0.520320,0.327430,-0.627875,0.207708,-0.704816,0.071157,-0.744911,0.000000,-0.744911,0.000000,-0.750000,-0.550000,-0.750000,-0.550000,0.750000,0.000000,0.750000,0.000000,0.744911,0.000000,0.744911,
$1*%
G04 Aperture macros list end*
G04 #@! TA.AperFunction,EtchedComponent*
%ADD10C,0.010000*%
G04 #@! TD*
G04 #@! TA.AperFunction,SMDPad,CuDef*
%ADD11R,0.810000X0.220000*%
G04 #@! TD*
G04 #@! TA.AperFunction,SMDPad,CuDef*
%ADD12R,0.220000X0.810000*%
G04 #@! TD*
G04 #@! TA.AperFunction,SMDPad,CuDef*
%ADD13R,1.700000X1.700000*%
G04 #@! TD*
G04 #@! TA.AperFunction,SMDPad,CuDef*
%ADD14RoundRect,0.160000X-0.197500X-0.160000X0.197500X-0.160000X0.197500X0.160000X-0.197500X0.160000X0*%
G04 #@! TD*
G04 #@! TA.AperFunction,SMDPad,CuDef*
%ADD15C,1.500000*%
G04 #@! TD*
G04 #@! TA.AperFunction,SMDPad,CuDef*
%ADD16RoundRect,0.155000X-0.212500X-0.155000X0.212500X-0.155000X0.212500X0.155000X-0.212500X0.155000X0*%
G04 #@! TD*
G04 #@! TA.AperFunction,SMDPad,CuDef*
%ADD17RoundRect,0.250000X0.350000X0.450000X-0.350000X0.450000X-0.350000X-0.450000X0.350000X-0.450000X0*%
G04 #@! TD*
G04 #@! TA.AperFunction,SMDPad,CuDef*
%ADD18RoundRect,0.237500X-0.300000X-0.237500X0.300000X-0.237500X0.300000X0.237500X-0.300000X0.237500X0*%
G04 #@! TD*
G04 #@! TA.AperFunction,SMDPad,CuDef*
%ADD19FreePoly0,0.000000*%
G04 #@! TD*
G04 #@! TA.AperFunction,SMDPad,CuDef*
%ADD20R,1.000000X1.500000*%
G04 #@! TD*
G04 #@! TA.AperFunction,SMDPad,CuDef*
%ADD21FreePoly1,0.000000*%
G04 #@! TD*
G04 #@! TA.AperFunction,SMDPad,CuDef*
%ADD22R,0.850000X1.600000*%
G04 #@! TD*
G04 #@! TA.AperFunction,SMDPad,CuDef*
%ADD23RoundRect,0.155000X0.212500X0.155000X-0.212500X0.155000X-0.212500X-0.155000X0.212500X-0.155000X0*%
G04 #@! TD*
G04 #@! TA.AperFunction,SMDPad,CuDef*
%ADD24RoundRect,0.175000X0.175000X1.675000X-0.175000X1.675000X-0.175000X-1.675000X0.175000X-1.675000X0*%
G04 #@! TD*
G04 #@! TA.AperFunction,SMDPad,CuDef*
%ADD25RoundRect,0.250001X0.499999X0.899999X-0.499999X0.899999X-0.499999X-0.899999X0.499999X-0.899999X0*%
G04 #@! TD*
G04 #@! TA.AperFunction,SMDPad,CuDef*
%ADD26RotRect,1.600000X0.850000X135.000000*%
G04 #@! TD*
G04 #@! TA.AperFunction,SMDPad,CuDef*
%ADD27RoundRect,0.150000X-0.150000X0.587500X-0.150000X-0.587500X0.150000X-0.587500X0.150000X0.587500X0*%
G04 #@! TD*
G04 #@! TA.AperFunction,SMDPad,CuDef*
%ADD28RoundRect,0.155000X-0.155000X0.212500X-0.155000X-0.212500X0.155000X-0.212500X0.155000X0.212500X0*%
G04 #@! TD*
G04 #@! TA.AperFunction,ComponentPad*
%ADD29C,1.400000*%
G04 #@! TD*
G04 #@! TA.AperFunction,ComponentPad*
%ADD30O,1.400000X1.400000*%
G04 #@! TD*
G04 #@! TA.AperFunction,SMDPad,CuDef*
%ADD31RoundRect,0.200000X-0.200000X-0.275000X0.200000X-0.275000X0.200000X0.275000X-0.200000X0.275000X0*%
G04 #@! TD*
G04 #@! TA.AperFunction,SMDPad,CuDef*
%ADD32RoundRect,0.075000X-0.350000X-0.075000X0.350000X-0.075000X0.350000X0.075000X-0.350000X0.075000X0*%
G04 #@! TD*
G04 #@! TA.AperFunction,SMDPad,CuDef*
%ADD33RoundRect,0.075000X-0.075000X-0.350000X0.075000X-0.350000X0.075000X0.350000X-0.075000X0.350000X0*%
G04 #@! TD*
G04 #@! TA.AperFunction,HeatsinkPad*
%ADD34R,2.100000X2.100000*%
G04 #@! TD*
G04 #@! TA.AperFunction,SMDPad,CuDef*
%ADD35RoundRect,0.155000X0.155000X-0.212500X0.155000X0.212500X-0.155000X0.212500X-0.155000X-0.212500X0*%
G04 #@! TD*
G04 #@! TA.AperFunction,SMDPad,CuDef*
%ADD36RoundRect,0.250000X1.500000X-0.250000X1.500000X0.250000X-1.500000X0.250000X-1.500000X-0.250000X0*%
G04 #@! TD*
G04 #@! TA.AperFunction,SMDPad,CuDef*
%ADD37RoundRect,0.250001X1.449999X-0.499999X1.449999X0.499999X-1.449999X0.499999X-1.449999X-0.499999X0*%
G04 #@! TD*
G04 #@! TA.AperFunction,SMDPad,CuDef*
%ADD38C,2.000000*%
G04 #@! TD*
G04 #@! TA.AperFunction,ComponentPad*
%ADD39O,7.200000X1.600000*%
G04 #@! TD*
G04 #@! TA.AperFunction,SMDPad,CuDef*
%ADD40RoundRect,0.160000X-0.160000X0.197500X-0.160000X-0.197500X0.160000X-0.197500X0.160000X0.197500X0*%
G04 #@! TD*
G04 #@! TA.AperFunction,SMDPad,CuDef*
%ADD41RoundRect,0.150000X0.150000X-0.512500X0.150000X0.512500X-0.150000X0.512500X-0.150000X-0.512500X0*%
G04 #@! TD*
G04 #@! TA.AperFunction,SMDPad,CuDef*
%ADD42R,1.600000X0.850000*%
G04 #@! TD*
G04 #@! TA.AperFunction,SMDPad,CuDef*
%ADD43FreePoly0,90.000000*%
G04 #@! TD*
G04 #@! TA.AperFunction,SMDPad,CuDef*
%ADD44R,1.500000X1.000000*%
G04 #@! TD*
G04 #@! TA.AperFunction,SMDPad,CuDef*
%ADD45FreePoly1,90.000000*%
G04 #@! TD*
G04 #@! TA.AperFunction,SMDPad,CuDef*
%ADD46RoundRect,0.100000X0.687500X0.100000X-0.687500X0.100000X-0.687500X-0.100000X0.687500X-0.100000X0*%
G04 #@! TD*
G04 #@! TA.AperFunction,HeatsinkPad*
%ADD47R,3.400000X7.800000*%
G04 #@! TD*
G04 #@! TA.AperFunction,SMDPad,CuDef*
%ADD48RoundRect,0.237500X0.300000X0.237500X-0.300000X0.237500X-0.300000X-0.237500X0.300000X-0.237500X0*%
G04 #@! TD*
G04 #@! TA.AperFunction,SMDPad,CuDef*
%ADD49R,3.150000X1.000000*%
G04 #@! TD*
G04 #@! TA.AperFunction,SMDPad,CuDef*
%ADD50RoundRect,0.218750X0.218750X0.256250X-0.218750X0.256250X-0.218750X-0.256250X0.218750X-0.256250X0*%
G04 #@! TD*
G04 #@! TA.AperFunction,ComponentPad*
%ADD51C,1.000000*%
G04 #@! TD*
G04 #@! TA.AperFunction,SMDPad,CuDef*
%ADD52RoundRect,0.218750X-0.218750X-0.256250X0.218750X-0.256250X0.218750X0.256250X-0.218750X0.256250X0*%
G04 #@! TD*
G04 #@! TA.AperFunction,SMDPad,CuDef*
%ADD53RoundRect,0.162500X0.617500X0.162500X-0.617500X0.162500X-0.617500X-0.162500X0.617500X-0.162500X0*%
G04 #@! TD*
G04 #@! TA.AperFunction,SMDPad,CuDef*
%ADD54RoundRect,0.250000X0.625000X-0.400000X0.625000X0.400000X-0.625000X0.400000X-0.625000X-0.400000X0*%
G04 #@! TD*
G04 #@! TA.AperFunction,SMDPad,CuDef*
%ADD55RoundRect,0.250000X-1.500000X0.250000X-1.500000X-0.250000X1.500000X-0.250000X1.500000X0.250000X0*%
G04 #@! TD*
G04 #@! TA.AperFunction,SMDPad,CuDef*
%ADD56RoundRect,0.250001X-1.449999X0.499999X-1.449999X-0.499999X1.449999X-0.499999X1.449999X0.499999X0*%
G04 #@! TD*
G04 #@! TA.AperFunction,SMDPad,CuDef*
%ADD57RoundRect,0.160000X0.197500X0.160000X-0.197500X0.160000X-0.197500X-0.160000X0.197500X-0.160000X0*%
G04 #@! TD*
G04 #@! TA.AperFunction,SMDPad,CuDef*
%ADD58RoundRect,0.100000X-0.687500X-0.100000X0.687500X-0.100000X0.687500X0.100000X-0.687500X0.100000X0*%
G04 #@! TD*
G04 #@! TA.AperFunction,SMDPad,CuDef*
%ADD59RoundRect,0.150000X-0.825000X-0.150000X0.825000X-0.150000X0.825000X0.150000X-0.825000X0.150000X0*%
G04 #@! TD*
G04 #@! TA.AperFunction,SMDPad,CuDef*
%ADD60Outline4P,-1.800000X-1.150000X1.800000X-0.550000X1.800000X0.550000X-1.800000X1.150000X0.000000*%
G04 #@! TD*
G04 #@! TA.AperFunction,SMDPad,CuDef*
%ADD61Outline4P,-1.800000X-1.150000X1.800000X-0.550000X1.800000X0.550000X-1.800000X1.150000X180.000000*%
G04 #@! TD*
G04 #@! TA.AperFunction,SMDPad,CuDef*
%ADD62RoundRect,0.100000X0.100000X-0.675000X0.100000X0.675000X-0.100000X0.675000X-0.100000X-0.675000X0*%
G04 #@! TD*
G04 #@! TA.AperFunction,HeatsinkPad*
%ADD63R,3.000000X3.000000*%
G04 #@! TD*
G04 #@! TA.AperFunction,SMDPad,CuDef*
%ADD64RoundRect,0.250000X-0.350000X-0.450000X0.350000X-0.450000X0.350000X0.450000X-0.350000X0.450000X0*%
G04 #@! TD*
G04 #@! TA.AperFunction,SMDPad,CuDef*
%ADD65RoundRect,0.150000X-0.150000X0.675000X-0.150000X-0.675000X0.150000X-0.675000X0.150000X0.675000X0*%
G04 #@! TD*
G04 #@! TA.AperFunction,SMDPad,CuDef*
%ADD66RoundRect,0.250000X-0.787500X-1.025000X0.787500X-1.025000X0.787500X1.025000X-0.787500X1.025000X0*%
G04 #@! TD*
G04 #@! TA.AperFunction,SMDPad,CuDef*
%ADD67RoundRect,0.180000X-0.420000X-0.420000X0.420000X-0.420000X0.420000X0.420000X-0.420000X0.420000X0*%
G04 #@! TD*
G04 #@! TA.AperFunction,SMDPad,CuDef*
%ADD68RoundRect,0.225000X-0.575000X-0.525000X0.575000X-0.525000X0.575000X0.525000X-0.575000X0.525000X0*%
G04 #@! TD*
G04 #@! TA.AperFunction,SMDPad,CuDef*
%ADD69RotRect,1.600000X0.850000X45.000000*%
G04 #@! TD*
G04 #@! TA.AperFunction,SMDPad,CuDef*
%ADD70RotRect,1.600000X0.850000X225.000000*%
G04 #@! TD*
G04 #@! TA.AperFunction,SMDPad,CuDef*
%ADD71RoundRect,0.155000X0.040659X0.259862X-0.259862X-0.040659X-0.040659X-0.259862X0.259862X0.040659X0*%
G04 #@! TD*
G04 #@! TA.AperFunction,SMDPad,CuDef*
%ADD72RoundRect,0.155000X0.259862X-0.040659X-0.040659X0.259862X-0.259862X0.040659X0.040659X-0.259862X0*%
G04 #@! TD*
G04 #@! TA.AperFunction,SMDPad,CuDef*
%ADD73R,2.700000X3.600000*%
G04 #@! TD*
G04 #@! TA.AperFunction,SMDPad,CuDef*
%ADD74RotRect,1.600000X0.850000X315.000000*%
G04 #@! TD*
G04 #@! TA.AperFunction,SMDPad,CuDef*
%ADD75R,2.900000X5.400000*%
G04 #@! TD*
G04 #@! TA.AperFunction,ComponentPad*
%ADD76C,1.500000*%
G04 #@! TD*
G04 #@! TA.AperFunction,ViaPad*
%ADD77C,0.600000*%
G04 #@! TD*
G04 #@! TA.AperFunction,Conductor*
%ADD78C,0.200000*%
G04 #@! TD*
G04 #@! TA.AperFunction,Conductor*
%ADD79C,0.400000*%
G04 #@! TD*
G04 #@! TA.AperFunction,Conductor*
%ADD80C,0.500000*%
G04 #@! TD*
G04 #@! TA.AperFunction,Conductor*
%ADD81C,0.150000*%
G04 #@! TD*
G04 #@! TA.AperFunction,Conductor*
%ADD82C,0.700000*%
G04 #@! TD*
G04 #@! TA.AperFunction,Conductor*
%ADD83C,1.000000*%
G04 #@! TD*
G04 #@! TA.AperFunction,Conductor*
%ADD84C,0.300000*%
G04 #@! TD*
G04 #@! TA.AperFunction,Conductor*
%ADD85C,2.000000*%
G04 #@! TD*
G04 #@! TA.AperFunction,Conductor*
%ADD86C,1.100000*%
G04 #@! TD*
G04 APERTURE END LIST*
D10*
X-12528900Y-44768100D02*
X-12757500Y-44768100D01*
X-12757500Y-43828300D01*
X-12528900Y-43828300D01*
X-12528900Y-44768100D01*
G04 #@! TA.AperFunction,EtchedComponent*
G36*
X-12528900Y-44768100D02*
G01*
X-12757500Y-44768100D01*
X-12757500Y-43828300D01*
X-12528900Y-43828300D01*
X-12528900Y-44768100D01*
G37*
G04 #@! TD.AperFunction*
X-5658200Y-40653300D02*
X-5975700Y-40653300D01*
X-5975700Y-37986300D01*
X-5658200Y-37986300D01*
X-5658200Y-40653300D01*
G04 #@! TA.AperFunction,EtchedComponent*
G36*
X-5658200Y-40653300D02*
G01*
X-5975700Y-40653300D01*
X-5975700Y-37986300D01*
X-5658200Y-37986300D01*
X-5658200Y-40653300D01*
G37*
G04 #@! TD.AperFunction*
X-12568535Y-43351131D02*
X-12531684Y-43385135D01*
X-12512753Y-43435641D01*
X-12510639Y-43462642D01*
X-12521647Y-43515631D01*
X-12552699Y-43556228D01*
X-12600054Y-43580957D01*
X-12644448Y-43587000D01*
X-12684941Y-43584342D01*
X-12711888Y-43573119D01*
X-12736871Y-43548459D01*
X-12737322Y-43547925D01*
X-12762899Y-43502242D01*
X-12770533Y-43452604D01*
X-12761693Y-43405204D01*
X-12737849Y-43366235D01*
X-12700472Y-43341889D01*
X-12687619Y-43338506D01*
X-12621210Y-43335099D01*
X-12568535Y-43351131D01*
G04 #@! TA.AperFunction,EtchedComponent*
G36*
X-12568535Y-43351131D02*
G01*
X-12531684Y-43385135D01*
X-12512753Y-43435641D01*
X-12510639Y-43462642D01*
X-12521647Y-43515631D01*
X-12552699Y-43556228D01*
X-12600054Y-43580957D01*
X-12644448Y-43587000D01*
X-12684941Y-43584342D01*
X-12711888Y-43573119D01*
X-12736871Y-43548459D01*
X-12737322Y-43547925D01*
X-12762899Y-43502242D01*
X-12770533Y-43452604D01*
X-12761693Y-43405204D01*
X-12737849Y-43366235D01*
X-12700472Y-43341889D01*
X-12687619Y-43338506D01*
X-12621210Y-43335099D01*
X-12568535Y-43351131D01*
G37*
G04 #@! TD.AperFunction*
X24237600Y-42609100D02*
X25094577Y-42609100D01*
X24872600Y-42831350D01*
X24650622Y-43053600D01*
X23809111Y-43053600D01*
X23665473Y-43053458D01*
X23529570Y-43053048D01*
X23403488Y-43052395D01*
X23289316Y-43051522D01*
X23189145Y-43050453D01*
X23105061Y-43049212D01*
X23039155Y-43047824D01*
X22993515Y-43046311D01*
X22970229Y-43044699D01*
X22967600Y-43043934D01*
X22976216Y-43032612D01*
X23000405Y-43006033D01*
X23037675Y-42966797D01*
X23085537Y-42917505D01*
X23141499Y-42860759D01*
X23180461Y-42821684D01*
X23393322Y-42609100D01*
X23805800Y-42609100D01*
X23805800Y-41352414D01*
X23380350Y-41345450D01*
X23810546Y-40907300D01*
X24237600Y-40907300D01*
X24237600Y-42609100D01*
G04 #@! TA.AperFunction,EtchedComponent*
G36*
X24237600Y-42609100D02*
G01*
X25094577Y-42609100D01*
X24872600Y-42831350D01*
X24650622Y-43053600D01*
X23809111Y-43053600D01*
X23665473Y-43053458D01*
X23529570Y-43053048D01*
X23403488Y-43052395D01*
X23289316Y-43051522D01*
X23189145Y-43050453D01*
X23105061Y-43049212D01*
X23039155Y-43047824D01*
X22993515Y-43046311D01*
X22970229Y-43044699D01*
X22967600Y-43043934D01*
X22976216Y-43032612D01*
X23000405Y-43006033D01*
X23037675Y-42966797D01*
X23085537Y-42917505D01*
X23141499Y-42860759D01*
X23180461Y-42821684D01*
X23393322Y-42609100D01*
X23805800Y-42609100D01*
X23805800Y-41352414D01*
X23380350Y-41345450D01*
X23810546Y-40907300D01*
X24237600Y-40907300D01*
X24237600Y-42609100D01*
G37*
G04 #@! TD.AperFunction*
X-11081100Y-44196600D02*
X-11033225Y-44196600D01*
X-11015680Y-44195947D01*
X-11000471Y-44192109D01*
X-10984830Y-44182265D01*
X-10965988Y-44163595D01*
X-10941179Y-44133278D01*
X-10907633Y-44088494D01*
X-10862582Y-44026421D01*
X-10852500Y-44012450D01*
X-10719652Y-43828300D01*
X-10468486Y-43828300D01*
X-10499577Y-43869575D01*
X-10574408Y-43968982D01*
X-10635271Y-44050134D01*
X-10683507Y-44115043D01*
X-10720456Y-44165724D01*
X-10747459Y-44204187D01*
X-10765857Y-44232448D01*
X-10776991Y-44252518D01*
X-10782201Y-44266410D01*
X-10782828Y-44276138D01*
X-10780213Y-44283714D01*
X-10777968Y-44287549D01*
X-10766010Y-44304286D01*
X-10741264Y-44337277D01*
X-10706617Y-44382788D01*
X-10664959Y-44437089D01*
X-10619177Y-44496445D01*
X-10572160Y-44557127D01*
X-10526797Y-44615401D01*
X-10485975Y-44667535D01*
X-10452582Y-44709797D01*
X-10429508Y-44738456D01*
X-10422922Y-44746313D01*
X-10415833Y-44756031D01*
X-10417191Y-44762319D01*
X-10430696Y-44765744D01*
X-10460053Y-44766873D01*
X-10508962Y-44766272D01*
X-10547413Y-44765363D01*
X-10691555Y-44761750D01*
X-10833382Y-44577600D01*
X-10883666Y-44512540D01*
X-10921404Y-44464872D01*
X-10949480Y-44431812D01*
X-10970777Y-44410575D01*
X-10988179Y-44398376D01*
X-11004570Y-44392431D01*
X-11022835Y-44389956D01*
X-11028155Y-44389544D01*
X-11081100Y-44385639D01*
X-11081100Y-44768100D01*
X-11309914Y-44768100D01*
X-11303350Y-43352050D01*
X-11192225Y-43348380D01*
X-11081100Y-43344711D01*
X-11081100Y-44196600D01*
G04 #@! TA.AperFunction,EtchedComponent*
G36*
X-11081100Y-44196600D02*
G01*
X-11033225Y-44196600D01*
X-11015680Y-44195947D01*
X-11000471Y-44192109D01*
X-10984830Y-44182265D01*
X-10965988Y-44163595D01*
X-10941179Y-44133278D01*
X-10907633Y-44088494D01*
X-10862582Y-44026421D01*
X-10852500Y-44012450D01*
X-10719652Y-43828300D01*
X-10468486Y-43828300D01*
X-10499577Y-43869575D01*
X-10574408Y-43968982D01*
X-10635271Y-44050134D01*
X-10683507Y-44115043D01*
X-10720456Y-44165724D01*
X-10747459Y-44204187D01*
X-10765857Y-44232448D01*
X-10776991Y-44252518D01*
X-10782201Y-44266410D01*
X-10782828Y-44276138D01*
X-10780213Y-44283714D01*
X-10777968Y-44287549D01*
X-10766010Y-44304286D01*
X-10741264Y-44337277D01*
X-10706617Y-44382788D01*
X-10664959Y-44437089D01*
X-10619177Y-44496445D01*
X-10572160Y-44557127D01*
X-10526797Y-44615401D01*
X-10485975Y-44667535D01*
X-10452582Y-44709797D01*
X-10429508Y-44738456D01*
X-10422922Y-44746313D01*
X-10415833Y-44756031D01*
X-10417191Y-44762319D01*
X-10430696Y-44765744D01*
X-10460053Y-44766873D01*
X-10508962Y-44766272D01*
X-10547413Y-44765363D01*
X-10691555Y-44761750D01*
X-10833382Y-44577600D01*
X-10883666Y-44512540D01*
X-10921404Y-44464872D01*
X-10949480Y-44431812D01*
X-10970777Y-44410575D01*
X-10988179Y-44398376D01*
X-11004570Y-44392431D01*
X-11022835Y-44389956D01*
X-11028155Y-44389544D01*
X-11081100Y-44385639D01*
X-11081100Y-44768100D01*
X-11309914Y-44768100D01*
X-11303350Y-43352050D01*
X-11192225Y-43348380D01*
X-11081100Y-43344711D01*
X-11081100Y-44196600D01*
G37*
G04 #@! TD.AperFunction*
X23399400Y-40912004D02*
X23180799Y-41131902D01*
X22962199Y-41351800D01*
X21684900Y-41351800D01*
X21684900Y-41758200D01*
X22535800Y-41758200D01*
X22680255Y-41758340D01*
X22816989Y-41758745D01*
X22943925Y-41759392D01*
X23058984Y-41760256D01*
X23160090Y-41761314D01*
X23245165Y-41762543D01*
X23312132Y-41763919D01*
X23358915Y-41765418D01*
X23383435Y-41767017D01*
X23386700Y-41767865D01*
X23378083Y-41779187D01*
X23353894Y-41805766D01*
X23316624Y-41845002D01*
X23268762Y-41894294D01*
X23212800Y-41951040D01*
X23173838Y-41990115D01*
X22960977Y-42202700D01*
X22115505Y-42202700D01*
X21971241Y-42202576D01*
X21834492Y-42202218D01*
X21707368Y-42201647D01*
X21591981Y-42200883D01*
X21490444Y-42199949D01*
X21404867Y-42198865D01*
X21337364Y-42197651D01*
X21290045Y-42196329D01*
X21265023Y-42194919D01*
X21261566Y-42194233D01*
X21259533Y-42179940D01*
X21257676Y-42143291D01*
X21256054Y-42087331D01*
X21254728Y-42015103D01*
X21253759Y-41929650D01*
X21253206Y-41834018D01*
X21253100Y-41767696D01*
X21253100Y-41349625D01*
X21464952Y-41128462D01*
X21676805Y-40907300D01*
X22954900Y-40907300D01*
X22954900Y-40488200D01*
X22110350Y-40488200D01*
X21966447Y-40488062D01*
X21830274Y-40487666D01*
X21703915Y-40487034D01*
X21589456Y-40486189D01*
X21488981Y-40485154D01*
X21404576Y-40483953D01*
X21338325Y-40482609D01*
X21292314Y-40481145D01*
X21268627Y-40479583D01*
X21265800Y-40478815D01*
X21274398Y-40467527D01*
X21298511Y-40441002D01*
X21335611Y-40401883D01*
X21383175Y-40352813D01*
X21438677Y-40296437D01*
X21472030Y-40262915D01*
X21678261Y-40056400D01*
X23399400Y-40056400D01*
X23399400Y-40912004D01*
G04 #@! TA.AperFunction,EtchedComponent*
G36*
X23399400Y-40912004D02*
G01*
X23180799Y-41131902D01*
X22962199Y-41351800D01*
X21684900Y-41351800D01*
X21684900Y-41758200D01*
X22535800Y-41758200D01*
X22680255Y-41758340D01*
X22816989Y-41758745D01*
X22943925Y-41759392D01*
X23058984Y-41760256D01*
X23160090Y-41761314D01*
X23245165Y-41762543D01*
X23312132Y-41763919D01*
X23358915Y-41765418D01*
X23383435Y-41767017D01*
X23386700Y-41767865D01*
X23378083Y-41779187D01*
X23353894Y-41805766D01*
X23316624Y-41845002D01*
X23268762Y-41894294D01*
X23212800Y-41951040D01*
X23173838Y-41990115D01*
X22960977Y-42202700D01*
X22115505Y-42202700D01*
X21971241Y-42202576D01*
X21834492Y-42202218D01*
X21707368Y-42201647D01*
X21591981Y-42200883D01*
X21490444Y-42199949D01*
X21404867Y-42198865D01*
X21337364Y-42197651D01*
X21290045Y-42196329D01*
X21265023Y-42194919D01*
X21261566Y-42194233D01*
X21259533Y-42179940D01*
X21257676Y-42143291D01*
X21256054Y-42087331D01*
X21254728Y-42015103D01*
X21253759Y-41929650D01*
X21253206Y-41834018D01*
X21253100Y-41767696D01*
X21253100Y-41349625D01*
X21464952Y-41128462D01*
X21676805Y-40907300D01*
X22954900Y-40907300D01*
X22954900Y-40488200D01*
X22110350Y-40488200D01*
X21966447Y-40488062D01*
X21830274Y-40487666D01*
X21703915Y-40487034D01*
X21589456Y-40486189D01*
X21488981Y-40485154D01*
X21404576Y-40483953D01*
X21338325Y-40482609D01*
X21292314Y-40481145D01*
X21268627Y-40479583D01*
X21265800Y-40478815D01*
X21274398Y-40467527D01*
X21298511Y-40441002D01*
X21335611Y-40401883D01*
X21383175Y-40352813D01*
X21438677Y-40296437D01*
X21472030Y-40262915D01*
X21678261Y-40056400D01*
X23399400Y-40056400D01*
X23399400Y-40912004D01*
G37*
G04 #@! TD.AperFunction*
X-13669258Y-43447587D02*
X-13590519Y-43448625D01*
X-13528752Y-43450679D01*
X-13479748Y-43454013D01*
X-13439294Y-43458892D01*
X-13403180Y-43465580D01*
X-13376222Y-43471991D01*
X-13304299Y-43492394D01*
X-13250351Y-43513414D01*
X-13207136Y-43538701D01*
X-13167411Y-43571906D01*
X-13156135Y-43582911D01*
X-13110275Y-43638396D01*
X-13079036Y-43700938D01*
X-13060247Y-43776356D01*
X-13052121Y-43861390D01*
X-13055312Y-43976726D01*
X-13076782Y-44075038D01*
X-13117013Y-44157422D01*
X-13176484Y-44224972D01*
X-13228023Y-44262909D01*
X-13290472Y-44301730D01*
X-13248128Y-44360290D01*
X-13224283Y-44393241D01*
X-13189976Y-44440620D01*
X-13149652Y-44496288D01*
X-13107755Y-44554108D01*
X-13104536Y-44558550D01*
X-13065017Y-44613334D01*
X-13029060Y-44663652D01*
X-13000265Y-44704430D01*
X-12982235Y-44730597D01*
X-12980534Y-44733175D01*
X-12957779Y-44768100D01*
X-13102115Y-44767821D01*
X-13246450Y-44767542D01*
X-13382683Y-44561446D01*
X-13518915Y-44355350D01*
X-13665258Y-44359293D01*
X-13811600Y-44363237D01*
X-13811600Y-44768100D01*
X-14065600Y-44768100D01*
X-14065600Y-44133100D01*
X-14065600Y-43675900D01*
X-13811600Y-43675900D01*
X-13811600Y-44133100D01*
X-13674206Y-44133100D01*
X-13579230Y-44129971D01*
X-13503016Y-44120835D01*
X-13468180Y-44112719D01*
X-13394936Y-44080399D01*
X-13340692Y-44033412D01*
X-13307108Y-43973493D01*
X-13297916Y-43934740D01*
X-13296646Y-43854498D01*
X-13315970Y-43787369D01*
X-13354987Y-43734901D01*
X-13412798Y-43698646D01*
X-13440520Y-43689158D01*
X-13471507Y-43684074D01*
X-13521090Y-43679896D01*
X-13582470Y-43677052D01*
X-13648847Y-43675971D01*
X-13649675Y-43675970D01*
X-13811600Y-43675900D01*
X-14065600Y-43675900D01*
X-14065600Y-43447300D01*
X-13769182Y-43447300D01*
X-13669258Y-43447587D01*
G04 #@! TA.AperFunction,EtchedComponent*
G36*
X-13669258Y-43447587D02*
G01*
X-13590519Y-43448625D01*
X-13528752Y-43450679D01*
X-13479748Y-43454013D01*
X-13439294Y-43458892D01*
X-13403180Y-43465580D01*
X-13376222Y-43471991D01*
X-13304299Y-43492394D01*
X-13250351Y-43513414D01*
X-13207136Y-43538701D01*
X-13167411Y-43571906D01*
X-13156135Y-43582911D01*
X-13110275Y-43638396D01*
X-13079036Y-43700938D01*
X-13060247Y-43776356D01*
X-13052121Y-43861390D01*
X-13055312Y-43976726D01*
X-13076782Y-44075038D01*
X-13117013Y-44157422D01*
X-13176484Y-44224972D01*
X-13228023Y-44262909D01*
X-13290472Y-44301730D01*
X-13248128Y-44360290D01*
X-13224283Y-44393241D01*
X-13189976Y-44440620D01*
X-13149652Y-44496288D01*
X-13107755Y-44554108D01*
X-13104536Y-44558550D01*
X-13065017Y-44613334D01*
X-13029060Y-44663652D01*
X-13000265Y-44704430D01*
X-12982235Y-44730597D01*
X-12980534Y-44733175D01*
X-12957779Y-44768100D01*
X-13102115Y-44767821D01*
X-13246450Y-44767542D01*
X-13382683Y-44561446D01*
X-13518915Y-44355350D01*
X-13665258Y-44359293D01*
X-13811600Y-44363237D01*
X-13811600Y-44768100D01*
X-14065600Y-44768100D01*
X-14065600Y-44133100D01*
X-14065600Y-43675900D01*
X-13811600Y-43675900D01*
X-13811600Y-44133100D01*
X-13674206Y-44133100D01*
X-13579230Y-44129971D01*
X-13503016Y-44120835D01*
X-13468180Y-44112719D01*
X-13394936Y-44080399D01*
X-13340692Y-44033412D01*
X-13307108Y-43973493D01*
X-13297916Y-43934740D01*
X-13296646Y-43854498D01*
X-13315970Y-43787369D01*
X-13354987Y-43734901D01*
X-13412798Y-43698646D01*
X-13440520Y-43689158D01*
X-13471507Y-43684074D01*
X-13521090Y-43679896D01*
X-13582470Y-43677052D01*
X-13648847Y-43675971D01*
X-13649675Y-43675970D01*
X-13811600Y-43675900D01*
X-14065600Y-43675900D01*
X-14065600Y-43447300D01*
X-13769182Y-43447300D01*
X-13669258Y-43447587D01*
G37*
G04 #@! TD.AperFunction*
X-11740339Y-43809718D02*
X-11694157Y-43811850D01*
X-11659536Y-43816847D01*
X-11629562Y-43825895D01*
X-11597316Y-43840179D01*
X-11582750Y-43847365D01*
X-11506550Y-43885450D01*
X-11502946Y-44021975D01*
X-11502157Y-44077401D01*
X-11502805Y-44122007D01*
X-11504731Y-44150614D01*
X-11507123Y-44158500D01*
X-11519490Y-44150201D01*
X-11543912Y-44128597D01*
X-11570763Y-44102642D01*
X-11638624Y-44049888D01*
X-11716924Y-44018260D01*
X-11808942Y-44006509D01*
X-11823138Y-44006378D01*
X-11910026Y-44015948D01*
X-11979495Y-44043985D01*
X-12031600Y-44090525D01*
X-12066001Y-44154484D01*
X-12076955Y-44203325D01*
X-12082543Y-44266929D01*
X-12082612Y-44335200D01*
X-12077010Y-44398041D01*
X-12070197Y-44431401D01*
X-12041689Y-44490375D01*
X-11995165Y-44536328D01*
X-11934735Y-44568708D01*
X-11864509Y-44586964D01*
X-11788600Y-44590546D01*
X-11711119Y-44578902D01*
X-11636176Y-44551481D01*
X-11567882Y-44507732D01*
X-11558727Y-44499958D01*
X-11499245Y-44447599D01*
X-11502898Y-44572761D01*
X-11506550Y-44697923D01*
X-11594996Y-44741111D01*
X-11645739Y-44764032D01*
X-11689118Y-44777778D01*
X-11736407Y-44785052D01*
X-11791846Y-44788306D01*
X-11850345Y-44788770D01*
X-11906817Y-44786362D01*
X-11950642Y-44781590D01*
X-11956825Y-44780425D01*
X-12012103Y-44764143D01*
X-12072094Y-44739223D01*
X-12127163Y-44710218D01*
X-12167672Y-44681678D01*
X-12169617Y-44679905D01*
X-12233467Y-44603775D01*
X-12280303Y-44512994D01*
X-12309626Y-44412207D01*
X-12320938Y-44306062D01*
X-12313739Y-44199206D01*
X-12287529Y-44096286D01*
X-12242372Y-44002847D01*
X-12186876Y-43931609D01*
X-12119205Y-43877675D01*
X-12037021Y-43840010D01*
X-11937986Y-43817579D01*
X-11819762Y-43809348D01*
X-11805000Y-43809265D01*
X-11740339Y-43809718D01*
G04 #@! TA.AperFunction,EtchedComponent*
G36*
X-11740339Y-43809718D02*
G01*
X-11694157Y-43811850D01*
X-11659536Y-43816847D01*
X-11629562Y-43825895D01*
X-11597316Y-43840179D01*
X-11582750Y-43847365D01*
X-11506550Y-43885450D01*
X-11502946Y-44021975D01*
X-11502157Y-44077401D01*
X-11502805Y-44122007D01*
X-11504731Y-44150614D01*
X-11507123Y-44158500D01*
X-11519490Y-44150201D01*
X-11543912Y-44128597D01*
X-11570763Y-44102642D01*
X-11638624Y-44049888D01*
X-11716924Y-44018260D01*
X-11808942Y-44006509D01*
X-11823138Y-44006378D01*
X-11910026Y-44015948D01*
X-11979495Y-44043985D01*
X-12031600Y-44090525D01*
X-12066001Y-44154484D01*
X-12076955Y-44203325D01*
X-12082543Y-44266929D01*
X-12082612Y-44335200D01*
X-12077010Y-44398041D01*
X-12070197Y-44431401D01*
X-12041689Y-44490375D01*
X-11995165Y-44536328D01*
X-11934735Y-44568708D01*
X-11864509Y-44586964D01*
X-11788600Y-44590546D01*
X-11711119Y-44578902D01*
X-11636176Y-44551481D01*
X-11567882Y-44507732D01*
X-11558727Y-44499958D01*
X-11499245Y-44447599D01*
X-11502898Y-44572761D01*
X-11506550Y-44697923D01*
X-11594996Y-44741111D01*
X-11645739Y-44764032D01*
X-11689118Y-44777778D01*
X-11736407Y-44785052D01*
X-11791846Y-44788306D01*
X-11850345Y-44788770D01*
X-11906817Y-44786362D01*
X-11950642Y-44781590D01*
X-11956825Y-44780425D01*
X-12012103Y-44764143D01*
X-12072094Y-44739223D01*
X-12127163Y-44710218D01*
X-12167672Y-44681678D01*
X-12169617Y-44679905D01*
X-12233467Y-44603775D01*
X-12280303Y-44512994D01*
X-12309626Y-44412207D01*
X-12320938Y-44306062D01*
X-12313739Y-44199206D01*
X-12287529Y-44096286D01*
X-12242372Y-44002847D01*
X-12186876Y-43931609D01*
X-12119205Y-43877675D01*
X-12037021Y-43840010D01*
X-11937986Y-43817579D01*
X-11819762Y-43809348D01*
X-11805000Y-43809265D01*
X-11740339Y-43809718D01*
G37*
G04 #@! TD.AperFunction*
X-9431497Y-43863225D02*
X-9438678Y-43882517D01*
X-9453528Y-43922943D01*
X-9475049Y-43981762D01*
X-9502239Y-44056235D01*
X-9534099Y-44143620D01*
X-9569627Y-44241176D01*
X-9607824Y-44346165D01*
X-9622708Y-44387100D01*
X-9674265Y-44528886D01*
X-9718047Y-44648850D01*
X-9754987Y-44749032D01*
X-9786018Y-44831469D01*
X-9812071Y-44898200D01*
X-9834080Y-44951265D01*
X-9852978Y-44992702D01*
X-9869697Y-45024550D01*
X-9885169Y-45048848D01*
X-9900328Y-45067634D01*
X-9916106Y-45082948D01*
X-9933436Y-45096829D01*
X-9953250Y-45111314D01*
X-9954375Y-45112129D01*
X-9986754Y-45132965D01*
X-10017265Y-45144070D01*
X-10056276Y-45148249D01*
X-10089231Y-45148591D01*
X-10144434Y-45145073D01*
X-10189688Y-45136259D01*
X-10207975Y-45129135D01*
X-10224973Y-45118649D01*
X-10235311Y-45105858D01*
X-10240643Y-45084786D01*
X-10242621Y-45049457D01*
X-10242900Y-45002848D01*
X-10242900Y-44895507D01*
X-10191978Y-44922049D01*
X-10141008Y-44940804D01*
X-10107494Y-44940168D01*
X-10066588Y-44918906D01*
X-10028206Y-44880186D01*
X-9999212Y-44831576D01*
X-9992433Y-44813245D01*
X-9989199Y-44800688D01*
X-9987949Y-44787148D01*
X-9989530Y-44770256D01*
X-9994787Y-44747642D01*
X-10004565Y-44716938D01*
X-10019709Y-44675774D01*
X-10041067Y-44621782D01*
X-10069482Y-44552593D01*
X-10105801Y-44465839D01*
X-10150869Y-44359149D01*
X-10174024Y-44304488D01*
X-10217053Y-44202770D01*
X-10256814Y-44108429D01*
X-10292245Y-44024006D01*
X-10322286Y-43952045D01*
X-10345879Y-43895085D01*
X-10361962Y-43855669D01*
X-10369476Y-43836338D01*
X-10369900Y-43834845D01*
X-10358103Y-43832070D01*
X-10326275Y-43830500D01*
X-10279766Y-43830293D01*
X-10241881Y-43831030D01*
X-10113861Y-43834650D01*
X-9992114Y-44136275D01*
X-9958914Y-44217823D01*
X-9928589Y-44290976D01*
X-9902475Y-44352616D01*
X-9881909Y-44399624D01*
X-9868230Y-44428881D01*
X-9862959Y-44437468D01*
X-9857171Y-44425792D01*
X-9844759Y-44393162D01*
X-9826852Y-44342813D01*
X-9804582Y-44277977D01*
X-9779080Y-44201887D01*
X-9756323Y-44132668D01*
X-9657096Y-43828300D01*
X-9418029Y-43828300D01*
X-9431497Y-43863225D01*
G04 #@! TA.AperFunction,EtchedComponent*
G36*
X-9431497Y-43863225D02*
G01*
X-9438678Y-43882517D01*
X-9453528Y-43922943D01*
X-9475049Y-43981762D01*
X-9502239Y-44056235D01*
X-9534099Y-44143620D01*
X-9569627Y-44241176D01*
X-9607824Y-44346165D01*
X-9622708Y-44387100D01*
X-9674265Y-44528886D01*
X-9718047Y-44648850D01*
X-9754987Y-44749032D01*
X-9786018Y-44831469D01*
X-9812071Y-44898200D01*
X-9834080Y-44951265D01*
X-9852978Y-44992702D01*
X-9869697Y-45024550D01*
X-9885169Y-45048848D01*
X-9900328Y-45067634D01*
X-9916106Y-45082948D01*
X-9933436Y-45096829D01*
X-9953250Y-45111314D01*
X-9954375Y-45112129D01*
X-9986754Y-45132965D01*
X-10017265Y-45144070D01*
X-10056276Y-45148249D01*
X-10089231Y-45148591D01*
X-10144434Y-45145073D01*
X-10189688Y-45136259D01*
X-10207975Y-45129135D01*
X-10224973Y-45118649D01*
X-10235311Y-45105858D01*
X-10240643Y-45084786D01*
X-10242621Y-45049457D01*
X-10242900Y-45002848D01*
X-10242900Y-44895507D01*
X-10191978Y-44922049D01*
X-10141008Y-44940804D01*
X-10107494Y-44940168D01*
X-10066588Y-44918906D01*
X-10028206Y-44880186D01*
X-9999212Y-44831576D01*
X-9992433Y-44813245D01*
X-9989199Y-44800688D01*
X-9987949Y-44787148D01*
X-9989530Y-44770256D01*
X-9994787Y-44747642D01*
X-10004565Y-44716938D01*
X-10019709Y-44675774D01*
X-10041067Y-44621782D01*
X-10069482Y-44552593D01*
X-10105801Y-44465839D01*
X-10150869Y-44359149D01*
X-10174024Y-44304488D01*
X-10217053Y-44202770D01*
X-10256814Y-44108429D01*
X-10292245Y-44024006D01*
X-10322286Y-43952045D01*
X-10345879Y-43895085D01*
X-10361962Y-43855669D01*
X-10369476Y-43836338D01*
X-10369900Y-43834845D01*
X-10358103Y-43832070D01*
X-10326275Y-43830500D01*
X-10279766Y-43830293D01*
X-10241881Y-43831030D01*
X-10113861Y-43834650D01*
X-9992114Y-44136275D01*
X-9958914Y-44217823D01*
X-9928589Y-44290976D01*
X-9902475Y-44352616D01*
X-9881909Y-44399624D01*
X-9868230Y-44428881D01*
X-9862959Y-44437468D01*
X-9857171Y-44425792D01*
X-9844759Y-44393162D01*
X-9826852Y-44342813D01*
X-9804582Y-44277977D01*
X-9779080Y-44201887D01*
X-9756323Y-44132668D01*
X-9657096Y-43828300D01*
X-9418029Y-43828300D01*
X-9431497Y-43863225D01*
G37*
G04 #@! TD.AperFunction*
X14770568Y-39294524D02*
X14892095Y-39294588D01*
X14990966Y-39294814D01*
X15069925Y-39295354D01*
X15131717Y-39296363D01*
X15179085Y-39297994D01*
X15214774Y-39300400D01*
X15241528Y-39303737D01*
X15262091Y-39308156D01*
X15279206Y-39313813D01*
X15295619Y-39320861D01*
X15303150Y-39324360D01*
X15350818Y-39352087D01*
X15398859Y-39388304D01*
X15417450Y-39405443D01*
X15433867Y-39426655D01*
X15460769Y-39466886D01*
X15496452Y-39523209D01*
X15539214Y-39592699D01*
X15587350Y-39672427D01*
X15639157Y-39759469D01*
X15692931Y-39850897D01*
X15746970Y-39943784D01*
X15799569Y-40035204D01*
X15849026Y-40122230D01*
X15893637Y-40201935D01*
X15931698Y-40271394D01*
X15961506Y-40327679D01*
X15981358Y-40367864D01*
X15989337Y-40387987D01*
X15989041Y-40419842D01*
X15969800Y-40452807D01*
X15965591Y-40457837D01*
X15934025Y-40494550D01*
X15466764Y-40498326D01*
X15324492Y-40499855D01*
X15206619Y-40501942D01*
X15113344Y-40504579D01*
X15044865Y-40507760D01*
X15001382Y-40511477D01*
X14983092Y-40515723D01*
X14983051Y-40515756D01*
X14970026Y-40538433D01*
X14966600Y-40559771D01*
X14972846Y-40576139D01*
X14990827Y-40612351D01*
X15019404Y-40666355D01*
X15057441Y-40736100D01*
X15103798Y-40819532D01*
X15157339Y-40914599D01*
X15216925Y-41019249D01*
X15281420Y-41131429D01*
X15330099Y-41215441D01*
X15414044Y-41359563D01*
X15486566Y-41483244D01*
X15548806Y-41588119D01*
X15601907Y-41675820D01*
X15647008Y-41747981D01*
X15685252Y-41806237D01*
X15717781Y-41852221D01*
X15745735Y-41887566D01*
X15770257Y-41913907D01*
X15792489Y-41932876D01*
X15813570Y-41946109D01*
X15834644Y-41955238D01*
X15850487Y-41960197D01*
X15879320Y-41964628D01*
X15929147Y-41968422D01*
X15995565Y-41971385D01*
X16074173Y-41973319D01*
X16160568Y-41974029D01*
X16161081Y-41974029D01*
X16249151Y-41974162D01*
X16315900Y-41974780D01*
X16365406Y-41976289D01*
X16401748Y-41979097D01*
X16429003Y-41983609D01*
X16451251Y-41990233D01*
X16472570Y-41999376D01*
X16487285Y-42006576D01*
X16521184Y-42025295D01*
X16551922Y-42047245D01*
X16581697Y-42075250D01*
X16612707Y-42112136D01*
X16647150Y-42160727D01*
X16687222Y-42223850D01*
X16735124Y-42304328D01*
X16781480Y-42384716D01*
X16835038Y-42479657D01*
X16875975Y-42555737D01*
X16905199Y-42615587D01*
X16923622Y-42661842D01*
X16932152Y-42697134D01*
X16931700Y-42724096D01*
X16923175Y-42745363D01*
X16911174Y-42760025D01*
X16901360Y-42768745D01*
X16889403Y-42775343D01*
X16871894Y-42780114D01*
X16845426Y-42783355D01*
X16806589Y-42785358D01*
X16751977Y-42786420D01*
X16678181Y-42786835D01*
X16600578Y-42786900D01*
X16316856Y-42786900D01*
X16239421Y-42748205D01*
X16157487Y-42695847D01*
X16094132Y-42628458D01*
X16057152Y-42567471D01*
X16031645Y-42519373D01*
X15998624Y-42460282D01*
X15960716Y-42394568D01*
X15920552Y-42326603D01*
X15880760Y-42260758D01*
X15843969Y-42201404D01*
X15812810Y-42152912D01*
X15789909Y-42119653D01*
X15781409Y-42109023D01*
X15746982Y-42079445D01*
X15705071Y-42053032D01*
X15696850Y-42048977D01*
X15683991Y-42043657D01*
X15668884Y-42039200D01*
X15649296Y-42035528D01*
X15622995Y-42032566D01*
X15587747Y-42030236D01*
X15541321Y-42028460D01*
X15481483Y-42027162D01*
X15406001Y-42026265D01*
X15312642Y-42025692D01*
X15199175Y-42025366D01*
X15063365Y-42025209D01*
X15007040Y-42025178D01*
X14842615Y-42025376D01*
X14700650Y-42026114D01*
X14581624Y-42027385D01*
X14486015Y-42029178D01*
X14414305Y-42031485D01*
X14366972Y-42034297D01*
X14344495Y-42037603D01*
X14343465Y-42038046D01*
X14323488Y-42061315D01*
X14318900Y-42083313D01*
X14325212Y-42102493D01*
X14343265Y-42140967D01*
X14371735Y-42196249D01*
X14409295Y-42265854D01*
X14454620Y-42347293D01*
X14506384Y-42438081D01*
X14526815Y-42473391D01*
X14601208Y-42601723D01*
X14663644Y-42710088D01*
X14715119Y-42800369D01*
X14756627Y-42874447D01*
X14789165Y-42934207D01*
X14813728Y-42981529D01*
X14831312Y-43018296D01*
X14842912Y-43046391D01*
X14849523Y-43067696D01*
X14852142Y-43084094D01*
X14852300Y-43088848D01*
X14851841Y-43108144D01*
X14848957Y-43124013D01*
X14841385Y-43136790D01*
X14826865Y-43146811D01*
X14803133Y-43154409D01*
X14767928Y-43159920D01*
X14718988Y-43163680D01*
X14654050Y-43166022D01*
X14570854Y-43167283D01*
X14467136Y-43167797D01*
X14340636Y-43167899D01*
X14318567Y-43167900D01*
X13841287Y-43167900D01*
X13777757Y-43136241D01*
X13734765Y-43111336D01*
X13696213Y-43083257D01*
X13681371Y-43069566D01*
X13666452Y-43049506D01*
X13641017Y-43010632D01*
X13606719Y-42955783D01*
X13565214Y-42887798D01*
X13518158Y-42809516D01*
X13467204Y-42723776D01*
X13414009Y-42633416D01*
X13360227Y-42541276D01*
X13307512Y-42450194D01*
X13257522Y-42363008D01*
X13211909Y-42282559D01*
X13172329Y-42211684D01*
X13140438Y-42153223D01*
X13117890Y-42110014D01*
X13106341Y-42084896D01*
X13105291Y-42081430D01*
X13105949Y-42043014D01*
X13125029Y-42008824D01*
X13152343Y-41974100D01*
X13605446Y-41973912D01*
X13733847Y-41973731D01*
X13839113Y-41973107D01*
X13923507Y-41971744D01*
X13989296Y-41969346D01*
X14038742Y-41965620D01*
X14074110Y-41960268D01*
X14097665Y-41952995D01*
X14111671Y-41943507D01*
X14118392Y-41931506D01*
X14120093Y-41916699D01*
X14119678Y-41906806D01*
X14113075Y-41890299D01*
X14095007Y-41854272D01*
X14066844Y-41801123D01*
X14029953Y-41733252D01*
X13985704Y-41653057D01*
X13935465Y-41562939D01*
X13880605Y-41465295D01*
X13822493Y-41362525D01*
X13762497Y-41257028D01*
X13701986Y-41151204D01*
X13642328Y-41047451D01*
X13584893Y-40948168D01*
X13531049Y-40855754D01*
X13482164Y-40772609D01*
X13439608Y-40701131D01*
X13404750Y-40643720D01*
X13378957Y-40602775D01*
X13363598Y-40580695D01*
X13362196Y-40579068D01*
X13340937Y-40557437D01*
X13319703Y-40540593D01*
X13295004Y-40527843D01*
X13263347Y-40518496D01*
X13221243Y-40511858D01*
X13165201Y-40507238D01*
X13091729Y-40503942D01*
X12997338Y-40501278D01*
X12966350Y-40500543D01*
X12872576Y-40498272D01*
X12800447Y-40496089D01*
X12746210Y-40493571D01*
X12706113Y-40490293D01*
X12676407Y-40485834D01*
X12653338Y-40479770D01*
X12633157Y-40471676D01*
X12612111Y-40461131D01*
X12610750Y-40460417D01*
X12567272Y-40434085D01*
X12527504Y-40404291D01*
X12511843Y-40389762D01*
X12492167Y-40364464D01*
X12463883Y-40321968D01*
X12429051Y-40265948D01*
X12389733Y-40200081D01*
X12347991Y-40128041D01*
X12305885Y-40053506D01*
X12265479Y-39980149D01*
X12228833Y-39911647D01*
X12198008Y-39851676D01*
X12175066Y-39803911D01*
X12162069Y-39772028D01*
X12159900Y-39762239D01*
X12168842Y-39725901D01*
X12185300Y-39700800D01*
X12194956Y-39692528D01*
X12207441Y-39686275D01*
X12226153Y-39681763D01*
X12254488Y-39678712D01*
X12295842Y-39676844D01*
X12353614Y-39675880D01*
X12431199Y-39675541D01*
X12493275Y-39675524D01*
X12585631Y-39675683D01*
X12656458Y-39676295D01*
X12709628Y-39677696D01*
X12749011Y-39680225D01*
X12778478Y-39684219D01*
X12801901Y-39690016D01*
X12823150Y-39697953D01*
X12840647Y-39705819D01*
X12887279Y-39732038D01*
X12931945Y-39764265D01*
X12948996Y-39779543D01*
X12968055Y-39803463D01*
X12996739Y-39845740D01*
X13032559Y-39902402D01*
X13073030Y-39969480D01*
X13115664Y-40043003D01*
X13130860Y-40069922D01*
X13188355Y-40170596D01*
X13236982Y-40250801D01*
X13278786Y-40313005D01*
X13315811Y-40359674D01*
X13350102Y-40393277D01*
X13383703Y-40416280D01*
X13418658Y-40431152D01*
X13433691Y-40435431D01*
X13460958Y-40439378D01*
X13509282Y-40442682D01*
X13579378Y-40445359D01*
X13671958Y-40447423D01*
X13787736Y-40448890D01*
X13927425Y-40449777D01*
X14091738Y-40450098D01*
X14105797Y-40450100D01*
X14248096Y-40450027D01*
X14367167Y-40449764D01*
X14465183Y-40449239D01*
X14544315Y-40448384D01*
X14606735Y-40447129D01*
X14654616Y-40445404D01*
X14690130Y-40443138D01*
X14715449Y-40440264D01*
X14732744Y-40436709D01*
X14744188Y-40432406D01*
X14749140Y-40429443D01*
X14770499Y-40406873D01*
X14772201Y-40376898D01*
X14771467Y-40372962D01*
X14763767Y-40354503D01*
X14744822Y-40316733D01*
X14716118Y-40262319D01*
X14679139Y-40193932D01*
X14635371Y-40114238D01*
X14586299Y-40025906D01*
X14533408Y-39931605D01*
X14478183Y-39834003D01*
X14422109Y-39735769D01*
X14366671Y-39639570D01*
X14313355Y-39548076D01*
X14294995Y-39516851D01*
X14261006Y-39451757D01*
X14245144Y-39400760D01*
X14247021Y-39360568D01*
X14266251Y-39327889D01*
X14272093Y-39322013D01*
X14280239Y-39314865D01*
X14289628Y-39309071D01*
X14302825Y-39304491D01*
X14322398Y-39300983D01*
X14350912Y-39298404D01*
X14390934Y-39296615D01*
X14445029Y-39295472D01*
X14515765Y-39294835D01*
X14605708Y-39294563D01*
X14717423Y-39294513D01*
X14770568Y-39294524D01*
G04 #@! TA.AperFunction,EtchedComponent*
G36*
X14770568Y-39294524D02*
G01*
X14892095Y-39294588D01*
X14990966Y-39294814D01*
X15069925Y-39295354D01*
X15131717Y-39296363D01*
X15179085Y-39297994D01*
X15214774Y-39300400D01*
X15241528Y-39303737D01*
X15262091Y-39308156D01*
X15279206Y-39313813D01*
X15295619Y-39320861D01*
X15303150Y-39324360D01*
X15350818Y-39352087D01*
X15398859Y-39388304D01*
X15417450Y-39405443D01*
X15433867Y-39426655D01*
X15460769Y-39466886D01*
X15496452Y-39523209D01*
X15539214Y-39592699D01*
X15587350Y-39672427D01*
X15639157Y-39759469D01*
X15692931Y-39850897D01*
X15746970Y-39943784D01*
X15799569Y-40035204D01*
X15849026Y-40122230D01*
X15893637Y-40201935D01*
X15931698Y-40271394D01*
X15961506Y-40327679D01*
X15981358Y-40367864D01*
X15989337Y-40387987D01*
X15989041Y-40419842D01*
X15969800Y-40452807D01*
X15965591Y-40457837D01*
X15934025Y-40494550D01*
X15466764Y-40498326D01*
X15324492Y-40499855D01*
X15206619Y-40501942D01*
X15113344Y-40504579D01*
X15044865Y-40507760D01*
X15001382Y-40511477D01*
X14983092Y-40515723D01*
X14983051Y-40515756D01*
X14970026Y-40538433D01*
X14966600Y-40559771D01*
X14972846Y-40576139D01*
X14990827Y-40612351D01*
X15019404Y-40666355D01*
X15057441Y-40736100D01*
X15103798Y-40819532D01*
X15157339Y-40914599D01*
X15216925Y-41019249D01*
X15281420Y-41131429D01*
X15330099Y-41215441D01*
X15414044Y-41359563D01*
X15486566Y-41483244D01*
X15548806Y-41588119D01*
X15601907Y-41675820D01*
X15647008Y-41747981D01*
X15685252Y-41806237D01*
X15717781Y-41852221D01*
X15745735Y-41887566D01*
X15770257Y-41913907D01*
X15792489Y-41932876D01*
X15813570Y-41946109D01*
X15834644Y-41955238D01*
X15850487Y-41960197D01*
X15879320Y-41964628D01*
X15929147Y-41968422D01*
X15995565Y-41971385D01*
X16074173Y-41973319D01*
X16160568Y-41974029D01*
X16161081Y-41974029D01*
X16249151Y-41974162D01*
X16315900Y-41974780D01*
X16365406Y-41976289D01*
X16401748Y-41979097D01*
X16429003Y-41983609D01*
X16451251Y-41990233D01*
X16472570Y-41999376D01*
X16487285Y-42006576D01*
X16521184Y-42025295D01*
X16551922Y-42047245D01*
X16581697Y-42075250D01*
X16612707Y-42112136D01*
X16647150Y-42160727D01*
X16687222Y-42223850D01*
X16735124Y-42304328D01*
X16781480Y-42384716D01*
X16835038Y-42479657D01*
X16875975Y-42555737D01*
X16905199Y-42615587D01*
X16923622Y-42661842D01*
X16932152Y-42697134D01*
X16931700Y-42724096D01*
X16923175Y-42745363D01*
X16911174Y-42760025D01*
X16901360Y-42768745D01*
X16889403Y-42775343D01*
X16871894Y-42780114D01*
X16845426Y-42783355D01*
X16806589Y-42785358D01*
X16751977Y-42786420D01*
X16678181Y-42786835D01*
X16600578Y-42786900D01*
X16316856Y-42786900D01*
X16239421Y-42748205D01*
X16157487Y-42695847D01*
X16094132Y-42628458D01*
X16057152Y-42567471D01*
X16031645Y-42519373D01*
X15998624Y-42460282D01*
X15960716Y-42394568D01*
X15920552Y-42326603D01*
X15880760Y-42260758D01*
X15843969Y-42201404D01*
X15812810Y-42152912D01*
X15789909Y-42119653D01*
X15781409Y-42109023D01*
X15746982Y-42079445D01*
X15705071Y-42053032D01*
X15696850Y-42048977D01*
X15683991Y-42043657D01*
X15668884Y-42039200D01*
X15649296Y-42035528D01*
X15622995Y-42032566D01*
X15587747Y-42030236D01*
X15541321Y-42028460D01*
X15481483Y-42027162D01*
X15406001Y-42026265D01*
X15312642Y-42025692D01*
X15199175Y-42025366D01*
X15063365Y-42025209D01*
X15007040Y-42025178D01*
X14842615Y-42025376D01*
X14700650Y-42026114D01*
X14581624Y-42027385D01*
X14486015Y-42029178D01*
X14414305Y-42031485D01*
X14366972Y-42034297D01*
X14344495Y-42037603D01*
X14343465Y-42038046D01*
X14323488Y-42061315D01*
X14318900Y-42083313D01*
X14325212Y-42102493D01*
X14343265Y-42140967D01*
X14371735Y-42196249D01*
X14409295Y-42265854D01*
X14454620Y-42347293D01*
X14506384Y-42438081D01*
X14526815Y-42473391D01*
X14601208Y-42601723D01*
X14663644Y-42710088D01*
X14715119Y-42800369D01*
X14756627Y-42874447D01*
X14789165Y-42934207D01*
X14813728Y-42981529D01*
X14831312Y-43018296D01*
X14842912Y-43046391D01*
X14849523Y-43067696D01*
X14852142Y-43084094D01*
X14852300Y-43088848D01*
X14851841Y-43108144D01*
X14848957Y-43124013D01*
X14841385Y-43136790D01*
X14826865Y-43146811D01*
X14803133Y-43154409D01*
X14767928Y-43159920D01*
X14718988Y-43163680D01*
X14654050Y-43166022D01*
X14570854Y-43167283D01*
X14467136Y-43167797D01*
X14340636Y-43167899D01*
X14318567Y-43167900D01*
X13841287Y-43167900D01*
X13777757Y-43136241D01*
X13734765Y-43111336D01*
X13696213Y-43083257D01*
X13681371Y-43069566D01*
X13666452Y-43049506D01*
X13641017Y-43010632D01*
X13606719Y-42955783D01*
X13565214Y-42887798D01*
X13518158Y-42809516D01*
X13467204Y-42723776D01*
X13414009Y-42633416D01*
X13360227Y-42541276D01*
X13307512Y-42450194D01*
X13257522Y-42363008D01*
X13211909Y-42282559D01*
X13172329Y-42211684D01*
X13140438Y-42153223D01*
X13117890Y-42110014D01*
X13106341Y-42084896D01*
X13105291Y-42081430D01*
X13105949Y-42043014D01*
X13125029Y-42008824D01*
X13152343Y-41974100D01*
X13605446Y-41973912D01*
X13733847Y-41973731D01*
X13839113Y-41973107D01*
X13923507Y-41971744D01*
X13989296Y-41969346D01*
X14038742Y-41965620D01*
X14074110Y-41960268D01*
X14097665Y-41952995D01*
X14111671Y-41943507D01*
X14118392Y-41931506D01*
X14120093Y-41916699D01*
X14119678Y-41906806D01*
X14113075Y-41890299D01*
X14095007Y-41854272D01*
X14066844Y-41801123D01*
X14029953Y-41733252D01*
X13985704Y-41653057D01*
X13935465Y-41562939D01*
X13880605Y-41465295D01*
X13822493Y-41362525D01*
X13762497Y-41257028D01*
X13701986Y-41151204D01*
X13642328Y-41047451D01*
X13584893Y-40948168D01*
X13531049Y-40855754D01*
X13482164Y-40772609D01*
X13439608Y-40701131D01*
X13404750Y-40643720D01*
X13378957Y-40602775D01*
X13363598Y-40580695D01*
X13362196Y-40579068D01*
X13340937Y-40557437D01*
X13319703Y-40540593D01*
X13295004Y-40527843D01*
X13263347Y-40518496D01*
X13221243Y-40511858D01*
X13165201Y-40507238D01*
X13091729Y-40503942D01*
X12997338Y-40501278D01*
X12966350Y-40500543D01*
X12872576Y-40498272D01*
X12800447Y-40496089D01*
X12746210Y-40493571D01*
X12706113Y-40490293D01*
X12676407Y-40485834D01*
X12653338Y-40479770D01*
X12633157Y-40471676D01*
X12612111Y-40461131D01*
X12610750Y-40460417D01*
X12567272Y-40434085D01*
X12527504Y-40404291D01*
X12511843Y-40389762D01*
X12492167Y-40364464D01*
X12463883Y-40321968D01*
X12429051Y-40265948D01*
X12389733Y-40200081D01*
X12347991Y-40128041D01*
X12305885Y-40053506D01*
X12265479Y-39980149D01*
X12228833Y-39911647D01*
X12198008Y-39851676D01*
X12175066Y-39803911D01*
X12162069Y-39772028D01*
X12159900Y-39762239D01*
X12168842Y-39725901D01*
X12185300Y-39700800D01*
X12194956Y-39692528D01*
X12207441Y-39686275D01*
X12226153Y-39681763D01*
X12254488Y-39678712D01*
X12295842Y-39676844D01*
X12353614Y-39675880D01*
X12431199Y-39675541D01*
X12493275Y-39675524D01*
X12585631Y-39675683D01*
X12656458Y-39676295D01*
X12709628Y-39677696D01*
X12749011Y-39680225D01*
X12778478Y-39684219D01*
X12801901Y-39690016D01*
X12823150Y-39697953D01*
X12840647Y-39705819D01*
X12887279Y-39732038D01*
X12931945Y-39764265D01*
X12948996Y-39779543D01*
X12968055Y-39803463D01*
X12996739Y-39845740D01*
X13032559Y-39902402D01*
X13073030Y-39969480D01*
X13115664Y-40043003D01*
X13130860Y-40069922D01*
X13188355Y-40170596D01*
X13236982Y-40250801D01*
X13278786Y-40313005D01*
X13315811Y-40359674D01*
X13350102Y-40393277D01*
X13383703Y-40416280D01*
X13418658Y-40431152D01*
X13433691Y-40435431D01*
X13460958Y-40439378D01*
X13509282Y-40442682D01*
X13579378Y-40445359D01*
X13671958Y-40447423D01*
X13787736Y-40448890D01*
X13927425Y-40449777D01*
X14091738Y-40450098D01*
X14105797Y-40450100D01*
X14248096Y-40450027D01*
X14367167Y-40449764D01*
X14465183Y-40449239D01*
X14544315Y-40448384D01*
X14606735Y-40447129D01*
X14654616Y-40445404D01*
X14690130Y-40443138D01*
X14715449Y-40440264D01*
X14732744Y-40436709D01*
X14744188Y-40432406D01*
X14749140Y-40429443D01*
X14770499Y-40406873D01*
X14772201Y-40376898D01*
X14771467Y-40372962D01*
X14763767Y-40354503D01*
X14744822Y-40316733D01*
X14716118Y-40262319D01*
X14679139Y-40193932D01*
X14635371Y-40114238D01*
X14586299Y-40025906D01*
X14533408Y-39931605D01*
X14478183Y-39834003D01*
X14422109Y-39735769D01*
X14366671Y-39639570D01*
X14313355Y-39548076D01*
X14294995Y-39516851D01*
X14261006Y-39451757D01*
X14245144Y-39400760D01*
X14247021Y-39360568D01*
X14266251Y-39327889D01*
X14272093Y-39322013D01*
X14280239Y-39314865D01*
X14289628Y-39309071D01*
X14302825Y-39304491D01*
X14322398Y-39300983D01*
X14350912Y-39298404D01*
X14390934Y-39296615D01*
X14445029Y-39295472D01*
X14515765Y-39294835D01*
X14605708Y-39294563D01*
X14717423Y-39294513D01*
X14770568Y-39294524D01*
G37*
G04 #@! TD.AperFunction*
D11*
X28150000Y45200000D03*
X28150000Y44800000D03*
X28150000Y44400000D03*
X28150000Y44000000D03*
X28150000Y43600000D03*
D12*
X28800000Y42950000D03*
X29200000Y42950000D03*
X29600000Y42950000D03*
X30000000Y42950000D03*
X30400000Y42950000D03*
D11*
X31050000Y43600000D03*
X31050000Y44000000D03*
X31050000Y44400000D03*
X31050000Y44800000D03*
X31050000Y45200000D03*
D12*
X30400000Y45850000D03*
X30000000Y45850000D03*
X29600000Y45850000D03*
X29200000Y45850000D03*
X28800000Y45850000D03*
D13*
X29600000Y44400000D03*
D14*
X-597500Y51590000D03*
X597500Y51590000D03*
D15*
X24000000Y31700000D03*
D16*
X27632500Y47100000D03*
X28767500Y47100000D03*
D17*
X-11600000Y-51000000D03*
X-13600000Y-51000000D03*
D18*
X-15312500Y1600000D03*
X-13587500Y1600000D03*
D11*
X-31150000Y44300000D03*
X-31150000Y43900000D03*
X-31150000Y43500000D03*
X-31150000Y43100000D03*
X-31150000Y42700000D03*
D12*
X-30500000Y42050000D03*
X-30100000Y42050000D03*
X-29700000Y42050000D03*
X-29300000Y42050000D03*
X-28900000Y42050000D03*
D11*
X-28250000Y42700000D03*
X-28250000Y43100000D03*
X-28250000Y43500000D03*
X-28250000Y43900000D03*
X-28250000Y44300000D03*
D12*
X-28900000Y44950000D03*
X-29300000Y44950000D03*
X-29700000Y44950000D03*
X-30100000Y44950000D03*
X-30500000Y44950000D03*
D13*
X-29700000Y43500000D03*
D14*
X11402500Y-48400000D03*
X12597500Y-48400000D03*
X-13197500Y-48400000D03*
X-12002500Y-48400000D03*
D19*
X20700000Y51242500D03*
D20*
X22000000Y51242500D03*
D21*
X23300000Y51242500D03*
D17*
X7837500Y48600000D03*
X5837500Y48600000D03*
D22*
X-42125000Y-21750000D03*
X-43875000Y-21750000D03*
X-43875000Y-25250000D03*
X-42125000Y-25250000D03*
D23*
X-29332500Y48100000D03*
X-30467500Y48100000D03*
D24*
X-16250000Y47600000D03*
X-17750000Y47600000D03*
X-19250000Y47600000D03*
X-20750000Y47600000D03*
X-22250000Y47600000D03*
X-23750000Y47600000D03*
D25*
X-14200000Y45500000D03*
X-25800000Y45500000D03*
D26*
X34918718Y45043845D03*
X36156155Y46281282D03*
X33681282Y48756155D03*
X32443845Y47518718D03*
D27*
X22450000Y-5375000D03*
X20550000Y-5375000D03*
X21500000Y-7250000D03*
D16*
X30182500Y41700000D03*
X31317500Y41700000D03*
D28*
X40300000Y25567500D03*
X40300000Y24432500D03*
D29*
X10657500Y-810000D03*
D30*
X10657500Y6810000D03*
D31*
X12632500Y2200000D03*
X14282500Y2200000D03*
D18*
X16562500Y-8400000D03*
X18287500Y-8400000D03*
D17*
X7837500Y46400000D03*
X5837500Y46400000D03*
D14*
X-11797500Y1650000D03*
X-10602500Y1650000D03*
D23*
X30967500Y49500000D03*
X29832500Y49500000D03*
D32*
X10850000Y-11650000D03*
X10850000Y-12300000D03*
X10850000Y-12950000D03*
X10850000Y-13600000D03*
D33*
X11825000Y-14575000D03*
X12475000Y-14575000D03*
X13125000Y-14575000D03*
X13775000Y-14575000D03*
D32*
X14750000Y-13600000D03*
X14750000Y-12950000D03*
X14750000Y-12300000D03*
X14750000Y-11650000D03*
D33*
X13775000Y-10675000D03*
X13125000Y-10675000D03*
X12475000Y-10675000D03*
X11825000Y-10675000D03*
D34*
X12800000Y-12625000D03*
D35*
X-40300000Y24432500D03*
X-40300000Y25567500D03*
D36*
X-39850000Y32000000D03*
X-39850000Y34000000D03*
X-39850000Y36000000D03*
X-39850000Y38000000D03*
D37*
X-34100000Y29650000D03*
X-34100000Y40350000D03*
D28*
X17900000Y-17932500D03*
X17900000Y-19067500D03*
D38*
X35000000Y-33600000D03*
D22*
X42125000Y-25250000D03*
X43875000Y-25250000D03*
X43875000Y-21750000D03*
X42125000Y-21750000D03*
D23*
X-25632500Y42700000D03*
X-26767500Y42700000D03*
D28*
X32500000Y44867500D03*
X32500000Y43732500D03*
D18*
X1637500Y39255000D03*
X3362500Y39255000D03*
D24*
X23750000Y47600000D03*
X22250000Y47600000D03*
X20750000Y47600000D03*
X19250000Y47600000D03*
X17750000Y47600000D03*
X16250000Y47600000D03*
D25*
X25800000Y45500000D03*
X14200000Y45500000D03*
D16*
X16232500Y-12200000D03*
X17367500Y-12200000D03*
D23*
X-32332500Y44100000D03*
X-33467500Y44100000D03*
D39*
X0Y37000000D03*
X0Y-37000000D03*
D40*
X19042500Y-17902500D03*
X19042500Y-19097500D03*
D41*
X20525000Y-13475000D03*
X21475000Y-13475000D03*
X22425000Y-13475000D03*
X22425000Y-11200000D03*
X21475000Y-11200000D03*
X20525000Y-11200000D03*
D40*
X23850000Y-5002500D03*
X23850000Y-6197500D03*
D38*
X27200000Y-37000000D03*
D42*
X-9750000Y51125000D03*
X-9750000Y52875000D03*
X-13250000Y52875000D03*
X-13250000Y51125000D03*
D43*
X13257500Y4200000D03*
D44*
X13257500Y5500000D03*
D45*
X13257500Y6800000D03*
D16*
X16852500Y-7000000D03*
X17987500Y-7000000D03*
D46*
X11675000Y37425000D03*
X11675000Y38075000D03*
X11675000Y38725000D03*
X11675000Y39375000D03*
X11675000Y40025000D03*
X11675000Y40675000D03*
X11675000Y41325000D03*
X11675000Y41975000D03*
X11675000Y42625000D03*
X11675000Y43275000D03*
X11675000Y43925000D03*
X11675000Y44575000D03*
X5950000Y44575000D03*
X5950000Y43925000D03*
X5950000Y43275000D03*
X5950000Y42625000D03*
X5950000Y41975000D03*
X5950000Y41325000D03*
X5950000Y40675000D03*
X5950000Y40025000D03*
X5950000Y39375000D03*
X5950000Y38725000D03*
X5950000Y38075000D03*
X5950000Y37425000D03*
D47*
X8812500Y41000000D03*
D48*
X-13637500Y-8550000D03*
X-15362500Y-8550000D03*
D14*
X-11797500Y-6800000D03*
X-10602500Y-6800000D03*
D23*
X-30232500Y40600000D03*
X-31367500Y40600000D03*
D49*
X26275000Y-27660000D03*
X31325000Y-27660000D03*
X26275000Y-30200000D03*
X31325000Y-30200000D03*
X26275000Y-32740000D03*
X31325000Y-32740000D03*
D48*
X-1637500Y42800000D03*
X-3362500Y42800000D03*
D18*
X16595000Y-2800000D03*
X18320000Y-2800000D03*
D19*
X-22400000Y51200000D03*
D20*
X-21100000Y51200000D03*
D21*
X-19800000Y51200000D03*
D17*
X11817500Y48600000D03*
X9817500Y48600000D03*
D50*
X-812500Y53020000D03*
X-2387500Y53020000D03*
D17*
X14700000Y-800000D03*
X12700000Y-800000D03*
D15*
X23040000Y33340000D03*
D17*
X11837500Y46400000D03*
X9837500Y46400000D03*
D35*
X-14800000Y-53967500D03*
X-14800000Y-52832500D03*
D14*
X35802500Y-24100000D03*
X36997500Y-24100000D03*
D18*
X27837500Y48300000D03*
X29562500Y48300000D03*
D16*
X-8167500Y-52400000D03*
X-7032500Y-52400000D03*
D51*
X7000000Y-54100000D03*
X-7000000Y-54100000D03*
D38*
X-8300000Y-36600000D03*
D35*
X-7850000Y50132500D03*
X-7850000Y51267500D03*
D52*
X812500Y53020000D03*
X2387500Y53020000D03*
D27*
X16350000Y-16462500D03*
X14450000Y-16462500D03*
X15400000Y-18337500D03*
D53*
X23450000Y-19050000D03*
X23450000Y-18100000D03*
X23450000Y-17150000D03*
X20750000Y-17150000D03*
X20750000Y-18100000D03*
X20750000Y-19050000D03*
D18*
X16557500Y-5600000D03*
X18282500Y-5600000D03*
D22*
X-42125000Y26750000D03*
X-43875000Y26750000D03*
X-43875000Y23250000D03*
X-42125000Y23250000D03*
D14*
X16102500Y-14700000D03*
X17297500Y-14700000D03*
X-5797500Y-52400000D03*
X-4602500Y-52400000D03*
D23*
X3617500Y43055000D03*
X2482500Y43055000D03*
D17*
X-35000000Y-27000000D03*
X-37000000Y-27000000D03*
D38*
X30000000Y-36000000D03*
D16*
X16232500Y-9800000D03*
X17367500Y-9800000D03*
D23*
X14467500Y49450000D03*
X13332500Y49450000D03*
D49*
X12075000Y27090000D03*
X17125000Y27090000D03*
X12075000Y24550000D03*
X17125000Y24550000D03*
X12075000Y22010000D03*
X17125000Y22010000D03*
X12075000Y19470000D03*
X17125000Y19470000D03*
X12075000Y16930000D03*
X17125000Y16930000D03*
X12075000Y14390000D03*
X17125000Y14390000D03*
X12075000Y11850000D03*
X17125000Y11850000D03*
X12075000Y9310000D03*
X17125000Y9310000D03*
D14*
X-11797500Y-3200000D03*
X-10602500Y-3200000D03*
D23*
X-2532500Y40050000D03*
X-3667500Y40050000D03*
D54*
X23800000Y-24750000D03*
X23800000Y-21650000D03*
D55*
X39850000Y38000000D03*
X39850000Y36000000D03*
X39850000Y34000000D03*
X39850000Y32000000D03*
D56*
X34100000Y40350000D03*
X34100000Y29650000D03*
D57*
X-10602500Y2850000D03*
X-11797500Y2850000D03*
D58*
X-11662500Y44575000D03*
X-11662500Y43925000D03*
X-11662500Y43275000D03*
X-11662500Y42625000D03*
X-11662500Y41975000D03*
X-11662500Y41325000D03*
X-11662500Y40675000D03*
X-11662500Y40025000D03*
X-11662500Y39375000D03*
X-11662500Y38725000D03*
X-11662500Y38075000D03*
X-11662500Y37425000D03*
X-5937500Y37425000D03*
X-5937500Y38075000D03*
X-5937500Y38725000D03*
X-5937500Y39375000D03*
X-5937500Y40025000D03*
X-5937500Y40675000D03*
X-5937500Y41325000D03*
X-5937500Y41975000D03*
X-5937500Y42625000D03*
X-5937500Y43275000D03*
X-5937500Y43925000D03*
X-5937500Y44575000D03*
D47*
X-8800000Y41000000D03*
D59*
X-9075000Y-47295000D03*
X-9075000Y-48565000D03*
X-9075000Y-49835000D03*
X-9075000Y-51105000D03*
X-4125000Y-51105000D03*
X-4125000Y-49835000D03*
X-4125000Y-48565000D03*
X-4125000Y-47295000D03*
D14*
X16202500Y-10900000D03*
X17397500Y-10900000D03*
D17*
X37600000Y-27000000D03*
X35600000Y-27000000D03*
D14*
X-11797500Y-2000000D03*
X-10602500Y-2000000D03*
X-11797500Y-800000D03*
X-10602500Y-800000D03*
X-11797500Y450000D03*
X-10602500Y450000D03*
D48*
X-1637500Y41300000D03*
X-3362500Y41300000D03*
D60*
X14500000Y-23200000D03*
D61*
X20300000Y-23200000D03*
D62*
X-17875000Y-6425000D03*
X-17225000Y-6425000D03*
X-16575000Y-6425000D03*
X-15925000Y-6425000D03*
X-15275000Y-6425000D03*
X-14625000Y-6425000D03*
X-13975000Y-6425000D03*
X-13325000Y-6425000D03*
X-13325000Y-675000D03*
X-13975000Y-675000D03*
X-14625000Y-675000D03*
X-15275000Y-675000D03*
X-15925000Y-675000D03*
X-16575000Y-675000D03*
X-17225000Y-675000D03*
X-17875000Y-675000D03*
D63*
X-15600000Y-3550000D03*
D64*
X-7800000Y48600000D03*
X-5800000Y48600000D03*
D16*
X27632500Y49500000D03*
X28767500Y49500000D03*
X-29067500Y40600000D03*
X-27932500Y40600000D03*
D42*
X13250000Y51125000D03*
X13250000Y52875000D03*
X9750000Y52875000D03*
X9750000Y51125000D03*
D65*
X14705000Y-3175000D03*
X13435000Y-3175000D03*
X12165000Y-3175000D03*
X10895000Y-3175000D03*
X10895000Y-8425000D03*
X12165000Y-8425000D03*
X13435000Y-8425000D03*
X14705000Y-8425000D03*
D18*
X1637500Y40755000D03*
X3362500Y40755000D03*
D38*
X24400000Y-36000000D03*
D66*
X-17712500Y7000000D03*
X-11487500Y7000000D03*
D14*
X-36597500Y-24200000D03*
X-35402500Y-24200000D03*
D40*
X25100000Y-18002500D03*
X25100000Y-19197500D03*
D35*
X-40300000Y-24067500D03*
X-40300000Y-22932500D03*
D64*
X-11800000Y48600000D03*
X-9800000Y48600000D03*
D67*
X4000000Y-51000000D03*
D68*
X5000000Y-47750000D03*
D67*
X6000000Y-51000000D03*
D69*
X29143845Y-40818718D03*
X30381282Y-42056155D03*
X32856155Y-39581282D03*
X31618718Y-38343845D03*
D64*
X-7800000Y46400000D03*
X-5800000Y46400000D03*
D14*
X-11797500Y4050000D03*
X-10602500Y4050000D03*
D17*
X35900000Y42600000D03*
X33900000Y42600000D03*
D15*
X-24950000Y33363862D03*
X24950000Y33350000D03*
D70*
X-32443845Y47518718D03*
X-33681282Y48756155D03*
X-36156155Y46281282D03*
X-34918718Y45043845D03*
D27*
X12850000Y-16462500D03*
X10950000Y-16462500D03*
X11900000Y-18337500D03*
D19*
X25300000Y51242500D03*
D20*
X26600000Y51242500D03*
D21*
X27900000Y51242500D03*
D38*
X3950000Y-54100000D03*
D71*
X29151283Y-38498717D03*
X28348717Y-39301283D03*
D19*
X16100000Y51242500D03*
D20*
X17400000Y51242500D03*
D21*
X18700000Y51242500D03*
D72*
X-28698717Y-38701283D03*
X-29501283Y-37898717D03*
D49*
X-17125000Y26620000D03*
X-12075000Y26620000D03*
X-17125000Y24080000D03*
X-12075000Y24080000D03*
X-17125000Y21540000D03*
X-12075000Y21540000D03*
X-17125001Y19000000D03*
X-12074999Y19000000D03*
X-17125000Y16460000D03*
X-12075000Y16460000D03*
X-17125000Y13920000D03*
X-12075000Y13920000D03*
X-17125000Y11380000D03*
X-12075000Y11380000D03*
D73*
X21250000Y-31200000D03*
X12950000Y-31200000D03*
D19*
X-27000000Y51200000D03*
D20*
X-25700000Y51200000D03*
D21*
X-24400000Y51200000D03*
D16*
X8032500Y-51400000D03*
X9167500Y-51400000D03*
D17*
X13000000Y-51000000D03*
X11000000Y-51000000D03*
D42*
X9750000Y-53125000D03*
X9750000Y-54875000D03*
X13250000Y-54875000D03*
X13250000Y-53125000D03*
D19*
X-17800000Y51200000D03*
D20*
X-16500000Y51200000D03*
D21*
X-15200000Y51200000D03*
D14*
X8002500Y-49000000D03*
X9197500Y-49000000D03*
D16*
X2482500Y42055000D03*
X3617500Y42055000D03*
D22*
X42125000Y23250000D03*
X43875000Y23250000D03*
X43875000Y26750000D03*
X42125000Y26750000D03*
D14*
X-11797500Y-5600000D03*
X-10602500Y-5600000D03*
D16*
X16890000Y-4200000D03*
X18025000Y-4200000D03*
D64*
X-35600000Y42600000D03*
X-33600000Y42600000D03*
D74*
X-31718718Y-38243845D03*
X-32956155Y-39481282D03*
X-30481282Y-41956155D03*
X-29243845Y-40718718D03*
D49*
X-20375000Y-24920000D03*
X-15325000Y-24920000D03*
X-20375000Y-27460000D03*
X-15325000Y-27460000D03*
X-20375000Y-30000000D03*
X-15325000Y-30000000D03*
X-20375000Y-32540000D03*
X-15325000Y-32540000D03*
X-20375000Y-35080000D03*
X-15325000Y-35080000D03*
D38*
X-2150000Y-53950000D03*
D16*
X-3667500Y39050000D03*
X-2532500Y39050000D03*
D15*
X-24000000Y31713862D03*
D42*
X-13250000Y-53125000D03*
X-13250000Y-54875000D03*
X-9750000Y-54875000D03*
X-9750000Y-53125000D03*
D64*
X-11800000Y46400000D03*
X-9800000Y46400000D03*
D28*
X40300000Y-22932500D03*
X40300000Y-24067500D03*
D75*
X-14550000Y-16300000D03*
X-24450000Y-16300000D03*
D15*
X-23050000Y33363862D03*
D14*
X-11797500Y-4400000D03*
X-10602500Y-4400000D03*
D48*
X-28437500Y46900000D03*
X-30162500Y46900000D03*
D76*
X1700000Y-50000000D03*
X-1700000Y-50000000D03*
D77*
X17000000Y-41600000D03*
X37300000Y-23800000D03*
X17500000Y-15900000D03*
X29100000Y43900000D03*
X-28500000Y12500000D03*
X5900000Y47500000D03*
X28500000Y11500000D03*
X22200000Y-23300000D03*
X1637500Y41700000D03*
X-8900000Y53100000D03*
X40700000Y-22900000D03*
X-4529708Y42708551D03*
X28500000Y-3500000D03*
X-16900000Y-2200000D03*
X-10500000Y8300000D03*
X43800000Y-26200000D03*
X35000000Y-33600000D03*
X-10700000Y-35700000D03*
X31200000Y-2500000D03*
X-31200000Y-6500000D03*
X-39900000Y-24100000D03*
X-23800000Y51100000D03*
X-28500000Y8500000D03*
X-28500000Y-7500000D03*
X-31200000Y5500000D03*
X18700000Y50400000D03*
X27900000Y-32800000D03*
X28500000Y4500000D03*
X17900000Y-9800000D03*
X-43850000Y27600000D03*
X29700000Y-32800000D03*
X-28500000Y-8500000D03*
X-14250000Y-54275000D03*
X-28500000Y-4500000D03*
X32900000Y-32800000D03*
X-10500000Y5700000D03*
X14018690Y-51797230D03*
X-10600000Y-7300000D03*
X18900000Y-8400000D03*
X28500000Y7500000D03*
X-13600000Y1050000D03*
X27837500Y48600000D03*
X13125000Y-13700000D03*
X40300000Y26100000D03*
X29100000Y44900000D03*
X20342893Y-10800000D03*
X20342893Y-9757107D03*
X31200000Y-1500000D03*
X13200000Y7300000D03*
X-28500000Y-12500000D03*
X30100000Y44900000D03*
X-31200000Y10500000D03*
X-31200000Y2500000D03*
X31200000Y-13500000D03*
X14550000Y51850000D03*
X31400000Y49400000D03*
X-31200000Y1500000D03*
X-5800000Y47700000D03*
X31200000Y-9500000D03*
X-30200000Y43000000D03*
X-29700000Y40800000D03*
X28500000Y3500000D03*
X-31200000Y6500000D03*
X-1637500Y42050000D03*
X-32950000Y49350000D03*
X31200000Y9500000D03*
X-31200000Y13500000D03*
X31200000Y6500000D03*
X18500000Y-22500000D03*
X-14300000Y-2200000D03*
X-31200000Y9500000D03*
X-28500000Y-11500000D03*
X28450000Y51250000D03*
X-18450000Y44850000D03*
X10650000Y-54900000D03*
X18500000Y-7000000D03*
X-31200000Y-13500000D03*
X-12500000Y8300000D03*
X-14300000Y-4800000D03*
X33800000Y43400000D03*
X34200000Y-23800000D03*
X-28500000Y500000D03*
X28500000Y-12500000D03*
X-16900000Y-4800000D03*
X28500000Y12500000D03*
X-15400000Y-53600000D03*
X20342893Y-11942893D03*
X-34800000Y-28500000D03*
X-31200000Y-1500000D03*
X-30200000Y44000000D03*
X-43800000Y-22650000D03*
X-28500000Y-500000D03*
X28500000Y8500000D03*
X-29200000Y44000000D03*
X30464079Y41078640D03*
X-28500000Y-3500000D03*
X10100000Y-48800000D03*
X28500000Y500000D03*
X15847794Y26600000D03*
X-12500000Y5700000D03*
X-32350000Y-40100000D03*
X29600000Y-42650000D03*
X-13600000Y2150000D03*
X-28250000Y-40300000D03*
X-28500000Y7500000D03*
X28500000Y-500000D03*
X7400000Y-51000000D03*
X-14000000Y-49200000D03*
X17200000Y-12700000D03*
X28500000Y-4500000D03*
X31200000Y2500000D03*
X-37700000Y-23300000D03*
X-10400000Y450000D03*
X-28500000Y4500000D03*
X4533957Y39186059D03*
X33800000Y41800000D03*
X1637500Y39700000D03*
X-28500000Y11500000D03*
X-26100000Y43483750D03*
X-10400000Y7000000D03*
X-12500000Y7000000D03*
X12900000Y-11600000D03*
X15850000Y27550000D03*
X18900000Y-5600000D03*
X28500000Y-8500000D03*
X28500000Y-7500000D03*
X-31200000Y-5500000D03*
X-9800000Y47700000D03*
X-17750000Y47600000D03*
X18500000Y-4200000D03*
X31200000Y-10500000D03*
X44000000Y22350000D03*
X-31200000Y-10500000D03*
X9800000Y47500000D03*
X18500000Y-23800000D03*
X31200000Y5500000D03*
X-29200000Y43000000D03*
X-13650000Y-35150000D03*
X31200000Y13500000D03*
X-10095651Y-51807248D03*
X31200000Y-5500000D03*
X29650000Y-37750000D03*
X36800000Y45700000D03*
X31200000Y10500000D03*
X31200000Y-6500000D03*
X-28500000Y3500000D03*
X24600000Y-32800000D03*
X30100000Y43900000D03*
X31200000Y1500000D03*
X-33500000Y41900000D03*
X-31200000Y-9500000D03*
X28500000Y-11500000D03*
X-40300000Y24000000D03*
X12300000Y-2000000D03*
X19000000Y-2800000D03*
X-31200000Y-2500000D03*
X23300000Y50400000D03*
X22250000Y49550000D03*
X-29000000Y47200000D03*
X34800000Y-27100000D03*
X11000000Y-51850000D03*
X13100000Y-48100000D03*
X-17900000Y-29400000D03*
X-11726250Y-47673750D03*
X-18000000Y-27450000D03*
X-13930000Y-51790000D03*
X-37500000Y-27500000D03*
X-34900000Y-23900000D03*
X23800000Y-20900000D03*
X-20125000Y-24920000D03*
X16700000Y-6400000D03*
X-18050000Y-24800000D03*
X-16000000Y-13600000D03*
X30000000Y-36000000D03*
X-16100000Y-16300000D03*
X19000000Y-17400000D03*
X-13100000Y-13600000D03*
X-13200000Y-8987500D03*
X15000000Y-14400000D03*
X14800000Y-16800000D03*
X11600000Y-7000000D03*
X-10851250Y-1751250D03*
X11500000Y-9700000D03*
X15000000Y-18400000D03*
X-13100000Y-16300000D03*
X-16000000Y-19100000D03*
X-13100000Y-19100000D03*
X23800000Y-22400000D03*
X22000000Y-13814214D03*
X22000000Y-14800000D03*
X22157107Y-12957107D03*
X16200000Y-12900000D03*
X14116116Y583884D03*
X14700000Y-4600000D03*
X11700000Y-17500000D03*
X27200000Y-37000000D03*
X11900000Y-19100000D03*
X11100000Y-10900000D03*
X27700000Y-27700000D03*
X16200000Y-15400000D03*
X10900000Y-4000000D03*
X1900000Y44400000D03*
X10900000Y-2200000D03*
X29300000Y-27700000D03*
X28500000Y-27700000D03*
X11500000Y-14400000D03*
X16400000Y-17400000D03*
X15200000Y-20700000D03*
X13900000Y-15100000D03*
X16562500Y-9200000D03*
X29400000Y49000000D03*
X-16900000Y7000000D03*
X18500000Y-38100000D03*
X-4000000Y40600000D03*
X-14600000Y-52600000D03*
X31700000Y42200000D03*
X-18600000Y7000000D03*
X3321147Y41699999D03*
X-25500000Y5700000D03*
X-33300000Y44500000D03*
X-30467500Y47100000D03*
X-16900000Y8400000D03*
X11100000Y52100000D03*
X-16900000Y5700000D03*
X17000000Y-38100000D03*
X24400000Y-36000000D03*
X37000000Y-32500000D03*
X19900000Y-38100000D03*
X-18600000Y5700000D03*
X-25500000Y8400000D03*
X14150000Y-53150000D03*
X-29650000Y-39200000D03*
X-18600000Y8400000D03*
X-3575735Y48475735D03*
X-27200000Y7000000D03*
X-41750000Y-24400000D03*
X-27200000Y5700000D03*
X41600000Y-22450000D03*
X8900000Y-52050000D03*
X-27200000Y8400000D03*
X39900000Y24500000D03*
X-26763173Y38236827D03*
X21300000Y-38100000D03*
X-25500000Y7000000D03*
X-41150000Y24500000D03*
X11000000Y-47600000D03*
X-2800000Y42300000D03*
X21100000Y29000000D03*
X31900000Y-25000000D03*
X-22300000Y45600000D03*
X27600000Y40600000D03*
X31300000Y45410002D03*
X30600000Y48200000D03*
X32500000Y41800000D03*
X27456587Y46200000D03*
X28400000Y41300000D03*
X-27640320Y38053313D03*
X-27200000Y45300000D03*
X-28441792Y38241792D03*
X-28864318Y45935777D03*
X-31500000Y44900000D03*
X-29622149Y37862990D03*
X2500000Y45500000D03*
X14100000Y-9800000D03*
X-5200000Y53200000D03*
X5200000Y53200000D03*
X13100000Y-8600000D03*
X2800000Y44300000D03*
X13900000Y-33000000D03*
X13200000Y-22200000D03*
X10500000Y-12600000D03*
X14000000Y-24200000D03*
X13900000Y-29400000D03*
X12400000Y-55000000D03*
X-17925000Y-35375000D03*
X16647794Y10600000D03*
X20100000Y36800000D03*
X23600000Y38500000D03*
X14510050Y41100000D03*
X38150000Y34000000D03*
X16647794Y13100000D03*
X19250000Y36800000D03*
X17600000Y37700000D03*
X14500000Y39700000D03*
X38050000Y32150000D03*
X-38100000Y35900000D03*
X-13900000Y42000000D03*
X13800000Y15700000D03*
X-20505025Y45300000D03*
X-12970502Y42946974D03*
X-38100000Y38000000D03*
X-22300000Y42946974D03*
X-25900000Y39500000D03*
X14200000Y13100000D03*
X-19250000Y45200000D03*
X41650000Y36000000D03*
X12651336Y42647684D03*
X38100000Y37900000D03*
X14314579Y41887851D03*
X-38100000Y32000000D03*
X-15600000Y40300000D03*
X-38100000Y34000000D03*
X-14000000Y39300000D03*
X-14314214Y37014214D03*
X13000000Y18300000D03*
X16647794Y15700000D03*
X17074135Y36798209D03*
X4500000Y48100000D03*
X16247794Y8200000D03*
X15700000Y37594329D03*
X17047794Y23300000D03*
X21555000Y42400000D03*
X5851456Y45200000D03*
X16647794Y20800000D03*
X-800000Y39000000D03*
X13700000Y10500000D03*
X13000000Y20800000D03*
X-13852332Y37667413D03*
X-14900000Y38900000D03*
X13000000Y25550002D03*
X16647794Y18200000D03*
X16300000Y37000000D03*
X-21684877Y44850841D03*
X-17100000Y44400000D03*
X-15775735Y37824265D03*
X13000000Y23300000D03*
X-9900000Y-46900000D03*
X-2150000Y-53950000D03*
X3950000Y-54100000D03*
X7600000Y-50000000D03*
X13400000Y33100000D03*
X12850000Y-17150000D03*
X-8300000Y-36600000D03*
X-10983964Y-394600D03*
X-13600000Y-32600000D03*
X21150000Y-7250000D03*
X-11662500Y44624999D03*
X-32813810Y39100001D03*
X-32500000Y42300000D03*
X26600000Y40900000D03*
X-20844975Y38344975D03*
X-31555800Y38855800D03*
X-32213255Y38400000D03*
X-31909747Y41760000D03*
X25424265Y43624265D03*
X-23700000Y37200000D03*
X26968480Y42310883D03*
X-22781174Y39605653D03*
X-23900000Y23250000D03*
X32235165Y42835165D03*
X-25600000Y37000000D03*
X-20500000Y31300000D03*
X27100000Y43100000D03*
X-22800000Y37300000D03*
X26300000Y41800000D03*
X-21800000Y37500000D03*
X-30900000Y37800000D03*
X-31100000Y41760000D03*
X-18100000Y22600000D03*
X-29177817Y38877817D03*
X-10300000Y13900000D03*
X-28200000Y41600000D03*
X30800000Y42550000D03*
X-24600000Y37000000D03*
X-33475000Y38500000D03*
X-32438172Y43290001D03*
X15300000Y-12300000D03*
X16000000Y-1800000D03*
X4890637Y47306697D03*
X18600000Y43900000D03*
X23200000Y41600000D03*
X4737500Y46036216D03*
X10200000Y53200000D03*
X34100000Y45500000D03*
X12050000Y51800000D03*
X-7750000Y52200000D03*
X-35500000Y46900000D03*
X-11599265Y51850735D03*
X-13400000Y-2500000D03*
X-12200000Y4000000D03*
X14700001Y38816300D03*
X8800000Y45400000D03*
X15100000Y38123478D03*
X6837499Y45400000D03*
X13700000Y42400000D03*
X12800000Y45300000D03*
X10900000Y45300000D03*
X14075501Y40400000D03*
X-3899853Y43739829D03*
X-12981121Y42056084D03*
X-13600000Y40000000D03*
X-4663110Y43500000D03*
X30610002Y45900000D03*
X28280684Y46158654D03*
X-28020310Y45933876D03*
X-31400000Y45800000D03*
X-10650000Y-54550000D03*
X-30750000Y-39900000D03*
D78*
X17000000Y-41600000D02*
X17000000Y-39900000D01*
X16089942Y-38989942D02*
X11887440Y-38989942D01*
X-10100000Y-39465000D02*
X-10100000Y-27345000D01*
X-10100000Y-27345000D02*
X-12525000Y-24920000D01*
X-8565000Y-41000000D02*
X-10100000Y-39465000D01*
X9877382Y-41000000D02*
X-8565000Y-41000000D01*
X-12525000Y-24920000D02*
X-15325000Y-24920000D01*
X17000000Y-39900000D02*
X16089942Y-38989942D01*
X11887440Y-38989942D02*
X9877382Y-41000000D01*
X-29332500Y48100000D02*
X-29332500Y47795000D01*
D79*
X-18450000Y44850000D02*
X-17750000Y45550000D01*
D78*
X17247762Y-12200000D02*
X16637762Y-11590000D01*
D80*
X-16200000Y-7712500D02*
X-16200000Y-4150000D01*
D78*
X25100000Y-19197500D02*
X24622500Y-19675000D01*
X7400000Y-51000000D02*
X7632500Y-51000000D01*
X-14250000Y-54275000D02*
X-13850000Y-54275000D01*
X-9777248Y-51807248D02*
X-9075000Y-51105000D01*
X-10095651Y-51807248D02*
X-9777248Y-51807248D01*
D80*
X18900000Y-5600000D02*
X20325000Y-5600000D01*
D81*
X-28250000Y43900000D02*
X-29300000Y43900000D01*
D80*
X1992500Y42055000D02*
X2482500Y42055000D01*
D81*
X29585000Y43545000D02*
X29500000Y43630000D01*
D78*
X23825000Y-19675000D02*
X20300000Y-23200000D01*
D81*
X29900000Y41642719D02*
X29900000Y44000000D01*
D80*
X12300000Y-3040000D02*
X12165000Y-3175000D01*
D81*
X29500000Y43630000D02*
X29500000Y44400000D01*
D80*
X-1637500Y41300000D02*
X-2532500Y40405000D01*
D78*
X-13325000Y-6425000D02*
X-13325000Y-5412501D01*
D79*
X4913681Y39186059D02*
X4533957Y39186059D01*
D78*
X-14557500Y-53967500D02*
X-14250000Y-54275000D01*
X-13325000Y-5412501D02*
X-13937501Y-4800000D01*
D81*
X29900000Y44000000D02*
X29500000Y44400000D01*
D79*
X5900000Y39325000D02*
X5052622Y39325000D01*
D78*
X36088980Y46369670D02*
X36030330Y46369670D01*
D80*
X1637500Y40755000D02*
X1637500Y41700000D01*
D78*
X24622500Y-19675000D02*
X23825000Y-19675000D01*
D79*
X-8282500Y49700000D02*
X-8700000Y49700000D01*
D81*
X-29300000Y40832500D02*
X-29300000Y42050000D01*
D79*
X-4529708Y42708551D02*
X-4582745Y42655514D01*
D78*
X-15167500Y-53600000D02*
X-14800000Y-53967500D01*
X33800000Y41800000D02*
X33600000Y42000000D01*
X-4602500Y-52400000D02*
X-5222500Y-53020000D01*
X-14800000Y-53967500D02*
X-14557500Y-53967500D01*
D82*
X20342893Y-9757107D02*
X20342893Y-11942893D01*
D80*
X-1637500Y42800000D02*
X-1637500Y41300000D01*
D79*
X5950000Y39375000D02*
X5900000Y39325000D01*
D81*
X-29300000Y43900000D02*
X-29700000Y43500000D01*
D80*
X12460000Y-1300000D02*
X12300000Y-1460000D01*
D78*
X6400000Y-51000000D02*
X6000000Y-50600000D01*
X33600000Y42000000D02*
X33600000Y43767500D01*
X-28698717Y-38701283D02*
X-28698717Y-39851283D01*
D81*
X-26832500Y43900000D02*
X-25632500Y42700000D01*
D78*
X20342893Y-9757107D02*
X20370945Y-9757107D01*
X-28698717Y-39851283D02*
X-28250000Y-40300000D01*
D79*
X27837500Y48300000D02*
X27837500Y49295000D01*
D78*
X-15200000Y51200000D02*
X-13900000Y49900000D01*
D80*
X-2532500Y40405000D02*
X-2532500Y40050000D01*
D81*
X-30032500Y40800000D02*
X-29700000Y40800000D01*
D79*
X5052622Y39325000D02*
X4913681Y39186059D01*
X5837500Y48600000D02*
X5837500Y46400000D01*
X30464079Y41078640D02*
X30464079Y41418421D01*
D78*
X-13937501Y-4800000D02*
X-14300000Y-4800000D01*
D80*
X20325000Y-5600000D02*
X20550000Y-5375000D01*
D78*
X16637762Y-11590000D02*
X14810000Y-11590000D01*
X17367500Y-12200000D02*
X17247762Y-12200000D01*
X-10070000Y53100000D02*
X-9860000Y52890000D01*
X-13900000Y49900000D02*
X-11100000Y49900000D01*
D81*
X32432500Y44800000D02*
X32500000Y44867500D01*
D80*
X-15362500Y-8550000D02*
X-16200000Y-7712500D01*
X-16200000Y-4150000D02*
X-15600000Y-3550000D01*
D78*
X13125000Y-12950000D02*
X12800000Y-12625000D01*
D81*
X-28250000Y43900000D02*
X-26832500Y43900000D01*
D78*
X-14625000Y-675000D02*
X-14625000Y-1875000D01*
X-17750000Y49150000D02*
X-17750000Y47600000D01*
X17297500Y-15697500D02*
X17500000Y-15900000D01*
D80*
X12300000Y-1460000D02*
X12300000Y-3040000D01*
X1637500Y41700000D02*
X1992500Y42055000D01*
D78*
X23850000Y-6278052D02*
X23850000Y-6197500D01*
X14467500Y51657500D02*
X13250000Y52875000D01*
D79*
X-4582745Y42655514D02*
X-5906986Y42655514D01*
D78*
X20370945Y-9757107D02*
X23850000Y-6278052D01*
X12930000Y53100000D02*
X13140000Y52890000D01*
X-10095651Y-51807248D02*
X-8760252Y-51807248D01*
D79*
X9817500Y46420000D02*
X9837500Y46400000D01*
D81*
X29585000Y41957719D02*
X29585000Y43545000D01*
D78*
X7632500Y-51000000D02*
X8032500Y-51400000D01*
D81*
X29500000Y44400000D02*
X29900000Y44800000D01*
X29900000Y44800000D02*
X32432500Y44800000D01*
X-29067500Y40600000D02*
X-29300000Y40832500D01*
D79*
X-5906986Y42655514D02*
X-5937500Y42625000D01*
D83*
X24750000Y-32800000D02*
X32900000Y-32800000D01*
D78*
X33600000Y43767500D02*
X32500000Y44867500D01*
X14810000Y-11590000D02*
X14750000Y-11650000D01*
D79*
X-5800000Y48600000D02*
X-5800000Y46400000D01*
D80*
X1637500Y39255000D02*
X1637500Y40755000D01*
D78*
X14750000Y-11650000D02*
X13775000Y-11650000D01*
X-19800000Y51200000D02*
X-17750000Y49150000D01*
X-14625000Y-1875000D02*
X-14300000Y-2200000D01*
X-29332500Y47795000D02*
X-28437500Y46900000D01*
X-15400000Y-53600000D02*
X-15167500Y-53600000D01*
D81*
X-29300000Y42050000D02*
X-29300000Y43100000D01*
D78*
X-7547500Y-53020000D02*
X-8167500Y-52400000D01*
X13775000Y-11650000D02*
X12800000Y-12625000D01*
X13125000Y-14575000D02*
X13125000Y-12950000D01*
D81*
X-29700000Y40800000D02*
X-29700000Y42050000D01*
D78*
X29650000Y-38000000D02*
X29151283Y-38498717D01*
X14467500Y49450000D02*
X14467500Y51657500D01*
X7400000Y-51000000D02*
X6400000Y-51000000D01*
D79*
X27837500Y49295000D02*
X27632500Y49500000D01*
D78*
X17297500Y-14700000D02*
X17297500Y-15697500D01*
D81*
X30464079Y41078640D02*
X29900000Y41642719D01*
D79*
X-9800000Y48600000D02*
X-9800000Y46400000D01*
D78*
X-11100000Y49900000D02*
X-9800000Y48600000D01*
D81*
X-29300000Y43100000D02*
X-29700000Y43500000D01*
D80*
X-15600000Y-7981250D02*
X-15600000Y-4418750D01*
D81*
X-30232500Y40600000D02*
X-30032500Y40800000D01*
D79*
X9817500Y48600000D02*
X9817500Y46420000D01*
X30464079Y41418421D02*
X30182500Y41700000D01*
X-7850000Y50132500D02*
X-8282500Y49700000D01*
D78*
X-5222500Y-53020000D02*
X-7547500Y-53020000D01*
D81*
X-29700000Y42050000D02*
X-29700000Y43500000D01*
X30464079Y41078640D02*
X29585000Y41957719D01*
D79*
X-17750000Y45550000D02*
X-17750000Y47600000D01*
X-8700000Y49700000D02*
X-9800000Y48600000D01*
D78*
X-8760252Y-51807248D02*
X-8167500Y-52400000D01*
X29650000Y-37750000D02*
X29650000Y-38000000D01*
X-13850000Y-54275000D02*
X-13250000Y-54875000D01*
X11000000Y-51850000D02*
X11000000Y-51000000D01*
X-19840000Y-27460000D02*
X-20375000Y-27460000D01*
X-17900000Y-29400000D02*
X-19840000Y-27460000D01*
X-17990000Y-27460000D02*
X-15325000Y-27460000D01*
X-12002500Y-48400000D02*
X-12002500Y-47950000D01*
X-18000000Y-27450000D02*
X-17990000Y-27460000D01*
X-12002500Y-47950000D02*
X-11726250Y-47673750D01*
X-13930000Y-51330000D02*
X-13600000Y-51000000D01*
X-13930000Y-51790000D02*
X-13930000Y-51330000D01*
X-35402500Y-24200000D02*
X-29602500Y-30000000D01*
X-29602500Y-30000000D02*
X-20375000Y-30000000D01*
D79*
X-13200000Y-13500000D02*
X-13100000Y-13600000D01*
D78*
X14800000Y-16800000D02*
X14462500Y-16462500D01*
X15000000Y-14400000D02*
X15500000Y-13900000D01*
X-11797500Y-800000D02*
X-11797500Y-805000D01*
D80*
X10895000Y-9095000D02*
X10895000Y-8425000D01*
D78*
X14462500Y-16462500D02*
X14450000Y-16462500D01*
X-18050000Y-24800000D02*
X-16000000Y-22750000D01*
X18200000Y-12800000D02*
X18200000Y-11601250D01*
X-16000000Y-22750000D02*
X-16000000Y-19100000D01*
X-18050000Y-24800000D02*
X-20255000Y-24800000D01*
D80*
X11500000Y-9700000D02*
X10895000Y-9095000D01*
D78*
X-10602500Y-2000000D02*
X-10851250Y-1751250D01*
X-20255000Y-24800000D02*
X-20375000Y-24920000D01*
D79*
X-14625000Y-6425000D02*
X-14625000Y-7562500D01*
D78*
X18200000Y-11601250D02*
X17498750Y-10900000D01*
D79*
X-13637500Y-8550000D02*
X-13200000Y-8987500D01*
D80*
X16700000Y-6400000D02*
X12200000Y-6400000D01*
X11600000Y-7000000D02*
X10895000Y-7705000D01*
D78*
X17498750Y-10900000D02*
X17397500Y-10900000D01*
X15500000Y-13900000D02*
X17100000Y-13900000D01*
D80*
X15000000Y-14400000D02*
X15000000Y-13950000D01*
X16557500Y-5600000D02*
X16557500Y-6705000D01*
X12200000Y-6400000D02*
X11600000Y-7000000D01*
D79*
X-14625000Y-7562500D02*
X-13637500Y-8550000D01*
D78*
X17100000Y-13900000D02*
X18200000Y-12800000D01*
D80*
X16557500Y-6705000D02*
X16852500Y-7000000D01*
X10895000Y-7705000D02*
X10895000Y-8425000D01*
X15000000Y-13950000D02*
X14750000Y-13700000D01*
D79*
X-13200000Y-8987500D02*
X-13200000Y-13500000D01*
D78*
X-11797500Y-805000D02*
X-10851250Y-1751250D01*
X17900000Y-19067500D02*
X18587500Y-19755000D01*
D79*
X21800000Y-15142893D02*
X21800000Y-16400000D01*
D84*
X21900000Y-16500000D02*
X21800000Y-16400000D01*
X21529999Y-19050000D02*
X21900000Y-18679999D01*
X21900000Y-18679999D02*
X21900000Y-16500000D01*
D79*
X22157107Y-12957107D02*
X22157107Y-14785786D01*
D84*
X20750000Y-19050000D02*
X21529999Y-19050000D01*
D79*
X22157107Y-14785786D02*
X21800000Y-15142893D01*
D78*
X20045000Y-19755000D02*
X20750000Y-19050000D01*
X18587500Y-19755000D02*
X20045000Y-19755000D01*
X16232500Y-12200000D02*
X16232500Y-12867500D01*
X16150000Y-12950000D02*
X14750000Y-12950000D01*
X14116116Y583884D02*
X14282500Y750268D01*
X14282500Y750268D02*
X14282500Y2200000D01*
X16232500Y-12867500D02*
X16150000Y-12950000D01*
D83*
X29260000Y-27660000D02*
X28540000Y-27660000D01*
X16100000Y-15700000D02*
X16400000Y-16000000D01*
D80*
X17500000Y-1450000D02*
X20450000Y-1450000D01*
X20450000Y-1450000D02*
X22450000Y-3450000D01*
X16890000Y-3690000D02*
X16890000Y-4200000D01*
X22450000Y-5375000D02*
X22825000Y-5000000D01*
X11300000Y-10700000D02*
X11100000Y-10900000D01*
X16595000Y-2800000D02*
X16595000Y-3395000D01*
D83*
X27700000Y-27700000D02*
X27660000Y-27660000D01*
D80*
X10900000Y-4000000D02*
X11500000Y-4600000D01*
X22450000Y-3450000D02*
X22450000Y-5375000D01*
D83*
X16400000Y-16000000D02*
X16400000Y-17400000D01*
D80*
X16595000Y-2355000D02*
X17500000Y-1450000D01*
D83*
X28500000Y-27700000D02*
X28460000Y-27660000D01*
X27740000Y-27660000D02*
X27700000Y-27700000D01*
X28540000Y-27660000D02*
X28500000Y-27700000D01*
X28460000Y-27660000D02*
X27740000Y-27660000D01*
X31325000Y-27660000D02*
X29340000Y-27660000D01*
D80*
X10900000Y-11100000D02*
X10900000Y-11500000D01*
D83*
X16102500Y-14700000D02*
X16100000Y-14702500D01*
X29340000Y-27660000D02*
X29300000Y-27700000D01*
X27660000Y-27660000D02*
X26275000Y-27660000D01*
D78*
X1900000Y49100000D02*
X-590000Y51590000D01*
D83*
X16100000Y-14702500D02*
X16100000Y-15700000D01*
D80*
X11500000Y-4600000D02*
X16490000Y-4600000D01*
X16490000Y-4600000D02*
X16890000Y-4200000D01*
X16595000Y-3395000D02*
X16890000Y-3690000D01*
D78*
X-590000Y51590000D02*
X-597500Y51590000D01*
D83*
X29300000Y-27700000D02*
X29260000Y-27660000D01*
D80*
X23847500Y-5000000D02*
X23850000Y-5002500D01*
X22825000Y-5000000D02*
X23847500Y-5000000D01*
X11500000Y-14500000D02*
X11600000Y-14600000D01*
X11500000Y-14400000D02*
X10900000Y-13800000D01*
X11700000Y-10700000D02*
X11300000Y-10700000D01*
X11500000Y-14400000D02*
X11500000Y-14500000D01*
D78*
X1900000Y44400000D02*
X1900000Y49100000D01*
D80*
X16595000Y-2800000D02*
X16595000Y-2355000D01*
X11100000Y-10900000D02*
X10900000Y-11100000D01*
D85*
X21250000Y-31200000D02*
X21250000Y-29950000D01*
D79*
X16562500Y-8400000D02*
X16562500Y-9470000D01*
D85*
X21250000Y-29950000D02*
X21400000Y-29800000D01*
X21400000Y-27800000D02*
X23800000Y-25400000D01*
D79*
X16562500Y-9470000D02*
X16232500Y-9800000D01*
D85*
X23800000Y-25400000D02*
X23800000Y-24750000D01*
D80*
X17500000Y-22700000D02*
X17500000Y-27892500D01*
X15500000Y-20700000D02*
X17500000Y-22700000D01*
X20807500Y-31200000D02*
X21250000Y-31200000D01*
X15200000Y-20700000D02*
X15500000Y-20700000D01*
D85*
X21400000Y-29800000D02*
X21400000Y-27800000D01*
D80*
X17500000Y-27892500D02*
X20807500Y-31200000D01*
D78*
X19042500Y-19075000D02*
X17900000Y-17932500D01*
X20750000Y-18100000D02*
X19970001Y-18100000D01*
X19042500Y-19027501D02*
X19042500Y-19097500D01*
X19042500Y-19097500D02*
X19042500Y-19075000D01*
X19970001Y-18100000D02*
X19042500Y-19027501D01*
D86*
X23500000Y-31100000D02*
X24400000Y-30200000D01*
X10650000Y-16762500D02*
X10650000Y-17934925D01*
D79*
X29400000Y49067500D02*
X29400000Y48462500D01*
D78*
X31317500Y41700000D02*
X31317500Y41817500D01*
D83*
X26275000Y-30200000D02*
X31325000Y-30200000D01*
D79*
X-27932500Y40167500D02*
X-27932500Y40600000D01*
D78*
X31500000Y41882500D02*
X31500000Y43040000D01*
D80*
X3321147Y41699999D02*
X4021146Y41000000D01*
X-3825000Y40837500D02*
X-3825000Y40775000D01*
D78*
X-16300000Y5100000D02*
X-16900000Y5700000D01*
X-10602500Y4050000D02*
X-11652500Y5100000D01*
X-29650000Y-38047434D02*
X-29501283Y-37898717D01*
X24601283Y-38601283D02*
X23500000Y-37500000D01*
D79*
X32400000Y47562563D02*
X32443845Y47518718D01*
D78*
X28348717Y-39301283D02*
X27648717Y-38601283D01*
D79*
X32400000Y49389950D02*
X32400000Y47562563D01*
D78*
X41600000Y-22450000D02*
X41600000Y-22848529D01*
X41600000Y-22848529D02*
X40381029Y-24067500D01*
X8900000Y-52050000D02*
X9167500Y-51782500D01*
D80*
X4021146Y41000000D02*
X6500000Y41000000D01*
D78*
X34700000Y-30200000D02*
X31325000Y-30200000D01*
D81*
X29600000Y46635000D02*
X29135000Y47100000D01*
D78*
X-27300000Y40700000D02*
X-27300000Y41550000D01*
D80*
X-3667500Y40050000D02*
X-4617500Y41000000D01*
D78*
X-11652500Y5100000D02*
X-16300000Y5100000D01*
X2545000Y43055000D02*
X3545000Y42055000D01*
X40300000Y24432500D02*
X42125000Y26257500D01*
X-10475000Y-52400000D02*
X-9750000Y-53125000D01*
D86*
X22900000Y-38100000D02*
X23500000Y-37500000D01*
D78*
X-10602500Y4050000D02*
X-10602500Y2850000D01*
X-7850000Y51267500D02*
X-8717500Y50400000D01*
D79*
X-31367500Y40600000D02*
X-31367500Y40167500D01*
X-31000000Y39800000D02*
X-28300000Y39800000D01*
D78*
X-30467500Y48100000D02*
X-30467500Y47205000D01*
X-14600000Y-52600000D02*
X-14400000Y-52400000D01*
D79*
X29400000Y48462500D02*
X29562500Y48300000D01*
D78*
X-41750000Y-24350000D02*
X-40332500Y-22932500D01*
X-14400000Y-52400000D02*
X-10475000Y-52400000D01*
X-27300000Y41550000D02*
X-28250000Y42500000D01*
X31317500Y41817500D02*
X31700000Y42200000D01*
D79*
X28900000Y49500000D02*
X29400000Y49000000D01*
X29832500Y49521684D02*
X30520816Y50210000D01*
D80*
X-41150000Y24500000D02*
X-41150000Y24225000D01*
D78*
X11100000Y52100000D02*
X10725000Y52100000D01*
X28348717Y-39301283D02*
X30661280Y-39301283D01*
D86*
X10650000Y-17934925D02*
X10700000Y-17984925D01*
D81*
X-30162500Y46077352D02*
X-30162500Y46900000D01*
D78*
X-27400000Y40600000D02*
X-27300000Y40700000D01*
D80*
X-26763173Y38236827D02*
X-27300000Y38773654D01*
D78*
X-31148529Y46900000D02*
X-30162500Y46900000D01*
X-2532500Y39050000D02*
X-2550000Y39050000D01*
X40381029Y-24067500D02*
X40300000Y-24067500D01*
X-29650000Y-39200000D02*
X-29650000Y-40312563D01*
D80*
X3767500Y40925000D02*
X3597500Y40755000D01*
X3321147Y41699999D02*
X3362500Y41658646D01*
D78*
X-3575735Y48475735D02*
X-3575735Y48526165D01*
X-12525000Y50400000D02*
X-13250000Y51125000D01*
D79*
X29562500Y47895000D02*
X28767500Y47100000D01*
D78*
X11100000Y51450000D02*
X13100000Y49450000D01*
D79*
X31579950Y50210000D02*
X32400000Y49389950D01*
D80*
X-41150000Y24225000D02*
X-42125000Y23250000D01*
D78*
X13100000Y49450000D02*
X13332500Y49450000D01*
X-40332500Y-22932500D02*
X-40300000Y-22932500D01*
D79*
X29562500Y48300000D02*
X29562500Y47895000D01*
D78*
X31500000Y43040000D02*
X30950000Y43590000D01*
D86*
X24400000Y-30200000D02*
X26275000Y-30200000D01*
D78*
X-33787563Y46175000D02*
X-31873529Y46175000D01*
X-41750000Y-24400000D02*
X-41750000Y-24350000D01*
D79*
X29832500Y49500000D02*
X29832500Y49521684D01*
D78*
X-30467500Y47205000D02*
X-30162500Y46900000D01*
X-29650000Y-40312563D02*
X-29243845Y-40718718D01*
X-29650000Y-39200000D02*
X-29650000Y-38047434D01*
D86*
X23500000Y-37500000D02*
X23500000Y-31100000D01*
D80*
X-3362500Y41300000D02*
X-3825000Y40837500D01*
D78*
X10725000Y52100000D02*
X9750000Y51125000D01*
X37000000Y-32500000D02*
X34700000Y-30200000D01*
D81*
X-29700000Y44950000D02*
X-29700000Y45614852D01*
D78*
X-3575735Y48526165D02*
X-6317070Y51267500D01*
D79*
X28767500Y49500000D02*
X28900000Y49500000D01*
D78*
X-6317070Y51267500D02*
X-7850000Y51267500D01*
D80*
X-4617500Y41000000D02*
X-6400000Y41000000D01*
D78*
X-2550000Y39050000D02*
X-3550000Y40050000D01*
D80*
X-27300000Y39967500D02*
X-27932500Y40600000D01*
D78*
X30661280Y-39301283D02*
X31618718Y-38343845D01*
X-27932500Y40600000D02*
X-27400000Y40600000D01*
D80*
X-41150000Y24500000D02*
X-41150000Y24809894D01*
D78*
X42125000Y26257500D02*
X42125000Y26750000D01*
D86*
X11900000Y-38100000D02*
X22900000Y-38100000D01*
D78*
X2482500Y43055000D02*
X2545000Y43055000D01*
X11100000Y52100000D02*
X11100000Y51450000D01*
D79*
X-28300000Y39800000D02*
X-27932500Y40167500D01*
D78*
X-28250000Y42500000D02*
X-28250000Y42550000D01*
X-8717500Y50400000D02*
X-12525000Y50400000D01*
D81*
X29600000Y45850000D02*
X29600000Y46635000D01*
D79*
X29832500Y49500000D02*
X29400000Y49067500D01*
D78*
X-3550000Y40050000D02*
X-3667500Y40050000D01*
D80*
X3597500Y40755000D02*
X3362500Y40755000D01*
D78*
X-34918718Y45043845D02*
X-33787563Y46175000D01*
X-31873529Y46175000D02*
X-31148529Y46900000D01*
X27648717Y-38601283D02*
X24601283Y-38601283D01*
D80*
X-41150000Y24809894D02*
X-40392394Y25567500D01*
D78*
X3545000Y42055000D02*
X3617500Y42055000D01*
X9167500Y-51782500D02*
X9167500Y-51400000D01*
D80*
X-27300000Y38773654D02*
X-27300000Y39967500D01*
X3362500Y41658646D02*
X3362500Y40755000D01*
D79*
X-31367500Y40167500D02*
X-31000000Y39800000D01*
D81*
X29135000Y47100000D02*
X28767500Y47100000D01*
D79*
X30520816Y50210000D02*
X31579950Y50210000D01*
D81*
X-29700000Y45614852D02*
X-30162500Y46077352D01*
D80*
X-40392394Y25567500D02*
X-40300000Y25567500D01*
D86*
X10700000Y-36900000D02*
X11900000Y-38100000D01*
D78*
X31317500Y41700000D02*
X31500000Y41882500D01*
D86*
X10950000Y-16462500D02*
X10650000Y-16762500D01*
X10700000Y-17984925D02*
X10700000Y-36900000D01*
D78*
X4725000Y41975000D02*
X5950000Y41975000D01*
X3617500Y43055000D02*
X3645000Y43055000D01*
X3645000Y43055000D02*
X4725000Y41975000D01*
X36200000Y-25600000D02*
X37600000Y-27000000D01*
X-11600000Y-51000000D02*
X-11600000Y-50600000D01*
X32500000Y-24800000D02*
X32300000Y-25000000D01*
D79*
X-22300000Y47550000D02*
X-22250000Y47600000D01*
D78*
X-11600000Y-51000000D02*
X-11600000Y-50200000D01*
X35100000Y-24800000D02*
X32500000Y-24800000D01*
D79*
X-2800000Y43083142D02*
X-2800000Y42300000D01*
D78*
X-22400000Y47750000D02*
X-22400000Y51200000D01*
X16100000Y51242500D02*
X16100000Y51997500D01*
X20000000Y52600000D02*
X20700000Y51900000D01*
X-4495000Y-47295000D02*
X-4125000Y-47295000D01*
D83*
X13985000Y29000000D02*
X21100000Y29000000D01*
D80*
X3362500Y38422500D02*
X3362500Y39255000D01*
D79*
X3320000Y38380000D02*
X620000Y38380000D01*
X620000Y38380000D02*
X0Y39000000D01*
D80*
X3320000Y38380000D02*
X3362500Y38422500D01*
X18500000Y34800000D02*
X18500000Y40600000D01*
D78*
X4000000Y-51000000D02*
X6000000Y-49000000D01*
D83*
X12075000Y27090000D02*
X13985000Y29000000D01*
D79*
X4132500Y40025000D02*
X5950000Y40025000D01*
D78*
X32500000Y-25600000D02*
X36200000Y-25600000D01*
D79*
X-1066858Y43675000D02*
X-2208142Y43675000D01*
D80*
X12075000Y32200000D02*
X15900000Y32200000D01*
X4700000Y36700000D02*
X4800000Y36600000D01*
D78*
X20700000Y51900000D02*
X20700000Y51242500D01*
X-22400000Y51700000D02*
X-22400000Y51200000D01*
D80*
X-4125000Y-47295000D02*
X-2905000Y-47295000D01*
D78*
X-100000Y-48400000D02*
X-1700000Y-50000000D01*
X20000000Y52600000D02*
X24600000Y52600000D01*
X3600000Y-50600000D02*
X3600000Y-49800000D01*
X4000000Y-51000000D02*
X3600000Y-50600000D01*
D80*
X-2905000Y-47295000D02*
X-1700000Y-48500000D01*
X4800000Y36600000D02*
X10700000Y36600000D01*
D78*
X-13197500Y-48602500D02*
X-13197500Y-48400000D01*
X6000000Y-49000000D02*
X8002500Y-49000000D01*
X35800000Y-24100000D02*
X35100000Y-24800000D01*
X13000000Y-49997500D02*
X11402500Y-48400000D01*
D79*
X0Y39000000D02*
X0Y42608142D01*
D78*
X32300000Y-25000000D02*
X31900000Y-25000000D01*
D83*
X12075000Y27090000D02*
X12075000Y33196814D01*
D78*
X31900000Y-25000000D02*
X32500000Y-25600000D01*
D79*
X-22300000Y45600000D02*
X-22300000Y47550000D01*
D78*
X-36597500Y-24200000D02*
X-36597500Y-25402500D01*
X24600000Y52600000D02*
X25300000Y51900000D01*
X-23300000Y52600000D02*
X-22400000Y51700000D01*
D80*
X4700000Y37000000D02*
X4700000Y36700000D01*
D78*
X-11600000Y-50200000D02*
X-13197500Y-48602500D01*
D79*
X0Y42608142D02*
X-1066858Y43675000D01*
D78*
X-6365000Y-49165000D02*
X-4495000Y-47295000D01*
X17750000Y49042500D02*
X16100000Y50692500D01*
X13000000Y-51000000D02*
X13000000Y-49997500D01*
D79*
X4700000Y37000000D02*
X3320000Y38380000D01*
D78*
X-17800000Y51900000D02*
X-17800000Y51200000D01*
D80*
X10700000Y36600000D02*
X12075000Y35225000D01*
X12075000Y35225000D02*
X12075000Y33196814D01*
D78*
X-36597500Y-25402500D02*
X-35000000Y-27000000D01*
X16100000Y51997500D02*
X16702500Y52600000D01*
D80*
X-1700000Y-48500000D02*
X-1700000Y-50000000D01*
D78*
X-26355000Y52600000D02*
X-23300000Y52600000D01*
X-13600000Y-48400000D02*
X-35000000Y-27000000D01*
D80*
X15900000Y32200000D02*
X18500000Y34800000D01*
D78*
X-18500000Y52600000D02*
X-17800000Y51900000D01*
D80*
X17750000Y41350000D02*
X17750000Y45750000D01*
D79*
X-3808142Y42300000D02*
X-4133142Y41975000D01*
X-2800000Y42300000D02*
X-3808142Y42300000D01*
X-2208142Y43675000D02*
X-2800000Y43083142D01*
D78*
X11402500Y-48002500D02*
X11402500Y-48400000D01*
D79*
X3362500Y39255000D02*
X4132500Y40025000D01*
D78*
X35802500Y-24100000D02*
X35800000Y-24100000D01*
X11000000Y-47600000D02*
X11402500Y-48002500D01*
X-13197500Y-48400000D02*
X-13600000Y-48400000D01*
X3600000Y-49800000D02*
X2200000Y-48400000D01*
X-10165000Y-49165000D02*
X-6365000Y-49165000D01*
D80*
X12075000Y33196814D02*
X12075000Y32200000D01*
D78*
X-27000000Y51955000D02*
X-26355000Y52600000D01*
X-22250000Y47600000D02*
X-22400000Y47750000D01*
D80*
X18500000Y40600000D02*
X17750000Y41350000D01*
D78*
X-11600000Y-50600000D02*
X-10165000Y-49165000D01*
X25300000Y51900000D02*
X25300000Y51242500D01*
X2200000Y-48400000D02*
X-100000Y-48400000D01*
X-23300000Y52600000D02*
X-18500000Y52600000D01*
X16100000Y50692500D02*
X16100000Y51242500D01*
D79*
X-4133142Y41975000D02*
X-5937500Y41975000D01*
D78*
X-27000000Y51200000D02*
X-27000000Y51955000D01*
X16702500Y52600000D02*
X20000000Y52600000D01*
X17750000Y47600000D02*
X17750000Y49042500D01*
X-3667500Y39050000D02*
X-3750000Y39050000D01*
X-3750000Y39050000D02*
X-4725000Y40025000D01*
X-4725000Y40025000D02*
X-5937500Y40025000D01*
D81*
X32500000Y43732500D02*
X31832500Y44400000D01*
X31832500Y44400000D02*
X31050000Y44400000D01*
X-26767500Y42700000D02*
X-26767500Y43167500D01*
X-27100000Y43500000D02*
X-28250000Y43500000D01*
X-26767500Y43167500D02*
X-27100000Y43500000D01*
X28150000Y44800000D02*
X27100000Y44800000D01*
X27100000Y44800000D02*
X26825000Y45075000D01*
X27400000Y47100000D02*
X27632500Y47100000D01*
X26825000Y45075000D02*
X26825000Y46525000D01*
X26825000Y46525000D02*
X27400000Y47100000D01*
X-32132500Y43900000D02*
X-31150000Y43900000D01*
X-32332500Y44100000D02*
X-32132500Y43900000D01*
D78*
X21750000Y-49450000D02*
X30650000Y-40550000D01*
X10475000Y-53850000D02*
X18850000Y-53850000D01*
X31887437Y-40550000D02*
X32856155Y-39581282D01*
X18850000Y-53850000D02*
X21750000Y-50950000D01*
X30650000Y-40550000D02*
X31887437Y-40550000D01*
X9750000Y-53125000D02*
X10475000Y-53850000D01*
X21750000Y-50950000D02*
X21750000Y-49450000D01*
X-1480000Y-51780000D02*
X-5177500Y-51780000D01*
X-5177500Y-51780000D02*
X-5797500Y-52400000D01*
X300000Y-50000000D02*
X-1480000Y-51780000D01*
X-7032500Y-52400000D02*
X-7032500Y-50967500D01*
X-8165000Y-49835000D02*
X-9075000Y-49835000D01*
X-5797500Y-52400000D02*
X-7032500Y-52400000D01*
X-7032500Y-50967500D02*
X-8165000Y-49835000D01*
X1700000Y-50000000D02*
X300000Y-50000000D01*
X31200000Y-40000000D02*
X29962563Y-40000000D01*
X42850000Y-24100000D02*
X42850000Y-28350000D01*
X43875000Y-21750000D02*
X43875000Y-23075000D01*
X29962563Y-40000000D02*
X29143845Y-40818718D01*
X43875000Y-23075000D02*
X42850000Y-24100000D01*
X42850000Y-28350000D02*
X31200000Y-40000000D01*
D79*
X27600000Y37900000D02*
X23040000Y33340000D01*
D81*
X31260002Y45410002D02*
X31050000Y45200000D01*
D79*
X27600000Y40600000D02*
X27600000Y37900000D01*
D81*
X31300000Y45410002D02*
X31260002Y45410002D01*
D79*
X32085000Y41385000D02*
X32085000Y41310816D01*
X30600000Y47400000D02*
X30100000Y46900000D01*
X30600000Y48200000D02*
X30600000Y47400000D01*
X25200000Y31700000D02*
X24000000Y31700000D01*
X31900000Y41125816D02*
X31900000Y40600000D01*
X31300000Y37800000D02*
X25200000Y31700000D01*
X32500000Y41800000D02*
X32085000Y41385000D01*
X30100000Y46879975D02*
X30100000Y46630000D01*
X32085000Y41310816D02*
X31900000Y41125816D01*
D81*
X30000000Y46480000D02*
X30000000Y45850000D01*
D79*
X31900000Y40600000D02*
X31300000Y40000000D01*
X31300000Y40000000D02*
X31300000Y37800000D01*
X28400000Y41300000D02*
X28500000Y41200000D01*
X28500000Y36900000D02*
X24950000Y33350000D01*
D81*
X28150000Y45200000D02*
X27456587Y45893413D01*
D79*
X28500000Y41200000D02*
X28500000Y36900000D01*
D81*
X27456587Y45893413D02*
X27456587Y46200000D01*
D79*
X-25563862Y33363862D02*
X-24950000Y33363862D01*
X-28400000Y37293633D02*
X-28400000Y36200000D01*
D81*
X-27715000Y44300000D02*
X-27700000Y44285000D01*
D78*
X-27390000Y44285000D02*
X-27200000Y44475000D01*
X-27700000Y44285000D02*
X-27390000Y44285000D01*
X-27200000Y44475000D02*
X-27200000Y45300000D01*
D79*
X-27640320Y38053313D02*
X-28400000Y37293633D01*
X-28400000Y36200000D02*
X-25563862Y33363862D01*
D81*
X-28250000Y44300000D02*
X-27715000Y44300000D01*
D79*
X-28441792Y38100369D02*
X-29000000Y37542161D01*
D81*
X-28948006Y46019465D02*
X-28864318Y45935777D01*
D79*
X-25213862Y31713862D02*
X-24000000Y31713862D01*
X-28441792Y38241792D02*
X-28441792Y38100369D01*
D84*
X-29200000Y45700000D02*
X-29200000Y46019465D01*
D79*
X-29000000Y37542161D02*
X-29000000Y35500000D01*
D81*
X-29300000Y45500095D02*
X-29300000Y44950000D01*
X-29200000Y46019465D02*
X-28948006Y46019465D01*
X-28864318Y45935777D02*
X-29300000Y45500095D01*
D79*
X-29000000Y35500000D02*
X-25213862Y31713862D01*
X-29622149Y37862990D02*
X-29600000Y37840841D01*
X-23100000Y30100000D02*
X-22200000Y31000000D01*
X-25200000Y30100000D02*
X-23100000Y30100000D01*
X-22200000Y31000000D02*
X-22200000Y32513862D01*
X-22200000Y32513862D02*
X-23050000Y33363862D01*
X-31150000Y44550000D02*
X-31500000Y44900000D01*
X-29600000Y34500000D02*
X-25200000Y30100000D01*
D81*
X-31150000Y44300000D02*
X-31150000Y44550000D01*
D79*
X-29600000Y37840841D02*
X-29600000Y34500000D01*
D78*
X2900000Y47331372D02*
X3300000Y47731372D01*
X13775552Y-7300000D02*
X12600000Y-7300000D01*
X3300000Y47731372D02*
X3300000Y50009972D01*
X13525552Y-9800000D02*
X13125000Y-10200552D01*
X-450000Y53020000D02*
X-812500Y53020000D01*
X2500000Y45500000D02*
X2900000Y45900000D01*
X14100000Y-9800000D02*
X14100000Y-9355552D01*
X1099972Y52210000D02*
X360000Y52210000D01*
X12165000Y-7735000D02*
X12165000Y-8425000D01*
X2900000Y45900000D02*
X2900000Y47331372D01*
X14100000Y-9355552D02*
X14035000Y-9290552D01*
X13125000Y-10200552D02*
X13125000Y-10675000D01*
X360000Y52210000D02*
X-450000Y53020000D01*
X14035000Y-9290552D02*
X14035000Y-7559448D01*
X14035000Y-7559448D02*
X13775552Y-7300000D01*
X14100000Y-9800000D02*
X13525552Y-9800000D01*
X3300000Y50009972D02*
X1099972Y52210000D01*
X12600000Y-7300000D02*
X12165000Y-7735000D01*
X-2387500Y53020000D02*
X-2567500Y53200000D01*
X-2387500Y52827500D02*
X-2387500Y53020000D01*
X597500Y51590000D02*
X414972Y51590000D01*
X-1770000Y52210000D02*
X-2387500Y52827500D01*
X-2567500Y53200000D02*
X-5200000Y53200000D01*
X2567500Y53200000D02*
X2387500Y53020000D01*
X5200000Y53200000D02*
X2567500Y53200000D01*
X414972Y51590000D02*
X-205028Y52210000D01*
X597500Y51800000D02*
X597500Y51590000D01*
X-205028Y52210000D02*
X-1770000Y52210000D01*
X13275000Y-8425000D02*
X13435000Y-8425000D01*
X3300000Y45451471D02*
X3300000Y47165686D01*
X3300000Y47165686D02*
X3700000Y47565686D01*
X992500Y53020000D02*
X812500Y53020000D01*
X12475000Y-10250001D02*
X12475000Y-10675000D01*
X13435000Y-9290001D02*
X12475000Y-10250001D01*
X13100000Y-8600000D02*
X13275000Y-8425000D01*
X13100000Y-8600000D02*
X13435000Y-8935000D01*
X2900000Y44400000D02*
X2900000Y45051471D01*
X3700000Y50312500D02*
X992500Y53020000D01*
X3700000Y47565686D02*
X3700000Y50312500D01*
X2800000Y44300000D02*
X2900000Y44400000D01*
X13435000Y-8935000D02*
X13435000Y-9290001D01*
X2900000Y45051471D02*
X3300000Y45451471D01*
X43875000Y25375000D02*
X43875000Y26750000D01*
X28500000Y-24100000D02*
X26300000Y-21900000D01*
X36917238Y-21700000D02*
X33900000Y-21700000D01*
X40467238Y-25250000D02*
X36917238Y-21700000D01*
X42850000Y22200000D02*
X42850000Y24350000D01*
X27200000Y-17900000D02*
X27200000Y21000000D01*
X31500000Y-24100000D02*
X28500000Y-24100000D01*
X42850000Y24350000D02*
X43875000Y25375000D01*
X26300000Y-18800000D02*
X27200000Y-17900000D01*
X26300000Y-21900000D02*
X26300000Y-18800000D01*
X42125000Y-25250000D02*
X40467238Y-25250000D01*
X40600000Y21450000D02*
X42100000Y21450000D01*
X27200000Y21000000D02*
X32400000Y26200000D01*
X32400000Y26200000D02*
X35850000Y26200000D01*
X42100000Y21450000D02*
X42850000Y22200000D01*
X35850000Y26200000D02*
X40600000Y21450000D01*
X33900000Y-21700000D02*
X31500000Y-24100000D01*
X25002500Y-18100000D02*
X25100000Y-18002500D01*
X23450000Y-18100000D02*
X25002500Y-18100000D01*
X14705000Y-9402500D02*
X14705000Y-8425000D01*
X16202500Y-10900000D02*
X14705000Y-9402500D01*
X13400000Y-3140000D02*
X13435000Y-3175000D01*
X14700000Y-1100000D02*
X13400000Y-2400000D01*
X14700000Y-800000D02*
X14700000Y-1100000D01*
X13400000Y-2400000D02*
X13400000Y-3140000D01*
X-18220000Y-35080000D02*
X-20375000Y-35080000D01*
X-17925000Y-35375000D02*
X-18220000Y-35080000D01*
X16547794Y10500000D02*
X15300000Y10500000D01*
X20750000Y37450000D02*
X20750000Y47600000D01*
X15300000Y10500000D02*
X13950000Y11850000D01*
X13950000Y11850000D02*
X12075000Y11850000D01*
X16647794Y10600000D02*
X16547794Y10500000D01*
X20100000Y36800000D02*
X20750000Y37450000D01*
D79*
X22500000Y39600000D02*
X22500000Y43700000D01*
X14510050Y41100000D02*
X13658578Y41100000D01*
X13233578Y40675000D02*
X11675000Y40675000D01*
X13658578Y41100000D02*
X13233578Y40675000D01*
X22500000Y43700000D02*
X23750000Y44950000D01*
X23600000Y38500000D02*
X22500000Y39600000D01*
X23750000Y44950000D02*
X23750000Y47600000D01*
D78*
X16647794Y13100000D02*
X15400000Y13100000D01*
X19250000Y36800000D02*
X19250000Y47600000D01*
X15400000Y13100000D02*
X14110000Y14390000D01*
X14110000Y14390000D02*
X12075000Y14390000D01*
D79*
X14175000Y39375000D02*
X11675000Y39375000D01*
X16700000Y47150000D02*
X16250000Y47600000D01*
X16700000Y41480761D02*
X16700000Y47150000D01*
X14500000Y39700000D02*
X14175000Y39375000D01*
X17600000Y37700000D02*
X17600000Y40580761D01*
X17600000Y40580761D02*
X16700000Y41480761D01*
X-13239987Y41325000D02*
X-11662500Y41325000D01*
X-13900000Y41985013D02*
X-13239987Y41325000D01*
X-13900000Y42000000D02*
X-16250000Y44350000D01*
X-16250000Y44350000D02*
X-16250000Y47600000D01*
X-13900000Y42000000D02*
X-13900000Y41985013D01*
D78*
X-20505025Y45300000D02*
X-20750000Y45544975D01*
X14040000Y15700000D02*
X15350000Y14390000D01*
X13800000Y15700000D02*
X14040000Y15700000D01*
X15350000Y14390000D02*
X17125000Y14390000D01*
X-20750000Y45544975D02*
X-20750000Y47600000D01*
D79*
X-22300000Y42946974D02*
X-23750000Y44396974D01*
X-12595471Y42712149D02*
X-12508322Y42625000D01*
X-12508322Y42625000D02*
X-11662500Y42625000D01*
X-23750000Y44396974D02*
X-23750000Y47600000D01*
X-25900000Y39500000D02*
X-22453026Y42946974D01*
X-12735677Y42712149D02*
X-12595471Y42712149D01*
X-22453026Y42946974D02*
X-22300000Y42946974D01*
X-12970502Y42946974D02*
X-12735677Y42712149D01*
D78*
X14200000Y13100000D02*
X15450000Y11850000D01*
X15450000Y11850000D02*
X17125000Y11850000D01*
D79*
X-19250000Y45200000D02*
X-19250000Y47600000D01*
X13035050Y41325000D02*
X11675000Y41325000D01*
X13410050Y41700000D02*
X13035050Y41325000D01*
X14314579Y41887851D02*
X14126728Y41700000D01*
X14126728Y41700000D02*
X13410050Y41700000D01*
X-11687500Y40700000D02*
X-11662500Y40675000D01*
X-15200000Y40700000D02*
X-11687500Y40700000D01*
X-15600000Y40300000D02*
X-15200000Y40700000D01*
X-12449999Y39375000D02*
X-11662500Y39375000D01*
X-14000000Y39300000D02*
X-12524999Y39300000D01*
X-12524999Y39300000D02*
X-12449999Y39375000D01*
D78*
X13000000Y18300000D02*
X13980000Y18300000D01*
X-12073286Y37014214D02*
X-11662500Y37425000D01*
X-14314214Y37014214D02*
X-12073286Y37014214D01*
X13980000Y18300000D02*
X15350000Y16930000D01*
X15350000Y16930000D02*
X17125000Y16930000D01*
X17074135Y37401600D02*
X16700000Y37775735D01*
X13464215Y43900000D02*
X12789215Y44575000D01*
X14900000Y43900000D02*
X13464215Y43900000D01*
X16700000Y40773654D02*
X16200000Y41273654D01*
X14070000Y16930000D02*
X12075000Y16930000D01*
X16647794Y15700000D02*
X15300000Y15700000D01*
X15300000Y15700000D02*
X14070000Y16930000D01*
X16200000Y41273654D02*
X16200000Y42600000D01*
X17074135Y36798209D02*
X17074135Y37401600D01*
X16700000Y37775735D02*
X16700000Y40773654D01*
X12789215Y44575000D02*
X11675000Y44575000D01*
X16200000Y42600000D02*
X14900000Y43900000D01*
X3700000Y47000000D02*
X3700000Y44087501D01*
X14110000Y9310000D02*
X12075000Y9310000D01*
X5162501Y42625000D02*
X5950000Y42625000D01*
X16247794Y8200000D02*
X15220000Y8200000D01*
X4500000Y48100000D02*
X4500000Y47800000D01*
X4500000Y47800000D02*
X3700000Y47000000D01*
X3700000Y44087501D02*
X5162501Y42625000D01*
X15220000Y8200000D02*
X14110000Y9310000D01*
X15700000Y37594329D02*
X15700000Y38372007D01*
X12957843Y43275000D02*
X11675000Y43275000D01*
X15700000Y38372007D02*
X15300000Y38772007D01*
X15300000Y42200000D02*
X14400000Y43100000D01*
X14400000Y43100000D02*
X13132843Y43100000D01*
X14150000Y24550000D02*
X12075000Y24550000D01*
X15300000Y38772007D02*
X15300000Y42200000D01*
X13132843Y43100000D02*
X12957843Y43275000D01*
X15400000Y23300000D02*
X14150000Y24550000D01*
X17047794Y23300000D02*
X15400000Y23300000D01*
X14090000Y22010000D02*
X12075000Y22010000D01*
X5851456Y44673544D02*
X5950000Y44575000D01*
X15300000Y20800000D02*
X14090000Y22010000D01*
X21555000Y50797500D02*
X22000000Y51242500D01*
X16647794Y20800000D02*
X15300000Y20800000D01*
X5851456Y45200000D02*
X5851456Y44673544D01*
X21555000Y42400000D02*
X21555000Y50797500D01*
X-4072762Y38440000D02*
X-4335000Y38702238D01*
X-800000Y39000000D02*
X-1360000Y38440000D01*
X14200000Y10500000D02*
X15390000Y9310000D01*
X-1360000Y38440000D02*
X-4072762Y38440000D01*
X-4335000Y38702238D02*
X-4335000Y38835000D01*
X15390000Y9310000D02*
X17125000Y9310000D01*
X-4335000Y38835000D02*
X-4875000Y39375000D01*
X13700000Y10500000D02*
X14200000Y10500000D01*
X-4875000Y39375000D02*
X-5937500Y39375000D01*
X-13852332Y37667413D02*
X-13519745Y38000000D01*
X-11737500Y38000000D02*
X-11662500Y38075000D01*
X13000000Y20800000D02*
X13400000Y20400000D01*
X14400000Y20400000D02*
X15330000Y19470000D01*
X13400000Y20400000D02*
X14400000Y20400000D01*
X15330000Y19470000D02*
X17125000Y19470000D01*
X-13519745Y38000000D02*
X-11737500Y38000000D01*
X13000000Y25550002D02*
X14449998Y25550002D01*
X-14900000Y38900000D02*
X-14700000Y38700000D01*
X-11687500Y38700000D02*
X-11662500Y38725000D01*
X14449998Y25550002D02*
X15450000Y24550000D01*
X15450000Y24550000D02*
X17125000Y24550000D01*
X-14700000Y38700000D02*
X-11687500Y38700000D01*
X15700000Y41200000D02*
X15700000Y42400000D01*
X14600000Y43500000D02*
X13298529Y43500000D01*
X15340000Y18200000D02*
X14070000Y19470000D01*
X15700000Y42400000D02*
X14600000Y43500000D01*
X14070000Y19470000D02*
X12075000Y19470000D01*
X16647794Y18200000D02*
X15340000Y18200000D01*
X16300000Y37000000D02*
X16300000Y40600000D01*
X12873529Y43925000D02*
X11675000Y43925000D01*
X16300000Y40600000D02*
X15700000Y41200000D01*
X13298529Y43500000D02*
X12873529Y43925000D01*
X-21500000Y50800000D02*
X-21100000Y51200000D01*
X-21500000Y44900000D02*
X-21500000Y50800000D01*
X-21684877Y44850841D02*
X-21549159Y44850841D01*
X-6762500Y36600000D02*
X-5937500Y37425000D01*
X-13879899Y36600000D02*
X-6762500Y36600000D01*
X-14614214Y36414214D02*
X-14065685Y36414214D01*
X-15775735Y37824265D02*
X-15775735Y37575735D01*
X-17100000Y44400000D02*
X-17100000Y39100000D01*
X15390000Y22010000D02*
X17125000Y22010000D01*
X13000000Y23300000D02*
X14100000Y23300000D01*
X-15824265Y37824265D02*
X-15775735Y37824265D01*
X-15775735Y37575735D02*
X-14614214Y36414214D01*
X-17100000Y39100000D02*
X-15824265Y37824265D01*
X-14065685Y36414214D02*
X-13879899Y36600000D01*
X-21549159Y44850841D02*
X-21500000Y44900000D01*
X14100000Y23300000D02*
X15390000Y22010000D01*
X-15325000Y-30000000D02*
X-16525000Y-31200000D01*
X-22800000Y-38550000D02*
X-15050000Y-46300000D01*
X-22450000Y-31200000D02*
X-22800000Y-31550000D01*
X-10070000Y-46300000D02*
X-9075000Y-47295000D01*
X-16525000Y-31200000D02*
X-22450000Y-31200000D01*
X-22800000Y-31550000D02*
X-22800000Y-38550000D01*
X-15050000Y-46300000D02*
X-10070000Y-46300000D01*
X-17350000Y-35648529D02*
X-17350000Y-42550000D01*
X-17350000Y-35101471D02*
X-17325000Y-35126471D01*
D81*
X3950000Y-54100000D02*
X7000000Y-54100000D01*
D78*
X-17350000Y-42550000D02*
X-14100000Y-45800000D01*
X-20375000Y-32540000D02*
X-17710000Y-32540000D01*
X8397500Y-49800000D02*
X9197500Y-49000000D01*
X5997500Y-45800000D02*
X9197500Y-49000000D01*
X-17350000Y-32900000D02*
X-17350000Y-35101471D01*
X-14100000Y-45800000D02*
X5997500Y-45800000D01*
X-17710000Y-32540000D02*
X-17350000Y-32900000D01*
X7600000Y-50000000D02*
X7800000Y-49800000D01*
X-17325000Y-35623529D02*
X-17350000Y-35648529D01*
X-17325000Y-35126471D02*
X-17325000Y-35623529D01*
X7800000Y-49800000D02*
X8397500Y-49800000D01*
X-11232500Y-170000D02*
X-12820000Y-170000D01*
X21500000Y-7250000D02*
X21150000Y-7250000D01*
X-13600000Y-32600000D02*
X-15265000Y-32600000D01*
X12850000Y-16462500D02*
X12475000Y-16087500D01*
X-15265000Y-32600000D02*
X-15325000Y-32540000D01*
X-12820000Y-170000D02*
X-13325000Y-675000D01*
X-10602500Y-800000D02*
X-11232500Y-170000D01*
X12475000Y-16087500D02*
X12475000Y-14575000D01*
X13400000Y35200000D02*
X11675000Y36925000D01*
X13400000Y33100000D02*
X13400000Y35200000D01*
X11675000Y36925000D02*
X11675000Y37425000D01*
D81*
X-15200000Y14700000D02*
X-15980000Y13920000D01*
X-30700000Y32200000D02*
X-30700000Y27600000D01*
X-20500000Y17400000D02*
X-15400000Y17400000D01*
X-15980000Y13920000D02*
X-17125000Y13920000D01*
X-15200000Y17200000D02*
X-15200000Y14700000D01*
X-32900000Y39013811D02*
X-32900000Y34400000D01*
X-32500000Y42415000D02*
X-31815000Y43100000D01*
X-15400000Y17400000D02*
X-15200000Y17200000D01*
X-32900000Y34400000D02*
X-30700000Y32200000D01*
X-32500000Y42300000D02*
X-32500000Y42415000D01*
X-30700000Y27600000D02*
X-20500000Y17400000D01*
X-31815000Y43100000D02*
X-31150000Y43100000D01*
X-32813810Y39100001D02*
X-32900000Y39013811D01*
D78*
X-20844975Y38344975D02*
X-20644975Y38344975D01*
D81*
X27600000Y41900000D02*
X28715000Y41900000D01*
X29200000Y42385000D02*
X29200000Y42950000D01*
D78*
X-14900000Y32600000D02*
X-14900000Y24365000D01*
X-14900000Y24365000D02*
X-12075000Y21540000D01*
D81*
X28715000Y41900000D02*
X29200000Y42385000D01*
D78*
X-20644975Y38344975D02*
X-14900000Y32600000D01*
D81*
X26600000Y40900000D02*
X27600000Y41900000D01*
X-14500000Y12700000D02*
X-13180000Y11380000D01*
X-31555800Y39655800D02*
X-32010000Y40110000D01*
X-31500000Y38800000D02*
X-31500000Y34194974D01*
X-30300000Y41185000D02*
X-30100000Y41385000D01*
X-32010000Y40110000D02*
X-32010000Y41090000D01*
X-31555800Y38855800D02*
X-31555800Y39655800D01*
X-31915000Y41185000D02*
X-30300000Y41185000D01*
X-29900000Y30850000D02*
X-19050000Y20000000D01*
X-15000000Y19499999D02*
X-15000000Y17989950D01*
X-32010000Y41090000D02*
X-31915000Y41185000D01*
X-15000000Y17989950D02*
X-14500000Y17489950D01*
X-15500001Y20000000D02*
X-15000000Y19499999D01*
X-31500000Y34194974D02*
X-29900000Y32594974D01*
X-14500000Y17489950D02*
X-14500000Y12700000D01*
X-13180000Y11380000D02*
X-12075000Y11380000D01*
X-19050000Y20000000D02*
X-15500001Y20000000D01*
X-31555800Y38855800D02*
X-31500000Y38800000D01*
X-29900000Y32594974D02*
X-29900000Y30850000D01*
X-30100000Y41385000D02*
X-30100000Y42050000D01*
X-14850000Y17344975D02*
X-14850000Y12650000D01*
X-16120000Y11380000D02*
X-17125000Y11380000D01*
X-14850000Y12650000D02*
X-16120000Y11380000D01*
X-30250000Y32450000D02*
X-30250000Y27850000D01*
X-32200000Y34400000D02*
X-30250000Y32450000D01*
X-20300000Y17900000D02*
X-15405025Y17900000D01*
X-30250000Y27850000D02*
X-20300000Y17900000D01*
X-15405025Y17900000D02*
X-14850000Y17344975D01*
X-32200000Y38386745D02*
X-32200000Y34400000D01*
X-32213255Y38400000D02*
X-32200000Y38386745D01*
X-31909747Y41760000D02*
X-31909747Y41940253D01*
X-31909747Y41940253D02*
X-31150000Y42700000D01*
D78*
X-21444975Y38096446D02*
X-20848529Y37500000D01*
X-22848529Y38100000D02*
X-21444975Y38100000D01*
X-20848529Y37500000D02*
X-20500000Y37500000D01*
X-23700000Y37200000D02*
X-23700000Y37248529D01*
X-17125000Y34125000D02*
X-17125000Y26620000D01*
D81*
X26849390Y44400000D02*
X28150000Y44400000D01*
D78*
X-21444975Y38100000D02*
X-21444975Y38096446D01*
D81*
X26073655Y43624265D02*
X26849390Y44400000D01*
D78*
X-20500000Y37500000D02*
X-17125000Y34125000D01*
D81*
X25424265Y43624265D02*
X26073655Y43624265D01*
D78*
X-23700000Y37248529D02*
X-22848529Y38100000D01*
D81*
X26968480Y42310883D02*
X28160883Y42310883D01*
D78*
X-22675521Y39500000D02*
X-20400000Y39500000D01*
X-22781174Y39605653D02*
X-22675521Y39500000D01*
X-12075000Y31175000D02*
X-12075000Y26620000D01*
D81*
X28160883Y42310883D02*
X28800000Y42950000D01*
D78*
X-20400000Y39500000D02*
X-12075000Y31175000D01*
D81*
X31900000Y43170330D02*
X31900000Y43815000D01*
D78*
X-20500000Y34100000D02*
X-22700000Y36300000D01*
D81*
X31715000Y44000000D02*
X31050000Y44000000D01*
D78*
X-20500000Y31300000D02*
X-20500000Y34100000D01*
X-24900000Y36300000D02*
X-25600000Y37000000D01*
X-19650000Y19000000D02*
X-17125001Y19000000D01*
X-22700000Y36300000D02*
X-24900000Y36300000D01*
X-23900000Y23250000D02*
X-19650000Y19000000D01*
D81*
X31900000Y43815000D02*
X31715000Y44000000D01*
X32235165Y42835165D02*
X31900000Y43170330D01*
X27100000Y43100000D02*
X27590000Y43590000D01*
D78*
X-19800000Y34300000D02*
X-19800000Y24250000D01*
X-19800000Y24250000D02*
X-18800000Y23250000D01*
D81*
X27590000Y43590000D02*
X28150000Y43590000D01*
D78*
X-14450000Y23250000D02*
X-13950000Y22750000D01*
X-13950000Y21950000D02*
X-14360000Y21540000D01*
X-22800000Y37300000D02*
X-19800000Y34300000D01*
X-14360000Y21540000D02*
X-17125000Y21540000D01*
X-17125000Y21540000D02*
X-17125000Y21575000D01*
X-18800000Y23250000D02*
X-14450000Y23250000D01*
X-13950000Y22750000D02*
X-13950000Y21950000D01*
D81*
X27072182Y44000000D02*
X28050000Y44000000D01*
D78*
X-17580000Y24080000D02*
X-17125000Y24080000D01*
X-21700000Y37500000D02*
X-19300000Y35100000D01*
X-21800000Y37500000D02*
X-21700000Y37500000D01*
X-19300000Y25800000D02*
X-17580000Y24080000D01*
D81*
X26200000Y41900000D02*
X26200000Y43127818D01*
X26300000Y41800000D02*
X26200000Y41900000D01*
X26200000Y43127818D02*
X27072182Y44000000D01*
D78*
X-19300000Y35100000D02*
X-19300000Y25800000D01*
D81*
X-12860000Y16460000D02*
X-12075000Y16460000D01*
X-14600000Y18200000D02*
X-12860000Y16460000D01*
X-31100000Y41760000D02*
X-30810000Y42050000D01*
X-30900000Y37800000D02*
X-30900000Y34089948D01*
X-29500000Y31000000D02*
X-19000000Y20500000D01*
X-30900000Y34089948D02*
X-29500000Y32689948D01*
X-29500000Y32689948D02*
X-29500000Y31000000D01*
X-15400000Y20500000D02*
X-14600000Y19700000D01*
X-30810000Y42050000D02*
X-30500000Y42050000D01*
X-19000000Y20500000D02*
X-15400000Y20500000D01*
X-14600000Y19700000D02*
X-14600000Y18200000D01*
D78*
X-18100000Y22600000D02*
X-18800000Y22600000D01*
D81*
X-28650000Y42050000D02*
X-28200000Y41600000D01*
X-28900000Y42050000D02*
X-28650000Y42050000D01*
D78*
X-30300000Y34100000D02*
X-30300000Y38033668D01*
X-30300000Y38033668D02*
X-29455851Y38877817D01*
X-10300000Y13900000D02*
X-12055000Y13900000D01*
X-29455851Y38877817D02*
X-29177817Y38877817D01*
X-18800000Y22600000D02*
X-30300000Y34100000D01*
X-12055000Y13900000D02*
X-12075000Y13920000D01*
X-24600000Y37000000D02*
X-24600000Y37148529D01*
X-14200000Y32600000D02*
X-14200000Y26205000D01*
X-14200000Y26205000D02*
X-12075000Y24080000D01*
X-20544975Y38944975D02*
X-14200000Y32600000D01*
D81*
X30800000Y42550000D02*
X30400000Y42950000D01*
D78*
X-22803554Y38944975D02*
X-20544975Y38944975D01*
X-24600000Y37148529D02*
X-22803554Y38944975D01*
X-27500000Y42965000D02*
X-27500000Y42362592D01*
X-10200000Y30100000D02*
X-10200000Y20874999D01*
X-25856587Y38456587D02*
X-25243413Y38456587D01*
X-23400000Y40300000D02*
X-20400000Y40300000D01*
X-25243413Y38456587D02*
X-23400000Y40300000D01*
X-26543414Y41406006D02*
X-26543414Y39143414D01*
X-27635000Y43100000D02*
X-27500000Y42965000D01*
X-27500000Y42362592D02*
X-26543414Y41406006D01*
D81*
X-28300000Y43100000D02*
X-27635000Y43100000D01*
D78*
X-26543414Y39143414D02*
X-25856587Y38456587D01*
X-10200000Y20874999D02*
X-12074999Y19000000D01*
X-20400000Y40300000D02*
X-10200000Y30100000D01*
D81*
X-20160000Y16460000D02*
X-17125000Y16460000D01*
X-31200000Y27500000D02*
X-20160000Y16460000D01*
X-32228173Y43500000D02*
X-32438172Y43290001D01*
X-33500000Y34300000D02*
X-31200000Y32000000D01*
X-33475000Y38500000D02*
X-33500000Y38475000D01*
X-33500000Y38475000D02*
X-33500000Y34300000D01*
X-31200000Y32000000D02*
X-31200000Y27500000D01*
X-31150000Y43500000D02*
X-32228173Y43500000D01*
D78*
X13688836Y5500000D02*
X13257500Y5500000D01*
X14705000Y-3175000D02*
X16000000Y-1880000D01*
X16000000Y-1880000D02*
X16000000Y3188836D01*
X16000000Y3188836D02*
X13688836Y5500000D01*
X12632500Y1165000D02*
X10657500Y-810000D01*
X12632500Y3575000D02*
X13257500Y4200000D01*
X12632500Y2200000D02*
X12632500Y1165000D01*
X12632500Y2200000D02*
X12632500Y3575000D01*
X18600000Y43900000D02*
X18500000Y44000000D01*
X4100000Y46247244D02*
X4100000Y44419044D01*
X18500000Y44000000D02*
X18500000Y49376602D01*
X5025045Y47172289D02*
X4100000Y46247244D01*
X4890637Y47306697D02*
X5025045Y47172289D01*
X17400000Y50476602D02*
X17400000Y51242500D01*
X4100000Y44419044D02*
X5244044Y43275000D01*
X18500000Y49376602D02*
X17400000Y50476602D01*
X5244044Y43275000D02*
X5950000Y43275000D01*
X24600000Y43000000D02*
X24600000Y48811164D01*
X26600000Y50811164D02*
X26600000Y51242500D01*
X24600000Y48811164D02*
X26600000Y50811164D01*
X4862500Y45911216D02*
X4862500Y44306544D01*
X23200000Y41600000D02*
X24600000Y43000000D01*
X5244044Y43925000D02*
X5950000Y43925000D01*
X4737500Y46036216D02*
X4862500Y45911216D01*
X4862500Y44306544D02*
X5244044Y43925000D01*
X-4850000Y37693456D02*
X-4850000Y37156544D01*
X-18400000Y44051471D02*
X-17000000Y45451471D01*
X-13700000Y36200000D02*
X-13900000Y36000000D01*
X-13900000Y36000000D02*
X-14800000Y36000000D01*
X-18400000Y39600000D02*
X-18400000Y44051471D01*
X-5806544Y36200000D02*
X-13700000Y36200000D01*
X-4850000Y37156544D02*
X-5806544Y36200000D01*
X-16500000Y50300000D02*
X-16500000Y51200000D01*
X-5937500Y38075000D02*
X-5231544Y38075000D01*
X-14800000Y36000000D02*
X-18400000Y39600000D01*
X-17000000Y45451471D02*
X-17000000Y49800000D01*
X-17000000Y49800000D02*
X-16500000Y50300000D01*
X-5231544Y38075000D02*
X-4850000Y37693456D01*
X-5937500Y38725000D02*
X-4925000Y38725000D01*
X-13534314Y35800000D02*
X-13734314Y35600000D01*
X-23000000Y49488301D02*
X-23311699Y49800000D01*
X-4925000Y38725000D02*
X-4450000Y38250000D01*
X-23000000Y44700000D02*
X-23000000Y49488301D01*
X-4450000Y38250000D02*
X-4450000Y36850000D01*
X-23311699Y49800000D02*
X-25250000Y49800000D01*
X-5500000Y35800000D02*
X-13534314Y35800000D01*
X-21700000Y43400000D02*
X-23000000Y44700000D01*
X-13734314Y35600000D02*
X-14965686Y35600000D01*
X-25700000Y50250000D02*
X-25700000Y51200000D01*
X-25250000Y49800000D02*
X-25700000Y50250000D01*
X-14965686Y35600000D02*
X-21700000Y42334314D01*
X-4450000Y36850000D02*
X-5500000Y35800000D01*
X-21700000Y42334314D02*
X-21700000Y43400000D01*
D83*
X-18100000Y-7800000D02*
X-17475000Y-7175000D01*
D85*
X-18100000Y-9950000D02*
X-18100000Y-7800000D01*
X-24450000Y-16300000D02*
X-18100000Y-9950000D01*
D83*
X-17475000Y-7175000D02*
X-17475000Y-6100000D01*
D78*
X21475000Y-10325000D02*
X21475000Y-11200000D01*
X23000000Y-16700000D02*
X23000000Y-15215686D01*
X23425000Y-10560974D02*
X22864026Y-10000000D01*
X22864026Y-10000000D02*
X21800000Y-10000000D01*
X23425000Y-14790686D02*
X23425000Y-10560974D01*
X23000000Y-15215686D02*
X23425000Y-14790686D01*
X23450000Y-17150000D02*
X23000000Y-16700000D01*
X21800000Y-10000000D02*
X21475000Y-10325000D01*
X22425000Y-11200000D02*
X23025000Y-11800000D01*
X22370000Y-18749999D02*
X22670001Y-19050000D01*
X22370000Y-15280000D02*
X22370000Y-18749999D01*
X22670001Y-19050000D02*
X23450000Y-19050000D01*
X23025000Y-14625000D02*
X22370000Y-15280000D01*
X23025000Y-11800000D02*
X23025000Y-14625000D01*
X42850000Y25500000D02*
X42850000Y38450000D01*
X34500000Y47937437D02*
X33681282Y48756155D01*
X42125000Y23250000D02*
X42125000Y24775000D01*
X42850000Y38450000D02*
X34500000Y46800000D01*
X34500000Y46800000D02*
X34500000Y47937437D01*
X42125000Y24775000D02*
X42850000Y25500000D01*
X-8682762Y52000000D02*
X-10900000Y52000000D01*
X-7750000Y52200000D02*
X-8482762Y52200000D01*
X12050000Y51800000D02*
X12400000Y51800000D01*
X13075000Y51125000D02*
X13250000Y51125000D01*
X-8482762Y52200000D02*
X-8682762Y52000000D01*
X-10900000Y52000000D02*
X-11775000Y52875000D01*
X-11775000Y52875000D02*
X-13250000Y52875000D01*
X12400000Y51800000D02*
X13075000Y51125000D01*
X-9750000Y51125000D02*
X-10080342Y51455342D01*
X-10873530Y51125000D02*
X-9750000Y51125000D01*
X-11599265Y51850735D02*
X-10873530Y51125000D01*
X-11797500Y-2000000D02*
X-11797500Y-3200000D01*
X-10602500Y-5605000D02*
X-11797500Y-6800000D01*
X-10602500Y-5600000D02*
X-10602500Y-5605000D01*
X-12825000Y-6627500D02*
X-12825000Y-7268456D01*
X-13674999Y-7500000D02*
X-13975000Y-7199999D01*
X-10602500Y-4405000D02*
X-11797500Y-5600000D01*
X-12825000Y-7268456D02*
X-13056544Y-7500000D01*
X-13056544Y-7500000D02*
X-13674999Y-7500000D01*
X-13975000Y-7199999D02*
X-13975000Y-6425000D01*
X-10602500Y-4400000D02*
X-10602500Y-4405000D01*
X-11797500Y-5600000D02*
X-12825000Y-6627500D01*
X-10602500Y-3205000D02*
X-11797500Y-4400000D01*
X-10602500Y-3200000D02*
X-10602500Y-3205000D01*
X-13700000Y-1951471D02*
X-13975000Y-1676471D01*
X-12150000Y4050000D02*
X-12200000Y4000000D01*
X-13975000Y-1676471D02*
X-13975000Y-675000D01*
X-11797500Y4050000D02*
X-12150000Y4050000D01*
X-13700000Y-2200000D02*
X-13700000Y-1951471D01*
X-13400000Y-2500000D02*
X-13700000Y-2200000D01*
X-11797500Y455000D02*
X-10602500Y1650000D01*
X-14924999Y450000D02*
X-11797500Y450000D01*
X-15275000Y-675000D02*
X-15275000Y99999D01*
X-11797500Y450000D02*
X-11797500Y455000D01*
X-15275000Y99999D02*
X-14924999Y450000D01*
X-11797500Y1650000D02*
X-11797500Y2850000D01*
X7837500Y46400000D02*
X7837500Y46362500D01*
D79*
X14700001Y38816300D02*
X14608701Y38725000D01*
D78*
X7837500Y46362500D02*
X8800000Y45400000D01*
D79*
X14608701Y38725000D02*
X11675000Y38725000D01*
X15100000Y38123478D02*
X15024206Y38047684D01*
X15024206Y38047684D02*
X11702316Y38047684D01*
D78*
X6837499Y47599999D02*
X7837500Y48600000D01*
X6837499Y45400000D02*
X6837499Y47599999D01*
D79*
X11702316Y38047684D02*
X11675000Y38075000D01*
D78*
X12899865Y42047684D02*
X11747684Y42047684D01*
X11747684Y42047684D02*
X11675000Y41975000D01*
X13700000Y42400000D02*
X13600000Y42300000D01*
X13600000Y42300000D02*
X13152181Y42300000D01*
X11837500Y46400000D02*
X11837500Y46262500D01*
X11837500Y46262500D02*
X12800000Y45300000D01*
X13152181Y42300000D02*
X12899865Y42047684D01*
D79*
X13700501Y40025000D02*
X11675000Y40025000D01*
X14075501Y40400000D02*
X13700501Y40025000D01*
D78*
X10900000Y47682500D02*
X10900000Y45300000D01*
X11817500Y48600000D02*
X10900000Y47682500D01*
X-3899853Y43739829D02*
X-4500000Y44339976D01*
X-6800000Y49600000D02*
X-7800000Y48600000D01*
X-4800000Y49184744D02*
X-5215256Y49600000D01*
X-4800000Y45288432D02*
X-4800000Y49184744D01*
X-5215256Y49600000D02*
X-6800000Y49600000D01*
X-4500000Y44988432D02*
X-4800000Y45288432D01*
X-4500000Y44339976D02*
X-4500000Y44988432D01*
X-12981121Y42056084D02*
X-12900037Y41975000D01*
X-12900037Y41975000D02*
X-11662500Y41975000D01*
X-12835050Y39925000D02*
X-12735050Y40025000D01*
D81*
X-4663110Y43500000D02*
X-4663110Y43763110D01*
X-6450000Y45050000D02*
X-7800000Y46400000D01*
X-4875000Y43975000D02*
X-4875000Y44833102D01*
X-4875000Y44833102D02*
X-5091898Y45050000D01*
X-5091898Y45050000D02*
X-6450000Y45050000D01*
D78*
X-12735050Y40025000D02*
X-11662500Y40025000D01*
X-13600000Y40000000D02*
X-13525000Y39925000D01*
D81*
X-4663110Y43763110D02*
X-4875000Y43975000D01*
D78*
X-13525000Y39925000D02*
X-12835050Y39925000D01*
X-11662500Y43925000D02*
X-12368456Y43925000D01*
X-12750000Y44306544D02*
X-12750000Y45450000D01*
X-12750000Y45450000D02*
X-11800000Y46400000D01*
X-12368456Y43925000D02*
X-12750000Y44306544D01*
X-13150000Y47250000D02*
X-13150000Y43975001D01*
X-11800000Y48600000D02*
X-13150000Y47250000D01*
X-12449999Y43275000D02*
X-11662500Y43275000D01*
X-13150000Y43975001D02*
X-12449999Y43275000D01*
D81*
X28589338Y45850000D02*
X28800000Y45850000D01*
D78*
X30610002Y45900000D02*
X30720004Y46010002D01*
X30610002Y45900000D02*
X30460000Y45900000D01*
X30460000Y45900000D02*
X30410000Y45850000D01*
D81*
X28280684Y46158654D02*
X28589338Y45850000D01*
D78*
X30720004Y46010002D02*
X32375712Y46010002D01*
X35785714Y42600000D02*
X35900000Y42600000D01*
X32375712Y46010002D02*
X35785714Y42600000D01*
D81*
X-28020310Y45933876D02*
X-28020310Y45829690D01*
X-31400000Y45800000D02*
X-31350000Y45800000D01*
X-35600000Y43200000D02*
X-35600000Y42600000D01*
X-31350000Y45800000D02*
X-30500000Y44950000D01*
X-28020310Y45829690D02*
X-28900000Y44950000D01*
X-31400000Y45800000D02*
X-33000000Y45800000D01*
X-33000000Y45800000D02*
X-35600000Y43200000D01*
D78*
X-33262563Y46700000D02*
X-34450000Y46700000D01*
X-43875000Y24325000D02*
X-43875000Y23250000D01*
X-34450000Y46700000D02*
X-42900000Y38250000D01*
X-42900000Y25300000D02*
X-43875000Y24325000D01*
X-32443845Y47518718D02*
X-33262563Y46700000D01*
X-42900000Y38250000D02*
X-42900000Y25300000D01*
X-42125000Y26750000D02*
X-33050000Y26750000D01*
X-28600000Y-24100000D02*
X-32300000Y-24100000D01*
X-43000000Y-20800000D02*
X-43000000Y-23000000D01*
X-27450000Y21150000D02*
X-27900000Y20700000D01*
X-32300000Y-24100000D02*
X-36600000Y-19800000D01*
X-27900000Y20700000D02*
X-27900000Y-23400000D01*
X-36600000Y-19800000D02*
X-42000000Y-19800000D01*
X-33050000Y26750000D02*
X-27450000Y21150000D01*
X-43875000Y-23875000D02*
X-43875000Y-25250000D01*
X-42000000Y-19800000D02*
X-43000000Y-20800000D01*
X-43000000Y-23000000D02*
X-43875000Y-23875000D01*
X-27900000Y-23400000D02*
X-28600000Y-24100000D01*
X-31550000Y-39550000D02*
X-31550000Y-40887437D01*
X-42850000Y-23950000D02*
X-42850000Y-28250000D01*
X-42850000Y-28250000D02*
X-31550000Y-39550000D01*
X-42125000Y-23225000D02*
X-42850000Y-23950000D01*
X-42125000Y-21750000D02*
X-42125000Y-23225000D01*
X-31550000Y-40887437D02*
X-30481282Y-41956155D01*
X-31718718Y-38243845D02*
X-30750000Y-39212563D01*
X-30750000Y-39212563D02*
X-30750000Y-39900000D01*
X-6214999Y-46200000D02*
X-8579999Y-48565000D01*
X-8579999Y-48565000D02*
X-9075000Y-48565000D01*
X5000000Y-47350000D02*
X3850000Y-46200000D01*
X3850000Y-46200000D02*
X-6214999Y-46200000D01*
X5950000Y38725000D02*
X5950000Y37425000D01*
X-5937500Y43275000D02*
X-5937500Y44575000D01*
G04 #@! TA.AperFunction,Conductor*
G36*
X-18894982Y8799849D02*
G01*
X-18707085Y8790569D01*
X-18694910Y8789363D01*
X-18508822Y8761609D01*
X-18502796Y8760558D01*
X-17704592Y8600918D01*
X-17695495Y8598739D01*
X-17455262Y8531515D01*
X-17437690Y8525134D01*
X-17214582Y8424493D01*
X-17198169Y8415544D01*
X-16992715Y8282500D01*
X-16977834Y8271184D01*
X-16794719Y8108767D01*
X-16781718Y8095353D01*
X-16625103Y7907257D01*
X-16614260Y7892034D01*
X-16487690Y7682509D01*
X-16479266Y7665840D01*
X-16449620Y7594231D01*
X-16383848Y7435358D01*
X-16380599Y7426590D01*
X-15211449Y3863465D01*
X-14701211Y2308454D01*
X-14698529Y2299035D01*
X-14627399Y2005563D01*
X-14624299Y1986176D01*
X-14621269Y1948026D01*
X-14621521Y1925616D01*
X-14625500Y1886677D01*
X-14625499Y1313324D01*
X-14622120Y1280251D01*
X-14627354Y1229933D01*
X-14657104Y1136774D01*
X-14696251Y1078903D01*
X-14760472Y1051381D01*
X-14775227Y1050500D01*
X-14845942Y1050500D01*
X-15004056Y1050500D01*
X-15156784Y1009577D01*
X-15206903Y980639D01*
X-15293715Y930520D01*
X-15405519Y818716D01*
X-15405519Y818714D01*
X-15415727Y808507D01*
X-15415729Y808504D01*
X-15633506Y590727D01*
X-15633511Y590723D01*
X-15643714Y580519D01*
X-15643716Y580519D01*
X-15699697Y524538D01*
X-15761268Y462967D01*
X-15761704Y463403D01*
X-15775532Y449574D01*
X-15803282Y428282D01*
X-15899536Y302841D01*
X-15960044Y156762D01*
X-15975500Y39361D01*
X-15975499Y-679255D01*
X-15975499Y-1258137D01*
X-15995184Y-1325176D01*
X-16033527Y-1363131D01*
X-16097673Y-1403437D01*
X-16122690Y-1415484D01*
X-16286546Y-1472820D01*
X-16313617Y-1478999D01*
X-16464882Y-1496043D01*
X-16533704Y-1483989D01*
X-16544735Y-1477818D01*
X-16550473Y-1474212D01*
X-16720745Y-1414631D01*
X-16720750Y-1414630D01*
X-16899996Y-1394435D01*
X-16900003Y-1394435D01*
X-17006834Y-1406471D01*
X-17075656Y-1394416D01*
X-17079169Y-1392610D01*
X-17108952Y-1376691D01*
X-17158797Y-1327729D01*
X-17174500Y-1267332D01*
X-17174500Y39363D01*
X-17189953Y156753D01*
X-17189956Y156762D01*
X-17250463Y302839D01*
X-17250464Y302841D01*
X-17346718Y428282D01*
X-17472159Y524536D01*
X-17618238Y585044D01*
X-17735639Y600500D01*
X-18014360Y600499D01*
X-18014363Y600499D01*
X-18131753Y585046D01*
X-18131757Y585044D01*
X-18131762Y585044D01*
X-18277841Y524536D01*
X-18322429Y490322D01*
X-18336293Y479684D01*
X-18401462Y454489D01*
X-18459229Y463497D01*
X-18484923Y474140D01*
X-18512950Y490322D01*
X-18530412Y503721D01*
X-18611314Y565799D01*
X-18634202Y588687D01*
X-18643266Y600499D01*
X-18709677Y687049D01*
X-18725862Y715082D01*
X-18773307Y829625D01*
X-18781685Y860892D01*
X-18798939Y991941D01*
X-18800000Y1008127D01*
X-18800000Y3300002D01*
X-18800000Y5300000D01*
X-20800000Y5300000D01*
X-26244322Y5300000D01*
X-26254227Y5300396D01*
X-26342207Y5307446D01*
X-26510337Y5320920D01*
X-26529896Y5324075D01*
X-26774637Y5383943D01*
X-26793442Y5390173D01*
X-26909478Y5439210D01*
X-27025516Y5488248D01*
X-27043089Y5497392D01*
X-27241344Y5621626D01*
X-27287699Y5673904D01*
X-27299500Y5726700D01*
X-27299500Y8319898D01*
X-27279815Y8386937D01*
X-27254812Y8415217D01*
X-27198794Y8461828D01*
X-27183212Y8472879D01*
X-26961559Y8605679D01*
X-26944462Y8614206D01*
X-26705044Y8711379D01*
X-26686841Y8717179D01*
X-26435338Y8776421D01*
X-26416461Y8779355D01*
X-26154050Y8799631D01*
X-26144497Y8800000D01*
X-18901099Y8800000D01*
X-18894982Y8799849D01*
G37*
G04 #@! TD.AperFunction*
M02*
