M48
; DRILL file {KiCad 8.0.5} date 2024-09-20T17:35:26+0300
; FORMAT={-:-/ absolute / inch / decimal}
; #@! TF.CreationDate,2024-09-20T17:35:26+03:00
; #@! TF.GenerationSoftware,Kicad,Pcbnew,8.0.5
; #@! TF.FileFunction,NonPlated,1,4,NPTH
FMAT,2
INCH
; #@! TA.AperFunction,NonPlated,NPTH,ComponentDrill
T1C0.0197
; #@! TA.AperFunction,NonPlated,NPTH,ComponentDrill
T2C0.1063
; #@! TA.AperFunction,NonPlated,NPTH,ComponentDrill
T3C0.1260
; #@! TA.AperFunction,NonPlated,NPTH,ComponentDrill
T4C0.1575
%
G90
G05
T1
X2.0079Y-3.189
X2.0079Y-3.2185
X2.0079Y-3.248
X2.0079Y-3.2776
X2.0079Y-4.0157
X2.0079Y-4.0453
X2.0079Y-4.0748
X2.0079Y-4.1043
X2.126Y-3.189
X2.126Y-3.2185
X2.126Y-3.248
X2.126Y-3.2776
X2.126Y-4.0157
X2.126Y-4.0453
X2.126Y-4.0748
X2.126Y-4.1043
X4.6457Y-3.1791
X4.6457Y-3.2087
X4.6457Y-3.2382
X4.6457Y-3.2677
X4.6457Y-4.0059
X4.6457Y-4.0354
X4.6457Y-4.065
X4.6457Y-4.0945
X4.7638Y-3.1791
X4.7638Y-3.2087
X4.7638Y-3.2382
X4.7638Y-3.2677
X4.7638Y-4.0059
X4.7638Y-4.0354
X4.7638Y-4.065
X4.7638Y-4.0945
X5.6417Y-3.1791
X5.6417Y-3.2087
X5.6417Y-3.2382
X5.6417Y-3.2677
X5.6417Y-4.0059
X5.6417Y-4.0354
X5.6417Y-4.065
X5.6417Y-4.0945
X5.7598Y-3.1791
X5.7598Y-3.2087
X5.7598Y-3.2382
X5.7598Y-3.2677
X5.7598Y-4.0059
X5.7598Y-4.0354
X5.7598Y-4.065
X5.7598Y-4.0945
T2
X1.4252Y-3.189
X1.4252Y-4.0945
X1.4849Y-3.4209
X1.4876Y-3.8641
X1.6732Y-3.189
X1.6732Y-4.0945
X1.8701Y-3.6402
X4.9016Y-3.6433
X5.0984Y-3.189
X5.0984Y-4.0945
X5.2841Y-3.4193
X5.2868Y-3.8626
X5.3465Y-3.189
X5.3465Y-4.0945
T3
X5.6791Y-2.7559
X5.8366Y-4.4488
X6.3091Y-5.6102
X7.7264Y-5.6102
X8.1988Y-4.4488
X8.3563Y-2.7559
T4
X1.6142Y-3.6417
X5.1575Y-3.6417
M30
