M48
; DRILL file {KiCad 8.0.5} date 2024-09-20T17:35:26+0300
; FORMAT={-:-/ absolute / inch / decimal}
; #@! TF.CreationDate,2024-09-20T17:35:26+03:00
; #@! TF.GenerationSoftware,Kicad,Pcbnew,8.0.5
; #@! TF.FileFunction,Plated,1,4,PTH
FMAT,2
INCH
; #@! TA.AperFunction,Plated,PTH,ViaDrill
T1C0.0118
; #@! TA.AperFunction,Plated,PTH,ComponentDrill
T2C0.0118
; #@! TA.AperFunction,Plated,PTH,ComponentDrill
T3C0.0236
; #@! TA.AperFunction,Plated,PTH,ComponentDrill
T4C0.0276
; #@! TA.AperFunction,Plated,PTH,ComponentDrill
T5C0.0315
; #@! TA.AperFunction,Plated,PTH,ComponentDrill
T6C0.0394
%
G90
G05
T1
X1.1496Y-3.1496
X1.1496Y-3.189
X1.1496Y-3.3071
X1.1496Y-3.3465
X1.1496Y-4.0945
X1.1496Y-4.1339
X1.2047Y-3.1339
X1.2047Y-3.2067
X1.2047Y-3.2913
X1.2047Y-3.3642
X1.2047Y-4.0787
X1.2047Y-4.1516
X1.2677Y-3.1122
X1.2677Y-3.1693
X1.2677Y-3.2264
X1.2677Y-3.2697
X1.2677Y-3.3268
X1.2677Y-3.3839
X1.2677Y-3.9409
X1.2677Y-4.0571
X1.2677Y-4.1142
X1.2677Y-4.1713
X1.4301Y-3.7075
X1.4764Y-3.5197
X1.4803Y-3.6791
X1.622Y-3.4429
X1.6732Y-3.9469
X1.6909Y-3.7795
X1.7244Y-2.122
X1.7244Y-2.2008
X1.7559Y-4.6811
X1.7717Y-4.5394
X1.8504Y-3.1122
X1.8504Y-3.1693
X1.8504Y-3.2264
X1.8504Y-3.2697
X1.8504Y-3.3268
X1.8504Y-3.3839
X1.8504Y-3.4272
X1.8504Y-3.4843
X1.8504Y-3.5413
X1.8504Y-3.7421
X1.8504Y-3.7992
X1.8504Y-3.8563
X1.8504Y-3.8996
X1.8504Y-3.9567
X1.8504Y-4.0138
X1.8504Y-4.0571
X1.8504Y-4.1142
X1.8504Y-4.1713
X1.8622Y-2.5118
X1.881Y-4.5599
X1.8858Y-4.6614
X1.9055Y-4.752
X1.9134Y-3.1319
X1.9134Y-3.2047
X1.9134Y-3.2894
X1.9134Y-3.3622
X1.9134Y-3.4469
X1.9134Y-3.5197
X1.9134Y-3.7618
X1.9134Y-3.8346
X1.9134Y-3.9193
X1.9134Y-3.9921
X1.9134Y-4.0768
X1.9134Y-4.1496
X1.9409Y-4.4331
X1.9567Y-2.7362
X1.9606Y-2.7795
X1.9685Y-3.1496
X1.9685Y-3.189
X1.9685Y-3.3071
X1.9685Y-3.3465
X1.9685Y-3.4646
X1.9685Y-3.5039
X1.9685Y-3.7795
X1.9685Y-3.8189
X1.9685Y-3.937
X1.9685Y-3.9764
X1.9685Y-4.0945
X1.9685Y-4.1339
X1.9685Y-4.5709
X1.9711Y-4.7349
X1.9764Y-2.7047
X1.9764Y-2.8071
X1.9921Y-4.4685
X2.0Y-4.6142
X2.0079Y-2.6732
X2.0236Y-4.5827
X2.0551Y-1.9488
X2.0702Y-5.0357
X2.1024Y-4.5709
X2.122Y-2.815
X2.1299Y-4.4252
X2.1339Y-4.4764
X2.1378Y-2.7362
X2.1378Y-2.7795
X2.1491Y-4.3893
X2.1614Y-4.5197
X2.1732Y-1.8228
X2.2047Y-4.3543
X2.2126Y-4.5394
X2.2283Y-3.1457
X2.2283Y-3.1929
X2.2283Y-3.3071
X2.2283Y-3.3465
X2.2323Y-3.9213
X2.2323Y-4.0866
X2.2323Y-4.1496
X2.2559Y-4.3701
X2.2638Y-4.5157
X2.2756Y-4.4071
X2.2815Y-4.4606
X2.2835Y-4.8937
X2.3081Y-4.5837
X2.3189Y-3.7087
X2.3307Y-1.8071
X2.3307Y-3.6063
X2.3386Y-3.4449
X2.3443Y-3.4763
X2.3583Y-5.2756
X2.3622Y-1.7362
X2.3819Y-3.7913
X2.4024Y-3.6883
X2.4065Y-3.7687
X2.4094Y-4.0039
X2.4124Y-3.6584
X2.4173Y-1.6732
X2.4263Y-4.7
X2.4291Y-4.5118
X2.4488Y-3.8937
X2.4508Y-3.4882
X2.4508Y-3.5217
X2.4508Y-3.5551
X2.4646Y-2.311
X2.4764Y-2.4724
X2.4764Y-3.7244
X2.4803Y-3.7598
X2.4843Y-1.8443
X2.4961Y-4.5137
X2.5Y-2.4409
X2.5118Y-4.0354
X2.5156Y-4.1489
X2.5157Y-3.5827
X2.5157Y-3.6142
X2.5157Y-3.6476
X2.5197Y-4.6181
X2.5276Y-1.815
X2.5423Y-3.7283
X2.5433Y-1.8701
X2.5433Y-3.689
X2.5508Y-1.8382
X2.5512Y-2.3937
X2.5827Y-5.622
X2.5983Y-3.9991
X2.6024Y-4.4921
X2.6142Y-5.6811
X2.6457Y-4.5157
X2.6654Y-1.8583
X2.6654Y-3.8346
X2.6693Y-3.3504
X2.6722Y-4.4147
X2.6811Y-5.7047
X2.6929Y-4.5157
X2.7126Y-3.8583
X2.7165Y-5.0197
X2.7323Y-3.3504
X2.7402Y-1.8307
X2.7402Y-3.5945
X2.7441Y-3.5276
X2.7441Y-3.5591
X2.7441Y-5.6772
X2.748Y-1.689
X2.748Y-1.7441
X2.748Y-1.7756
X2.7628Y-1.6509
X2.7638Y-3.4213
X2.7638Y-3.497
X2.7638Y-4.3898
X2.7638Y-5.5787
X2.7677Y-5.6339
X2.7812Y-3.9314
X2.7874Y-3.5315
X2.7953Y-3.4449
X2.8022Y-4.1535
X2.8031Y-3.4961
X2.8189Y-3.4685
X2.8266Y-4.177
X2.8346Y-1.7913
X2.8346Y-3.4409
X2.8456Y-4.4952
X2.8504Y-3.4055
X2.8504Y-5.0197
X2.8616Y-4.3852
X2.8659Y-4.3422
X2.8661Y-4.4606
X2.874Y-4.5236
X2.876Y-1.7205
X2.8898Y-4.2953
X2.8976Y-1.6496
X2.9133Y-5.4443
X2.9134Y-1.7913
X2.9449Y-4.5177
X2.9528Y-5.4449
X2.9746Y-3.876
X2.9746Y-3.9528
X2.9746Y-4.1102
X2.9746Y-4.4783
X2.9764Y-3.5787
X2.9764Y-3.6142
X2.9764Y-3.7084
X2.9764Y-3.7402
X2.9764Y-4.0315
X2.9764Y-4.189
X2.9764Y-4.2283
X2.9764Y-4.8346
X2.9764Y-4.8701
X2.9771Y-5.3654
X2.9843Y-5.1693
X2.9843Y-5.2165
X2.9843Y-5.2638
X2.9843Y-5.311
X2.9882Y-4.4449
X2.9921Y-1.7835
X2.9921Y-1.8386
X2.9921Y-2.0748
X2.9921Y-3.6811
X2.9921Y-5.4213
X2.9939Y-4.3799
X3.0118Y-3.6142
X3.0118Y-3.6496
X3.0394Y-1.7717
X3.0551Y-3.7638
X3.063Y-5.4685
X3.0698Y-2.6487
X3.0709Y-5.4134
X3.0748Y-2.5495
X3.0787Y-1.7441
X3.0866Y-1.6496
X3.0866Y-1.9882
X3.0866Y-4.9154
X3.0866Y-4.9654
X3.0866Y-5.0154
X3.0866Y-5.0654
X3.0866Y-5.1154
X3.0866Y-5.3661
X3.1181Y-2.7205
X3.1181Y-2.8189
X3.1672Y-2.6587
X3.1752Y-2.5467
X3.2047Y-4.7283
X3.2126Y-2.7205
X3.2126Y-2.815
X3.2343Y-1.9882
X3.2411Y-2.1693
X3.248Y-1.7874
X3.248Y-1.8465
X3.252Y-4.7283
X3.2598Y-2.8504
X3.2599Y-2.6614
X3.2654Y-2.5579
X3.2705Y-2.7323
X3.2795Y-2.1102
X3.2913Y-1.7823
X3.2913Y-1.8504
X3.2992Y-4.7283
X3.3031Y-2.8189
X3.3228Y-1.9409
X3.331Y-2.2463
X3.3346Y-2.1339
X3.3465Y-5.7441
X3.3543Y-4.7283
X3.3622Y-2.2421
X3.3655Y-1.8799
X3.3671Y-2.1654
X3.3762Y-4.2087
X3.3858Y-3.3661
X3.3858Y-3.4449
X3.3858Y-3.5236
X3.3858Y-3.6024
X3.3858Y-3.689
X3.3858Y-3.7598
X3.3858Y-3.8386
X3.3858Y-3.9173
X3.3858Y-3.9961
X3.3858Y-4.0748
X3.3937Y-2.4823
X3.3937Y-4.3406
X3.3937Y-4.3898
X3.3955Y-4.124
X3.4016Y-4.7283
X3.4154Y-1.8682
X3.4173Y-5.4606
X3.437Y-2.1339
X3.4419Y-2.5285
X3.4449Y-2.8819
X3.4488Y-1.9409
X3.4567Y-2.0118
X3.4567Y-4.7283
X3.4628Y-2.8328
X3.4673Y-2.2814
X3.4744Y-4.5079
X3.4764Y-2.1732
X3.4803Y-1.7835
X3.4803Y-1.8504
X3.4843Y-2.2549
X3.4882Y-1.9567
X3.4895Y-2.6614
X3.4921Y-2.3031
X3.4921Y-4.4724
X3.5039Y-4.7283
X3.5039Y-2.6048
X3.5169Y-2.6788
X3.5197Y-2.1772
X3.5236Y-1.7874
X3.5315Y-2.9055
X3.5354Y-2.7953
X3.5472Y-2.5354
X3.5512Y-1.815
X3.5512Y-4.9094
X3.5591Y-4.6811
X3.561Y-4.3917
X3.561Y-4.4469
X3.563Y-4.5059
X3.5787Y-2.5787
X3.5787Y-2.6732
X3.5851Y-2.4897
X3.5906Y-3.374
X3.5906Y-5.3701
X3.5945Y-2.7717
X3.5945Y-3.4843
X3.5984Y-2.878
X3.5984Y-4.7283
X3.6142Y-3.3498
X3.6181Y-3.4528
X3.6299Y-1.9409
X3.6299Y-4.0748
X3.6378Y-3.3268
X3.6457Y-3.4252
X3.6496Y-4.8504
X3.662Y-3.3066
X3.6693Y-3.3976
X3.6929Y-1.8385
X3.6929Y-5.4685
X3.7087Y-1.9961
X3.7283Y-4.4882
X3.7323Y-1.7677
X3.7559Y-4.0079
X3.7559Y-4.1142
X3.7717Y-1.563
X3.7913Y-5.311
X3.7953Y-1.6732
X3.7953Y-3.3583
X3.7953Y-3.4134
X3.8031Y-5.3976
X3.8031Y-5.3583
X3.8071Y-3.8583
X3.8074Y-5.2837
X3.8222Y-4.0125
X3.8268Y-4.5827
X3.8661Y-3.5945
X3.8703Y-5.4721
X3.874Y-3.6417
X3.878Y-3.815
X3.8819Y-1.8543
X3.8819Y-4.7047
X3.8819Y-4.8465
X3.8898Y-3.4055
X3.9055Y-3.374
X3.9134Y-3.4606
X3.9213Y-4.6024
X3.9232Y-1.7303
X3.9291Y-2.5551
X3.9291Y-3.5394
X3.9291Y-4.9331
X3.937Y-1.563
X3.9528Y-4.7047
X3.9528Y-4.8465
X3.9764Y-1.7992
X3.9793Y-1.7076
X3.9921Y-2.5551
X3.9921Y-2.5945
X3.9921Y-3.7205
X3.9921Y-3.752
X4.0Y-5.6181
X4.0118Y-5.5669
X4.0236Y-2.3504
X4.0236Y-4.9488
X4.0315Y-5.6772
X4.0945Y-1.563
X4.0945Y-1.6654
X4.0984Y-5.7008
X4.1181Y-4.7756
X4.126Y-4.6575
X4.126Y-4.7047
X4.1339Y-3.6969
X4.1339Y-3.7835
X4.1417Y-1.6654
X4.1575Y-1.8937
X4.1614Y-5.6732
X4.1693Y-5.5551
X4.1794Y-4.8099
X4.189Y-1.8228
X4.189Y-5.6142
X4.1969Y-4.6575
X4.1969Y-4.7047
X4.2028Y-3.9154
X4.2165Y-3.878
X4.2244Y-5.0433
X4.2402Y-4.7087
X4.252Y-1.563
X4.2677Y-1.815
X4.3134Y-1.7968
X4.3469Y-1.8226
X4.3622Y-4.7283
X4.3622Y-4.9331
X4.3622Y-5.0748
X4.3622Y-5.185
X4.3622Y-5.2953
X4.3622Y-5.4055
X4.3937Y-3.9134
X4.4293Y-1.7636
X4.4409Y-4.5
X4.4567Y-4.6024
X4.4646Y-1.626
X4.4646Y-1.7598
X4.4646Y-1.8386
X4.4803Y-4.7283
X4.4803Y-4.9331
X4.4843Y-4.0118
X4.5079Y-3.937
X4.5079Y-3.9803
X4.5136Y-3.1497
X4.5136Y-3.189
X4.5315Y-4.0872
X4.5315Y-4.1417
X4.5354Y-4.3622
X4.5512Y-5.0906
X4.5591Y-1.6339
X4.5591Y-4.7283
X4.5591Y-4.9331
X4.5827Y-4.3661
X4.5827Y-4.5394
X4.6298Y-4.3994
X4.6299Y-4.5157
X4.6378Y-1.8071
X4.6378Y-1.9409
X4.6417Y-2.7795
X4.6535Y-4.437
X4.6575Y-2.811
X4.6575Y-4.4764
X4.6772Y-4.9331
X4.685Y-4.7283
X4.6929Y-2.8228
X4.7323Y-1.8937
X4.7323Y-2.8228
X4.7402Y-4.878
X4.7835Y-2.6811
X4.7874Y-1.9803
X4.7913Y-2.815
X4.8031Y-3.1496
X4.8031Y-3.189
X4.8031Y-3.3071
X4.8031Y-3.3465
X4.8031Y-3.4646
X4.8031Y-3.5039
X4.8031Y-3.7795
X4.8031Y-3.8189
X4.8031Y-3.937
X4.8031Y-3.9764
X4.8031Y-4.0945
X4.8031Y-4.1339
X4.811Y-2.7205
X4.815Y-2.7717
X4.8268Y-1.9333
X4.8583Y-3.1339
X4.8583Y-3.2067
X4.8583Y-3.2913
X4.8583Y-3.3642
X4.8583Y-3.4488
X4.8583Y-3.5217
X4.8583Y-3.7638
X4.8583Y-3.8366
X4.8583Y-3.9213
X4.8583Y-3.9941
X4.8583Y-4.0787
X4.8583Y-4.1516
X4.8661Y-1.9803
X4.8819Y-1.9173
X4.8819Y-2.1417
X4.8819Y-2.2244
X4.8858Y-2.3819
X4.9213Y-3.1122
X4.9213Y-3.1693
X4.9213Y-3.2264
X4.9213Y-3.2697
X4.9213Y-3.3268
X4.9213Y-3.3839
X4.9213Y-3.4272
X4.9213Y-3.4843
X4.9213Y-3.5413
X4.9213Y-3.7421
X4.9213Y-3.7992
X4.9213Y-3.8563
X4.9213Y-3.8996
X4.9213Y-3.9567
X4.9213Y-4.0138
X4.9213Y-4.0571
X4.9213Y-4.1142
X4.9213Y-4.1713
X5.0236Y-2.3031
X5.0807Y-3.5039
X5.0984Y-3.3366
X5.1496Y-3.8406
X5.2913Y-2.5551
X5.2913Y-3.6043
X5.2933Y-4.5335
X5.2953Y-3.7638
X5.3415Y-3.5759
X5.374Y-4.6024
X5.3976Y-2.6772
X5.4311Y-2.6969
X5.4469Y-4.5906
X5.5039Y-3.1122
X5.5039Y-3.1693
X5.5039Y-3.2264
X5.5039Y-3.3425
X5.5039Y-3.8996
X5.5039Y-3.9567
X5.5039Y-4.0138
X5.5039Y-4.0571
X5.5039Y-4.1142
X5.5039Y-4.1713
X5.5177Y-2.1457
X5.5177Y-2.2283
X5.5177Y-2.3031
X5.5177Y-2.3819
X5.5335Y-4.5591
X5.5413Y-4.7244
X5.5669Y-3.1319
X5.5669Y-3.2047
X5.5669Y-3.9193
X5.5669Y-3.9921
X5.5669Y-4.0768
X5.5669Y-4.1496
X5.6201Y-1.7953
X5.622Y-3.1496
X5.622Y-3.189
X5.622Y-3.937
X5.622Y-3.9764
X5.622Y-4.0945
X5.622Y-4.1339
X5.6437Y-4.5827
X5.6476Y-4.7638
X5.6988Y-1.9921
X5.6998Y-2.126
X5.7067Y-1.8898
X5.7205Y-1.6988
X5.7258Y-2.1024
X5.7382Y-1.9764
X5.7406Y-1.9374
X5.7441Y-5.2205
X5.7495Y-2.1299
X5.7614Y-1.9976
X5.7754Y-2.112
X5.7776Y-1.874
X5.7815Y-1.8386
X5.7894Y-3.1102
X5.7894Y-3.2283
X5.7894Y-3.2677
X5.7894Y-3.3858
X5.7894Y-3.4252
X5.7894Y-3.5433
X5.7894Y-3.5827
X5.7894Y-3.7008
X5.7894Y-3.7402
X5.7894Y-3.8583
X5.7894Y-3.8976
X5.7894Y-4.0157
X5.7894Y-4.0551
X5.7894Y-4.1732
X5.7933Y-1.9976
X5.8012Y-2.1535
X5.8071Y-5.2126
X5.8182Y-1.7874
X5.8287Y-1.9094
X5.8287Y-1.9488
X5.8484Y-2.0354
X5.8504Y-5.185
X5.8515Y-2.1511
X5.8681Y-1.9094
X5.8681Y-1.9488
X5.869Y-2.1111
X5.876Y-1.7835
X5.8813Y-1.8332
X5.8957Y-3.1496
X5.8957Y-3.189
X5.8957Y-3.3071
X5.8957Y-3.3465
X5.8957Y-3.4646
X5.8957Y-3.5039
X5.8957Y-3.622
X5.8957Y-3.6614
X5.8957Y-3.7795
X5.8957Y-3.8189
X5.8957Y-3.937
X5.8957Y-3.9764
X5.8957Y-4.0945
X5.8957Y-4.1339
X5.898Y-2.1361
X5.9055Y-5.2283
X5.9075Y-2.0039
X5.9146Y-1.8333
X5.9295Y-2.1436
X5.9469Y-1.8583
X5.9469Y-3.311
X5.9469Y-3.3661
X5.9469Y-3.4173
X5.964Y-2.1363
X5.9902Y-1.9298
X5.998Y-2.0866
X6.0098Y-2.185
X6.0138Y-3.311
X6.0138Y-3.3661
X6.0138Y-3.4173
X6.0492Y-2.185
X6.0768Y-2.7264
X6.0807Y-1.6299
X6.0846Y-2.1772
X6.1201Y-2.1732
X6.1208Y-2.0825
X6.1398Y-1.8465
X6.1398Y-1.9509
X6.1594Y-2.1654
X6.164Y-1.876
X6.197Y-2.1321
X6.2104Y-1.8583
X6.2106Y-2.4094
X6.2254Y-4.6228
X6.2598Y-1.8622
X6.2854Y-3.311
X6.2854Y-3.3661
X6.2854Y-3.4173
X6.2913Y-1.876
X6.3051Y-2.752
X6.3071Y-4.6181
X6.3091Y-4.7224
X6.312Y-5.0344
X6.313Y-4.7992
X6.3189Y-1.7677
X6.3445Y-1.8937
X6.3524Y-3.311
X6.3524Y-3.3661
X6.3524Y-3.4173
X6.3524Y-3.7283
X6.3524Y-3.8307
X6.3839Y-4.2835
X6.3878Y-4.1772
X6.3878Y-4.3937
X6.3966Y-2.1526
X6.4035Y-2.0551
X6.4114Y-5.752
X6.4311Y-2.1102
X6.4429Y-5.7126
X6.4542Y-2.1845
X6.4547Y-3.7283
X6.4547Y-3.8307
X6.4567Y-5.7785
X6.4665Y-2.0945
X6.4665Y-5.5787
X6.4693Y-5.6807
X6.4705Y-1.9882
X6.4723Y-2.1588
X6.4803Y-5.0256
X6.4823Y-2.0669
X6.4823Y-3.5571
X6.4823Y-3.6004
X6.4823Y-4.9252
X6.4902Y-3.7402
X6.498Y-3.9956
X6.502Y-4.1772
X6.502Y-4.2835
X6.502Y-4.3937
X6.5066Y-1.986
X6.5071Y-1.9509
X6.5256Y-3.315
X6.5256Y-3.3661
X6.5256Y-3.4173
X6.5374Y-3.4843
X6.5561Y-5.5187
X6.5586Y-1.8848
X6.5611Y-1.6004
X6.5853Y-3.6573
X6.5905Y-3.7107
X6.5965Y-5.0472
X6.5984Y-5.7894
X6.6004Y-3.9291
X6.6043Y-3.315
X6.6043Y-3.4173
X6.6083Y-3.3661
X6.6083Y-3.624
X6.6122Y-3.0945
X6.6202Y-5.6814
X6.628Y-5.4882
X6.6319Y-1.7638
X6.6673Y-1.5512
X6.6909Y-5.0827
X6.7126Y-1.5866
X6.7894Y-1.7638
X6.813Y-1.5472
X6.8341Y-1.9291
X6.8394Y-1.9603
X6.8602Y-2.0433
X6.8642Y-1.9197
X6.8769Y-1.7332
X6.9075Y-1.9764
X6.9331Y-5.7657
X6.9532Y-1.9862
X6.9862Y-2.1063
X7.0822Y-2.0
X7.0822Y-2.0787
X7.0925Y-1.8937
X7.1161Y-1.8504
X7.128Y-1.8976
X7.1485Y-2.0
X7.1732Y-5.7717
X7.1949Y-1.748
X7.1962Y-2.099
X7.2042Y-1.8293
X7.2103Y-1.7793
X7.2224Y-1.5472
X7.2481Y-1.8622
X7.25Y-1.7717
X7.2869Y-1.8543
X7.3091Y-5.6496
X7.3169Y-5.6102
X7.3642Y-1.8543
X7.3681Y-5.6909
X7.4035Y-1.7717
X7.4154Y-5.563
X7.4193Y-1.5472
X7.4311Y-4.1378
X7.437Y-5.8031
X7.4469Y-1.8583
X7.4469Y-3.7283
X7.4469Y-3.7992
X7.4508Y-5.5157
X7.4508Y-5.6831
X7.4547Y-1.5906
X7.4547Y-4.0709
X7.4705Y-4.0236
X7.4705Y-4.2087
X7.4744Y-3.9173
X7.4783Y-4.3307
X7.4862Y-4.3937
X7.4921Y-1.6024
X7.502Y-3.7205
X7.5059Y-5.8071
X7.5158Y-1.9627
X7.5217Y-1.8583
X7.5236Y-4.3169
X7.5256Y-4.0984
X7.5295Y-2.6358
X7.5295Y-2.7244
X7.5295Y-2.8228
X7.5295Y-2.9213
X7.5335Y-3.9803
X7.5335Y-5.5354
X7.5344Y-4.1811
X7.5374Y-3.3543
X7.5374Y-4.5157
X7.5453Y-2.3386
X7.5571Y-1.9724
X7.5571Y-3.2283
X7.561Y-3.0236
X7.565Y-4.2362
X7.565Y-4.7992
X7.565Y-4.9409
X7.5689Y-4.5945
X7.5696Y-5.681
X7.5719Y-2.0512
X7.5728Y-4.0276
X7.5735Y-3.6187
X7.5748Y-5.7343
X7.5768Y-3.126
X7.5813Y-1.9926
X7.5886Y-2.0787
X7.589Y-2.0236
X7.5906Y-1.6004
X7.5965Y-3.8228
X7.5965Y-2.1135
X7.6004Y-4.3031
X7.6083Y-4.2087
X7.6083Y-4.3661
X7.6122Y-2.1408
X7.6161Y-4.4567
X7.6201Y-4.126
X7.6358Y-2.1616
X7.6416Y-2.5945
X7.6417Y-2.5571
X7.6476Y-3.7126
X7.6555Y-4.1496
X7.6555Y-4.248
X7.6574Y-3.3189
X7.6594Y-2.185
X7.6634Y-4.3268
X7.6698Y-4.0039
X7.6731Y-2.8228
X7.6731Y-2.9252
X7.6731Y-3.0236
X7.6731Y-3.126
X7.6731Y-3.2244
X7.6752Y-3.8937
X7.687Y-5.1417
X7.687Y-5.2795
X7.6889Y-2.7244
X7.6899Y-2.193
X7.6949Y-4.1417
X7.7067Y-4.2677
X7.7106Y-2.1575
X7.7224Y-4.0276
X7.7461Y-3.8071
X7.7461Y-3.9173
X7.7461Y-4.5276
X7.7461Y-4.5787
X7.7461Y-5.1417
X7.75Y-1.9134
X7.7539Y-1.6575
X7.7618Y-3.8622
X7.7618Y-3.9724
X7.7657Y-3.752
X7.7657Y-4.3268
X7.7756Y-2.1929
X7.8012Y-5.1417
X7.8091Y-2.1929
X7.8186Y-4.0259
X7.8186Y-4.0669
X7.8186Y-4.1119
X7.8484Y-2.5
X7.8504Y-3.9272
X7.8563Y-5.1417
X7.8663Y-1.9724
X7.8839Y-4.1856
X7.8839Y-4.2244
X7.89Y-4.1519
X7.8917Y-4.5591
X7.8937Y-1.6909
X7.9311Y-2.0039
X7.935Y-1.6575
X7.9469Y-2.126
X7.9547Y-4.4646
X7.9547Y-4.5236
X7.9783Y-5.0591
X7.9862Y-4.9331
X8.0187Y-1.9242
X8.0531Y-1.9961
X8.065Y-2.0315
X8.0795Y-1.9759
X8.0846Y-1.9449
X8.0886Y-5.0984
X8.0987Y-1.8228
X8.1043Y-2.0433
X8.1083Y-4.7323
X8.1137Y-1.7283
X8.1161Y-4.9331
X8.1311Y-1.8245
X8.1358Y-2.0157
X8.1378Y-1.624
X8.1398Y-3.1496
X8.1398Y-3.189
X8.1398Y-3.3071
X8.1398Y-3.3465
X8.1398Y-3.4646
X8.1398Y-3.5039
X8.1398Y-3.622
X8.1398Y-3.6614
X8.1398Y-3.7795
X8.1398Y-3.8189
X8.1398Y-3.937
X8.1398Y-3.9764
X8.1398Y-4.0945
X8.1398Y-4.1339
X8.1398Y-4.7323
X8.1634Y-1.874
X8.1634Y-1.9134
X8.1713Y-4.7323
X8.1752Y-1.7126
X8.1831Y-5.3209
X8.185Y-5.128
X8.187Y-4.9331
X8.1988Y-5.0591
X8.2028Y-1.874
X8.2028Y-1.9134
X8.2171Y-2.0245
X8.2224Y-1.7441
X8.2228Y-1.8346
X8.2303Y-1.9665
X8.2461Y-3.1102
X8.2461Y-3.2283
X8.2461Y-3.2677
X8.2461Y-3.3858
X8.2461Y-3.4252
X8.2461Y-3.5433
X8.2461Y-3.5827
X8.2461Y-3.7008
X8.2461Y-3.7402
X8.2461Y-3.8583
X8.2461Y-3.8976
X8.2461Y-4.0157
X8.2461Y-4.0551
X8.2461Y-4.1732
X8.25Y-1.8539
X8.2539Y-1.6969
X8.2657Y-1.9803
X8.2736Y-4.626
X8.2868Y-1.9553
X8.2972Y-1.9961
X8.313Y-4.9331
X8.3484Y-1.9331
X8.3484Y-1.9961
X8.3602Y-1.8504
X8.3642Y-4.5787
X8.3878Y-4.7087
X8.3957Y-4.9646
X8.4665Y-1.8425
X8.4744Y-4.9213
X8.4862Y-4.5787
X8.5157Y-2.376
X8.5177Y-2.1496
X8.5197Y-2.3031
X8.5886Y-2.6772
X8.6043Y-2.6142
X8.6201Y-4.5433
X8.6555Y-4.5256
X8.6575Y-2.2244
X8.7421Y-4.6732
X8.75Y-2.7618
T2
X3.2638Y-5.1339
X3.2638Y-5.189
X3.2913Y-5.1063
X3.2913Y-5.1614
X3.2913Y-5.2165
X3.3189Y-5.1339
X3.3189Y-5.189
X3.3465Y-5.1063
X3.3465Y-5.1614
X3.3465Y-5.2165
X3.374Y-5.1339
X3.374Y-5.189
T3
X6.7421Y-5.7717
X7.2933Y-5.7717
T4
X7.4373Y-3.3736
X7.4373Y-3.6736
T5
X2.0394Y-1.815
X2.0825Y-5.0983
X2.134Y-1.7203
X2.1772Y-5.1929
X4.5945Y-5.1929
X4.6376Y-1.7203
X4.6891Y-5.0983
X4.7323Y-1.815
X6.9508Y-5.6102
X7.0846Y-5.6102
T3
G00X3.1677Y-1.6063
M15
G01X3.1677Y-1.6535
M16
G05
G00X3.1677Y-1.7657
M15
G01X3.1677Y-1.8012
M16
G05
G00X3.6039Y-1.6063
M15
G01X3.6039Y-1.6535
M16
G05
G00X3.6039Y-1.7657
M15
G01X3.6039Y-1.8012
M16
G05
T6
G00X6.9075Y-2.185
M15
G01X7.128Y-2.185
M16
G05
G00X6.9075Y-5.0984
M15
G01X7.128Y-5.0984
M16
G05
M30
