G04 #@! TF.GenerationSoftware,KiCad,Pcbnew,8.0.5*
G04 #@! TF.CreationDate,2024-09-20T17:27:57+03:00*
G04 #@! TF.ProjectId,BLDC_encoder_pcb,424c4443-5f65-46e6-936f-6465725f7063,rev?*
G04 #@! TF.SameCoordinates,Original*
G04 #@! TF.FileFunction,Soldermask,Top*
G04 #@! TF.FilePolarity,Negative*
%FSLAX46Y46*%
G04 Gerber Fmt 4.6, Leading zero omitted, Abs format (unit mm)*
G04 Created by KiCad (PCBNEW 8.0.5) date 2024-09-20 17:27:57*
%MOMM*%
%LPD*%
G01*
G04 APERTURE LIST*
G04 Aperture macros list*
%AMRoundRect*
0 Rectangle with rounded corners*
0 $1 Rounding radius*
0 $2 $3 $4 $5 $6 $7 $8 $9 X,Y pos of 4 corners*
0 Add a 4 corners polygon primitive as box body*
4,1,4,$2,$3,$4,$5,$6,$7,$8,$9,$2,$3,0*
0 Add four circle primitives for the rounded corners*
1,1,$1+$1,$2,$3*
1,1,$1+$1,$4,$5*
1,1,$1+$1,$6,$7*
1,1,$1+$1,$8,$9*
0 Add four rect primitives between the rounded corners*
20,1,$1+$1,$2,$3,$4,$5,0*
20,1,$1+$1,$4,$5,$6,$7,0*
20,1,$1+$1,$6,$7,$8,$9,0*
20,1,$1+$1,$8,$9,$2,$3,0*%
%AMOutline4P*
0 Free polygon, 4 corners , with rotation*
0 The origin of the aperture is its center*
0 number of corners: always 4*
0 $1 to $8 corner X, Y*
0 $9 Rotation angle, in degrees counterclockwise*
0 create outline with 4 corners*
4,1,4,$1,$2,$3,$4,$5,$6,$7,$8,$1,$2,$9*%
%AMFreePoly0*
4,1,19,0.550000,-0.750000,0.000000,-0.750000,0.000000,-0.744911,-0.071157,-0.744911,-0.207708,-0.704816,-0.327430,-0.627875,-0.420627,-0.520320,-0.479746,-0.390866,-0.500000,-0.250000,-0.500000,0.250000,-0.479746,0.390866,-0.420627,0.520320,-0.327430,0.627875,-0.207708,0.704816,-0.071157,0.744911,0.000000,0.744911,0.000000,0.750000,0.550000,0.750000,0.550000,-0.750000,0.550000,-0.750000,
$1*%
%AMFreePoly1*
4,1,19,0.000000,0.744911,0.071157,0.744911,0.207708,0.704816,0.327430,0.627875,0.420627,0.520320,0.479746,0.390866,0.500000,0.250000,0.500000,-0.250000,0.479746,-0.390866,0.420627,-0.520320,0.327430,-0.627875,0.207708,-0.704816,0.071157,-0.744911,0.000000,-0.744911,0.000000,-0.750000,-0.550000,-0.750000,-0.550000,0.750000,0.000000,0.750000,0.000000,0.744911,0.000000,0.744911,
$1*%
%AMFreePoly2*
4,1,19,0.500000,-0.750000,0.000000,-0.750000,0.000000,-0.744911,-0.071157,-0.744911,-0.207708,-0.704816,-0.327430,-0.627875,-0.420627,-0.520320,-0.479746,-0.390866,-0.500000,-0.250000,-0.500000,0.250000,-0.479746,0.390866,-0.420627,0.520320,-0.327430,0.627875,-0.207708,0.704816,-0.071157,0.744911,0.000000,0.744911,0.000000,0.750000,0.500000,0.750000,0.500000,-0.750000,0.500000,-0.750000,
$1*%
%AMFreePoly3*
4,1,19,0.000000,0.744911,0.071157,0.744911,0.207708,0.704816,0.327430,0.627875,0.420627,0.520320,0.479746,0.390866,0.500000,0.250000,0.500000,-0.250000,0.479746,-0.390866,0.420627,-0.520320,0.327430,-0.627875,0.207708,-0.704816,0.071157,-0.744911,0.000000,-0.744911,0.000000,-0.750000,-0.500000,-0.750000,-0.500000,0.750000,0.000000,0.750000,0.000000,0.744911,0.000000,0.744911,
$1*%
G04 Aperture macros list end*
%ADD10C,2.700000*%
%ADD11C,4.000000*%
%ADD12Outline4P,-1.500000X-1.500000X1.500000X-0.500000X1.500000X0.500000X-1.500000X1.500000X270.000000*%
%ADD13Outline4P,-1.500000X-1.500000X1.500000X-0.500000X1.500000X0.500000X-1.500000X1.500000X90.000000*%
%ADD14FreePoly0,180.000000*%
%ADD15R,1.000000X1.500000*%
%ADD16FreePoly1,180.000000*%
%ADD17RoundRect,0.237500X0.300000X0.237500X-0.300000X0.237500X-0.300000X-0.237500X0.300000X-0.237500X0*%
%ADD18RoundRect,0.155000X0.212500X0.155000X-0.212500X0.155000X-0.212500X-0.155000X0.212500X-0.155000X0*%
%ADD19FreePoly2,180.000000*%
%ADD20FreePoly3,180.000000*%
%ADD21RoundRect,0.150000X0.700000X0.150000X-0.700000X0.150000X-0.700000X-0.150000X0.700000X-0.150000X0*%
%ADD22RoundRect,0.150000X0.400000X0.150000X-0.400000X0.150000X-0.400000X-0.150000X0.400000X-0.150000X0*%
%ADD23C,0.500000*%
%ADD24RoundRect,0.150000X-0.700000X-0.150000X0.700000X-0.150000X0.700000X0.150000X-0.700000X0.150000X0*%
%ADD25RoundRect,0.150000X-0.400000X-0.150000X0.400000X-0.150000X0.400000X0.150000X-0.400000X0.150000X0*%
%ADD26RoundRect,0.155000X-0.212500X-0.155000X0.212500X-0.155000X0.212500X0.155000X-0.212500X0.155000X0*%
%ADD27RoundRect,0.237500X-0.300000X-0.237500X0.300000X-0.237500X0.300000X0.237500X-0.300000X0.237500X0*%
%ADD28FreePoly2,0.000000*%
%ADD29FreePoly3,0.000000*%
%ADD30FreePoly0,0.000000*%
%ADD31FreePoly1,0.000000*%
G04 APERTURE END LIST*
D10*
X5648987Y-26215421D03*
D11*
X0Y-23000000D03*
D10*
X-39857Y-16500121D03*
X-5609129Y-26284459D03*
D12*
X8000000Y-33300000D03*
X4000000Y-33300000D03*
X0Y-33300000D03*
X-4000000Y-33300000D03*
X12000000Y-33300000D03*
D13*
X12000000Y-15500000D03*
X8000000Y-15500000D03*
X4000000Y-15500000D03*
X-4000000Y-15500000D03*
D12*
X-8000000Y-33300000D03*
D13*
X-8000000Y-15500000D03*
D12*
X-12000000Y-33300000D03*
D13*
X-12000000Y-15500000D03*
D14*
X-5200000Y-22000000D03*
D15*
X-6500000Y-22000000D03*
D16*
X-7800000Y-22000000D03*
D17*
X-787500Y-26500000D03*
X-2512500Y-26500000D03*
D18*
X2500000Y-26400000D03*
X1365000Y-26400000D03*
D10*
X11500000Y-27800000D03*
D19*
X7200000Y-21500000D03*
D20*
X5900000Y-21500000D03*
D21*
X2600000Y-24905000D03*
D22*
X2900000Y-23635000D03*
X2900000Y-22365000D03*
D21*
X2600000Y-21095000D03*
X-2600000Y-21095000D03*
D22*
X-2900000Y-22365000D03*
X-2900000Y-23635000D03*
D21*
X-2600000Y-24905000D03*
D10*
X11500000Y-21500000D03*
X-11500000Y-27800000D03*
X-11500000Y-21500000D03*
D12*
X12000000Y-7500000D03*
D13*
X12000000Y10300000D03*
D12*
X8000000Y-7500000D03*
D13*
X8000000Y10300000D03*
D12*
X4000000Y-7500000D03*
X-4000000Y-7500000D03*
X-8000000Y-7500000D03*
X-12000000Y-7500000D03*
D13*
X-12000000Y10300000D03*
X4000000Y10300000D03*
X0Y10300000D03*
X-4000000Y10300000D03*
X-8000000Y10300000D03*
D10*
X5609129Y3284459D03*
X39857Y-6499879D03*
D11*
X0Y0D03*
D10*
X-5648987Y3215421D03*
D23*
X10250000Y-13000000D03*
X9500000Y-10000000D03*
X11000000Y-13000000D03*
X9500000Y-13000000D03*
X11750000Y-13000000D03*
X11750000Y-10000000D03*
X11000000Y-10000000D03*
X10250000Y-10000000D03*
X-10750001Y-10000000D03*
X-10000001Y-10000000D03*
X-10000001Y-13000000D03*
X-9250001Y-10000000D03*
X-10750001Y-13000000D03*
X-11500001Y-13000000D03*
X-11500001Y-10000000D03*
X-9250001Y-13000000D03*
D10*
X-11500000Y-1500000D03*
X-11500000Y4800000D03*
D24*
X-2600000Y1905000D03*
D25*
X-2900000Y635000D03*
X-2900000Y-635000D03*
D24*
X-2600000Y-1905000D03*
X2600000Y-1905000D03*
D25*
X2900000Y-635000D03*
X2900000Y635000D03*
D24*
X2600000Y1905000D03*
D26*
X-2500000Y3400000D03*
X-1365000Y3400000D03*
D27*
X787500Y3500000D03*
X2512500Y3500000D03*
D10*
X11500000Y-1500000D03*
X11500000Y4800000D03*
D28*
X-7200000Y-1500000D03*
D29*
X-5900000Y-1500000D03*
D30*
X5200000Y-1000000D03*
D15*
X6500000Y-1000000D03*
D31*
X7800000Y-1000000D03*
M02*
