G04 #@! TF.GenerationSoftware,KiCad,Pcbnew,8.0.5*
G04 #@! TF.CreationDate,2024-09-20T17:27:57+03:00*
G04 #@! TF.ProjectId,BLDC_encoder_pcb,424c4443-5f65-46e6-936f-6465725f7063,rev?*
G04 #@! TF.SameCoordinates,Original*
G04 #@! TF.FileFunction,Copper,L2,Bot*
G04 #@! TF.FilePolarity,Positive*
%FSLAX46Y46*%
G04 Gerber Fmt 4.6, Leading zero omitted, Abs format (unit mm)*
G04 Created by KiCad (PCBNEW 8.0.5) date 2024-09-20 17:27:57*
%MOMM*%
%LPD*%
G01*
G04 APERTURE LIST*
G04 #@! TA.AperFunction,ViaPad*
%ADD10C,0.600000*%
G04 #@! TD*
G04 #@! TA.AperFunction,Conductor*
%ADD11C,1.000000*%
G04 #@! TD*
G04 APERTURE END LIST*
D10*
X12500000Y-34800000D03*
X11100000Y-33400000D03*
X-7050000Y-33400000D03*
X-12900000Y-33400000D03*
X-3100000Y-15400000D03*
X7750000Y-21500000D03*
X-11500000Y-14000000D03*
X-10550000Y-31800000D03*
X-8900000Y-33400000D03*
X-6550000Y-17000000D03*
X12900000Y-15400000D03*
X3500000Y-14000000D03*
X4500000Y-14000000D03*
X-10550000Y-17000000D03*
X-11500000Y-34800000D03*
X8000000Y-17000000D03*
X-7500000Y-34800000D03*
X-11050000Y-33400000D03*
X10550000Y-17000000D03*
X10550000Y-31800000D03*
X11050000Y-15400000D03*
X13450000Y-17000000D03*
X13450000Y-31800000D03*
X-4500000Y-14000000D03*
X-13450000Y-17000000D03*
X9450000Y-17000000D03*
X12500000Y-14000000D03*
X-4950000Y-15400000D03*
X-13450000Y-31800000D03*
X7500000Y-14000000D03*
X12000000Y-17000000D03*
X-12500000Y-34800000D03*
X-5450000Y-17000000D03*
X6550000Y-17000000D03*
X-9450000Y-31800000D03*
X-7500000Y-14000000D03*
X-12500000Y-14000000D03*
X-5050000Y-22800000D03*
X-12000000Y-17000000D03*
X12000000Y-31800000D03*
X-11100000Y-15400000D03*
X-9450000Y-17000000D03*
X-8950000Y-15400000D03*
X-6550000Y-31800000D03*
X8900000Y-15400000D03*
X8500000Y-14000000D03*
X11500000Y-14000000D03*
X2550000Y-17000000D03*
X4000000Y-17000000D03*
X-8000000Y-17000000D03*
X4900000Y-15400000D03*
X12950000Y-33400000D03*
X-8000000Y-31800000D03*
X5450000Y-17000000D03*
X-4000000Y-17000000D03*
X7050000Y-15400000D03*
X-8500000Y-34800000D03*
X-2550000Y-17000000D03*
X11500000Y-34800000D03*
X-3500000Y-14000000D03*
X3500000Y-21050000D03*
X7600000Y-31800000D03*
X1670948Y-27675000D03*
X-12000000Y-31800000D03*
X3050000Y-15400000D03*
X-3100000Y-26500000D03*
X-12950000Y-15400000D03*
X-8500000Y-14000000D03*
X-7100000Y-15400000D03*
X950000Y-26400000D03*
X-7600000Y8800000D03*
X-1670948Y4675000D03*
X11100000Y-7600000D03*
X12500000Y11800000D03*
X7500000Y-9000000D03*
X4000000Y-6000000D03*
X-8500000Y-9000000D03*
X-10550000Y-6000000D03*
X-3050000Y-7600000D03*
X7100000Y-7600000D03*
X9450000Y8800000D03*
X-8900000Y-7600000D03*
X-4900000Y-7600000D03*
X-12000000Y8800000D03*
X8500000Y11800000D03*
X5450000Y-6000000D03*
X-11050000Y-7600000D03*
X13450000Y-6000000D03*
X8500000Y-9000000D03*
X-12950000Y10400000D03*
X4950000Y-7600000D03*
X12000000Y-6000000D03*
X-3500000Y-1950000D03*
X-13450000Y-6000000D03*
X-8000000Y-6000000D03*
X-2550000Y-6000000D03*
X8950000Y-7600000D03*
X-5450000Y-6000000D03*
X-7050000Y-7600000D03*
X4500000Y-9000000D03*
X12000000Y8800000D03*
X-13450000Y8800000D03*
X13450000Y8800000D03*
X12500000Y-9000000D03*
X-11500000Y-9000000D03*
X-10550000Y8800000D03*
X8000000Y-6000000D03*
X8000000Y8800000D03*
X11500000Y11800000D03*
X12950000Y-7600000D03*
X3500000Y-9000000D03*
X3100000Y3500000D03*
X11050000Y10400000D03*
X-11500000Y11800000D03*
X-6550000Y-6000000D03*
X7500000Y11800000D03*
X5050000Y-200000D03*
X-12000000Y-6000000D03*
X2550000Y-6000000D03*
X-12500000Y-9000000D03*
X-4000000Y-6000000D03*
X6550000Y8800000D03*
X9450000Y-6000000D03*
X-7500000Y-9000000D03*
X-9450000Y-6000000D03*
X-950000Y3400000D03*
X-3500000Y-9000000D03*
X-7750000Y-1500000D03*
X10550000Y8800000D03*
X-12900000Y-7600000D03*
X-12500000Y11800000D03*
X7050000Y10400000D03*
X11500000Y-9000000D03*
X3100000Y-7600000D03*
X10550000Y-6000000D03*
X12900000Y10400000D03*
X-11100000Y10400000D03*
X-4500000Y-9000000D03*
X8900000Y10400000D03*
X6550000Y-6000000D03*
D11*
X6500000Y-30700000D02*
X4695948Y-30700000D01*
X7600000Y-31800000D02*
X6500000Y-30700000D01*
X4695948Y-30700000D02*
X1670948Y-27675000D01*
X-4695948Y7700000D02*
X-1670948Y4675000D01*
X-7600000Y8800000D02*
X-6500000Y7700000D01*
X-6500000Y7700000D02*
X-4695948Y7700000D01*
G04 #@! TA.AperFunction,Conductor*
G36*
X13004417Y11799184D02*
G01*
X13023779Y11797799D01*
X13204557Y11784869D01*
X13222068Y11782351D01*
X13413787Y11740646D01*
X13430763Y11735662D01*
X13614609Y11667090D01*
X13630701Y11659740D01*
X13802904Y11565711D01*
X13817789Y11556146D01*
X13974867Y11438558D01*
X13988237Y11426972D01*
X14126972Y11288237D01*
X14138558Y11274867D01*
X14256146Y11117789D01*
X14265711Y11102904D01*
X14359740Y10930701D01*
X14367090Y10914609D01*
X14435662Y10730763D01*
X14440646Y10713787D01*
X14482351Y10522068D01*
X14484869Y10504557D01*
X14499184Y10304420D01*
X14499500Y10295573D01*
X14499500Y-7995572D01*
X14499184Y-8004419D01*
X14484869Y-8204557D01*
X14482351Y-8222068D01*
X14440646Y-8413787D01*
X14435662Y-8430763D01*
X14367090Y-8614609D01*
X14359740Y-8630701D01*
X14265711Y-8802904D01*
X14256146Y-8817789D01*
X14138558Y-8974867D01*
X14126972Y-8988237D01*
X13988237Y-9126972D01*
X13974867Y-9138558D01*
X13817789Y-9256146D01*
X13802904Y-9265711D01*
X13630701Y-9359740D01*
X13614609Y-9367090D01*
X13430763Y-9435662D01*
X13413787Y-9440646D01*
X13222068Y-9482351D01*
X13204557Y-9484869D01*
X13023779Y-9497799D01*
X13004417Y-9499184D01*
X12995572Y-9499500D01*
X12863161Y-9499500D01*
X12592035Y-9536765D01*
X12592029Y-9536766D01*
X12328510Y-9610601D01*
X12224584Y-9655742D01*
X12155252Y-9664395D01*
X12092248Y-9634191D01*
X12087502Y-9629688D01*
X12057316Y-9599502D01*
X12057314Y-9599500D01*
X11962786Y-9544924D01*
X11943187Y-9533608D01*
X11879539Y-9516554D01*
X11815892Y-9499500D01*
X11684108Y-9499500D01*
X11556814Y-9533608D01*
X11556813Y-9533608D01*
X11556811Y-9533609D01*
X11556810Y-9533609D01*
X11437000Y-9602782D01*
X11369100Y-9619255D01*
X11313000Y-9602782D01*
X11193189Y-9533609D01*
X11193186Y-9533608D01*
X11065892Y-9499500D01*
X10934108Y-9499500D01*
X10806814Y-9533608D01*
X10806813Y-9533608D01*
X10806811Y-9533609D01*
X10806810Y-9533609D01*
X10687000Y-9602782D01*
X10619100Y-9619255D01*
X10563000Y-9602782D01*
X10443189Y-9533609D01*
X10443186Y-9533608D01*
X10315892Y-9499500D01*
X10184108Y-9499500D01*
X10056814Y-9533608D01*
X10056813Y-9533608D01*
X10056811Y-9533609D01*
X10056810Y-9533609D01*
X9937000Y-9602782D01*
X9869100Y-9619255D01*
X9813000Y-9602782D01*
X9693189Y-9533609D01*
X9693186Y-9533608D01*
X9565892Y-9499500D01*
X9434108Y-9499500D01*
X9306812Y-9533608D01*
X9192686Y-9599500D01*
X9099496Y-9692689D01*
X9096821Y-9696176D01*
X9093815Y-9698370D01*
X9093753Y-9698433D01*
X9093743Y-9698423D01*
X9040391Y-9737377D01*
X8970645Y-9741529D01*
X8934022Y-9726635D01*
X8922511Y-9719635D01*
X8922509Y-9719634D01*
X8922504Y-9719631D01*
X8671493Y-9610602D01*
X8407970Y-9536766D01*
X8407966Y-9536765D01*
X8407965Y-9536765D01*
X8272401Y-9518132D01*
X8136839Y-9499500D01*
X8136838Y-9499500D01*
X8065892Y-9499500D01*
X-7934109Y-9499500D01*
X-8000001Y-9499500D01*
X-8136839Y-9499500D01*
X-8136840Y-9499500D01*
X-8272402Y-9518132D01*
X-8407966Y-9536765D01*
X-8407967Y-9536765D01*
X-8407971Y-9536766D01*
X-8671494Y-9610602D01*
X-8775414Y-9655741D01*
X-8844746Y-9664395D01*
X-8907750Y-9634191D01*
X-8912495Y-9629691D01*
X-8942685Y-9599501D01*
X-9056814Y-9533608D01*
X-9184109Y-9499500D01*
X-9315893Y-9499500D01*
X-9443187Y-9533608D01*
X-9443189Y-9533609D01*
X-9443190Y-9533609D01*
X-9563001Y-9602782D01*
X-9630901Y-9619255D01*
X-9687001Y-9602782D01*
X-9806811Y-9533609D01*
X-9934109Y-9499500D01*
X-10065893Y-9499500D01*
X-10193187Y-9533608D01*
X-10193189Y-9533609D01*
X-10193190Y-9533609D01*
X-10313001Y-9602782D01*
X-10380901Y-9619255D01*
X-10437001Y-9602782D01*
X-10556811Y-9533609D01*
X-10684109Y-9499500D01*
X-10815893Y-9499500D01*
X-10943187Y-9533608D01*
X-10943189Y-9533609D01*
X-10943190Y-9533609D01*
X-11063001Y-9602782D01*
X-11130901Y-9619255D01*
X-11187001Y-9602782D01*
X-11306811Y-9533609D01*
X-11434109Y-9499500D01*
X-11565893Y-9499500D01*
X-11629540Y-9516554D01*
X-11693188Y-9533608D01*
X-11712787Y-9544924D01*
X-11807315Y-9599500D01*
X-11900501Y-9692686D01*
X-11900505Y-9692693D01*
X-11903172Y-9696169D01*
X-11906182Y-9698367D01*
X-11906248Y-9698433D01*
X-11906258Y-9698422D01*
X-11959598Y-9737374D01*
X-12029344Y-9741531D01*
X-12065976Y-9726636D01*
X-12077491Y-9719633D01*
X-12328507Y-9610602D01*
X-12592030Y-9536766D01*
X-12592036Y-9536765D01*
X-12863162Y-9499500D01*
X-12863163Y-9499500D01*
X-12995573Y-9499500D01*
X-13004418Y-9499184D01*
X-13023780Y-9497799D01*
X-13204558Y-9484869D01*
X-13222069Y-9482351D01*
X-13413788Y-9440646D01*
X-13430764Y-9435662D01*
X-13614608Y-9367091D01*
X-13630701Y-9359741D01*
X-13802908Y-9265709D01*
X-13817791Y-9256144D01*
X-13974859Y-9138565D01*
X-13988231Y-9126979D01*
X-14126976Y-8988233D01*
X-14138561Y-8974863D01*
X-14256146Y-8817789D01*
X-14265711Y-8802905D01*
X-14359740Y-8630703D01*
X-14367090Y-8614610D01*
X-14435662Y-8430764D01*
X-14440646Y-8413788D01*
X-14482351Y-8222070D01*
X-14484869Y-8204559D01*
X-14499184Y-8004421D01*
X-14499500Y-7995574D01*
X-14499500Y-6373917D01*
X-1560643Y-6373917D01*
X-1560643Y-6625841D01*
X-1521233Y-6874664D01*
X-1443384Y-7114258D01*
X-1329013Y-7338724D01*
X-1180936Y-7542535D01*
X-1002799Y-7720672D01*
X-798988Y-7868749D01*
X-574522Y-7983120D01*
X-334928Y-8060969D01*
X-86105Y-8100379D01*
X-86104Y-8100379D01*
X165818Y-8100379D01*
X165819Y-8100379D01*
X414642Y-8060969D01*
X654236Y-7983120D01*
X878702Y-7868749D01*
X1082513Y-7720672D01*
X1260650Y-7542535D01*
X1408727Y-7338724D01*
X1523098Y-7114258D01*
X1600947Y-6874664D01*
X1640357Y-6625841D01*
X1640357Y-6373917D01*
X1600947Y-6125094D01*
X1523098Y-5885500D01*
X1523096Y-5885497D01*
X1523096Y-5885495D01*
X1481604Y-5804063D01*
X1408727Y-5661034D01*
X1389809Y-5634996D01*
X1260655Y-5457229D01*
X1260651Y-5457224D01*
X1082511Y-5279084D01*
X1082506Y-5279080D01*
X878705Y-5131011D01*
X878704Y-5131010D01*
X878702Y-5131009D01*
X808604Y-5095292D01*
X654240Y-5016639D01*
X414642Y-4938789D01*
X165819Y-4899379D01*
X-86105Y-4899379D01*
X-334928Y-4938789D01*
X-574526Y-5016639D01*
X-728890Y-5095292D01*
X-798988Y-5131009D01*
X-798990Y-5131010D01*
X-798991Y-5131011D01*
X-1002792Y-5279080D01*
X-1002797Y-5279084D01*
X-1180937Y-5457224D01*
X-1180941Y-5457229D01*
X-1310095Y-5634996D01*
X-1329013Y-5661034D01*
X-1401890Y-5804063D01*
X-1443382Y-5885495D01*
X-1443382Y-5885497D01*
X-1443384Y-5885500D01*
X-1521233Y-6125094D01*
X-1560643Y-6373917D01*
X-14499500Y-6373917D01*
X-14499500Y-1374038D01*
X-13100500Y-1374038D01*
X-13100500Y-1625962D01*
X-13061090Y-1874785D01*
X-12983241Y-2114379D01*
X-12868870Y-2338845D01*
X-12720793Y-2542656D01*
X-12542656Y-2720793D01*
X-12338845Y-2868870D01*
X-12114379Y-2983241D01*
X-11874785Y-3061090D01*
X-11625962Y-3100500D01*
X-11625961Y-3100500D01*
X-11374039Y-3100500D01*
X-11374038Y-3100500D01*
X-11125215Y-3061090D01*
X-10885621Y-2983241D01*
X-10885618Y-2983239D01*
X-10885616Y-2983239D01*
X-10804184Y-2941747D01*
X-10661155Y-2868870D01*
X-10635117Y-2849952D01*
X-10457350Y-2720798D01*
X-10457345Y-2720794D01*
X-10279205Y-2542654D01*
X-10279201Y-2542649D01*
X-10131132Y-2338848D01*
X-10016760Y-2114383D01*
X-9938910Y-1874785D01*
X-9899500Y-1625961D01*
X-9899500Y-1374038D01*
X-9938910Y-1125214D01*
X-10016760Y-885616D01*
X-10131132Y-661151D01*
X-10279201Y-457350D01*
X-10279205Y-457345D01*
X-10457345Y-279205D01*
X-10457350Y-279201D01*
X-10661151Y-131132D01*
X-10885616Y-16760D01*
X-11000762Y20652D01*
X-11125215Y61090D01*
X-11374038Y100500D01*
X-11625962Y100500D01*
X-11874785Y61090D01*
X-12059136Y1190D01*
X-12114383Y-16760D01*
X-12268747Y-95413D01*
X-12338845Y-131130D01*
X-12338847Y-131131D01*
X-12338848Y-131132D01*
X-12542649Y-279201D01*
X-12542654Y-279205D01*
X-12720794Y-457345D01*
X-12720798Y-457350D01*
X-12849952Y-635117D01*
X-12868870Y-661155D01*
X-12941747Y-804184D01*
X-12983239Y-885616D01*
X-12983239Y-885618D01*
X-12983241Y-885621D01*
X-13061090Y-1125215D01*
X-13100500Y-1374038D01*
X-14499500Y-1374038D01*
X-14499500Y147506D01*
X-2250500Y147506D01*
X-2250500Y-147506D01*
X-2211993Y-439993D01*
X-2135639Y-724952D01*
X-2022743Y-997507D01*
X-1875238Y-1252994D01*
X-1695646Y-1487042D01*
X-1487042Y-1695646D01*
X-1252994Y-1875238D01*
X-997507Y-2022743D01*
X-724952Y-2135639D01*
X-439993Y-2211993D01*
X-147506Y-2250500D01*
X-147499Y-2250500D01*
X147499Y-2250500D01*
X147506Y-2250500D01*
X439993Y-2211993D01*
X724952Y-2135639D01*
X997507Y-2022743D01*
X1252994Y-1875238D01*
X1487042Y-1695646D01*
X1695646Y-1487042D01*
X1782357Y-1374038D01*
X9899500Y-1374038D01*
X9899500Y-1625961D01*
X9938910Y-1874785D01*
X10016760Y-2114383D01*
X10131132Y-2338848D01*
X10279201Y-2542649D01*
X10279205Y-2542654D01*
X10457345Y-2720794D01*
X10457350Y-2720798D01*
X10635117Y-2849952D01*
X10661155Y-2868870D01*
X10804184Y-2941747D01*
X10885616Y-2983239D01*
X10885618Y-2983239D01*
X10885621Y-2983241D01*
X11125215Y-3061090D01*
X11374038Y-3100500D01*
X11374039Y-3100500D01*
X11625961Y-3100500D01*
X11625962Y-3100500D01*
X11874785Y-3061090D01*
X12114379Y-2983241D01*
X12338845Y-2868870D01*
X12542656Y-2720793D01*
X12720793Y-2542656D01*
X12868870Y-2338845D01*
X12983241Y-2114379D01*
X13061090Y-1874785D01*
X13100500Y-1625962D01*
X13100500Y-1374038D01*
X13061090Y-1125215D01*
X12983241Y-885621D01*
X12983239Y-885618D01*
X12983239Y-885616D01*
X12941747Y-804184D01*
X12868870Y-661155D01*
X12849952Y-635117D01*
X12720798Y-457350D01*
X12720794Y-457345D01*
X12542654Y-279205D01*
X12542649Y-279201D01*
X12338848Y-131132D01*
X12338847Y-131131D01*
X12338845Y-131130D01*
X12268747Y-95413D01*
X12114383Y-16760D01*
X12059136Y1190D01*
X11874785Y61090D01*
X11625962Y100500D01*
X11374038Y100500D01*
X11125215Y61090D01*
X11000762Y20652D01*
X10885616Y-16760D01*
X10661151Y-131132D01*
X10457350Y-279201D01*
X10457345Y-279205D01*
X10279205Y-457345D01*
X10279201Y-457350D01*
X10131132Y-661151D01*
X10016760Y-885616D01*
X9938910Y-1125214D01*
X9899500Y-1374038D01*
X1782357Y-1374038D01*
X1875238Y-1252994D01*
X2022743Y-997507D01*
X2135639Y-724952D01*
X2211993Y-439993D01*
X2250500Y-147506D01*
X2250500Y147506D01*
X2211993Y439993D01*
X2135639Y724952D01*
X2022743Y997507D01*
X1875238Y1252994D01*
X1695646Y1487042D01*
X1487042Y1695646D01*
X1252994Y1875238D01*
X997507Y2022743D01*
X724952Y2135639D01*
X439993Y2211993D01*
X147506Y2250500D01*
X-147506Y2250500D01*
X-439993Y2211993D01*
X-724952Y2135639D01*
X-997507Y2022743D01*
X-1252994Y1875238D01*
X-1487042Y1695646D01*
X-1695646Y1487042D01*
X-1875238Y1252994D01*
X-2022743Y997507D01*
X-2135639Y724952D01*
X-2211993Y439993D01*
X-2250500Y147506D01*
X-14499500Y147506D01*
X-14499500Y4925962D01*
X-13100500Y4925962D01*
X-13100500Y4674038D01*
X-13061090Y4425215D01*
X-12983241Y4185621D01*
X-12983239Y4185616D01*
X-12951489Y4123304D01*
X-12868870Y3961155D01*
X-12868867Y3961151D01*
X-12720798Y3757350D01*
X-12720794Y3757345D01*
X-12542654Y3579205D01*
X-12542649Y3579201D01*
X-12338848Y3431132D01*
X-12338845Y3431130D01*
X-12298201Y3410421D01*
X-12114383Y3316760D01*
X-11874785Y3238910D01*
X-11625962Y3199500D01*
X-11625961Y3199500D01*
X-11374039Y3199500D01*
X-11374038Y3199500D01*
X-11249626Y3219205D01*
X-11125214Y3238910D01*
X-10885616Y3316760D01*
X-10837291Y3341383D01*
X-7249487Y3341383D01*
X-7249487Y3089459D01*
X-7210077Y2840636D01*
X-7154658Y2670075D01*
X-7132226Y2601037D01*
X-7090734Y2519605D01*
X-7017857Y2376576D01*
X-7017854Y2376572D01*
X-6869785Y2172771D01*
X-6869781Y2172766D01*
X-6691641Y1994626D01*
X-6691636Y1994622D01*
X-6487835Y1846553D01*
X-6487832Y1846551D01*
X-6417734Y1810834D01*
X-6263370Y1732181D01*
X-6023772Y1654331D01*
X-5774949Y1614921D01*
X-5774948Y1614921D01*
X-5523026Y1614921D01*
X-5523025Y1614921D01*
X-5398613Y1634626D01*
X-5274201Y1654331D01*
X-5034603Y1732181D01*
X-4810138Y1846553D01*
X-4606337Y1994622D01*
X-4606332Y1994626D01*
X-4428192Y2172766D01*
X-4428188Y2172771D01*
X-4280119Y2376572D01*
X-4165747Y2601037D01*
X-4087897Y2840635D01*
X-4048487Y3089459D01*
X-4048487Y3341382D01*
X-4059422Y3410420D01*
X4008629Y3410420D01*
X4008629Y3158497D01*
X4048039Y2909673D01*
X4125889Y2670075D01*
X4240261Y2445610D01*
X4388330Y2241809D01*
X4388334Y2241804D01*
X4566474Y2063664D01*
X4566479Y2063660D01*
X4770280Y1915591D01*
X4994745Y1801219D01*
X5234343Y1723369D01*
X5358755Y1703664D01*
X5483167Y1683959D01*
X5483168Y1683959D01*
X5735090Y1683959D01*
X5735091Y1683959D01*
X5983914Y1723369D01*
X6223512Y1801219D01*
X6377876Y1879872D01*
X6447974Y1915589D01*
X6447977Y1915591D01*
X6651778Y2063660D01*
X6651783Y2063664D01*
X6829923Y2241804D01*
X6829927Y2241809D01*
X6977996Y2445610D01*
X6977999Y2445614D01*
X7057191Y2601037D01*
X7092368Y2670075D01*
X7092370Y2670080D01*
X7170219Y2909674D01*
X7209629Y3158497D01*
X7209629Y3410421D01*
X7170219Y3659244D01*
X7092370Y3898838D01*
X6977999Y4123304D01*
X6829922Y4327115D01*
X6651785Y4505252D01*
X6447974Y4653329D01*
X6223508Y4767700D01*
X5983914Y4845549D01*
X5735091Y4884959D01*
X5483167Y4884959D01*
X5234344Y4845549D01*
X4994750Y4767700D01*
X4994747Y4767698D01*
X4994745Y4767698D01*
X4913313Y4726206D01*
X4770284Y4653329D01*
X4770280Y4653326D01*
X4566479Y4505257D01*
X4566474Y4505253D01*
X4388334Y4327113D01*
X4388330Y4327108D01*
X4240261Y4123307D01*
X4125889Y3898842D01*
X4048039Y3659244D01*
X4008629Y3410420D01*
X-4059422Y3410420D01*
X-4087897Y3590206D01*
X-4127779Y3712949D01*
X-4165747Y3829804D01*
X-4280119Y4054269D01*
X-4428188Y4258070D01*
X-4428192Y4258075D01*
X-4606332Y4436215D01*
X-4606337Y4436219D01*
X-4810138Y4584288D01*
X-4810142Y4584291D01*
X-4953171Y4657168D01*
X-5034603Y4698660D01*
X-5034605Y4698660D01*
X-5034608Y4698662D01*
X-5274202Y4776511D01*
X-5523025Y4815921D01*
X-5774949Y4815921D01*
X-6023772Y4776511D01*
X-6263366Y4698662D01*
X-6487832Y4584291D01*
X-6691643Y4436214D01*
X-6869780Y4258077D01*
X-7017857Y4054266D01*
X-7132228Y3829800D01*
X-7210077Y3590206D01*
X-7249487Y3341383D01*
X-10837291Y3341383D01*
X-10661151Y3431132D01*
X-10457350Y3579201D01*
X-10457345Y3579205D01*
X-10279205Y3757345D01*
X-10279201Y3757350D01*
X-10131132Y3961151D01*
X-10016760Y4185616D01*
X-9938910Y4425214D01*
X-9899500Y4674038D01*
X-9899500Y4925961D01*
X-9938910Y5174785D01*
X-10016760Y5414383D01*
X-10131132Y5638848D01*
X-10279201Y5842649D01*
X-10279205Y5842654D01*
X-10457345Y6020794D01*
X-10457350Y6020798D01*
X-10661151Y6168867D01*
X-10661155Y6168870D01*
X-10804184Y6241747D01*
X-10885616Y6283239D01*
X-10885618Y6283239D01*
X-10885621Y6283241D01*
X-11125215Y6361090D01*
X-11374038Y6400500D01*
X-11625962Y6400500D01*
X-11874785Y6361090D01*
X-12114379Y6283241D01*
X-12338845Y6168870D01*
X-12542656Y6020793D01*
X-12720793Y5842656D01*
X-12868870Y5638845D01*
X-12983241Y5414379D01*
X-13061090Y5174785D01*
X-13100500Y4925962D01*
X-14499500Y4925962D01*
X-14499500Y8898542D01*
X-8600500Y8898542D01*
X-8600500Y8701457D01*
X-8600499Y8701455D01*
X-8562051Y8508164D01*
X-8491474Y8337778D01*
X-8486632Y8326089D01*
X-8486627Y8326079D01*
X-8377139Y8162219D01*
X-8377136Y8162215D01*
X-7281479Y7066559D01*
X-7281459Y7066537D01*
X-7137785Y6922863D01*
X-7137781Y6922860D01*
X-6973920Y6813371D01*
X-6973911Y6813366D01*
X-6901315Y6783296D01*
X-6845165Y6760038D01*
X-6791836Y6737949D01*
X-6791832Y6737948D01*
X-6791828Y6737946D01*
X-6695188Y6718724D01*
X-6598544Y6699500D01*
X-6598541Y6699500D01*
X-6598540Y6699500D01*
X-6401460Y6699500D01*
X-5161730Y6699500D01*
X-5094691Y6679815D01*
X-5074049Y6663181D01*
X-2308732Y3897863D01*
X-2308728Y3897860D01*
X-2144868Y3788372D01*
X-2144858Y3788367D01*
X-1962784Y3712949D01*
X-1962776Y3712947D01*
X-1769492Y3674500D01*
X-1769488Y3674500D01*
X-1572403Y3674500D01*
X-1379119Y3712947D01*
X-1379111Y3712949D01*
X-1197037Y3788367D01*
X-1197027Y3788372D01*
X-1033167Y3897860D01*
X-1033163Y3897863D01*
X-893811Y4037215D01*
X-893808Y4037219D01*
X-784320Y4201079D01*
X-784315Y4201089D01*
X-708897Y4383163D01*
X-708895Y4383171D01*
X-670448Y4576455D01*
X-670448Y4773544D01*
X-700766Y4925961D01*
X9899500Y4925961D01*
X9899500Y4674038D01*
X9938910Y4425214D01*
X10016760Y4185616D01*
X10131132Y3961151D01*
X10279201Y3757350D01*
X10279205Y3757345D01*
X10457345Y3579205D01*
X10457350Y3579201D01*
X10661151Y3431132D01*
X10885616Y3316760D01*
X11125214Y3238910D01*
X11249626Y3219205D01*
X11374038Y3199500D01*
X11374039Y3199500D01*
X11625961Y3199500D01*
X11625962Y3199500D01*
X11874785Y3238910D01*
X12114383Y3316760D01*
X12298201Y3410421D01*
X12338845Y3431130D01*
X12338848Y3431132D01*
X12542649Y3579201D01*
X12542654Y3579205D01*
X12720794Y3757345D01*
X12720798Y3757350D01*
X12868867Y3961151D01*
X12868870Y3961155D01*
X12951489Y4123304D01*
X12983239Y4185616D01*
X12983241Y4185621D01*
X13061090Y4425215D01*
X13100500Y4674038D01*
X13100500Y4925962D01*
X13061090Y5174785D01*
X12983241Y5414379D01*
X12868870Y5638845D01*
X12720793Y5842656D01*
X12542656Y6020793D01*
X12338845Y6168870D01*
X12114379Y6283241D01*
X11874785Y6361090D01*
X11625962Y6400500D01*
X11374038Y6400500D01*
X11125215Y6361090D01*
X10885621Y6283241D01*
X10885618Y6283239D01*
X10885616Y6283239D01*
X10804184Y6241747D01*
X10661155Y6168870D01*
X10661151Y6168867D01*
X10457350Y6020798D01*
X10457345Y6020794D01*
X10279205Y5842654D01*
X10279201Y5842649D01*
X10131132Y5638848D01*
X10016760Y5414383D01*
X9938910Y5174785D01*
X9899500Y4925961D01*
X-700766Y4925961D01*
X-708895Y4966828D01*
X-708897Y4966836D01*
X-784315Y5148910D01*
X-784320Y5148920D01*
X-893808Y5312780D01*
X-893811Y5312784D01*
X-3915683Y8334655D01*
X-3915712Y8334686D01*
X-4058162Y8477136D01*
X-4058166Y8477139D01*
X-4222030Y8586630D01*
X-4222033Y8586631D01*
X-4222034Y8586632D01*
X-4358559Y8643182D01*
X-4404112Y8662051D01*
X-4500760Y8681275D01*
X-4549083Y8690887D01*
X-4597406Y8700500D01*
X-4597407Y8700500D01*
X-6034218Y8700500D01*
X-6101257Y8720185D01*
X-6121899Y8736819D01*
X-6962215Y9577136D01*
X-6962219Y9577139D01*
X-7126079Y9686627D01*
X-7126083Y9686629D01*
X-7126086Y9686631D01*
X-7308164Y9762051D01*
X-7384847Y9777304D01*
X-7501457Y9800500D01*
X-7501460Y9800500D01*
X-7698540Y9800500D01*
X-7698543Y9800500D01*
X-7795627Y9781188D01*
X-7891836Y9762051D01*
X-8073914Y9686631D01*
X-8237781Y9577139D01*
X-8377139Y9437781D01*
X-8486631Y9273914D01*
X-8562051Y9091836D01*
X-8600499Y8898544D01*
X-8600500Y8898542D01*
X-14499500Y8898542D01*
X-14499500Y10295573D01*
X-14499184Y10304420D01*
X-14484869Y10504558D01*
X-14482351Y10522069D01*
X-14440646Y10713788D01*
X-14435662Y10730764D01*
X-14367091Y10914608D01*
X-14359741Y10930701D01*
X-14265709Y11102908D01*
X-14256144Y11117791D01*
X-14138565Y11274859D01*
X-14126979Y11288231D01*
X-13988233Y11426976D01*
X-13974863Y11438561D01*
X-13817789Y11556146D01*
X-13802905Y11565711D01*
X-13630703Y11659740D01*
X-13614610Y11667090D01*
X-13430764Y11735662D01*
X-13413788Y11740646D01*
X-13222070Y11782351D01*
X-13204559Y11784869D01*
X-13023781Y11797799D01*
X-13004419Y11799184D01*
X-12995574Y11799500D01*
X-12934110Y11799500D01*
X12934108Y11799500D01*
X12995572Y11799500D01*
X13004417Y11799184D01*
G37*
G04 #@! TD.AperFunction*
G04 #@! TA.AperFunction,Conductor*
G36*
X9068050Y-13276690D02*
G01*
X9096821Y-13303823D01*
X9099499Y-13307313D01*
X9099500Y-13307314D01*
X9192686Y-13400500D01*
X9306814Y-13466392D01*
X9434108Y-13500500D01*
X9434110Y-13500500D01*
X9565890Y-13500500D01*
X9565892Y-13500500D01*
X9693186Y-13466392D01*
X9807314Y-13400500D01*
X9807315Y-13400498D01*
X9812999Y-13397217D01*
X9880899Y-13380744D01*
X9937001Y-13397217D01*
X9942684Y-13400498D01*
X9942686Y-13400500D01*
X10056814Y-13466392D01*
X10184108Y-13500500D01*
X10184110Y-13500500D01*
X10315890Y-13500500D01*
X10315892Y-13500500D01*
X10443186Y-13466392D01*
X10557314Y-13400500D01*
X10557315Y-13400498D01*
X10562999Y-13397217D01*
X10630899Y-13380744D01*
X10687001Y-13397217D01*
X10692684Y-13400498D01*
X10692686Y-13400500D01*
X10806814Y-13466392D01*
X10934108Y-13500500D01*
X10934110Y-13500500D01*
X11065890Y-13500500D01*
X11065892Y-13500500D01*
X11193186Y-13466392D01*
X11307314Y-13400500D01*
X11307315Y-13400498D01*
X11312999Y-13397217D01*
X11380899Y-13380744D01*
X11437001Y-13397217D01*
X11442684Y-13400498D01*
X11442686Y-13400500D01*
X11556814Y-13466392D01*
X11684108Y-13500500D01*
X11684110Y-13500500D01*
X11815890Y-13500500D01*
X11815892Y-13500500D01*
X11943186Y-13466392D01*
X12057314Y-13400500D01*
X12087502Y-13370312D01*
X12148824Y-13336826D01*
X12218516Y-13341810D01*
X12224581Y-13344256D01*
X12328508Y-13389398D01*
X12592035Y-13463235D01*
X12830399Y-13495996D01*
X12863161Y-13500500D01*
X12863162Y-13500500D01*
X12934109Y-13500500D01*
X12995573Y-13500500D01*
X13004419Y-13500816D01*
X13204562Y-13515130D01*
X13222063Y-13517647D01*
X13413796Y-13559355D01*
X13430755Y-13564334D01*
X13614609Y-13632909D01*
X13630701Y-13640259D01*
X13802904Y-13734288D01*
X13817784Y-13743849D01*
X13974863Y-13861438D01*
X13974866Y-13861440D01*
X13988236Y-13873026D01*
X14126974Y-14011764D01*
X14138560Y-14025135D01*
X14256143Y-14182208D01*
X14265706Y-14197087D01*
X14359744Y-14369303D01*
X14367092Y-14385393D01*
X14435660Y-14569233D01*
X14440644Y-14586208D01*
X14482351Y-14777931D01*
X14484869Y-14795442D01*
X14499184Y-14995577D01*
X14499500Y-15004424D01*
X14499500Y-33295573D01*
X14499184Y-33304420D01*
X14484869Y-33504558D01*
X14482351Y-33522069D01*
X14440646Y-33713787D01*
X14435662Y-33730763D01*
X14367090Y-33914609D01*
X14359740Y-33930701D01*
X14265711Y-34102904D01*
X14256146Y-34117789D01*
X14138559Y-34274866D01*
X14126973Y-34288236D01*
X13988235Y-34426974D01*
X13974864Y-34438560D01*
X13817791Y-34556143D01*
X13802909Y-34565708D01*
X13630701Y-34659742D01*
X13614606Y-34667092D01*
X13430766Y-34735660D01*
X13413791Y-34740644D01*
X13222068Y-34782351D01*
X13204557Y-34784869D01*
X13021732Y-34797945D01*
X13004418Y-34799184D01*
X12995573Y-34799500D01*
X-12995572Y-34799500D01*
X-13004417Y-34799184D01*
X-13023779Y-34797799D01*
X-13204557Y-34784869D01*
X-13222068Y-34782351D01*
X-13413787Y-34740646D01*
X-13430763Y-34735662D01*
X-13614609Y-34667090D01*
X-13630702Y-34659740D01*
X-13802908Y-34565709D01*
X-13817791Y-34556144D01*
X-13974864Y-34438561D01*
X-13988235Y-34426975D01*
X-14126975Y-34288235D01*
X-14138561Y-34274864D01*
X-14256144Y-34117791D01*
X-14265709Y-34102908D01*
X-14359740Y-33930702D01*
X-14367090Y-33914609D01*
X-14435662Y-33730763D01*
X-14440646Y-33713787D01*
X-14482351Y-33522068D01*
X-14484869Y-33504557D01*
X-14499184Y-33304419D01*
X-14499500Y-33295572D01*
X-14499500Y-27674038D01*
X-13100500Y-27674038D01*
X-13100500Y-27925962D01*
X-13061090Y-28174785D01*
X-12983241Y-28414379D01*
X-12868870Y-28638845D01*
X-12720793Y-28842656D01*
X-12542656Y-29020793D01*
X-12338845Y-29168870D01*
X-12114379Y-29283241D01*
X-11874785Y-29361090D01*
X-11625962Y-29400500D01*
X-11625961Y-29400500D01*
X-11374039Y-29400500D01*
X-11374038Y-29400500D01*
X-11125215Y-29361090D01*
X-10885621Y-29283241D01*
X-10885618Y-29283239D01*
X-10885616Y-29283239D01*
X-10804184Y-29241747D01*
X-10661155Y-29168870D01*
X-10635117Y-29149952D01*
X-10457350Y-29020798D01*
X-10457345Y-29020794D01*
X-10279205Y-28842654D01*
X-10279201Y-28842649D01*
X-10131132Y-28638848D01*
X-10016760Y-28414383D01*
X-9938910Y-28174785D01*
X-9899500Y-27925961D01*
X-9899500Y-27674038D01*
X-9938910Y-27425214D01*
X-10016760Y-27185616D01*
X-10131132Y-26961151D01*
X-10279201Y-26757350D01*
X-10279205Y-26757345D01*
X-10457345Y-26579205D01*
X-10457350Y-26579201D01*
X-10661151Y-26431132D01*
X-10885616Y-26316760D01*
X-11125214Y-26238910D01*
X-11249626Y-26219205D01*
X-11374038Y-26199500D01*
X-11625962Y-26199500D01*
X-11874785Y-26238910D01*
X-12114383Y-26316760D01*
X-12268747Y-26395413D01*
X-12338845Y-26431130D01*
X-12338847Y-26431131D01*
X-12338848Y-26431132D01*
X-12542649Y-26579201D01*
X-12542654Y-26579205D01*
X-12720794Y-26757345D01*
X-12720798Y-26757350D01*
X-12822884Y-26897860D01*
X-12868870Y-26961155D01*
X-12907624Y-27037215D01*
X-12983239Y-27185616D01*
X-12983239Y-27185618D01*
X-12983241Y-27185621D01*
X-13061090Y-27425215D01*
X-13100500Y-27674038D01*
X-14499500Y-27674038D01*
X-14499500Y-26158497D01*
X-7209629Y-26158497D01*
X-7209629Y-26410421D01*
X-7170219Y-26659244D01*
X-7092370Y-26898838D01*
X-6977999Y-27123304D01*
X-6829922Y-27327115D01*
X-6651785Y-27505252D01*
X-6447974Y-27653329D01*
X-6223508Y-27767700D01*
X-5983914Y-27845549D01*
X-5735091Y-27884959D01*
X-5735090Y-27884959D01*
X-5483168Y-27884959D01*
X-5483167Y-27884959D01*
X-5234344Y-27845549D01*
X-4994750Y-27767700D01*
X-4994747Y-27767698D01*
X-4994745Y-27767698D01*
X-4913313Y-27726206D01*
X-4770284Y-27653329D01*
X-4675257Y-27584288D01*
X-4664476Y-27576455D01*
X670448Y-27576455D01*
X670448Y-27773544D01*
X708895Y-27966828D01*
X708897Y-27966836D01*
X784315Y-28148910D01*
X784320Y-28148920D01*
X893808Y-28312780D01*
X893811Y-28312784D01*
X3915683Y-31334655D01*
X3915712Y-31334686D01*
X4058162Y-31477136D01*
X4058166Y-31477139D01*
X4222027Y-31586628D01*
X4222040Y-31586635D01*
X4350781Y-31639961D01*
X4393692Y-31657735D01*
X4404112Y-31662051D01*
X4500760Y-31681275D01*
X4549083Y-31690887D01*
X4597406Y-31700500D01*
X4597407Y-31700500D01*
X4597408Y-31700500D01*
X4794488Y-31700500D01*
X6034218Y-31700500D01*
X6101257Y-31720185D01*
X6121899Y-31736819D01*
X6962215Y-32577136D01*
X6962219Y-32577139D01*
X7126079Y-32686627D01*
X7126083Y-32686629D01*
X7126086Y-32686631D01*
X7308164Y-32762051D01*
X7501455Y-32800499D01*
X7501458Y-32800500D01*
X7501460Y-32800500D01*
X7698542Y-32800500D01*
X7698543Y-32800499D01*
X7891836Y-32762051D01*
X8073914Y-32686631D01*
X8237781Y-32577139D01*
X8377139Y-32437781D01*
X8486631Y-32273914D01*
X8562051Y-32091836D01*
X8600500Y-31898540D01*
X8600500Y-31701460D01*
X8600500Y-31701457D01*
X8600499Y-31701455D01*
X8562052Y-31508171D01*
X8562051Y-31508164D01*
X8486631Y-31326086D01*
X8486629Y-31326083D01*
X8486627Y-31326079D01*
X8377139Y-31162219D01*
X8377136Y-31162215D01*
X7281479Y-30066559D01*
X7281459Y-30066537D01*
X7137785Y-29922863D01*
X7137781Y-29922860D01*
X6973920Y-29813371D01*
X6973911Y-29813366D01*
X6901315Y-29783296D01*
X6845165Y-29760038D01*
X6791836Y-29737949D01*
X6791832Y-29737948D01*
X6791828Y-29737946D01*
X6695188Y-29718724D01*
X6598544Y-29699500D01*
X6598541Y-29699500D01*
X5161730Y-29699500D01*
X5094691Y-29679815D01*
X5074049Y-29663181D01*
X2308732Y-26897863D01*
X2308728Y-26897860D01*
X2144868Y-26788372D01*
X2144858Y-26788367D01*
X1962784Y-26712949D01*
X1962776Y-26712947D01*
X1769491Y-26674500D01*
X1769488Y-26674500D01*
X1572408Y-26674500D01*
X1572405Y-26674500D01*
X1379119Y-26712947D01*
X1379111Y-26712949D01*
X1197037Y-26788367D01*
X1197027Y-26788372D01*
X1033167Y-26897860D01*
X1033163Y-26897863D01*
X893811Y-27037215D01*
X893808Y-27037219D01*
X784320Y-27201079D01*
X784315Y-27201089D01*
X708897Y-27383163D01*
X708895Y-27383171D01*
X670448Y-27576455D01*
X-4664476Y-27576455D01*
X-4566479Y-27505257D01*
X-4566474Y-27505253D01*
X-4388334Y-27327113D01*
X-4388330Y-27327108D01*
X-4240261Y-27123307D01*
X-4125889Y-26898842D01*
X-4048039Y-26659244D01*
X-4008629Y-26410420D01*
X-4008629Y-26158497D01*
X-4019564Y-26089459D01*
X4048487Y-26089459D01*
X4048487Y-26341383D01*
X4059422Y-26410421D01*
X4087897Y-26590206D01*
X4165747Y-26829804D01*
X4280119Y-27054269D01*
X4428188Y-27258070D01*
X4428192Y-27258075D01*
X4606332Y-27436215D01*
X4606337Y-27436219D01*
X4784104Y-27565373D01*
X4810142Y-27584291D01*
X4945631Y-27653326D01*
X5034603Y-27698660D01*
X5034605Y-27698660D01*
X5034608Y-27698662D01*
X5274202Y-27776511D01*
X5523025Y-27815921D01*
X5523026Y-27815921D01*
X5774948Y-27815921D01*
X5774949Y-27815921D01*
X6023772Y-27776511D01*
X6263366Y-27698662D01*
X6311693Y-27674038D01*
X9899500Y-27674038D01*
X9899500Y-27925961D01*
X9938910Y-28174785D01*
X10016760Y-28414383D01*
X10131132Y-28638848D01*
X10279201Y-28842649D01*
X10279205Y-28842654D01*
X10457345Y-29020794D01*
X10457350Y-29020798D01*
X10635117Y-29149952D01*
X10661155Y-29168870D01*
X10804184Y-29241747D01*
X10885616Y-29283239D01*
X10885618Y-29283239D01*
X10885621Y-29283241D01*
X11125215Y-29361090D01*
X11374038Y-29400500D01*
X11374039Y-29400500D01*
X11625961Y-29400500D01*
X11625962Y-29400500D01*
X11874785Y-29361090D01*
X12114379Y-29283241D01*
X12338845Y-29168870D01*
X12542656Y-29020793D01*
X12720793Y-28842656D01*
X12868870Y-28638845D01*
X12983241Y-28414379D01*
X13061090Y-28174785D01*
X13100500Y-27925962D01*
X13100500Y-27674038D01*
X13061090Y-27425215D01*
X12983241Y-27185621D01*
X12983239Y-27185618D01*
X12983239Y-27185616D01*
X12907624Y-27037215D01*
X12868870Y-26961155D01*
X12822884Y-26897860D01*
X12720798Y-26757350D01*
X12720794Y-26757345D01*
X12542654Y-26579205D01*
X12542649Y-26579201D01*
X12338848Y-26431132D01*
X12338847Y-26431131D01*
X12338845Y-26431130D01*
X12268747Y-26395413D01*
X12114383Y-26316760D01*
X11874785Y-26238910D01*
X11625962Y-26199500D01*
X11374038Y-26199500D01*
X11249626Y-26219205D01*
X11125214Y-26238910D01*
X10885616Y-26316760D01*
X10661151Y-26431132D01*
X10457350Y-26579201D01*
X10457345Y-26579205D01*
X10279205Y-26757345D01*
X10279201Y-26757350D01*
X10131132Y-26961151D01*
X10016760Y-27185616D01*
X9938910Y-27425214D01*
X9899500Y-27674038D01*
X6311693Y-27674038D01*
X6487832Y-27584291D01*
X6691643Y-27436214D01*
X6869780Y-27258077D01*
X7017857Y-27054266D01*
X7132228Y-26829800D01*
X7210077Y-26590206D01*
X7249487Y-26341383D01*
X7249487Y-26089459D01*
X7210077Y-25840636D01*
X7132228Y-25601042D01*
X7132226Y-25601039D01*
X7132226Y-25601037D01*
X7090734Y-25519605D01*
X7017857Y-25376576D01*
X6926257Y-25250499D01*
X6869785Y-25172771D01*
X6869781Y-25172766D01*
X6691641Y-24994626D01*
X6691636Y-24994622D01*
X6487835Y-24846553D01*
X6487834Y-24846552D01*
X6487832Y-24846551D01*
X6398861Y-24801218D01*
X6263370Y-24732181D01*
X6023772Y-24654331D01*
X5774949Y-24614921D01*
X5523025Y-24614921D01*
X5398613Y-24634626D01*
X5274201Y-24654331D01*
X5034603Y-24732181D01*
X4810138Y-24846553D01*
X4606337Y-24994622D01*
X4606332Y-24994626D01*
X4428192Y-25172766D01*
X4428188Y-25172771D01*
X4280119Y-25376572D01*
X4165747Y-25601037D01*
X4087897Y-25840635D01*
X4076962Y-25909674D01*
X4048487Y-26089459D01*
X-4019564Y-26089459D01*
X-4048039Y-25909673D01*
X-4125889Y-25670075D01*
X-4240261Y-25445610D01*
X-4388330Y-25241809D01*
X-4388334Y-25241804D01*
X-4566474Y-25063664D01*
X-4566479Y-25063660D01*
X-4770280Y-24915591D01*
X-4994745Y-24801219D01*
X-5234343Y-24723369D01*
X-5358755Y-24703664D01*
X-5483167Y-24683959D01*
X-5735091Y-24683959D01*
X-5983914Y-24723369D01*
X-6223512Y-24801219D01*
X-6368781Y-24875238D01*
X-6447974Y-24915589D01*
X-6447976Y-24915590D01*
X-6447977Y-24915591D01*
X-6651778Y-25063660D01*
X-6651783Y-25063664D01*
X-6829923Y-25241804D01*
X-6829927Y-25241809D01*
X-6836241Y-25250500D01*
X-6977999Y-25445614D01*
X-7050876Y-25588643D01*
X-7092368Y-25670075D01*
X-7092368Y-25670077D01*
X-7092370Y-25670080D01*
X-7170219Y-25909674D01*
X-7209629Y-26158497D01*
X-14499500Y-26158497D01*
X-14499500Y-21374038D01*
X-13100500Y-21374038D01*
X-13100500Y-21625962D01*
X-13061090Y-21874785D01*
X-12983241Y-22114379D01*
X-12868870Y-22338845D01*
X-12720793Y-22542656D01*
X-12542656Y-22720793D01*
X-12338845Y-22868870D01*
X-12114379Y-22983241D01*
X-11874785Y-23061090D01*
X-11625962Y-23100500D01*
X-11625961Y-23100500D01*
X-11374039Y-23100500D01*
X-11374038Y-23100500D01*
X-11125215Y-23061090D01*
X-10885621Y-22983241D01*
X-10885618Y-22983239D01*
X-10885616Y-22983239D01*
X-10804184Y-22941747D01*
X-10661155Y-22868870D01*
X-10638616Y-22852494D01*
X-2250500Y-22852494D01*
X-2250500Y-23147506D01*
X-2211993Y-23439993D01*
X-2135639Y-23724952D01*
X-2022743Y-23997507D01*
X-1875238Y-24252994D01*
X-1695646Y-24487042D01*
X-1487042Y-24695646D01*
X-1252994Y-24875238D01*
X-997507Y-25022743D01*
X-724952Y-25135639D01*
X-439993Y-25211993D01*
X-147506Y-25250500D01*
X-147499Y-25250500D01*
X147499Y-25250500D01*
X147506Y-25250500D01*
X439993Y-25211993D01*
X724952Y-25135639D01*
X997507Y-25022743D01*
X1252994Y-24875238D01*
X1487042Y-24695646D01*
X1695646Y-24487042D01*
X1875238Y-24252994D01*
X2022743Y-23997507D01*
X2135639Y-23724952D01*
X2211993Y-23439993D01*
X2250500Y-23147506D01*
X2250500Y-22852494D01*
X2211993Y-22560007D01*
X2135639Y-22275048D01*
X2022743Y-22002493D01*
X1875238Y-21747006D01*
X1695646Y-21512958D01*
X1695641Y-21512952D01*
X1556727Y-21374038D01*
X9899500Y-21374038D01*
X9899500Y-21625961D01*
X9938910Y-21874785D01*
X10016760Y-22114383D01*
X10131132Y-22338848D01*
X10279201Y-22542649D01*
X10279205Y-22542654D01*
X10457345Y-22720794D01*
X10457350Y-22720798D01*
X10635117Y-22849952D01*
X10661155Y-22868870D01*
X10804184Y-22941747D01*
X10885616Y-22983239D01*
X10885618Y-22983239D01*
X10885621Y-22983241D01*
X11125215Y-23061090D01*
X11374038Y-23100500D01*
X11374039Y-23100500D01*
X11625961Y-23100500D01*
X11625962Y-23100500D01*
X11874785Y-23061090D01*
X12114379Y-22983241D01*
X12338845Y-22868870D01*
X12542656Y-22720793D01*
X12720793Y-22542656D01*
X12868870Y-22338845D01*
X12983241Y-22114379D01*
X13061090Y-21874785D01*
X13100500Y-21625962D01*
X13100500Y-21374038D01*
X13061090Y-21125215D01*
X12983241Y-20885621D01*
X12983239Y-20885618D01*
X12983239Y-20885616D01*
X12913884Y-20749500D01*
X12868870Y-20661155D01*
X12849952Y-20635117D01*
X12720798Y-20457350D01*
X12720794Y-20457345D01*
X12542654Y-20279205D01*
X12542649Y-20279201D01*
X12338848Y-20131132D01*
X12338847Y-20131131D01*
X12338845Y-20131130D01*
X12268747Y-20095413D01*
X12114383Y-20016760D01*
X11874785Y-19938910D01*
X11625962Y-19899500D01*
X11374038Y-19899500D01*
X11249626Y-19919205D01*
X11125214Y-19938910D01*
X10885616Y-20016760D01*
X10661151Y-20131132D01*
X10457350Y-20279201D01*
X10457345Y-20279205D01*
X10279205Y-20457345D01*
X10279201Y-20457350D01*
X10131132Y-20661151D01*
X10016760Y-20885616D01*
X9938910Y-21125214D01*
X9899500Y-21374038D01*
X1556727Y-21374038D01*
X1487047Y-21304358D01*
X1487040Y-21304352D01*
X1252993Y-21124761D01*
X997510Y-20977258D01*
X997500Y-20977254D01*
X724961Y-20864364D01*
X724954Y-20864362D01*
X724952Y-20864361D01*
X439993Y-20788007D01*
X391113Y-20781571D01*
X147513Y-20749500D01*
X147506Y-20749500D01*
X-147506Y-20749500D01*
X-147513Y-20749500D01*
X-391113Y-20781571D01*
X-439993Y-20788007D01*
X-724952Y-20864361D01*
X-724954Y-20864362D01*
X-724961Y-20864364D01*
X-997500Y-20977254D01*
X-997510Y-20977258D01*
X-1252993Y-21124761D01*
X-1487040Y-21304352D01*
X-1487047Y-21304358D01*
X-1695641Y-21512952D01*
X-1695646Y-21512958D01*
X-1875238Y-21747006D01*
X-2022743Y-22002493D01*
X-2135639Y-22275048D01*
X-2211993Y-22560007D01*
X-2250500Y-22852494D01*
X-10638616Y-22852494D01*
X-10635117Y-22849952D01*
X-10457350Y-22720798D01*
X-10457345Y-22720794D01*
X-10279205Y-22542654D01*
X-10279201Y-22542649D01*
X-10131132Y-22338848D01*
X-10016760Y-22114383D01*
X-9938910Y-21874785D01*
X-9899500Y-21625961D01*
X-9899500Y-21374038D01*
X-9938910Y-21125214D01*
X-10016760Y-20885616D01*
X-10131132Y-20661151D01*
X-10279201Y-20457350D01*
X-10279205Y-20457345D01*
X-10457345Y-20279205D01*
X-10457350Y-20279201D01*
X-10661151Y-20131132D01*
X-10885616Y-20016760D01*
X-11125214Y-19938910D01*
X-11249626Y-19919205D01*
X-11374038Y-19899500D01*
X-11625962Y-19899500D01*
X-11874785Y-19938910D01*
X-12114383Y-20016760D01*
X-12268747Y-20095413D01*
X-12338845Y-20131130D01*
X-12338847Y-20131131D01*
X-12338848Y-20131132D01*
X-12542649Y-20279201D01*
X-12542654Y-20279205D01*
X-12720794Y-20457345D01*
X-12720798Y-20457350D01*
X-12849952Y-20635117D01*
X-12868870Y-20661155D01*
X-12913884Y-20749500D01*
X-12983239Y-20885616D01*
X-12983239Y-20885618D01*
X-12983241Y-20885621D01*
X-13061090Y-21125215D01*
X-13100500Y-21374038D01*
X-14499500Y-21374038D01*
X-14499500Y-16374159D01*
X-1640357Y-16374159D01*
X-1640357Y-16626083D01*
X-1600947Y-16874906D01*
X-1523098Y-17114500D01*
X-1408727Y-17338966D01*
X-1260650Y-17542777D01*
X-1082513Y-17720914D01*
X-878702Y-17868991D01*
X-654236Y-17983362D01*
X-414642Y-18061211D01*
X-165819Y-18100621D01*
X-165818Y-18100621D01*
X86104Y-18100621D01*
X86105Y-18100621D01*
X334928Y-18061211D01*
X574522Y-17983362D01*
X798988Y-17868991D01*
X1002799Y-17720914D01*
X1180936Y-17542777D01*
X1329013Y-17338966D01*
X1443384Y-17114500D01*
X1521233Y-16874906D01*
X1560643Y-16626083D01*
X1560643Y-16374159D01*
X1521233Y-16125336D01*
X1443384Y-15885742D01*
X1443382Y-15885739D01*
X1443382Y-15885737D01*
X1401890Y-15804305D01*
X1329013Y-15661276D01*
X1310095Y-15635238D01*
X1180941Y-15457471D01*
X1180937Y-15457466D01*
X1002797Y-15279326D01*
X1002792Y-15279322D01*
X798991Y-15131253D01*
X798990Y-15131252D01*
X798988Y-15131251D01*
X728890Y-15095534D01*
X574526Y-15016881D01*
X334928Y-14939031D01*
X303820Y-14934104D01*
X86105Y-14899621D01*
X-165819Y-14899621D01*
X-383534Y-14934104D01*
X-414642Y-14939031D01*
X-654240Y-15016881D01*
X-808604Y-15095534D01*
X-878702Y-15131251D01*
X-878704Y-15131252D01*
X-878705Y-15131253D01*
X-1082506Y-15279322D01*
X-1082511Y-15279326D01*
X-1260651Y-15457466D01*
X-1260655Y-15457471D01*
X-1389809Y-15635238D01*
X-1408727Y-15661276D01*
X-1481604Y-15804305D01*
X-1523096Y-15885737D01*
X-1523096Y-15885739D01*
X-1523098Y-15885742D01*
X-1600947Y-16125336D01*
X-1640357Y-16374159D01*
X-14499500Y-16374159D01*
X-14499500Y-15004424D01*
X-14499184Y-14995577D01*
X-14484869Y-14795442D01*
X-14482351Y-14777931D01*
X-14440646Y-14586212D01*
X-14435662Y-14569236D01*
X-14367090Y-14385390D01*
X-14359740Y-14369297D01*
X-14265709Y-14197091D01*
X-14256144Y-14182208D01*
X-14138561Y-14025135D01*
X-14126975Y-14011764D01*
X-13988235Y-13873024D01*
X-13974864Y-13861438D01*
X-13817791Y-13743855D01*
X-13802908Y-13734290D01*
X-13630702Y-13640259D01*
X-13614609Y-13632909D01*
X-13430755Y-13564334D01*
X-13413797Y-13559355D01*
X-13222063Y-13517647D01*
X-13204561Y-13515130D01*
X-13004418Y-13500816D01*
X-12995572Y-13500500D01*
X-12863162Y-13500500D01*
X-12830400Y-13495996D01*
X-12592036Y-13463235D01*
X-12328509Y-13389398D01*
X-12139530Y-13307313D01*
X-12077492Y-13280366D01*
X-12077490Y-13280365D01*
X-12065983Y-13273367D01*
X-11998478Y-13255351D01*
X-11931947Y-13276692D01*
X-11903174Y-13303829D01*
X-11900506Y-13307303D01*
X-11900501Y-13307314D01*
X-11807315Y-13400500D01*
X-11693187Y-13466392D01*
X-11565893Y-13500500D01*
X-11565891Y-13500500D01*
X-11434111Y-13500500D01*
X-11434109Y-13500500D01*
X-11306815Y-13466392D01*
X-11192687Y-13400500D01*
X-11192685Y-13400498D01*
X-11187002Y-13397217D01*
X-11119102Y-13380744D01*
X-11063000Y-13397217D01*
X-11057316Y-13400498D01*
X-11057315Y-13400500D01*
X-10943187Y-13466392D01*
X-10815893Y-13500500D01*
X-10815891Y-13500500D01*
X-10684111Y-13500500D01*
X-10684109Y-13500500D01*
X-10556815Y-13466392D01*
X-10442687Y-13400500D01*
X-10442685Y-13400498D01*
X-10437002Y-13397217D01*
X-10369102Y-13380744D01*
X-10313000Y-13397217D01*
X-10307316Y-13400498D01*
X-10307315Y-13400500D01*
X-10193187Y-13466392D01*
X-10065893Y-13500500D01*
X-10065891Y-13500500D01*
X-9934111Y-13500500D01*
X-9934109Y-13500500D01*
X-9806815Y-13466392D01*
X-9692687Y-13400500D01*
X-9692685Y-13400498D01*
X-9687002Y-13397217D01*
X-9619102Y-13380744D01*
X-9563000Y-13397217D01*
X-9557316Y-13400498D01*
X-9557315Y-13400500D01*
X-9443187Y-13466392D01*
X-9315893Y-13500500D01*
X-9315891Y-13500500D01*
X-9184111Y-13500500D01*
X-9184109Y-13500500D01*
X-9056815Y-13466392D01*
X-8942687Y-13400500D01*
X-8912498Y-13370311D01*
X-8851175Y-13336826D01*
X-8781483Y-13341810D01*
X-8775415Y-13344258D01*
X-8671493Y-13389398D01*
X-8407966Y-13463235D01*
X-8166069Y-13496482D01*
X-8136840Y-13500500D01*
X-8136839Y-13500500D01*
X8136839Y-13500500D01*
X8166068Y-13496482D01*
X8407965Y-13463235D01*
X8671492Y-13389398D01*
X8922511Y-13280365D01*
X8934015Y-13273369D01*
X9001518Y-13255351D01*
X9068050Y-13276690D01*
G37*
G04 #@! TD.AperFunction*
M02*
