M48
; DRILL file {KiCad 8.0.5} date 2024-09-20T17:28:02+0300
; FORMAT={-:-/ absolute / inch / decimal}
; #@! TF.CreationDate,2024-09-20T17:28:02+03:00
; #@! TF.GenerationSoftware,Kicad,Pcbnew,8.0.5
; #@! TF.FileFunction,Plated,1,2,PTH
FMAT,2
INCH
; #@! TA.AperFunction,Plated,PTH,ViaDrill
T1C0.0118
%
G90
G05
T1
X-0.5295Y0.3465
X-0.5295Y-0.2362
X-0.5295Y-0.6693
X-0.5295Y-1.252
X-0.5098Y0.4094
X-0.5098Y-0.6063
X-0.5079Y-0.2992
X-0.5079Y-1.315
X-0.4921Y0.4646
X-0.4921Y-0.3543
X-0.4921Y-0.5512
X-0.4921Y-1.3701
X-0.4724Y0.3465
X-0.4724Y-0.2362
X-0.4724Y-0.6693
X-0.4724Y-1.252
X-0.4528Y0.4646
X-0.4528Y-0.3543
X-0.4528Y-0.5512
X-0.4528Y-1.3701
X-0.437Y0.4094
X-0.437Y-0.6063
X-0.435Y-0.2992
X-0.435Y-1.315
X-0.4154Y0.3465
X-0.4154Y-0.2362
X-0.4154Y-0.6693
X-0.4154Y-1.252
X-0.372Y-0.2362
X-0.372Y-0.6693
X-0.372Y-1.252
X-0.3524Y-0.6063
X-0.3504Y-0.2992
X-0.3504Y-1.315
X-0.3346Y-0.3543
X-0.3346Y-0.5512
X-0.3346Y-1.3701
X-0.315Y-0.2362
X-0.315Y-0.6693
X-0.315Y-1.252
X-0.3051Y-0.0591
X-0.2992Y0.3465
X-0.2953Y-0.3543
X-0.2953Y-0.5512
X-0.2953Y-1.3701
X-0.2795Y-0.6063
X-0.2776Y-0.2992
X-0.2776Y-1.315
X-0.2579Y-0.2362
X-0.2579Y-0.6693
X-0.2579Y-1.252
X-0.2146Y-0.2362
X-0.2146Y-0.6693
X-0.1988Y-0.8976
X-0.1949Y-0.6063
X-0.1929Y-0.2992
X-0.1772Y-0.3543
X-0.1772Y-0.5512
X-0.1575Y-0.2362
X-0.1575Y-0.6693
X-0.1378Y-0.0768
X-0.1378Y-0.3543
X-0.1378Y-0.5512
X-0.122Y-0.6063
X-0.122Y-1.0433
X-0.1201Y-0.2992
X-0.1004Y-0.2362
X-0.1004Y-0.6693
X-0.0658Y0.1841
X-0.0374Y0.1339
X0.0374Y-1.0394
X0.0658Y-1.0896
X0.1004Y-0.2362
X0.1004Y-0.6693
X0.1201Y-0.6063
X0.122Y0.1378
X0.122Y-0.2992
X0.1378Y-0.3543
X0.1378Y-0.5512
X0.1378Y-0.8287
X0.1575Y-0.2362
X0.1575Y-0.6693
X0.1772Y-0.3543
X0.1772Y-0.5512
X0.1929Y-0.6063
X0.1949Y-0.2992
X0.1988Y-0.0079
X0.2146Y-0.2362
X0.2146Y-0.6693
X0.2579Y0.3465
X0.2579Y-0.2362
X0.2579Y-0.6693
X0.2776Y0.4094
X0.2776Y-0.6063
X0.2795Y-0.2992
X0.2953Y0.4646
X0.2953Y-0.3543
X0.2953Y-0.5512
X0.2992Y-1.252
X0.3051Y-0.8465
X0.315Y0.3465
X0.315Y-0.2362
X0.315Y-0.6693
X0.3346Y0.4646
X0.3346Y-0.3543
X0.3346Y-0.5512
X0.3504Y0.4094
X0.3504Y-0.6063
X0.3524Y-0.2992
X0.372Y0.3465
X0.372Y-0.2362
X0.372Y-0.6693
X0.4154Y0.3465
X0.4154Y-0.2362
X0.4154Y-0.6693
X0.4154Y-1.252
X0.435Y0.4094
X0.435Y-0.6063
X0.437Y-0.2992
X0.437Y-1.315
X0.4528Y0.4646
X0.4528Y-0.3543
X0.4528Y-0.5512
X0.4528Y-1.3701
X0.4724Y0.3465
X0.4724Y-0.2362
X0.4724Y-0.6693
X0.4724Y-1.252
X0.4921Y0.4646
X0.4921Y-0.3543
X0.4921Y-0.5512
X0.4921Y-1.3701
X0.5079Y0.4094
X0.5079Y-0.6063
X0.5098Y-0.2992
X0.5098Y-1.315
X0.5295Y0.3465
X0.5295Y-0.2362
X0.5295Y-0.6693
X0.5295Y-1.252
M30
