M48
; DRILL file {KiCad 8.0.5} date 2024-09-20T17:28:02+0300
; FORMAT={-:-/ absolute / inch / decimal}
; #@! TF.CreationDate,2024-09-20T17:28:02+03:00
; #@! TF.GenerationSoftware,Kicad,Pcbnew,8.0.5
; #@! TF.FileFunction,NonPlated,1,2,NPTH
FMAT,2
INCH
; #@! TA.AperFunction,NonPlated,NPTH,ComponentDrill
T1C0.0197
; #@! TA.AperFunction,NonPlated,NPTH,ComponentDrill
T2C0.1063
; #@! TA.AperFunction,NonPlated,NPTH,ComponentDrill
T3C0.1575
%
G90
G05
T1
X-0.4528Y-0.3937
X-0.4528Y-0.5118
X-0.4232Y-0.3937
X-0.4232Y-0.5118
X-0.3937Y-0.3937
X-0.3937Y-0.5118
X-0.3642Y-0.3937
X-0.3642Y-0.5118
X0.374Y-0.3937
X0.374Y-0.5118
X0.4035Y-0.3937
X0.4035Y-0.5118
X0.4331Y-0.3937
X0.4331Y-0.5118
X0.4626Y-0.3937
X0.4626Y-0.5118
T2
X-0.4528Y0.189
X-0.4528Y-0.0591
X-0.4528Y-0.8465
X-0.4528Y-1.0945
X-0.2224Y0.1266
X-0.2208Y-1.0348
X-0.0016Y-0.6496
X0.0016Y-0.2559
X0.2208Y0.1293
X0.2224Y-1.0321
X0.4528Y0.189
X0.4528Y-0.0591
X0.4528Y-0.8465
X0.4528Y-1.0945
T3
X0.0Y0.0
X0.0Y-0.9055
M30
