G04 #@! TF.GenerationSoftware,KiCad,Pcbnew,8.0.5*
G04 #@! TF.CreationDate,2024-09-20T17:27:57+03:00*
G04 #@! TF.ProjectId,BLDC_encoder_pcb,424c4443-5f65-46e6-936f-6465725f7063,rev?*
G04 #@! TF.SameCoordinates,Original*
G04 #@! TF.FileFunction,Profile,NP*
%FSLAX46Y46*%
G04 Gerber Fmt 4.6, Leading zero omitted, Abs format (unit mm)*
G04 Created by KiCad (PCBNEW 8.0.5) date 2024-09-20 17:27:57*
%MOMM*%
%LPD*%
G01*
G04 APERTURE LIST*
G04 #@! TA.AperFunction,Profile*
%ADD10C,0.050000*%
G04 #@! TD*
G04 #@! TA.AperFunction,Profile*
%ADD11C,0.100000*%
G04 #@! TD*
G04 APERTURE END LIST*
D10*
X13000002Y-35300000D02*
X-13000000Y-35300000D01*
X8000000Y-13000000D02*
X-8000001Y-13000000D01*
X-13000002Y12300000D02*
X13000000Y12300000D01*
X8000000Y-10000000D02*
X-8000001Y-10000000D01*
D11*
X13000000Y-13000000D02*
G75*
G02*
X13000000Y-10000000I0J1500000D01*
G01*
X8000000Y-10000000D02*
G75*
G02*
X8000000Y-13000000I0J-1500000D01*
G01*
X-8000001Y-13000000D02*
G75*
G02*
X-8000001Y-10000000I0J1500000D01*
G01*
X-13000001Y-10000000D02*
G75*
G02*
X-13000001Y-13000000I0J-1500000D01*
G01*
X15000000Y-14999998D02*
X15000000Y-33300001D01*
X-15000000Y-33300000D02*
X-15000000Y-15000000D01*
X15000000Y-33300001D02*
G75*
G02*
X13000002Y-35300000I-1999999J0D01*
G01*
X13000001Y-13000000D02*
G75*
G02*
X15000000Y-14999998I0J-1999999D01*
G01*
X-13000000Y-35300000D02*
G75*
G02*
X-15000000Y-33300000I0J2000000D01*
G01*
X-15000000Y-15000000D02*
G75*
G02*
X-13000000Y-13000000I2000000J0D01*
G01*
X15000000Y-8000000D02*
G75*
G02*
X13000000Y-10000000I-2000000J0D01*
G01*
X13000000Y12300000D02*
G75*
G02*
X15000000Y10300000I0J-2000000D01*
G01*
X-13000001Y-10000000D02*
G75*
G02*
X-15000000Y-8000002I0J1999999D01*
G01*
X-15000000Y10300001D02*
G75*
G02*
X-13000002Y12300000I1999999J0D01*
G01*
X15000000Y10300000D02*
X15000000Y-8000000D01*
X-15000000Y-8000002D02*
X-15000000Y10300001D01*
M02*
