G04 #@! TF.GenerationSoftware,KiCad,Pcbnew,8.0.5*
G04 #@! TF.CreationDate,2024-09-20T17:27:57+03:00*
G04 #@! TF.ProjectId,BLDC_encoder_pcb,424c4443-5f65-46e6-936f-6465725f7063,rev?*
G04 #@! TF.SameCoordinates,Original*
G04 #@! TF.FileFunction,Legend,Top*
G04 #@! TF.FilePolarity,Positive*
%FSLAX46Y46*%
G04 Gerber Fmt 4.6, Leading zero omitted, Abs format (unit mm)*
G04 Created by KiCad (PCBNEW 8.0.5) date 2024-09-20 17:27:57*
%MOMM*%
%LPD*%
G01*
G04 APERTURE LIST*
G04 Aperture macros list*
%AMRoundRect*
0 Rectangle with rounded corners*
0 $1 Rounding radius*
0 $2 $3 $4 $5 $6 $7 $8 $9 X,Y pos of 4 corners*
0 Add a 4 corners polygon primitive as box body*
4,1,4,$2,$3,$4,$5,$6,$7,$8,$9,$2,$3,0*
0 Add four circle primitives for the rounded corners*
1,1,$1+$1,$2,$3*
1,1,$1+$1,$4,$5*
1,1,$1+$1,$6,$7*
1,1,$1+$1,$8,$9*
0 Add four rect primitives between the rounded corners*
20,1,$1+$1,$2,$3,$4,$5,0*
20,1,$1+$1,$4,$5,$6,$7,0*
20,1,$1+$1,$6,$7,$8,$9,0*
20,1,$1+$1,$8,$9,$2,$3,0*%
%AMOutline4P*
0 Free polygon, 4 corners , with rotation*
0 The origin of the aperture is its center*
0 number of corners: always 4*
0 $1 to $8 corner X, Y*
0 $9 Rotation angle, in degrees counterclockwise*
0 create outline with 4 corners*
4,1,4,$1,$2,$3,$4,$5,$6,$7,$8,$1,$2,$9*%
%AMFreePoly0*
4,1,19,0.550000,-0.750000,0.000000,-0.750000,0.000000,-0.744911,-0.071157,-0.744911,-0.207708,-0.704816,-0.327430,-0.627875,-0.420627,-0.520320,-0.479746,-0.390866,-0.500000,-0.250000,-0.500000,0.250000,-0.479746,0.390866,-0.420627,0.520320,-0.327430,0.627875,-0.207708,0.704816,-0.071157,0.744911,0.000000,0.744911,0.000000,0.750000,0.550000,0.750000,0.550000,-0.750000,0.550000,-0.750000,
$1*%
%AMFreePoly1*
4,1,19,0.000000,0.744911,0.071157,0.744911,0.207708,0.704816,0.327430,0.627875,0.420627,0.520320,0.479746,0.390866,0.500000,0.250000,0.500000,-0.250000,0.479746,-0.390866,0.420627,-0.520320,0.327430,-0.627875,0.207708,-0.704816,0.071157,-0.744911,0.000000,-0.744911,0.000000,-0.750000,-0.550000,-0.750000,-0.550000,0.750000,0.000000,0.750000,0.000000,0.744911,0.000000,0.744911,
$1*%
%AMFreePoly2*
4,1,19,0.500000,-0.750000,0.000000,-0.750000,0.000000,-0.744911,-0.071157,-0.744911,-0.207708,-0.704816,-0.327430,-0.627875,-0.420627,-0.520320,-0.479746,-0.390866,-0.500000,-0.250000,-0.500000,0.250000,-0.479746,0.390866,-0.420627,0.520320,-0.327430,0.627875,-0.207708,0.704816,-0.071157,0.744911,0.000000,0.744911,0.000000,0.750000,0.500000,0.750000,0.500000,-0.750000,0.500000,-0.750000,
$1*%
%AMFreePoly3*
4,1,19,0.000000,0.744911,0.071157,0.744911,0.207708,0.704816,0.327430,0.627875,0.420627,0.520320,0.479746,0.390866,0.500000,0.250000,0.500000,-0.250000,0.479746,-0.390866,0.420627,-0.520320,0.327430,-0.627875,0.207708,-0.704816,0.071157,-0.744911,0.000000,-0.744911,0.000000,-0.750000,-0.500000,-0.750000,-0.500000,0.750000,0.000000,0.750000,0.000000,0.744911,0.000000,0.744911,
$1*%
G04 Aperture macros list end*
%ADD10C,0.153000*%
%ADD11C,0.150000*%
%ADD12C,0.100000*%
%ADD13C,0.120000*%
%ADD14C,2.700000*%
%ADD15C,4.000000*%
%ADD16Outline4P,-1.500000X-1.500000X1.500000X-0.500000X1.500000X0.500000X-1.500000X1.500000X270.000000*%
%ADD17Outline4P,-1.500000X-1.500000X1.500000X-0.500000X1.500000X0.500000X-1.500000X1.500000X90.000000*%
%ADD18FreePoly0,180.000000*%
%ADD19R,1.000000X1.500000*%
%ADD20FreePoly1,180.000000*%
%ADD21RoundRect,0.237500X0.300000X0.237500X-0.300000X0.237500X-0.300000X-0.237500X0.300000X-0.237500X0*%
%ADD22RoundRect,0.155000X0.212500X0.155000X-0.212500X0.155000X-0.212500X-0.155000X0.212500X-0.155000X0*%
%ADD23FreePoly2,180.000000*%
%ADD24FreePoly3,180.000000*%
%ADD25RoundRect,0.150000X0.700000X0.150000X-0.700000X0.150000X-0.700000X-0.150000X0.700000X-0.150000X0*%
%ADD26RoundRect,0.150000X0.400000X0.150000X-0.400000X0.150000X-0.400000X-0.150000X0.400000X-0.150000X0*%
%ADD27C,0.500000*%
%ADD28RoundRect,0.150000X-0.700000X-0.150000X0.700000X-0.150000X0.700000X0.150000X-0.700000X0.150000X0*%
%ADD29RoundRect,0.150000X-0.400000X-0.150000X0.400000X-0.150000X0.400000X0.150000X-0.400000X0.150000X0*%
%ADD30RoundRect,0.155000X-0.212500X-0.155000X0.212500X-0.155000X0.212500X0.155000X-0.212500X0.155000X0*%
%ADD31RoundRect,0.237500X-0.300000X-0.237500X0.300000X-0.237500X0.300000X0.237500X-0.300000X0.237500X0*%
%ADD32FreePoly2,0.000000*%
%ADD33FreePoly3,0.000000*%
%ADD34FreePoly0,0.000000*%
%ADD35FreePoly1,0.000000*%
G04 APERTURE END LIST*
D10*
X-4988752Y-29330336D02*
X-4988752Y-30330336D01*
X-4988752Y-30330336D02*
X-5322085Y-29616051D01*
X-5322085Y-29616051D02*
X-5655418Y-30330336D01*
X-5655418Y-30330336D02*
X-5655418Y-29330336D01*
X-6083990Y-30235098D02*
X-6131609Y-30282717D01*
X-6131609Y-30282717D02*
X-6226847Y-30330336D01*
X-6226847Y-30330336D02*
X-6464942Y-30330336D01*
X-6464942Y-30330336D02*
X-6560180Y-30282717D01*
X-6560180Y-30282717D02*
X-6607799Y-30235098D01*
X-6607799Y-30235098D02*
X-6655418Y-30139860D01*
X-6655418Y-30139860D02*
X-6655418Y-30044622D01*
X-6655418Y-30044622D02*
X-6607799Y-29901765D01*
X-6607799Y-29901765D02*
X-6036371Y-29330336D01*
X-6036371Y-29330336D02*
X-6655418Y-29330336D01*
X-7083990Y-29425575D02*
X-7131609Y-29377956D01*
X-7131609Y-29377956D02*
X-7083990Y-29330336D01*
X-7083990Y-29330336D02*
X-7036371Y-29377956D01*
X-7036371Y-29377956D02*
X-7083990Y-29425575D01*
X-7083990Y-29425575D02*
X-7083990Y-29330336D01*
X-8036370Y-30330336D02*
X-7560180Y-30330336D01*
X-7560180Y-30330336D02*
X-7512561Y-29854146D01*
X-7512561Y-29854146D02*
X-7560180Y-29901765D01*
X-7560180Y-29901765D02*
X-7655418Y-29949384D01*
X-7655418Y-29949384D02*
X-7893513Y-29949384D01*
X-7893513Y-29949384D02*
X-7988751Y-29901765D01*
X-7988751Y-29901765D02*
X-8036370Y-29854146D01*
X-8036370Y-29854146D02*
X-8083989Y-29758908D01*
X-8083989Y-29758908D02*
X-8083989Y-29520813D01*
X-8083989Y-29520813D02*
X-8036370Y-29425575D01*
X-8036370Y-29425575D02*
X-7988751Y-29377956D01*
X-7988751Y-29377956D02*
X-7893513Y-29330336D01*
X-7893513Y-29330336D02*
X-7655418Y-29330336D01*
X-7655418Y-29330336D02*
X-7560180Y-29377956D01*
X-7560180Y-29377956D02*
X-7512561Y-29425575D01*
D11*
X-6488095Y-19790419D02*
X-6440476Y-19742800D01*
X-6440476Y-19742800D02*
X-6297619Y-19695180D01*
X-6297619Y-19695180D02*
X-6202381Y-19695180D01*
X-6202381Y-19695180D02*
X-6059524Y-19742800D01*
X-6059524Y-19742800D02*
X-5964286Y-19838038D01*
X-5964286Y-19838038D02*
X-5916667Y-19933276D01*
X-5916667Y-19933276D02*
X-5869048Y-20123752D01*
X-5869048Y-20123752D02*
X-5869048Y-20266609D01*
X-5869048Y-20266609D02*
X-5916667Y-20457085D01*
X-5916667Y-20457085D02*
X-5964286Y-20552323D01*
X-5964286Y-20552323D02*
X-6059524Y-20647561D01*
X-6059524Y-20647561D02*
X-6202381Y-20695180D01*
X-6202381Y-20695180D02*
X-6297619Y-20695180D01*
X-6297619Y-20695180D02*
X-6440476Y-20647561D01*
X-6440476Y-20647561D02*
X-6488095Y-20599942D01*
X-7488095Y-19790419D02*
X-7440476Y-19742800D01*
X-7440476Y-19742800D02*
X-7297619Y-19695180D01*
X-7297619Y-19695180D02*
X-7202381Y-19695180D01*
X-7202381Y-19695180D02*
X-7059524Y-19742800D01*
X-7059524Y-19742800D02*
X-6964286Y-19838038D01*
X-6964286Y-19838038D02*
X-6916667Y-19933276D01*
X-6916667Y-19933276D02*
X-6869048Y-20123752D01*
X-6869048Y-20123752D02*
X-6869048Y-20266609D01*
X-6869048Y-20266609D02*
X-6916667Y-20457085D01*
X-6916667Y-20457085D02*
X-6964286Y-20552323D01*
X-6964286Y-20552323D02*
X-7059524Y-20647561D01*
X-7059524Y-20647561D02*
X-7202381Y-20695180D01*
X-7202381Y-20695180D02*
X-7297619Y-20695180D01*
X-7297619Y-20695180D02*
X-7440476Y-20647561D01*
X-7440476Y-20647561D02*
X-7488095Y-20599942D01*
X-7821429Y-20695180D02*
X-8059524Y-19695180D01*
X-8059524Y-19695180D02*
X-8250000Y-20409466D01*
X-8250000Y-20409466D02*
X-8440476Y-19695180D01*
X-8440476Y-19695180D02*
X-8678572Y-20695180D01*
X-4588095Y-23440419D02*
X-4540476Y-23392800D01*
X-4540476Y-23392800D02*
X-4397619Y-23345180D01*
X-4397619Y-23345180D02*
X-4302381Y-23345180D01*
X-4302381Y-23345180D02*
X-4159524Y-23392800D01*
X-4159524Y-23392800D02*
X-4064286Y-23488038D01*
X-4064286Y-23488038D02*
X-4016667Y-23583276D01*
X-4016667Y-23583276D02*
X-3969048Y-23773752D01*
X-3969048Y-23773752D02*
X-3969048Y-23916609D01*
X-3969048Y-23916609D02*
X-4016667Y-24107085D01*
X-4016667Y-24107085D02*
X-4064286Y-24202323D01*
X-4064286Y-24202323D02*
X-4159524Y-24297561D01*
X-4159524Y-24297561D02*
X-4302381Y-24345180D01*
X-4302381Y-24345180D02*
X-4397619Y-24345180D01*
X-4397619Y-24345180D02*
X-4540476Y-24297561D01*
X-4540476Y-24297561D02*
X-4588095Y-24249942D01*
X-4921429Y-24345180D02*
X-5159524Y-23345180D01*
X-5159524Y-23345180D02*
X-5350000Y-24059466D01*
X-5350000Y-24059466D02*
X-5540476Y-23345180D01*
X-5540476Y-23345180D02*
X-5778572Y-24345180D01*
X-1483333Y-28340419D02*
X-1435714Y-28292800D01*
X-1435714Y-28292800D02*
X-1292857Y-28245180D01*
X-1292857Y-28245180D02*
X-1197619Y-28245180D01*
X-1197619Y-28245180D02*
X-1054762Y-28292800D01*
X-1054762Y-28292800D02*
X-959524Y-28388038D01*
X-959524Y-28388038D02*
X-911905Y-28483276D01*
X-911905Y-28483276D02*
X-864286Y-28673752D01*
X-864286Y-28673752D02*
X-864286Y-28816609D01*
X-864286Y-28816609D02*
X-911905Y-29007085D01*
X-911905Y-29007085D02*
X-959524Y-29102323D01*
X-959524Y-29102323D02*
X-1054762Y-29197561D01*
X-1054762Y-29197561D02*
X-1197619Y-29245180D01*
X-1197619Y-29245180D02*
X-1292857Y-29245180D01*
X-1292857Y-29245180D02*
X-1435714Y-29197561D01*
X-1435714Y-29197561D02*
X-1483333Y-29149942D01*
X-1864286Y-29149942D02*
X-1911905Y-29197561D01*
X-1911905Y-29197561D02*
X-2007143Y-29245180D01*
X-2007143Y-29245180D02*
X-2245238Y-29245180D01*
X-2245238Y-29245180D02*
X-2340476Y-29197561D01*
X-2340476Y-29197561D02*
X-2388095Y-29149942D01*
X-2388095Y-29149942D02*
X-2435714Y-29054704D01*
X-2435714Y-29054704D02*
X-2435714Y-28959466D01*
X-2435714Y-28959466D02*
X-2388095Y-28816609D01*
X-2388095Y-28816609D02*
X-1816667Y-28245180D01*
X-1816667Y-28245180D02*
X-2435714Y-28245180D01*
X2099166Y-28340419D02*
X2146785Y-28292800D01*
X2146785Y-28292800D02*
X2289642Y-28245180D01*
X2289642Y-28245180D02*
X2384880Y-28245180D01*
X2384880Y-28245180D02*
X2527737Y-28292800D01*
X2527737Y-28292800D02*
X2622975Y-28388038D01*
X2622975Y-28388038D02*
X2670594Y-28483276D01*
X2670594Y-28483276D02*
X2718213Y-28673752D01*
X2718213Y-28673752D02*
X2718213Y-28816609D01*
X2718213Y-28816609D02*
X2670594Y-29007085D01*
X2670594Y-29007085D02*
X2622975Y-29102323D01*
X2622975Y-29102323D02*
X2527737Y-29197561D01*
X2527737Y-29197561D02*
X2384880Y-29245180D01*
X2384880Y-29245180D02*
X2289642Y-29245180D01*
X2289642Y-29245180D02*
X2146785Y-29197561D01*
X2146785Y-29197561D02*
X2099166Y-29149942D01*
X1146785Y-28245180D02*
X1718213Y-28245180D01*
X1432499Y-28245180D02*
X1432499Y-29245180D01*
X1432499Y-29245180D02*
X1527737Y-29102323D01*
X1527737Y-29102323D02*
X1622975Y-29007085D01*
X1622975Y-29007085D02*
X1718213Y-28959466D01*
X8785713Y-19045180D02*
X8785713Y-20045180D01*
X8785713Y-20045180D02*
X8404761Y-20045180D01*
X8404761Y-20045180D02*
X8309523Y-19997561D01*
X8309523Y-19997561D02*
X8261904Y-19949942D01*
X8261904Y-19949942D02*
X8214285Y-19854704D01*
X8214285Y-19854704D02*
X8214285Y-19711847D01*
X8214285Y-19711847D02*
X8261904Y-19616609D01*
X8261904Y-19616609D02*
X8309523Y-19568990D01*
X8309523Y-19568990D02*
X8404761Y-19521371D01*
X8404761Y-19521371D02*
X8785713Y-19521371D01*
X7214285Y-19045180D02*
X7547618Y-19521371D01*
X7785713Y-19045180D02*
X7785713Y-20045180D01*
X7785713Y-20045180D02*
X7404761Y-20045180D01*
X7404761Y-20045180D02*
X7309523Y-19997561D01*
X7309523Y-19997561D02*
X7261904Y-19949942D01*
X7261904Y-19949942D02*
X7214285Y-19854704D01*
X7214285Y-19854704D02*
X7214285Y-19711847D01*
X7214285Y-19711847D02*
X7261904Y-19616609D01*
X7261904Y-19616609D02*
X7309523Y-19568990D01*
X7309523Y-19568990D02*
X7404761Y-19521371D01*
X7404761Y-19521371D02*
X7785713Y-19521371D01*
X6595237Y-20045180D02*
X6404761Y-20045180D01*
X6404761Y-20045180D02*
X6309523Y-19997561D01*
X6309523Y-19997561D02*
X6214285Y-19902323D01*
X6214285Y-19902323D02*
X6166666Y-19711847D01*
X6166666Y-19711847D02*
X6166666Y-19378514D01*
X6166666Y-19378514D02*
X6214285Y-19188038D01*
X6214285Y-19188038D02*
X6309523Y-19092800D01*
X6309523Y-19092800D02*
X6404761Y-19045180D01*
X6404761Y-19045180D02*
X6595237Y-19045180D01*
X6595237Y-19045180D02*
X6690475Y-19092800D01*
X6690475Y-19092800D02*
X6785713Y-19188038D01*
X6785713Y-19188038D02*
X6833332Y-19378514D01*
X6833332Y-19378514D02*
X6833332Y-19711847D01*
X6833332Y-19711847D02*
X6785713Y-19902323D01*
X6785713Y-19902323D02*
X6690475Y-19997561D01*
X6690475Y-19997561D02*
X6595237Y-20045180D01*
X5214285Y-19997561D02*
X5309523Y-20045180D01*
X5309523Y-20045180D02*
X5452380Y-20045180D01*
X5452380Y-20045180D02*
X5595237Y-19997561D01*
X5595237Y-19997561D02*
X5690475Y-19902323D01*
X5690475Y-19902323D02*
X5738094Y-19807085D01*
X5738094Y-19807085D02*
X5785713Y-19616609D01*
X5785713Y-19616609D02*
X5785713Y-19473752D01*
X5785713Y-19473752D02*
X5738094Y-19283276D01*
X5738094Y-19283276D02*
X5690475Y-19188038D01*
X5690475Y-19188038D02*
X5595237Y-19092800D01*
X5595237Y-19092800D02*
X5452380Y-19045180D01*
X5452380Y-19045180D02*
X5357142Y-19045180D01*
X5357142Y-19045180D02*
X5214285Y-19092800D01*
X5214285Y-19092800D02*
X5166666Y-19140419D01*
X5166666Y-19140419D02*
X5166666Y-19473752D01*
X5166666Y-19473752D02*
X5357142Y-19473752D01*
X761904Y-20095180D02*
X761904Y-19285657D01*
X761904Y-19285657D02*
X714285Y-19190419D01*
X714285Y-19190419D02*
X666666Y-19142800D01*
X666666Y-19142800D02*
X571428Y-19095180D01*
X571428Y-19095180D02*
X380952Y-19095180D01*
X380952Y-19095180D02*
X285714Y-19142800D01*
X285714Y-19142800D02*
X238095Y-19190419D01*
X238095Y-19190419D02*
X190476Y-19285657D01*
X190476Y-19285657D02*
X190476Y-20095180D01*
X-809523Y-19095180D02*
X-238095Y-19095180D01*
X-523809Y-19095180D02*
X-523809Y-20095180D01*
X-523809Y-20095180D02*
X-428571Y-19952323D01*
X-428571Y-19952323D02*
X-333333Y-19857085D01*
X-333333Y-19857085D02*
X-238095Y-19809466D01*
D10*
X4988752Y6330336D02*
X4988752Y7330336D01*
X4988752Y7330336D02*
X5322085Y6616051D01*
X5322085Y6616051D02*
X5655418Y7330336D01*
X5655418Y7330336D02*
X5655418Y6330336D01*
X6083990Y7235098D02*
X6131609Y7282717D01*
X6131609Y7282717D02*
X6226847Y7330336D01*
X6226847Y7330336D02*
X6464942Y7330336D01*
X6464942Y7330336D02*
X6560180Y7282717D01*
X6560180Y7282717D02*
X6607799Y7235098D01*
X6607799Y7235098D02*
X6655418Y7139860D01*
X6655418Y7139860D02*
X6655418Y7044622D01*
X6655418Y7044622D02*
X6607799Y6901765D01*
X6607799Y6901765D02*
X6036371Y6330336D01*
X6036371Y6330336D02*
X6655418Y6330336D01*
X7083990Y6425575D02*
X7131609Y6377956D01*
X7131609Y6377956D02*
X7083990Y6330336D01*
X7083990Y6330336D02*
X7036371Y6377956D01*
X7036371Y6377956D02*
X7083990Y6425575D01*
X7083990Y6425575D02*
X7083990Y6330336D01*
X8036370Y7330336D02*
X7560180Y7330336D01*
X7560180Y7330336D02*
X7512561Y6854146D01*
X7512561Y6854146D02*
X7560180Y6901765D01*
X7560180Y6901765D02*
X7655418Y6949384D01*
X7655418Y6949384D02*
X7893513Y6949384D01*
X7893513Y6949384D02*
X7988751Y6901765D01*
X7988751Y6901765D02*
X8036370Y6854146D01*
X8036370Y6854146D02*
X8083989Y6758908D01*
X8083989Y6758908D02*
X8083989Y6520813D01*
X8083989Y6520813D02*
X8036370Y6425575D01*
X8036370Y6425575D02*
X7988751Y6377956D01*
X7988751Y6377956D02*
X7893513Y6330336D01*
X7893513Y6330336D02*
X7655418Y6330336D01*
X7655418Y6330336D02*
X7560180Y6377956D01*
X7560180Y6377956D02*
X7512561Y6425575D01*
D11*
X-761904Y-2904819D02*
X-761904Y-3714342D01*
X-761904Y-3714342D02*
X-714285Y-3809580D01*
X-714285Y-3809580D02*
X-666666Y-3857200D01*
X-666666Y-3857200D02*
X-571428Y-3904819D01*
X-571428Y-3904819D02*
X-380952Y-3904819D01*
X-380952Y-3904819D02*
X-285714Y-3857200D01*
X-285714Y-3857200D02*
X-238095Y-3809580D01*
X-238095Y-3809580D02*
X-190476Y-3714342D01*
X-190476Y-3714342D02*
X-190476Y-2904819D01*
X809523Y-3904819D02*
X238095Y-3904819D01*
X523809Y-3904819D02*
X523809Y-2904819D01*
X523809Y-2904819D02*
X428571Y-3047676D01*
X428571Y-3047676D02*
X333333Y-3142914D01*
X333333Y-3142914D02*
X238095Y-3190533D01*
X-2099166Y5340419D02*
X-2146785Y5292800D01*
X-2146785Y5292800D02*
X-2289642Y5245180D01*
X-2289642Y5245180D02*
X-2384880Y5245180D01*
X-2384880Y5245180D02*
X-2527737Y5292800D01*
X-2527737Y5292800D02*
X-2622975Y5388038D01*
X-2622975Y5388038D02*
X-2670594Y5483276D01*
X-2670594Y5483276D02*
X-2718213Y5673752D01*
X-2718213Y5673752D02*
X-2718213Y5816609D01*
X-2718213Y5816609D02*
X-2670594Y6007085D01*
X-2670594Y6007085D02*
X-2622975Y6102323D01*
X-2622975Y6102323D02*
X-2527737Y6197561D01*
X-2527737Y6197561D02*
X-2384880Y6245180D01*
X-2384880Y6245180D02*
X-2289642Y6245180D01*
X-2289642Y6245180D02*
X-2146785Y6197561D01*
X-2146785Y6197561D02*
X-2099166Y6149942D01*
X-1146785Y5245180D02*
X-1718213Y5245180D01*
X-1432499Y5245180D02*
X-1432499Y6245180D01*
X-1432499Y6245180D02*
X-1527737Y6102323D01*
X-1527737Y6102323D02*
X-1622975Y6007085D01*
X-1622975Y6007085D02*
X-1718213Y5959466D01*
X1483333Y5340419D02*
X1435714Y5292800D01*
X1435714Y5292800D02*
X1292857Y5245180D01*
X1292857Y5245180D02*
X1197619Y5245180D01*
X1197619Y5245180D02*
X1054762Y5292800D01*
X1054762Y5292800D02*
X959524Y5388038D01*
X959524Y5388038D02*
X911905Y5483276D01*
X911905Y5483276D02*
X864286Y5673752D01*
X864286Y5673752D02*
X864286Y5816609D01*
X864286Y5816609D02*
X911905Y6007085D01*
X911905Y6007085D02*
X959524Y6102323D01*
X959524Y6102323D02*
X1054762Y6197561D01*
X1054762Y6197561D02*
X1197619Y6245180D01*
X1197619Y6245180D02*
X1292857Y6245180D01*
X1292857Y6245180D02*
X1435714Y6197561D01*
X1435714Y6197561D02*
X1483333Y6149942D01*
X1864286Y6149942D02*
X1911905Y6197561D01*
X1911905Y6197561D02*
X2007143Y6245180D01*
X2007143Y6245180D02*
X2245238Y6245180D01*
X2245238Y6245180D02*
X2340476Y6197561D01*
X2340476Y6197561D02*
X2388095Y6149942D01*
X2388095Y6149942D02*
X2435714Y6054704D01*
X2435714Y6054704D02*
X2435714Y5959466D01*
X2435714Y5959466D02*
X2388095Y5816609D01*
X2388095Y5816609D02*
X1816667Y5245180D01*
X1816667Y5245180D02*
X2435714Y5245180D01*
X-8785713Y-3954819D02*
X-8785713Y-2954819D01*
X-8785713Y-2954819D02*
X-8404761Y-2954819D01*
X-8404761Y-2954819D02*
X-8309523Y-3002438D01*
X-8309523Y-3002438D02*
X-8261904Y-3050057D01*
X-8261904Y-3050057D02*
X-8214285Y-3145295D01*
X-8214285Y-3145295D02*
X-8214285Y-3288152D01*
X-8214285Y-3288152D02*
X-8261904Y-3383390D01*
X-8261904Y-3383390D02*
X-8309523Y-3431009D01*
X-8309523Y-3431009D02*
X-8404761Y-3478628D01*
X-8404761Y-3478628D02*
X-8785713Y-3478628D01*
X-7214285Y-3954819D02*
X-7547618Y-3478628D01*
X-7785713Y-3954819D02*
X-7785713Y-2954819D01*
X-7785713Y-2954819D02*
X-7404761Y-2954819D01*
X-7404761Y-2954819D02*
X-7309523Y-3002438D01*
X-7309523Y-3002438D02*
X-7261904Y-3050057D01*
X-7261904Y-3050057D02*
X-7214285Y-3145295D01*
X-7214285Y-3145295D02*
X-7214285Y-3288152D01*
X-7214285Y-3288152D02*
X-7261904Y-3383390D01*
X-7261904Y-3383390D02*
X-7309523Y-3431009D01*
X-7309523Y-3431009D02*
X-7404761Y-3478628D01*
X-7404761Y-3478628D02*
X-7785713Y-3478628D01*
X-6595237Y-2954819D02*
X-6404761Y-2954819D01*
X-6404761Y-2954819D02*
X-6309523Y-3002438D01*
X-6309523Y-3002438D02*
X-6214285Y-3097676D01*
X-6214285Y-3097676D02*
X-6166666Y-3288152D01*
X-6166666Y-3288152D02*
X-6166666Y-3621485D01*
X-6166666Y-3621485D02*
X-6214285Y-3811961D01*
X-6214285Y-3811961D02*
X-6309523Y-3907200D01*
X-6309523Y-3907200D02*
X-6404761Y-3954819D01*
X-6404761Y-3954819D02*
X-6595237Y-3954819D01*
X-6595237Y-3954819D02*
X-6690475Y-3907200D01*
X-6690475Y-3907200D02*
X-6785713Y-3811961D01*
X-6785713Y-3811961D02*
X-6833332Y-3621485D01*
X-6833332Y-3621485D02*
X-6833332Y-3288152D01*
X-6833332Y-3288152D02*
X-6785713Y-3097676D01*
X-6785713Y-3097676D02*
X-6690475Y-3002438D01*
X-6690475Y-3002438D02*
X-6595237Y-2954819D01*
X-5214285Y-3002438D02*
X-5309523Y-2954819D01*
X-5309523Y-2954819D02*
X-5452380Y-2954819D01*
X-5452380Y-2954819D02*
X-5595237Y-3002438D01*
X-5595237Y-3002438D02*
X-5690475Y-3097676D01*
X-5690475Y-3097676D02*
X-5738094Y-3192914D01*
X-5738094Y-3192914D02*
X-5785713Y-3383390D01*
X-5785713Y-3383390D02*
X-5785713Y-3526247D01*
X-5785713Y-3526247D02*
X-5738094Y-3716723D01*
X-5738094Y-3716723D02*
X-5690475Y-3811961D01*
X-5690475Y-3811961D02*
X-5595237Y-3907200D01*
X-5595237Y-3907200D02*
X-5452380Y-3954819D01*
X-5452380Y-3954819D02*
X-5357142Y-3954819D01*
X-5357142Y-3954819D02*
X-5214285Y-3907200D01*
X-5214285Y-3907200D02*
X-5166666Y-3859580D01*
X-5166666Y-3859580D02*
X-5166666Y-3526247D01*
X-5166666Y-3526247D02*
X-5357142Y-3526247D01*
X6488095Y-3209580D02*
X6440476Y-3257200D01*
X6440476Y-3257200D02*
X6297619Y-3304819D01*
X6297619Y-3304819D02*
X6202381Y-3304819D01*
X6202381Y-3304819D02*
X6059524Y-3257200D01*
X6059524Y-3257200D02*
X5964286Y-3161961D01*
X5964286Y-3161961D02*
X5916667Y-3066723D01*
X5916667Y-3066723D02*
X5869048Y-2876247D01*
X5869048Y-2876247D02*
X5869048Y-2733390D01*
X5869048Y-2733390D02*
X5916667Y-2542914D01*
X5916667Y-2542914D02*
X5964286Y-2447676D01*
X5964286Y-2447676D02*
X6059524Y-2352438D01*
X6059524Y-2352438D02*
X6202381Y-2304819D01*
X6202381Y-2304819D02*
X6297619Y-2304819D01*
X6297619Y-2304819D02*
X6440476Y-2352438D01*
X6440476Y-2352438D02*
X6488095Y-2400057D01*
X7488095Y-3209580D02*
X7440476Y-3257200D01*
X7440476Y-3257200D02*
X7297619Y-3304819D01*
X7297619Y-3304819D02*
X7202381Y-3304819D01*
X7202381Y-3304819D02*
X7059524Y-3257200D01*
X7059524Y-3257200D02*
X6964286Y-3161961D01*
X6964286Y-3161961D02*
X6916667Y-3066723D01*
X6916667Y-3066723D02*
X6869048Y-2876247D01*
X6869048Y-2876247D02*
X6869048Y-2733390D01*
X6869048Y-2733390D02*
X6916667Y-2542914D01*
X6916667Y-2542914D02*
X6964286Y-2447676D01*
X6964286Y-2447676D02*
X7059524Y-2352438D01*
X7059524Y-2352438D02*
X7202381Y-2304819D01*
X7202381Y-2304819D02*
X7297619Y-2304819D01*
X7297619Y-2304819D02*
X7440476Y-2352438D01*
X7440476Y-2352438D02*
X7488095Y-2400057D01*
X7821429Y-2304819D02*
X8059524Y-3304819D01*
X8059524Y-3304819D02*
X8250000Y-2590533D01*
X8250000Y-2590533D02*
X8440476Y-3304819D01*
X8440476Y-3304819D02*
X8678572Y-2304819D01*
X4588095Y440419D02*
X4540476Y392800D01*
X4540476Y392800D02*
X4397619Y345180D01*
X4397619Y345180D02*
X4302381Y345180D01*
X4302381Y345180D02*
X4159524Y392800D01*
X4159524Y392800D02*
X4064286Y488038D01*
X4064286Y488038D02*
X4016667Y583276D01*
X4016667Y583276D02*
X3969048Y773752D01*
X3969048Y773752D02*
X3969048Y916609D01*
X3969048Y916609D02*
X4016667Y1107085D01*
X4016667Y1107085D02*
X4064286Y1202323D01*
X4064286Y1202323D02*
X4159524Y1297561D01*
X4159524Y1297561D02*
X4302381Y1345180D01*
X4302381Y1345180D02*
X4397619Y1345180D01*
X4397619Y1345180D02*
X4540476Y1297561D01*
X4540476Y1297561D02*
X4588095Y1249942D01*
X4921429Y1345180D02*
X5159524Y345180D01*
X5159524Y345180D02*
X5350000Y1059466D01*
X5350000Y1059466D02*
X5540476Y345180D01*
X5540476Y345180D02*
X5778572Y1345180D01*
D12*
X6406782Y-24096873D02*
X2190792Y-16794564D01*
X-2253471Y-16903125D02*
X-6469466Y-24205445D01*
X-4153313Y-28000000D02*
X4278667Y-28000000D01*
X6406782Y-24096873D02*
G75*
G02*
X4278667Y-28000000I-757795J-2118548D01*
G01*
X-2253471Y-16903125D02*
G75*
G02*
X2190792Y-16794564I2213613J403005D01*
G01*
X-4153313Y-28000000D02*
G75*
G02*
X-6469466Y-24205445I-1455817J1715540D01*
G01*
D13*
X-4450000Y-21700000D02*
X-4450000Y-22300000D01*
X-5100000Y-23000000D02*
X-7900000Y-23000000D01*
X-7900000Y-21000000D02*
X-5100000Y-21000000D01*
X-8550000Y-22300000D02*
X-8550000Y-21700000D01*
X-4450000Y-22300000D02*
G75*
G02*
X-5150000Y-23000000I-699999J-1D01*
G01*
X-5150000Y-21000000D02*
G75*
G02*
X-4450000Y-21700000I1J-699999D01*
G01*
X-7850000Y-23000000D02*
G75*
G02*
X-8550000Y-22300000I0J700000D01*
G01*
X-8550000Y-21700000D02*
G75*
G02*
X-7850000Y-21000000I700000J0D01*
G01*
X-1503733Y-27010000D02*
X-1796267Y-27010000D01*
X-1503733Y-25990000D02*
X-1796267Y-25990000D01*
X2048335Y-26760000D02*
X1816665Y-26760000D01*
X2048335Y-26040000D02*
X1816665Y-26040000D01*
X7950000Y-21200000D02*
X7950000Y-21800000D01*
X7250000Y-22500000D02*
X5850000Y-22500000D01*
X5850000Y-20500000D02*
X7250000Y-20500000D01*
X5150000Y-21800000D02*
X5150000Y-21200000D01*
X7950000Y-21800000D02*
G75*
G02*
X7250000Y-22500000I-699999J-1D01*
G01*
X7250000Y-20500000D02*
G75*
G02*
X7950000Y-21200000I1J-699999D01*
G01*
X5850000Y-22500000D02*
G75*
G02*
X5150000Y-21800000I0J700000D01*
G01*
X5150000Y-21200000D02*
G75*
G02*
X5850000Y-20500000I700000J0D01*
G01*
X0Y-25560000D02*
X1950000Y-25560000D01*
X0Y-25560000D02*
X-1950000Y-25560000D01*
X0Y-20440000D02*
X1950000Y-20440000D01*
X0Y-20440000D02*
X-1950000Y-20440000D01*
X2940000Y-25795000D02*
X2460000Y-25795000D01*
X2700000Y-25465000D01*
X2940000Y-25795000D01*
G36*
X2940000Y-25795000D02*
G01*
X2460000Y-25795000D01*
X2700000Y-25465000D01*
X2940000Y-25795000D01*
G37*
D12*
X4153313Y5000000D02*
G75*
G02*
X6469466Y1205445I1455817J-1715540D01*
G01*
X2253471Y-6096875D02*
G75*
G02*
X-2190792Y-6205436I-2213613J-403005D01*
G01*
X-6406782Y1096873D02*
G75*
G02*
X-4278667Y5000000I757795J2118548D01*
G01*
X4153313Y5000000D02*
X-4278667Y5000000D01*
X2253471Y-6096875D02*
X6469466Y1205445D01*
X-6406782Y1096873D02*
X-2190792Y-6205436D01*
D13*
X0Y2560000D02*
X-1950000Y2560000D01*
X0Y2560000D02*
X1950000Y2560000D01*
X0Y-2560000D02*
X-1950000Y-2560000D01*
X0Y-2560000D02*
X1950000Y-2560000D01*
X-2700000Y2465000D02*
X-2940000Y2795000D01*
X-2460000Y2795000D01*
X-2700000Y2465000D01*
G36*
X-2700000Y2465000D02*
G01*
X-2940000Y2795000D01*
X-2460000Y2795000D01*
X-2700000Y2465000D01*
G37*
X-2048335Y3760000D02*
X-1816665Y3760000D01*
X-2048335Y3040000D02*
X-1816665Y3040000D01*
X1503733Y4010000D02*
X1796267Y4010000D01*
X1503733Y2990000D02*
X1796267Y2990000D01*
X-7950000Y-1800000D02*
X-7950000Y-1200000D01*
X-7250000Y-500000D02*
X-5850000Y-500000D01*
X-5850000Y-2500000D02*
X-7250000Y-2500000D01*
X-5150000Y-1200000D02*
X-5150000Y-1800000D01*
X-7950000Y-1200000D02*
G75*
G02*
X-7250000Y-500000I699999J1D01*
G01*
X-7250000Y-2500000D02*
G75*
G02*
X-7950000Y-1800000I-1J699999D01*
G01*
X-5850000Y-500000D02*
G75*
G02*
X-5150000Y-1200000I0J-700000D01*
G01*
X-5150000Y-1800000D02*
G75*
G02*
X-5850000Y-2500000I-700000J0D01*
G01*
X4450000Y-1300000D02*
X4450000Y-700000D01*
X5100000Y0D02*
X7900000Y0D01*
X7900000Y-2000000D02*
X5100000Y-2000000D01*
X8550000Y-700000D02*
X8550000Y-1300000D01*
X4450000Y-700000D02*
G75*
G02*
X5150000Y0I699999J1D01*
G01*
X5150000Y-2000000D02*
G75*
G02*
X4450000Y-1300000I-1J699999D01*
G01*
X7850000Y0D02*
G75*
G02*
X8550000Y-700000I0J-700000D01*
G01*
X8550000Y-1300000D02*
G75*
G02*
X7850000Y-2000000I-700000J0D01*
G01*
%LPC*%
D14*
X5648987Y-26215421D03*
D15*
X0Y-23000000D03*
D14*
X-39857Y-16500121D03*
X-5609129Y-26284459D03*
D16*
X8000000Y-33300000D03*
X4000000Y-33300000D03*
X0Y-33300000D03*
X-4000000Y-33300000D03*
X12000000Y-33300000D03*
D17*
X12000000Y-15500000D03*
X8000000Y-15500000D03*
X4000000Y-15500000D03*
X-4000000Y-15500000D03*
D16*
X-8000000Y-33300000D03*
D17*
X-8000000Y-15500000D03*
D16*
X-12000000Y-33300000D03*
D17*
X-12000000Y-15500000D03*
D18*
X-5200000Y-22000000D03*
D19*
X-6500000Y-22000000D03*
D20*
X-7800000Y-22000000D03*
D21*
X-787500Y-26500000D03*
X-2512500Y-26500000D03*
D22*
X2500000Y-26400000D03*
X1365000Y-26400000D03*
D14*
X11500000Y-27800000D03*
D23*
X7200000Y-21500000D03*
D24*
X5900000Y-21500000D03*
D25*
X2600000Y-24905000D03*
D26*
X2900000Y-23635000D03*
X2900000Y-22365000D03*
D25*
X2600000Y-21095000D03*
X-2600000Y-21095000D03*
D26*
X-2900000Y-22365000D03*
X-2900000Y-23635000D03*
D25*
X-2600000Y-24905000D03*
D14*
X11500000Y-21500000D03*
X-11500000Y-27800000D03*
X-11500000Y-21500000D03*
D16*
X12000000Y-7500000D03*
D17*
X12000000Y10300000D03*
D16*
X8000000Y-7500000D03*
D17*
X8000000Y10300000D03*
D16*
X4000000Y-7500000D03*
X-4000000Y-7500000D03*
X-8000000Y-7500000D03*
X-12000000Y-7500000D03*
D17*
X-12000000Y10300000D03*
X4000000Y10300000D03*
X0Y10300000D03*
X-4000000Y10300000D03*
X-8000000Y10300000D03*
D14*
X5609129Y3284459D03*
X39857Y-6499879D03*
D15*
X0Y0D03*
D14*
X-5648987Y3215421D03*
D27*
X10250000Y-13000000D03*
X9500000Y-10000000D03*
X11000000Y-13000000D03*
X9500000Y-13000000D03*
X11750000Y-13000000D03*
X11750000Y-10000000D03*
X11000000Y-10000000D03*
X10250000Y-10000000D03*
X-10750001Y-10000000D03*
X-10000001Y-10000000D03*
X-10000001Y-13000000D03*
X-9250001Y-10000000D03*
X-10750001Y-13000000D03*
X-11500001Y-13000000D03*
X-11500001Y-10000000D03*
X-9250001Y-13000000D03*
D14*
X-11500000Y-1500000D03*
X-11500000Y4800000D03*
D28*
X-2600000Y1905000D03*
D29*
X-2900000Y635000D03*
X-2900000Y-635000D03*
D28*
X-2600000Y-1905000D03*
X2600000Y-1905000D03*
D29*
X2900000Y-635000D03*
X2900000Y635000D03*
D28*
X2600000Y1905000D03*
D30*
X-2500000Y3400000D03*
X-1365000Y3400000D03*
D31*
X787500Y3500000D03*
X2512500Y3500000D03*
D14*
X11500000Y-1500000D03*
X11500000Y4800000D03*
D32*
X-7200000Y-1500000D03*
D33*
X-5900000Y-1500000D03*
D34*
X5200000Y-1000000D03*
D19*
X6500000Y-1000000D03*
D35*
X7800000Y-1000000D03*
%LPD*%
M02*
