G04 #@! TF.GenerationSoftware,KiCad,Pcbnew,8.0.8*
G04 #@! TF.CreationDate,2025-08-18T01:47:15+03:00*
G04 #@! TF.ProjectId,Microbot_v1.1,4d696372-6f62-46f7-945f-76312e312e6b,rev?*
G04 #@! TF.SameCoordinates,Original*
G04 #@! TF.FileFunction,Copper,L3,Inr*
G04 #@! TF.FilePolarity,Positive*
%FSLAX46Y46*%
G04 Gerber Fmt 4.6, Leading zero omitted, Abs format (unit mm)*
G04 Created by KiCad (PCBNEW 8.0.8) date 2025-08-18 01:47:15*
%MOMM*%
%LPD*%
G01*
G04 APERTURE LIST*
G04 Aperture macros list*
%AMHorizOval*
0 Thick line with rounded ends*
0 $1 width*
0 $2 $3 position (X,Y) of the first rounded end (center of the circle)*
0 $4 $5 position (X,Y) of the second rounded end (center of the circle)*
0 Add line between two ends*
20,1,$1,$2,$3,$4,$5,0*
0 Add two circle primitives to create the rounded ends*
1,1,$1,$2,$3*
1,1,$1,$4,$5*%
%AMRotRect*
0 Rectangle, with rotation*
0 The origin of the aperture is its center*
0 $1 length*
0 $2 width*
0 $3 Rotation angle, in degrees counterclockwise*
0 Add horizontal line*
21,1,$1,$2,0,0,$3*%
G04 Aperture macros list end*
G04 #@! TA.AperFunction,ComponentPad*
%ADD10O,2.600000X1.400000*%
G04 #@! TD*
G04 #@! TA.AperFunction,ComponentPad*
%ADD11O,8.800000X3.600000*%
G04 #@! TD*
G04 #@! TA.AperFunction,HeatsinkPad*
%ADD12C,0.600000*%
G04 #@! TD*
G04 #@! TA.AperFunction,ComponentPad*
%ADD13RotRect,1.050000X1.300000X295.000000*%
G04 #@! TD*
G04 #@! TA.AperFunction,ComponentPad*
%ADD14HorizOval,1.050000X-0.113288X-0.052827X0.113288X0.052827X0*%
G04 #@! TD*
G04 #@! TA.AperFunction,ComponentPad*
%ADD15R,1.700000X1.700000*%
G04 #@! TD*
G04 #@! TA.AperFunction,ComponentPad*
%ADD16O,1.700000X1.700000*%
G04 #@! TD*
G04 #@! TA.AperFunction,ComponentPad*
%ADD17O,4.000000X4.000000*%
G04 #@! TD*
G04 #@! TA.AperFunction,ComponentPad*
%ADD18RotRect,1.050000X1.300000X115.000000*%
G04 #@! TD*
G04 #@! TA.AperFunction,ComponentPad*
%ADD19HorizOval,1.050000X0.113288X0.052827X-0.113288X-0.052827X0*%
G04 #@! TD*
G04 #@! TA.AperFunction,ComponentPad*
%ADD20RotRect,1.050000X1.300000X65.000000*%
G04 #@! TD*
G04 #@! TA.AperFunction,ComponentPad*
%ADD21HorizOval,1.050000X-0.113288X0.052827X0.113288X-0.052827X0*%
G04 #@! TD*
G04 #@! TA.AperFunction,ComponentPad*
%ADD22RotRect,1.050000X1.300000X245.000000*%
G04 #@! TD*
G04 #@! TA.AperFunction,ComponentPad*
%ADD23O,0.950000X2.150000*%
G04 #@! TD*
G04 #@! TA.AperFunction,ComponentPad*
%ADD24O,1.000000X1.900000*%
G04 #@! TD*
G04 #@! TA.AperFunction,ViaPad*
%ADD25C,0.600000*%
G04 #@! TD*
G04 #@! TA.AperFunction,Conductor*
%ADD26C,1.000000*%
G04 #@! TD*
G04 #@! TA.AperFunction,Conductor*
%ADD27C,0.500000*%
G04 #@! TD*
G04 #@! TA.AperFunction,Conductor*
%ADD28C,0.200000*%
G04 #@! TD*
G04 #@! TA.AperFunction,Conductor*
%ADD29C,0.400000*%
G04 #@! TD*
G04 #@! TA.AperFunction,Conductor*
%ADD30C,0.300000*%
G04 #@! TD*
G04 #@! TA.AperFunction,Conductor*
%ADD31C,2.000000*%
G04 #@! TD*
G04 #@! TA.AperFunction,Conductor*
%ADD32C,3.000000*%
G04 #@! TD*
G04 #@! TA.AperFunction,Conductor*
%ADD33C,1.500000*%
G04 #@! TD*
G04 #@! TA.AperFunction,Conductor*
%ADD34C,2.500000*%
G04 #@! TD*
G04 APERTURE END LIST*
D10*
X33870214Y-8534441D03*
X33870214Y-1534441D03*
X58929786Y-8534441D03*
X58929786Y-1534441D03*
D11*
X-62900000Y2000000D03*
X-29900000Y2000000D03*
D12*
X-1100000Y6200000D03*
X-1100000Y7600000D03*
X-1800000Y5500000D03*
X-1800000Y6900000D03*
X-1800000Y8300000D03*
X-2500000Y6200000D03*
X-2500000Y7600000D03*
X-3200000Y5500000D03*
X-3200000Y6900000D03*
X-3200000Y8300000D03*
X-3900000Y6200000D03*
X-3900000Y7600000D03*
D11*
X30000000Y-12000000D03*
X62800000Y2000000D03*
D13*
X26989333Y-6841757D03*
D14*
X27526059Y-7992769D03*
X28062783Y-9143779D03*
D15*
X-17500000Y-11750000D03*
D16*
X-17500000Y-9210000D03*
D11*
X-62900000Y-12000000D03*
X-29900000Y-12000000D03*
D17*
X-97550000Y14240000D03*
X-91550000Y14240000D03*
D18*
X65810666Y-3227125D03*
D19*
X65273941Y-2076113D03*
X64737216Y-925103D03*
D20*
X64737215Y-9143780D03*
D21*
X65273941Y-7992770D03*
X65810665Y-6841758D03*
D11*
X62800000Y-12000000D03*
X30000000Y2000000D03*
D22*
X28062786Y-925102D03*
D21*
X27526059Y-2076113D03*
X26989336Y-3227123D03*
D23*
X-5540000Y24700000D03*
D24*
X-5540000Y20800000D03*
D23*
X5540000Y24700000D03*
D24*
X5540000Y20800000D03*
D25*
X-37600000Y2500000D03*
X-55200000Y2500000D03*
X-14700000Y-27600000D03*
X-16400000Y-27700000D03*
X-18000000Y-27600000D03*
X-17300000Y-28500000D03*
X-15400000Y-26800000D03*
X-17300000Y-26800000D03*
X-15400000Y-28500000D03*
X-16400000Y-25900000D03*
X16400000Y-25900000D03*
X17400000Y-26800000D03*
X15500000Y-28500000D03*
X14700000Y-27600000D03*
X18100000Y-27600000D03*
X16400000Y-27700000D03*
X17400000Y-28500000D03*
X15500000Y-26800000D03*
X17200000Y28500000D03*
X14700000Y27600000D03*
X15300000Y28500000D03*
X18100000Y27600000D03*
X16300000Y25900000D03*
X15300000Y26800000D03*
X16300000Y27700000D03*
X17200000Y26800000D03*
X-16400000Y25900000D03*
X-16400000Y27700000D03*
X-15500000Y26800000D03*
X-17400000Y28500000D03*
X-14700000Y27600000D03*
X-17400000Y26800000D03*
X-18100000Y27600000D03*
X-15500000Y28500000D03*
X-77500000Y26800000D03*
X-78100000Y27600000D03*
X-76500000Y27700000D03*
X-75600000Y26800000D03*
X-77500000Y28500000D03*
X-74700000Y27600000D03*
X-76500000Y25900000D03*
X-75600000Y28500000D03*
X-109200000Y27700000D03*
X-108300000Y26800000D03*
X-109200000Y25900000D03*
X-110200000Y26800000D03*
X-108300000Y28500000D03*
X-107500000Y27500000D03*
X-110200000Y28500000D03*
X-110900000Y27600000D03*
X-76400000Y-27700000D03*
X-77300000Y-26800000D03*
X-75400000Y-26800000D03*
X-77300000Y-28500000D03*
X-78100000Y-27700000D03*
X-75400000Y-28500000D03*
X-74700000Y-27600000D03*
X-108200000Y-28500000D03*
X-107500000Y-27800000D03*
X-108200000Y-26800000D03*
X-109200000Y-27700000D03*
X-110100000Y-28500000D03*
X-110900000Y-27600000D03*
X-110100000Y-26800000D03*
X-106800000Y-26400000D03*
X-113600000Y-25600000D03*
X-55200000Y7400000D03*
X-4200000Y-19800000D03*
X-12900000Y-3902500D03*
X-94700000Y-21000000D03*
X-94700000Y-18700000D03*
X-94700000Y-19700000D03*
X-94700000Y-22700000D03*
X-81300000Y-7700000D03*
X-81300000Y-9500000D03*
X-81300000Y-11200000D03*
X-85000000Y6800000D03*
X-83300000Y6800000D03*
X-83300000Y8500000D03*
X-85000000Y8500000D03*
X-72800000Y19300000D03*
X-113500000Y22700000D03*
X-54051200Y11379200D03*
X-110000000Y-10400000D03*
X-94002284Y16973854D03*
X-110100000Y-9100000D03*
X-110000000Y-11800000D03*
X-108500000Y-5000000D03*
X-104050000Y-8760000D03*
X-92155174Y10338027D03*
X-93400000Y10607614D03*
X-97500000Y10600000D03*
X-93800000Y-9100000D03*
X-93800000Y-7700000D03*
X-96700000Y-9100000D03*
X-96700000Y-7700000D03*
X-99000000Y-7900000D03*
X-101807108Y-7900000D03*
X-101807108Y-10392892D03*
X-99000000Y-10400000D03*
X-92500000Y400000D03*
X-106300000Y-21010000D03*
X-97400000Y400000D03*
X-105400000Y-22256586D03*
X-92400000Y-2200000D03*
X-105764529Y-23685711D03*
X-97300000Y-2100000D03*
X-91600000Y21200000D03*
X-93000000Y21200000D03*
X-91600000Y20000000D03*
X-93000000Y20000000D03*
X-91600000Y18800000D03*
X-93000000Y18800000D03*
X-72600000Y-25400000D03*
X-76100000Y-21000000D03*
X-84474265Y-23474265D03*
X-89000000Y-23400000D03*
X-109200000Y-25900000D03*
X-113200000Y-22000000D03*
X-106600000Y-9600000D03*
X-96600000Y-24800000D03*
X-101000000Y-23050000D03*
X-104300000Y-15300000D03*
X-103200000Y-17300000D03*
X-102700000Y-18100000D03*
X-104900000Y-19200000D03*
X-103324265Y-19424265D03*
X-102963126Y-22254850D03*
X-103082437Y-23133907D03*
X-106200000Y-24800000D03*
X-109000000Y-14200000D03*
X-101900000Y-4620000D03*
X-102000000Y-17000000D03*
X-102800000Y-15010000D03*
X-100000000Y-17000000D03*
X-98400000Y-14200000D03*
X-95800000Y-14200000D03*
X-98400000Y-16200000D03*
X-95800000Y-16200000D03*
X-81400000Y-12600000D03*
X-81800000Y-14600000D03*
X-81800000Y-16000000D03*
X-87600000Y-15800000D03*
X-86900000Y-17760000D03*
X-85900000Y-16600000D03*
X-88600000Y-16600000D03*
X-96600000Y-11000000D03*
X-94000000Y-11000000D03*
X-82300000Y-23400000D03*
X-82300000Y-21000000D03*
X-83159600Y-17881600D03*
X-84074000Y-16256000D03*
X-84963000Y-12649200D03*
X-84988400Y-15392400D03*
X-84582000Y-9906000D03*
X-84505800Y-11531600D03*
X-86309200Y-11480800D03*
X-86309200Y-9906000D03*
X17789600Y16500000D03*
X17208400Y22491600D03*
X7264400Y23215600D03*
X-93573600Y4470400D03*
X-96942400Y4470400D03*
X-95402400Y4470400D03*
X-96942400Y6858000D03*
X-95402400Y6858000D03*
X-93573600Y6858000D03*
X-87236600Y13309600D03*
X-99200000Y16800000D03*
X-87884000Y2997200D03*
X-92303600Y2997200D03*
X-93319600Y2997200D03*
X-97637600Y2997200D03*
X-93900000Y15900000D03*
X-96025000Y22860000D03*
X-97536000Y22860000D03*
X-89662000Y24536400D03*
X-91114012Y16932748D03*
X-90322400Y16814800D03*
X-86766400Y19050000D03*
X-89611200Y22910800D03*
X-37600001Y7410000D03*
X-34798000Y8636000D03*
X-29819600Y9702800D03*
X-28346400Y7213600D03*
X-64211200Y7162800D03*
X-47802800Y-3810000D03*
X-46400000Y-7400000D03*
X-53289200Y-5740400D03*
X-38383640Y11530850D03*
X-52500000Y8200000D03*
X-37600000Y390000D03*
X-55200000Y390000D03*
X-44551600Y2540000D03*
X-46075600Y2590800D03*
X-41800000Y9400000D03*
X-51725000Y9257500D03*
X-42520255Y12168328D03*
X-43558200Y11458200D03*
X-49225200Y11427069D03*
X-43735000Y8836057D03*
X-49235200Y10150000D03*
X-45720000Y9042400D03*
X-43891200Y6004000D03*
X-43027600Y5496000D03*
X-52700000Y6200000D03*
X64566800Y11734800D03*
X54386354Y12400000D03*
X28143200Y11531600D03*
X39979600Y11684000D03*
X53392645Y-2176010D03*
X52171600Y8382000D03*
X52489216Y5537200D03*
X52113265Y2380065D03*
X41431193Y-1313406D03*
X47091600Y4037200D03*
X38100000Y0D03*
X57150000Y355600D03*
X57150000Y2014214D03*
X38760400Y660400D03*
X45618400Y4216400D03*
X29819600Y6807200D03*
X37701924Y8034724D03*
X64400000Y7500000D03*
X57505600Y6842000D03*
X51104800Y5537200D03*
X52679600Y-9296400D03*
X39800000Y-4900000D03*
X39800000Y-7600000D03*
X47853600Y-15500000D03*
X46024800Y-15500000D03*
X47900000Y-13700000D03*
X46000000Y-13700000D03*
X64465200Y9398000D03*
X57921143Y5578857D03*
X54356000Y11023600D03*
X43230800Y3352800D03*
X39326735Y9542865D03*
X35689504Y6198741D03*
X28803600Y9194800D03*
X55130762Y7959600D03*
X61306000Y5842000D03*
X33874000Y6577473D03*
X38085312Y9144000D03*
X43309743Y-13600000D03*
X55057600Y2159727D03*
X52000000Y-12000000D03*
X46432812Y7965559D03*
X53330400Y2537200D03*
X37592000Y2438400D03*
X45367490Y6202696D03*
X43840400Y6400800D03*
X55930800Y5638800D03*
X53953155Y5595098D03*
X63100000Y5842000D03*
X41432812Y10965559D03*
X38150800Y5384800D03*
X52730400Y-1727200D03*
X50432812Y7965559D03*
X55321200Y711200D03*
X48432812Y7965559D03*
X40233600Y-1473200D03*
X53392645Y-6630803D03*
X51257200Y-8229600D03*
X52190763Y-6634441D03*
X51054000Y-4368800D03*
X50950808Y-5786929D03*
X47432812Y10965559D03*
X41840078Y6474180D03*
X51432812Y10965559D03*
X32674000Y5797696D03*
X43432812Y10965559D03*
X35513392Y5225941D03*
X36931600Y5384800D03*
X59029600Y8686800D03*
X45432812Y10965559D03*
X7000002Y-12399265D03*
X-10118672Y-24901472D03*
X-7900000Y-900000D03*
X-12547600Y10414000D03*
X10485896Y-11360896D03*
X-9860664Y-23174400D03*
X-13157200Y26009600D03*
X-7380684Y18798406D03*
X6071327Y-11014000D03*
X11193865Y-6332135D03*
X17170400Y-8534400D03*
X17322800Y-14071600D03*
X14986000Y-14681200D03*
X9450000Y-14588986D03*
X12690735Y-17290116D03*
X17400000Y-17400000D03*
X13157200Y-20777200D03*
X10074400Y-19405600D03*
X9192065Y-21802800D03*
X9192065Y-20558713D03*
X9245600Y17170400D03*
X18897600Y23164800D03*
X13208000Y26060400D03*
X12151628Y21107302D03*
X11168465Y25138465D03*
X12150800Y17100000D03*
X12062626Y24484744D03*
X-7620000Y-26517600D03*
X9525735Y9499600D03*
X-15500000Y6800000D03*
X-13106400Y3990800D03*
X-13106400Y5130800D03*
X-16916400Y5130800D03*
X-16849417Y3952398D03*
X-16000000Y1500000D03*
X-16600000Y400000D03*
X9814000Y12660532D03*
X9296400Y11226800D03*
X-3026667Y-20306854D03*
X5254401Y-16937421D03*
X7400000Y-21802800D03*
X9855200Y-24282400D03*
X9569200Y-6760127D03*
X10917907Y-16900000D03*
X-12700000Y-24100000D03*
X-10922000Y22606000D03*
X-11203200Y19890000D03*
X-11203200Y21437600D03*
X-18643600Y18542000D03*
X-15240000Y20904200D03*
X-12970000Y18928165D03*
X-12617200Y15595600D03*
X-10617200Y14620000D03*
X14630400Y1182500D03*
X15646400Y10566400D03*
X16611600Y3556000D03*
X14935200Y-6451600D03*
X2387600Y-16256000D03*
X13309600Y-863600D03*
X7817201Y-10252528D03*
X-5780600Y-6200000D03*
X-6339400Y-1789127D03*
X3300000Y-7300000D03*
X900000Y-8544000D03*
X-6045200Y14732000D03*
X4368800Y-10820400D03*
X-750534Y-10895463D03*
X-4274917Y-5354074D03*
X-18200000Y-14830905D03*
X8556800Y-17758353D03*
X-17567200Y-14225363D03*
X5422105Y-20921139D03*
X-12800000Y1990800D03*
X-16925000Y-13563600D03*
X3482844Y-21611867D03*
X500000Y-5450000D03*
X8016786Y-8574593D03*
X9998000Y-3759200D03*
X-1400000Y-21900000D03*
X-11083872Y619072D03*
X-13500000Y-4497500D03*
X-16992892Y-15907108D03*
X-3649200Y-4620000D03*
X-4745001Y-4375388D03*
X-6580600Y-4700000D03*
X-11090012Y-1508388D03*
X-12852400Y11430000D03*
X-400000Y-13302601D03*
X-6502400Y-22809200D03*
X-8331200Y-22809200D03*
X5732993Y2794501D03*
X-4114800Y-13909600D03*
X-5356239Y-19134358D03*
X-10900000Y-19400000D03*
X3400000Y20800000D03*
X-10300000Y-12650000D03*
X-3400000Y19100000D03*
X-11500000Y-12700000D03*
X-3400000Y20800000D03*
X-8416600Y-6886000D03*
X1956296Y-19911867D03*
X5000000Y13637339D03*
X6248400Y13614400D03*
X-5214001Y-16114001D03*
X3400000Y19100000D03*
X-13200000Y-15400000D03*
X-8329231Y-21354715D03*
X-1600000Y-14100000D03*
X-9090000Y-16169598D03*
X-4622800Y-10617200D03*
X-5892800Y13100000D03*
X5500000Y4200000D03*
X6000000Y5800000D03*
X5500000Y6800000D03*
X5600000Y18000000D03*
X-2500000Y18800000D03*
X2400000Y18800000D03*
X5525000Y15198800D03*
X-2400000Y20830000D03*
X5600000Y16800000D03*
X2400000Y20830000D03*
X-7500000Y-14579600D03*
X-8782107Y-18067893D03*
X-7900000Y-11050000D03*
X4600000Y8080000D03*
X4600000Y5500000D03*
X500000Y8080000D03*
X-6300000Y-13919200D03*
X-13100000Y-19400000D03*
X-6197600Y-11050000D03*
X500000Y5500000D03*
X-3600000Y13700000D03*
X-4572000Y18400200D03*
X-11904218Y-6195782D03*
X-13800000Y13350000D03*
X-12700000Y-6654800D03*
X-12100000Y13350000D03*
X-10500000Y24028400D03*
X5635787Y-23800000D03*
X4000000Y-23500000D03*
X9661265Y24461265D03*
X16156239Y265642D03*
X16600000Y-400000D03*
X9144000Y25399600D03*
X-5588000Y-23368000D03*
X16560691Y-6439309D03*
X15760785Y-6451601D03*
X-3953265Y-22495265D03*
X7569200Y-6604000D03*
X6282842Y9631372D03*
X-13500000Y-12700000D03*
X600000Y3000000D03*
X-4500000Y3000000D03*
X-600000Y3000000D03*
X-13885098Y63432D03*
X-14400000Y1400000D03*
X-2800000Y-16699999D03*
X-10900000Y6950000D03*
X2348098Y-19214375D03*
X-6900000Y-19100000D03*
X3605666Y-16900320D03*
X-11125000Y-13700000D03*
X-900000Y-17048529D03*
X3940841Y-19908561D03*
X-13411200Y12141200D03*
X67308Y-19161540D03*
X2806307Y-16949490D03*
X-10775000Y8175343D03*
X-9959099Y-16997558D03*
X-6584738Y-16110500D03*
X-1591762Y-16646697D03*
X4457861Y-16863068D03*
X-10900000Y5730000D03*
X12500000Y-18500000D03*
X17400000Y-16100000D03*
X14275000Y3925000D03*
X9589400Y-1410600D03*
X6010960Y-20332282D03*
X-7900000Y21233019D03*
X-12500000Y8402500D03*
X8798000Y-4216400D03*
X8432800Y21590000D03*
X-149200Y-2000000D03*
X-7900000Y-100000D03*
X-10898170Y17348624D03*
X11988800Y19558000D03*
X5124265Y-1924265D03*
X-8400000Y11100000D03*
X-5710658Y26259949D03*
X5500000Y26300000D03*
X6000000Y8500000D03*
X-9642400Y16685136D03*
X-7900000Y800000D03*
X-12219907Y17743655D03*
X-7900000Y1800000D03*
X-6000000Y16900000D03*
X600000Y10600000D03*
X152400Y12500000D03*
X2489200Y11300000D03*
X-3000000Y16900000D03*
X-6000000Y15600000D03*
X-3000000Y15600000D03*
X-8499998Y-1894242D03*
X13800000Y-12700000D03*
X-1574800Y-10871200D03*
X10896236Y-7695836D03*
X-9013400Y-2700000D03*
X1167751Y-12038951D03*
X-33608788Y6589684D03*
X-15211600Y-21502616D03*
D26*
X-37600000Y390000D02*
X-37610000Y400000D01*
X-55190000Y400000D02*
X-55200000Y390000D01*
X-37610000Y400000D02*
X-55190000Y400000D01*
X-37600000Y390000D02*
X-36200000Y1790000D01*
X-36200000Y1790000D02*
X-36200000Y6009999D01*
X-36200000Y6009999D02*
X-37600001Y7410000D01*
D27*
X-33608788Y6589684D02*
X-33610316Y6589684D01*
X-33610316Y6589684D02*
X-35100000Y5100000D01*
X-35100000Y5100000D02*
X-35100000Y1411496D01*
X-42251896Y-5740400D02*
X-53289200Y-5740400D01*
X-35100000Y1411496D02*
X-42251896Y-5740400D01*
D26*
X-55200000Y390000D02*
X-56600000Y1790000D01*
X-56600000Y1790000D02*
X-56600000Y6000000D01*
X-56600000Y6000000D02*
X-55200000Y7400000D01*
X49521458Y-6553200D02*
X38151455Y-6553200D01*
X50950808Y-5786929D02*
X50287729Y-5786929D01*
X50287729Y-5786929D02*
X49521458Y-6553200D01*
X38151455Y-6553200D02*
X36170214Y-8534441D01*
X36170214Y-8534441D02*
X33870214Y-8534441D01*
D28*
X28143200Y11531600D02*
X28143200Y7352230D01*
X34100000Y7200000D02*
X34700000Y6600000D01*
X30150970Y6007200D02*
X31343770Y7200000D01*
X28143200Y7352230D02*
X29488230Y6007200D01*
X29488230Y6007200D02*
X30150970Y6007200D01*
X31343770Y7200000D02*
X34100000Y7200000D01*
X34700000Y4900000D02*
X35300000Y4300000D01*
X34700000Y6600000D02*
X34700000Y4900000D01*
X35300000Y4300000D02*
X36800000Y4300000D01*
X36800000Y4300000D02*
X38760400Y2339600D01*
X38760400Y2339600D02*
X38760400Y660400D01*
X64566800Y11734800D02*
X65400000Y10901600D01*
X65400000Y10901600D02*
X65400000Y7000000D01*
X65100000Y6700000D02*
X64068630Y6700000D01*
X64068630Y6700000D02*
X63868630Y6900000D01*
X63868630Y6900000D02*
X60090815Y6900000D01*
X65400000Y7000000D02*
X65100000Y6700000D01*
X60090815Y6900000D02*
X57132615Y3941800D01*
X57132615Y3941800D02*
X55808600Y3941800D01*
X55808600Y3941800D02*
X55713200Y4037200D01*
D26*
X64400000Y7500000D02*
X64000000Y7900000D01*
X59657014Y7900000D02*
X58462614Y6705600D01*
X64000000Y7900000D02*
X59657014Y7900000D01*
X58462614Y6705600D02*
X55626000Y6705600D01*
X51257200Y-8229600D02*
X51562000Y-7924800D01*
X51562000Y-7924800D02*
X57153240Y-7924800D01*
X57153240Y-7924800D02*
X57762881Y-8534441D01*
X57762881Y-8534441D02*
X58929786Y-8534441D01*
X51054000Y-4368800D02*
X50546000Y-3860800D01*
X50546000Y-3860800D02*
X38506400Y-3860800D01*
X38506400Y-3860800D02*
X36180041Y-1534441D01*
X36180041Y-1534441D02*
X33870214Y-1534441D01*
X52190763Y-6634441D02*
X52190763Y-6418471D01*
X52190763Y-6418471D02*
X57074793Y-1534441D01*
X57074793Y-1534441D02*
X58929786Y-1534441D01*
D29*
X41431193Y-1313406D02*
X42217787Y-2100000D01*
X50448034Y-2100000D02*
X52113265Y-434769D01*
X42217787Y-2100000D02*
X50448034Y-2100000D01*
X52113265Y-434769D02*
X52113265Y2380065D01*
D28*
X-113600000Y-25600000D02*
X-112700000Y-24700000D01*
X-112700000Y-24700000D02*
X-108500000Y-24700000D01*
X-108500000Y-24700000D02*
X-106800000Y-26400000D01*
D27*
X-52500000Y8200000D02*
X-51185200Y8200000D01*
X-51185200Y8200000D02*
X-49235200Y10150000D01*
X-35240884Y6589684D02*
X-37185600Y8534400D01*
X-33608788Y6589684D02*
X-35240884Y6589684D01*
X-37185600Y8534400D02*
X-37185600Y10261600D01*
X-38383640Y11459640D02*
X-38383640Y11530850D01*
X-37185600Y10261600D02*
X-38383640Y11459640D01*
D26*
X-11825000Y-14400000D02*
X-13614214Y-14400000D01*
X-13614214Y-14400000D02*
X-16500000Y-17285786D01*
X-11125000Y-13700000D02*
X-11825000Y-14400000D01*
X-16500000Y-17285786D02*
X-16500000Y-21700000D01*
X-16500000Y-21700000D02*
X-15400000Y-22800000D01*
X-15400000Y-22800000D02*
X-11188730Y-22800000D01*
X-6705600Y-21437600D02*
X-2743200Y-21437600D01*
X-11188730Y-22800000D02*
X-8738730Y-20350000D01*
X-8738730Y-20350000D02*
X-7793200Y-20350000D01*
X-7793200Y-20350000D02*
X-6705600Y-21437600D01*
X-2743200Y-21437600D02*
X-1900000Y-20594400D01*
X-1900000Y-20594400D02*
X-1900000Y-18500000D01*
X-1900000Y-18500000D02*
X-900000Y-17500000D01*
D30*
X-3026667Y-20306854D02*
X-3093146Y-20306854D01*
X-3093146Y-20306854D02*
X-3500000Y-19900000D01*
D26*
X5551325Y-12138800D02*
X5585600Y-12138800D01*
X9700000Y-16253200D02*
X9700000Y-17500000D01*
X11074400Y-23063200D02*
X9855200Y-24282400D01*
X11074400Y-18874400D02*
X11074400Y-23063200D01*
X5585600Y-12138800D02*
X9700000Y-16253200D01*
X9700000Y-17500000D02*
X11074400Y-18874400D01*
X-3500000Y-19900000D02*
X-3500000Y-19576383D01*
X-3500000Y-19576383D02*
X-5905983Y-17170400D01*
X-5905983Y-17170400D02*
X-6758240Y-17170400D01*
D30*
X-3500000Y-19900000D02*
X-3600000Y-19800000D01*
X-3600000Y-19800000D02*
X-4200000Y-19800000D01*
D31*
X-14450000Y-11750000D02*
X-15500000Y-11750000D01*
X-13500000Y-12700000D02*
X-14450000Y-11750000D01*
X1500000Y11500000D02*
X2489200Y12489200D01*
X2489200Y12489200D02*
X2489200Y12649200D01*
D26*
X7721600Y-965200D02*
X7000000Y-243600D01*
X7000000Y-243600D02*
X7000000Y8914214D01*
X7569200Y-6604000D02*
X7721600Y-6451600D01*
X7721600Y-6451600D02*
X7721600Y-965200D01*
X7000000Y8914214D02*
X6282842Y9631372D01*
D28*
X900000Y-8800000D02*
X-150534Y-9850534D01*
X-2200000Y-13851471D02*
X-2200000Y-13900000D01*
X-5874238Y-15400000D02*
X-6584738Y-16110500D01*
X-150534Y-11850534D02*
X-1800000Y-13500000D01*
X-150534Y-9850534D02*
X-150534Y-11850534D01*
X900000Y-8544000D02*
X900000Y-8800000D01*
X-1800000Y-13500000D02*
X-1848529Y-13500000D01*
X-1848529Y-13500000D02*
X-2200000Y-13851471D01*
X-2200000Y-13900000D02*
X-3700000Y-15400000D01*
X-3700000Y-15400000D02*
X-5874238Y-15400000D01*
X3300000Y-7300000D02*
X3200000Y-7300000D01*
X3200000Y-7300000D02*
X500000Y-10000000D01*
X500000Y-15648529D02*
X-900000Y-17048529D01*
X500000Y-10000000D02*
X500000Y-15648529D01*
D31*
X-6300000Y-13919200D02*
X-4498000Y-12117200D01*
X173224Y-7000000D02*
X1661522Y-7000000D01*
X-4001479Y-12117200D02*
X-3122800Y-11238521D01*
X-3122800Y-11238521D02*
X-3122800Y-10296024D01*
X-3122800Y-10296024D02*
X173224Y-7000000D01*
X-4498000Y-12117200D02*
X-4001479Y-12117200D01*
X1661522Y-7000000D02*
X1800000Y-6861522D01*
X1800000Y-6861522D02*
X1800000Y-6678679D01*
X1800000Y-6678679D02*
X2678679Y-5800000D01*
X2678679Y-5800000D02*
X3921321Y-5800000D01*
X3921321Y-5800000D02*
X4800000Y-6678679D01*
X3251200Y7061200D02*
X3251200Y-5129879D01*
X3251200Y-5129879D02*
X4800000Y-6678679D01*
X4800000Y-6678679D02*
X4800000Y-7921321D01*
X2667751Y-10053570D02*
X2667751Y-11988800D01*
X4800000Y-7921321D02*
X2667751Y-10053570D01*
X2667751Y-11988800D02*
X7056800Y-16377849D01*
X7056800Y-16377849D02*
X7056800Y-19256800D01*
X7056800Y-19256800D02*
X9000000Y-21200000D01*
D26*
X-13865000Y-17065000D02*
X-14400000Y-17600000D01*
X-9235786Y-19150000D02*
X-8450000Y-19150000D01*
X-9959099Y-16997558D02*
X-10026541Y-17065000D01*
X-10026541Y-17065000D02*
X-13865000Y-17065000D01*
X-14400000Y-20100000D02*
X-13200000Y-21300000D01*
X-13200000Y-21300000D02*
X-11385786Y-21300000D01*
X-6584738Y-17284738D02*
X-6584738Y-16110500D01*
X-11385786Y-21300000D02*
X-9235786Y-19150000D01*
X-8450000Y-19150000D02*
X-6584738Y-17284738D01*
X-14400000Y-17600000D02*
X-14400000Y-20100000D01*
D27*
X-8782107Y-18067893D02*
X-8782107Y-17367307D01*
X-11900000Y-18200000D02*
X-13100000Y-19400000D01*
X-8782107Y-17367307D02*
X-8340000Y-16925200D01*
X-8782107Y-18067893D02*
X-8914214Y-18200000D01*
X-8340000Y-16925200D02*
X-8340000Y-15419600D01*
X-8340000Y-15419600D02*
X-7500000Y-14579600D01*
X-8914214Y-18200000D02*
X-11900000Y-18200000D01*
D31*
X-12214000Y-6186000D02*
X-12400000Y-6000000D01*
X-11400000Y-6186000D02*
X-12214000Y-6186000D01*
X-11400000Y-1818376D02*
X-11400000Y-6186000D01*
X-11200000Y-4700000D02*
X-4496800Y-4700000D01*
X-12400000Y-6000000D02*
X-12400000Y-5900000D01*
X-11090012Y-1508388D02*
X-11400000Y-1818376D01*
X-12400000Y-5900000D02*
X-11200000Y-4700000D01*
X-4496800Y-4700000D02*
X-4470400Y-4673600D01*
D32*
X-13885098Y63432D02*
X-16900000Y-2951470D01*
X-16900000Y-2951470D02*
X-16900000Y-7900000D01*
X-16900000Y-7900000D02*
X-17300000Y-8300000D01*
D31*
X-14400000Y-300000D02*
X-14400000Y1400000D01*
X-11090012Y-1508388D02*
X-11090011Y-1508388D01*
X-9400000Y181623D02*
X-9400000Y2421321D01*
X-8700000Y3121321D02*
X-8700000Y8800000D01*
X-11090011Y-1508388D02*
X-9400000Y181623D01*
X-9400000Y2421321D02*
X-8700000Y3121321D01*
X-8700000Y8800000D02*
X-11000000Y11100000D01*
X-11000000Y11100000D02*
X-11000000Y12000000D01*
X-11000000Y12000000D02*
X-12200000Y13200000D01*
X9993200Y18544121D02*
X11101200Y17436121D01*
X11101200Y17436121D02*
X11101200Y16345879D01*
X12062626Y24484744D02*
X12062626Y23492626D01*
X4689200Y10388730D02*
X2844800Y8544330D01*
X12062626Y23492626D02*
X9993200Y21423200D01*
X9993200Y21423200D02*
X9993200Y18544121D01*
X4689200Y10632800D02*
X4689200Y10388730D01*
X11101200Y16345879D02*
X6869721Y12114400D01*
X6869721Y12114400D02*
X6170800Y12114400D01*
X6170800Y12114400D02*
X4689200Y10632800D01*
X2844800Y8544330D02*
X2844800Y7061200D01*
X-94000000Y-11000000D02*
X-94000000Y-16000000D01*
X-90600000Y-19400000D02*
X-84752470Y-19400000D01*
X-84752470Y-19400000D02*
X-82300000Y-21852470D01*
X-94000000Y-16000000D02*
X-90600000Y-19400000D01*
X-82300000Y-21852470D02*
X-82300000Y-22700000D01*
D32*
X-84100000Y7600000D02*
X-78300000Y1800000D01*
X-91800000Y-25600000D02*
X-94700000Y-22700000D01*
X-78300000Y1800000D02*
X-78300000Y-23400000D01*
X-78300000Y-23400000D02*
X-80500000Y-25600000D01*
X-80500000Y-25600000D02*
X-91800000Y-25600000D01*
X-94700000Y-22700000D02*
X-94700000Y-19700000D01*
D26*
X-93900000Y15900000D02*
X-94364214Y15900000D01*
X-94364214Y15900000D02*
X-96025000Y17560786D01*
X-96025000Y17560786D02*
X-96025000Y22910800D01*
X-55200000Y2540000D02*
X-37600000Y2540000D01*
D27*
X-43805739Y10150000D02*
X-49235200Y10150000D01*
X-42520255Y12168328D02*
X-42785600Y11902983D01*
X-42785600Y11902983D02*
X-42785600Y11170139D01*
X-42785600Y11170139D02*
X-43805739Y10150000D01*
D31*
X-100300000Y-3300000D02*
X-99350000Y-4250000D01*
X-99350000Y-4250000D02*
X-95100000Y-8500000D01*
D28*
X-104050000Y-8760000D02*
X-99540000Y-4250000D01*
X-99540000Y-4250000D02*
X-99350000Y-4250000D01*
D31*
X-97500000Y10600000D02*
X-100300000Y7800000D01*
X-100300000Y7800000D02*
X-100300000Y-3300000D01*
D26*
X-101900000Y-4620000D02*
X-106620000Y-4620000D01*
X-106620000Y-4620000D02*
X-109000000Y-7000000D01*
X-109000000Y-7000000D02*
X-109000000Y-14200000D01*
D31*
X-83159600Y-17881600D02*
X-84400000Y-16641200D01*
X-84400000Y-16641200D02*
X-84400000Y-13974200D01*
X-84400000Y-13974200D02*
X-85090000Y-13284200D01*
X-96600000Y-11000000D02*
X-94000000Y-11000000D01*
D26*
X-10500000Y24028400D02*
X-11016563Y24028400D01*
X-13970000Y20378986D02*
X-13970000Y15220000D01*
X-13970000Y15220000D02*
X-12100000Y13350000D01*
X-11016563Y24028400D02*
X-13833600Y21211363D01*
X-13833600Y21211363D02*
X-13833600Y20515386D01*
X-13833600Y20515386D02*
X-13970000Y20378986D01*
D31*
X3251200Y7061200D02*
X1915884Y7061200D01*
X1915884Y7061200D02*
X-2622916Y11600000D01*
X-2622916Y11600000D02*
X-6621600Y11600000D01*
X-6621600Y11600000D02*
X-7874000Y12852400D01*
X-7874000Y12852400D02*
X-7874000Y17170400D01*
X-7874000Y17170400D02*
X-10593600Y19890000D01*
X-10593600Y19890000D02*
X-11203200Y19890000D01*
D27*
X-89611200Y22910800D02*
X-90666000Y23965600D01*
X-98212400Y14240000D02*
X-97550000Y14240000D01*
X-98462400Y23965600D02*
X-100025200Y22402800D01*
X-100025200Y22402800D02*
X-100025200Y16052800D01*
X-90666000Y23965600D02*
X-98462400Y23965600D01*
X-100025200Y16052800D02*
X-98212400Y14240000D01*
X-94589600Y3048000D02*
X-94640400Y2997200D01*
X-86766400Y19050000D02*
X-86766400Y21234400D01*
X-88442800Y22910800D02*
X-89611200Y22910800D01*
X-86766400Y21234400D02*
X-88442800Y22910800D01*
X-86664800Y24536400D02*
X-84175600Y22047200D01*
X-89662000Y24536400D02*
X-86664800Y24536400D01*
X-84175600Y22047200D02*
X-84175600Y17170400D01*
X-87106000Y14240000D02*
X-91550000Y14240000D01*
X-84175600Y17170400D02*
X-87106000Y14240000D01*
D28*
X-30886400Y8636000D02*
X-34798000Y8636000D01*
X-29819600Y9702800D02*
X-30886400Y8636000D01*
X39979600Y11684000D02*
X38506400Y10210800D01*
X38506400Y10210800D02*
X29464000Y10210800D01*
X29464000Y10210800D02*
X28143200Y11531600D01*
X54386354Y12400000D02*
X40695600Y12400000D01*
X40695600Y12400000D02*
X39979600Y11684000D01*
X62636400Y9804400D02*
X55778400Y9804400D01*
X64566800Y11734800D02*
X62636400Y9804400D01*
X55778400Y9804400D02*
X54956000Y10626800D01*
X54956000Y10626800D02*
X54956000Y11830354D01*
X54956000Y11830354D02*
X54386354Y12400000D01*
X53392645Y-2176010D02*
X55924255Y355600D01*
X55924255Y355600D02*
X57150000Y355600D01*
D26*
X57369200Y6705600D02*
X57505600Y6842000D01*
X55626000Y6705600D02*
X57369200Y6705600D01*
D31*
X57150000Y355600D02*
X57150000Y2600400D01*
X57150000Y2600400D02*
X55713200Y4037200D01*
X55713200Y4037200D02*
X46610400Y4037200D01*
X43852121Y4852800D02*
X42495600Y4852800D01*
X46610400Y4037200D02*
X46431200Y4216400D01*
X42495600Y4852800D02*
X38100000Y457200D01*
X46431200Y4216400D02*
X44488521Y4216400D01*
X44488521Y4216400D02*
X43852121Y4852800D01*
X38100000Y457200D02*
X38100000Y0D01*
D26*
X51104800Y5842000D02*
X51104800Y6312453D01*
X51104800Y6312453D02*
X51676853Y6884506D01*
X51676853Y6884506D02*
X51676853Y6959600D01*
X38709600Y8034724D02*
X44949676Y8034724D01*
X44949676Y8034724D02*
X46024800Y6959600D01*
X46024800Y6959600D02*
X51676853Y6959600D01*
X51676853Y6959600D02*
X55372000Y6959600D01*
X55372000Y6959600D02*
X55626000Y6705600D01*
D27*
X64737215Y-9143780D02*
X63374325Y-7780890D01*
X63374325Y-7780890D02*
X63374325Y-3227125D01*
X65810666Y-3227125D02*
X63374325Y-3227125D01*
X63374325Y-3227125D02*
X60452000Y-304800D01*
X60452000Y-304800D02*
X57810400Y-304800D01*
X57810400Y-304800D02*
X57150000Y355600D01*
D26*
X57150000Y2014214D02*
X57150000Y355600D01*
D27*
X28603447Y-384441D02*
X30937200Y-384441D01*
X30937200Y-384441D02*
X37715559Y-384441D01*
X30937200Y-2893890D02*
X30937200Y-384441D01*
X26989333Y-6841757D02*
X30937200Y-2893890D01*
X28062786Y-925102D02*
X28603447Y-384441D01*
X37715559Y-384441D02*
X38760400Y660400D01*
D26*
X31047124Y8034724D02*
X29819600Y6807200D01*
X38709600Y8034724D02*
X31047124Y8034724D01*
X38709600Y8034724D02*
X37701924Y8034724D01*
X4368800Y-10820400D02*
X4368800Y-10956275D01*
X4368800Y-10956275D02*
X5551325Y-12138800D01*
D27*
X5551325Y-12138800D02*
X8638400Y-12138800D01*
X14624539Y-5701600D02*
X14630400Y-5701600D01*
X9296400Y-11480800D02*
X9305331Y-11480800D01*
X8638400Y-12138800D02*
X9296400Y-11480800D01*
X14630400Y-5701600D02*
X14630400Y1182500D01*
X9305331Y-11480800D02*
X10523704Y-10262427D01*
X10523704Y-10262427D02*
X10523704Y-9802435D01*
X10523704Y-9802435D02*
X14624539Y-5701600D01*
D31*
X5525000Y15198800D02*
X5525000Y17081000D01*
X2800000Y17500000D02*
X300000Y20000000D01*
X5525000Y17081000D02*
X5106000Y17500000D01*
X5106000Y17500000D02*
X2800000Y17500000D01*
X2844800Y7061200D02*
X3038800Y7061200D01*
X3038800Y7061200D02*
X4500000Y5600000D01*
X4500000Y5600000D02*
X4500000Y5500000D01*
X3403600Y7061200D02*
X4165600Y7823200D01*
X3251200Y7061200D02*
X2844800Y7061200D01*
X3251200Y7061200D02*
X3403600Y7061200D01*
X2844800Y7061200D02*
X2061200Y7061200D01*
X2061200Y7061200D02*
X500000Y5500000D01*
D27*
X-10922000Y22606000D02*
X-10922000Y21718800D01*
X-10922000Y21718800D02*
X-11203200Y21437600D01*
D31*
X-11203200Y19890000D02*
X-11203200Y21437600D01*
D33*
X711200Y11023600D02*
X711200Y11938000D01*
X711200Y11938000D02*
X1422400Y12649200D01*
X1422400Y12649200D02*
X2489200Y12649200D01*
X152400Y12500000D02*
X101600Y12550800D01*
X101600Y12550800D02*
X101600Y15036800D01*
D31*
X2489200Y12649200D02*
X101600Y15036800D01*
X101600Y15036800D02*
X-1117600Y16256000D01*
D33*
X-4500000Y3000000D02*
X600000Y3000000D01*
D27*
X-2400000Y20830000D02*
X-2500000Y20730000D01*
D33*
X-2000000Y20000000D02*
X300000Y20000000D01*
D27*
X-2400000Y20830000D02*
X2400000Y20830000D01*
X2400000Y20830000D02*
X2400000Y18800000D01*
D33*
X300000Y20000000D02*
X2150000Y20000000D01*
D27*
X-2500000Y20730000D02*
X-2500000Y18800000D01*
D26*
X-12350000Y13350000D02*
X-12200000Y13200000D01*
X-13800000Y13350000D02*
X-12350000Y13350000D01*
D31*
X-17500000Y-11750000D02*
X-15500000Y-11750000D01*
X-1117600Y16256000D02*
X-5638800Y16256000D01*
D34*
X-15500000Y-11750000D02*
X-14658723Y-11750000D01*
X-14658723Y-11750000D02*
X-11544723Y-8636000D01*
X-11544723Y-8636000D02*
X-4927600Y-8636000D01*
X-1899200Y-5607600D02*
X-1899200Y1729228D01*
X-4927600Y-8636000D02*
X-1899200Y-5607600D01*
X-1899200Y1729228D02*
X-628428Y3000000D01*
X-628428Y3000000D02*
X600000Y3000000D01*
D26*
X-93833124Y12233124D02*
G75*
G03*
X-91580361Y11300000I2252764J2252768D01*
G01*
X-91580361Y11300000D02*
X-89214214Y11300000D01*
X-87909257Y9944529D02*
X-87909257Y2717657D01*
X-94588109Y13687038D02*
G75*
G03*
X-94003813Y12403813I2016942J143745D01*
G01*
X-87884000Y9969786D02*
X-87909257Y9944529D01*
X-88176893Y10676893D02*
G75*
G02*
X-87884000Y9969786I-707101J-707104D01*
G01*
X-88507107Y11007107D02*
X-88176893Y10676893D01*
X-89214214Y11300000D02*
G75*
G02*
X-88507107Y11007107I3J-999994D01*
G01*
X-87909257Y2717657D02*
X-87884000Y2692400D01*
X-94003813Y12403813D02*
X-93833124Y12233124D01*
X-94588109Y15211891D02*
X-94588109Y13687038D01*
D31*
X-97637600Y2692400D02*
X-94640400Y2692400D01*
D26*
X-93900000Y15900000D02*
X-94588109Y15211891D01*
X-87884000Y2692400D02*
X-94234000Y2692400D01*
X-94234000Y2692400D02*
X-94589600Y3048000D01*
D31*
X-87884000Y2692400D02*
X-85394800Y203200D01*
X-94640400Y2692400D02*
X-87884000Y2692400D01*
X-85394800Y203200D02*
X-85394800Y-10972800D01*
G04 #@! TA.AperFunction,Conductor*
G36*
X-5474089Y-10406185D02*
G01*
X-5428334Y-10458989D01*
X-5417908Y-10524383D01*
X-5428365Y-10617195D01*
X-5428365Y-10617200D01*
X-5408168Y-10796455D01*
X-5348589Y-10966722D01*
X-5252616Y-11119462D01*
X-5136319Y-11235759D01*
X-5102834Y-11297082D01*
X-5100000Y-11323440D01*
X-5100000Y-14675500D01*
X-5119685Y-14742539D01*
X-5172489Y-14788294D01*
X-5224000Y-14799500D01*
X-5787568Y-14799500D01*
X-5787584Y-14799499D01*
X-5795180Y-14799499D01*
X-5953295Y-14799499D01*
X-6055113Y-14826781D01*
X-6106023Y-14840423D01*
X-6106028Y-14840426D01*
X-6242947Y-14919475D01*
X-6242955Y-14919481D01*
X-6397155Y-15073681D01*
X-6458478Y-15107166D01*
X-6484836Y-15110000D01*
X-6683281Y-15110000D01*
X-6876567Y-15148447D01*
X-6876577Y-15148450D01*
X-7058645Y-15223864D01*
X-7058658Y-15223871D01*
X-7222519Y-15333360D01*
X-7222523Y-15333363D01*
X-7361874Y-15472714D01*
X-7361877Y-15472718D01*
X-7471366Y-15636579D01*
X-7471373Y-15636592D01*
X-7484107Y-15667335D01*
X-7546789Y-15818665D01*
X-7546789Y-15818669D01*
X-7546790Y-15818670D01*
X-7585238Y-16011956D01*
X-7585238Y-16569622D01*
X-7604923Y-16636661D01*
X-7606136Y-16638512D01*
X-7628418Y-16671860D01*
X-7644872Y-16696486D01*
X-7720291Y-16878565D01*
X-7744439Y-16999967D01*
X-7776822Y-17061874D01*
X-7778374Y-17063454D01*
X-8488319Y-17773399D01*
X-8549642Y-17806884D01*
X-8619334Y-17801900D01*
X-8675267Y-17760028D01*
X-8699684Y-17694564D01*
X-8700000Y-17685718D01*
X-8700000Y-16938484D01*
X-8680315Y-16871445D01*
X-8641973Y-16833492D01*
X-8587738Y-16799414D01*
X-8460184Y-16671860D01*
X-8425250Y-16616263D01*
X-8364211Y-16519121D01*
X-8304631Y-16348852D01*
X-8304630Y-16348847D01*
X-8284435Y-16169601D01*
X-8284435Y-16169594D01*
X-8304630Y-15990348D01*
X-8304631Y-15990343D01*
X-8364211Y-15820074D01*
X-8460184Y-15667335D01*
X-8587737Y-15539782D01*
X-8587740Y-15539780D01*
X-8641973Y-15505703D01*
X-8688264Y-15453368D01*
X-8700000Y-15400710D01*
X-8700000Y-10510500D01*
X-8680315Y-10443461D01*
X-8627511Y-10397706D01*
X-8576000Y-10386500D01*
X-5541128Y-10386500D01*
X-5474089Y-10406185D01*
G37*
G04 #@! TD.AperFunction*
G04 #@! TA.AperFunction,Conductor*
G36*
X-100195581Y-7400316D02*
G01*
X-99952672Y-7417688D01*
X-99935171Y-7420205D01*
X-99701540Y-7471029D01*
X-99684581Y-7476008D01*
X-99460550Y-7559567D01*
X-99444478Y-7566907D01*
X-99234622Y-7681498D01*
X-99219752Y-7691054D01*
X-99028343Y-7834341D01*
X-99014986Y-7845915D01*
X-98845915Y-8014986D01*
X-98834341Y-8028343D01*
X-98691054Y-8219752D01*
X-98681498Y-8234622D01*
X-98566907Y-8444478D01*
X-98559567Y-8460550D01*
X-98476008Y-8684581D01*
X-98471029Y-8701540D01*
X-98420206Y-8935166D01*
X-98417688Y-8952672D01*
X-98400632Y-9191163D01*
X-98400632Y-9208836D01*
X-98417688Y-9447321D01*
X-98420206Y-9464833D01*
X-98471027Y-9698451D01*
X-98476009Y-9715421D01*
X-98559565Y-9939443D01*
X-98566912Y-9955531D01*
X-98681494Y-10165370D01*
X-98691059Y-10180253D01*
X-98834336Y-10371649D01*
X-98845922Y-10385020D01*
X-99014979Y-10554077D01*
X-99028350Y-10565663D01*
X-99219746Y-10708940D01*
X-99234629Y-10718505D01*
X-99444468Y-10833087D01*
X-99460562Y-10840437D01*
X-99684573Y-10923988D01*
X-99701548Y-10928972D01*
X-99935166Y-10979793D01*
X-99952678Y-10982311D01*
X-100195582Y-10999684D01*
X-100204428Y-11000000D01*
X-100495572Y-11000000D01*
X-100504418Y-10999684D01*
X-100747321Y-10982311D01*
X-100764833Y-10979793D01*
X-100998451Y-10928972D01*
X-101015426Y-10923988D01*
X-101239437Y-10840437D01*
X-101255531Y-10833087D01*
X-101465370Y-10718505D01*
X-101480253Y-10708940D01*
X-101671649Y-10565663D01*
X-101685020Y-10554077D01*
X-101854077Y-10385020D01*
X-101865663Y-10371649D01*
X-102008940Y-10180253D01*
X-102018505Y-10165370D01*
X-102133087Y-9955531D01*
X-102140437Y-9939437D01*
X-102223988Y-9715426D01*
X-102228972Y-9698451D01*
X-102279793Y-9464833D01*
X-102282311Y-9447321D01*
X-102299367Y-9208846D01*
X-102299367Y-9191154D01*
X-102282311Y-8952678D01*
X-102279793Y-8935166D01*
X-102228972Y-8701548D01*
X-102223988Y-8684573D01*
X-102140437Y-8460562D01*
X-102133087Y-8444468D01*
X-102018505Y-8234629D01*
X-102008940Y-8219746D01*
X-101865663Y-8028350D01*
X-101854077Y-8014979D01*
X-101685020Y-7845922D01*
X-101671649Y-7834336D01*
X-101480253Y-7691059D01*
X-101465370Y-7681494D01*
X-101255526Y-7566909D01*
X-101239443Y-7559565D01*
X-101015421Y-7476009D01*
X-100998455Y-7471028D01*
X-100764830Y-7420205D01*
X-100747325Y-7417688D01*
X-100504418Y-7400316D01*
X-100495572Y-7400000D01*
X-100204428Y-7400000D01*
X-100195581Y-7400316D01*
G37*
G04 #@! TD.AperFunction*
G04 #@! TA.AperFunction,Conductor*
G36*
X-94744605Y-7000471D02*
G01*
X-94509017Y-7021083D01*
X-94487736Y-7024835D01*
X-94264539Y-7084640D01*
X-94244240Y-7092029D01*
X-94034828Y-7189679D01*
X-94016124Y-7200477D01*
X-93826834Y-7333020D01*
X-93810289Y-7346904D01*
X-93646904Y-7510289D01*
X-93633020Y-7526834D01*
X-93500477Y-7716124D01*
X-93489679Y-7734828D01*
X-93392029Y-7944240D01*
X-93384639Y-7964545D01*
X-93324836Y-8187733D01*
X-93321083Y-8209015D01*
X-93300945Y-8439198D01*
X-93300945Y-8460801D01*
X-93321083Y-8690980D01*
X-93324836Y-8712266D01*
X-93384639Y-8935454D01*
X-93392032Y-8955764D01*
X-93489675Y-9165162D01*
X-93500482Y-9183882D01*
X-93633016Y-9373159D01*
X-93646910Y-9389716D01*
X-93729138Y-9471944D01*
X-93790461Y-9505429D01*
X-93836217Y-9506736D01*
X-93881903Y-9499500D01*
X-93881908Y-9499500D01*
X-96718092Y-9499500D01*
X-96718097Y-9499500D01*
X-96936435Y-9534081D01*
X-97005729Y-9525126D01*
X-97043514Y-9499290D01*
X-97153092Y-9389713D01*
X-97166986Y-9373155D01*
X-97299517Y-9183882D01*
X-97310324Y-9165162D01*
X-97407967Y-8955764D01*
X-97415360Y-8935454D01*
X-97475163Y-8712266D01*
X-97478916Y-8690980D01*
X-97499054Y-8460808D01*
X-97499054Y-8439192D01*
X-97478916Y-8209019D01*
X-97475163Y-8187733D01*
X-97415360Y-7964545D01*
X-97407967Y-7944235D01*
X-97310324Y-7734837D01*
X-97299517Y-7716117D01*
X-97166983Y-7526840D01*
X-97153089Y-7510283D01*
X-96989716Y-7346910D01*
X-96973159Y-7333016D01*
X-96783882Y-7200482D01*
X-96765166Y-7189677D01*
X-96555762Y-7092031D01*
X-96535456Y-7084639D01*
X-96312265Y-7024835D01*
X-96290980Y-7021083D01*
X-96055394Y-7000471D01*
X-96044588Y-7000000D01*
X-94755412Y-7000000D01*
X-94744605Y-7000471D01*
G37*
G04 #@! TD.AperFunction*
G04 #@! TA.AperFunction,Conductor*
G36*
X-94699376Y11680315D02*
G01*
X-94678561Y11663508D01*
X-94644813Y11629626D01*
X-94641734Y11626814D01*
X-94470905Y11455984D01*
X-94470903Y11455982D01*
X-94411337Y11396417D01*
X-94411333Y11396414D01*
X-94411323Y11396404D01*
X-94172521Y11196027D01*
X-94131299Y11161438D01*
X-93831848Y10951760D01*
X-93831839Y10951755D01*
X-93515267Y10768982D01*
X-93515251Y10768974D01*
X-93183965Y10614492D01*
X-93183957Y10614489D01*
X-93183948Y10614485D01*
X-92932213Y10522861D01*
X-92840420Y10489451D01*
X-92524642Y10404840D01*
X-92487324Y10394841D01*
X-92436492Y10385877D01*
X-92127317Y10331361D01*
X-92127319Y10331361D01*
X-91908378Y10312206D01*
X-91843310Y10286753D01*
X-91802331Y10230162D01*
X-91798453Y10160400D01*
X-91809824Y10130233D01*
X-91879629Y9999637D01*
X-91893125Y9979439D01*
X-92014439Y9831618D01*
X-92031618Y9814439D01*
X-92179439Y9693125D01*
X-92199630Y9679633D01*
X-92368283Y9589486D01*
X-92390730Y9580190D01*
X-92573715Y9524681D01*
X-92597549Y9519939D01*
X-92782080Y9501764D01*
X-92793939Y9500597D01*
X-92806093Y9500000D01*
X-94900000Y9500000D01*
X-96892948Y9500000D01*
X-96904751Y9500563D01*
X-97003064Y9509964D01*
X-97105445Y9519754D01*
X-97128626Y9524228D01*
X-97316347Y9579432D01*
X-97338257Y9588218D01*
X-97512112Y9677995D01*
X-97531962Y9690774D01*
X-97534952Y9693130D01*
X-97685657Y9811879D01*
X-97702716Y9828180D01*
X-97766697Y9902201D01*
X-97830673Y9976217D01*
X-97844340Y9995464D01*
X-97878953Y10055623D01*
X-97941923Y10165068D01*
X-97951693Y10186554D01*
X-98015363Y10371574D01*
X-98020885Y10394526D01*
X-98048287Y10587911D01*
X-98049321Y10612198D01*
X-98038907Y10799337D01*
X-98035007Y10824039D01*
X-97987343Y11004946D01*
X-97978565Y11028364D01*
X-97895571Y11196027D01*
X-97882273Y11217207D01*
X-97767324Y11364807D01*
X-97750046Y11382888D01*
X-97607820Y11504419D01*
X-97587265Y11518666D01*
X-97423544Y11609187D01*
X-97400550Y11619019D01*
X-97221993Y11674849D01*
X-97197493Y11679867D01*
X-97023959Y11697456D01*
X-97005098Y11699368D01*
X-96992595Y11700000D01*
X-94766415Y11700000D01*
X-94699376Y11680315D01*
G37*
G04 #@! TD.AperFunction*
M02*
