M48
; DRILL file {KiCad 8.0.8} date 2025-08-18T01:47:24+0300
; FORMAT={-:-/ absolute / inch / decimal}
; #@! TF.CreationDate,2025-08-18T01:47:24+03:00
; #@! TF.GenerationSoftware,Kicad,Pcbnew,8.0.8
; #@! TF.FileFunction,NonPlated,1,4,NPTH
FMAT,2
INCH
; #@! TA.AperFunction,NonPlated,NPTH,ComponentDrill
T1C0.0197
; #@! TA.AperFunction,NonPlated,NPTH,ComponentDrill
T2C0.2008
%
G90
G05
T1
X-2.874Y0.248
X-2.874Y0.2185
X-2.874Y0.189
X-2.874Y0.1594
X-2.874Y0.1299
X-2.874Y0.1004
X-2.874Y0.0709
X-2.874Y0.0413
X-2.874Y0.0118
X-2.874Y-0.0177
X-2.874Y-0.0472
X-2.874Y-0.0768
X-2.874Y-0.1063
X-2.874Y-0.1358
X-2.874Y-0.1654
X-2.874Y-0.1949
X-2.874Y-0.2244
X-2.874Y-0.2539
X-2.874Y-0.2835
X-2.874Y-0.313
X-2.874Y-0.3425
X-2.874Y-0.372
X-2.874Y-0.4016
X-2.874Y-0.4311
X-2.6614Y0.248
X-2.6614Y0.2185
X-2.6614Y0.189
X-2.6614Y0.1594
X-2.6614Y0.1299
X-2.6614Y0.1004
X-2.6614Y0.0709
X-2.6614Y0.0413
X-2.6614Y0.0118
X-2.6614Y-0.0177
X-2.6614Y-0.0472
X-2.6614Y-0.0768
X-2.6614Y-0.1063
X-2.6614Y-0.1358
X-2.6614Y-0.1654
X-2.6614Y-0.1949
X-2.6614Y-0.2244
X-2.6614Y-0.2539
X-2.6614Y-0.2835
X-2.6614Y-0.313
X-2.6614Y-0.3425
X-2.6614Y-0.372
X-2.6614Y-0.4016
X-2.6614Y-0.4311
X-0.9921Y0.248
X-0.9921Y0.2185
X-0.9921Y0.189
X-0.9921Y0.1594
X-0.9921Y0.1299
X-0.9921Y0.1004
X-0.9921Y0.0709
X-0.9921Y0.0413
X-0.9921Y0.0118
X-0.9921Y-0.0177
X-0.9921Y-0.0472
X-0.9921Y-0.0768
X-0.9921Y-0.1063
X-0.9921Y-0.1358
X-0.9921Y-0.1654
X-0.9921Y-0.1949
X-0.9921Y-0.2244
X-0.9921Y-0.2539
X-0.9921Y-0.2835
X-0.9921Y-0.313
X-0.9921Y-0.3425
X-0.9921Y-0.372
X-0.9921Y-0.4016
X-0.9921Y-0.4311
X-0.7795Y0.248
X-0.7795Y0.2185
X-0.7795Y0.189
X-0.7795Y0.1594
X-0.7795Y0.1299
X-0.7795Y0.1004
X-0.7795Y0.0709
X-0.7795Y0.0413
X-0.7795Y0.0118
X-0.7795Y-0.0177
X-0.7795Y-0.0472
X-0.7795Y-0.0768
X-0.7795Y-0.1063
X-0.7795Y-0.1358
X-0.7795Y-0.1654
X-0.7795Y-0.1949
X-0.7795Y-0.2244
X-0.7795Y-0.2539
X-0.7795Y-0.2835
X-0.7795Y-0.313
X-0.7795Y-0.3425
X-0.7795Y-0.372
X-0.7795Y-0.4016
X-0.7795Y-0.4311
X0.7795Y0.248
X0.7795Y0.2185
X0.7795Y0.189
X0.7795Y0.1594
X0.7795Y0.1299
X0.7795Y0.1004
X0.7795Y0.0709
X0.7795Y0.0413
X0.7795Y0.0118
X0.7795Y-0.0177
X0.7795Y-0.0472
X0.7795Y-0.0768
X0.7795Y-0.1063
X0.7795Y-0.1358
X0.7795Y-0.1654
X0.7795Y-0.1949
X0.7795Y-0.2244
X0.7795Y-0.2539
X0.7795Y-0.2835
X0.7795Y-0.313
X0.7795Y-0.3425
X0.7795Y-0.372
X0.7795Y-0.4016
X0.7795Y-0.4311
X0.9921Y0.248
X0.9921Y0.2185
X0.9921Y0.189
X0.9921Y0.1594
X0.9921Y0.1299
X0.9921Y0.1004
X0.9921Y0.0709
X0.9921Y0.0413
X0.9921Y0.0118
X0.9921Y-0.0177
X0.9921Y-0.0472
X0.9921Y-0.0768
X0.9921Y-0.1063
X0.9921Y-0.1358
X0.9921Y-0.1654
X0.9921Y-0.1949
X0.9921Y-0.2244
X0.9921Y-0.2539
X0.9921Y-0.2835
X0.9921Y-0.313
X0.9921Y-0.3425
X0.9921Y-0.372
X0.9921Y-0.4016
X0.9921Y-0.4311
T2
X1.3335Y-0.1982
X2.3201Y-0.1982
M30
