G04 #@! TF.GenerationSoftware,KiCad,Pcbnew,8.0.8*
G04 #@! TF.CreationDate,2025-08-18T01:47:15+03:00*
G04 #@! TF.ProjectId,Microbot_v1.1,4d696372-6f62-46f7-945f-76312e312e6b,rev?*
G04 #@! TF.SameCoordinates,Original*
G04 #@! TF.FileFunction,Soldermask,Top*
G04 #@! TF.FilePolarity,Negative*
%FSLAX46Y46*%
G04 Gerber Fmt 4.6, Leading zero omitted, Abs format (unit mm)*
G04 Created by KiCad (PCBNEW 8.0.8) date 2025-08-18 01:47:15*
%MOMM*%
%LPD*%
G01*
G04 APERTURE LIST*
G04 Aperture macros list*
%AMRoundRect*
0 Rectangle with rounded corners*
0 $1 Rounding radius*
0 $2 $3 $4 $5 $6 $7 $8 $9 X,Y pos of 4 corners*
0 Add a 4 corners polygon primitive as box body*
4,1,4,$2,$3,$4,$5,$6,$7,$8,$9,$2,$3,0*
0 Add four circle primitives for the rounded corners*
1,1,$1+$1,$2,$3*
1,1,$1+$1,$4,$5*
1,1,$1+$1,$6,$7*
1,1,$1+$1,$8,$9*
0 Add four rect primitives between the rounded corners*
20,1,$1+$1,$2,$3,$4,$5,0*
20,1,$1+$1,$4,$5,$6,$7,0*
20,1,$1+$1,$6,$7,$8,$9,0*
20,1,$1+$1,$8,$9,$2,$3,0*%
%AMHorizOval*
0 Thick line with rounded ends*
0 $1 width*
0 $2 $3 position (X,Y) of the first rounded end (center of the circle)*
0 $4 $5 position (X,Y) of the second rounded end (center of the circle)*
0 Add line between two ends*
20,1,$1,$2,$3,$4,$5,0*
0 Add two circle primitives to create the rounded ends*
1,1,$1,$2,$3*
1,1,$1,$4,$5*%
%AMRotRect*
0 Rectangle, with rotation*
0 The origin of the aperture is its center*
0 $1 length*
0 $2 width*
0 $3 Rotation angle, in degrees counterclockwise*
0 Add horizontal line*
21,1,$1,$2,0,0,$3*%
%AMOutline4P*
0 Free polygon, 4 corners , with rotation*
0 The origin of the aperture is its center*
0 number of corners: always 4*
0 $1 to $8 corner X, Y*
0 $9 Rotation angle, in degrees counterclockwise*
0 create outline with 4 corners*
4,1,4,$1,$2,$3,$4,$5,$6,$7,$8,$1,$2,$9*%
%AMOutline5P*
0 Free polygon, 5 corners , with rotation*
0 The origin of the aperture is its center*
0 number of corners: always 5*
0 $1 to $10 corner X, Y*
0 $11 Rotation angle, in degrees counterclockwise*
0 create outline with 5 corners*
4,1,5,$1,$2,$3,$4,$5,$6,$7,$8,$9,$10,$1,$2,$11*%
%AMOutline6P*
0 Free polygon, 6 corners , with rotation*
0 The origin of the aperture is its center*
0 number of corners: always 6*
0 $1 to $12 corner X, Y*
0 $13 Rotation angle, in degrees counterclockwise*
0 create outline with 6 corners*
4,1,6,$1,$2,$3,$4,$5,$6,$7,$8,$9,$10,$11,$12,$1,$2,$13*%
%AMOutline7P*
0 Free polygon, 7 corners , with rotation*
0 The origin of the aperture is its center*
0 number of corners: always 7*
0 $1 to $14 corner X, Y*
0 $15 Rotation angle, in degrees counterclockwise*
0 create outline with 7 corners*
4,1,7,$1,$2,$3,$4,$5,$6,$7,$8,$9,$10,$11,$12,$13,$14,$1,$2,$15*%
%AMOutline8P*
0 Free polygon, 8 corners , with rotation*
0 The origin of the aperture is its center*
0 number of corners: always 8*
0 $1 to $16 corner X, Y*
0 $17 Rotation angle, in degrees counterclockwise*
0 create outline with 8 corners*
4,1,8,$1,$2,$3,$4,$5,$6,$7,$8,$9,$10,$11,$12,$13,$14,$15,$16,$1,$2,$17*%
%AMFreePoly0*
4,1,9,0.775000,-0.600000,0.225000,-0.600000,0.225000,-0.275000,-0.225000,-0.275000,-0.225000,0.275000,0.225000,0.275000,0.225000,0.600000,0.775000,0.600000,0.775000,-0.600000,0.775000,-0.600000,$1*%
%AMFreePoly1*
4,1,13,0.375000,1.525000,1.025000,1.525000,1.025000,-1.525000,0.375000,-1.525000,0.375000,-1.925000,-0.375000,-1.925000,-0.375000,-1.525000,-1.025000,-1.525000,-1.025000,1.525000,-0.375000,1.525000,-0.375000,1.925000,0.375000,1.925000,0.375000,1.525000,0.375000,1.525000,$1*%
%AMFreePoly2*
4,1,37,0.584509,0.548079,0.636171,0.537803,0.672220,0.522870,0.716017,0.493605,0.743605,0.466017,0.772870,0.422220,0.787803,0.386171,0.798079,0.334510,0.800000,0.315000,0.800000,-0.090000,0.780902,-0.148780,0.770711,-0.160711,0.410711,-0.520711,0.355643,-0.548769,0.340000,-0.550000,-0.565000,-0.550000,-0.584509,-0.548079,-0.636171,-0.537803,-0.672220,-0.522870,-0.716017,-0.493605,
-0.743605,-0.466017,-0.772870,-0.422220,-0.787803,-0.386171,-0.798079,-0.334510,-0.800000,-0.315000,-0.800000,0.315000,-0.798079,0.334510,-0.787803,0.386171,-0.772870,0.422220,-0.743605,0.466017,-0.716017,0.493605,-0.672220,0.522870,-0.636171,0.537803,-0.584509,0.548079,-0.565000,0.550000,0.565000,0.550000,0.584509,0.548079,0.584509,0.548079,$1*%
%AMFreePoly3*
4,1,19,0.500000,-0.750000,0.000000,-0.750000,0.000000,-0.744911,-0.071157,-0.744911,-0.207708,-0.704816,-0.327430,-0.627875,-0.420627,-0.520320,-0.479746,-0.390866,-0.500000,-0.250000,-0.500000,0.250000,-0.479746,0.390866,-0.420627,0.520320,-0.327430,0.627875,-0.207708,0.704816,-0.071157,0.744911,0.000000,0.744911,0.000000,0.750000,0.500000,0.750000,0.500000,-0.750000,0.500000,-0.750000,
$1*%
%AMFreePoly4*
4,1,19,0.000000,0.744911,0.071157,0.744911,0.207708,0.704816,0.327430,0.627875,0.420627,0.520320,0.479746,0.390866,0.500000,0.250000,0.500000,-0.250000,0.479746,-0.390866,0.420627,-0.520320,0.327430,-0.627875,0.207708,-0.704816,0.071157,-0.744911,0.000000,-0.744911,0.000000,-0.750000,-0.500000,-0.750000,-0.500000,0.750000,0.000000,0.750000,0.000000,0.744911,0.000000,0.744911,
$1*%
%AMFreePoly5*
4,1,19,0.000000,0.744911,0.071157,0.744911,0.207708,0.704816,0.327430,0.627875,0.420627,0.520320,0.479746,0.390866,0.500000,0.250000,0.500000,-0.250000,0.479746,-0.390866,0.420627,-0.520320,0.327430,-0.627875,0.207708,-0.704816,0.071157,-0.744911,0.000000,-0.744911,0.000000,-0.750000,-0.550000,-0.750000,-0.550000,0.750000,0.000000,0.750000,0.000000,0.744911,0.000000,0.744911,
$1*%
%AMFreePoly6*
4,1,19,0.550000,-0.750000,0.000000,-0.750000,0.000000,-0.744911,-0.071157,-0.744911,-0.207708,-0.704816,-0.327430,-0.627875,-0.420627,-0.520320,-0.479746,-0.390866,-0.500000,-0.250000,-0.500000,0.250000,-0.479746,0.390866,-0.420627,0.520320,-0.327430,0.627875,-0.207708,0.704816,-0.071157,0.744911,0.000000,0.744911,0.000000,0.750000,0.550000,0.750000,0.550000,-0.750000,0.550000,-0.750000,
$1*%
G04 Aperture macros list end*
%ADD10C,0.010000*%
%ADD11C,1.000000*%
%ADD12C,5.100000*%
%ADD13O,2.600000X1.400000*%
%ADD14R,0.500000X0.500000*%
%ADD15C,0.500000*%
%ADD16C,2.000000*%
%ADD17FreePoly0,210.000000*%
%ADD18RotRect,0.450000X1.200000X210.000000*%
%ADD19RotRect,0.700000X1.200000X210.000000*%
%ADD20FreePoly0,30.000000*%
%ADD21FreePoly0,250.000000*%
%ADD22RotRect,0.700000X1.200000X70.000000*%
%ADD23RotRect,0.450000X1.200000X70.000000*%
%ADD24FreePoly0,70.000000*%
%ADD25RoundRect,0.155000X0.212500X0.155000X-0.212500X0.155000X-0.212500X-0.155000X0.212500X-0.155000X0*%
%ADD26RoundRect,0.250000X-0.350000X-0.450000X0.350000X-0.450000X0.350000X0.450000X-0.350000X0.450000X0*%
%ADD27RoundRect,0.155000X0.155000X-0.212500X0.155000X0.212500X-0.155000X0.212500X-0.155000X-0.212500X0*%
%ADD28FreePoly0,315.000000*%
%ADD29RotRect,0.700000X1.200000X135.000000*%
%ADD30RotRect,0.450000X1.200000X135.000000*%
%ADD31FreePoly0,135.000000*%
%ADD32RoundRect,0.237500X-0.300000X-0.237500X0.300000X-0.237500X0.300000X0.237500X-0.300000X0.237500X0*%
%ADD33O,8.800000X3.600000*%
%ADD34FreePoly0,45.000000*%
%ADD35RotRect,0.700000X1.200000X225.000000*%
%ADD36RotRect,0.450000X1.200000X225.000000*%
%ADD37FreePoly0,225.000000*%
%ADD38RoundRect,0.155000X-0.212500X-0.155000X0.212500X-0.155000X0.212500X0.155000X-0.212500X0.155000X0*%
%ADD39RoundRect,0.250000X-0.475000X0.337500X-0.475000X-0.337500X0.475000X-0.337500X0.475000X0.337500X0*%
%ADD40RoundRect,0.225000X0.225000X0.250000X-0.225000X0.250000X-0.225000X-0.250000X0.225000X-0.250000X0*%
%ADD41C,0.600000*%
%ADD42R,3.900000X3.900000*%
%ADD43R,1.500000X0.900000*%
%ADD44R,0.900000X1.500000*%
%ADD45RoundRect,0.050400X-0.069600X-0.249600X0.069600X-0.249600X0.069600X0.249600X-0.069600X0.249600X0*%
%ADD46RoundRect,0.050400X-0.249600X-0.069600X0.249600X-0.069600X0.249600X0.069600X-0.249600X0.069600X0*%
%ADD47RoundRect,0.050000X-0.050000X-0.250000X0.050000X-0.250000X0.050000X0.250000X-0.050000X0.250000X0*%
%ADD48FreePoly1,0.000000*%
%ADD49RoundRect,0.150000X0.512500X0.150000X-0.512500X0.150000X-0.512500X-0.150000X0.512500X-0.150000X0*%
%ADD50RoundRect,0.160000X-0.160000X0.197500X-0.160000X-0.197500X0.160000X-0.197500X0.160000X0.197500X0*%
%ADD51R,0.850000X1.600000*%
%ADD52FreePoly2,135.000000*%
%ADD53RoundRect,0.165000X0.721249X-0.176777X-0.176777X0.721249X-0.721249X0.176777X0.176777X-0.721249X0*%
%ADD54FreePoly3,0.000000*%
%ADD55FreePoly4,0.000000*%
%ADD56RoundRect,0.160000X-0.197500X-0.160000X0.197500X-0.160000X0.197500X0.160000X-0.197500X0.160000X0*%
%ADD57FreePoly5,0.000000*%
%ADD58R,1.000000X1.500000*%
%ADD59FreePoly6,0.000000*%
%ADD60RoundRect,0.102000X0.800000X-0.325000X0.800000X0.325000X-0.800000X0.325000X-0.800000X-0.325000X0*%
%ADD61Outline4P,-1.800000X-1.150000X1.800000X-0.550000X1.800000X0.550000X-1.800000X1.150000X90.000000*%
%ADD62Outline4P,-1.800000X-1.150000X1.800000X-0.550000X1.800000X0.550000X-1.800000X1.150000X270.000000*%
%ADD63RoundRect,0.165000X0.885000X-0.385000X0.885000X0.385000X-0.885000X0.385000X-0.885000X-0.385000X0*%
%ADD64RoundRect,0.315000X0.735000X-0.735000X0.735000X0.735000X-0.735000X0.735000X-0.735000X-0.735000X0*%
%ADD65RoundRect,0.200000X0.200000X-0.525000X0.200000X0.525000X-0.200000X0.525000X-0.200000X-0.525000X0*%
%ADD66RoundRect,0.225000X0.250000X-0.225000X0.250000X0.225000X-0.250000X0.225000X-0.250000X-0.225000X0*%
%ADD67RoundRect,0.237500X0.300000X0.237500X-0.300000X0.237500X-0.300000X-0.237500X0.300000X-0.237500X0*%
%ADD68RoundRect,0.250000X-0.787500X-1.025000X0.787500X-1.025000X0.787500X1.025000X-0.787500X1.025000X0*%
%ADD69RoundRect,0.160000X0.197500X0.160000X-0.197500X0.160000X-0.197500X-0.160000X0.197500X-0.160000X0*%
%ADD70RotRect,1.050000X1.300000X295.000000*%
%ADD71HorizOval,1.050000X-0.113288X-0.052827X0.113288X0.052827X0*%
%ADD72RoundRect,0.165000X-0.885000X0.385000X-0.885000X-0.385000X0.885000X-0.385000X0.885000X0.385000X0*%
%ADD73RoundRect,0.315000X-0.735000X0.735000X-0.735000X-0.735000X0.735000X-0.735000X0.735000X0.735000X0*%
%ADD74R,1.700000X1.700000*%
%ADD75O,1.700000X1.700000*%
%ADD76RoundRect,0.250000X1.025000X-0.787500X1.025000X0.787500X-1.025000X0.787500X-1.025000X-0.787500X0*%
%ADD77R,0.250000X1.100000*%
%ADD78RoundRect,0.175000X0.175000X-0.825000X0.175000X0.825000X-0.175000X0.825000X-0.175000X-0.825000X0*%
%ADD79R,3.300000X2.400000*%
%ADD80FreePoly2,90.000000*%
%ADD81RoundRect,0.165000X0.385000X-0.635000X0.385000X0.635000X-0.385000X0.635000X-0.385000X-0.635000X0*%
%ADD82FreePoly0,110.000000*%
%ADD83RotRect,0.700000X1.200000X290.000000*%
%ADD84RotRect,0.450000X1.200000X290.000000*%
%ADD85FreePoly0,290.000000*%
%ADD86O,4.000000X4.000000*%
%ADD87RoundRect,0.160000X0.160000X-0.197500X0.160000X0.197500X-0.160000X0.197500X-0.160000X-0.197500X0*%
%ADD88RoundRect,0.250000X-0.337500X-0.475000X0.337500X-0.475000X0.337500X0.475000X-0.337500X0.475000X0*%
%ADD89RotRect,0.700000X1.200000X30.000000*%
%ADD90RotRect,0.450000X1.200000X30.000000*%
%ADD91RoundRect,0.250000X1.075000X-0.400000X1.075000X0.400000X-1.075000X0.400000X-1.075000X-0.400000X0*%
%ADD92RoundRect,0.225000X-0.225000X-0.250000X0.225000X-0.250000X0.225000X0.250000X-0.225000X0.250000X0*%
%ADD93FreePoly0,150.000000*%
%ADD94RotRect,0.450000X1.200000X150.000000*%
%ADD95RotRect,0.700000X1.200000X150.000000*%
%ADD96FreePoly0,330.000000*%
%ADD97RoundRect,0.162500X-0.825000X-0.162500X0.825000X-0.162500X0.825000X0.162500X-0.825000X0.162500X0*%
%ADD98RoundRect,0.250000X0.300000X-0.300000X0.300000X0.300000X-0.300000X0.300000X-0.300000X-0.300000X0*%
%ADD99RoundRect,0.237500X0.237500X-0.300000X0.237500X0.300000X-0.237500X0.300000X-0.237500X-0.300000X0*%
%ADD100RotRect,0.700000X1.200000X330.000000*%
%ADD101RotRect,0.450000X1.200000X330.000000*%
%ADD102RotRect,1.050000X1.300000X115.000000*%
%ADD103HorizOval,1.050000X0.113288X0.052827X-0.113288X-0.052827X0*%
%ADD104RoundRect,0.350000X0.350000X1.050000X-0.350000X1.050000X-0.350000X-1.050000X0.350000X-1.050000X0*%
%ADD105RotRect,1.050000X1.300000X65.000000*%
%ADD106HorizOval,1.050000X-0.113288X0.052827X0.113288X-0.052827X0*%
%ADD107RoundRect,0.155000X-0.155000X0.212500X-0.155000X-0.212500X0.155000X-0.212500X0.155000X0.212500X0*%
%ADD108RotRect,1.050000X1.300000X245.000000*%
%ADD109Outline6P,-0.250000X1.000000X0.250000X1.000000X0.250000X-0.800000X0.050000X-1.000000X-0.050000X-1.000000X-0.250000X-0.800000X0.000000*%
%ADD110Outline6P,-0.250000X0.700000X0.250000X0.700000X0.250000X-0.500000X0.050000X-0.700000X-0.050000X-0.700000X-0.250000X-0.500000X0.000000*%
%ADD111RoundRect,0.150000X-0.150000X0.587500X-0.150000X-0.587500X0.150000X-0.587500X0.150000X0.587500X0*%
%ADD112R,3.150000X1.000000*%
%ADD113FreePoly2,270.000000*%
%ADD114RoundRect,0.165000X-0.385000X0.635000X-0.385000X-0.635000X0.385000X-0.635000X0.385000X0.635000X0*%
%ADD115RoundRect,0.075000X-0.250000X-0.075000X0.250000X-0.075000X0.250000X0.075000X-0.250000X0.075000X0*%
%ADD116RoundRect,0.150000X-0.512500X-0.150000X0.512500X-0.150000X0.512500X0.150000X-0.512500X0.150000X0*%
%ADD117RoundRect,0.105000X0.245000X0.295000X-0.245000X0.295000X-0.245000X-0.295000X0.245000X-0.295000X0*%
%ADD118RoundRect,0.105000X0.245000X0.320000X-0.245000X0.320000X-0.245000X-0.320000X0.245000X-0.320000X0*%
%ADD119Outline6P,-0.800000X1.250000X0.800000X1.250000X0.800000X-0.610000X0.160000X-1.250000X-0.160000X-1.250000X-0.800000X-0.610000X180.000000*%
G04 APERTURE END LIST*
D10*
X12381300Y-812700D02*
X11708200Y-812700D01*
X11708200Y-647600D01*
X12381300Y-647600D01*
X12381300Y-812700D01*
G36*
X12381300Y-812700D02*
G01*
X11708200Y-812700D01*
X11708200Y-647600D01*
X12381300Y-647600D01*
X12381300Y-812700D01*
G37*
X40768300Y-5880000D02*
X40400000Y-5880000D01*
X40400000Y-5524400D01*
X40768300Y-5524400D01*
X40768300Y-5880000D01*
G36*
X40768300Y-5880000D02*
G01*
X40400000Y-5880000D01*
X40400000Y-5524400D01*
X40768300Y-5524400D01*
X40768300Y-5880000D01*
G37*
X40768300Y-6578500D02*
X40400000Y-6578500D01*
X40400000Y-6210200D01*
X40768300Y-6210200D01*
X40768300Y-6578500D01*
G36*
X40768300Y-6578500D02*
G01*
X40400000Y-6578500D01*
X40400000Y-6210200D01*
X40768300Y-6210200D01*
X40768300Y-6578500D01*
G37*
X42825700Y-10020200D02*
X42456702Y-10020200D01*
X42463750Y-9658250D01*
X42825700Y-9651202D01*
X42825700Y-10020200D01*
G36*
X42825700Y-10020200D02*
G01*
X42456702Y-10020200D01*
X42463750Y-9658250D01*
X42825700Y-9651202D01*
X42825700Y-10020200D01*
G37*
X47651700Y-6921400D02*
X46940500Y-6921400D01*
X46940500Y-6553100D01*
X47651700Y-6553100D01*
X47651700Y-6921400D01*
G36*
X47651700Y-6921400D02*
G01*
X46940500Y-6921400D01*
X46940500Y-6553100D01*
X47651700Y-6553100D01*
X47651700Y-6921400D01*
G37*
X48337500Y-10706000D02*
X47968502Y-10706000D01*
X47975550Y-10344050D01*
X48337500Y-10337002D01*
X48337500Y-10706000D01*
G36*
X48337500Y-10706000D02*
G01*
X47968502Y-10706000D01*
X47975550Y-10344050D01*
X48337500Y-10337002D01*
X48337500Y-10706000D01*
G37*
X50407600Y-6235600D02*
X50039300Y-6235600D01*
X50039300Y-5867300D01*
X50407600Y-5867300D01*
X50407600Y-6235600D01*
G36*
X50407600Y-6235600D02*
G01*
X50039300Y-6235600D01*
X50039300Y-5867300D01*
X50407600Y-5867300D01*
X50407600Y-6235600D01*
G37*
X50407600Y-7607200D02*
X50039300Y-7607200D01*
X50039300Y-7238900D01*
X50407600Y-7238900D01*
X50407600Y-7607200D01*
G36*
X50407600Y-7607200D02*
G01*
X50039300Y-7607200D01*
X50039300Y-7238900D01*
X50407600Y-7238900D01*
X50407600Y-7607200D01*
G37*
X50407600Y-8991500D02*
X50039300Y-8991500D01*
X50039300Y-8623200D01*
X50407600Y-8623200D01*
X50407600Y-8991500D01*
G36*
X50407600Y-8991500D02*
G01*
X50039300Y-8991500D01*
X50039300Y-8623200D01*
X50407600Y-8623200D01*
X50407600Y-8991500D01*
G37*
X12381300Y4711800D02*
X11441500Y4711800D01*
X11441500Y4889600D01*
X12216200Y4889600D01*
X12216200Y5397600D01*
X12381300Y5397600D01*
X12381300Y4711800D01*
G36*
X12381300Y4711800D02*
G01*
X11441500Y4711800D01*
X11441500Y4889600D01*
X12216200Y4889600D01*
X12216200Y5397600D01*
X12381300Y5397600D01*
X12381300Y4711800D01*
G37*
X11476829Y-639884D02*
X11509702Y-656184D01*
X11533653Y-688119D01*
X11543097Y-735582D01*
X11543100Y-736485D01*
X11537782Y-776365D01*
X11518264Y-804468D01*
X11509637Y-811778D01*
X11471121Y-834041D01*
X11436061Y-833593D01*
X11398102Y-811259D01*
X11375407Y-788459D01*
X11367262Y-761680D01*
X11367815Y-733153D01*
X11380527Y-685853D01*
X11406656Y-654612D01*
X11440619Y-639324D01*
X11476829Y-639884D01*
G36*
X11476829Y-639884D02*
G01*
X11509702Y-656184D01*
X11533653Y-688119D01*
X11543097Y-735582D01*
X11543100Y-736485D01*
X11537782Y-776365D01*
X11518264Y-804468D01*
X11509637Y-811778D01*
X11471121Y-834041D01*
X11436061Y-833593D01*
X11398102Y-811259D01*
X11375407Y-788459D01*
X11367262Y-761680D01*
X11367815Y-733153D01*
X11380527Y-685853D01*
X11406656Y-654612D01*
X11440619Y-639324D01*
X11476829Y-639884D01*
G37*
X12381300Y8001100D02*
X11645015Y8001100D01*
X11687402Y7934425D01*
X11721467Y7880876D01*
X11742152Y7845465D01*
X11748994Y7824461D01*
X11741530Y7814134D01*
X11719295Y7810750D01*
X11681826Y7810578D01*
X11672021Y7810600D01*
X11584149Y7810600D01*
X11506474Y7931997D01*
X11471779Y7987497D01*
X11449141Y8028037D01*
X11436084Y8059488D01*
X11430131Y8087723D01*
X11428800Y8116147D01*
X11428800Y8178900D01*
X12381300Y8178900D01*
X12381300Y8001100D01*
G36*
X12381300Y8001100D02*
G01*
X11645015Y8001100D01*
X11687402Y7934425D01*
X11721467Y7880876D01*
X11742152Y7845465D01*
X11748994Y7824461D01*
X11741530Y7814134D01*
X11719295Y7810750D01*
X11681826Y7810578D01*
X11672021Y7810600D01*
X11584149Y7810600D01*
X11506474Y7931997D01*
X11471779Y7987497D01*
X11449141Y8028037D01*
X11436084Y8059488D01*
X11430131Y8087723D01*
X11428800Y8116147D01*
X11428800Y8178900D01*
X12381300Y8178900D01*
X12381300Y8001100D01*
G37*
X-13920400Y-27660495D02*
X-13920400Y-29286100D01*
X-18924200Y-29286100D01*
X-18924200Y-27660267D01*
X-17747275Y-26374508D01*
X-17605176Y-26219288D01*
X-17466904Y-26068285D01*
X-17333525Y-25922661D01*
X-17206100Y-25783576D01*
X-17085696Y-25652188D01*
X-16973375Y-25529660D01*
X-16870201Y-25417150D01*
X-16777239Y-25315818D01*
X-16695552Y-25226826D01*
X-16626204Y-25151332D01*
X-16570260Y-25090498D01*
X-16528782Y-25045483D01*
X-16502836Y-25017446D01*
X-16495856Y-25009985D01*
X-16421362Y-24931221D01*
X-13920400Y-27660495D01*
G36*
X-13920400Y-27660495D02*
G01*
X-13920400Y-29286100D01*
X-18924200Y-29286100D01*
X-18924200Y-27660267D01*
X-17747275Y-26374508D01*
X-17605176Y-26219288D01*
X-17466904Y-26068285D01*
X-17333525Y-25922661D01*
X-17206100Y-25783576D01*
X-17085696Y-25652188D01*
X-16973375Y-25529660D01*
X-16870201Y-25417150D01*
X-16777239Y-25315818D01*
X-16695552Y-25226826D01*
X-16626204Y-25151332D01*
X-16570260Y-25090498D01*
X-16528782Y-25045483D01*
X-16502836Y-25017446D01*
X-16495856Y-25009985D01*
X-16421362Y-24931221D01*
X-13920400Y-27660495D01*
G37*
X-106719300Y27690990D02*
X-107939523Y26358220D01*
X-108083293Y26201204D01*
X-108222650Y26049033D01*
X-108356600Y25902792D01*
X-108484151Y25763563D01*
X-108604310Y25632429D01*
X-108716084Y25510475D01*
X-108818478Y25398782D01*
X-108910501Y25298435D01*
X-108991158Y25210516D01*
X-109059457Y25136110D01*
X-109114405Y25076297D01*
X-109155008Y25032164D01*
X-109180274Y25004791D01*
X-109188863Y24995599D01*
X-109217981Y24965747D01*
X-110470541Y26332790D01*
X-111723100Y27699833D01*
X-111723100Y29311700D01*
X-106719300Y29311700D01*
X-106719300Y27690990D01*
G36*
X-106719300Y27690990D02*
G01*
X-107939523Y26358220D01*
X-108083293Y26201204D01*
X-108222650Y26049033D01*
X-108356600Y25902792D01*
X-108484151Y25763563D01*
X-108604310Y25632429D01*
X-108716084Y25510475D01*
X-108818478Y25398782D01*
X-108910501Y25298435D01*
X-108991158Y25210516D01*
X-109059457Y25136110D01*
X-109114405Y25076297D01*
X-109155008Y25032164D01*
X-109180274Y25004791D01*
X-109188863Y24995599D01*
X-109217981Y24965747D01*
X-110470541Y26332790D01*
X-111723100Y27699833D01*
X-111723100Y29311700D01*
X-106719300Y29311700D01*
X-106719300Y27690990D01*
G37*
X-73953300Y27690990D02*
X-75173523Y26358220D01*
X-75317292Y26201204D01*
X-75456648Y26049035D01*
X-75590597Y25902795D01*
X-75718147Y25763567D01*
X-75838304Y25632436D01*
X-75950074Y25510484D01*
X-76052466Y25398794D01*
X-76144486Y25298450D01*
X-76225141Y25210534D01*
X-76293437Y25136130D01*
X-76348382Y25076321D01*
X-76388982Y25032190D01*
X-76414244Y25004821D01*
X-76422831Y24995631D01*
X-76451917Y24965812D01*
X-77282231Y25871931D01*
X-77411919Y26013458D01*
X-77545038Y26158729D01*
X-77679479Y26305441D01*
X-77813134Y26451294D01*
X-77943894Y26593987D01*
X-78069651Y26731219D01*
X-78188295Y26860688D01*
X-78297718Y26980093D01*
X-78395811Y27087133D01*
X-78480465Y27179508D01*
X-78534823Y27238822D01*
X-78957100Y27699593D01*
X-78957100Y29311700D01*
X-73953300Y29311700D01*
X-73953300Y27690990D01*
G36*
X-73953300Y27690990D02*
G01*
X-75173523Y26358220D01*
X-75317292Y26201204D01*
X-75456648Y26049035D01*
X-75590597Y25902795D01*
X-75718147Y25763567D01*
X-75838304Y25632436D01*
X-75950074Y25510484D01*
X-76052466Y25398794D01*
X-76144486Y25298450D01*
X-76225141Y25210534D01*
X-76293437Y25136130D01*
X-76348382Y25076321D01*
X-76388982Y25032190D01*
X-76414244Y25004821D01*
X-76422831Y24995631D01*
X-76451917Y24965812D01*
X-77282231Y25871931D01*
X-77411919Y26013458D01*
X-77545038Y26158729D01*
X-77679479Y26305441D01*
X-77813134Y26451294D01*
X-77943894Y26593987D01*
X-78069651Y26731219D01*
X-78188295Y26860688D01*
X-78297718Y26980093D01*
X-78395811Y27087133D01*
X-78480465Y27179508D01*
X-78534823Y27238822D01*
X-78957100Y27699593D01*
X-78957100Y29311700D01*
X-73953300Y29311700D01*
X-73953300Y27690990D01*
G37*
X-109208899Y-24946574D02*
X-109183425Y-24973330D01*
X-109142723Y-25016744D01*
X-109087754Y-25075775D01*
X-109019478Y-25149383D01*
X-108938853Y-25236528D01*
X-108846841Y-25336169D01*
X-108744401Y-25447266D01*
X-108632493Y-25568778D01*
X-108512078Y-25699666D01*
X-108384115Y-25838888D01*
X-108249563Y-25985405D01*
X-108109384Y-26138176D01*
X-107965371Y-26295250D01*
X-106719960Y-27654150D01*
X-106719300Y-29286100D01*
X-111723100Y-29286100D01*
X-111723100Y-27665438D01*
X-110474344Y-26302060D01*
X-110329332Y-26143784D01*
X-110188992Y-25990699D01*
X-110054283Y-25843846D01*
X-109926162Y-25704265D01*
X-109805588Y-25572998D01*
X-109693520Y-25451087D01*
X-109590917Y-25339571D01*
X-109498735Y-25239494D01*
X-109417935Y-25151894D01*
X-109349475Y-25077815D01*
X-109294313Y-25018297D01*
X-109253407Y-24974380D01*
X-109227716Y-24947108D01*
X-109218199Y-24937519D01*
X-109218185Y-24937515D01*
X-109208899Y-24946574D01*
G36*
X-109208899Y-24946574D02*
G01*
X-109183425Y-24973330D01*
X-109142723Y-25016744D01*
X-109087754Y-25075775D01*
X-109019478Y-25149383D01*
X-108938853Y-25236528D01*
X-108846841Y-25336169D01*
X-108744401Y-25447266D01*
X-108632493Y-25568778D01*
X-108512078Y-25699666D01*
X-108384115Y-25838888D01*
X-108249563Y-25985405D01*
X-108109384Y-26138176D01*
X-107965371Y-26295250D01*
X-106719960Y-27654150D01*
X-106719300Y-29286100D01*
X-111723100Y-29286100D01*
X-111723100Y-27665438D01*
X-110474344Y-26302060D01*
X-110329332Y-26143784D01*
X-110188992Y-25990699D01*
X-110054283Y-25843846D01*
X-109926162Y-25704265D01*
X-109805588Y-25572998D01*
X-109693520Y-25451087D01*
X-109590917Y-25339571D01*
X-109498735Y-25239494D01*
X-109417935Y-25151894D01*
X-109349475Y-25077815D01*
X-109294313Y-25018297D01*
X-109253407Y-24974380D01*
X-109227716Y-24947108D01*
X-109218199Y-24937519D01*
X-109218185Y-24937515D01*
X-109208899Y-24946574D01*
G37*
X-13921432Y27692450D02*
X-15166987Y26333550D01*
X-15311856Y26175539D01*
X-15452058Y26022698D01*
X-15586632Y25876071D01*
X-15714616Y25736703D01*
X-15835050Y25605638D01*
X-15946972Y25483919D01*
X-16049422Y25372590D01*
X-16141437Y25272695D01*
X-16222058Y25185278D01*
X-16290323Y25111383D01*
X-16345271Y25052054D01*
X-16385941Y25008334D01*
X-16411372Y24981268D01*
X-16420596Y24971901D01*
X-16429955Y24980777D01*
X-16455493Y25007361D01*
X-16496252Y25050614D01*
X-16551273Y25109498D01*
X-16619596Y25182975D01*
X-16700262Y25270006D01*
X-16792312Y25369553D01*
X-16894787Y25480578D01*
X-17006727Y25602042D01*
X-17127174Y25732907D01*
X-17255168Y25872135D01*
X-17389751Y26018687D01*
X-17529962Y26171525D01*
X-17674842Y26329612D01*
X-17675932Y26330801D01*
X-18923214Y27692450D01*
X-18924200Y29311700D01*
X-13920400Y29311700D01*
X-13921432Y27692450D01*
G36*
X-13921432Y27692450D02*
G01*
X-15166987Y26333550D01*
X-15311856Y26175539D01*
X-15452058Y26022698D01*
X-15586632Y25876071D01*
X-15714616Y25736703D01*
X-15835050Y25605638D01*
X-15946972Y25483919D01*
X-16049422Y25372590D01*
X-16141437Y25272695D01*
X-16222058Y25185278D01*
X-16290323Y25111383D01*
X-16345271Y25052054D01*
X-16385941Y25008334D01*
X-16411372Y24981268D01*
X-16420596Y24971901D01*
X-16429955Y24980777D01*
X-16455493Y25007361D01*
X-16496252Y25050614D01*
X-16551273Y25109498D01*
X-16619596Y25182975D01*
X-16700262Y25270006D01*
X-16792312Y25369553D01*
X-16894787Y25480578D01*
X-17006727Y25602042D01*
X-17127174Y25732907D01*
X-17255168Y25872135D01*
X-17389751Y26018687D01*
X-17529962Y26171525D01*
X-17674842Y26329612D01*
X-17675932Y26330801D01*
X-18923214Y27692450D01*
X-18924200Y29311700D01*
X-13920400Y29311700D01*
X-13921432Y27692450D01*
G37*
X16347285Y-24939264D02*
X16356872Y-24949099D01*
X16382646Y-24976624D01*
X16423643Y-25020790D01*
X16478900Y-25080550D01*
X16547454Y-25154858D01*
X16628342Y-25242665D01*
X16720601Y-25342924D01*
X16823266Y-25454589D01*
X16935376Y-25576612D01*
X17055967Y-25707946D01*
X17184075Y-25847544D01*
X17318737Y-25994358D01*
X17458990Y-26147340D01*
X17601410Y-26302759D01*
X18845600Y-27660811D01*
X18845600Y-29286100D01*
X13841800Y-29286100D01*
X13841800Y-27660299D01*
X15089575Y-26297060D01*
X15234492Y-26138842D01*
X15374774Y-25985901D01*
X15509460Y-25839272D01*
X15637593Y-25699990D01*
X15758210Y-25569093D01*
X15870354Y-25447616D01*
X15973063Y-25336595D01*
X16065380Y-25237067D01*
X16146342Y-25150067D01*
X16214992Y-25076632D01*
X16270369Y-25017797D01*
X16311514Y-24974599D01*
X16337467Y-24948073D01*
X16347268Y-24939257D01*
X16347285Y-24939264D01*
G36*
X16347285Y-24939264D02*
G01*
X16356872Y-24949099D01*
X16382646Y-24976624D01*
X16423643Y-25020790D01*
X16478900Y-25080550D01*
X16547454Y-25154858D01*
X16628342Y-25242665D01*
X16720601Y-25342924D01*
X16823266Y-25454589D01*
X16935376Y-25576612D01*
X17055967Y-25707946D01*
X17184075Y-25847544D01*
X17318737Y-25994358D01*
X17458990Y-26147340D01*
X17601410Y-26302759D01*
X18845600Y-27660811D01*
X18845600Y-29286100D01*
X13841800Y-29286100D01*
X13841800Y-27660299D01*
X15089575Y-26297060D01*
X15234492Y-26138842D01*
X15374774Y-25985901D01*
X15509460Y-25839272D01*
X15637593Y-25699990D01*
X15758210Y-25569093D01*
X15870354Y-25447616D01*
X15973063Y-25336595D01*
X16065380Y-25237067D01*
X16146342Y-25150067D01*
X16214992Y-25076632D01*
X16270369Y-25017797D01*
X16311514Y-24974599D01*
X16337467Y-24948073D01*
X16347268Y-24939257D01*
X16347285Y-24939264D01*
G37*
X-76439270Y-24942528D02*
X-76414250Y-24969802D01*
X-76373982Y-25013713D01*
X-76319425Y-25073218D01*
X-76251534Y-25147274D01*
X-76171267Y-25234835D01*
X-76079581Y-25334859D01*
X-75977433Y-25446300D01*
X-75865780Y-25568116D01*
X-75745578Y-25699261D01*
X-75617785Y-25838693D01*
X-75483358Y-25985366D01*
X-75343253Y-26138238D01*
X-75199357Y-26295250D01*
X-73953983Y-27654150D01*
X-73953642Y-28470125D01*
X-73953300Y-29286100D01*
X-78957100Y-29286100D01*
X-78957100Y-27665428D01*
X-77704272Y-26297476D01*
X-77559104Y-26139016D01*
X-77418654Y-25985800D01*
X-77283877Y-25838863D01*
X-77155724Y-25699239D01*
X-77035147Y-25567965D01*
X-76923100Y-25446073D01*
X-76820536Y-25334601D01*
X-76728407Y-25234581D01*
X-76647665Y-25147050D01*
X-76579264Y-25073042D01*
X-76524156Y-25013591D01*
X-76483295Y-24969734D01*
X-76457631Y-24942504D01*
X-76448119Y-24932937D01*
X-76448087Y-24932937D01*
X-76439270Y-24942528D01*
G36*
X-76439270Y-24942528D02*
G01*
X-76414250Y-24969802D01*
X-76373982Y-25013713D01*
X-76319425Y-25073218D01*
X-76251534Y-25147274D01*
X-76171267Y-25234835D01*
X-76079581Y-25334859D01*
X-75977433Y-25446300D01*
X-75865780Y-25568116D01*
X-75745578Y-25699261D01*
X-75617785Y-25838693D01*
X-75483358Y-25985366D01*
X-75343253Y-26138238D01*
X-75199357Y-26295250D01*
X-73953983Y-27654150D01*
X-73953642Y-28470125D01*
X-73953300Y-29286100D01*
X-78957100Y-29286100D01*
X-78957100Y-27665428D01*
X-77704272Y-26297476D01*
X-77559104Y-26139016D01*
X-77418654Y-25985800D01*
X-77283877Y-25838863D01*
X-77155724Y-25699239D01*
X-77035147Y-25567965D01*
X-76923100Y-25446073D01*
X-76820536Y-25334601D01*
X-76728407Y-25234581D01*
X-76647665Y-25147050D01*
X-76579264Y-25073042D01*
X-76524156Y-25013591D01*
X-76483295Y-24969734D01*
X-76457631Y-24942504D01*
X-76448119Y-24932937D01*
X-76448087Y-24932937D01*
X-76439270Y-24942528D01*
G37*
X49557052Y-3489172D02*
X49612856Y-3525499D01*
X49654100Y-3571391D01*
X49664453Y-3587202D01*
X49702750Y-3649131D01*
X49702750Y-4288108D01*
X49664314Y-4350293D01*
X49615272Y-4410314D01*
X49563752Y-4450914D01*
X49501626Y-4489350D01*
X49195788Y-4492735D01*
X49099697Y-4493723D01*
X49025360Y-4494111D01*
X48969135Y-4493634D01*
X48927378Y-4492023D01*
X48896446Y-4489011D01*
X48872696Y-4484332D01*
X48852485Y-4477716D01*
X48832168Y-4468899D01*
X48824963Y-4465527D01*
X48755793Y-4420067D01*
X48705902Y-4358338D01*
X48680773Y-4298850D01*
X48675059Y-4264110D01*
X48671260Y-4205439D01*
X48669364Y-4122436D01*
X48669357Y-4014695D01*
X48670010Y-3954908D01*
X48674050Y-3661766D01*
X48712485Y-3599644D01*
X48761328Y-3539879D01*
X48813047Y-3499085D01*
X48875173Y-3460650D01*
X49181560Y-3456860D01*
X49487947Y-3453071D01*
X49557052Y-3489172D01*
G36*
X49557052Y-3489172D02*
G01*
X49612856Y-3525499D01*
X49654100Y-3571391D01*
X49664453Y-3587202D01*
X49702750Y-3649131D01*
X49702750Y-4288108D01*
X49664314Y-4350293D01*
X49615272Y-4410314D01*
X49563752Y-4450914D01*
X49501626Y-4489350D01*
X49195788Y-4492735D01*
X49099697Y-4493723D01*
X49025360Y-4494111D01*
X48969135Y-4493634D01*
X48927378Y-4492023D01*
X48896446Y-4489011D01*
X48872696Y-4484332D01*
X48852485Y-4477716D01*
X48832168Y-4468899D01*
X48824963Y-4465527D01*
X48755793Y-4420067D01*
X48705902Y-4358338D01*
X48680773Y-4298850D01*
X48675059Y-4264110D01*
X48671260Y-4205439D01*
X48669364Y-4122436D01*
X48669357Y-4014695D01*
X48670010Y-3954908D01*
X48674050Y-3661766D01*
X48712485Y-3599644D01*
X48761328Y-3539879D01*
X48813047Y-3499085D01*
X48875173Y-3460650D01*
X49181560Y-3456860D01*
X49487947Y-3453071D01*
X49557052Y-3489172D01*
G37*
X18845076Y28502075D02*
X18844553Y27692450D01*
X17598974Y26333550D01*
X17454103Y26175539D01*
X17313899Y26022698D01*
X17179324Y25876071D01*
X17051339Y25736703D01*
X16930905Y25605636D01*
X16818983Y25483915D01*
X16716534Y25372584D01*
X16624520Y25272687D01*
X16543900Y25185267D01*
X16475636Y25111369D01*
X16420690Y25052036D01*
X16380022Y25008312D01*
X16354594Y24981242D01*
X16345372Y24971871D01*
X16336018Y24980743D01*
X16310483Y25007324D01*
X16269728Y25050574D01*
X16214711Y25109455D01*
X16146392Y25182929D01*
X16065729Y25269957D01*
X15973683Y25369502D01*
X15871211Y25480525D01*
X15759273Y25601987D01*
X15638829Y25732851D01*
X15510837Y25872079D01*
X15376257Y26018631D01*
X15236048Y26171469D01*
X15091168Y26329556D01*
X15090055Y26330771D01*
X13842761Y27692450D01*
X13842280Y28502075D01*
X13841800Y29311700D01*
X18845600Y29311700D01*
X18845076Y28502075D01*
G36*
X18845076Y28502075D02*
G01*
X18844553Y27692450D01*
X17598974Y26333550D01*
X17454103Y26175539D01*
X17313899Y26022698D01*
X17179324Y25876071D01*
X17051339Y25736703D01*
X16930905Y25605636D01*
X16818983Y25483915D01*
X16716534Y25372584D01*
X16624520Y25272687D01*
X16543900Y25185267D01*
X16475636Y25111369D01*
X16420690Y25052036D01*
X16380022Y25008312D01*
X16354594Y24981242D01*
X16345372Y24971871D01*
X16336018Y24980743D01*
X16310483Y25007324D01*
X16269728Y25050574D01*
X16214711Y25109455D01*
X16146392Y25182929D01*
X16065729Y25269957D01*
X15973683Y25369502D01*
X15871211Y25480525D01*
X15759273Y25601987D01*
X15638829Y25732851D01*
X15510837Y25872079D01*
X15376257Y26018631D01*
X15236048Y26171469D01*
X15091168Y26329556D01*
X15090055Y26330771D01*
X13842761Y27692450D01*
X13842280Y28502075D01*
X13841800Y29311700D01*
X18845600Y29311700D01*
X18845076Y28502075D01*
G37*
X12376196Y826464D02*
X12379375Y795630D01*
X12380756Y751561D01*
X12380760Y739875D01*
X12380220Y641450D01*
X12247410Y542828D01*
X12190500Y499626D01*
X12151762Y467563D01*
X12128217Y443717D01*
X12116882Y425167D01*
X12114600Y412653D01*
X12114600Y381100D01*
X12381300Y381100D01*
X12381300Y203300D01*
X11378000Y203300D01*
X11378000Y381100D01*
X11962200Y381100D01*
X11962200Y412275D01*
X11958139Y428870D01*
X11943885Y448237D01*
X11916329Y473359D01*
X11872361Y507220D01*
X11835200Y534122D01*
X11708200Y624795D01*
X11708200Y815915D01*
X11749475Y784913D01*
X11831914Y723065D01*
X11896312Y674955D01*
X11944874Y638981D01*
X11979804Y613544D01*
X12003309Y597043D01*
X12017592Y587879D01*
X12024861Y584450D01*
X12025937Y584300D01*
X12038541Y591701D01*
X12067579Y612163D01*
X12109495Y643077D01*
X12160733Y681836D01*
X12198626Y710985D01*
X12254174Y753581D01*
X12302832Y790113D01*
X12341031Y817965D01*
X12365202Y834518D01*
X12371775Y837985D01*
X12376196Y826464D01*
G36*
X12376196Y826464D02*
G01*
X12379375Y795630D01*
X12380756Y751561D01*
X12380760Y739875D01*
X12380220Y641450D01*
X12247410Y542828D01*
X12190500Y499626D01*
X12151762Y467563D01*
X12128217Y443717D01*
X12116882Y425167D01*
X12114600Y412653D01*
X12114600Y381100D01*
X12381300Y381100D01*
X12381300Y203300D01*
X11378000Y203300D01*
X11378000Y381100D01*
X11962200Y381100D01*
X11962200Y412275D01*
X11958139Y428870D01*
X11943885Y448237D01*
X11916329Y473359D01*
X11872361Y507220D01*
X11835200Y534122D01*
X11708200Y624795D01*
X11708200Y815915D01*
X11749475Y784913D01*
X11831914Y723065D01*
X11896312Y674955D01*
X11944874Y638981D01*
X11979804Y613544D01*
X12003309Y597043D01*
X12017592Y587879D01*
X12024861Y584450D01*
X12025937Y584300D01*
X12038541Y591701D01*
X12067579Y612163D01*
X12109495Y643077D01*
X12160733Y681836D01*
X12198626Y710985D01*
X12254174Y753581D01*
X12302832Y790113D01*
X12341031Y817965D01*
X12365202Y834518D01*
X12371775Y837985D01*
X12376196Y826464D01*
G37*
X11914321Y20849D02*
X11866762Y-43412D01*
X11843442Y-108354D01*
X11843362Y-177529D01*
X11849909Y-208288D01*
X11876336Y-267111D01*
X11919937Y-307855D01*
X11981974Y-331596D01*
X11998065Y-334619D01*
X12058400Y-337180D01*
X12119346Y-328013D01*
X12171572Y-309146D01*
X12198055Y-291149D01*
X12231852Y-243020D01*
X12248828Y-182098D01*
X12249026Y-114582D01*
X12232488Y-46675D01*
X12199255Y15424D01*
X12195943Y19868D01*
X12152867Y76300D01*
X12234412Y76300D01*
X12280512Y75133D01*
X12309156Y70031D01*
X12328241Y58596D01*
X12341555Y43757D01*
X12370787Y-4787D01*
X12387435Y-62774D01*
X12392729Y-135787D01*
X12391351Y-182463D01*
X12380767Y-269152D01*
X12358090Y-338116D01*
X12320880Y-395127D01*
X12286977Y-429182D01*
X12223992Y-469189D01*
X12145689Y-495199D01*
X12058571Y-506216D01*
X11969141Y-501247D01*
X11907210Y-487285D01*
X11840667Y-454747D01*
X11781144Y-403080D01*
X11734840Y-338543D01*
X11714938Y-293170D01*
X11700791Y-227227D01*
X11696554Y-151541D01*
X11701843Y-75649D01*
X11716274Y-9084D01*
X11727497Y19150D01*
X11752650Y69950D01*
X11859547Y73673D01*
X11966445Y77396D01*
X11914321Y20849D01*
G36*
X11914321Y20849D02*
G01*
X11866762Y-43412D01*
X11843442Y-108354D01*
X11843362Y-177529D01*
X11849909Y-208288D01*
X11876336Y-267111D01*
X11919937Y-307855D01*
X11981974Y-331596D01*
X11998065Y-334619D01*
X12058400Y-337180D01*
X12119346Y-328013D01*
X12171572Y-309146D01*
X12198055Y-291149D01*
X12231852Y-243020D01*
X12248828Y-182098D01*
X12249026Y-114582D01*
X12232488Y-46675D01*
X12199255Y15424D01*
X12195943Y19868D01*
X12152867Y76300D01*
X12234412Y76300D01*
X12280512Y75133D01*
X12309156Y70031D01*
X12328241Y58596D01*
X12341555Y43757D01*
X12370787Y-4787D01*
X12387435Y-62774D01*
X12392729Y-135787D01*
X12391351Y-182463D01*
X12380767Y-269152D01*
X12358090Y-338116D01*
X12320880Y-395127D01*
X12286977Y-429182D01*
X12223992Y-469189D01*
X12145689Y-495199D01*
X12058571Y-506216D01*
X11969141Y-501247D01*
X11907210Y-487285D01*
X11840667Y-454747D01*
X11781144Y-403080D01*
X11734840Y-338543D01*
X11714938Y-293170D01*
X11700791Y-227227D01*
X11696554Y-151541D01*
X11701843Y-75649D01*
X11716274Y-9084D01*
X11727497Y19150D01*
X11752650Y69950D01*
X11859547Y73673D01*
X11966445Y77396D01*
X11914321Y20849D01*
G37*
X-63364675Y5292990D02*
X-62972609Y5292681D01*
X-62605133Y5292382D01*
X-62261436Y5292088D01*
X-61940709Y5291794D01*
X-61642142Y5291494D01*
X-61364925Y5291184D01*
X-61108246Y5290858D01*
X-60871298Y5290512D01*
X-60653268Y5290141D01*
X-60453348Y5289739D01*
X-60270727Y5289302D01*
X-60104595Y5288824D01*
X-59954142Y5288301D01*
X-59818557Y5287727D01*
X-59697032Y5287098D01*
X-59588755Y5286409D01*
X-59492917Y5285654D01*
X-59408707Y5284828D01*
X-59335316Y5283927D01*
X-59271933Y5282945D01*
X-59217749Y5281878D01*
X-59171952Y5280721D01*
X-59133734Y5279467D01*
X-59102284Y5278114D01*
X-59076791Y5276654D01*
X-59056447Y5275084D01*
X-59040440Y5273399D01*
X-59027960Y5271593D01*
X-59018199Y5269661D01*
X-59010345Y5267598D01*
X-59005400Y5266025D01*
X-58874743Y5209863D01*
X-58761805Y5136167D01*
X-58667425Y5045828D01*
X-58592438Y4939740D01*
X-58537681Y4818794D01*
X-58515843Y4743550D01*
X-58505188Y4677209D01*
X-58499482Y4595059D01*
X-58498700Y4506203D01*
X-58502819Y4419742D01*
X-58511817Y4344776D01*
X-58516926Y4319410D01*
X-58558260Y4197880D01*
X-58621209Y4086583D01*
X-58703061Y3988442D01*
X-58801107Y3906378D01*
X-58912635Y3843313D01*
X-58983831Y3816145D01*
X-59082912Y3784700D01*
X-67654100Y3784700D01*
X-67654100Y5296329D01*
X-63364675Y5292990D01*
G36*
X-63364675Y5292990D02*
G01*
X-62972609Y5292681D01*
X-62605133Y5292382D01*
X-62261436Y5292088D01*
X-61940709Y5291794D01*
X-61642142Y5291494D01*
X-61364925Y5291184D01*
X-61108246Y5290858D01*
X-60871298Y5290512D01*
X-60653268Y5290141D01*
X-60453348Y5289739D01*
X-60270727Y5289302D01*
X-60104595Y5288824D01*
X-59954142Y5288301D01*
X-59818557Y5287727D01*
X-59697032Y5287098D01*
X-59588755Y5286409D01*
X-59492917Y5285654D01*
X-59408707Y5284828D01*
X-59335316Y5283927D01*
X-59271933Y5282945D01*
X-59217749Y5281878D01*
X-59171952Y5280721D01*
X-59133734Y5279467D01*
X-59102284Y5278114D01*
X-59076791Y5276654D01*
X-59056447Y5275084D01*
X-59040440Y5273399D01*
X-59027960Y5271593D01*
X-59018199Y5269661D01*
X-59010345Y5267598D01*
X-59005400Y5266025D01*
X-58874743Y5209863D01*
X-58761805Y5136167D01*
X-58667425Y5045828D01*
X-58592438Y4939740D01*
X-58537681Y4818794D01*
X-58515843Y4743550D01*
X-58505188Y4677209D01*
X-58499482Y4595059D01*
X-58498700Y4506203D01*
X-58502819Y4419742D01*
X-58511817Y4344776D01*
X-58516926Y4319410D01*
X-58558260Y4197880D01*
X-58621209Y4086583D01*
X-58703061Y3988442D01*
X-58801107Y3906378D01*
X-58912635Y3843313D01*
X-58983831Y3816145D01*
X-59082912Y3784700D01*
X-67654100Y3784700D01*
X-67654100Y5296329D01*
X-63364675Y5292990D01*
G37*
X12381300Y7023200D02*
X12320053Y7023200D01*
X12292907Y7023784D01*
X12271972Y7027763D01*
X12252465Y7038480D01*
X12229604Y7059278D01*
X12198604Y7093500D01*
X12166947Y7130207D01*
X12098315Y7207100D01*
X12029582Y7278523D01*
X11964103Y7341353D01*
X11905232Y7392468D01*
X11856325Y7428742D01*
X11830716Y7443229D01*
X11762004Y7464879D01*
X11703538Y7464109D01*
X11657190Y7442063D01*
X11624835Y7399886D01*
X11608346Y7338723D01*
X11606600Y7306322D01*
X11613952Y7225912D01*
X11637668Y7159076D01*
X11669901Y7110448D01*
X11692302Y7081223D01*
X11706092Y7060633D01*
X11708200Y7055695D01*
X11696541Y7052287D01*
X11665728Y7049774D01*
X11622001Y7048626D01*
X11613985Y7048600D01*
X11565481Y7049092D01*
X11535507Y7052149D01*
X11517192Y7060146D01*
X11503668Y7075457D01*
X11494546Y7089875D01*
X11457098Y7169297D01*
X11435576Y7255236D01*
X11429742Y7342513D01*
X11439357Y7425950D01*
X11464182Y7500367D01*
X11503976Y7560586D01*
X11516873Y7573393D01*
X11586405Y7620877D01*
X11662494Y7644388D01*
X11744178Y7644217D01*
X11830492Y7620653D01*
X11920474Y7573985D01*
X12013162Y7504503D01*
X12107590Y7412496D01*
X12128037Y7389789D01*
X12216200Y7289739D01*
X12216200Y7670900D01*
X12381300Y7670900D01*
X12381300Y7023200D01*
G36*
X12381300Y7023200D02*
G01*
X12320053Y7023200D01*
X12292907Y7023784D01*
X12271972Y7027763D01*
X12252465Y7038480D01*
X12229604Y7059278D01*
X12198604Y7093500D01*
X12166947Y7130207D01*
X12098315Y7207100D01*
X12029582Y7278523D01*
X11964103Y7341353D01*
X11905232Y7392468D01*
X11856325Y7428742D01*
X11830716Y7443229D01*
X11762004Y7464879D01*
X11703538Y7464109D01*
X11657190Y7442063D01*
X11624835Y7399886D01*
X11608346Y7338723D01*
X11606600Y7306322D01*
X11613952Y7225912D01*
X11637668Y7159076D01*
X11669901Y7110448D01*
X11692302Y7081223D01*
X11706092Y7060633D01*
X11708200Y7055695D01*
X11696541Y7052287D01*
X11665728Y7049774D01*
X11622001Y7048626D01*
X11613985Y7048600D01*
X11565481Y7049092D01*
X11535507Y7052149D01*
X11517192Y7060146D01*
X11503668Y7075457D01*
X11494546Y7089875D01*
X11457098Y7169297D01*
X11435576Y7255236D01*
X11429742Y7342513D01*
X11439357Y7425950D01*
X11464182Y7500367D01*
X11503976Y7560586D01*
X11516873Y7573393D01*
X11586405Y7620877D01*
X11662494Y7644388D01*
X11744178Y7644217D01*
X11830492Y7620653D01*
X11920474Y7573985D01*
X12013162Y7504503D01*
X12107590Y7412496D01*
X12128037Y7389789D01*
X12216200Y7289739D01*
X12216200Y7670900D01*
X12381300Y7670900D01*
X12381300Y7023200D01*
G37*
X67270700Y3784700D02*
X63216225Y3785383D01*
X62835019Y3785452D01*
X62478382Y3785530D01*
X62145480Y3785620D01*
X61835481Y3785728D01*
X61547552Y3785858D01*
X61280862Y3786015D01*
X61034577Y3786204D01*
X60807866Y3786430D01*
X60599896Y3786697D01*
X60409835Y3787009D01*
X60236850Y3787373D01*
X60080110Y3787791D01*
X59938781Y3788270D01*
X59812032Y3788813D01*
X59699030Y3789426D01*
X59598942Y3790113D01*
X59510937Y3790878D01*
X59434181Y3791727D01*
X59367844Y3792665D01*
X59311091Y3793695D01*
X59263092Y3794822D01*
X59223013Y3796052D01*
X59190022Y3797390D01*
X59163287Y3798838D01*
X59141975Y3800403D01*
X59125255Y3802090D01*
X59112294Y3803902D01*
X59102259Y3805844D01*
X59094318Y3807922D01*
X59091900Y3808675D01*
X58984592Y3851310D01*
X58891892Y3906798D01*
X58804640Y3980773D01*
X58792397Y3992867D01*
X58710362Y4089354D01*
X58649739Y4193830D01*
X58609421Y4309173D01*
X58588301Y4438260D01*
X58584341Y4534000D01*
X58594153Y4677548D01*
X58624006Y4806433D01*
X58674523Y4922372D01*
X58746329Y5027077D01*
X58776141Y5060891D01*
X58857233Y5138126D01*
X58941095Y5196930D01*
X59036956Y5243440D01*
X59069500Y5255937D01*
X59161750Y5289650D01*
X63216225Y5292999D01*
X67270700Y5296347D01*
X67270700Y3784700D01*
G36*
X67270700Y3784700D02*
G01*
X63216225Y3785383D01*
X62835019Y3785452D01*
X62478382Y3785530D01*
X62145480Y3785620D01*
X61835481Y3785728D01*
X61547552Y3785858D01*
X61280862Y3786015D01*
X61034577Y3786204D01*
X60807866Y3786430D01*
X60599896Y3786697D01*
X60409835Y3787009D01*
X60236850Y3787373D01*
X60080110Y3787791D01*
X59938781Y3788270D01*
X59812032Y3788813D01*
X59699030Y3789426D01*
X59598942Y3790113D01*
X59510937Y3790878D01*
X59434181Y3791727D01*
X59367844Y3792665D01*
X59311091Y3793695D01*
X59263092Y3794822D01*
X59223013Y3796052D01*
X59190022Y3797390D01*
X59163287Y3798838D01*
X59141975Y3800403D01*
X59125255Y3802090D01*
X59112294Y3803902D01*
X59102259Y3805844D01*
X59094318Y3807922D01*
X59091900Y3808675D01*
X58984592Y3851310D01*
X58891892Y3906798D01*
X58804640Y3980773D01*
X58792397Y3992867D01*
X58710362Y4089354D01*
X58649739Y4193830D01*
X58609421Y4309173D01*
X58588301Y4438260D01*
X58584341Y4534000D01*
X58594153Y4677548D01*
X58624006Y4806433D01*
X58674523Y4922372D01*
X58746329Y5027077D01*
X58776141Y5060891D01*
X58857233Y5138126D01*
X58941095Y5196930D01*
X59036956Y5243440D01*
X59069500Y5255937D01*
X59161750Y5289650D01*
X63216225Y5292999D01*
X67270700Y5296347D01*
X67270700Y3784700D01*
G37*
X12373461Y-961557D02*
X12378408Y-978542D01*
X12380820Y-1014969D01*
X12381300Y-1057145D01*
X12381300Y-1163389D01*
X12089200Y-1362069D01*
X12089200Y-1562000D01*
X12381300Y-1562000D01*
X12381300Y-1739800D01*
X11438761Y-1739800D01*
X11443056Y-1562000D01*
X11606600Y-1562000D01*
X11924100Y-1562000D01*
X11924100Y-1447292D01*
X11919857Y-1359596D01*
X11906117Y-1293780D01*
X11881358Y-1247611D01*
X11844062Y-1218854D01*
X11792707Y-1205276D01*
X11758196Y-1203469D01*
X11704350Y-1209892D01*
X11663718Y-1230620D01*
X11634994Y-1267838D01*
X11616871Y-1323732D01*
X11608046Y-1400488D01*
X11606670Y-1457225D01*
X11606600Y-1562000D01*
X11443056Y-1562000D01*
X11444514Y-1501675D01*
X11447607Y-1403250D01*
X11452082Y-1326054D01*
X11458744Y-1265923D01*
X11468393Y-1218692D01*
X11481832Y-1180197D01*
X11499864Y-1146273D01*
X11518097Y-1119678D01*
X11567946Y-1072462D01*
X11634699Y-1038934D01*
X11713018Y-1020515D01*
X11797566Y-1018622D01*
X11860562Y-1028590D01*
X11919755Y-1050429D01*
X11972146Y-1088563D01*
X11980972Y-1096893D01*
X12011195Y-1128329D01*
X12033230Y-1155145D01*
X12040782Y-1167977D01*
X12049413Y-1171363D01*
X12070945Y-1162752D01*
X12107317Y-1141043D01*
X12160466Y-1105135D01*
X12198100Y-1078542D01*
X12252988Y-1039447D01*
X12301263Y-1005258D01*
X12338797Y-978885D01*
X12361460Y-963238D01*
X12365425Y-960640D01*
X12373461Y-961557D01*
G36*
X12373461Y-961557D02*
G01*
X12378408Y-978542D01*
X12380820Y-1014969D01*
X12381300Y-1057145D01*
X12381300Y-1163389D01*
X12089200Y-1362069D01*
X12089200Y-1562000D01*
X12381300Y-1562000D01*
X12381300Y-1739800D01*
X11438761Y-1739800D01*
X11443056Y-1562000D01*
X11606600Y-1562000D01*
X11924100Y-1562000D01*
X11924100Y-1447292D01*
X11919857Y-1359596D01*
X11906117Y-1293780D01*
X11881358Y-1247611D01*
X11844062Y-1218854D01*
X11792707Y-1205276D01*
X11758196Y-1203469D01*
X11704350Y-1209892D01*
X11663718Y-1230620D01*
X11634994Y-1267838D01*
X11616871Y-1323732D01*
X11608046Y-1400488D01*
X11606670Y-1457225D01*
X11606600Y-1562000D01*
X11443056Y-1562000D01*
X11444514Y-1501675D01*
X11447607Y-1403250D01*
X11452082Y-1326054D01*
X11458744Y-1265923D01*
X11468393Y-1218692D01*
X11481832Y-1180197D01*
X11499864Y-1146273D01*
X11518097Y-1119678D01*
X11567946Y-1072462D01*
X11634699Y-1038934D01*
X11713018Y-1020515D01*
X11797566Y-1018622D01*
X11860562Y-1028590D01*
X11919755Y-1050429D01*
X11972146Y-1088563D01*
X11980972Y-1096893D01*
X12011195Y-1128329D01*
X12033230Y-1155145D01*
X12040782Y-1167977D01*
X12049413Y-1171363D01*
X12070945Y-1162752D01*
X12107317Y-1141043D01*
X12160466Y-1105135D01*
X12198100Y-1078542D01*
X12252988Y-1039447D01*
X12301263Y-1005258D01*
X12338797Y-978885D01*
X12361460Y-963238D01*
X12365425Y-960640D01*
X12373461Y-961557D01*
G37*
X41698579Y-3455200D02*
X41781664Y-3456888D01*
X41851835Y-3459555D01*
X41905171Y-3463045D01*
X41937751Y-3467201D01*
X41941161Y-3468022D01*
X41990265Y-3491777D01*
X42039630Y-3532212D01*
X42081799Y-3581805D01*
X42109318Y-3633036D01*
X42111581Y-3639923D01*
X42117347Y-3672681D01*
X42121862Y-3725053D01*
X42125138Y-3792394D01*
X42127184Y-3870056D01*
X42128010Y-3953394D01*
X42127629Y-4037759D01*
X42126049Y-4118507D01*
X42123281Y-4190991D01*
X42119337Y-4250563D01*
X42114225Y-4292578D01*
X42110074Y-4308782D01*
X42067828Y-4378426D01*
X42006759Y-4435936D01*
X41956268Y-4465640D01*
X41934661Y-4475190D01*
X41913714Y-4482452D01*
X41889671Y-4487741D01*
X41858773Y-4491369D01*
X41817262Y-4493653D01*
X41761382Y-4494906D01*
X41687374Y-4495443D01*
X41598425Y-4495575D01*
X41304600Y-4495700D01*
X41236671Y-4460213D01*
X41180245Y-4422977D01*
X41138256Y-4374882D01*
X41130446Y-4362784D01*
X41092150Y-4300841D01*
X41092150Y-3982345D01*
X41092287Y-3878104D01*
X41093146Y-3795811D01*
X41095393Y-3732016D01*
X41099697Y-3683267D01*
X41106724Y-3646113D01*
X41117144Y-3617103D01*
X41131622Y-3592786D01*
X41150828Y-3569710D01*
X41175429Y-3544425D01*
X41177222Y-3542631D01*
X41205229Y-3516147D01*
X41232293Y-3495579D01*
X41262047Y-3480180D01*
X41298122Y-3469208D01*
X41344151Y-3461917D01*
X41403767Y-3457563D01*
X41480602Y-3455402D01*
X41578287Y-3454689D01*
X41606500Y-3454649D01*
X41698579Y-3455200D01*
G36*
X41698579Y-3455200D02*
G01*
X41781664Y-3456888D01*
X41851835Y-3459555D01*
X41905171Y-3463045D01*
X41937751Y-3467201D01*
X41941161Y-3468022D01*
X41990265Y-3491777D01*
X42039630Y-3532212D01*
X42081799Y-3581805D01*
X42109318Y-3633036D01*
X42111581Y-3639923D01*
X42117347Y-3672681D01*
X42121862Y-3725053D01*
X42125138Y-3792394D01*
X42127184Y-3870056D01*
X42128010Y-3953394D01*
X42127629Y-4037759D01*
X42126049Y-4118507D01*
X42123281Y-4190991D01*
X42119337Y-4250563D01*
X42114225Y-4292578D01*
X42110074Y-4308782D01*
X42067828Y-4378426D01*
X42006759Y-4435936D01*
X41956268Y-4465640D01*
X41934661Y-4475190D01*
X41913714Y-4482452D01*
X41889671Y-4487741D01*
X41858773Y-4491369D01*
X41817262Y-4493653D01*
X41761382Y-4494906D01*
X41687374Y-4495443D01*
X41598425Y-4495575D01*
X41304600Y-4495700D01*
X41236671Y-4460213D01*
X41180245Y-4422977D01*
X41138256Y-4374882D01*
X41130446Y-4362784D01*
X41092150Y-4300841D01*
X41092150Y-3982345D01*
X41092287Y-3878104D01*
X41093146Y-3795811D01*
X41095393Y-3732016D01*
X41099697Y-3683267D01*
X41106724Y-3646113D01*
X41117144Y-3617103D01*
X41131622Y-3592786D01*
X41150828Y-3569710D01*
X41175429Y-3544425D01*
X41177222Y-3542631D01*
X41205229Y-3516147D01*
X41232293Y-3495579D01*
X41262047Y-3480180D01*
X41298122Y-3469208D01*
X41344151Y-3461917D01*
X41403767Y-3457563D01*
X41480602Y-3455402D01*
X41578287Y-3454689D01*
X41606500Y-3454649D01*
X41698579Y-3455200D01*
G37*
X12129955Y6909339D02*
X12208751Y6892802D01*
X12271462Y6863762D01*
X12321679Y6821062D01*
X12321823Y6820904D01*
X12361964Y6765974D01*
X12384937Y6705980D01*
X12392858Y6633971D01*
X12391825Y6591090D01*
X12387338Y6540435D01*
X12378583Y6505031D01*
X12362164Y6474745D01*
X12345409Y6452550D01*
X12303903Y6400900D01*
X12381300Y6400900D01*
X12381300Y6235800D01*
X11378000Y6235800D01*
X11378000Y6400900D01*
X11802082Y6400900D01*
X11763194Y6442175D01*
X11721425Y6501695D01*
X11699682Y6572197D01*
X11699318Y6577188D01*
X11847900Y6577188D01*
X11849863Y6530901D01*
X11857880Y6499529D01*
X11875142Y6472747D01*
X11883007Y6463609D01*
X11917276Y6434887D01*
X11956170Y6415049D01*
X11962382Y6413221D01*
X12009516Y6407084D01*
X12065061Y6407940D01*
X12119213Y6414861D01*
X12162168Y6426920D01*
X12174495Y6433282D01*
X12218317Y6476488D01*
X12242503Y6534004D01*
X12246635Y6569962D01*
X12239831Y6637453D01*
X12215599Y6687772D01*
X12172879Y6721854D01*
X12110612Y6740635D01*
X12048192Y6745262D01*
X11970376Y6739929D01*
X11913376Y6721678D01*
X11875256Y6688884D01*
X11854082Y6639925D01*
X11847900Y6577188D01*
X11699318Y6577188D01*
X11695500Y6629500D01*
X11704572Y6714692D01*
X11732626Y6783792D01*
X11780913Y6838899D01*
X11844464Y6879133D01*
X11884147Y6896845D01*
X11920063Y6907498D01*
X11961271Y6912804D01*
X12016829Y6914480D01*
X12031483Y6914532D01*
X12129955Y6909339D01*
G36*
X12129955Y6909339D02*
G01*
X12208751Y6892802D01*
X12271462Y6863762D01*
X12321679Y6821062D01*
X12321823Y6820904D01*
X12361964Y6765974D01*
X12384937Y6705980D01*
X12392858Y6633971D01*
X12391825Y6591090D01*
X12387338Y6540435D01*
X12378583Y6505031D01*
X12362164Y6474745D01*
X12345409Y6452550D01*
X12303903Y6400900D01*
X12381300Y6400900D01*
X12381300Y6235800D01*
X11378000Y6235800D01*
X11378000Y6400900D01*
X11802082Y6400900D01*
X11763194Y6442175D01*
X11721425Y6501695D01*
X11699682Y6572197D01*
X11699318Y6577188D01*
X11847900Y6577188D01*
X11849863Y6530901D01*
X11857880Y6499529D01*
X11875142Y6472747D01*
X11883007Y6463609D01*
X11917276Y6434887D01*
X11956170Y6415049D01*
X11962382Y6413221D01*
X12009516Y6407084D01*
X12065061Y6407940D01*
X12119213Y6414861D01*
X12162168Y6426920D01*
X12174495Y6433282D01*
X12218317Y6476488D01*
X12242503Y6534004D01*
X12246635Y6569962D01*
X12239831Y6637453D01*
X12215599Y6687772D01*
X12172879Y6721854D01*
X12110612Y6740635D01*
X12048192Y6745262D01*
X11970376Y6739929D01*
X11913376Y6721678D01*
X11875256Y6688884D01*
X11854082Y6639925D01*
X11847900Y6577188D01*
X11699318Y6577188D01*
X11695500Y6629500D01*
X11704572Y6714692D01*
X11732626Y6783792D01*
X11780913Y6838899D01*
X11844464Y6879133D01*
X11884147Y6896845D01*
X11920063Y6907498D01*
X11961271Y6912804D01*
X12016829Y6914480D01*
X12031483Y6914532D01*
X12129955Y6909339D01*
G37*
X11726220Y1545226D02*
X11761174Y1533244D01*
X11813083Y1514813D01*
X11878542Y1491192D01*
X11954147Y1463641D01*
X12036492Y1433420D01*
X12122174Y1401789D01*
X12207786Y1370006D01*
X12289926Y1339331D01*
X12365187Y1311024D01*
X12430166Y1286344D01*
X12481457Y1266551D01*
X12515657Y1252904D01*
X12527928Y1247519D01*
X12585397Y1211452D01*
X12621618Y1170696D01*
X12640722Y1119574D01*
X12645332Y1086200D01*
X12645803Y1026055D01*
X12633669Y986016D01*
X12606341Y962850D01*
X12561229Y953320D01*
X12538398Y952600D01*
X12498361Y953493D01*
X12478653Y957388D01*
X12474230Y966110D01*
X12476987Y974825D01*
X12492650Y1029716D01*
X12486983Y1073324D01*
X12470150Y1098703D01*
X12452525Y1115909D01*
X12434667Y1127773D01*
X12413653Y1133686D01*
X12386565Y1133040D01*
X12350479Y1125223D01*
X12302476Y1109628D01*
X12239635Y1085644D01*
X12159033Y1052663D01*
X12069879Y1015199D01*
X11986340Y979945D01*
X11909333Y947516D01*
X11842322Y919365D01*
X11788772Y896945D01*
X11752147Y881710D01*
X11736775Y875442D01*
X11722163Y870895D01*
X11713639Y874569D01*
X11709563Y891205D01*
X11708294Y925542D01*
X11708200Y958059D01*
X11708200Y1051788D01*
X11923957Y1137804D01*
X11991982Y1165324D01*
X12050594Y1189804D01*
X12096209Y1209684D01*
X12125246Y1223403D01*
X12134172Y1229361D01*
X12120871Y1234948D01*
X12087428Y1246997D01*
X12037855Y1264119D01*
X11976167Y1284925D01*
X11918415Y1304070D01*
X11708200Y1373236D01*
X11708200Y1461368D01*
X11708651Y1504980D01*
X11709840Y1536493D01*
X11711513Y1549454D01*
X11711625Y1549500D01*
X11726220Y1545226D01*
G36*
X11726220Y1545226D02*
G01*
X11761174Y1533244D01*
X11813083Y1514813D01*
X11878542Y1491192D01*
X11954147Y1463641D01*
X12036492Y1433420D01*
X12122174Y1401789D01*
X12207786Y1370006D01*
X12289926Y1339331D01*
X12365187Y1311024D01*
X12430166Y1286344D01*
X12481457Y1266551D01*
X12515657Y1252904D01*
X12527928Y1247519D01*
X12585397Y1211452D01*
X12621618Y1170696D01*
X12640722Y1119574D01*
X12645332Y1086200D01*
X12645803Y1026055D01*
X12633669Y986016D01*
X12606341Y962850D01*
X12561229Y953320D01*
X12538398Y952600D01*
X12498361Y953493D01*
X12478653Y957388D01*
X12474230Y966110D01*
X12476987Y974825D01*
X12492650Y1029716D01*
X12486983Y1073324D01*
X12470150Y1098703D01*
X12452525Y1115909D01*
X12434667Y1127773D01*
X12413653Y1133686D01*
X12386565Y1133040D01*
X12350479Y1125223D01*
X12302476Y1109628D01*
X12239635Y1085644D01*
X12159033Y1052663D01*
X12069879Y1015199D01*
X11986340Y979945D01*
X11909333Y947516D01*
X11842322Y919365D01*
X11788772Y896945D01*
X11752147Y881710D01*
X11736775Y875442D01*
X11722163Y870895D01*
X11713639Y874569D01*
X11709563Y891205D01*
X11708294Y925542D01*
X11708200Y958059D01*
X11708200Y1051788D01*
X11923957Y1137804D01*
X11991982Y1165324D01*
X12050594Y1189804D01*
X12096209Y1209684D01*
X12125246Y1223403D01*
X12134172Y1229361D01*
X12120871Y1234948D01*
X12087428Y1246997D01*
X12037855Y1264119D01*
X11976167Y1284925D01*
X11918415Y1304070D01*
X11708200Y1373236D01*
X11708200Y1461368D01*
X11708651Y1504980D01*
X11709840Y1536493D01*
X11711513Y1549454D01*
X11711625Y1549500D01*
X11726220Y1545226D01*
G37*
X41716867Y-11036358D02*
X41792263Y-11036996D01*
X41849249Y-11038357D01*
X41891320Y-11040684D01*
X41921969Y-11044221D01*
X41944693Y-11049211D01*
X41962984Y-11055899D01*
X41973333Y-11060851D01*
X42029485Y-11099765D01*
X42077056Y-11151753D01*
X42108891Y-11208542D01*
X42113736Y-11223177D01*
X42117746Y-11250340D01*
X42121248Y-11298738D01*
X42124077Y-11364207D01*
X42126066Y-11442584D01*
X42127052Y-11529707D01*
X42127129Y-11560482D01*
X42126880Y-11662870D01*
X42125594Y-11743468D01*
X42122539Y-11805884D01*
X42116989Y-11853727D01*
X42108214Y-11890605D01*
X42095485Y-11920125D01*
X42078073Y-11945897D01*
X42055249Y-11971528D01*
X42041223Y-11985776D01*
X42010878Y-12013740D01*
X41980099Y-12035444D01*
X41945243Y-12051638D01*
X41902664Y-12063071D01*
X41848719Y-12070492D01*
X41779761Y-12074652D01*
X41692148Y-12076299D01*
X41601062Y-12076287D01*
X41517984Y-12075302D01*
X41440749Y-12073311D01*
X41373983Y-12070518D01*
X41322310Y-12067126D01*
X41290356Y-12063339D01*
X41286310Y-12062440D01*
X41249949Y-12046724D01*
X41207600Y-12019952D01*
X41182715Y-12000212D01*
X41154110Y-11973162D01*
X41131717Y-11945967D01*
X41114790Y-11915169D01*
X41102585Y-11877308D01*
X41094356Y-11828926D01*
X41089359Y-11766564D01*
X41086849Y-11686764D01*
X41086081Y-11586066D01*
X41086078Y-11551462D01*
X41086405Y-11457322D01*
X41087350Y-11384871D01*
X41089175Y-11330401D01*
X41092142Y-11290203D01*
X41096514Y-11260571D01*
X41102553Y-11237795D01*
X41109515Y-11220350D01*
X41157063Y-11142078D01*
X41218843Y-11084781D01*
X41257032Y-11063035D01*
X41276622Y-11054548D01*
X41297049Y-11048060D01*
X41321909Y-11043305D01*
X41354800Y-11040016D01*
X41399318Y-11037928D01*
X41459061Y-11036773D01*
X41537625Y-11036287D01*
X41619567Y-11036200D01*
X41716867Y-11036358D01*
G36*
X41716867Y-11036358D02*
G01*
X41792263Y-11036996D01*
X41849249Y-11038357D01*
X41891320Y-11040684D01*
X41921969Y-11044221D01*
X41944693Y-11049211D01*
X41962984Y-11055899D01*
X41973333Y-11060851D01*
X42029485Y-11099765D01*
X42077056Y-11151753D01*
X42108891Y-11208542D01*
X42113736Y-11223177D01*
X42117746Y-11250340D01*
X42121248Y-11298738D01*
X42124077Y-11364207D01*
X42126066Y-11442584D01*
X42127052Y-11529707D01*
X42127129Y-11560482D01*
X42126880Y-11662870D01*
X42125594Y-11743468D01*
X42122539Y-11805884D01*
X42116989Y-11853727D01*
X42108214Y-11890605D01*
X42095485Y-11920125D01*
X42078073Y-11945897D01*
X42055249Y-11971528D01*
X42041223Y-11985776D01*
X42010878Y-12013740D01*
X41980099Y-12035444D01*
X41945243Y-12051638D01*
X41902664Y-12063071D01*
X41848719Y-12070492D01*
X41779761Y-12074652D01*
X41692148Y-12076299D01*
X41601062Y-12076287D01*
X41517984Y-12075302D01*
X41440749Y-12073311D01*
X41373983Y-12070518D01*
X41322310Y-12067126D01*
X41290356Y-12063339D01*
X41286310Y-12062440D01*
X41249949Y-12046724D01*
X41207600Y-12019952D01*
X41182715Y-12000212D01*
X41154110Y-11973162D01*
X41131717Y-11945967D01*
X41114790Y-11915169D01*
X41102585Y-11877308D01*
X41094356Y-11828926D01*
X41089359Y-11766564D01*
X41086849Y-11686764D01*
X41086081Y-11586066D01*
X41086078Y-11551462D01*
X41086405Y-11457322D01*
X41087350Y-11384871D01*
X41089175Y-11330401D01*
X41092142Y-11290203D01*
X41096514Y-11260571D01*
X41102553Y-11237795D01*
X41109515Y-11220350D01*
X41157063Y-11142078D01*
X41218843Y-11084781D01*
X41257032Y-11063035D01*
X41276622Y-11054548D01*
X41297049Y-11048060D01*
X41321909Y-11043305D01*
X41354800Y-11040016D01*
X41399318Y-11037928D01*
X41459061Y-11036773D01*
X41537625Y-11036287D01*
X41619567Y-11036200D01*
X41716867Y-11036358D01*
G37*
X12381300Y5918300D02*
X12289768Y5918300D01*
X12327839Y5874940D01*
X12370409Y5809931D01*
X12390534Y5736010D01*
X12391191Y5668701D01*
X12376141Y5598725D01*
X12343119Y5545534D01*
X12297422Y5510256D01*
X12248315Y5491141D01*
X12192142Y5481394D01*
X12146350Y5483016D01*
X12084122Y5503292D01*
X12039376Y5538215D01*
X12022649Y5561020D01*
X12009838Y5584891D01*
X12001072Y5611602D01*
X11995360Y5646988D01*
X11991710Y5696882D01*
X11989449Y5756375D01*
X11984924Y5905600D01*
X12085435Y5905600D01*
X12093278Y5803893D01*
X12098653Y5752420D01*
X12105768Y5708392D01*
X12113251Y5679963D01*
X12114657Y5676893D01*
X12138367Y5655558D01*
X12171282Y5651398D01*
X12204415Y5663860D01*
X12223880Y5683599D01*
X12240142Y5729550D01*
X12238386Y5782673D01*
X12220159Y5833947D01*
X12191848Y5870264D01*
X12157951Y5893374D01*
X12124702Y5905162D01*
X12118867Y5905600D01*
X12085435Y5905600D01*
X11984924Y5905600D01*
X11948870Y5905600D01*
X11914252Y5897318D01*
X11879906Y5877268D01*
X11878527Y5876107D01*
X11858956Y5856224D01*
X11848822Y5834087D01*
X11845345Y5800894D01*
X11845312Y5770977D01*
X11849518Y5706599D01*
X11862283Y5657448D01*
X11887025Y5613877D01*
X11911864Y5583161D01*
X11952131Y5537300D01*
X11745003Y5537300D01*
X11723538Y5584925D01*
X11712625Y5617985D01*
X11705826Y5662264D01*
X11702523Y5723111D01*
X11701962Y5772250D01*
X11702570Y5837037D01*
X11705176Y5883004D01*
X11710763Y5916715D01*
X11720316Y5944732D01*
X11731170Y5966880D01*
X11750001Y5998274D01*
X11771137Y6022639D01*
X11797913Y6040855D01*
X11833662Y6053800D01*
X11881715Y6062351D01*
X11945407Y6067387D01*
X12028071Y6069787D01*
X12124125Y6070422D01*
X12381300Y6070700D01*
X12381300Y5918300D01*
G36*
X12381300Y5918300D02*
G01*
X12289768Y5918300D01*
X12327839Y5874940D01*
X12370409Y5809931D01*
X12390534Y5736010D01*
X12391191Y5668701D01*
X12376141Y5598725D01*
X12343119Y5545534D01*
X12297422Y5510256D01*
X12248315Y5491141D01*
X12192142Y5481394D01*
X12146350Y5483016D01*
X12084122Y5503292D01*
X12039376Y5538215D01*
X12022649Y5561020D01*
X12009838Y5584891D01*
X12001072Y5611602D01*
X11995360Y5646988D01*
X11991710Y5696882D01*
X11989449Y5756375D01*
X11984924Y5905600D01*
X12085435Y5905600D01*
X12093278Y5803893D01*
X12098653Y5752420D01*
X12105768Y5708392D01*
X12113251Y5679963D01*
X12114657Y5676893D01*
X12138367Y5655558D01*
X12171282Y5651398D01*
X12204415Y5663860D01*
X12223880Y5683599D01*
X12240142Y5729550D01*
X12238386Y5782673D01*
X12220159Y5833947D01*
X12191848Y5870264D01*
X12157951Y5893374D01*
X12124702Y5905162D01*
X12118867Y5905600D01*
X12085435Y5905600D01*
X11984924Y5905600D01*
X11948870Y5905600D01*
X11914252Y5897318D01*
X11879906Y5877268D01*
X11878527Y5876107D01*
X11858956Y5856224D01*
X11848822Y5834087D01*
X11845345Y5800894D01*
X11845312Y5770977D01*
X11849518Y5706599D01*
X11862283Y5657448D01*
X11887025Y5613877D01*
X11911864Y5583161D01*
X11952131Y5537300D01*
X11745003Y5537300D01*
X11723538Y5584925D01*
X11712625Y5617985D01*
X11705826Y5662264D01*
X11702523Y5723111D01*
X11701962Y5772250D01*
X11702570Y5837037D01*
X11705176Y5883004D01*
X11710763Y5916715D01*
X11720316Y5944732D01*
X11731170Y5966880D01*
X11750001Y5998274D01*
X11771137Y6022639D01*
X11797913Y6040855D01*
X11833662Y6053800D01*
X11881715Y6062351D01*
X11945407Y6067387D01*
X12028071Y6069787D01*
X12124125Y6070422D01*
X12381300Y6070700D01*
X12381300Y5918300D01*
G37*
X-25261500Y3784700D02*
X-29487425Y3785836D01*
X-29892254Y3785963D01*
X-30272369Y3786120D01*
X-30628456Y3786311D01*
X-30961200Y3786538D01*
X-31271289Y3786804D01*
X-31559408Y3787112D01*
X-31826242Y3787463D01*
X-32072478Y3787862D01*
X-32298802Y3788311D01*
X-32505900Y3788813D01*
X-32694458Y3789369D01*
X-32865161Y3789983D01*
X-33018696Y3790659D01*
X-33155749Y3791397D01*
X-33277006Y3792202D01*
X-33383152Y3793075D01*
X-33474874Y3794020D01*
X-33552857Y3795040D01*
X-33617788Y3796136D01*
X-33670353Y3797312D01*
X-33711237Y3798570D01*
X-33741126Y3799914D01*
X-33760708Y3801345D01*
X-33770500Y3802820D01*
X-33894245Y3849880D01*
X-34005361Y3917781D01*
X-34101607Y4004187D01*
X-34180744Y4106760D01*
X-34240530Y4223164D01*
X-34273621Y4327625D01*
X-34286079Y4406435D01*
X-34291041Y4498596D01*
X-34288905Y4596174D01*
X-34280067Y4691230D01*
X-34264925Y4775829D01*
X-34248443Y4830894D01*
X-34188653Y4953081D01*
X-34109593Y5058859D01*
X-34011773Y5147747D01*
X-33895708Y5219268D01*
X-33783200Y5266009D01*
X-33776175Y5268186D01*
X-33767829Y5270227D01*
X-33757348Y5272136D01*
X-33743915Y5273920D01*
X-33726713Y5275582D01*
X-33704927Y5277129D01*
X-33677739Y5278565D01*
X-33644334Y5279895D01*
X-33603895Y5281125D01*
X-33555606Y5282260D01*
X-33498650Y5283304D01*
X-33432211Y5284263D01*
X-33355472Y5285143D01*
X-33267618Y5285948D01*
X-33167832Y5286683D01*
X-33055297Y5287353D01*
X-32929197Y5287964D01*
X-32788717Y5288521D01*
X-32633038Y5289029D01*
X-32461346Y5289492D01*
X-32272823Y5289917D01*
X-32066654Y5290308D01*
X-31842022Y5290671D01*
X-31598110Y5291009D01*
X-31334102Y5291330D01*
X-31049183Y5291637D01*
X-30742535Y5291936D01*
X-30413342Y5292232D01*
X-30060787Y5292530D01*
X-29684056Y5292836D01*
X-29487425Y5292992D01*
X-25261500Y5296334D01*
X-25261500Y3784700D01*
G36*
X-25261500Y3784700D02*
G01*
X-29487425Y3785836D01*
X-29892254Y3785963D01*
X-30272369Y3786120D01*
X-30628456Y3786311D01*
X-30961200Y3786538D01*
X-31271289Y3786804D01*
X-31559408Y3787112D01*
X-31826242Y3787463D01*
X-32072478Y3787862D01*
X-32298802Y3788311D01*
X-32505900Y3788813D01*
X-32694458Y3789369D01*
X-32865161Y3789983D01*
X-33018696Y3790659D01*
X-33155749Y3791397D01*
X-33277006Y3792202D01*
X-33383152Y3793075D01*
X-33474874Y3794020D01*
X-33552857Y3795040D01*
X-33617788Y3796136D01*
X-33670353Y3797312D01*
X-33711237Y3798570D01*
X-33741126Y3799914D01*
X-33760708Y3801345D01*
X-33770500Y3802820D01*
X-33894245Y3849880D01*
X-34005361Y3917781D01*
X-34101607Y4004187D01*
X-34180744Y4106760D01*
X-34240530Y4223164D01*
X-34273621Y4327625D01*
X-34286079Y4406435D01*
X-34291041Y4498596D01*
X-34288905Y4596174D01*
X-34280067Y4691230D01*
X-34264925Y4775829D01*
X-34248443Y4830894D01*
X-34188653Y4953081D01*
X-34109593Y5058859D01*
X-34011773Y5147747D01*
X-33895708Y5219268D01*
X-33783200Y5266009D01*
X-33776175Y5268186D01*
X-33767829Y5270227D01*
X-33757348Y5272136D01*
X-33743915Y5273920D01*
X-33726713Y5275582D01*
X-33704927Y5277129D01*
X-33677739Y5278565D01*
X-33644334Y5279895D01*
X-33603895Y5281125D01*
X-33555606Y5282260D01*
X-33498650Y5283304D01*
X-33432211Y5284263D01*
X-33355472Y5285143D01*
X-33267618Y5285948D01*
X-33167832Y5286683D01*
X-33055297Y5287353D01*
X-32929197Y5287964D01*
X-32788717Y5288521D01*
X-32633038Y5289029D01*
X-32461346Y5289492D01*
X-32272823Y5289917D01*
X-32066654Y5290308D01*
X-31842022Y5290671D01*
X-31598110Y5291009D01*
X-31334102Y5291330D01*
X-31049183Y5291637D01*
X-30742535Y5291936D01*
X-30413342Y5292232D01*
X-30060787Y5292530D01*
X-29684056Y5292836D01*
X-29487425Y5292992D01*
X-25261500Y5296334D01*
X-25261500Y3784700D01*
G37*
X29345325Y5292984D02*
X29745083Y5292682D01*
X30120236Y5292389D01*
X30471578Y5292101D01*
X30799903Y5291813D01*
X31106007Y5291520D01*
X31390682Y5291218D01*
X31654725Y5290901D01*
X31898929Y5290566D01*
X32124089Y5290207D01*
X32331000Y5289819D01*
X32520455Y5289399D01*
X32693250Y5288940D01*
X32850179Y5288439D01*
X32992036Y5287890D01*
X33119616Y5287289D01*
X33233713Y5286632D01*
X33335122Y5285913D01*
X33424638Y5285127D01*
X33503054Y5284270D01*
X33571166Y5283338D01*
X33629767Y5282325D01*
X33679653Y5281226D01*
X33721617Y5280038D01*
X33756455Y5278755D01*
X33784961Y5277372D01*
X33807928Y5275885D01*
X33826153Y5274289D01*
X33840429Y5272580D01*
X33851550Y5270752D01*
X33860312Y5268800D01*
X33867508Y5266721D01*
X33869700Y5265998D01*
X33998495Y5210550D01*
X34111505Y5137552D01*
X34207026Y5048739D01*
X34283353Y4945848D01*
X34338781Y4830613D01*
X34358253Y4768423D01*
X34368959Y4708106D01*
X34375491Y4630760D01*
X34377861Y4544408D01*
X34376081Y4457073D01*
X34370163Y4376777D01*
X34360117Y4311546D01*
X34357580Y4300884D01*
X34314620Y4183600D01*
X34250184Y4075593D01*
X34167454Y3980046D01*
X34069613Y3900139D01*
X33959841Y3839056D01*
X33861516Y3804820D01*
X33852809Y3803002D01*
X33840709Y3801295D01*
X33824434Y3799697D01*
X33803199Y3798203D01*
X33776220Y3796811D01*
X33742713Y3795516D01*
X33701895Y3794316D01*
X33652980Y3793207D01*
X33595187Y3792184D01*
X33527729Y3791246D01*
X33449824Y3790388D01*
X33360687Y3789606D01*
X33259535Y3788898D01*
X33145584Y3788260D01*
X33018049Y3787689D01*
X32876146Y3787180D01*
X32719093Y3786730D01*
X32546103Y3786337D01*
X32356395Y3785996D01*
X32149184Y3785703D01*
X31923685Y3785457D01*
X31679115Y3785252D01*
X31414690Y3785086D01*
X31129626Y3784954D01*
X30823138Y3784854D01*
X30494444Y3784783D01*
X30142759Y3784735D01*
X29767299Y3784709D01*
X29367280Y3784701D01*
X29337141Y3784700D01*
X24890800Y3784700D01*
X24890800Y5296317D01*
X29345325Y5292984D01*
G36*
X29345325Y5292984D02*
G01*
X29745083Y5292682D01*
X30120236Y5292389D01*
X30471578Y5292101D01*
X30799903Y5291813D01*
X31106007Y5291520D01*
X31390682Y5291218D01*
X31654725Y5290901D01*
X31898929Y5290566D01*
X32124089Y5290207D01*
X32331000Y5289819D01*
X32520455Y5289399D01*
X32693250Y5288940D01*
X32850179Y5288439D01*
X32992036Y5287890D01*
X33119616Y5287289D01*
X33233713Y5286632D01*
X33335122Y5285913D01*
X33424638Y5285127D01*
X33503054Y5284270D01*
X33571166Y5283338D01*
X33629767Y5282325D01*
X33679653Y5281226D01*
X33721617Y5280038D01*
X33756455Y5278755D01*
X33784961Y5277372D01*
X33807928Y5275885D01*
X33826153Y5274289D01*
X33840429Y5272580D01*
X33851550Y5270752D01*
X33860312Y5268800D01*
X33867508Y5266721D01*
X33869700Y5265998D01*
X33998495Y5210550D01*
X34111505Y5137552D01*
X34207026Y5048739D01*
X34283353Y4945848D01*
X34338781Y4830613D01*
X34358253Y4768423D01*
X34368959Y4708106D01*
X34375491Y4630760D01*
X34377861Y4544408D01*
X34376081Y4457073D01*
X34370163Y4376777D01*
X34360117Y4311546D01*
X34357580Y4300884D01*
X34314620Y4183600D01*
X34250184Y4075593D01*
X34167454Y3980046D01*
X34069613Y3900139D01*
X33959841Y3839056D01*
X33861516Y3804820D01*
X33852809Y3803002D01*
X33840709Y3801295D01*
X33824434Y3799697D01*
X33803199Y3798203D01*
X33776220Y3796811D01*
X33742713Y3795516D01*
X33701895Y3794316D01*
X33652980Y3793207D01*
X33595187Y3792184D01*
X33527729Y3791246D01*
X33449824Y3790388D01*
X33360687Y3789606D01*
X33259535Y3788898D01*
X33145584Y3788260D01*
X33018049Y3787689D01*
X32876146Y3787180D01*
X32719093Y3786730D01*
X32546103Y3786337D01*
X32356395Y3785996D01*
X32149184Y3785703D01*
X31923685Y3785457D01*
X31679115Y3785252D01*
X31414690Y3785086D01*
X31129626Y3784954D01*
X30823138Y3784854D01*
X30494444Y3784783D01*
X30142759Y3784735D01*
X29767299Y3784709D01*
X29367280Y3784701D01*
X29337141Y3784700D01*
X24890800Y3784700D01*
X24890800Y5296317D01*
X29345325Y5292984D01*
G37*
X-60878226Y-2122531D02*
X-60856877Y-2127660D01*
X-60824545Y-2136454D01*
X-60780615Y-2149108D01*
X-60724470Y-2165818D01*
X-60655498Y-2186781D01*
X-60573082Y-2212192D01*
X-60476607Y-2242247D01*
X-60365459Y-2277143D01*
X-60239023Y-2317074D01*
X-60096684Y-2362238D01*
X-59937826Y-2412830D01*
X-59761836Y-2469047D01*
X-59568097Y-2531083D01*
X-59355995Y-2599136D01*
X-59124915Y-2673401D01*
X-58874242Y-2754073D01*
X-58603360Y-2841350D01*
X-58311656Y-2935427D01*
X-57998514Y-3036501D01*
X-57663320Y-3144766D01*
X-57305457Y-3260419D01*
X-56924311Y-3383656D01*
X-56759225Y-3437050D01*
X-56658887Y-3469683D01*
X-56579666Y-3496017D01*
X-56518435Y-3517326D01*
X-56472066Y-3534883D01*
X-56437432Y-3549962D01*
X-56411404Y-3563836D01*
X-56390855Y-3577779D01*
X-56372658Y-3593064D01*
X-56369908Y-3595579D01*
X-56317095Y-3654069D01*
X-56286442Y-3713939D01*
X-56275110Y-3781083D01*
X-56274900Y-3792967D01*
X-56286107Y-3866975D01*
X-56320002Y-3929803D01*
X-56373859Y-3980032D01*
X-56407297Y-4000698D01*
X-56441189Y-4012875D01*
X-56485225Y-4019340D01*
X-56518595Y-4021537D01*
X-56531032Y-4022099D01*
X-56543462Y-4022241D01*
X-56557052Y-4021606D01*
X-56572969Y-4019837D01*
X-56592382Y-4016575D01*
X-56616456Y-4011465D01*
X-56646361Y-4004147D01*
X-56683264Y-3994266D01*
X-56728331Y-3981463D01*
X-56782732Y-3965382D01*
X-56847632Y-3945664D01*
X-56924200Y-3921952D01*
X-57013603Y-3893890D01*
X-57117009Y-3861119D01*
X-57235585Y-3823282D01*
X-57370498Y-3780022D01*
X-57522917Y-3730982D01*
X-57694009Y-3675804D01*
X-57884941Y-3614130D01*
X-58096881Y-3545603D01*
X-58330996Y-3469867D01*
X-58510100Y-3411915D01*
X-58727982Y-3341416D01*
X-58942662Y-3271955D01*
X-59152566Y-3204039D01*
X-59356119Y-3138181D01*
X-59551745Y-3074888D01*
X-59737868Y-3014671D01*
X-59912913Y-2958040D01*
X-60075305Y-2905503D01*
X-60223469Y-2857572D01*
X-60355828Y-2814755D01*
X-60470807Y-2777562D01*
X-60566832Y-2746503D01*
X-60642325Y-2722088D01*
X-60695713Y-2704826D01*
X-60707451Y-2701031D01*
X-60803812Y-2669587D01*
X-60879219Y-2644125D01*
X-60937035Y-2623280D01*
X-60980620Y-2605685D01*
X-61013334Y-2589973D01*
X-61038539Y-2574778D01*
X-61059596Y-2558733D01*
X-61061601Y-2557030D01*
X-61117927Y-2495300D01*
X-61151428Y-2429075D01*
X-61163432Y-2361715D01*
X-61155269Y-2296583D01*
X-61128267Y-2237041D01*
X-61083756Y-2186450D01*
X-61023064Y-2148172D01*
X-60947520Y-2125570D01*
X-60889206Y-2120870D01*
X-60878226Y-2122531D01*
G36*
X-60878226Y-2122531D02*
G01*
X-60856877Y-2127660D01*
X-60824545Y-2136454D01*
X-60780615Y-2149108D01*
X-60724470Y-2165818D01*
X-60655498Y-2186781D01*
X-60573082Y-2212192D01*
X-60476607Y-2242247D01*
X-60365459Y-2277143D01*
X-60239023Y-2317074D01*
X-60096684Y-2362238D01*
X-59937826Y-2412830D01*
X-59761836Y-2469047D01*
X-59568097Y-2531083D01*
X-59355995Y-2599136D01*
X-59124915Y-2673401D01*
X-58874242Y-2754073D01*
X-58603360Y-2841350D01*
X-58311656Y-2935427D01*
X-57998514Y-3036501D01*
X-57663320Y-3144766D01*
X-57305457Y-3260419D01*
X-56924311Y-3383656D01*
X-56759225Y-3437050D01*
X-56658887Y-3469683D01*
X-56579666Y-3496017D01*
X-56518435Y-3517326D01*
X-56472066Y-3534883D01*
X-56437432Y-3549962D01*
X-56411404Y-3563836D01*
X-56390855Y-3577779D01*
X-56372658Y-3593064D01*
X-56369908Y-3595579D01*
X-56317095Y-3654069D01*
X-56286442Y-3713939D01*
X-56275110Y-3781083D01*
X-56274900Y-3792967D01*
X-56286107Y-3866975D01*
X-56320002Y-3929803D01*
X-56373859Y-3980032D01*
X-56407297Y-4000698D01*
X-56441189Y-4012875D01*
X-56485225Y-4019340D01*
X-56518595Y-4021537D01*
X-56531032Y-4022099D01*
X-56543462Y-4022241D01*
X-56557052Y-4021606D01*
X-56572969Y-4019837D01*
X-56592382Y-4016575D01*
X-56616456Y-4011465D01*
X-56646361Y-4004147D01*
X-56683264Y-3994266D01*
X-56728331Y-3981463D01*
X-56782732Y-3965382D01*
X-56847632Y-3945664D01*
X-56924200Y-3921952D01*
X-57013603Y-3893890D01*
X-57117009Y-3861119D01*
X-57235585Y-3823282D01*
X-57370498Y-3780022D01*
X-57522917Y-3730982D01*
X-57694009Y-3675804D01*
X-57884941Y-3614130D01*
X-58096881Y-3545603D01*
X-58330996Y-3469867D01*
X-58510100Y-3411915D01*
X-58727982Y-3341416D01*
X-58942662Y-3271955D01*
X-59152566Y-3204039D01*
X-59356119Y-3138181D01*
X-59551745Y-3074888D01*
X-59737868Y-3014671D01*
X-59912913Y-2958040D01*
X-60075305Y-2905503D01*
X-60223469Y-2857572D01*
X-60355828Y-2814755D01*
X-60470807Y-2777562D01*
X-60566832Y-2746503D01*
X-60642325Y-2722088D01*
X-60695713Y-2704826D01*
X-60707451Y-2701031D01*
X-60803812Y-2669587D01*
X-60879219Y-2644125D01*
X-60937035Y-2623280D01*
X-60980620Y-2605685D01*
X-61013334Y-2589973D01*
X-61038539Y-2574778D01*
X-61059596Y-2558733D01*
X-61061601Y-2557030D01*
X-61117927Y-2495300D01*
X-61151428Y-2429075D01*
X-61163432Y-2361715D01*
X-61155269Y-2296583D01*
X-61128267Y-2237041D01*
X-61083756Y-2186450D01*
X-61023064Y-2148172D01*
X-60947520Y-2125570D01*
X-60889206Y-2120870D01*
X-60878226Y-2122531D01*
G37*
X-56481977Y-5227556D02*
X-56444286Y-5234007D01*
X-56410456Y-5248103D01*
X-56383191Y-5264050D01*
X-56326799Y-5307933D01*
X-56292714Y-5357897D01*
X-56278129Y-5419402D01*
X-56277828Y-5469080D01*
X-56293839Y-5550112D01*
X-56331699Y-5618219D01*
X-56391106Y-5672911D01*
X-56409717Y-5684681D01*
X-56427331Y-5691855D01*
X-56467882Y-5706390D01*
X-56530125Y-5727875D01*
X-56612814Y-5755901D01*
X-56714704Y-5790056D01*
X-56834551Y-5829933D01*
X-56971108Y-5875121D01*
X-57123131Y-5925209D01*
X-57289373Y-5979788D01*
X-57468591Y-6038449D01*
X-57659538Y-6100781D01*
X-57860970Y-6166375D01*
X-58071641Y-6234820D01*
X-58290305Y-6305707D01*
X-58515718Y-6378626D01*
X-58645306Y-6420478D01*
X-58920354Y-6509275D01*
X-59172278Y-6590623D01*
X-59402145Y-6664818D01*
X-59611019Y-6732159D01*
X-59799966Y-6792945D01*
X-59970052Y-6847473D01*
X-60122342Y-6896040D01*
X-60257903Y-6938947D01*
X-60377799Y-6976489D01*
X-60483097Y-7008966D01*
X-60574862Y-7036675D01*
X-60654160Y-7059915D01*
X-60722056Y-7078984D01*
X-60779617Y-7094179D01*
X-60827907Y-7105799D01*
X-60867992Y-7114142D01*
X-60900938Y-7119505D01*
X-60927811Y-7122188D01*
X-60949676Y-7122487D01*
X-60967599Y-7120702D01*
X-60982646Y-7117130D01*
X-60995882Y-7112069D01*
X-61008372Y-7105817D01*
X-61021184Y-7098672D01*
X-61035381Y-7090933D01*
X-61037824Y-7089675D01*
X-61098706Y-7046418D01*
X-61139549Y-6991611D01*
X-61160477Y-6929148D01*
X-61161613Y-6862926D01*
X-61143084Y-6796840D01*
X-61105011Y-6734787D01*
X-61047519Y-6680661D01*
X-61024308Y-6665205D01*
X-61004889Y-6656864D01*
X-60961931Y-6641032D01*
X-60896097Y-6617927D01*
X-60808050Y-6587769D01*
X-60698452Y-6550777D01*
X-60567965Y-6507169D01*
X-60417253Y-6457164D01*
X-60246977Y-6400983D01*
X-60057801Y-6338843D01*
X-59850387Y-6270964D01*
X-59625397Y-6197566D01*
X-59383495Y-6118866D01*
X-59125342Y-6035084D01*
X-58851602Y-5946440D01*
X-58795850Y-5928408D01*
X-58526073Y-5841186D01*
X-58279377Y-5761466D01*
X-58054682Y-5688913D01*
X-57850909Y-5623191D01*
X-57666978Y-5563964D01*
X-57501810Y-5510899D01*
X-57354324Y-5463658D01*
X-57223441Y-5421908D01*
X-57108081Y-5385312D01*
X-57007165Y-5353536D01*
X-56919613Y-5326244D01*
X-56844346Y-5303101D01*
X-56780283Y-5283771D01*
X-56726345Y-5267920D01*
X-56681453Y-5255211D01*
X-56644526Y-5245310D01*
X-56614485Y-5237882D01*
X-56590251Y-5232590D01*
X-56570744Y-5229101D01*
X-56554883Y-5227078D01*
X-56541590Y-5226186D01*
X-56534249Y-5226054D01*
X-56481977Y-5227556D01*
G36*
X-56481977Y-5227556D02*
G01*
X-56444286Y-5234007D01*
X-56410456Y-5248103D01*
X-56383191Y-5264050D01*
X-56326799Y-5307933D01*
X-56292714Y-5357897D01*
X-56278129Y-5419402D01*
X-56277828Y-5469080D01*
X-56293839Y-5550112D01*
X-56331699Y-5618219D01*
X-56391106Y-5672911D01*
X-56409717Y-5684681D01*
X-56427331Y-5691855D01*
X-56467882Y-5706390D01*
X-56530125Y-5727875D01*
X-56612814Y-5755901D01*
X-56714704Y-5790056D01*
X-56834551Y-5829933D01*
X-56971108Y-5875121D01*
X-57123131Y-5925209D01*
X-57289373Y-5979788D01*
X-57468591Y-6038449D01*
X-57659538Y-6100781D01*
X-57860970Y-6166375D01*
X-58071641Y-6234820D01*
X-58290305Y-6305707D01*
X-58515718Y-6378626D01*
X-58645306Y-6420478D01*
X-58920354Y-6509275D01*
X-59172278Y-6590623D01*
X-59402145Y-6664818D01*
X-59611019Y-6732159D01*
X-59799966Y-6792945D01*
X-59970052Y-6847473D01*
X-60122342Y-6896040D01*
X-60257903Y-6938947D01*
X-60377799Y-6976489D01*
X-60483097Y-7008966D01*
X-60574862Y-7036675D01*
X-60654160Y-7059915D01*
X-60722056Y-7078984D01*
X-60779617Y-7094179D01*
X-60827907Y-7105799D01*
X-60867992Y-7114142D01*
X-60900938Y-7119505D01*
X-60927811Y-7122188D01*
X-60949676Y-7122487D01*
X-60967599Y-7120702D01*
X-60982646Y-7117130D01*
X-60995882Y-7112069D01*
X-61008372Y-7105817D01*
X-61021184Y-7098672D01*
X-61035381Y-7090933D01*
X-61037824Y-7089675D01*
X-61098706Y-7046418D01*
X-61139549Y-6991611D01*
X-61160477Y-6929148D01*
X-61161613Y-6862926D01*
X-61143084Y-6796840D01*
X-61105011Y-6734787D01*
X-61047519Y-6680661D01*
X-61024308Y-6665205D01*
X-61004889Y-6656864D01*
X-60961931Y-6641032D01*
X-60896097Y-6617927D01*
X-60808050Y-6587769D01*
X-60698452Y-6550777D01*
X-60567965Y-6507169D01*
X-60417253Y-6457164D01*
X-60246977Y-6400983D01*
X-60057801Y-6338843D01*
X-59850387Y-6270964D01*
X-59625397Y-6197566D01*
X-59383495Y-6118866D01*
X-59125342Y-6035084D01*
X-58851602Y-5946440D01*
X-58795850Y-5928408D01*
X-58526073Y-5841186D01*
X-58279377Y-5761466D01*
X-58054682Y-5688913D01*
X-57850909Y-5623191D01*
X-57666978Y-5563964D01*
X-57501810Y-5510899D01*
X-57354324Y-5463658D01*
X-57223441Y-5421908D01*
X-57108081Y-5385312D01*
X-57007165Y-5353536D01*
X-56919613Y-5326244D01*
X-56844346Y-5303101D01*
X-56780283Y-5283771D01*
X-56726345Y-5267920D01*
X-56681453Y-5255211D01*
X-56644526Y-5245310D01*
X-56614485Y-5237882D01*
X-56590251Y-5232590D01*
X-56570744Y-5229101D01*
X-56554883Y-5227078D01*
X-56541590Y-5226186D01*
X-56534249Y-5226054D01*
X-56481977Y-5227556D01*
G37*
X-35988094Y-5226438D02*
X-35973923Y-5227734D01*
X-35956759Y-5230294D01*
X-35935521Y-5234451D01*
X-35909132Y-5240543D01*
X-35876510Y-5248904D01*
X-35836577Y-5259869D01*
X-35788253Y-5273774D01*
X-35730458Y-5290954D01*
X-35662112Y-5311744D01*
X-35582136Y-5336480D01*
X-35489451Y-5365497D01*
X-35382976Y-5399129D01*
X-35261632Y-5437714D01*
X-35124340Y-5481584D01*
X-34970020Y-5531077D01*
X-34797592Y-5586527D01*
X-34605976Y-5648270D01*
X-34394093Y-5716640D01*
X-34160864Y-5791974D01*
X-33905209Y-5874606D01*
X-33738750Y-5928426D01*
X-33462034Y-6017995D01*
X-33200771Y-6102746D01*
X-32955624Y-6182459D01*
X-32727256Y-6256916D01*
X-32516329Y-6325898D01*
X-32323506Y-6389184D01*
X-32149451Y-6446557D01*
X-31994826Y-6497796D01*
X-31860295Y-6542683D01*
X-31746519Y-6580998D01*
X-31654162Y-6612523D01*
X-31583887Y-6637038D01*
X-31536356Y-6654324D01*
X-31512233Y-6664162D01*
X-31510293Y-6665206D01*
X-31446260Y-6715997D01*
X-31401760Y-6775995D01*
X-31376920Y-6841317D01*
X-31371869Y-6908077D01*
X-31386732Y-6972392D01*
X-31421638Y-7030376D01*
X-31476712Y-7078145D01*
X-31496405Y-7089496D01*
X-31511013Y-7097537D01*
X-31524058Y-7105012D01*
X-31536605Y-7111623D01*
X-31549719Y-7117075D01*
X-31564464Y-7121069D01*
X-31581905Y-7123307D01*
X-31603105Y-7123494D01*
X-31629130Y-7121331D01*
X-31661044Y-7116521D01*
X-31699911Y-7108767D01*
X-31746796Y-7097772D01*
X-31802763Y-7083238D01*
X-31868877Y-7064868D01*
X-31946201Y-7042365D01*
X-32035802Y-7015431D01*
X-32138742Y-6983769D01*
X-32256087Y-6947082D01*
X-32388900Y-6905073D01*
X-32538247Y-6857444D01*
X-32705191Y-6803897D01*
X-32890798Y-6744137D01*
X-33096132Y-6677865D01*
X-33322256Y-6604784D01*
X-33570236Y-6524597D01*
X-33841136Y-6437006D01*
X-33895236Y-6419518D01*
X-34127257Y-6344441D01*
X-34352599Y-6271365D01*
X-34570047Y-6200690D01*
X-34778391Y-6132815D01*
X-34976418Y-6068142D01*
X-35162916Y-6007069D01*
X-35336672Y-5949997D01*
X-35496476Y-5897325D01*
X-35641113Y-5849454D01*
X-35769373Y-5806782D01*
X-35880043Y-5769711D01*
X-35971910Y-5738640D01*
X-36043764Y-5713968D01*
X-36094391Y-5696096D01*
X-36122579Y-5685424D01*
X-36127545Y-5683121D01*
X-36191381Y-5632926D01*
X-36233617Y-5569518D01*
X-36254677Y-5492194D01*
X-36256782Y-5468944D01*
X-36253525Y-5396815D01*
X-36232580Y-5339817D01*
X-36191143Y-5292498D01*
X-36151410Y-5264050D01*
X-36113885Y-5242966D01*
X-36080046Y-5231424D01*
X-36039177Y-5226727D01*
X-36000352Y-5226070D01*
X-35988094Y-5226438D01*
G36*
X-35988094Y-5226438D02*
G01*
X-35973923Y-5227734D01*
X-35956759Y-5230294D01*
X-35935521Y-5234451D01*
X-35909132Y-5240543D01*
X-35876510Y-5248904D01*
X-35836577Y-5259869D01*
X-35788253Y-5273774D01*
X-35730458Y-5290954D01*
X-35662112Y-5311744D01*
X-35582136Y-5336480D01*
X-35489451Y-5365497D01*
X-35382976Y-5399129D01*
X-35261632Y-5437714D01*
X-35124340Y-5481584D01*
X-34970020Y-5531077D01*
X-34797592Y-5586527D01*
X-34605976Y-5648270D01*
X-34394093Y-5716640D01*
X-34160864Y-5791974D01*
X-33905209Y-5874606D01*
X-33738750Y-5928426D01*
X-33462034Y-6017995D01*
X-33200771Y-6102746D01*
X-32955624Y-6182459D01*
X-32727256Y-6256916D01*
X-32516329Y-6325898D01*
X-32323506Y-6389184D01*
X-32149451Y-6446557D01*
X-31994826Y-6497796D01*
X-31860295Y-6542683D01*
X-31746519Y-6580998D01*
X-31654162Y-6612523D01*
X-31583887Y-6637038D01*
X-31536356Y-6654324D01*
X-31512233Y-6664162D01*
X-31510293Y-6665206D01*
X-31446260Y-6715997D01*
X-31401760Y-6775995D01*
X-31376920Y-6841317D01*
X-31371869Y-6908077D01*
X-31386732Y-6972392D01*
X-31421638Y-7030376D01*
X-31476712Y-7078145D01*
X-31496405Y-7089496D01*
X-31511013Y-7097537D01*
X-31524058Y-7105012D01*
X-31536605Y-7111623D01*
X-31549719Y-7117075D01*
X-31564464Y-7121069D01*
X-31581905Y-7123307D01*
X-31603105Y-7123494D01*
X-31629130Y-7121331D01*
X-31661044Y-7116521D01*
X-31699911Y-7108767D01*
X-31746796Y-7097772D01*
X-31802763Y-7083238D01*
X-31868877Y-7064868D01*
X-31946201Y-7042365D01*
X-32035802Y-7015431D01*
X-32138742Y-6983769D01*
X-32256087Y-6947082D01*
X-32388900Y-6905073D01*
X-32538247Y-6857444D01*
X-32705191Y-6803897D01*
X-32890798Y-6744137D01*
X-33096132Y-6677865D01*
X-33322256Y-6604784D01*
X-33570236Y-6524597D01*
X-33841136Y-6437006D01*
X-33895236Y-6419518D01*
X-34127257Y-6344441D01*
X-34352599Y-6271365D01*
X-34570047Y-6200690D01*
X-34778391Y-6132815D01*
X-34976418Y-6068142D01*
X-35162916Y-6007069D01*
X-35336672Y-5949997D01*
X-35496476Y-5897325D01*
X-35641113Y-5849454D01*
X-35769373Y-5806782D01*
X-35880043Y-5769711D01*
X-35971910Y-5738640D01*
X-36043764Y-5713968D01*
X-36094391Y-5696096D01*
X-36122579Y-5685424D01*
X-36127545Y-5683121D01*
X-36191381Y-5632926D01*
X-36233617Y-5569518D01*
X-36254677Y-5492194D01*
X-36256782Y-5468944D01*
X-36253525Y-5396815D01*
X-36232580Y-5339817D01*
X-36191143Y-5292498D01*
X-36151410Y-5264050D01*
X-36113885Y-5242966D01*
X-36080046Y-5231424D01*
X-36039177Y-5226727D01*
X-36000352Y-5226070D01*
X-35988094Y-5226438D01*
G37*
X-31557803Y-2131421D02*
X-31483903Y-2163043D01*
X-31450512Y-2187969D01*
X-31401612Y-2245793D01*
X-31375457Y-2310936D01*
X-31371833Y-2379849D01*
X-31390529Y-2448982D01*
X-31431330Y-2514787D01*
X-31472634Y-2556717D01*
X-31478324Y-2562050D01*
X-31482391Y-2566583D01*
X-31485799Y-2570640D01*
X-31489513Y-2574543D01*
X-31494496Y-2578613D01*
X-31501715Y-2583174D01*
X-31512131Y-2588548D01*
X-31526711Y-2595057D01*
X-31546418Y-2603024D01*
X-31572217Y-2612772D01*
X-31605072Y-2624621D01*
X-31645947Y-2638896D01*
X-31695807Y-2655918D01*
X-31755616Y-2676010D01*
X-31826338Y-2699494D01*
X-31908937Y-2726693D01*
X-32004379Y-2757929D01*
X-32113626Y-2793524D01*
X-32237645Y-2833801D01*
X-32377398Y-2879083D01*
X-32533850Y-2929691D01*
X-32707966Y-2985949D01*
X-32900709Y-3048178D01*
X-33113045Y-3116701D01*
X-33345937Y-3191840D01*
X-33600351Y-3273918D01*
X-33877249Y-3363258D01*
X-34097906Y-3434462D01*
X-34347953Y-3515154D01*
X-34575003Y-3588393D01*
X-34780232Y-3654519D01*
X-34964818Y-3713873D01*
X-35129938Y-3766796D01*
X-35276768Y-3813628D01*
X-35406486Y-3854710D01*
X-35520269Y-3890383D01*
X-35619293Y-3920987D01*
X-35704737Y-3946864D01*
X-35777777Y-3968355D01*
X-35839589Y-3985799D01*
X-35891352Y-3999537D01*
X-35934242Y-4009911D01*
X-35969436Y-4017261D01*
X-35998111Y-4021928D01*
X-36021445Y-4024253D01*
X-36040614Y-4024576D01*
X-36056795Y-4023238D01*
X-36071166Y-4020579D01*
X-36084903Y-4016942D01*
X-36097250Y-4013247D01*
X-36164493Y-3980835D01*
X-36216035Y-3930970D01*
X-36248791Y-3867731D01*
X-36259700Y-3798468D01*
X-36253191Y-3729904D01*
X-36231210Y-3673068D01*
X-36190080Y-3619946D01*
X-36167776Y-3598250D01*
X-36149100Y-3582005D01*
X-36129326Y-3567648D01*
X-36105298Y-3553882D01*
X-36073859Y-3539411D01*
X-36031853Y-3522939D01*
X-35976126Y-3503168D01*
X-35903520Y-3478803D01*
X-35810880Y-3448548D01*
X-35775376Y-3437050D01*
X-35384392Y-3310609D01*
X-35016946Y-3191834D01*
X-34672422Y-3080528D01*
X-34350207Y-2976495D01*
X-34049684Y-2879539D01*
X-33770240Y-2789465D01*
X-33511259Y-2706077D01*
X-33272126Y-2629178D01*
X-33052226Y-2558572D01*
X-32850944Y-2494063D01*
X-32667665Y-2435456D01*
X-32501775Y-2382555D01*
X-32352658Y-2335163D01*
X-32219700Y-2293085D01*
X-32102285Y-2256124D01*
X-31999798Y-2224085D01*
X-31911625Y-2196771D01*
X-31837150Y-2173987D01*
X-31775759Y-2155536D01*
X-31726836Y-2141223D01*
X-31689767Y-2130852D01*
X-31663937Y-2124227D01*
X-31648731Y-2121151D01*
X-31645395Y-2120870D01*
X-31557803Y-2131421D01*
G36*
X-31557803Y-2131421D02*
G01*
X-31483903Y-2163043D01*
X-31450512Y-2187969D01*
X-31401612Y-2245793D01*
X-31375457Y-2310936D01*
X-31371833Y-2379849D01*
X-31390529Y-2448982D01*
X-31431330Y-2514787D01*
X-31472634Y-2556717D01*
X-31478324Y-2562050D01*
X-31482391Y-2566583D01*
X-31485799Y-2570640D01*
X-31489513Y-2574543D01*
X-31494496Y-2578613D01*
X-31501715Y-2583174D01*
X-31512131Y-2588548D01*
X-31526711Y-2595057D01*
X-31546418Y-2603024D01*
X-31572217Y-2612772D01*
X-31605072Y-2624621D01*
X-31645947Y-2638896D01*
X-31695807Y-2655918D01*
X-31755616Y-2676010D01*
X-31826338Y-2699494D01*
X-31908937Y-2726693D01*
X-32004379Y-2757929D01*
X-32113626Y-2793524D01*
X-32237645Y-2833801D01*
X-32377398Y-2879083D01*
X-32533850Y-2929691D01*
X-32707966Y-2985949D01*
X-32900709Y-3048178D01*
X-33113045Y-3116701D01*
X-33345937Y-3191840D01*
X-33600351Y-3273918D01*
X-33877249Y-3363258D01*
X-34097906Y-3434462D01*
X-34347953Y-3515154D01*
X-34575003Y-3588393D01*
X-34780232Y-3654519D01*
X-34964818Y-3713873D01*
X-35129938Y-3766796D01*
X-35276768Y-3813628D01*
X-35406486Y-3854710D01*
X-35520269Y-3890383D01*
X-35619293Y-3920987D01*
X-35704737Y-3946864D01*
X-35777777Y-3968355D01*
X-35839589Y-3985799D01*
X-35891352Y-3999537D01*
X-35934242Y-4009911D01*
X-35969436Y-4017261D01*
X-35998111Y-4021928D01*
X-36021445Y-4024253D01*
X-36040614Y-4024576D01*
X-36056795Y-4023238D01*
X-36071166Y-4020579D01*
X-36084903Y-4016942D01*
X-36097250Y-4013247D01*
X-36164493Y-3980835D01*
X-36216035Y-3930970D01*
X-36248791Y-3867731D01*
X-36259700Y-3798468D01*
X-36253191Y-3729904D01*
X-36231210Y-3673068D01*
X-36190080Y-3619946D01*
X-36167776Y-3598250D01*
X-36149100Y-3582005D01*
X-36129326Y-3567648D01*
X-36105298Y-3553882D01*
X-36073859Y-3539411D01*
X-36031853Y-3522939D01*
X-35976126Y-3503168D01*
X-35903520Y-3478803D01*
X-35810880Y-3448548D01*
X-35775376Y-3437050D01*
X-35384392Y-3310609D01*
X-35016946Y-3191834D01*
X-34672422Y-3080528D01*
X-34350207Y-2976495D01*
X-34049684Y-2879539D01*
X-33770240Y-2789465D01*
X-33511259Y-2706077D01*
X-33272126Y-2629178D01*
X-33052226Y-2558572D01*
X-32850944Y-2494063D01*
X-32667665Y-2435456D01*
X-32501775Y-2382555D01*
X-32352658Y-2335163D01*
X-32219700Y-2293085D01*
X-32102285Y-2256124D01*
X-31999798Y-2224085D01*
X-31911625Y-2196771D01*
X-31837150Y-2173987D01*
X-31775759Y-2155536D01*
X-31726836Y-2141223D01*
X-31689767Y-2130852D01*
X-31663937Y-2124227D01*
X-31648731Y-2121151D01*
X-31645395Y-2120870D01*
X-31557803Y-2131421D01*
G37*
X41478777Y-2768714D02*
X41657879Y-2769356D01*
X41812785Y-2770422D01*
X41943295Y-2771909D01*
X42049213Y-2773815D01*
X42130341Y-2776136D01*
X42186481Y-2778870D01*
X42217436Y-2782014D01*
X42218649Y-2782249D01*
X42261410Y-2794374D01*
X42316772Y-2814714D01*
X42374914Y-2839554D01*
X42393900Y-2848525D01*
X42507241Y-2917479D01*
X42607302Y-3006308D01*
X42691494Y-3111844D01*
X42757229Y-3230924D01*
X42796978Y-3341579D01*
X42802460Y-3363751D01*
X42806981Y-3388591D01*
X42810629Y-3418651D01*
X42813497Y-3456487D01*
X42815674Y-3504651D01*
X42817249Y-3565698D01*
X42818315Y-3642182D01*
X42818959Y-3736657D01*
X42819274Y-3851677D01*
X42819350Y-3975000D01*
X42819264Y-4110153D01*
X42818947Y-4222473D01*
X42818303Y-4314525D01*
X42817239Y-4388875D01*
X42815662Y-4448089D01*
X42813478Y-4494733D01*
X42810593Y-4531371D01*
X42806914Y-4560572D01*
X42802347Y-4584899D01*
X42796799Y-4606919D01*
X42796217Y-4608984D01*
X42745642Y-4742714D01*
X42674294Y-4862301D01*
X42583220Y-4966599D01*
X42473469Y-5054466D01*
X42346088Y-5124757D01*
X42309583Y-5140264D01*
X42222450Y-5175150D01*
X41631900Y-5177786D01*
X41488732Y-5178305D01*
X41368655Y-5178437D01*
X41269361Y-5178124D01*
X41188543Y-5177308D01*
X41123892Y-5175933D01*
X41073101Y-5173941D01*
X41033864Y-5171275D01*
X41003872Y-5167877D01*
X40980817Y-5163690D01*
X40971500Y-5161372D01*
X40846034Y-5115138D01*
X40729965Y-5048672D01*
X40628017Y-4965121D01*
X40558169Y-4885937D01*
X40511251Y-4820052D01*
X40477340Y-4762331D01*
X40451521Y-4702941D01*
X40428880Y-4632047D01*
X40425804Y-4621078D01*
X40420783Y-4602123D01*
X40416458Y-4582828D01*
X40412778Y-4561238D01*
X40409691Y-4535395D01*
X40407144Y-4503345D01*
X40405087Y-4463129D01*
X40403466Y-4412791D01*
X40402231Y-4350376D01*
X40401329Y-4273925D01*
X40400708Y-4181484D01*
X40400317Y-4071095D01*
X40400103Y-3940801D01*
X40400014Y-3788647D01*
X40400000Y-3648230D01*
X40400000Y-3123250D01*
X40754750Y-3123250D01*
X40761950Y-4476650D01*
X40802442Y-4552850D01*
X40866281Y-4649921D01*
X40943625Y-4727597D01*
X41032453Y-4784039D01*
X41077322Y-4802614D01*
X41096208Y-4808531D01*
X41117299Y-4813303D01*
X41143311Y-4817029D01*
X41176959Y-4819808D01*
X41220958Y-4821738D01*
X41278023Y-4822918D01*
X41350871Y-4823447D01*
X41442215Y-4823424D01*
X41554772Y-4822946D01*
X41625550Y-4822533D01*
X42108150Y-4819550D01*
X42184187Y-4782216D01*
X42274782Y-4724219D01*
X42352338Y-4647445D01*
X42411387Y-4557364D01*
X42413716Y-4552687D01*
X42451050Y-4476650D01*
X42451050Y-3473350D01*
X42413716Y-3397312D01*
X42355719Y-3306717D01*
X42278945Y-3229161D01*
X42188864Y-3170112D01*
X42184187Y-3167783D01*
X42108150Y-3130450D01*
X40754750Y-3123250D01*
X40400000Y-3123250D01*
X40400000Y-2768500D01*
X41275674Y-2768500D01*
X41478777Y-2768714D01*
G36*
X41478777Y-2768714D02*
G01*
X41657879Y-2769356D01*
X41812785Y-2770422D01*
X41943295Y-2771909D01*
X42049213Y-2773815D01*
X42130341Y-2776136D01*
X42186481Y-2778870D01*
X42217436Y-2782014D01*
X42218649Y-2782249D01*
X42261410Y-2794374D01*
X42316772Y-2814714D01*
X42374914Y-2839554D01*
X42393900Y-2848525D01*
X42507241Y-2917479D01*
X42607302Y-3006308D01*
X42691494Y-3111844D01*
X42757229Y-3230924D01*
X42796978Y-3341579D01*
X42802460Y-3363751D01*
X42806981Y-3388591D01*
X42810629Y-3418651D01*
X42813497Y-3456487D01*
X42815674Y-3504651D01*
X42817249Y-3565698D01*
X42818315Y-3642182D01*
X42818959Y-3736657D01*
X42819274Y-3851677D01*
X42819350Y-3975000D01*
X42819264Y-4110153D01*
X42818947Y-4222473D01*
X42818303Y-4314525D01*
X42817239Y-4388875D01*
X42815662Y-4448089D01*
X42813478Y-4494733D01*
X42810593Y-4531371D01*
X42806914Y-4560572D01*
X42802347Y-4584899D01*
X42796799Y-4606919D01*
X42796217Y-4608984D01*
X42745642Y-4742714D01*
X42674294Y-4862301D01*
X42583220Y-4966599D01*
X42473469Y-5054466D01*
X42346088Y-5124757D01*
X42309583Y-5140264D01*
X42222450Y-5175150D01*
X41631900Y-5177786D01*
X41488732Y-5178305D01*
X41368655Y-5178437D01*
X41269361Y-5178124D01*
X41188543Y-5177308D01*
X41123892Y-5175933D01*
X41073101Y-5173941D01*
X41033864Y-5171275D01*
X41003872Y-5167877D01*
X40980817Y-5163690D01*
X40971500Y-5161372D01*
X40846034Y-5115138D01*
X40729965Y-5048672D01*
X40628017Y-4965121D01*
X40558169Y-4885937D01*
X40511251Y-4820052D01*
X40477340Y-4762331D01*
X40451521Y-4702941D01*
X40428880Y-4632047D01*
X40425804Y-4621078D01*
X40420783Y-4602123D01*
X40416458Y-4582828D01*
X40412778Y-4561238D01*
X40409691Y-4535395D01*
X40407144Y-4503345D01*
X40405087Y-4463129D01*
X40403466Y-4412791D01*
X40402231Y-4350376D01*
X40401329Y-4273925D01*
X40400708Y-4181484D01*
X40400317Y-4071095D01*
X40400103Y-3940801D01*
X40400014Y-3788647D01*
X40400000Y-3648230D01*
X40400000Y-3123250D01*
X40754750Y-3123250D01*
X40761950Y-4476650D01*
X40802442Y-4552850D01*
X40866281Y-4649921D01*
X40943625Y-4727597D01*
X41032453Y-4784039D01*
X41077322Y-4802614D01*
X41096208Y-4808531D01*
X41117299Y-4813303D01*
X41143311Y-4817029D01*
X41176959Y-4819808D01*
X41220958Y-4821738D01*
X41278023Y-4822918D01*
X41350871Y-4823447D01*
X41442215Y-4823424D01*
X41554772Y-4822946D01*
X41625550Y-4822533D01*
X42108150Y-4819550D01*
X42184187Y-4782216D01*
X42274782Y-4724219D01*
X42352338Y-4647445D01*
X42411387Y-4557364D01*
X42413716Y-4552687D01*
X42451050Y-4476650D01*
X42451050Y-3473350D01*
X42413716Y-3397312D01*
X42355719Y-3306717D01*
X42278945Y-3229161D01*
X42188864Y-3170112D01*
X42184187Y-3167783D01*
X42108150Y-3130450D01*
X40754750Y-3123250D01*
X40400000Y-3123250D01*
X40400000Y-2768500D01*
X41275674Y-2768500D01*
X41478777Y-2768714D01*
G37*
X50388250Y-4590950D02*
X50358776Y-4669979D01*
X50299236Y-4794298D01*
X50218965Y-4907020D01*
X50121059Y-5005052D01*
X50008608Y-5085302D01*
X49884706Y-5144680D01*
X49883379Y-5145173D01*
X49864489Y-5151972D01*
X49846177Y-5157640D01*
X49826013Y-5162291D01*
X49801569Y-5166040D01*
X49770416Y-5169002D01*
X49730127Y-5171291D01*
X49678273Y-5173024D01*
X49612425Y-5174313D01*
X49530155Y-5175275D01*
X49429034Y-5176024D01*
X49306635Y-5176675D01*
X49207450Y-5177131D01*
X49061233Y-5177647D01*
X48938262Y-5177737D01*
X48836387Y-5177351D01*
X48753456Y-5176440D01*
X48687319Y-5174956D01*
X48635824Y-5172849D01*
X48596822Y-5170072D01*
X48568160Y-5166574D01*
X48547689Y-5162308D01*
X48547050Y-5162132D01*
X48468682Y-5133914D01*
X48384039Y-5092979D01*
X48303623Y-5044978D01*
X48238831Y-4996343D01*
X48179135Y-4934769D01*
X48120289Y-4857742D01*
X48068376Y-4774339D01*
X48029475Y-4693639D01*
X48021381Y-4671696D01*
X48007769Y-4627031D01*
X47996577Y-4579331D01*
X47987641Y-4525909D01*
X47980792Y-4464076D01*
X47975864Y-4391143D01*
X47972691Y-4304424D01*
X47972083Y-4264801D01*
X48338858Y-4264801D01*
X48339429Y-4329215D01*
X48340705Y-4379186D01*
X48342796Y-4417452D01*
X48345816Y-4446751D01*
X48349876Y-4469823D01*
X48355087Y-4489406D01*
X48361563Y-4508238D01*
X48362921Y-4511893D01*
X48412622Y-4609358D01*
X48482638Y-4693100D01*
X48570535Y-4760687D01*
X48653826Y-4802185D01*
X48670518Y-4808106D01*
X48689454Y-4812894D01*
X48713290Y-4816647D01*
X48744680Y-4819463D01*
X48786277Y-4821441D01*
X48840737Y-4822678D01*
X48910713Y-4823274D01*
X48998860Y-4823325D01*
X49107831Y-4822930D01*
X49201100Y-4822423D01*
X49325616Y-4821648D01*
X49427401Y-4820831D01*
X49509122Y-4819820D01*
X49573448Y-4818464D01*
X49623048Y-4816611D01*
X49660589Y-4814109D01*
X49688740Y-4810807D01*
X49710168Y-4806553D01*
X49727543Y-4801196D01*
X49743531Y-4794585D01*
X49750892Y-4791204D01*
X49815091Y-4752058D01*
X49880752Y-4696286D01*
X49940552Y-4631097D01*
X49987168Y-4563696D01*
X49993090Y-4552850D01*
X50032950Y-4476650D01*
X50036549Y-3799950D01*
X50040149Y-3123250D01*
X49363449Y-3126850D01*
X48686750Y-3130450D01*
X48610712Y-3167783D01*
X48558646Y-3198356D01*
X48505719Y-3237229D01*
X48476595Y-3263195D01*
X48438017Y-3308332D01*
X48400655Y-3362566D01*
X48381183Y-3397312D01*
X48343850Y-3473350D01*
X48340247Y-3957506D01*
X48339379Y-4081684D01*
X48338878Y-4183203D01*
X48338858Y-4264801D01*
X47972083Y-4264801D01*
X47971106Y-4201228D01*
X47970942Y-4078868D01*
X47972033Y-3934656D01*
X47972603Y-3884803D01*
X47974305Y-3757469D01*
X47976106Y-3652797D01*
X47978142Y-3568049D01*
X47980552Y-3500488D01*
X47983473Y-3447377D01*
X47987043Y-3405976D01*
X47991399Y-3373549D01*
X47996679Y-3347357D01*
X48000303Y-3333650D01*
X48048788Y-3207423D01*
X48117399Y-3091616D01*
X48203314Y-2989644D01*
X48303708Y-2904925D01*
X48402280Y-2847124D01*
X48459038Y-2822091D01*
X48516481Y-2800169D01*
X48564591Y-2785089D01*
X48576250Y-2782344D01*
X48605717Y-2779107D01*
X48660530Y-2776298D01*
X48740636Y-2773920D01*
X48845985Y-2771972D01*
X48976525Y-2770455D01*
X49132205Y-2769370D01*
X49312974Y-2768718D01*
X49518780Y-2768500D01*
X50395702Y-2768500D01*
X50388250Y-4590950D01*
G36*
X50388250Y-4590950D02*
G01*
X50358776Y-4669979D01*
X50299236Y-4794298D01*
X50218965Y-4907020D01*
X50121059Y-5005052D01*
X50008608Y-5085302D01*
X49884706Y-5144680D01*
X49883379Y-5145173D01*
X49864489Y-5151972D01*
X49846177Y-5157640D01*
X49826013Y-5162291D01*
X49801569Y-5166040D01*
X49770416Y-5169002D01*
X49730127Y-5171291D01*
X49678273Y-5173024D01*
X49612425Y-5174313D01*
X49530155Y-5175275D01*
X49429034Y-5176024D01*
X49306635Y-5176675D01*
X49207450Y-5177131D01*
X49061233Y-5177647D01*
X48938262Y-5177737D01*
X48836387Y-5177351D01*
X48753456Y-5176440D01*
X48687319Y-5174956D01*
X48635824Y-5172849D01*
X48596822Y-5170072D01*
X48568160Y-5166574D01*
X48547689Y-5162308D01*
X48547050Y-5162132D01*
X48468682Y-5133914D01*
X48384039Y-5092979D01*
X48303623Y-5044978D01*
X48238831Y-4996343D01*
X48179135Y-4934769D01*
X48120289Y-4857742D01*
X48068376Y-4774339D01*
X48029475Y-4693639D01*
X48021381Y-4671696D01*
X48007769Y-4627031D01*
X47996577Y-4579331D01*
X47987641Y-4525909D01*
X47980792Y-4464076D01*
X47975864Y-4391143D01*
X47972691Y-4304424D01*
X47972083Y-4264801D01*
X48338858Y-4264801D01*
X48339429Y-4329215D01*
X48340705Y-4379186D01*
X48342796Y-4417452D01*
X48345816Y-4446751D01*
X48349876Y-4469823D01*
X48355087Y-4489406D01*
X48361563Y-4508238D01*
X48362921Y-4511893D01*
X48412622Y-4609358D01*
X48482638Y-4693100D01*
X48570535Y-4760687D01*
X48653826Y-4802185D01*
X48670518Y-4808106D01*
X48689454Y-4812894D01*
X48713290Y-4816647D01*
X48744680Y-4819463D01*
X48786277Y-4821441D01*
X48840737Y-4822678D01*
X48910713Y-4823274D01*
X48998860Y-4823325D01*
X49107831Y-4822930D01*
X49201100Y-4822423D01*
X49325616Y-4821648D01*
X49427401Y-4820831D01*
X49509122Y-4819820D01*
X49573448Y-4818464D01*
X49623048Y-4816611D01*
X49660589Y-4814109D01*
X49688740Y-4810807D01*
X49710168Y-4806553D01*
X49727543Y-4801196D01*
X49743531Y-4794585D01*
X49750892Y-4791204D01*
X49815091Y-4752058D01*
X49880752Y-4696286D01*
X49940552Y-4631097D01*
X49987168Y-4563696D01*
X49993090Y-4552850D01*
X50032950Y-4476650D01*
X50036549Y-3799950D01*
X50040149Y-3123250D01*
X49363449Y-3126850D01*
X48686750Y-3130450D01*
X48610712Y-3167783D01*
X48558646Y-3198356D01*
X48505719Y-3237229D01*
X48476595Y-3263195D01*
X48438017Y-3308332D01*
X48400655Y-3362566D01*
X48381183Y-3397312D01*
X48343850Y-3473350D01*
X48340247Y-3957506D01*
X48339379Y-4081684D01*
X48338878Y-4183203D01*
X48338858Y-4264801D01*
X47972083Y-4264801D01*
X47971106Y-4201228D01*
X47970942Y-4078868D01*
X47972033Y-3934656D01*
X47972603Y-3884803D01*
X47974305Y-3757469D01*
X47976106Y-3652797D01*
X47978142Y-3568049D01*
X47980552Y-3500488D01*
X47983473Y-3447377D01*
X47987043Y-3405976D01*
X47991399Y-3373549D01*
X47996679Y-3347357D01*
X48000303Y-3333650D01*
X48048788Y-3207423D01*
X48117399Y-3091616D01*
X48203314Y-2989644D01*
X48303708Y-2904925D01*
X48402280Y-2847124D01*
X48459038Y-2822091D01*
X48516481Y-2800169D01*
X48564591Y-2785089D01*
X48576250Y-2782344D01*
X48605717Y-2779107D01*
X48660530Y-2776298D01*
X48740636Y-2773920D01*
X48845985Y-2771972D01*
X48976525Y-2770455D01*
X49132205Y-2769370D01*
X49312974Y-2768718D01*
X49518780Y-2768500D01*
X50395702Y-2768500D01*
X50388250Y-4590950D01*
G37*
X41921747Y-10340432D02*
X42014393Y-10342165D01*
X42085819Y-10344773D01*
X42134162Y-10348229D01*
X42142034Y-10349170D01*
X42277805Y-10379569D01*
X42403677Y-10431942D01*
X42517147Y-10504530D01*
X42615713Y-10595575D01*
X42696871Y-10703316D01*
X42729831Y-10762280D01*
X42750370Y-10803929D01*
X42767501Y-10841495D01*
X42781533Y-10877720D01*
X42792775Y-10915347D01*
X42801536Y-10957118D01*
X42808125Y-11005774D01*
X42812851Y-11064059D01*
X42816023Y-11134714D01*
X42817950Y-11220481D01*
X42818940Y-11324102D01*
X42819303Y-11448320D01*
X42819350Y-11556900D01*
X42819256Y-11696850D01*
X42818809Y-11814107D01*
X42817760Y-11911375D01*
X42815858Y-11991362D01*
X42812856Y-12056771D01*
X42808502Y-12110311D01*
X42802547Y-12154685D01*
X42794744Y-12192600D01*
X42784840Y-12226763D01*
X42772589Y-12259878D01*
X42757739Y-12294652D01*
X42749695Y-12312550D01*
X42684207Y-12427568D01*
X42598482Y-12531517D01*
X42496773Y-12620078D01*
X42383331Y-12688929D01*
X42375701Y-12692596D01*
X42347487Y-12705761D01*
X42321072Y-12717173D01*
X42294498Y-12726959D01*
X42265804Y-12735245D01*
X42233030Y-12742154D01*
X42194216Y-12747814D01*
X42147403Y-12752349D01*
X42090631Y-12755886D01*
X42021939Y-12758549D01*
X41939369Y-12760464D01*
X41840959Y-12761757D01*
X41724751Y-12762554D01*
X41588784Y-12762979D01*
X41431098Y-12763158D01*
X41273125Y-12763212D01*
X40400000Y-12763400D01*
X40400000Y-12408655D01*
X40755600Y-12408655D01*
X41425525Y-12405052D01*
X42095450Y-12401450D01*
X42178000Y-12361829D01*
X42266202Y-12307245D01*
X42343599Y-12235447D01*
X42403857Y-12152619D01*
X42416537Y-12128823D01*
X42451050Y-12058550D01*
X42451050Y-11055250D01*
X42417902Y-10985400D01*
X42358904Y-10889166D01*
X42282628Y-10811015D01*
X42190919Y-10752316D01*
X42085625Y-10714435D01*
X42039976Y-10705397D01*
X41994005Y-10700822D01*
X41924122Y-10697522D01*
X41831786Y-10695524D01*
X41718454Y-10694855D01*
X41585584Y-10695544D01*
X41545575Y-10695978D01*
X41433132Y-10697403D01*
X41342978Y-10698840D01*
X41272005Y-10700511D01*
X41217102Y-10702635D01*
X41175162Y-10705434D01*
X41143073Y-10709128D01*
X41117726Y-10713938D01*
X41096013Y-10720083D01*
X41074824Y-10727786D01*
X41069898Y-10729721D01*
X40974354Y-10780075D01*
X40891665Y-10848737D01*
X40825554Y-10931755D01*
X40779747Y-11025174D01*
X40773478Y-11044330D01*
X40769306Y-11062733D01*
X40765800Y-11089239D01*
X40762909Y-11125876D01*
X40760583Y-11174670D01*
X40758770Y-11237650D01*
X40757419Y-11316842D01*
X40756480Y-11414273D01*
X40755902Y-11531971D01*
X40755634Y-11671963D01*
X40755600Y-11756196D01*
X40755600Y-12408655D01*
X40400000Y-12408655D01*
X40400000Y-11883418D01*
X40399999Y-11756196D01*
X40399998Y-11705448D01*
X40400095Y-11550895D01*
X40400441Y-11417777D01*
X40401186Y-11304109D01*
X40402482Y-11207910D01*
X40404480Y-11127196D01*
X40407330Y-11059984D01*
X40411183Y-11004291D01*
X40416190Y-10958135D01*
X40422502Y-10919533D01*
X40430270Y-10886501D01*
X40439644Y-10857057D01*
X40450775Y-10829217D01*
X40463815Y-10800999D01*
X40478914Y-10770420D01*
X40485706Y-10756800D01*
X40543429Y-10663641D01*
X40619547Y-10574709D01*
X40707202Y-10496976D01*
X40799536Y-10437417D01*
X40800050Y-10437149D01*
X40842062Y-10415483D01*
X40878982Y-10397548D01*
X40913700Y-10382967D01*
X40949108Y-10371359D01*
X40988096Y-10362345D01*
X41033558Y-10355547D01*
X41088384Y-10350585D01*
X41155466Y-10347079D01*
X41237694Y-10344651D01*
X41337962Y-10342921D01*
X41459159Y-10341510D01*
X41535112Y-10340739D01*
X41680244Y-10339693D01*
X41809743Y-10339599D01*
X41921747Y-10340432D01*
G36*
X41921747Y-10340432D02*
G01*
X42014393Y-10342165D01*
X42085819Y-10344773D01*
X42134162Y-10348229D01*
X42142034Y-10349170D01*
X42277805Y-10379569D01*
X42403677Y-10431942D01*
X42517147Y-10504530D01*
X42615713Y-10595575D01*
X42696871Y-10703316D01*
X42729831Y-10762280D01*
X42750370Y-10803929D01*
X42767501Y-10841495D01*
X42781533Y-10877720D01*
X42792775Y-10915347D01*
X42801536Y-10957118D01*
X42808125Y-11005774D01*
X42812851Y-11064059D01*
X42816023Y-11134714D01*
X42817950Y-11220481D01*
X42818940Y-11324102D01*
X42819303Y-11448320D01*
X42819350Y-11556900D01*
X42819256Y-11696850D01*
X42818809Y-11814107D01*
X42817760Y-11911375D01*
X42815858Y-11991362D01*
X42812856Y-12056771D01*
X42808502Y-12110311D01*
X42802547Y-12154685D01*
X42794744Y-12192600D01*
X42784840Y-12226763D01*
X42772589Y-12259878D01*
X42757739Y-12294652D01*
X42749695Y-12312550D01*
X42684207Y-12427568D01*
X42598482Y-12531517D01*
X42496773Y-12620078D01*
X42383331Y-12688929D01*
X42375701Y-12692596D01*
X42347487Y-12705761D01*
X42321072Y-12717173D01*
X42294498Y-12726959D01*
X42265804Y-12735245D01*
X42233030Y-12742154D01*
X42194216Y-12747814D01*
X42147403Y-12752349D01*
X42090631Y-12755886D01*
X42021939Y-12758549D01*
X41939369Y-12760464D01*
X41840959Y-12761757D01*
X41724751Y-12762554D01*
X41588784Y-12762979D01*
X41431098Y-12763158D01*
X41273125Y-12763212D01*
X40400000Y-12763400D01*
X40400000Y-12408655D01*
X40755600Y-12408655D01*
X41425525Y-12405052D01*
X42095450Y-12401450D01*
X42178000Y-12361829D01*
X42266202Y-12307245D01*
X42343599Y-12235447D01*
X42403857Y-12152619D01*
X42416537Y-12128823D01*
X42451050Y-12058550D01*
X42451050Y-11055250D01*
X42417902Y-10985400D01*
X42358904Y-10889166D01*
X42282628Y-10811015D01*
X42190919Y-10752316D01*
X42085625Y-10714435D01*
X42039976Y-10705397D01*
X41994005Y-10700822D01*
X41924122Y-10697522D01*
X41831786Y-10695524D01*
X41718454Y-10694855D01*
X41585584Y-10695544D01*
X41545575Y-10695978D01*
X41433132Y-10697403D01*
X41342978Y-10698840D01*
X41272005Y-10700511D01*
X41217102Y-10702635D01*
X41175162Y-10705434D01*
X41143073Y-10709128D01*
X41117726Y-10713938D01*
X41096013Y-10720083D01*
X41074824Y-10727786D01*
X41069898Y-10729721D01*
X40974354Y-10780075D01*
X40891665Y-10848737D01*
X40825554Y-10931755D01*
X40779747Y-11025174D01*
X40773478Y-11044330D01*
X40769306Y-11062733D01*
X40765800Y-11089239D01*
X40762909Y-11125876D01*
X40760583Y-11174670D01*
X40758770Y-11237650D01*
X40757419Y-11316842D01*
X40756480Y-11414273D01*
X40755902Y-11531971D01*
X40755634Y-11671963D01*
X40755600Y-11756196D01*
X40755600Y-12408655D01*
X40400000Y-12408655D01*
X40400000Y-11883418D01*
X40399999Y-11756196D01*
X40399998Y-11705448D01*
X40400095Y-11550895D01*
X40400441Y-11417777D01*
X40401186Y-11304109D01*
X40402482Y-11207910D01*
X40404480Y-11127196D01*
X40407330Y-11059984D01*
X40411183Y-11004291D01*
X40416190Y-10958135D01*
X40422502Y-10919533D01*
X40430270Y-10886501D01*
X40439644Y-10857057D01*
X40450775Y-10829217D01*
X40463815Y-10800999D01*
X40478914Y-10770420D01*
X40485706Y-10756800D01*
X40543429Y-10663641D01*
X40619547Y-10574709D01*
X40707202Y-10496976D01*
X40799536Y-10437417D01*
X40800050Y-10437149D01*
X40842062Y-10415483D01*
X40878982Y-10397548D01*
X40913700Y-10382967D01*
X40949108Y-10371359D01*
X40988096Y-10362345D01*
X41033558Y-10355547D01*
X41088384Y-10350585D01*
X41155466Y-10347079D01*
X41237694Y-10344651D01*
X41337962Y-10342921D01*
X41459159Y-10341510D01*
X41535112Y-10340739D01*
X41680244Y-10339693D01*
X41809743Y-10339599D01*
X41921747Y-10340432D01*
G37*
X-46271936Y-2772343D02*
X-46157742Y-2798843D01*
X-46052031Y-2846351D01*
X-45957380Y-2913407D01*
X-45876367Y-2998552D01*
X-45811570Y-3100324D01*
X-45767067Y-3212130D01*
X-45763703Y-3225494D01*
X-45760723Y-3242571D01*
X-45758105Y-3264870D01*
X-45755827Y-3293905D01*
X-45753864Y-3331186D01*
X-45752195Y-3378226D01*
X-45750797Y-3436537D01*
X-45749646Y-3507630D01*
X-45748720Y-3593017D01*
X-45747996Y-3694210D01*
X-45747451Y-3812721D01*
X-45747062Y-3950061D01*
X-45746806Y-4107743D01*
X-45746661Y-4287278D01*
X-45746604Y-4490178D01*
X-45746600Y-4566100D01*
X-45746600Y-5851090D01*
X-43954331Y-6884720D01*
X-43692343Y-7035916D01*
X-43451998Y-7174843D01*
X-43232848Y-7301764D01*
X-43034441Y-7416944D01*
X-42856331Y-7520647D01*
X-42698068Y-7613138D01*
X-42559202Y-7694680D01*
X-42439286Y-7765538D01*
X-42337869Y-7825976D01*
X-42254503Y-7876258D01*
X-42188738Y-7916650D01*
X-42140126Y-7947414D01*
X-42108218Y-7968816D01*
X-42094087Y-7979669D01*
X-42022910Y-8060533D01*
X-41984532Y-8125452D01*
X-41964053Y-8169554D01*
X-41951658Y-8205889D01*
X-41945371Y-8243947D01*
X-41943215Y-8293217D01*
X-41943067Y-8324482D01*
X-41944138Y-8383612D01*
X-41948293Y-8425942D01*
X-41957165Y-8460027D01*
X-41972387Y-8494427D01*
X-41977290Y-8503916D01*
X-42022033Y-8569740D01*
X-42081765Y-8630705D01*
X-42148809Y-8679988D01*
X-42206853Y-8707963D01*
X-42291895Y-8726893D01*
X-42386433Y-8730493D01*
X-42479965Y-8719094D01*
X-42552550Y-8697146D01*
X-42571768Y-8687380D01*
X-42611759Y-8665569D01*
X-42671318Y-8632403D01*
X-42749239Y-8588569D01*
X-42844318Y-8534756D01*
X-42955350Y-8471653D01*
X-43081129Y-8399948D01*
X-43220451Y-8320331D01*
X-43372110Y-8233488D01*
X-43534902Y-8140110D01*
X-43707621Y-8040885D01*
X-43889062Y-7936500D01*
X-44078021Y-7827646D01*
X-44273292Y-7715010D01*
X-44456437Y-7609240D01*
X-46284124Y-6553100D01*
X-46542731Y-6553100D01*
X-48370341Y-7609178D01*
X-48570239Y-7724620D01*
X-48764872Y-7836885D01*
X-48953040Y-7945289D01*
X-49133541Y-8049144D01*
X-49305174Y-8147764D01*
X-49466740Y-8240462D01*
X-49617037Y-8326552D01*
X-49754864Y-8405347D01*
X-49879020Y-8476161D01*
X-49988305Y-8538306D01*
X-50081518Y-8591097D01*
X-50157458Y-8633847D01*
X-50214925Y-8665869D01*
X-50252716Y-8686478D01*
X-50269067Y-8694762D01*
X-50355594Y-8720568D01*
X-50449525Y-8731636D01*
X-50540441Y-8727201D01*
X-50585300Y-8717902D01*
X-50680091Y-8678994D01*
X-50762179Y-8620068D01*
X-50827792Y-8544211D01*
X-50855243Y-8496894D01*
X-50870075Y-8461401D01*
X-50878849Y-8423735D01*
X-50882936Y-8375614D01*
X-50883750Y-8324559D01*
X-50882831Y-8266228D01*
X-50878746Y-8223750D01*
X-50869508Y-8187607D01*
X-50853127Y-8148280D01*
X-50842169Y-8125529D01*
X-50783424Y-8033438D01*
X-50732604Y-7979669D01*
X-50714430Y-7966010D01*
X-50679977Y-7943226D01*
X-50628800Y-7911057D01*
X-50560456Y-7869240D01*
X-50474500Y-7817515D01*
X-50370486Y-7755619D01*
X-50247973Y-7683292D01*
X-50106513Y-7600273D01*
X-49945665Y-7506298D01*
X-49764982Y-7401108D01*
X-49564021Y-7284440D01*
X-49342337Y-7156034D01*
X-49099486Y-7015627D01*
X-48835024Y-6862959D01*
X-48815245Y-6851550D01*
X-46965871Y-5784750D01*
X-46965584Y-4578250D01*
X-46965397Y-4369829D01*
X-46964944Y-4175967D01*
X-46964239Y-3997829D01*
X-46963293Y-3836583D01*
X-46962117Y-3693396D01*
X-46960723Y-3569435D01*
X-46959123Y-3465866D01*
X-46957329Y-3383858D01*
X-46955352Y-3324577D01*
X-46953205Y-3289190D01*
X-46952552Y-3283566D01*
X-46924143Y-3171095D01*
X-46874175Y-3066122D01*
X-46805643Y-2972038D01*
X-46721538Y-2892234D01*
X-46624855Y-2830102D01*
X-46518584Y-2789035D01*
X-46515457Y-2788210D01*
X-46392033Y-2768312D01*
X-46271936Y-2772343D01*
G36*
X-46271936Y-2772343D02*
G01*
X-46157742Y-2798843D01*
X-46052031Y-2846351D01*
X-45957380Y-2913407D01*
X-45876367Y-2998552D01*
X-45811570Y-3100324D01*
X-45767067Y-3212130D01*
X-45763703Y-3225494D01*
X-45760723Y-3242571D01*
X-45758105Y-3264870D01*
X-45755827Y-3293905D01*
X-45753864Y-3331186D01*
X-45752195Y-3378226D01*
X-45750797Y-3436537D01*
X-45749646Y-3507630D01*
X-45748720Y-3593017D01*
X-45747996Y-3694210D01*
X-45747451Y-3812721D01*
X-45747062Y-3950061D01*
X-45746806Y-4107743D01*
X-45746661Y-4287278D01*
X-45746604Y-4490178D01*
X-45746600Y-4566100D01*
X-45746600Y-5851090D01*
X-43954331Y-6884720D01*
X-43692343Y-7035916D01*
X-43451998Y-7174843D01*
X-43232848Y-7301764D01*
X-43034441Y-7416944D01*
X-42856331Y-7520647D01*
X-42698068Y-7613138D01*
X-42559202Y-7694680D01*
X-42439286Y-7765538D01*
X-42337869Y-7825976D01*
X-42254503Y-7876258D01*
X-42188738Y-7916650D01*
X-42140126Y-7947414D01*
X-42108218Y-7968816D01*
X-42094087Y-7979669D01*
X-42022910Y-8060533D01*
X-41984532Y-8125452D01*
X-41964053Y-8169554D01*
X-41951658Y-8205889D01*
X-41945371Y-8243947D01*
X-41943215Y-8293217D01*
X-41943067Y-8324482D01*
X-41944138Y-8383612D01*
X-41948293Y-8425942D01*
X-41957165Y-8460027D01*
X-41972387Y-8494427D01*
X-41977290Y-8503916D01*
X-42022033Y-8569740D01*
X-42081765Y-8630705D01*
X-42148809Y-8679988D01*
X-42206853Y-8707963D01*
X-42291895Y-8726893D01*
X-42386433Y-8730493D01*
X-42479965Y-8719094D01*
X-42552550Y-8697146D01*
X-42571768Y-8687380D01*
X-42611759Y-8665569D01*
X-42671318Y-8632403D01*
X-42749239Y-8588569D01*
X-42844318Y-8534756D01*
X-42955350Y-8471653D01*
X-43081129Y-8399948D01*
X-43220451Y-8320331D01*
X-43372110Y-8233488D01*
X-43534902Y-8140110D01*
X-43707621Y-8040885D01*
X-43889062Y-7936500D01*
X-44078021Y-7827646D01*
X-44273292Y-7715010D01*
X-44456437Y-7609240D01*
X-46284124Y-6553100D01*
X-46542731Y-6553100D01*
X-48370341Y-7609178D01*
X-48570239Y-7724620D01*
X-48764872Y-7836885D01*
X-48953040Y-7945289D01*
X-49133541Y-8049144D01*
X-49305174Y-8147764D01*
X-49466740Y-8240462D01*
X-49617037Y-8326552D01*
X-49754864Y-8405347D01*
X-49879020Y-8476161D01*
X-49988305Y-8538306D01*
X-50081518Y-8591097D01*
X-50157458Y-8633847D01*
X-50214925Y-8665869D01*
X-50252716Y-8686478D01*
X-50269067Y-8694762D01*
X-50355594Y-8720568D01*
X-50449525Y-8731636D01*
X-50540441Y-8727201D01*
X-50585300Y-8717902D01*
X-50680091Y-8678994D01*
X-50762179Y-8620068D01*
X-50827792Y-8544211D01*
X-50855243Y-8496894D01*
X-50870075Y-8461401D01*
X-50878849Y-8423735D01*
X-50882936Y-8375614D01*
X-50883750Y-8324559D01*
X-50882831Y-8266228D01*
X-50878746Y-8223750D01*
X-50869508Y-8187607D01*
X-50853127Y-8148280D01*
X-50842169Y-8125529D01*
X-50783424Y-8033438D01*
X-50732604Y-7979669D01*
X-50714430Y-7966010D01*
X-50679977Y-7943226D01*
X-50628800Y-7911057D01*
X-50560456Y-7869240D01*
X-50474500Y-7817515D01*
X-50370486Y-7755619D01*
X-50247973Y-7683292D01*
X-50106513Y-7600273D01*
X-49945665Y-7506298D01*
X-49764982Y-7401108D01*
X-49564021Y-7284440D01*
X-49342337Y-7156034D01*
X-49099486Y-7015627D01*
X-48835024Y-6862959D01*
X-48815245Y-6851550D01*
X-46965871Y-5784750D01*
X-46965584Y-4578250D01*
X-46965397Y-4369829D01*
X-46964944Y-4175967D01*
X-46964239Y-3997829D01*
X-46963293Y-3836583D01*
X-46962117Y-3693396D01*
X-46960723Y-3569435D01*
X-46959123Y-3465866D01*
X-46957329Y-3383858D01*
X-46955352Y-3324577D01*
X-46953205Y-3289190D01*
X-46952552Y-3283566D01*
X-46924143Y-3171095D01*
X-46874175Y-3066122D01*
X-46805643Y-2972038D01*
X-46721538Y-2892234D01*
X-46624855Y-2830102D01*
X-46518584Y-2789035D01*
X-46515457Y-2788210D01*
X-46392033Y-2768312D01*
X-46271936Y-2772343D01*
G37*
X-55653745Y9561558D02*
X-55477239Y9561132D01*
X-55277737Y9560581D01*
X-55162749Y9560266D01*
X-53893650Y9556850D01*
X-53820201Y9529088D01*
X-53708763Y9473560D01*
X-53606298Y9395266D01*
X-53513641Y9295500D01*
X-53431628Y9175556D01*
X-53361094Y9036730D01*
X-53302875Y8880316D01*
X-53257805Y8707608D01*
X-53243970Y8636100D01*
X-53241938Y8623851D01*
X-53240027Y8610428D01*
X-53238233Y8595056D01*
X-53236553Y8576957D01*
X-53234982Y8555356D01*
X-53233517Y8529477D01*
X-53232155Y8498544D01*
X-53230891Y8461780D01*
X-53229723Y8418410D01*
X-53228645Y8367657D01*
X-53227656Y8308746D01*
X-53226750Y8240899D01*
X-53225924Y8163342D01*
X-53225175Y8075297D01*
X-53224498Y7975990D01*
X-53223891Y7864642D01*
X-53223349Y7740480D01*
X-53222869Y7602726D01*
X-53222446Y7450604D01*
X-53222078Y7283338D01*
X-53221761Y7100153D01*
X-53221490Y6900271D01*
X-53221263Y6682917D01*
X-53221075Y6447316D01*
X-53220923Y6192689D01*
X-53220803Y5918262D01*
X-53220712Y5623259D01*
X-53220645Y5306903D01*
X-53220599Y4968418D01*
X-53220570Y4607028D01*
X-53220556Y4221957D01*
X-53220551Y3812429D01*
X-53220550Y3721200D01*
X-53220554Y3306318D01*
X-53220566Y2916059D01*
X-53220592Y2549648D01*
X-53220633Y2206309D01*
X-53220695Y1885265D01*
X-53220781Y1585741D01*
X-53220895Y1306960D01*
X-53221040Y1048146D01*
X-53221219Y808523D01*
X-53221438Y587315D01*
X-53221699Y383746D01*
X-53222006Y197040D01*
X-53222363Y26420D01*
X-53222773Y-128889D01*
X-53223241Y-269663D01*
X-53223769Y-396680D01*
X-53224362Y-510714D01*
X-53225023Y-612542D01*
X-53225757Y-702941D01*
X-53226566Y-782685D01*
X-53227454Y-852552D01*
X-53228426Y-913317D01*
X-53229484Y-965757D01*
X-53230633Y-1010648D01*
X-53231875Y-1048765D01*
X-53233216Y-1080885D01*
X-53234659Y-1107784D01*
X-53236206Y-1130238D01*
X-53237863Y-1149024D01*
X-53239632Y-1164916D01*
X-53241518Y-1178693D01*
X-53243523Y-1191129D01*
X-53243970Y-1193700D01*
X-53282969Y-1369407D01*
X-53335168Y-1530213D01*
X-53399622Y-1674705D01*
X-53475386Y-1801471D01*
X-53561517Y-1909097D01*
X-53657069Y-1996173D01*
X-53761100Y-2061286D01*
X-53847214Y-2095824D01*
X-53861192Y-2099927D01*
X-53875994Y-2103553D01*
X-53893188Y-2106728D01*
X-53914345Y-2109481D01*
X-53941035Y-2111839D01*
X-53974827Y-2113829D01*
X-54017292Y-2115481D01*
X-54069999Y-2116821D01*
X-54134518Y-2117877D01*
X-54212419Y-2118677D01*
X-54305272Y-2119250D01*
X-54414646Y-2119621D01*
X-54542112Y-2119820D01*
X-54689239Y-2119874D01*
X-54857596Y-2119811D01*
X-55048755Y-2119659D01*
X-55187213Y-2119524D01*
X-55364889Y-2119233D01*
X-55536047Y-2118736D01*
X-55698890Y-2118052D01*
X-55851625Y-2117197D01*
X-55992456Y-2116188D01*
X-56119590Y-2115042D01*
X-56231231Y-2113777D01*
X-56325586Y-2112410D01*
X-56400858Y-2110957D01*
X-56455254Y-2109437D01*
X-56486978Y-2107865D01*
X-56493923Y-2107033D01*
X-56572374Y-2079393D01*
X-56656289Y-2033875D01*
X-56738608Y-1974702D01*
X-56786881Y-1931915D01*
X-56881958Y-1824611D01*
X-56963179Y-1699267D01*
X-57030990Y-1554880D01*
X-57085832Y-1390444D01*
X-57128150Y-1204955D01*
X-57140813Y-1130200D01*
X-57142371Y-1107416D01*
X-57143860Y-1060321D01*
X-57145281Y-990002D01*
X-57146634Y-897549D01*
X-57147919Y-784049D01*
X-57149135Y-650590D01*
X-57150283Y-498262D01*
X-57151363Y-328151D01*
X-57152375Y-141347D01*
X-57153319Y61062D01*
X-57154195Y277987D01*
X-57155002Y508342D01*
X-57155741Y751036D01*
X-57156412Y1004983D01*
X-57157015Y1269093D01*
X-57157549Y1542278D01*
X-57158016Y1823451D01*
X-57158414Y2111522D01*
X-57158744Y2405404D01*
X-57159006Y2704007D01*
X-57159199Y3006245D01*
X-57159325Y3311027D01*
X-57159382Y3617268D01*
X-57159371Y3923876D01*
X-57159292Y4229766D01*
X-57159144Y4533848D01*
X-57158929Y4835033D01*
X-57158645Y5132235D01*
X-57158293Y5424363D01*
X-57157873Y5710331D01*
X-57157385Y5989049D01*
X-57156828Y6259430D01*
X-57156203Y6520385D01*
X-57155510Y6770826D01*
X-57154749Y7009664D01*
X-57153920Y7235811D01*
X-57153023Y7448180D01*
X-57152057Y7645680D01*
X-57151023Y7827226D01*
X-57149921Y7991727D01*
X-57148751Y8138095D01*
X-57147512Y8265243D01*
X-57146206Y8372082D01*
X-57145413Y8421420D01*
X-56440233Y8421420D01*
X-56436688Y3674185D01*
X-56433142Y-1073050D01*
X-56403962Y-1173664D01*
X-56379072Y-1250270D01*
X-56351941Y-1318116D01*
X-56325210Y-1371024D01*
X-56309909Y-1393725D01*
X-56302628Y-1396601D01*
X-56284800Y-1399134D01*
X-56255107Y-1401340D01*
X-56212229Y-1403239D01*
X-56154846Y-1404849D01*
X-56081639Y-1406189D01*
X-55991289Y-1407278D01*
X-55882476Y-1408133D01*
X-55753881Y-1408774D01*
X-55604183Y-1409219D01*
X-55432065Y-1409486D01*
X-55236206Y-1409595D01*
X-55181794Y-1409600D01*
X-54066398Y-1409600D01*
X-54029093Y-1330225D01*
X-53996902Y-1252078D01*
X-53972311Y-1168705D01*
X-53953933Y-1074005D01*
X-53940378Y-961876D01*
X-53937296Y-927000D01*
X-53935956Y-898122D01*
X-53934715Y-845065D01*
X-53933572Y-767762D01*
X-53932526Y-666144D01*
X-53931579Y-540145D01*
X-53930730Y-389696D01*
X-53929979Y-214729D01*
X-53929325Y-15178D01*
X-53928768Y209027D01*
X-53928310Y457951D01*
X-53927948Y731664D01*
X-53927684Y1030232D01*
X-53927516Y1353724D01*
X-53927446Y1702207D01*
X-53927472Y2075748D01*
X-53927595Y2474416D01*
X-53927814Y2898278D01*
X-53928130Y3347401D01*
X-53928542Y3821854D01*
X-53928561Y3841850D01*
X-53928957Y4250656D01*
X-53929344Y4634836D01*
X-53929727Y4995166D01*
X-53930110Y5332422D01*
X-53930497Y5647377D01*
X-53930893Y5940808D01*
X-53931301Y6213489D01*
X-53931727Y6466195D01*
X-53932173Y6699702D01*
X-53932644Y6914784D01*
X-53933144Y7112216D01*
X-53933678Y7292773D01*
X-53934249Y7457231D01*
X-53934862Y7606365D01*
X-53935520Y7740949D01*
X-53936229Y7861758D01*
X-53936992Y7969568D01*
X-53937812Y8065154D01*
X-53938696Y8149290D01*
X-53939646Y8222752D01*
X-53940666Y8286315D01*
X-53941762Y8340753D01*
X-53942936Y8386842D01*
X-53944194Y8425357D01*
X-53945539Y8457072D01*
X-53946975Y8482764D01*
X-53948507Y8503207D01*
X-53950139Y8519175D01*
X-53951875Y8531444D01*
X-53953718Y8540790D01*
X-53953733Y8540850D01*
X-53975928Y8625507D01*
X-54001114Y8704583D01*
X-54026939Y8771281D01*
X-54048193Y8814107D01*
X-54070658Y8852137D01*
X-55188654Y8848894D01*
X-56306650Y8845650D01*
X-56347072Y8763100D01*
X-56368711Y8710595D01*
X-56390490Y8643750D01*
X-56409003Y8573378D01*
X-56413864Y8550985D01*
X-56440233Y8421420D01*
X-57145413Y8421420D01*
X-57144831Y8457524D01*
X-57143388Y8520481D01*
X-57141876Y8559863D01*
X-57140813Y8572600D01*
X-57106296Y8749890D01*
X-57060259Y8913365D01*
X-57003791Y9059877D01*
X-56937976Y9186277D01*
X-56918501Y9216916D01*
X-56865666Y9287526D01*
X-56803421Y9356654D01*
X-56737634Y9418618D01*
X-56674170Y9467736D01*
X-56635932Y9490598D01*
X-56613117Y9502302D01*
X-56592510Y9512688D01*
X-56572535Y9521833D01*
X-56551618Y9529810D01*
X-56528183Y9536693D01*
X-56500655Y9542558D01*
X-56467459Y9547478D01*
X-56427020Y9551528D01*
X-56377763Y9554784D01*
X-56318113Y9557318D01*
X-56246495Y9559206D01*
X-56161332Y9560522D01*
X-56061051Y9561341D01*
X-55944077Y9561737D01*
X-55808833Y9561784D01*
X-55653745Y9561558D01*
G36*
X-55653745Y9561558D02*
G01*
X-55477239Y9561132D01*
X-55277737Y9560581D01*
X-55162749Y9560266D01*
X-53893650Y9556850D01*
X-53820201Y9529088D01*
X-53708763Y9473560D01*
X-53606298Y9395266D01*
X-53513641Y9295500D01*
X-53431628Y9175556D01*
X-53361094Y9036730D01*
X-53302875Y8880316D01*
X-53257805Y8707608D01*
X-53243970Y8636100D01*
X-53241938Y8623851D01*
X-53240027Y8610428D01*
X-53238233Y8595056D01*
X-53236553Y8576957D01*
X-53234982Y8555356D01*
X-53233517Y8529477D01*
X-53232155Y8498544D01*
X-53230891Y8461780D01*
X-53229723Y8418410D01*
X-53228645Y8367657D01*
X-53227656Y8308746D01*
X-53226750Y8240899D01*
X-53225924Y8163342D01*
X-53225175Y8075297D01*
X-53224498Y7975990D01*
X-53223891Y7864642D01*
X-53223349Y7740480D01*
X-53222869Y7602726D01*
X-53222446Y7450604D01*
X-53222078Y7283338D01*
X-53221761Y7100153D01*
X-53221490Y6900271D01*
X-53221263Y6682917D01*
X-53221075Y6447316D01*
X-53220923Y6192689D01*
X-53220803Y5918262D01*
X-53220712Y5623259D01*
X-53220645Y5306903D01*
X-53220599Y4968418D01*
X-53220570Y4607028D01*
X-53220556Y4221957D01*
X-53220551Y3812429D01*
X-53220550Y3721200D01*
X-53220554Y3306318D01*
X-53220566Y2916059D01*
X-53220592Y2549648D01*
X-53220633Y2206309D01*
X-53220695Y1885265D01*
X-53220781Y1585741D01*
X-53220895Y1306960D01*
X-53221040Y1048146D01*
X-53221219Y808523D01*
X-53221438Y587315D01*
X-53221699Y383746D01*
X-53222006Y197040D01*
X-53222363Y26420D01*
X-53222773Y-128889D01*
X-53223241Y-269663D01*
X-53223769Y-396680D01*
X-53224362Y-510714D01*
X-53225023Y-612542D01*
X-53225757Y-702941D01*
X-53226566Y-782685D01*
X-53227454Y-852552D01*
X-53228426Y-913317D01*
X-53229484Y-965757D01*
X-53230633Y-1010648D01*
X-53231875Y-1048765D01*
X-53233216Y-1080885D01*
X-53234659Y-1107784D01*
X-53236206Y-1130238D01*
X-53237863Y-1149024D01*
X-53239632Y-1164916D01*
X-53241518Y-1178693D01*
X-53243523Y-1191129D01*
X-53243970Y-1193700D01*
X-53282969Y-1369407D01*
X-53335168Y-1530213D01*
X-53399622Y-1674705D01*
X-53475386Y-1801471D01*
X-53561517Y-1909097D01*
X-53657069Y-1996173D01*
X-53761100Y-2061286D01*
X-53847214Y-2095824D01*
X-53861192Y-2099927D01*
X-53875994Y-2103553D01*
X-53893188Y-2106728D01*
X-53914345Y-2109481D01*
X-53941035Y-2111839D01*
X-53974827Y-2113829D01*
X-54017292Y-2115481D01*
X-54069999Y-2116821D01*
X-54134518Y-2117877D01*
X-54212419Y-2118677D01*
X-54305272Y-2119250D01*
X-54414646Y-2119621D01*
X-54542112Y-2119820D01*
X-54689239Y-2119874D01*
X-54857596Y-2119811D01*
X-55048755Y-2119659D01*
X-55187213Y-2119524D01*
X-55364889Y-2119233D01*
X-55536047Y-2118736D01*
X-55698890Y-2118052D01*
X-55851625Y-2117197D01*
X-55992456Y-2116188D01*
X-56119590Y-2115042D01*
X-56231231Y-2113777D01*
X-56325586Y-2112410D01*
X-56400858Y-2110957D01*
X-56455254Y-2109437D01*
X-56486978Y-2107865D01*
X-56493923Y-2107033D01*
X-56572374Y-2079393D01*
X-56656289Y-2033875D01*
X-56738608Y-1974702D01*
X-56786881Y-1931915D01*
X-56881958Y-1824611D01*
X-56963179Y-1699267D01*
X-57030990Y-1554880D01*
X-57085832Y-1390444D01*
X-57128150Y-1204955D01*
X-57140813Y-1130200D01*
X-57142371Y-1107416D01*
X-57143860Y-1060321D01*
X-57145281Y-990002D01*
X-57146634Y-897549D01*
X-57147919Y-784049D01*
X-57149135Y-650590D01*
X-57150283Y-498262D01*
X-57151363Y-328151D01*
X-57152375Y-141347D01*
X-57153319Y61062D01*
X-57154195Y277987D01*
X-57155002Y508342D01*
X-57155741Y751036D01*
X-57156412Y1004983D01*
X-57157015Y1269093D01*
X-57157549Y1542278D01*
X-57158016Y1823451D01*
X-57158414Y2111522D01*
X-57158744Y2405404D01*
X-57159006Y2704007D01*
X-57159199Y3006245D01*
X-57159325Y3311027D01*
X-57159382Y3617268D01*
X-57159371Y3923876D01*
X-57159292Y4229766D01*
X-57159144Y4533848D01*
X-57158929Y4835033D01*
X-57158645Y5132235D01*
X-57158293Y5424363D01*
X-57157873Y5710331D01*
X-57157385Y5989049D01*
X-57156828Y6259430D01*
X-57156203Y6520385D01*
X-57155510Y6770826D01*
X-57154749Y7009664D01*
X-57153920Y7235811D01*
X-57153023Y7448180D01*
X-57152057Y7645680D01*
X-57151023Y7827226D01*
X-57149921Y7991727D01*
X-57148751Y8138095D01*
X-57147512Y8265243D01*
X-57146206Y8372082D01*
X-57145413Y8421420D01*
X-56440233Y8421420D01*
X-56436688Y3674185D01*
X-56433142Y-1073050D01*
X-56403962Y-1173664D01*
X-56379072Y-1250270D01*
X-56351941Y-1318116D01*
X-56325210Y-1371024D01*
X-56309909Y-1393725D01*
X-56302628Y-1396601D01*
X-56284800Y-1399134D01*
X-56255107Y-1401340D01*
X-56212229Y-1403239D01*
X-56154846Y-1404849D01*
X-56081639Y-1406189D01*
X-55991289Y-1407278D01*
X-55882476Y-1408133D01*
X-55753881Y-1408774D01*
X-55604183Y-1409219D01*
X-55432065Y-1409486D01*
X-55236206Y-1409595D01*
X-55181794Y-1409600D01*
X-54066398Y-1409600D01*
X-54029093Y-1330225D01*
X-53996902Y-1252078D01*
X-53972311Y-1168705D01*
X-53953933Y-1074005D01*
X-53940378Y-961876D01*
X-53937296Y-927000D01*
X-53935956Y-898122D01*
X-53934715Y-845065D01*
X-53933572Y-767762D01*
X-53932526Y-666144D01*
X-53931579Y-540145D01*
X-53930730Y-389696D01*
X-53929979Y-214729D01*
X-53929325Y-15178D01*
X-53928768Y209027D01*
X-53928310Y457951D01*
X-53927948Y731664D01*
X-53927684Y1030232D01*
X-53927516Y1353724D01*
X-53927446Y1702207D01*
X-53927472Y2075748D01*
X-53927595Y2474416D01*
X-53927814Y2898278D01*
X-53928130Y3347401D01*
X-53928542Y3821854D01*
X-53928561Y3841850D01*
X-53928957Y4250656D01*
X-53929344Y4634836D01*
X-53929727Y4995166D01*
X-53930110Y5332422D01*
X-53930497Y5647377D01*
X-53930893Y5940808D01*
X-53931301Y6213489D01*
X-53931727Y6466195D01*
X-53932173Y6699702D01*
X-53932644Y6914784D01*
X-53933144Y7112216D01*
X-53933678Y7292773D01*
X-53934249Y7457231D01*
X-53934862Y7606365D01*
X-53935520Y7740949D01*
X-53936229Y7861758D01*
X-53936992Y7969568D01*
X-53937812Y8065154D01*
X-53938696Y8149290D01*
X-53939646Y8222752D01*
X-53940666Y8286315D01*
X-53941762Y8340753D01*
X-53942936Y8386842D01*
X-53944194Y8425357D01*
X-53945539Y8457072D01*
X-53946975Y8482764D01*
X-53948507Y8503207D01*
X-53950139Y8519175D01*
X-53951875Y8531444D01*
X-53953718Y8540790D01*
X-53953733Y8540850D01*
X-53975928Y8625507D01*
X-54001114Y8704583D01*
X-54026939Y8771281D01*
X-54048193Y8814107D01*
X-54070658Y8852137D01*
X-55188654Y8848894D01*
X-56306650Y8845650D01*
X-56347072Y8763100D01*
X-56368711Y8710595D01*
X-56390490Y8643750D01*
X-56409003Y8573378D01*
X-56413864Y8550985D01*
X-56440233Y8421420D01*
X-57145413Y8421420D01*
X-57144831Y8457524D01*
X-57143388Y8520481D01*
X-57141876Y8559863D01*
X-57140813Y8572600D01*
X-57106296Y8749890D01*
X-57060259Y8913365D01*
X-57003791Y9059877D01*
X-56937976Y9186277D01*
X-56918501Y9216916D01*
X-56865666Y9287526D01*
X-56803421Y9356654D01*
X-56737634Y9418618D01*
X-56674170Y9467736D01*
X-56635932Y9490598D01*
X-56613117Y9502302D01*
X-56592510Y9512688D01*
X-56572535Y9521833D01*
X-56551618Y9529810D01*
X-56528183Y9536693D01*
X-56500655Y9542558D01*
X-56467459Y9547478D01*
X-56427020Y9551528D01*
X-56377763Y9554784D01*
X-56318113Y9557318D01*
X-56246495Y9559206D01*
X-56161332Y9560522D01*
X-56061051Y9561341D01*
X-55944077Y9561737D01*
X-55808833Y9561784D01*
X-55653745Y9561558D01*
G37*
X-37410156Y9565404D02*
X-37251852Y9564797D01*
X-37098722Y9563865D01*
X-36952949Y9562608D01*
X-36816716Y9561026D01*
X-36692208Y9559119D01*
X-36581607Y9556887D01*
X-36487098Y9554330D01*
X-36410864Y9551449D01*
X-36355089Y9548242D01*
X-36321957Y9544711D01*
X-36317295Y9543733D01*
X-36203930Y9501270D01*
X-36098754Y9435793D01*
X-36002641Y9348607D01*
X-35916465Y9241023D01*
X-35841102Y9114349D01*
X-35777424Y8969893D01*
X-35726308Y8808964D01*
X-35688628Y8632870D01*
X-35682487Y8593970D01*
X-35680757Y8580387D01*
X-35679130Y8563133D01*
X-35677603Y8541447D01*
X-35676172Y8514564D01*
X-35674835Y8481721D01*
X-35673588Y8442156D01*
X-35672429Y8395106D01*
X-35671355Y8339806D01*
X-35670361Y8275494D01*
X-35669446Y8201406D01*
X-35668605Y8116780D01*
X-35667837Y8020852D01*
X-35667137Y7912860D01*
X-35666504Y7792039D01*
X-35665933Y7657627D01*
X-35665422Y7508860D01*
X-35664967Y7344976D01*
X-35664566Y7165211D01*
X-35664215Y6968803D01*
X-35663912Y6754986D01*
X-35663653Y6523000D01*
X-35663435Y6272080D01*
X-35663255Y6001464D01*
X-35663110Y5710387D01*
X-35662997Y5398088D01*
X-35662913Y5063802D01*
X-35662854Y4706767D01*
X-35662818Y4326219D01*
X-35662802Y3921395D01*
X-35662800Y3721201D01*
X-35662809Y3304626D01*
X-35662835Y2912689D01*
X-35662882Y2544626D01*
X-35662954Y2199673D01*
X-35663053Y1877067D01*
X-35663182Y1576045D01*
X-35663345Y1295844D01*
X-35663545Y1035701D01*
X-35663784Y794853D01*
X-35664066Y572536D01*
X-35664394Y367987D01*
X-35664771Y180443D01*
X-35665200Y9141D01*
X-35665684Y-146682D01*
X-35666226Y-287790D01*
X-35666830Y-414946D01*
X-35667498Y-528912D01*
X-35668233Y-630452D01*
X-35669039Y-720330D01*
X-35669918Y-799308D01*
X-35670875Y-868149D01*
X-35671911Y-927618D01*
X-35673029Y-978476D01*
X-35674234Y-1021487D01*
X-35675528Y-1057415D01*
X-35676914Y-1087022D01*
X-35678395Y-1111072D01*
X-35679974Y-1130327D01*
X-35681655Y-1145552D01*
X-35682487Y-1151569D01*
X-35717473Y-1331899D01*
X-35766196Y-1497053D01*
X-35827820Y-1645741D01*
X-35901511Y-1776678D01*
X-35986432Y-1888576D01*
X-36081748Y-1980147D01*
X-36186625Y-2050104D01*
X-36295047Y-2095587D01*
X-36309113Y-2099729D01*
X-36323917Y-2103390D01*
X-36341029Y-2106598D01*
X-36362019Y-2109382D01*
X-36388460Y-2111771D01*
X-36421921Y-2113794D01*
X-36463973Y-2115479D01*
X-36516188Y-2116855D01*
X-36580135Y-2117951D01*
X-36657386Y-2118796D01*
X-36749512Y-2119417D01*
X-36858083Y-2119845D01*
X-36984669Y-2120108D01*
X-37130843Y-2120234D01*
X-37298175Y-2120252D01*
X-37488234Y-2120191D01*
X-37635813Y-2120117D01*
X-37843519Y-2119981D01*
X-38027376Y-2119795D01*
X-38188933Y-2119531D01*
X-38329741Y-2119162D01*
X-38451350Y-2118662D01*
X-38555311Y-2118002D01*
X-38643174Y-2117156D01*
X-38716488Y-2116097D01*
X-38776805Y-2114797D01*
X-38825675Y-2113229D01*
X-38864648Y-2111367D01*
X-38895274Y-2109183D01*
X-38919103Y-2106649D01*
X-38937686Y-2103740D01*
X-38952574Y-2100427D01*
X-38964800Y-2096851D01*
X-39050616Y-2064299D01*
X-39122676Y-2024645D01*
X-39191988Y-1971421D01*
X-39217799Y-1948238D01*
X-39314618Y-1841964D01*
X-39398724Y-1714709D01*
X-39469503Y-1567823D01*
X-39526344Y-1402658D01*
X-39568634Y-1220565D01*
X-39580614Y-1148206D01*
X-39582303Y-1134651D01*
X-39583893Y-1116928D01*
X-39585385Y-1094280D01*
X-39586782Y-1065950D01*
X-39588089Y-1031180D01*
X-39589307Y-989213D01*
X-39590440Y-939293D01*
X-39591490Y-880661D01*
X-39592461Y-812561D01*
X-39593355Y-734235D01*
X-39594176Y-644927D01*
X-39594927Y-543878D01*
X-39595610Y-430333D01*
X-39596229Y-303533D01*
X-39596786Y-162722D01*
X-39597285Y-7142D01*
X-39597728Y163964D01*
X-39598118Y351353D01*
X-39598459Y555782D01*
X-39598754Y778009D01*
X-39599005Y1018790D01*
X-39599215Y1278883D01*
X-39599388Y1559046D01*
X-39599526Y1860035D01*
X-39599632Y2182607D01*
X-39599710Y2527519D01*
X-39599762Y2895530D01*
X-39599791Y3287396D01*
X-39599800Y3703874D01*
X-39599800Y3721201D01*
X-39599800Y3727550D01*
X-38882250Y3727550D01*
X-38882248Y3314314D01*
X-38882237Y2925703D01*
X-38882213Y2560944D01*
X-38882174Y2219263D01*
X-38882116Y1899886D01*
X-38882034Y1602040D01*
X-38881925Y1324949D01*
X-38881785Y1067841D01*
X-38881610Y829940D01*
X-38881396Y610474D01*
X-38881141Y408668D01*
X-38880839Y223748D01*
X-38880487Y54941D01*
X-38880082Y-98529D01*
X-38879619Y-237434D01*
X-38879095Y-362549D01*
X-38878505Y-474648D01*
X-38877847Y-574504D01*
X-38877117Y-662892D01*
X-38876310Y-740586D01*
X-38875422Y-808360D01*
X-38874451Y-866987D01*
X-38873392Y-917242D01*
X-38872242Y-959898D01*
X-38870996Y-995731D01*
X-38869651Y-1025512D01*
X-38868203Y-1050018D01*
X-38866648Y-1070021D01*
X-38864983Y-1086295D01*
X-38863204Y-1099615D01*
X-38861307Y-1110755D01*
X-38859287Y-1120488D01*
X-38858518Y-1123850D01*
X-38832873Y-1219769D01*
X-38804483Y-1301486D01*
X-38775108Y-1364135D01*
X-38766513Y-1378261D01*
X-38745979Y-1409600D01*
X-36512048Y-1409600D01*
X-36469561Y-1317525D01*
X-36444312Y-1256263D01*
X-36420288Y-1187118D01*
X-36404038Y-1130200D01*
X-36402018Y-1121088D01*
X-36400117Y-1110453D01*
X-36398331Y-1097515D01*
X-36396656Y-1081498D01*
X-36395087Y-1061622D01*
X-36393620Y-1037111D01*
X-36392251Y-1007186D01*
X-36390975Y-971070D01*
X-36389787Y-927984D01*
X-36388683Y-877151D01*
X-36387660Y-817793D01*
X-36386711Y-749132D01*
X-36385833Y-670391D01*
X-36385022Y-580791D01*
X-36384273Y-479554D01*
X-36383582Y-365903D01*
X-36382943Y-239059D01*
X-36382354Y-98246D01*
X-36381808Y57316D01*
X-36381303Y228403D01*
X-36380833Y415794D01*
X-36380394Y620266D01*
X-36379982Y842598D01*
X-36379592Y1083567D01*
X-36379220Y1343951D01*
X-36378861Y1624528D01*
X-36378511Y1926076D01*
X-36378165Y2249372D01*
X-36377819Y2595196D01*
X-36377469Y2964323D01*
X-36377111Y3357533D01*
X-36376854Y3645000D01*
X-36376485Y4085844D01*
X-36376183Y4501824D01*
X-36375949Y4893479D01*
X-36375784Y5261346D01*
X-36375689Y5605961D01*
X-36375666Y5927862D01*
X-36375716Y6227587D01*
X-36375840Y6505672D01*
X-36376038Y6762654D01*
X-36376313Y6999071D01*
X-36376665Y7215459D01*
X-36377096Y7412357D01*
X-36377606Y7590301D01*
X-36378197Y7749828D01*
X-36378871Y7891476D01*
X-36379627Y8015782D01*
X-36380468Y8123282D01*
X-36381395Y8214515D01*
X-36382408Y8290016D01*
X-36383509Y8350325D01*
X-36384700Y8395976D01*
X-36385980Y8427509D01*
X-36387318Y8445185D01*
X-36411415Y8583741D01*
X-36447751Y8708049D01*
X-36483611Y8791675D01*
X-36514128Y8852000D01*
X-38748535Y8852000D01*
X-38787105Y8775593D01*
X-38808919Y8725708D01*
X-38831643Y8663033D01*
X-38850969Y8599641D01*
X-38853963Y8588268D01*
X-38882250Y8477350D01*
X-38882250Y3727550D01*
X-39599800Y3727550D01*
X-39599792Y4137775D01*
X-39599766Y4529712D01*
X-39599719Y4897775D01*
X-39599647Y5242728D01*
X-39599548Y5565334D01*
X-39599419Y5866356D01*
X-39599256Y6146557D01*
X-39599056Y6406700D01*
X-39598817Y6647548D01*
X-39598535Y6869865D01*
X-39598207Y7074414D01*
X-39597830Y7261958D01*
X-39597401Y7433260D01*
X-39596917Y7589083D01*
X-39596375Y7730191D01*
X-39595771Y7857347D01*
X-39595103Y7971313D01*
X-39594368Y8072853D01*
X-39593562Y8162731D01*
X-39592683Y8241709D01*
X-39591726Y8310550D01*
X-39590690Y8370019D01*
X-39589572Y8420877D01*
X-39588367Y8463888D01*
X-39587883Y8477350D01*
X-39587073Y8499816D01*
X-39585687Y8529423D01*
X-39584206Y8553473D01*
X-39582627Y8572728D01*
X-39580946Y8587953D01*
X-39580114Y8593970D01*
X-39545375Y8773091D01*
X-39497016Y8937324D01*
X-39435912Y9085358D01*
X-39362937Y9215886D01*
X-39278966Y9327600D01*
X-39184873Y9419190D01*
X-39081533Y9489349D01*
X-38969821Y9536767D01*
X-38945306Y9543733D01*
X-38918463Y9547349D01*
X-38868405Y9550641D01*
X-38797317Y9553607D01*
X-38707382Y9556249D01*
X-38600784Y9558566D01*
X-38479705Y9560558D01*
X-38346331Y9562225D01*
X-38202845Y9563567D01*
X-38051430Y9564584D01*
X-37894270Y9565277D01*
X-37733548Y9565644D01*
X-37571449Y9565687D01*
X-37410156Y9565404D01*
G36*
X-37410156Y9565404D02*
G01*
X-37251852Y9564797D01*
X-37098722Y9563865D01*
X-36952949Y9562608D01*
X-36816716Y9561026D01*
X-36692208Y9559119D01*
X-36581607Y9556887D01*
X-36487098Y9554330D01*
X-36410864Y9551449D01*
X-36355089Y9548242D01*
X-36321957Y9544711D01*
X-36317295Y9543733D01*
X-36203930Y9501270D01*
X-36098754Y9435793D01*
X-36002641Y9348607D01*
X-35916465Y9241023D01*
X-35841102Y9114349D01*
X-35777424Y8969893D01*
X-35726308Y8808964D01*
X-35688628Y8632870D01*
X-35682487Y8593970D01*
X-35680757Y8580387D01*
X-35679130Y8563133D01*
X-35677603Y8541447D01*
X-35676172Y8514564D01*
X-35674835Y8481721D01*
X-35673588Y8442156D01*
X-35672429Y8395106D01*
X-35671355Y8339806D01*
X-35670361Y8275494D01*
X-35669446Y8201406D01*
X-35668605Y8116780D01*
X-35667837Y8020852D01*
X-35667137Y7912860D01*
X-35666504Y7792039D01*
X-35665933Y7657627D01*
X-35665422Y7508860D01*
X-35664967Y7344976D01*
X-35664566Y7165211D01*
X-35664215Y6968803D01*
X-35663912Y6754986D01*
X-35663653Y6523000D01*
X-35663435Y6272080D01*
X-35663255Y6001464D01*
X-35663110Y5710387D01*
X-35662997Y5398088D01*
X-35662913Y5063802D01*
X-35662854Y4706767D01*
X-35662818Y4326219D01*
X-35662802Y3921395D01*
X-35662800Y3721201D01*
X-35662809Y3304626D01*
X-35662835Y2912689D01*
X-35662882Y2544626D01*
X-35662954Y2199673D01*
X-35663053Y1877067D01*
X-35663182Y1576045D01*
X-35663345Y1295844D01*
X-35663545Y1035701D01*
X-35663784Y794853D01*
X-35664066Y572536D01*
X-35664394Y367987D01*
X-35664771Y180443D01*
X-35665200Y9141D01*
X-35665684Y-146682D01*
X-35666226Y-287790D01*
X-35666830Y-414946D01*
X-35667498Y-528912D01*
X-35668233Y-630452D01*
X-35669039Y-720330D01*
X-35669918Y-799308D01*
X-35670875Y-868149D01*
X-35671911Y-927618D01*
X-35673029Y-978476D01*
X-35674234Y-1021487D01*
X-35675528Y-1057415D01*
X-35676914Y-1087022D01*
X-35678395Y-1111072D01*
X-35679974Y-1130327D01*
X-35681655Y-1145552D01*
X-35682487Y-1151569D01*
X-35717473Y-1331899D01*
X-35766196Y-1497053D01*
X-35827820Y-1645741D01*
X-35901511Y-1776678D01*
X-35986432Y-1888576D01*
X-36081748Y-1980147D01*
X-36186625Y-2050104D01*
X-36295047Y-2095587D01*
X-36309113Y-2099729D01*
X-36323917Y-2103390D01*
X-36341029Y-2106598D01*
X-36362019Y-2109382D01*
X-36388460Y-2111771D01*
X-36421921Y-2113794D01*
X-36463973Y-2115479D01*
X-36516188Y-2116855D01*
X-36580135Y-2117951D01*
X-36657386Y-2118796D01*
X-36749512Y-2119417D01*
X-36858083Y-2119845D01*
X-36984669Y-2120108D01*
X-37130843Y-2120234D01*
X-37298175Y-2120252D01*
X-37488234Y-2120191D01*
X-37635813Y-2120117D01*
X-37843519Y-2119981D01*
X-38027376Y-2119795D01*
X-38188933Y-2119531D01*
X-38329741Y-2119162D01*
X-38451350Y-2118662D01*
X-38555311Y-2118002D01*
X-38643174Y-2117156D01*
X-38716488Y-2116097D01*
X-38776805Y-2114797D01*
X-38825675Y-2113229D01*
X-38864648Y-2111367D01*
X-38895274Y-2109183D01*
X-38919103Y-2106649D01*
X-38937686Y-2103740D01*
X-38952574Y-2100427D01*
X-38964800Y-2096851D01*
X-39050616Y-2064299D01*
X-39122676Y-2024645D01*
X-39191988Y-1971421D01*
X-39217799Y-1948238D01*
X-39314618Y-1841964D01*
X-39398724Y-1714709D01*
X-39469503Y-1567823D01*
X-39526344Y-1402658D01*
X-39568634Y-1220565D01*
X-39580614Y-1148206D01*
X-39582303Y-1134651D01*
X-39583893Y-1116928D01*
X-39585385Y-1094280D01*
X-39586782Y-1065950D01*
X-39588089Y-1031180D01*
X-39589307Y-989213D01*
X-39590440Y-939293D01*
X-39591490Y-880661D01*
X-39592461Y-812561D01*
X-39593355Y-734235D01*
X-39594176Y-644927D01*
X-39594927Y-543878D01*
X-39595610Y-430333D01*
X-39596229Y-303533D01*
X-39596786Y-162722D01*
X-39597285Y-7142D01*
X-39597728Y163964D01*
X-39598118Y351353D01*
X-39598459Y555782D01*
X-39598754Y778009D01*
X-39599005Y1018790D01*
X-39599215Y1278883D01*
X-39599388Y1559046D01*
X-39599526Y1860035D01*
X-39599632Y2182607D01*
X-39599710Y2527519D01*
X-39599762Y2895530D01*
X-39599791Y3287396D01*
X-39599800Y3703874D01*
X-39599800Y3721201D01*
X-39599800Y3727550D01*
X-38882250Y3727550D01*
X-38882248Y3314314D01*
X-38882237Y2925703D01*
X-38882213Y2560944D01*
X-38882174Y2219263D01*
X-38882116Y1899886D01*
X-38882034Y1602040D01*
X-38881925Y1324949D01*
X-38881785Y1067841D01*
X-38881610Y829940D01*
X-38881396Y610474D01*
X-38881141Y408668D01*
X-38880839Y223748D01*
X-38880487Y54941D01*
X-38880082Y-98529D01*
X-38879619Y-237434D01*
X-38879095Y-362549D01*
X-38878505Y-474648D01*
X-38877847Y-574504D01*
X-38877117Y-662892D01*
X-38876310Y-740586D01*
X-38875422Y-808360D01*
X-38874451Y-866987D01*
X-38873392Y-917242D01*
X-38872242Y-959898D01*
X-38870996Y-995731D01*
X-38869651Y-1025512D01*
X-38868203Y-1050018D01*
X-38866648Y-1070021D01*
X-38864983Y-1086295D01*
X-38863204Y-1099615D01*
X-38861307Y-1110755D01*
X-38859287Y-1120488D01*
X-38858518Y-1123850D01*
X-38832873Y-1219769D01*
X-38804483Y-1301486D01*
X-38775108Y-1364135D01*
X-38766513Y-1378261D01*
X-38745979Y-1409600D01*
X-36512048Y-1409600D01*
X-36469561Y-1317525D01*
X-36444312Y-1256263D01*
X-36420288Y-1187118D01*
X-36404038Y-1130200D01*
X-36402018Y-1121088D01*
X-36400117Y-1110453D01*
X-36398331Y-1097515D01*
X-36396656Y-1081498D01*
X-36395087Y-1061622D01*
X-36393620Y-1037111D01*
X-36392251Y-1007186D01*
X-36390975Y-971070D01*
X-36389787Y-927984D01*
X-36388683Y-877151D01*
X-36387660Y-817793D01*
X-36386711Y-749132D01*
X-36385833Y-670391D01*
X-36385022Y-580791D01*
X-36384273Y-479554D01*
X-36383582Y-365903D01*
X-36382943Y-239059D01*
X-36382354Y-98246D01*
X-36381808Y57316D01*
X-36381303Y228403D01*
X-36380833Y415794D01*
X-36380394Y620266D01*
X-36379982Y842598D01*
X-36379592Y1083567D01*
X-36379220Y1343951D01*
X-36378861Y1624528D01*
X-36378511Y1926076D01*
X-36378165Y2249372D01*
X-36377819Y2595196D01*
X-36377469Y2964323D01*
X-36377111Y3357533D01*
X-36376854Y3645000D01*
X-36376485Y4085844D01*
X-36376183Y4501824D01*
X-36375949Y4893479D01*
X-36375784Y5261346D01*
X-36375689Y5605961D01*
X-36375666Y5927862D01*
X-36375716Y6227587D01*
X-36375840Y6505672D01*
X-36376038Y6762654D01*
X-36376313Y6999071D01*
X-36376665Y7215459D01*
X-36377096Y7412357D01*
X-36377606Y7590301D01*
X-36378197Y7749828D01*
X-36378871Y7891476D01*
X-36379627Y8015782D01*
X-36380468Y8123282D01*
X-36381395Y8214515D01*
X-36382408Y8290016D01*
X-36383509Y8350325D01*
X-36384700Y8395976D01*
X-36385980Y8427509D01*
X-36387318Y8445185D01*
X-36411415Y8583741D01*
X-36447751Y8708049D01*
X-36483611Y8791675D01*
X-36514128Y8852000D01*
X-38748535Y8852000D01*
X-38787105Y8775593D01*
X-38808919Y8725708D01*
X-38831643Y8663033D01*
X-38850969Y8599641D01*
X-38853963Y8588268D01*
X-38882250Y8477350D01*
X-38882250Y3727550D01*
X-39599800Y3727550D01*
X-39599792Y4137775D01*
X-39599766Y4529712D01*
X-39599719Y4897775D01*
X-39599647Y5242728D01*
X-39599548Y5565334D01*
X-39599419Y5866356D01*
X-39599256Y6146557D01*
X-39599056Y6406700D01*
X-39598817Y6647548D01*
X-39598535Y6869865D01*
X-39598207Y7074414D01*
X-39597830Y7261958D01*
X-39597401Y7433260D01*
X-39596917Y7589083D01*
X-39596375Y7730191D01*
X-39595771Y7857347D01*
X-39595103Y7971313D01*
X-39594368Y8072853D01*
X-39593562Y8162731D01*
X-39592683Y8241709D01*
X-39591726Y8310550D01*
X-39590690Y8370019D01*
X-39589572Y8420877D01*
X-39588367Y8463888D01*
X-39587883Y8477350D01*
X-39587073Y8499816D01*
X-39585687Y8529423D01*
X-39584206Y8553473D01*
X-39582627Y8572728D01*
X-39580946Y8587953D01*
X-39580114Y8593970D01*
X-39545375Y8773091D01*
X-39497016Y8937324D01*
X-39435912Y9085358D01*
X-39362937Y9215886D01*
X-39278966Y9327600D01*
X-39184873Y9419190D01*
X-39081533Y9489349D01*
X-38969821Y9536767D01*
X-38945306Y9543733D01*
X-38918463Y9547349D01*
X-38868405Y9550641D01*
X-38797317Y9553607D01*
X-38707382Y9556249D01*
X-38600784Y9558566D01*
X-38479705Y9560558D01*
X-38346331Y9562225D01*
X-38202845Y9563567D01*
X-38051430Y9564584D01*
X-37894270Y9565277D01*
X-37733548Y9565644D01*
X-37571449Y9565687D01*
X-37410156Y9565404D01*
G37*
X44895800Y-3111400D02*
X45213300Y-3111400D01*
X45213300Y-2768500D01*
X45581600Y-2768500D01*
X45581600Y-3111400D01*
X45911800Y-3111400D01*
X45911800Y-2768500D01*
X47651700Y-2768500D01*
X47651700Y-3822600D01*
X47283400Y-3822600D01*
X47283400Y-3136800D01*
X46965900Y-3136800D01*
X46965900Y-3479700D01*
X46597600Y-3479700D01*
X46597600Y-3136800D01*
X46280837Y-3136800D01*
X46277293Y-3305075D01*
X46273750Y-3473350D01*
X45921325Y-3476725D01*
X45568900Y-3480101D01*
X45568900Y-3136800D01*
X45238700Y-3136800D01*
X45238700Y-3479700D01*
X44895800Y-3479700D01*
X44895800Y-3797200D01*
X45924500Y-3797200D01*
X45924500Y-4140100D01*
X46254700Y-4140100D01*
X46254700Y-3797200D01*
X46623000Y-3797200D01*
X46623000Y-4140100D01*
X47651700Y-4140100D01*
X47651700Y-4508400D01*
X46280100Y-4508400D01*
X46280100Y-5194200D01*
X45924500Y-5194200D01*
X45924500Y-5537100D01*
X45581600Y-5537100D01*
X45581600Y-5880000D01*
X44895800Y-5880000D01*
X44895800Y-6210200D01*
X45238700Y-6210200D01*
X45238700Y-6578500D01*
X44552900Y-6578500D01*
X44552900Y-6896000D01*
X45911800Y-6896000D01*
X45911800Y-6578500D01*
X45568900Y-6578500D01*
X45568900Y-6210200D01*
X45911800Y-6210200D01*
X45911800Y-5867300D01*
X46254700Y-5867300D01*
X46254700Y-5524400D01*
X46623000Y-5524400D01*
X46623000Y-5867300D01*
X47283400Y-5867300D01*
X47283400Y-5537100D01*
X46940500Y-5537100D01*
X46940500Y-5194200D01*
X46597600Y-5194200D01*
X46597600Y-4825900D01*
X46965900Y-4825900D01*
X46965900Y-5168800D01*
X47283400Y-5168800D01*
X47283400Y-4825900D01*
X47651700Y-4825900D01*
X47651700Y-5194200D01*
X47308800Y-5194200D01*
X47308800Y-5524400D01*
X47651700Y-5524400D01*
X47651700Y-6235600D01*
X46623000Y-6235600D01*
X46623000Y-6578500D01*
X46280100Y-6578500D01*
X46280100Y-6896000D01*
X46623000Y-6896000D01*
X46623000Y-7264300D01*
X46254700Y-7264300D01*
X46254700Y-6921400D01*
X45924500Y-6921400D01*
X45924500Y-7924700D01*
X46254700Y-7924700D01*
X46254700Y-7581800D01*
X46965900Y-7581800D01*
X46965900Y-7924700D01*
X47283400Y-7924700D01*
X47994600Y-7924700D01*
X48667700Y-7924700D01*
X48667700Y-7607200D01*
X47994600Y-7607200D01*
X47994600Y-7924700D01*
X47283400Y-7924700D01*
X47283400Y-7607200D01*
X47283400Y-7238900D01*
X49010600Y-7238900D01*
X49010600Y-6578500D01*
X48667700Y-6578500D01*
X48667700Y-6236008D01*
X47975550Y-6229250D01*
X47968798Y-5524400D01*
X49721800Y-5524400D01*
X49721800Y-5880000D01*
X49036000Y-5880000D01*
X49036000Y-6553100D01*
X49378900Y-6553100D01*
X49378900Y-6896000D01*
X49696400Y-6896000D01*
X49696400Y-6553100D01*
X50064700Y-6553100D01*
X50064700Y-6921400D01*
X49721800Y-6921400D01*
X49721800Y-7264300D01*
X49036000Y-7264300D01*
X49036000Y-7581800D01*
X49721800Y-7581800D01*
X49721800Y-7923962D01*
X50058350Y-7931050D01*
X50061873Y-8112025D01*
X50065397Y-8293000D01*
X49721800Y-8293000D01*
X49721800Y-9309000D01*
X50064700Y-9309000D01*
X50064700Y-9651900D01*
X50407600Y-9651900D01*
X50407600Y-10363100D01*
X49721800Y-10363100D01*
X49721800Y-10680600D01*
X50407600Y-10680600D01*
X50407600Y-11391800D01*
X49721800Y-11391800D01*
X49721800Y-11722000D01*
X50064700Y-11722000D01*
X50064700Y-12433200D01*
X49721800Y-12433200D01*
X49721800Y-12776100D01*
X49353500Y-12776100D01*
X49353500Y-12433200D01*
X49036000Y-12433200D01*
X49036000Y-12776100D01*
X47969200Y-12776100D01*
X47969200Y-12433200D01*
X47308800Y-12433200D01*
X47308800Y-12776100D01*
X46597600Y-12776100D01*
X46597600Y-12433200D01*
X46280100Y-12433200D01*
X46280100Y-12776100D01*
X45911800Y-12776100D01*
X45911800Y-12433200D01*
X45581600Y-12433200D01*
X45581600Y-12776100D01*
X44870400Y-12776100D01*
X44870400Y-12407800D01*
X45213300Y-12407800D01*
X45924500Y-12407800D01*
X46254700Y-12407800D01*
X46965900Y-12407800D01*
X47283400Y-12407800D01*
X47994600Y-12407800D01*
X48324800Y-12407800D01*
X48680400Y-12407800D01*
X49010600Y-12407800D01*
X49378900Y-12407800D01*
X49696400Y-12407800D01*
X49696400Y-12090300D01*
X49378900Y-12090300D01*
X49378900Y-12407800D01*
X49010600Y-12407800D01*
X49010600Y-12090300D01*
X48680400Y-12090300D01*
X48680400Y-12407800D01*
X48324800Y-12407800D01*
X48324800Y-12090300D01*
X47994600Y-12090300D01*
X47994600Y-12407800D01*
X47283400Y-12407800D01*
X47283400Y-12090300D01*
X46965900Y-12090300D01*
X46965900Y-12407800D01*
X46254700Y-12407800D01*
X46254700Y-12090300D01*
X45924500Y-12090300D01*
X45924500Y-12407800D01*
X45213300Y-12407800D01*
X45213300Y-12090300D01*
X44870400Y-12090300D01*
X44870400Y-12064900D01*
X45581600Y-12064900D01*
X45911800Y-12064900D01*
X45911800Y-11747400D01*
X45581600Y-11747400D01*
X45581600Y-12064900D01*
X44870400Y-12064900D01*
X44870400Y-11747400D01*
X44527500Y-11747400D01*
X44527500Y-11722000D01*
X45238700Y-11722000D01*
X45568900Y-11722000D01*
X45924500Y-11722000D01*
X46280100Y-11722000D01*
X46280100Y-12064900D01*
X46597600Y-12064900D01*
X46597600Y-11722000D01*
X47651700Y-11722000D01*
X49010600Y-11722000D01*
X49010600Y-11391800D01*
X47651700Y-11391800D01*
X47651700Y-11722000D01*
X46597600Y-11722000D01*
X46597600Y-11391800D01*
X45924500Y-11391800D01*
X45924500Y-11722000D01*
X45568900Y-11722000D01*
X45568900Y-11391800D01*
X45238700Y-11391800D01*
X45238700Y-11722000D01*
X44527500Y-11722000D01*
X44527500Y-11391800D01*
X44527500Y-11379100D01*
X45213300Y-11379100D01*
X46965900Y-11379100D01*
X47283400Y-11379100D01*
X49036000Y-11379100D01*
X49353500Y-11379100D01*
X49353500Y-11036200D01*
X49696400Y-11036200D01*
X49696400Y-10706000D01*
X49036000Y-10706000D01*
X49036000Y-11379100D01*
X47283400Y-11379100D01*
X47283400Y-11048900D01*
X46965900Y-11048900D01*
X46965900Y-11379100D01*
X45213300Y-11379100D01*
X45213300Y-11048900D01*
X44527500Y-11048900D01*
X44527500Y-11036200D01*
X45238700Y-11036200D01*
X45911800Y-11036200D01*
X46623000Y-11036200D01*
X46940500Y-11036200D01*
X47651700Y-11036200D01*
X48667700Y-11036200D01*
X48667700Y-10706000D01*
X48667700Y-10020200D01*
X47651700Y-10020200D01*
X47651700Y-11036200D01*
X46940500Y-11036200D01*
X46940500Y-10337700D01*
X47283400Y-10337700D01*
X47283400Y-10020200D01*
X46623000Y-10020200D01*
X46623000Y-11036200D01*
X45911800Y-11036200D01*
X45911800Y-10706000D01*
X45238700Y-10706000D01*
X45238700Y-11036200D01*
X44527500Y-11036200D01*
X44527500Y-10706000D01*
X44210000Y-10706000D01*
X44210000Y-11048900D01*
X43867100Y-11048900D01*
X43867100Y-11379100D01*
X44210000Y-11379100D01*
X44210000Y-12064900D01*
X44552900Y-12064900D01*
X44552900Y-12776100D01*
X43841700Y-12776100D01*
X43841700Y-12433200D01*
X43524200Y-12433200D01*
X43524200Y-12776100D01*
X43155900Y-12776100D01*
X43155900Y-12407800D01*
X43498800Y-12407800D01*
X43498800Y-12090300D01*
X43155900Y-12090300D01*
X43155900Y-12064900D01*
X43524200Y-12064900D01*
X43841700Y-12064900D01*
X43841700Y-11391800D01*
X43524200Y-11391800D01*
X43524200Y-12064900D01*
X43155900Y-12064900D01*
X43155900Y-11391800D01*
X43155900Y-10680600D01*
X43498800Y-10680600D01*
X43498800Y-10363100D01*
X43155900Y-10363100D01*
X43155900Y-10337700D01*
X43524200Y-10337700D01*
X43867100Y-10337700D01*
X43867100Y-10680600D01*
X44184600Y-10680600D01*
X44184600Y-10337700D01*
X44527500Y-10337700D01*
X44527500Y-9994800D01*
X45238700Y-9994800D01*
X45238700Y-10337700D01*
X46254700Y-10337700D01*
X46254700Y-10020200D01*
X46254700Y-9677300D01*
X45924500Y-9677300D01*
X45924500Y-10020200D01*
X45568900Y-10020200D01*
X45568900Y-9651900D01*
X46280100Y-9651900D01*
X46597600Y-9651900D01*
X46597600Y-8991500D01*
X46965900Y-8991500D01*
X46965900Y-9651900D01*
X47283400Y-9651900D01*
X48337500Y-9651900D01*
X49036000Y-9651900D01*
X49036000Y-9994800D01*
X49353500Y-9994800D01*
X49353500Y-9651900D01*
X49696400Y-9651900D01*
X49696400Y-9334400D01*
X49353500Y-9334400D01*
X49353500Y-8635900D01*
X49036408Y-8635900D01*
X49029650Y-9328050D01*
X48337500Y-9334808D01*
X48337500Y-9651900D01*
X47283400Y-9651900D01*
X47283400Y-9334808D01*
X47283400Y-9309000D01*
X47651700Y-9309000D01*
X47969200Y-9309000D01*
X47969200Y-8991500D01*
X47651700Y-8991500D01*
X47651700Y-9309000D01*
X47283400Y-9309000D01*
X47283400Y-8991500D01*
X46965900Y-8991500D01*
X46597600Y-8991500D01*
X46597600Y-8966100D01*
X47308800Y-8966100D01*
X47626300Y-8966100D01*
X47626300Y-8623200D01*
X47994600Y-8623200D01*
X48324800Y-8623200D01*
X48680400Y-8623200D01*
X49010600Y-8623200D01*
X49010600Y-8293000D01*
X48680400Y-8293000D01*
X48680400Y-8623200D01*
X48324800Y-8623200D01*
X48324800Y-8293000D01*
X47994600Y-8293000D01*
X47994600Y-8623200D01*
X47626300Y-8623200D01*
X47626300Y-8293000D01*
X47308800Y-8293000D01*
X47308800Y-8966100D01*
X46597600Y-8966100D01*
X46597600Y-8635900D01*
X46280100Y-8635900D01*
X46280100Y-9651900D01*
X45568900Y-9651900D01*
X45568900Y-9335116D01*
X45219650Y-9328050D01*
X45216270Y-8981975D01*
X45216115Y-8966100D01*
X45581600Y-8966100D01*
X45911800Y-8966100D01*
X45911800Y-8635900D01*
X45581600Y-8635900D01*
X45581600Y-8966100D01*
X45216115Y-8966100D01*
X45212891Y-8635900D01*
X44552900Y-8635900D01*
X44552900Y-9309000D01*
X44895800Y-9309000D01*
X44895800Y-9677300D01*
X44527500Y-9677300D01*
X44527500Y-9334400D01*
X44210000Y-9334400D01*
X44210000Y-10020200D01*
X43524200Y-10020200D01*
X43524200Y-10337700D01*
X43155900Y-10337700D01*
X43155900Y-10020200D01*
X43155900Y-9994800D01*
X43498800Y-9994800D01*
X43498800Y-9677300D01*
X43155900Y-9677300D01*
X43155900Y-9334400D01*
X42139900Y-9334400D01*
X42139900Y-10020200D01*
X41771600Y-10020200D01*
X41771600Y-9677300D01*
X41085800Y-9677300D01*
X41085800Y-9309000D01*
X42114500Y-9309000D01*
X42114500Y-8991500D01*
X41771600Y-8991500D01*
X41771600Y-8635900D01*
X40768300Y-8635900D01*
X40768300Y-10020200D01*
X40400000Y-10020200D01*
X40400000Y-8623200D01*
X41797000Y-8623200D01*
X42114500Y-8623200D01*
X42114500Y-8293000D01*
X41797000Y-8293000D01*
X41797000Y-8623200D01*
X40400000Y-8623200D01*
X40400000Y-8293000D01*
X40400000Y-7924002D01*
X40761950Y-7931050D01*
X40769016Y-8280300D01*
X41427983Y-8280300D01*
X42482800Y-8280300D01*
X42825700Y-8280300D01*
X42825700Y-8635900D01*
X42482800Y-8635900D01*
X42482800Y-8966100D01*
X43155900Y-8966100D01*
X43155900Y-8623200D01*
X43524200Y-8623200D01*
X43524200Y-9309000D01*
X43841700Y-9309000D01*
X43841700Y-8966100D01*
X44184600Y-8966100D01*
X44184600Y-8623200D01*
X44527500Y-8623200D01*
X45924500Y-8623200D01*
X46254700Y-8623200D01*
X46254700Y-8293000D01*
X45924500Y-8293000D01*
X45924500Y-8623200D01*
X44527500Y-8623200D01*
X44527500Y-8293000D01*
X43498800Y-8293000D01*
X43498800Y-8280300D01*
X44895800Y-8280300D01*
X45213300Y-8280300D01*
X46280100Y-8280300D01*
X46597600Y-8280300D01*
X49036000Y-8280300D01*
X49696400Y-8280300D01*
X49696400Y-7950100D01*
X49036000Y-7950100D01*
X49036000Y-8280300D01*
X46597600Y-8280300D01*
X46597600Y-7950100D01*
X46280100Y-7950100D01*
X46280100Y-8280300D01*
X45213300Y-8280300D01*
X45213300Y-7950100D01*
X44895800Y-7950100D01*
X44895800Y-8280300D01*
X43498800Y-8280300D01*
X43498800Y-7950100D01*
X42482800Y-7950100D01*
X42482800Y-8280300D01*
X41427983Y-8280300D01*
X41431516Y-8105675D01*
X41434664Y-7950100D01*
X41435050Y-7931050D01*
X41946225Y-7927730D01*
X42412890Y-7924700D01*
X43524200Y-7924700D01*
X44870400Y-7924700D01*
X44870400Y-7581800D01*
X45238700Y-7581800D01*
X45568900Y-7581800D01*
X45568900Y-7264300D01*
X45238700Y-7264300D01*
X45238700Y-7581800D01*
X44870400Y-7581800D01*
X44870400Y-7264300D01*
X44552900Y-7264300D01*
X44552900Y-7607200D01*
X43841700Y-7607200D01*
X43841700Y-7264300D01*
X43524200Y-7264300D01*
X43524200Y-7924700D01*
X42412890Y-7924700D01*
X42457400Y-7924411D01*
X42457400Y-7607200D01*
X41771600Y-7607200D01*
X41771600Y-7581800D01*
X42482800Y-7581800D01*
X43155900Y-7581800D01*
X43155900Y-7264300D01*
X42482800Y-7264300D01*
X42482800Y-7581800D01*
X41771600Y-7581800D01*
X41771600Y-7264300D01*
X41771600Y-7238900D01*
X43168600Y-7238900D01*
X43498800Y-7238900D01*
X43498800Y-6921400D01*
X43168600Y-6921400D01*
X43168600Y-7238900D01*
X41771600Y-7238900D01*
X41771600Y-6921400D01*
X41111200Y-6921400D01*
X41111200Y-7607200D01*
X40400000Y-7607200D01*
X40400000Y-6896000D01*
X41085800Y-6896000D01*
X41085800Y-6553100D01*
X41428700Y-6553100D01*
X41428700Y-6210200D01*
X41797000Y-6210200D01*
X42114500Y-6210200D01*
X42114500Y-5880000D01*
X41797000Y-5880000D01*
X41797000Y-6210200D01*
X41428700Y-6210200D01*
X41428700Y-5880000D01*
X41085800Y-5880000D01*
X41085800Y-5524400D01*
X42825700Y-5524400D01*
X42825700Y-5880000D01*
X42482800Y-5880000D01*
X42482800Y-6210200D01*
X42825700Y-6210200D01*
X42825700Y-6579197D01*
X42644725Y-6575673D01*
X42463750Y-6572150D01*
X42456662Y-6235600D01*
X42139900Y-6235600D01*
X42139900Y-6896000D01*
X43155900Y-6896000D01*
X43524200Y-6896000D01*
X44184600Y-6896000D01*
X44184600Y-6578500D01*
X43524200Y-6578500D01*
X43524200Y-6896000D01*
X43155900Y-6896000D01*
X43155900Y-6578500D01*
X43155900Y-6553100D01*
X43498800Y-6553100D01*
X43498800Y-6235600D01*
X43155900Y-6235600D01*
X43155900Y-6210200D01*
X43524200Y-6210200D01*
X44184600Y-6210200D01*
X44184600Y-5880000D01*
X43524200Y-5880000D01*
X43524200Y-6210200D01*
X43155900Y-6210200D01*
X43155900Y-5880000D01*
X43155900Y-5867300D01*
X43498800Y-5867300D01*
X44210000Y-5867300D01*
X44527500Y-5867300D01*
X44527500Y-5537100D01*
X44210000Y-5537100D01*
X44210000Y-5867300D01*
X43498800Y-5867300D01*
X43498800Y-5537100D01*
X43155900Y-5537100D01*
X43155900Y-5524400D01*
X43867100Y-5524400D01*
X44184600Y-5524400D01*
X44552900Y-5524400D01*
X45213300Y-5524400D01*
X45213300Y-5168800D01*
X45581600Y-5168800D01*
X45911800Y-5168800D01*
X45911800Y-4851300D01*
X45581600Y-4851300D01*
X45581600Y-5168800D01*
X45213300Y-5168800D01*
X45213300Y-4851300D01*
X44895800Y-4851300D01*
X44895800Y-5194200D01*
X44552900Y-5194200D01*
X44552900Y-5524400D01*
X44184600Y-5524400D01*
X44184600Y-5194200D01*
X43867100Y-5194200D01*
X43867100Y-5524400D01*
X43155900Y-5524400D01*
X43155900Y-5194200D01*
X43155900Y-5168800D01*
X43524200Y-5168800D01*
X43841700Y-5168800D01*
X43841700Y-4851300D01*
X43524200Y-4851300D01*
X43524200Y-5168800D01*
X43155900Y-5168800D01*
X43155900Y-4851300D01*
X43155900Y-4825900D01*
X43867100Y-4825900D01*
X44210000Y-4825900D01*
X44210000Y-5168800D01*
X44527500Y-5168800D01*
X44527500Y-4508400D01*
X44184600Y-4508400D01*
X44184600Y-4483000D01*
X44552900Y-4483000D01*
X44870400Y-4483000D01*
X45238700Y-4483000D01*
X45911800Y-4483000D01*
X45911800Y-4165500D01*
X45238700Y-4165500D01*
X45238700Y-4483000D01*
X44870400Y-4483000D01*
X44870400Y-4165500D01*
X44552900Y-4165500D01*
X44552900Y-4483000D01*
X44184600Y-4483000D01*
X44184600Y-4165500D01*
X43867100Y-4165500D01*
X43867100Y-4825900D01*
X43155900Y-4825900D01*
X43155900Y-4165500D01*
X43155900Y-3454300D01*
X43524200Y-3454300D01*
X43524200Y-4140100D01*
X43841700Y-4140100D01*
X44210000Y-4140100D01*
X44527500Y-4140100D01*
X44527500Y-3822600D01*
X44210000Y-3822600D01*
X44210000Y-4140100D01*
X43841700Y-4140100D01*
X43841700Y-3822600D01*
X43841700Y-3454300D01*
X44552900Y-3454300D01*
X44870400Y-3454300D01*
X44870400Y-3136800D01*
X44552900Y-3136800D01*
X44552900Y-3454300D01*
X43841700Y-3454300D01*
X43841700Y-3136800D01*
X43841700Y-3111400D01*
X44184600Y-3111400D01*
X44184600Y-2768500D01*
X44895800Y-2768500D01*
X44895800Y-3111400D01*
G36*
X44895800Y-3111400D02*
G01*
X45213300Y-3111400D01*
X45213300Y-2768500D01*
X45581600Y-2768500D01*
X45581600Y-3111400D01*
X45911800Y-3111400D01*
X45911800Y-2768500D01*
X47651700Y-2768500D01*
X47651700Y-3822600D01*
X47283400Y-3822600D01*
X47283400Y-3136800D01*
X46965900Y-3136800D01*
X46965900Y-3479700D01*
X46597600Y-3479700D01*
X46597600Y-3136800D01*
X46280837Y-3136800D01*
X46277293Y-3305075D01*
X46273750Y-3473350D01*
X45921325Y-3476725D01*
X45568900Y-3480101D01*
X45568900Y-3136800D01*
X45238700Y-3136800D01*
X45238700Y-3479700D01*
X44895800Y-3479700D01*
X44895800Y-3797200D01*
X45924500Y-3797200D01*
X45924500Y-4140100D01*
X46254700Y-4140100D01*
X46254700Y-3797200D01*
X46623000Y-3797200D01*
X46623000Y-4140100D01*
X47651700Y-4140100D01*
X47651700Y-4508400D01*
X46280100Y-4508400D01*
X46280100Y-5194200D01*
X45924500Y-5194200D01*
X45924500Y-5537100D01*
X45581600Y-5537100D01*
X45581600Y-5880000D01*
X44895800Y-5880000D01*
X44895800Y-6210200D01*
X45238700Y-6210200D01*
X45238700Y-6578500D01*
X44552900Y-6578500D01*
X44552900Y-6896000D01*
X45911800Y-6896000D01*
X45911800Y-6578500D01*
X45568900Y-6578500D01*
X45568900Y-6210200D01*
X45911800Y-6210200D01*
X45911800Y-5867300D01*
X46254700Y-5867300D01*
X46254700Y-5524400D01*
X46623000Y-5524400D01*
X46623000Y-5867300D01*
X47283400Y-5867300D01*
X47283400Y-5537100D01*
X46940500Y-5537100D01*
X46940500Y-5194200D01*
X46597600Y-5194200D01*
X46597600Y-4825900D01*
X46965900Y-4825900D01*
X46965900Y-5168800D01*
X47283400Y-5168800D01*
X47283400Y-4825900D01*
X47651700Y-4825900D01*
X47651700Y-5194200D01*
X47308800Y-5194200D01*
X47308800Y-5524400D01*
X47651700Y-5524400D01*
X47651700Y-6235600D01*
X46623000Y-6235600D01*
X46623000Y-6578500D01*
X46280100Y-6578500D01*
X46280100Y-6896000D01*
X46623000Y-6896000D01*
X46623000Y-7264300D01*
X46254700Y-7264300D01*
X46254700Y-6921400D01*
X45924500Y-6921400D01*
X45924500Y-7924700D01*
X46254700Y-7924700D01*
X46254700Y-7581800D01*
X46965900Y-7581800D01*
X46965900Y-7924700D01*
X47283400Y-7924700D01*
X47994600Y-7924700D01*
X48667700Y-7924700D01*
X48667700Y-7607200D01*
X47994600Y-7607200D01*
X47994600Y-7924700D01*
X47283400Y-7924700D01*
X47283400Y-7607200D01*
X47283400Y-7238900D01*
X49010600Y-7238900D01*
X49010600Y-6578500D01*
X48667700Y-6578500D01*
X48667700Y-6236008D01*
X47975550Y-6229250D01*
X47968798Y-5524400D01*
X49721800Y-5524400D01*
X49721800Y-5880000D01*
X49036000Y-5880000D01*
X49036000Y-6553100D01*
X49378900Y-6553100D01*
X49378900Y-6896000D01*
X49696400Y-6896000D01*
X49696400Y-6553100D01*
X50064700Y-6553100D01*
X50064700Y-6921400D01*
X49721800Y-6921400D01*
X49721800Y-7264300D01*
X49036000Y-7264300D01*
X49036000Y-7581800D01*
X49721800Y-7581800D01*
X49721800Y-7923962D01*
X50058350Y-7931050D01*
X50061873Y-8112025D01*
X50065397Y-8293000D01*
X49721800Y-8293000D01*
X49721800Y-9309000D01*
X50064700Y-9309000D01*
X50064700Y-9651900D01*
X50407600Y-9651900D01*
X50407600Y-10363100D01*
X49721800Y-10363100D01*
X49721800Y-10680600D01*
X50407600Y-10680600D01*
X50407600Y-11391800D01*
X49721800Y-11391800D01*
X49721800Y-11722000D01*
X50064700Y-11722000D01*
X50064700Y-12433200D01*
X49721800Y-12433200D01*
X49721800Y-12776100D01*
X49353500Y-12776100D01*
X49353500Y-12433200D01*
X49036000Y-12433200D01*
X49036000Y-12776100D01*
X47969200Y-12776100D01*
X47969200Y-12433200D01*
X47308800Y-12433200D01*
X47308800Y-12776100D01*
X46597600Y-12776100D01*
X46597600Y-12433200D01*
X46280100Y-12433200D01*
X46280100Y-12776100D01*
X45911800Y-12776100D01*
X45911800Y-12433200D01*
X45581600Y-12433200D01*
X45581600Y-12776100D01*
X44870400Y-12776100D01*
X44870400Y-12407800D01*
X45213300Y-12407800D01*
X45924500Y-12407800D01*
X46254700Y-12407800D01*
X46965900Y-12407800D01*
X47283400Y-12407800D01*
X47994600Y-12407800D01*
X48324800Y-12407800D01*
X48680400Y-12407800D01*
X49010600Y-12407800D01*
X49378900Y-12407800D01*
X49696400Y-12407800D01*
X49696400Y-12090300D01*
X49378900Y-12090300D01*
X49378900Y-12407800D01*
X49010600Y-12407800D01*
X49010600Y-12090300D01*
X48680400Y-12090300D01*
X48680400Y-12407800D01*
X48324800Y-12407800D01*
X48324800Y-12090300D01*
X47994600Y-12090300D01*
X47994600Y-12407800D01*
X47283400Y-12407800D01*
X47283400Y-12090300D01*
X46965900Y-12090300D01*
X46965900Y-12407800D01*
X46254700Y-12407800D01*
X46254700Y-12090300D01*
X45924500Y-12090300D01*
X45924500Y-12407800D01*
X45213300Y-12407800D01*
X45213300Y-12090300D01*
X44870400Y-12090300D01*
X44870400Y-12064900D01*
X45581600Y-12064900D01*
X45911800Y-12064900D01*
X45911800Y-11747400D01*
X45581600Y-11747400D01*
X45581600Y-12064900D01*
X44870400Y-12064900D01*
X44870400Y-11747400D01*
X44527500Y-11747400D01*
X44527500Y-11722000D01*
X45238700Y-11722000D01*
X45568900Y-11722000D01*
X45924500Y-11722000D01*
X46280100Y-11722000D01*
X46280100Y-12064900D01*
X46597600Y-12064900D01*
X46597600Y-11722000D01*
X47651700Y-11722000D01*
X49010600Y-11722000D01*
X49010600Y-11391800D01*
X47651700Y-11391800D01*
X47651700Y-11722000D01*
X46597600Y-11722000D01*
X46597600Y-11391800D01*
X45924500Y-11391800D01*
X45924500Y-11722000D01*
X45568900Y-11722000D01*
X45568900Y-11391800D01*
X45238700Y-11391800D01*
X45238700Y-11722000D01*
X44527500Y-11722000D01*
X44527500Y-11391800D01*
X44527500Y-11379100D01*
X45213300Y-11379100D01*
X46965900Y-11379100D01*
X47283400Y-11379100D01*
X49036000Y-11379100D01*
X49353500Y-11379100D01*
X49353500Y-11036200D01*
X49696400Y-11036200D01*
X49696400Y-10706000D01*
X49036000Y-10706000D01*
X49036000Y-11379100D01*
X47283400Y-11379100D01*
X47283400Y-11048900D01*
X46965900Y-11048900D01*
X46965900Y-11379100D01*
X45213300Y-11379100D01*
X45213300Y-11048900D01*
X44527500Y-11048900D01*
X44527500Y-11036200D01*
X45238700Y-11036200D01*
X45911800Y-11036200D01*
X46623000Y-11036200D01*
X46940500Y-11036200D01*
X47651700Y-11036200D01*
X48667700Y-11036200D01*
X48667700Y-10706000D01*
X48667700Y-10020200D01*
X47651700Y-10020200D01*
X47651700Y-11036200D01*
X46940500Y-11036200D01*
X46940500Y-10337700D01*
X47283400Y-10337700D01*
X47283400Y-10020200D01*
X46623000Y-10020200D01*
X46623000Y-11036200D01*
X45911800Y-11036200D01*
X45911800Y-10706000D01*
X45238700Y-10706000D01*
X45238700Y-11036200D01*
X44527500Y-11036200D01*
X44527500Y-10706000D01*
X44210000Y-10706000D01*
X44210000Y-11048900D01*
X43867100Y-11048900D01*
X43867100Y-11379100D01*
X44210000Y-11379100D01*
X44210000Y-12064900D01*
X44552900Y-12064900D01*
X44552900Y-12776100D01*
X43841700Y-12776100D01*
X43841700Y-12433200D01*
X43524200Y-12433200D01*
X43524200Y-12776100D01*
X43155900Y-12776100D01*
X43155900Y-12407800D01*
X43498800Y-12407800D01*
X43498800Y-12090300D01*
X43155900Y-12090300D01*
X43155900Y-12064900D01*
X43524200Y-12064900D01*
X43841700Y-12064900D01*
X43841700Y-11391800D01*
X43524200Y-11391800D01*
X43524200Y-12064900D01*
X43155900Y-12064900D01*
X43155900Y-11391800D01*
X43155900Y-10680600D01*
X43498800Y-10680600D01*
X43498800Y-10363100D01*
X43155900Y-10363100D01*
X43155900Y-10337700D01*
X43524200Y-10337700D01*
X43867100Y-10337700D01*
X43867100Y-10680600D01*
X44184600Y-10680600D01*
X44184600Y-10337700D01*
X44527500Y-10337700D01*
X44527500Y-9994800D01*
X45238700Y-9994800D01*
X45238700Y-10337700D01*
X46254700Y-10337700D01*
X46254700Y-10020200D01*
X46254700Y-9677300D01*
X45924500Y-9677300D01*
X45924500Y-10020200D01*
X45568900Y-10020200D01*
X45568900Y-9651900D01*
X46280100Y-9651900D01*
X46597600Y-9651900D01*
X46597600Y-8991500D01*
X46965900Y-8991500D01*
X46965900Y-9651900D01*
X47283400Y-9651900D01*
X48337500Y-9651900D01*
X49036000Y-9651900D01*
X49036000Y-9994800D01*
X49353500Y-9994800D01*
X49353500Y-9651900D01*
X49696400Y-9651900D01*
X49696400Y-9334400D01*
X49353500Y-9334400D01*
X49353500Y-8635900D01*
X49036408Y-8635900D01*
X49029650Y-9328050D01*
X48337500Y-9334808D01*
X48337500Y-9651900D01*
X47283400Y-9651900D01*
X47283400Y-9334808D01*
X47283400Y-9309000D01*
X47651700Y-9309000D01*
X47969200Y-9309000D01*
X47969200Y-8991500D01*
X47651700Y-8991500D01*
X47651700Y-9309000D01*
X47283400Y-9309000D01*
X47283400Y-8991500D01*
X46965900Y-8991500D01*
X46597600Y-8991500D01*
X46597600Y-8966100D01*
X47308800Y-8966100D01*
X47626300Y-8966100D01*
X47626300Y-8623200D01*
X47994600Y-8623200D01*
X48324800Y-8623200D01*
X48680400Y-8623200D01*
X49010600Y-8623200D01*
X49010600Y-8293000D01*
X48680400Y-8293000D01*
X48680400Y-8623200D01*
X48324800Y-8623200D01*
X48324800Y-8293000D01*
X47994600Y-8293000D01*
X47994600Y-8623200D01*
X47626300Y-8623200D01*
X47626300Y-8293000D01*
X47308800Y-8293000D01*
X47308800Y-8966100D01*
X46597600Y-8966100D01*
X46597600Y-8635900D01*
X46280100Y-8635900D01*
X46280100Y-9651900D01*
X45568900Y-9651900D01*
X45568900Y-9335116D01*
X45219650Y-9328050D01*
X45216270Y-8981975D01*
X45216115Y-8966100D01*
X45581600Y-8966100D01*
X45911800Y-8966100D01*
X45911800Y-8635900D01*
X45581600Y-8635900D01*
X45581600Y-8966100D01*
X45216115Y-8966100D01*
X45212891Y-8635900D01*
X44552900Y-8635900D01*
X44552900Y-9309000D01*
X44895800Y-9309000D01*
X44895800Y-9677300D01*
X44527500Y-9677300D01*
X44527500Y-9334400D01*
X44210000Y-9334400D01*
X44210000Y-10020200D01*
X43524200Y-10020200D01*
X43524200Y-10337700D01*
X43155900Y-10337700D01*
X43155900Y-10020200D01*
X43155900Y-9994800D01*
X43498800Y-9994800D01*
X43498800Y-9677300D01*
X43155900Y-9677300D01*
X43155900Y-9334400D01*
X42139900Y-9334400D01*
X42139900Y-10020200D01*
X41771600Y-10020200D01*
X41771600Y-9677300D01*
X41085800Y-9677300D01*
X41085800Y-9309000D01*
X42114500Y-9309000D01*
X42114500Y-8991500D01*
X41771600Y-8991500D01*
X41771600Y-8635900D01*
X40768300Y-8635900D01*
X40768300Y-10020200D01*
X40400000Y-10020200D01*
X40400000Y-8623200D01*
X41797000Y-8623200D01*
X42114500Y-8623200D01*
X42114500Y-8293000D01*
X41797000Y-8293000D01*
X41797000Y-8623200D01*
X40400000Y-8623200D01*
X40400000Y-8293000D01*
X40400000Y-7924002D01*
X40761950Y-7931050D01*
X40769016Y-8280300D01*
X41427983Y-8280300D01*
X42482800Y-8280300D01*
X42825700Y-8280300D01*
X42825700Y-8635900D01*
X42482800Y-8635900D01*
X42482800Y-8966100D01*
X43155900Y-8966100D01*
X43155900Y-8623200D01*
X43524200Y-8623200D01*
X43524200Y-9309000D01*
X43841700Y-9309000D01*
X43841700Y-8966100D01*
X44184600Y-8966100D01*
X44184600Y-8623200D01*
X44527500Y-8623200D01*
X45924500Y-8623200D01*
X46254700Y-8623200D01*
X46254700Y-8293000D01*
X45924500Y-8293000D01*
X45924500Y-8623200D01*
X44527500Y-8623200D01*
X44527500Y-8293000D01*
X43498800Y-8293000D01*
X43498800Y-8280300D01*
X44895800Y-8280300D01*
X45213300Y-8280300D01*
X46280100Y-8280300D01*
X46597600Y-8280300D01*
X49036000Y-8280300D01*
X49696400Y-8280300D01*
X49696400Y-7950100D01*
X49036000Y-7950100D01*
X49036000Y-8280300D01*
X46597600Y-8280300D01*
X46597600Y-7950100D01*
X46280100Y-7950100D01*
X46280100Y-8280300D01*
X45213300Y-8280300D01*
X45213300Y-7950100D01*
X44895800Y-7950100D01*
X44895800Y-8280300D01*
X43498800Y-8280300D01*
X43498800Y-7950100D01*
X42482800Y-7950100D01*
X42482800Y-8280300D01*
X41427983Y-8280300D01*
X41431516Y-8105675D01*
X41434664Y-7950100D01*
X41435050Y-7931050D01*
X41946225Y-7927730D01*
X42412890Y-7924700D01*
X43524200Y-7924700D01*
X44870400Y-7924700D01*
X44870400Y-7581800D01*
X45238700Y-7581800D01*
X45568900Y-7581800D01*
X45568900Y-7264300D01*
X45238700Y-7264300D01*
X45238700Y-7581800D01*
X44870400Y-7581800D01*
X44870400Y-7264300D01*
X44552900Y-7264300D01*
X44552900Y-7607200D01*
X43841700Y-7607200D01*
X43841700Y-7264300D01*
X43524200Y-7264300D01*
X43524200Y-7924700D01*
X42412890Y-7924700D01*
X42457400Y-7924411D01*
X42457400Y-7607200D01*
X41771600Y-7607200D01*
X41771600Y-7581800D01*
X42482800Y-7581800D01*
X43155900Y-7581800D01*
X43155900Y-7264300D01*
X42482800Y-7264300D01*
X42482800Y-7581800D01*
X41771600Y-7581800D01*
X41771600Y-7264300D01*
X41771600Y-7238900D01*
X43168600Y-7238900D01*
X43498800Y-7238900D01*
X43498800Y-6921400D01*
X43168600Y-6921400D01*
X43168600Y-7238900D01*
X41771600Y-7238900D01*
X41771600Y-6921400D01*
X41111200Y-6921400D01*
X41111200Y-7607200D01*
X40400000Y-7607200D01*
X40400000Y-6896000D01*
X41085800Y-6896000D01*
X41085800Y-6553100D01*
X41428700Y-6553100D01*
X41428700Y-6210200D01*
X41797000Y-6210200D01*
X42114500Y-6210200D01*
X42114500Y-5880000D01*
X41797000Y-5880000D01*
X41797000Y-6210200D01*
X41428700Y-6210200D01*
X41428700Y-5880000D01*
X41085800Y-5880000D01*
X41085800Y-5524400D01*
X42825700Y-5524400D01*
X42825700Y-5880000D01*
X42482800Y-5880000D01*
X42482800Y-6210200D01*
X42825700Y-6210200D01*
X42825700Y-6579197D01*
X42644725Y-6575673D01*
X42463750Y-6572150D01*
X42456662Y-6235600D01*
X42139900Y-6235600D01*
X42139900Y-6896000D01*
X43155900Y-6896000D01*
X43524200Y-6896000D01*
X44184600Y-6896000D01*
X44184600Y-6578500D01*
X43524200Y-6578500D01*
X43524200Y-6896000D01*
X43155900Y-6896000D01*
X43155900Y-6578500D01*
X43155900Y-6553100D01*
X43498800Y-6553100D01*
X43498800Y-6235600D01*
X43155900Y-6235600D01*
X43155900Y-6210200D01*
X43524200Y-6210200D01*
X44184600Y-6210200D01*
X44184600Y-5880000D01*
X43524200Y-5880000D01*
X43524200Y-6210200D01*
X43155900Y-6210200D01*
X43155900Y-5880000D01*
X43155900Y-5867300D01*
X43498800Y-5867300D01*
X44210000Y-5867300D01*
X44527500Y-5867300D01*
X44527500Y-5537100D01*
X44210000Y-5537100D01*
X44210000Y-5867300D01*
X43498800Y-5867300D01*
X43498800Y-5537100D01*
X43155900Y-5537100D01*
X43155900Y-5524400D01*
X43867100Y-5524400D01*
X44184600Y-5524400D01*
X44552900Y-5524400D01*
X45213300Y-5524400D01*
X45213300Y-5168800D01*
X45581600Y-5168800D01*
X45911800Y-5168800D01*
X45911800Y-4851300D01*
X45581600Y-4851300D01*
X45581600Y-5168800D01*
X45213300Y-5168800D01*
X45213300Y-4851300D01*
X44895800Y-4851300D01*
X44895800Y-5194200D01*
X44552900Y-5194200D01*
X44552900Y-5524400D01*
X44184600Y-5524400D01*
X44184600Y-5194200D01*
X43867100Y-5194200D01*
X43867100Y-5524400D01*
X43155900Y-5524400D01*
X43155900Y-5194200D01*
X43155900Y-5168800D01*
X43524200Y-5168800D01*
X43841700Y-5168800D01*
X43841700Y-4851300D01*
X43524200Y-4851300D01*
X43524200Y-5168800D01*
X43155900Y-5168800D01*
X43155900Y-4851300D01*
X43155900Y-4825900D01*
X43867100Y-4825900D01*
X44210000Y-4825900D01*
X44210000Y-5168800D01*
X44527500Y-5168800D01*
X44527500Y-4508400D01*
X44184600Y-4508400D01*
X44184600Y-4483000D01*
X44552900Y-4483000D01*
X44870400Y-4483000D01*
X45238700Y-4483000D01*
X45911800Y-4483000D01*
X45911800Y-4165500D01*
X45238700Y-4165500D01*
X45238700Y-4483000D01*
X44870400Y-4483000D01*
X44870400Y-4165500D01*
X44552900Y-4165500D01*
X44552900Y-4483000D01*
X44184600Y-4483000D01*
X44184600Y-4165500D01*
X43867100Y-4165500D01*
X43867100Y-4825900D01*
X43155900Y-4825900D01*
X43155900Y-4165500D01*
X43155900Y-3454300D01*
X43524200Y-3454300D01*
X43524200Y-4140100D01*
X43841700Y-4140100D01*
X44210000Y-4140100D01*
X44527500Y-4140100D01*
X44527500Y-3822600D01*
X44210000Y-3822600D01*
X44210000Y-4140100D01*
X43841700Y-4140100D01*
X43841700Y-3822600D01*
X43841700Y-3454300D01*
X44552900Y-3454300D01*
X44870400Y-3454300D01*
X44870400Y-3136800D01*
X44552900Y-3136800D01*
X44552900Y-3454300D01*
X43841700Y-3454300D01*
X43841700Y-3136800D01*
X43841700Y-3111400D01*
X44184600Y-3111400D01*
X44184600Y-2768500D01*
X44895800Y-2768500D01*
X44895800Y-3111400D01*
G37*
D11*
X7264400Y23215600D03*
X16256000Y17475200D03*
X-7010400Y23876000D03*
X16256000Y20320000D03*
X-8001000Y22910800D03*
X13335000Y22402800D03*
X-8432800Y24739600D03*
X11988800Y19558000D03*
X-11023600Y17399000D03*
X6731000Y24511000D03*
X-12623800Y17754600D03*
D12*
X33870214Y-5034441D03*
D13*
X33870214Y-8534441D03*
X33870214Y-1534441D03*
D12*
X58929786Y-5034441D03*
D13*
X58929786Y-8534441D03*
X58929786Y-1534441D03*
D14*
X-48000000Y12300000D03*
X-47200000Y12290000D03*
X-46400000Y12300000D03*
X-45600000Y12300000D03*
X-44800000Y12300000D03*
X-44800000Y11500000D03*
X-44800000Y10700000D03*
X-45600000Y10700000D03*
X-46400000Y10700000D03*
X-47200000Y10700000D03*
X-48000000Y10700000D03*
X-48000000Y11500000D03*
D15*
X-25200000Y4800000D03*
X25200000Y-7950000D03*
D16*
X-102800000Y-15010000D03*
D15*
X-67600000Y6300000D03*
D17*
X13797002Y-21212501D03*
D18*
X12497964Y-21962501D03*
D19*
X11610289Y-22475000D03*
D20*
X10202998Y-23287499D03*
D21*
X-18290308Y22699862D03*
D22*
X-18846091Y21172862D03*
D23*
X-19196662Y20209677D03*
D24*
X-19709692Y18800138D03*
D25*
X11540300Y16611600D03*
X10405300Y16611600D03*
D15*
X25200000Y-8700000D03*
D26*
X-108050000Y-19260000D03*
X-106050000Y-19260000D03*
D15*
X-73000000Y-10200000D03*
D27*
X15250000Y1182500D03*
X15250000Y2317500D03*
D28*
X-16967247Y-17282753D03*
D29*
X-15818198Y-18431802D03*
D30*
X-15093413Y-19156587D03*
D31*
X-14032753Y-20217247D03*
D15*
X-73000000Y3300000D03*
D26*
X-108050000Y-17260000D03*
X-106050000Y-17260000D03*
D15*
X-73000000Y-450000D03*
X-67600000Y4800000D03*
D32*
X-5750000Y-12800000D03*
X-4025000Y-12800000D03*
D15*
X25200000Y-4950000D03*
D33*
X-62900000Y2000000D03*
D15*
X25200000Y-9450000D03*
X-25200000Y-1200000D03*
D34*
X14032753Y-20217247D03*
D35*
X15181802Y-19068198D03*
D36*
X15906586Y-18343414D03*
D37*
X16967247Y-17282753D03*
D15*
X-67600000Y2550000D03*
D38*
X-97138300Y25044400D03*
X-96003300Y25044400D03*
D15*
X19800000Y-5700000D03*
D25*
X-87841900Y19659600D03*
X-86706900Y19659600D03*
D39*
X-101000000Y-21962500D03*
X-101000000Y-24037500D03*
D15*
X-25200000Y-4200000D03*
D33*
X-29900000Y2000000D03*
D15*
X-73000000Y-5700000D03*
D40*
X-96202200Y23672800D03*
X-97752200Y23672800D03*
D41*
X-1100000Y6200000D03*
X-1100000Y7600000D03*
X-1800000Y5500000D03*
X-1800000Y6900000D03*
X-1800000Y8300000D03*
X-2500000Y6200000D03*
D42*
X-2500000Y6900000D03*
D41*
X-2500000Y7600000D03*
X-3200000Y5500000D03*
X-3200000Y6900000D03*
X-3200000Y8300000D03*
X-3900000Y6200000D03*
X-3900000Y7600000D03*
D43*
X7750000Y14620000D03*
X7750000Y13350000D03*
X7750000Y12080000D03*
X7750000Y10810000D03*
X7750000Y9540000D03*
X7750000Y8270000D03*
X7750000Y7000000D03*
X7750000Y5730000D03*
X7750000Y4460000D03*
X7750000Y3190000D03*
X7750000Y1920000D03*
X7750000Y650000D03*
X7750000Y-620000D03*
X7750000Y-1890000D03*
D44*
X5985000Y-3140000D03*
X4715000Y-3140000D03*
X3445000Y-3140000D03*
X2175000Y-3140000D03*
X905000Y-3140000D03*
X-365000Y-3140000D03*
X-1635000Y-3140000D03*
X-2905000Y-3140000D03*
X-4175000Y-3140000D03*
X-5445000Y-3140000D03*
X-6715000Y-3140000D03*
X-7985000Y-3140000D03*
D43*
X-9750000Y-1890000D03*
X-9750000Y-620000D03*
X-9750000Y650000D03*
X-9750000Y1920000D03*
X-9750000Y3190000D03*
X-9750000Y4460000D03*
X-9750000Y5730000D03*
X-9750000Y7000000D03*
X-9750000Y8270000D03*
X-9750000Y9540000D03*
X-9750000Y10810000D03*
X-9750000Y12080000D03*
X-9750000Y13350000D03*
X-9750000Y14620000D03*
D45*
X-93050000Y22114400D03*
D46*
X-93950000Y21714400D03*
X-93950000Y21214400D03*
X-93950000Y20714400D03*
X-93950000Y20214400D03*
X-93950000Y19714400D03*
X-93950000Y19214400D03*
X-93950000Y18714400D03*
X-93950000Y18214400D03*
D45*
X-93050000Y17814400D03*
X-91550000Y17814400D03*
D46*
X-90650000Y18214400D03*
X-90650000Y18714400D03*
X-90650000Y19214400D03*
X-90650000Y19714400D03*
X-90650000Y20214400D03*
X-90650000Y20714400D03*
X-90650000Y21214400D03*
X-90650000Y21714400D03*
D45*
X-91550000Y22114400D03*
D47*
X-92575000Y22114400D03*
X-92575000Y17814400D03*
D48*
X-92300000Y19964400D03*
D47*
X-92025000Y22114400D03*
X-92025000Y17814400D03*
D15*
X-67600000Y-10200000D03*
X19800000Y-6450000D03*
X-25200000Y-8700000D03*
D38*
X-97138300Y19913600D03*
X-96003300Y19913600D03*
D26*
X-108050000Y-15260000D03*
X-106050000Y-15260000D03*
D25*
X-13986700Y20250000D03*
X-15121700Y20250000D03*
D15*
X19800000Y-3450000D03*
X-25200000Y-4950000D03*
D49*
X-8000000Y-13750000D03*
X-8000000Y-12800000D03*
X-8000000Y-11850000D03*
X-10275000Y-11850000D03*
X-10275000Y-13750000D03*
D50*
X-13250000Y9597500D03*
X-13250000Y8402500D03*
D15*
X-19800000Y2550000D03*
D38*
X-87214900Y15900400D03*
X-88349900Y15900400D03*
D26*
X-108050000Y-13260000D03*
X-106050000Y-13260000D03*
D15*
X-19800000Y-3450000D03*
D51*
X12125000Y-11250000D03*
X10375000Y-11250000D03*
X10375000Y-14750000D03*
X12125000Y-14750000D03*
D38*
X-15121700Y18796000D03*
X-13986700Y18796000D03*
D25*
X-90732500Y23368000D03*
X-91867500Y23368000D03*
D38*
X-83367500Y-15260000D03*
X-82232500Y-15260000D03*
D15*
X-67600000Y-450000D03*
X25200000Y3300000D03*
X25200000Y6300000D03*
D52*
X-72898528Y24838528D03*
D53*
X-71201472Y23141472D03*
D15*
X19800000Y-450000D03*
X19800000Y6300000D03*
D54*
X4700000Y-19000000D03*
D55*
X6000000Y-19000000D03*
D15*
X25200000Y4050000D03*
D33*
X30000000Y-12000000D03*
D15*
X19800000Y1800000D03*
X25200000Y-3450000D03*
D32*
X-10250000Y-6300000D03*
X-8525000Y-6300000D03*
D15*
X-19800000Y-6450000D03*
D56*
X11902500Y-17750000D03*
X13097500Y-17750000D03*
D15*
X-73000000Y2550000D03*
X-73000000Y4050000D03*
D57*
X5800000Y-12750000D03*
D58*
X4500000Y-12750000D03*
D59*
X3200000Y-12750000D03*
D60*
X-12637500Y-10225000D03*
X-12637500Y-8875000D03*
D25*
X11946700Y-19405600D03*
X10811700Y-19405600D03*
D59*
X3200000Y-14750000D03*
D58*
X4500000Y-14750000D03*
D57*
X5800000Y-14750000D03*
D15*
X-67600000Y-4950000D03*
X19800000Y1050000D03*
X19800000Y-4200000D03*
X-25200000Y6300000D03*
X-73000000Y6300000D03*
D33*
X62800000Y2000000D03*
D15*
X-73000000Y300000D03*
X19800000Y300000D03*
X-19800000Y1800000D03*
D16*
X-15700000Y16800000D03*
D15*
X-19800000Y4050000D03*
D61*
X-92050000Y-20660000D03*
D62*
X-92050000Y-14860000D03*
D15*
X-19800000Y-1950000D03*
X-73000000Y-10950000D03*
X-67600000Y-5700000D03*
X25200000Y-5700000D03*
D56*
X-97147500Y18740000D03*
X-95952500Y18740000D03*
D38*
X-12567500Y-18750000D03*
X-11432500Y-18750000D03*
D32*
X-83162500Y-17010000D03*
X-81437500Y-17010000D03*
D15*
X19800000Y-7950000D03*
X-19800000Y-8700000D03*
X-25200000Y4050000D03*
D56*
X-108397500Y-11510000D03*
X-107202500Y-11510000D03*
X-6597500Y-5250000D03*
X-5402500Y-5250000D03*
D38*
X-12567500Y-20000000D03*
X-11432500Y-20000000D03*
D15*
X-73000000Y-2700000D03*
X19800000Y-10200000D03*
X-19800000Y1050000D03*
X-67600000Y-8700000D03*
X-19800000Y4800000D03*
X-19800000Y-450000D03*
D25*
X-96003300Y22250400D03*
X-97138300Y22250400D03*
D63*
X-37600000Y5260000D03*
D64*
X-37600001Y7410000D03*
D15*
X19800000Y-8700000D03*
D65*
X14425000Y11150000D03*
X16575000Y11150000D03*
X16575000Y15350000D03*
X14425000Y15350000D03*
D15*
X-73000000Y-4950000D03*
X25200000Y4800000D03*
X-67600000Y4050000D03*
D49*
X-7952500Y-17500000D03*
X-7952500Y-16550000D03*
X-7952500Y-15600000D03*
X-10227500Y-15600000D03*
X-10227500Y-17500000D03*
D15*
X25200000Y-1950000D03*
D66*
X-13000000Y13225000D03*
X-13000000Y14775000D03*
D67*
X-96187500Y17240000D03*
X-97912500Y17240000D03*
D68*
X-83162500Y-9760000D03*
X-76937500Y-9760000D03*
D15*
X-19800000Y-10200000D03*
X-19800000Y6300000D03*
X-25200000Y5550000D03*
D38*
X-88400700Y25146000D03*
X-87265700Y25146000D03*
D15*
X-25200000Y3300000D03*
X-25200000Y300000D03*
X-25200000Y-1950000D03*
X-67600000Y-7950000D03*
X-73000000Y-9450000D03*
D69*
X-107202500Y-9010000D03*
X-108397500Y-9010000D03*
D15*
X25200000Y-7200000D03*
X-73000000Y1800000D03*
D56*
X-5985000Y-9550000D03*
X-4790000Y-9550000D03*
D16*
X-85800000Y-8260000D03*
D15*
X-73000000Y1050000D03*
X25200000Y-450000D03*
D70*
X26989333Y-6841757D03*
D71*
X27526059Y-7992769D03*
X28062783Y-9143779D03*
D15*
X-73000000Y-6450000D03*
X-25200000Y-10950000D03*
X-19800000Y3300000D03*
X-67600000Y-2700000D03*
D72*
X-37600000Y2540000D03*
D73*
X-37600000Y390000D03*
D65*
X14425000Y4800000D03*
X16575000Y4800000D03*
X16575000Y9000000D03*
X14425000Y9000000D03*
D74*
X-17500000Y-11750000D03*
D75*
X-17500000Y-9210000D03*
D15*
X25200000Y-4200000D03*
X-19800000Y-7200000D03*
X-67600000Y3300000D03*
X25200000Y5550000D03*
D76*
X-97050000Y-21372500D03*
X-97050000Y-15147500D03*
D33*
X-62900000Y-12000000D03*
D15*
X-67600000Y-7200000D03*
X-19800000Y-5700000D03*
X-73000000Y-7950000D03*
D77*
X14250000Y-5150000D03*
X14750000Y-5150000D03*
X15250000Y-5150000D03*
X15750000Y-5150000D03*
X16250000Y-5150000D03*
X16250000Y-850000D03*
X15750000Y-850000D03*
X15250000Y-850000D03*
X14750000Y-850000D03*
X14250000Y-850000D03*
D16*
X-104050000Y-8760000D03*
D15*
X-25200000Y-5700000D03*
X-73000000Y-1950000D03*
D72*
X-55200000Y2540000D03*
D73*
X-55200000Y390000D03*
D69*
X-107202500Y-10260000D03*
X-108397500Y-10260000D03*
D33*
X-29900000Y-12000000D03*
D15*
X25200000Y1050000D03*
D54*
X-400000Y-22750000D03*
D55*
X900000Y-22750000D03*
D78*
X-88850000Y-21510000D03*
X-87535000Y-21510000D03*
X-86265000Y-21510000D03*
X-85000000Y-21510000D03*
X-84995000Y-14010000D03*
X-86265000Y-14010000D03*
X-87535000Y-14010000D03*
X-88800000Y-14010000D03*
D79*
X-86900000Y-17760000D03*
D65*
X14425000Y-15100000D03*
X16575000Y-15100000D03*
X16575000Y-10900000D03*
X14425000Y-10900000D03*
D80*
X-71050000Y21190000D03*
D81*
X-71050000Y18790000D03*
D25*
X-90732500Y24485600D03*
X-91867500Y24485600D03*
D15*
X-19800000Y300000D03*
X19800000Y-7200000D03*
D82*
X19709692Y18800138D03*
D83*
X19153909Y20327139D03*
D84*
X18803340Y21290321D03*
D85*
X18290308Y22699862D03*
D86*
X-97550000Y14240000D03*
X-91550000Y14240000D03*
D15*
X-73000000Y-8700000D03*
D38*
X-87265700Y22910800D03*
X-88400700Y22910800D03*
D87*
X-12000000Y-5097500D03*
X-12000000Y-3902500D03*
D15*
X-19800000Y-10950000D03*
X-73000000Y5550000D03*
X-67600000Y-3450000D03*
X19800000Y-1200000D03*
D88*
X-83087500Y-13510000D03*
X-81012500Y-13510000D03*
D15*
X25200000Y1800000D03*
D17*
X-12952997Y25287500D03*
D89*
X-14360289Y24475000D03*
D90*
X-15247965Y23962500D03*
D20*
X-16547003Y23212500D03*
D91*
X-82300000Y-22060000D03*
X-82300000Y-18960000D03*
D92*
X-88354200Y14427200D03*
X-86804200Y14427200D03*
D15*
X-73000000Y-4200000D03*
D16*
X2250000Y-7250000D03*
D50*
X-7500000Y-19152500D03*
X-7500000Y-20347500D03*
D38*
X-88400700Y24028400D03*
X-87265700Y24028400D03*
D15*
X-67600000Y300000D03*
X25200000Y-10950000D03*
X-19800000Y-4950000D03*
D69*
X-107202500Y-7760000D03*
X-108397500Y-7760000D03*
D16*
X-15500000Y6800000D03*
D92*
X-86651800Y21386800D03*
X-88201800Y21386800D03*
D15*
X-25200000Y-7200000D03*
X-67600000Y5550000D03*
D56*
X-108397500Y-21010000D03*
X-107202500Y-21010000D03*
D93*
X-10202997Y-23287500D03*
D94*
X-11502035Y-22537500D03*
D95*
X-12389711Y-22025000D03*
D96*
X-13797003Y-21212500D03*
D97*
X-100337500Y-7855000D03*
X-100337500Y-9125000D03*
X-100337500Y-10395000D03*
X-100337500Y-11665000D03*
X-95262500Y-11665000D03*
X-95262500Y-10395000D03*
X-95262500Y-9125000D03*
X-95262500Y-7855000D03*
D87*
X-12000000Y-2500000D03*
X-12000000Y-1305000D03*
D98*
X-101050000Y-19900000D03*
X-101050000Y-17100000D03*
D15*
X19800000Y-1950000D03*
X19800000Y5550000D03*
D99*
X-12387500Y-13662500D03*
X-12387500Y-11937500D03*
D15*
X-19800000Y-1200000D03*
D32*
X-5750000Y-11050000D03*
X-4025000Y-11050000D03*
D56*
X9308500Y22199600D03*
X10503500Y22199600D03*
D93*
X16547003Y23212500D03*
D100*
X15139711Y24025000D03*
D101*
X14252035Y24537500D03*
D96*
X12952997Y25287500D03*
D102*
X65810666Y-3227125D03*
D103*
X65273941Y-2076113D03*
X64737216Y-925103D03*
D15*
X25200000Y-10200000D03*
X-25200000Y-2700000D03*
X25200000Y300000D03*
X-25200000Y1800000D03*
X-25200000Y-450000D03*
D56*
X-5985000Y-8300000D03*
X-4790000Y-8300000D03*
D15*
X25200000Y-2700000D03*
D64*
X-55200000Y7410000D03*
D63*
X-55200000Y5260000D03*
D15*
X19800000Y-10950000D03*
X-25200000Y-3450000D03*
D104*
X-87850000Y-9510000D03*
X-92250000Y-9510000D03*
D25*
X11591100Y17729200D03*
X10456100Y17729200D03*
D16*
X-103800000Y-21010000D03*
D105*
X64737215Y-9143780D03*
D106*
X65273941Y-7992770D03*
X65810665Y-6841758D03*
D15*
X-19800000Y-2700000D03*
X-67600000Y-1200000D03*
X-73000000Y-1200000D03*
X19800000Y4800000D03*
D16*
X-104300000Y-24010000D03*
D15*
X19800000Y4050000D03*
D107*
X-97500000Y-24577500D03*
X-97500000Y-23442500D03*
D33*
X62800000Y-12000000D03*
X30000000Y2000000D03*
D15*
X-67600000Y1800000D03*
D59*
X-1400000Y-19000000D03*
D58*
X-100000Y-19000000D03*
D57*
X1200000Y-19000000D03*
D16*
X-17000000Y9750000D03*
D15*
X-25200000Y1050000D03*
X-67600000Y-4200000D03*
X-73000000Y4800000D03*
X-19800000Y-7950000D03*
X19800000Y-9450000D03*
D56*
X-108397500Y-22260000D03*
X-107202500Y-22260000D03*
D108*
X28062786Y-925102D03*
D106*
X27526059Y-2076113D03*
X26989336Y-3227123D03*
D15*
X-67600000Y-1950000D03*
D56*
X-108397500Y-24760000D03*
X-107202500Y-24760000D03*
D109*
X-11500000Y26550000D03*
X-10500000Y26550000D03*
X-9500000Y26550000D03*
X-8500000Y26550000D03*
X-7500000Y26550000D03*
X-6500000Y26550000D03*
D110*
X-5500000Y26850000D03*
X5500000Y26850000D03*
D109*
X6500000Y26550000D03*
X7500000Y26550000D03*
X8500000Y26550000D03*
X9500000Y26550000D03*
X10500000Y26550000D03*
X11500000Y26550000D03*
D15*
X-19800000Y-4200000D03*
X19800000Y-4950000D03*
X-67600000Y-6450000D03*
D56*
X-86147500Y-24010000D03*
X-84952500Y-24010000D03*
D15*
X-73000000Y-7200000D03*
D32*
X9602300Y20828000D03*
X11327300Y20828000D03*
D56*
X-108397500Y-23510000D03*
X-107202500Y-23510000D03*
D15*
X25200000Y-6450000D03*
D87*
X-72800000Y20402500D03*
X-72800000Y21597500D03*
D15*
X19800000Y2550000D03*
D25*
X10811700Y-20655600D03*
X11946700Y-20655600D03*
D27*
X-11500000Y13432500D03*
X-11500000Y14567500D03*
D111*
X-4050000Y-18562500D03*
X-5950000Y-18562500D03*
X-5000000Y-20437500D03*
D112*
X-90275000Y-4620000D03*
X-95325000Y-4620000D03*
X-90275000Y-2080000D03*
X-95325000Y-2080000D03*
X-90275000Y460000D03*
X-95325000Y460000D03*
X-90275000Y3000000D03*
X-95325000Y3000000D03*
X-90275000Y5540000D03*
X-95325000Y5540000D03*
X-90275000Y8080000D03*
X-95325000Y8080000D03*
X-90275000Y10620000D03*
X-95325000Y10620000D03*
D16*
X-17400000Y14500000D03*
D15*
X-19800000Y-9450000D03*
D113*
X-114600000Y20290000D03*
D114*
X-114600000Y22690000D03*
D38*
X11932500Y-16500000D03*
X13067500Y-16500000D03*
D15*
X-25200000Y-7950000D03*
X19800000Y-2700000D03*
X-67600000Y1050000D03*
D65*
X-16575000Y-5600000D03*
X-14425000Y-5600000D03*
X-14425000Y-1400000D03*
X-16575000Y-1400000D03*
D15*
X25200000Y-1200000D03*
X-19800000Y5550000D03*
X-67600000Y-10950000D03*
D16*
X-15300000Y12600000D03*
D99*
X-12387500Y-17162500D03*
X-12387500Y-15437500D03*
D16*
X6000000Y-7250000D03*
D15*
X-25200000Y-9450000D03*
X25200000Y2550000D03*
D115*
X-41800000Y12150000D03*
X-41800000Y11500000D03*
X-41800000Y10850000D03*
X-40000000Y10850000D03*
X-40000000Y11500000D03*
X-40000000Y12150000D03*
D15*
X19800000Y3300000D03*
X-25200000Y-10200000D03*
X-73000000Y-3450000D03*
X-25200000Y2550000D03*
D25*
X-88299100Y18440400D03*
X-87164100Y18440400D03*
D32*
X-5750000Y-14550000D03*
X-4025000Y-14550000D03*
D99*
X-11750000Y8137500D03*
X-11750000Y9862500D03*
D15*
X-67600000Y-9450000D03*
D116*
X-10275000Y-8100000D03*
X-10275000Y-9050000D03*
X-10275000Y-10000000D03*
X-8000000Y-10000000D03*
X-8000000Y-8100000D03*
D25*
X-87214900Y17221200D03*
X-88349900Y17221200D03*
D15*
X-25200000Y-6450000D03*
D87*
X14000000Y1152500D03*
X14000000Y2347500D03*
D38*
X-97138300Y21031200D03*
X-96003300Y21031200D03*
D117*
X-13100000Y4500000D03*
X-16900000Y4500000D03*
D118*
X-14400000Y500000D03*
X-15600000Y500000D03*
D119*
X-11250000Y-26250000D03*
X-8750000Y-26250000D03*
X-6250000Y-26250000D03*
X-3750000Y-26250000D03*
X-1250000Y-26250000D03*
X1250000Y-26250000D03*
X3750000Y-26250000D03*
X6250000Y-26250000D03*
X8750000Y-26250000D03*
X11250000Y-26250000D03*
M02*
