G04 #@! TF.GenerationSoftware,KiCad,Pcbnew,8.0.8*
G04 #@! TF.CreationDate,2025-08-18T01:47:15+03:00*
G04 #@! TF.ProjectId,Microbot_v1.1,4d696372-6f62-46f7-945f-76312e312e6b,rev?*
G04 #@! TF.SameCoordinates,Original*
G04 #@! TF.FileFunction,Soldermask,Bot*
G04 #@! TF.FilePolarity,Negative*
%FSLAX46Y46*%
G04 Gerber Fmt 4.6, Leading zero omitted, Abs format (unit mm)*
G04 Created by KiCad (PCBNEW 8.0.8) date 2025-08-18 01:47:15*
%MOMM*%
%LPD*%
G01*
G04 APERTURE LIST*
G04 Aperture macros list*
%AMRoundRect*
0 Rectangle with rounded corners*
0 $1 Rounding radius*
0 $2 $3 $4 $5 $6 $7 $8 $9 X,Y pos of 4 corners*
0 Add a 4 corners polygon primitive as box body*
4,1,4,$2,$3,$4,$5,$6,$7,$8,$9,$2,$3,0*
0 Add four circle primitives for the rounded corners*
1,1,$1+$1,$2,$3*
1,1,$1+$1,$4,$5*
1,1,$1+$1,$6,$7*
1,1,$1+$1,$8,$9*
0 Add four rect primitives between the rounded corners*
20,1,$1+$1,$2,$3,$4,$5,0*
20,1,$1+$1,$4,$5,$6,$7,0*
20,1,$1+$1,$6,$7,$8,$9,0*
20,1,$1+$1,$8,$9,$2,$3,0*%
%AMHorizOval*
0 Thick line with rounded ends*
0 $1 width*
0 $2 $3 position (X,Y) of the first rounded end (center of the circle)*
0 $4 $5 position (X,Y) of the second rounded end (center of the circle)*
0 Add line between two ends*
20,1,$1,$2,$3,$4,$5,0*
0 Add two circle primitives to create the rounded ends*
1,1,$1,$2,$3*
1,1,$1,$4,$5*%
%AMRotRect*
0 Rectangle, with rotation*
0 The origin of the aperture is its center*
0 $1 length*
0 $2 width*
0 $3 Rotation angle, in degrees counterclockwise*
0 Add horizontal line*
21,1,$1,$2,0,0,$3*%
%AMOutline5P*
0 Free polygon, 5 corners , with rotation*
0 The origin of the aperture is its center*
0 number of corners: always 5*
0 $1 to $10 corner X, Y*
0 $11 Rotation angle, in degrees counterclockwise*
0 create outline with 5 corners*
4,1,5,$1,$2,$3,$4,$5,$6,$7,$8,$9,$10,$1,$2,$11*%
%AMOutline6P*
0 Free polygon, 6 corners , with rotation*
0 The origin of the aperture is its center*
0 number of corners: always 6*
0 $1 to $12 corner X, Y*
0 $13 Rotation angle, in degrees counterclockwise*
0 create outline with 6 corners*
4,1,6,$1,$2,$3,$4,$5,$6,$7,$8,$9,$10,$11,$12,$1,$2,$13*%
%AMOutline7P*
0 Free polygon, 7 corners , with rotation*
0 The origin of the aperture is its center*
0 number of corners: always 7*
0 $1 to $14 corner X, Y*
0 $15 Rotation angle, in degrees counterclockwise*
0 create outline with 7 corners*
4,1,7,$1,$2,$3,$4,$5,$6,$7,$8,$9,$10,$11,$12,$13,$14,$1,$2,$15*%
%AMOutline8P*
0 Free polygon, 8 corners , with rotation*
0 The origin of the aperture is its center*
0 number of corners: always 8*
0 $1 to $16 corner X, Y*
0 $17 Rotation angle, in degrees counterclockwise*
0 create outline with 8 corners*
4,1,8,$1,$2,$3,$4,$5,$6,$7,$8,$9,$10,$11,$12,$13,$14,$15,$16,$1,$2,$17*%
%AMFreePoly0*
4,1,24,-1.150000,0.575000,-1.130407,0.723821,-1.072965,0.862500,-0.981586,0.981586,-0.862500,1.072965,-0.723821,1.130407,-0.575000,1.150000,0.575000,1.150000,0.723821,1.130407,0.862500,1.072965,0.981586,0.981586,1.072965,0.862500,1.130407,0.723821,1.150000,0.575000,1.150000,0.000000,0.000000,-1.150000,-0.575000,-1.150000,-0.723821,-1.130407,-0.862500,-1.072965,-0.981586,-0.981586,
-1.072965,-0.862500,-1.130407,-0.723821,-1.150000,-0.575000,-1.150000,0.575000,-1.150000,0.575000,$1*%
G04 Aperture macros list end*
%ADD10C,0.010000*%
%ADD11C,5.100000*%
%ADD12O,2.600000X1.400000*%
%ADD13C,0.500000*%
%ADD14O,8.800000X3.600000*%
%ADD15RotRect,1.050000X1.300000X295.000000*%
%ADD16HorizOval,1.050000X-0.113288X-0.052827X0.113288X0.052827X0*%
%ADD17R,1.700000X1.700000*%
%ADD18O,1.700000X1.700000*%
%ADD19O,4.000000X4.000000*%
%ADD20RotRect,1.050000X1.300000X115.000000*%
%ADD21HorizOval,1.050000X0.113288X0.052827X-0.113288X-0.052827X0*%
%ADD22RotRect,1.050000X1.300000X65.000000*%
%ADD23HorizOval,1.050000X-0.113288X0.052827X0.113288X-0.052827X0*%
%ADD24RotRect,1.050000X1.300000X245.000000*%
%ADD25RoundRect,0.237500X-0.300000X-0.237500X0.300000X-0.237500X0.300000X0.237500X-0.300000X0.237500X0*%
%ADD26RoundRect,0.160000X0.160000X-0.197500X0.160000X0.197500X-0.160000X0.197500X-0.160000X-0.197500X0*%
%ADD27C,2.000000*%
%ADD28RoundRect,0.155000X0.212500X0.155000X-0.212500X0.155000X-0.212500X-0.155000X0.212500X-0.155000X0*%
%ADD29RoundRect,0.150000X-0.650000X-0.150000X0.650000X-0.150000X0.650000X0.150000X-0.650000X0.150000X0*%
%ADD30RoundRect,0.150000X0.150000X-0.587500X0.150000X0.587500X-0.150000X0.587500X-0.150000X-0.587500X0*%
%ADD31R,2.400000X2.980000*%
%ADD32RoundRect,0.100000X0.687500X0.100000X-0.687500X0.100000X-0.687500X-0.100000X0.687500X-0.100000X0*%
%ADD33RoundRect,0.250000X-0.625000X0.400000X-0.625000X-0.400000X0.625000X-0.400000X0.625000X0.400000X0*%
%ADD34C,1.000000*%
%ADD35RoundRect,0.250000X-0.300000X0.300000X-0.300000X-0.300000X0.300000X-0.300000X0.300000X0.300000X0*%
%ADD36RoundRect,0.250000X0.325000X0.450000X-0.325000X0.450000X-0.325000X-0.450000X0.325000X-0.450000X0*%
%ADD37RoundRect,0.237500X0.300000X0.237500X-0.300000X0.237500X-0.300000X-0.237500X0.300000X-0.237500X0*%
%ADD38RoundRect,0.102000X-0.550000X0.600000X-0.550000X-0.600000X0.550000X-0.600000X0.550000X0.600000X0*%
%ADD39RoundRect,0.225000X0.225000X0.250000X-0.225000X0.250000X-0.225000X-0.250000X0.225000X-0.250000X0*%
%ADD40RoundRect,0.160000X0.197500X0.160000X-0.197500X0.160000X-0.197500X-0.160000X0.197500X-0.160000X0*%
%ADD41RoundRect,0.155000X-0.212500X-0.155000X0.212500X-0.155000X0.212500X0.155000X-0.212500X0.155000X0*%
%ADD42RoundRect,0.375000X0.375000X1.625000X-0.375000X1.625000X-0.375000X-1.625000X0.375000X-1.625000X0*%
%ADD43RoundRect,0.250000X-1.500000X-0.650000X1.500000X-0.650000X1.500000X0.650000X-1.500000X0.650000X0*%
%ADD44R,2.100000X1.800000*%
%ADD45RoundRect,0.062500X0.062500X-0.387500X0.062500X0.387500X-0.062500X0.387500X-0.062500X-0.387500X0*%
%ADD46R,1.800000X2.400000*%
%ADD47RoundRect,0.225000X-0.225000X-0.250000X0.225000X-0.250000X0.225000X0.250000X-0.225000X0.250000X0*%
%ADD48RoundRect,0.160000X-0.160000X0.197500X-0.160000X-0.197500X0.160000X-0.197500X0.160000X0.197500X0*%
%ADD49RoundRect,0.155000X0.155000X-0.212500X0.155000X0.212500X-0.155000X0.212500X-0.155000X-0.212500X0*%
%ADD50RoundRect,0.225000X-0.225000X-0.375000X0.225000X-0.375000X0.225000X0.375000X-0.225000X0.375000X0*%
%ADD51RoundRect,0.160000X-0.197500X-0.160000X0.197500X-0.160000X0.197500X0.160000X-0.197500X0.160000X0*%
%ADD52R,3.150000X1.000000*%
%ADD53RoundRect,0.155000X-0.155000X0.212500X-0.155000X-0.212500X0.155000X-0.212500X0.155000X0.212500X0*%
%ADD54RoundRect,0.150000X-0.150000X0.587500X-0.150000X-0.587500X0.150000X-0.587500X0.150000X0.587500X0*%
%ADD55RoundRect,0.102000X0.125000X0.550000X-0.125000X0.550000X-0.125000X-0.550000X0.125000X-0.550000X0*%
%ADD56RoundRect,0.102000X0.850000X0.750000X-0.850000X0.750000X-0.850000X-0.750000X0.850000X-0.750000X0*%
%ADD57RoundRect,0.079400X0.707600X-0.317600X0.707600X0.317600X-0.707600X0.317600X-0.707600X-0.317600X0*%
%ADD58RoundRect,0.575000X0.575000X0.575000X-0.575000X0.575000X-0.575000X-0.575000X0.575000X-0.575000X0*%
%ADD59FreePoly0,180.000000*%
%ADD60Outline6P,-0.250000X0.800000X-0.050000X1.000000X0.050000X1.000000X0.250000X0.800000X0.250000X-1.000000X-0.250000X-1.000000X0.000000*%
%ADD61Outline6P,-0.250000X0.500000X-0.050000X0.700000X0.050000X0.700000X0.250000X0.500000X0.250000X-0.700000X-0.250000X-0.700000X0.000000*%
%ADD62R,0.600000X1.500000*%
%ADD63R,0.300000X1.500000*%
%ADD64RoundRect,0.162500X-0.617500X-0.162500X0.617500X-0.162500X0.617500X0.162500X-0.617500X0.162500X0*%
%ADD65Outline6P,-0.800000X0.610000X-0.160000X1.250000X0.160000X1.250000X0.800000X0.610000X0.800000X-1.250000X-0.800000X-1.250000X0.000000*%
G04 APERTURE END LIST*
D10*
X-106719960Y-27654150D02*
X-106719300Y-29286100D01*
X-111723100Y-29286100D01*
X-111723100Y-27665438D01*
X-110474344Y-26302060D01*
X-107965371Y-26295250D01*
X-106719960Y-27654150D01*
G36*
X-106719960Y-27654150D02*
G01*
X-106719300Y-29286100D01*
X-111723100Y-29286100D01*
X-111723100Y-27665438D01*
X-110474344Y-26302060D01*
X-107965371Y-26295250D01*
X-106719960Y-27654150D01*
G37*
X-73953983Y-27654150D02*
X-73953642Y-28470125D01*
X-73953300Y-29286100D01*
X-78957100Y-29286100D01*
X-78957100Y-27665428D01*
X-77704272Y-26297476D01*
X-75199357Y-26295250D01*
X-73953983Y-27654150D01*
G36*
X-73953983Y-27654150D02*
G01*
X-73953642Y-28470125D01*
X-73953300Y-29286100D01*
X-78957100Y-29286100D01*
X-78957100Y-27665428D01*
X-77704272Y-26297476D01*
X-75199357Y-26295250D01*
X-73953983Y-27654150D01*
G37*
X-13920400Y-27660495D02*
X-13920400Y-29286100D01*
X-18924200Y-29286100D01*
X-18924200Y-27660267D01*
X-17747275Y-26374508D01*
X-17605176Y-26219288D01*
X-17466904Y-26068285D01*
X-17333525Y-25922661D01*
X-17206100Y-25783576D01*
X-17085696Y-25652188D01*
X-16973375Y-25529660D01*
X-16870201Y-25417150D01*
X-16777239Y-25315818D01*
X-16695552Y-25226826D01*
X-16626204Y-25151332D01*
X-16570260Y-25090498D01*
X-16528782Y-25045483D01*
X-16502836Y-25017446D01*
X-16495856Y-25009985D01*
X-16421362Y-24931221D01*
X-13920400Y-27660495D01*
G36*
X-13920400Y-27660495D02*
G01*
X-13920400Y-29286100D01*
X-18924200Y-29286100D01*
X-18924200Y-27660267D01*
X-17747275Y-26374508D01*
X-17605176Y-26219288D01*
X-17466904Y-26068285D01*
X-17333525Y-25922661D01*
X-17206100Y-25783576D01*
X-17085696Y-25652188D01*
X-16973375Y-25529660D01*
X-16870201Y-25417150D01*
X-16777239Y-25315818D01*
X-16695552Y-25226826D01*
X-16626204Y-25151332D01*
X-16570260Y-25090498D01*
X-16528782Y-25045483D01*
X-16502836Y-25017446D01*
X-16495856Y-25009985D01*
X-16421362Y-24931221D01*
X-13920400Y-27660495D01*
G37*
X-106719300Y27690990D02*
X-107939523Y26358220D01*
X-108083293Y26201204D01*
X-108222650Y26049033D01*
X-108356600Y25902792D01*
X-108484151Y25763563D01*
X-108604310Y25632429D01*
X-108716084Y25510475D01*
X-108818478Y25398782D01*
X-108910501Y25298435D01*
X-108991158Y25210516D01*
X-109059457Y25136110D01*
X-109114405Y25076297D01*
X-109155008Y25032164D01*
X-109180274Y25004791D01*
X-109188863Y24995599D01*
X-109217981Y24965747D01*
X-110470541Y26332790D01*
X-111723100Y27699833D01*
X-111723100Y29311700D01*
X-106719300Y29311700D01*
X-106719300Y27690990D01*
G36*
X-106719300Y27690990D02*
G01*
X-107939523Y26358220D01*
X-108083293Y26201204D01*
X-108222650Y26049033D01*
X-108356600Y25902792D01*
X-108484151Y25763563D01*
X-108604310Y25632429D01*
X-108716084Y25510475D01*
X-108818478Y25398782D01*
X-108910501Y25298435D01*
X-108991158Y25210516D01*
X-109059457Y25136110D01*
X-109114405Y25076297D01*
X-109155008Y25032164D01*
X-109180274Y25004791D01*
X-109188863Y24995599D01*
X-109217981Y24965747D01*
X-110470541Y26332790D01*
X-111723100Y27699833D01*
X-111723100Y29311700D01*
X-106719300Y29311700D01*
X-106719300Y27690990D01*
G37*
X-73953300Y27690990D02*
X-75173523Y26358220D01*
X-75317292Y26201204D01*
X-75456648Y26049035D01*
X-75590597Y25902795D01*
X-75718147Y25763567D01*
X-75838304Y25632436D01*
X-75950074Y25510484D01*
X-76052466Y25398794D01*
X-76144486Y25298450D01*
X-76225141Y25210534D01*
X-76293437Y25136130D01*
X-76348382Y25076321D01*
X-76388982Y25032190D01*
X-76414244Y25004821D01*
X-76422831Y24995631D01*
X-76451917Y24965812D01*
X-77282231Y25871931D01*
X-77411919Y26013458D01*
X-77545038Y26158729D01*
X-77679479Y26305441D01*
X-77813134Y26451294D01*
X-77943894Y26593987D01*
X-78069651Y26731219D01*
X-78188295Y26860688D01*
X-78297718Y26980093D01*
X-78395811Y27087133D01*
X-78480465Y27179508D01*
X-78534823Y27238822D01*
X-78957100Y27699593D01*
X-78957100Y29311700D01*
X-73953300Y29311700D01*
X-73953300Y27690990D01*
G36*
X-73953300Y27690990D02*
G01*
X-75173523Y26358220D01*
X-75317292Y26201204D01*
X-75456648Y26049035D01*
X-75590597Y25902795D01*
X-75718147Y25763567D01*
X-75838304Y25632436D01*
X-75950074Y25510484D01*
X-76052466Y25398794D01*
X-76144486Y25298450D01*
X-76225141Y25210534D01*
X-76293437Y25136130D01*
X-76348382Y25076321D01*
X-76388982Y25032190D01*
X-76414244Y25004821D01*
X-76422831Y24995631D01*
X-76451917Y24965812D01*
X-77282231Y25871931D01*
X-77411919Y26013458D01*
X-77545038Y26158729D01*
X-77679479Y26305441D01*
X-77813134Y26451294D01*
X-77943894Y26593987D01*
X-78069651Y26731219D01*
X-78188295Y26860688D01*
X-78297718Y26980093D01*
X-78395811Y27087133D01*
X-78480465Y27179508D01*
X-78534823Y27238822D01*
X-78957100Y27699593D01*
X-78957100Y29311700D01*
X-73953300Y29311700D01*
X-73953300Y27690990D01*
G37*
X-13921432Y27692450D02*
X-15166987Y26333550D01*
X-15311856Y26175539D01*
X-15452058Y26022698D01*
X-15586632Y25876071D01*
X-15714616Y25736703D01*
X-15835050Y25605638D01*
X-15946972Y25483919D01*
X-16049422Y25372590D01*
X-16141437Y25272695D01*
X-16222058Y25185278D01*
X-16290323Y25111383D01*
X-16345271Y25052054D01*
X-16385941Y25008334D01*
X-16411372Y24981268D01*
X-16420596Y24971901D01*
X-16429955Y24980777D01*
X-16455493Y25007361D01*
X-16496252Y25050614D01*
X-16551273Y25109498D01*
X-16619596Y25182975D01*
X-16700262Y25270006D01*
X-16792312Y25369553D01*
X-16894787Y25480578D01*
X-17006727Y25602042D01*
X-17127174Y25732907D01*
X-17255168Y25872135D01*
X-17389751Y26018687D01*
X-17529962Y26171525D01*
X-17674842Y26329612D01*
X-17675932Y26330801D01*
X-18923214Y27692450D01*
X-18924200Y29311700D01*
X-13920400Y29311700D01*
X-13921432Y27692450D01*
G36*
X-13921432Y27692450D02*
G01*
X-15166987Y26333550D01*
X-15311856Y26175539D01*
X-15452058Y26022698D01*
X-15586632Y25876071D01*
X-15714616Y25736703D01*
X-15835050Y25605638D01*
X-15946972Y25483919D01*
X-16049422Y25372590D01*
X-16141437Y25272695D01*
X-16222058Y25185278D01*
X-16290323Y25111383D01*
X-16345271Y25052054D01*
X-16385941Y25008334D01*
X-16411372Y24981268D01*
X-16420596Y24971901D01*
X-16429955Y24980777D01*
X-16455493Y25007361D01*
X-16496252Y25050614D01*
X-16551273Y25109498D01*
X-16619596Y25182975D01*
X-16700262Y25270006D01*
X-16792312Y25369553D01*
X-16894787Y25480578D01*
X-17006727Y25602042D01*
X-17127174Y25732907D01*
X-17255168Y25872135D01*
X-17389751Y26018687D01*
X-17529962Y26171525D01*
X-17674842Y26329612D01*
X-17675932Y26330801D01*
X-18923214Y27692450D01*
X-18924200Y29311700D01*
X-13920400Y29311700D01*
X-13921432Y27692450D01*
G37*
X16347285Y-24939264D02*
X16356872Y-24949099D01*
X16382646Y-24976624D01*
X16423643Y-25020790D01*
X16478900Y-25080550D01*
X16547454Y-25154858D01*
X16628342Y-25242665D01*
X16720601Y-25342924D01*
X16823266Y-25454589D01*
X16935376Y-25576612D01*
X17055967Y-25707946D01*
X17184075Y-25847544D01*
X17318737Y-25994358D01*
X17458990Y-26147340D01*
X17601410Y-26302759D01*
X18845600Y-27660811D01*
X18845600Y-29286100D01*
X13841800Y-29286100D01*
X13841800Y-27660299D01*
X15089575Y-26297060D01*
X15234492Y-26138842D01*
X15374774Y-25985901D01*
X15509460Y-25839272D01*
X15637593Y-25699990D01*
X15758210Y-25569093D01*
X15870354Y-25447616D01*
X15973063Y-25336595D01*
X16065380Y-25237067D01*
X16146342Y-25150067D01*
X16214992Y-25076632D01*
X16270369Y-25017797D01*
X16311514Y-24974599D01*
X16337467Y-24948073D01*
X16347268Y-24939257D01*
X16347285Y-24939264D01*
G36*
X16347285Y-24939264D02*
G01*
X16356872Y-24949099D01*
X16382646Y-24976624D01*
X16423643Y-25020790D01*
X16478900Y-25080550D01*
X16547454Y-25154858D01*
X16628342Y-25242665D01*
X16720601Y-25342924D01*
X16823266Y-25454589D01*
X16935376Y-25576612D01*
X17055967Y-25707946D01*
X17184075Y-25847544D01*
X17318737Y-25994358D01*
X17458990Y-26147340D01*
X17601410Y-26302759D01*
X18845600Y-27660811D01*
X18845600Y-29286100D01*
X13841800Y-29286100D01*
X13841800Y-27660299D01*
X15089575Y-26297060D01*
X15234492Y-26138842D01*
X15374774Y-25985901D01*
X15509460Y-25839272D01*
X15637593Y-25699990D01*
X15758210Y-25569093D01*
X15870354Y-25447616D01*
X15973063Y-25336595D01*
X16065380Y-25237067D01*
X16146342Y-25150067D01*
X16214992Y-25076632D01*
X16270369Y-25017797D01*
X16311514Y-24974599D01*
X16337467Y-24948073D01*
X16347268Y-24939257D01*
X16347285Y-24939264D01*
G37*
X18845076Y28502075D02*
X18844553Y27692450D01*
X17598974Y26333550D01*
X17454103Y26175539D01*
X17313899Y26022698D01*
X17179324Y25876071D01*
X17051339Y25736703D01*
X16930905Y25605636D01*
X16818983Y25483915D01*
X16716534Y25372584D01*
X16624520Y25272687D01*
X16543900Y25185267D01*
X16475636Y25111369D01*
X16420690Y25052036D01*
X16380022Y25008312D01*
X16354594Y24981242D01*
X16345372Y24971871D01*
X16336018Y24980743D01*
X16310483Y25007324D01*
X16269728Y25050574D01*
X16214711Y25109455D01*
X16146392Y25182929D01*
X16065729Y25269957D01*
X15973683Y25369502D01*
X15871211Y25480525D01*
X15759273Y25601987D01*
X15638829Y25732851D01*
X15510837Y25872079D01*
X15376257Y26018631D01*
X15236048Y26171469D01*
X15091168Y26329556D01*
X15090055Y26330771D01*
X13842761Y27692450D01*
X13842280Y28502075D01*
X13841800Y29311700D01*
X18845600Y29311700D01*
X18845076Y28502075D01*
G36*
X18845076Y28502075D02*
G01*
X18844553Y27692450D01*
X17598974Y26333550D01*
X17454103Y26175539D01*
X17313899Y26022698D01*
X17179324Y25876071D01*
X17051339Y25736703D01*
X16930905Y25605636D01*
X16818983Y25483915D01*
X16716534Y25372584D01*
X16624520Y25272687D01*
X16543900Y25185267D01*
X16475636Y25111369D01*
X16420690Y25052036D01*
X16380022Y25008312D01*
X16354594Y24981242D01*
X16345372Y24971871D01*
X16336018Y24980743D01*
X16310483Y25007324D01*
X16269728Y25050574D01*
X16214711Y25109455D01*
X16146392Y25182929D01*
X16065729Y25269957D01*
X15973683Y25369502D01*
X15871211Y25480525D01*
X15759273Y25601987D01*
X15638829Y25732851D01*
X15510837Y25872079D01*
X15376257Y26018631D01*
X15236048Y26171469D01*
X15091168Y26329556D01*
X15090055Y26330771D01*
X13842761Y27692450D01*
X13842280Y28502075D01*
X13841800Y29311700D01*
X18845600Y29311700D01*
X18845076Y28502075D01*
G37*
X-63364675Y5292990D02*
X-62972609Y5292681D01*
X-62605133Y5292382D01*
X-62261436Y5292088D01*
X-61940709Y5291794D01*
X-61642142Y5291494D01*
X-61364925Y5291184D01*
X-61108246Y5290858D01*
X-60871298Y5290512D01*
X-60653268Y5290141D01*
X-60453348Y5289739D01*
X-60270727Y5289302D01*
X-60104595Y5288824D01*
X-59954142Y5288301D01*
X-59818557Y5287727D01*
X-59697032Y5287098D01*
X-59588755Y5286409D01*
X-59492917Y5285654D01*
X-59408707Y5284828D01*
X-59335316Y5283927D01*
X-59271933Y5282945D01*
X-59217749Y5281878D01*
X-59171952Y5280721D01*
X-59133734Y5279467D01*
X-59102284Y5278114D01*
X-59076791Y5276654D01*
X-59056447Y5275084D01*
X-59040440Y5273399D01*
X-59027960Y5271593D01*
X-59018199Y5269661D01*
X-59010345Y5267598D01*
X-59005400Y5266025D01*
X-58874743Y5209863D01*
X-58761805Y5136167D01*
X-58667425Y5045828D01*
X-58592438Y4939740D01*
X-58537681Y4818794D01*
X-58515843Y4743550D01*
X-58505188Y4677209D01*
X-58499482Y4595059D01*
X-58498700Y4506203D01*
X-58502819Y4419742D01*
X-58511817Y4344776D01*
X-58516926Y4319410D01*
X-58558260Y4197880D01*
X-58621209Y4086583D01*
X-58703061Y3988442D01*
X-58801107Y3906378D01*
X-58912635Y3843313D01*
X-58983831Y3816145D01*
X-59082912Y3784700D01*
X-67654100Y3784700D01*
X-67654100Y5296329D01*
X-63364675Y5292990D01*
G36*
X-63364675Y5292990D02*
G01*
X-62972609Y5292681D01*
X-62605133Y5292382D01*
X-62261436Y5292088D01*
X-61940709Y5291794D01*
X-61642142Y5291494D01*
X-61364925Y5291184D01*
X-61108246Y5290858D01*
X-60871298Y5290512D01*
X-60653268Y5290141D01*
X-60453348Y5289739D01*
X-60270727Y5289302D01*
X-60104595Y5288824D01*
X-59954142Y5288301D01*
X-59818557Y5287727D01*
X-59697032Y5287098D01*
X-59588755Y5286409D01*
X-59492917Y5285654D01*
X-59408707Y5284828D01*
X-59335316Y5283927D01*
X-59271933Y5282945D01*
X-59217749Y5281878D01*
X-59171952Y5280721D01*
X-59133734Y5279467D01*
X-59102284Y5278114D01*
X-59076791Y5276654D01*
X-59056447Y5275084D01*
X-59040440Y5273399D01*
X-59027960Y5271593D01*
X-59018199Y5269661D01*
X-59010345Y5267598D01*
X-59005400Y5266025D01*
X-58874743Y5209863D01*
X-58761805Y5136167D01*
X-58667425Y5045828D01*
X-58592438Y4939740D01*
X-58537681Y4818794D01*
X-58515843Y4743550D01*
X-58505188Y4677209D01*
X-58499482Y4595059D01*
X-58498700Y4506203D01*
X-58502819Y4419742D01*
X-58511817Y4344776D01*
X-58516926Y4319410D01*
X-58558260Y4197880D01*
X-58621209Y4086583D01*
X-58703061Y3988442D01*
X-58801107Y3906378D01*
X-58912635Y3843313D01*
X-58983831Y3816145D01*
X-59082912Y3784700D01*
X-67654100Y3784700D01*
X-67654100Y5296329D01*
X-63364675Y5292990D01*
G37*
X67270700Y3784700D02*
X63216225Y3785383D01*
X62835019Y3785452D01*
X62478382Y3785530D01*
X62145480Y3785620D01*
X61835481Y3785728D01*
X61547552Y3785858D01*
X61280862Y3786015D01*
X61034577Y3786204D01*
X60807866Y3786430D01*
X60599896Y3786697D01*
X60409835Y3787009D01*
X60236850Y3787373D01*
X60080110Y3787791D01*
X59938781Y3788270D01*
X59812032Y3788813D01*
X59699030Y3789426D01*
X59598942Y3790113D01*
X59510937Y3790878D01*
X59434181Y3791727D01*
X59367844Y3792665D01*
X59311091Y3793695D01*
X59263092Y3794822D01*
X59223013Y3796052D01*
X59190022Y3797390D01*
X59163287Y3798838D01*
X59141975Y3800403D01*
X59125255Y3802090D01*
X59112294Y3803902D01*
X59102259Y3805844D01*
X59094318Y3807922D01*
X59091900Y3808675D01*
X58984592Y3851310D01*
X58891892Y3906798D01*
X58804640Y3980773D01*
X58792397Y3992867D01*
X58710362Y4089354D01*
X58649739Y4193830D01*
X58609421Y4309173D01*
X58588301Y4438260D01*
X58584341Y4534000D01*
X58594153Y4677548D01*
X58624006Y4806433D01*
X58674523Y4922372D01*
X58746329Y5027077D01*
X58776141Y5060891D01*
X58857233Y5138126D01*
X58941095Y5196930D01*
X59036956Y5243440D01*
X59069500Y5255937D01*
X59161750Y5289650D01*
X63216225Y5292999D01*
X67270700Y5296347D01*
X67270700Y3784700D01*
G36*
X67270700Y3784700D02*
G01*
X63216225Y3785383D01*
X62835019Y3785452D01*
X62478382Y3785530D01*
X62145480Y3785620D01*
X61835481Y3785728D01*
X61547552Y3785858D01*
X61280862Y3786015D01*
X61034577Y3786204D01*
X60807866Y3786430D01*
X60599896Y3786697D01*
X60409835Y3787009D01*
X60236850Y3787373D01*
X60080110Y3787791D01*
X59938781Y3788270D01*
X59812032Y3788813D01*
X59699030Y3789426D01*
X59598942Y3790113D01*
X59510937Y3790878D01*
X59434181Y3791727D01*
X59367844Y3792665D01*
X59311091Y3793695D01*
X59263092Y3794822D01*
X59223013Y3796052D01*
X59190022Y3797390D01*
X59163287Y3798838D01*
X59141975Y3800403D01*
X59125255Y3802090D01*
X59112294Y3803902D01*
X59102259Y3805844D01*
X59094318Y3807922D01*
X59091900Y3808675D01*
X58984592Y3851310D01*
X58891892Y3906798D01*
X58804640Y3980773D01*
X58792397Y3992867D01*
X58710362Y4089354D01*
X58649739Y4193830D01*
X58609421Y4309173D01*
X58588301Y4438260D01*
X58584341Y4534000D01*
X58594153Y4677548D01*
X58624006Y4806433D01*
X58674523Y4922372D01*
X58746329Y5027077D01*
X58776141Y5060891D01*
X58857233Y5138126D01*
X58941095Y5196930D01*
X59036956Y5243440D01*
X59069500Y5255937D01*
X59161750Y5289650D01*
X63216225Y5292999D01*
X67270700Y5296347D01*
X67270700Y3784700D01*
G37*
X-25261500Y3784700D02*
X-29487425Y3785836D01*
X-29892254Y3785963D01*
X-30272369Y3786120D01*
X-30628456Y3786311D01*
X-30961200Y3786538D01*
X-31271289Y3786804D01*
X-31559408Y3787112D01*
X-31826242Y3787463D01*
X-32072478Y3787862D01*
X-32298802Y3788311D01*
X-32505900Y3788813D01*
X-32694458Y3789369D01*
X-32865161Y3789983D01*
X-33018696Y3790659D01*
X-33155749Y3791397D01*
X-33277006Y3792202D01*
X-33383152Y3793075D01*
X-33474874Y3794020D01*
X-33552857Y3795040D01*
X-33617788Y3796136D01*
X-33670353Y3797312D01*
X-33711237Y3798570D01*
X-33741126Y3799914D01*
X-33760708Y3801345D01*
X-33770500Y3802820D01*
X-33894245Y3849880D01*
X-34005361Y3917781D01*
X-34101607Y4004187D01*
X-34180744Y4106760D01*
X-34240530Y4223164D01*
X-34273621Y4327625D01*
X-34286079Y4406435D01*
X-34291041Y4498596D01*
X-34288905Y4596174D01*
X-34280067Y4691230D01*
X-34264925Y4775829D01*
X-34248443Y4830894D01*
X-34188653Y4953081D01*
X-34109593Y5058859D01*
X-34011773Y5147747D01*
X-33895708Y5219268D01*
X-33783200Y5266009D01*
X-33776175Y5268186D01*
X-33767829Y5270227D01*
X-33757348Y5272136D01*
X-33743915Y5273920D01*
X-33726713Y5275582D01*
X-33704927Y5277129D01*
X-33677739Y5278565D01*
X-33644334Y5279895D01*
X-33603895Y5281125D01*
X-33555606Y5282260D01*
X-33498650Y5283304D01*
X-33432211Y5284263D01*
X-33355472Y5285143D01*
X-33267618Y5285948D01*
X-33167832Y5286683D01*
X-33055297Y5287353D01*
X-32929197Y5287964D01*
X-32788717Y5288521D01*
X-32633038Y5289029D01*
X-32461346Y5289492D01*
X-32272823Y5289917D01*
X-32066654Y5290308D01*
X-31842022Y5290671D01*
X-31598110Y5291009D01*
X-31334102Y5291330D01*
X-31049183Y5291637D01*
X-30742535Y5291936D01*
X-30413342Y5292232D01*
X-30060787Y5292530D01*
X-29684056Y5292836D01*
X-29487425Y5292992D01*
X-25261500Y5296334D01*
X-25261500Y3784700D01*
G36*
X-25261500Y3784700D02*
G01*
X-29487425Y3785836D01*
X-29892254Y3785963D01*
X-30272369Y3786120D01*
X-30628456Y3786311D01*
X-30961200Y3786538D01*
X-31271289Y3786804D01*
X-31559408Y3787112D01*
X-31826242Y3787463D01*
X-32072478Y3787862D01*
X-32298802Y3788311D01*
X-32505900Y3788813D01*
X-32694458Y3789369D01*
X-32865161Y3789983D01*
X-33018696Y3790659D01*
X-33155749Y3791397D01*
X-33277006Y3792202D01*
X-33383152Y3793075D01*
X-33474874Y3794020D01*
X-33552857Y3795040D01*
X-33617788Y3796136D01*
X-33670353Y3797312D01*
X-33711237Y3798570D01*
X-33741126Y3799914D01*
X-33760708Y3801345D01*
X-33770500Y3802820D01*
X-33894245Y3849880D01*
X-34005361Y3917781D01*
X-34101607Y4004187D01*
X-34180744Y4106760D01*
X-34240530Y4223164D01*
X-34273621Y4327625D01*
X-34286079Y4406435D01*
X-34291041Y4498596D01*
X-34288905Y4596174D01*
X-34280067Y4691230D01*
X-34264925Y4775829D01*
X-34248443Y4830894D01*
X-34188653Y4953081D01*
X-34109593Y5058859D01*
X-34011773Y5147747D01*
X-33895708Y5219268D01*
X-33783200Y5266009D01*
X-33776175Y5268186D01*
X-33767829Y5270227D01*
X-33757348Y5272136D01*
X-33743915Y5273920D01*
X-33726713Y5275582D01*
X-33704927Y5277129D01*
X-33677739Y5278565D01*
X-33644334Y5279895D01*
X-33603895Y5281125D01*
X-33555606Y5282260D01*
X-33498650Y5283304D01*
X-33432211Y5284263D01*
X-33355472Y5285143D01*
X-33267618Y5285948D01*
X-33167832Y5286683D01*
X-33055297Y5287353D01*
X-32929197Y5287964D01*
X-32788717Y5288521D01*
X-32633038Y5289029D01*
X-32461346Y5289492D01*
X-32272823Y5289917D01*
X-32066654Y5290308D01*
X-31842022Y5290671D01*
X-31598110Y5291009D01*
X-31334102Y5291330D01*
X-31049183Y5291637D01*
X-30742535Y5291936D01*
X-30413342Y5292232D01*
X-30060787Y5292530D01*
X-29684056Y5292836D01*
X-29487425Y5292992D01*
X-25261500Y5296334D01*
X-25261500Y3784700D01*
G37*
X29345325Y5292984D02*
X29745083Y5292682D01*
X30120236Y5292389D01*
X30471578Y5292101D01*
X30799903Y5291813D01*
X31106007Y5291520D01*
X31390682Y5291218D01*
X31654725Y5290901D01*
X31898929Y5290566D01*
X32124089Y5290207D01*
X32331000Y5289819D01*
X32520455Y5289399D01*
X32693250Y5288940D01*
X32850179Y5288439D01*
X32992036Y5287890D01*
X33119616Y5287289D01*
X33233713Y5286632D01*
X33335122Y5285913D01*
X33424638Y5285127D01*
X33503054Y5284270D01*
X33571166Y5283338D01*
X33629767Y5282325D01*
X33679653Y5281226D01*
X33721617Y5280038D01*
X33756455Y5278755D01*
X33784961Y5277372D01*
X33807928Y5275885D01*
X33826153Y5274289D01*
X33840429Y5272580D01*
X33851550Y5270752D01*
X33860312Y5268800D01*
X33867508Y5266721D01*
X33869700Y5265998D01*
X33998495Y5210550D01*
X34111505Y5137552D01*
X34207026Y5048739D01*
X34283353Y4945848D01*
X34338781Y4830613D01*
X34358253Y4768423D01*
X34368959Y4708106D01*
X34375491Y4630760D01*
X34377861Y4544408D01*
X34376081Y4457073D01*
X34370163Y4376777D01*
X34360117Y4311546D01*
X34357580Y4300884D01*
X34314620Y4183600D01*
X34250184Y4075593D01*
X34167454Y3980046D01*
X34069613Y3900139D01*
X33959841Y3839056D01*
X33861516Y3804820D01*
X33852809Y3803002D01*
X33840709Y3801295D01*
X33824434Y3799697D01*
X33803199Y3798203D01*
X33776220Y3796811D01*
X33742713Y3795516D01*
X33701895Y3794316D01*
X33652980Y3793207D01*
X33595187Y3792184D01*
X33527729Y3791246D01*
X33449824Y3790388D01*
X33360687Y3789606D01*
X33259535Y3788898D01*
X33145584Y3788260D01*
X33018049Y3787689D01*
X32876146Y3787180D01*
X32719093Y3786730D01*
X32546103Y3786337D01*
X32356395Y3785996D01*
X32149184Y3785703D01*
X31923685Y3785457D01*
X31679115Y3785252D01*
X31414690Y3785086D01*
X31129626Y3784954D01*
X30823138Y3784854D01*
X30494444Y3784783D01*
X30142759Y3784735D01*
X29767299Y3784709D01*
X29367280Y3784701D01*
X29337141Y3784700D01*
X24890800Y3784700D01*
X24890800Y5296317D01*
X29345325Y5292984D01*
G36*
X29345325Y5292984D02*
G01*
X29745083Y5292682D01*
X30120236Y5292389D01*
X30471578Y5292101D01*
X30799903Y5291813D01*
X31106007Y5291520D01*
X31390682Y5291218D01*
X31654725Y5290901D01*
X31898929Y5290566D01*
X32124089Y5290207D01*
X32331000Y5289819D01*
X32520455Y5289399D01*
X32693250Y5288940D01*
X32850179Y5288439D01*
X32992036Y5287890D01*
X33119616Y5287289D01*
X33233713Y5286632D01*
X33335122Y5285913D01*
X33424638Y5285127D01*
X33503054Y5284270D01*
X33571166Y5283338D01*
X33629767Y5282325D01*
X33679653Y5281226D01*
X33721617Y5280038D01*
X33756455Y5278755D01*
X33784961Y5277372D01*
X33807928Y5275885D01*
X33826153Y5274289D01*
X33840429Y5272580D01*
X33851550Y5270752D01*
X33860312Y5268800D01*
X33867508Y5266721D01*
X33869700Y5265998D01*
X33998495Y5210550D01*
X34111505Y5137552D01*
X34207026Y5048739D01*
X34283353Y4945848D01*
X34338781Y4830613D01*
X34358253Y4768423D01*
X34368959Y4708106D01*
X34375491Y4630760D01*
X34377861Y4544408D01*
X34376081Y4457073D01*
X34370163Y4376777D01*
X34360117Y4311546D01*
X34357580Y4300884D01*
X34314620Y4183600D01*
X34250184Y4075593D01*
X34167454Y3980046D01*
X34069613Y3900139D01*
X33959841Y3839056D01*
X33861516Y3804820D01*
X33852809Y3803002D01*
X33840709Y3801295D01*
X33824434Y3799697D01*
X33803199Y3798203D01*
X33776220Y3796811D01*
X33742713Y3795516D01*
X33701895Y3794316D01*
X33652980Y3793207D01*
X33595187Y3792184D01*
X33527729Y3791246D01*
X33449824Y3790388D01*
X33360687Y3789606D01*
X33259535Y3788898D01*
X33145584Y3788260D01*
X33018049Y3787689D01*
X32876146Y3787180D01*
X32719093Y3786730D01*
X32546103Y3786337D01*
X32356395Y3785996D01*
X32149184Y3785703D01*
X31923685Y3785457D01*
X31679115Y3785252D01*
X31414690Y3785086D01*
X31129626Y3784954D01*
X30823138Y3784854D01*
X30494444Y3784783D01*
X30142759Y3784735D01*
X29767299Y3784709D01*
X29367280Y3784701D01*
X29337141Y3784700D01*
X24890800Y3784700D01*
X24890800Y5296317D01*
X29345325Y5292984D01*
G37*
D11*
X33870214Y-5034441D03*
D12*
X33870214Y-8534441D03*
X33870214Y-1534441D03*
D11*
X58929786Y-5034441D03*
D12*
X58929786Y-8534441D03*
X58929786Y-1534441D03*
D13*
X-25200000Y4800000D03*
X25200000Y-7950000D03*
X-67600000Y6300000D03*
X25200000Y-8700000D03*
X-73000000Y-10200000D03*
X-73000000Y3300000D03*
X-73000000Y-450000D03*
X-67600000Y4800000D03*
X25200000Y-4950000D03*
D14*
X-62900000Y2000000D03*
D13*
X25200000Y-9450000D03*
X-25200000Y-1200000D03*
X-67600000Y2550000D03*
X19800000Y-5700000D03*
X-25200000Y-4200000D03*
D14*
X-29900000Y2000000D03*
D13*
X-73000000Y-5700000D03*
X-67600000Y-10200000D03*
X19800000Y-6450000D03*
X-25200000Y-8700000D03*
X19800000Y-3450000D03*
X-25200000Y-4950000D03*
X-19800000Y2550000D03*
X-19800000Y-3450000D03*
X-67600000Y-450000D03*
X25200000Y3300000D03*
X25200000Y6300000D03*
X19800000Y-450000D03*
X19800000Y6300000D03*
X25200000Y4050000D03*
D14*
X30000000Y-12000000D03*
D13*
X19800000Y1800000D03*
X25200000Y-3450000D03*
X-19800000Y-6450000D03*
X-73000000Y2550000D03*
X-73000000Y4050000D03*
X-67600000Y-4950000D03*
X19800000Y1050000D03*
X19800000Y-4200000D03*
X-25200000Y6300000D03*
X-73000000Y6300000D03*
D14*
X62800000Y2000000D03*
D13*
X-73000000Y300000D03*
X19800000Y300000D03*
X-19800000Y1800000D03*
X-19800000Y4050000D03*
X-19800000Y-1950000D03*
X-73000000Y-10950000D03*
X-67600000Y-5700000D03*
X25200000Y-5700000D03*
X19800000Y-7950000D03*
X-19800000Y-8700000D03*
X-25200000Y4050000D03*
X-73000000Y-2700000D03*
X19800000Y-10200000D03*
X-19800000Y1050000D03*
X-67600000Y-8700000D03*
X-19800000Y4800000D03*
X-19800000Y-450000D03*
X19800000Y-8700000D03*
X-73000000Y-4950000D03*
X25200000Y4800000D03*
X-67600000Y4050000D03*
X25200000Y-1950000D03*
X-19800000Y-10200000D03*
X-19800000Y6300000D03*
X-25200000Y5550000D03*
X-25200000Y3300000D03*
X-25200000Y300000D03*
X-25200000Y-1950000D03*
X-67600000Y-7950000D03*
X-73000000Y-9450000D03*
X25200000Y-7200000D03*
X-73000000Y1800000D03*
X-73000000Y1050000D03*
X25200000Y-450000D03*
D15*
X26989333Y-6841757D03*
D16*
X27526059Y-7992769D03*
X28062783Y-9143779D03*
D13*
X-73000000Y-6450000D03*
X-25200000Y-10950000D03*
X-19800000Y3300000D03*
X-67600000Y-2700000D03*
D17*
X-17500000Y-11750000D03*
D18*
X-17500000Y-9210000D03*
D13*
X25200000Y-4200000D03*
X-19800000Y-7200000D03*
X-67600000Y3300000D03*
X25200000Y5550000D03*
D14*
X-62900000Y-12000000D03*
D13*
X-67600000Y-7200000D03*
X-19800000Y-5700000D03*
X-73000000Y-7950000D03*
X-25200000Y-5700000D03*
X-73000000Y-1950000D03*
D14*
X-29900000Y-12000000D03*
D13*
X25200000Y1050000D03*
X-19800000Y300000D03*
X19800000Y-7200000D03*
D19*
X-97550000Y14240000D03*
X-91550000Y14240000D03*
D13*
X-73000000Y-8700000D03*
X-19800000Y-10950000D03*
X-73000000Y5550000D03*
X-67600000Y-3450000D03*
X19800000Y-1200000D03*
X25200000Y1800000D03*
X-73000000Y-4200000D03*
X-67600000Y300000D03*
X25200000Y-10950000D03*
X-19800000Y-4950000D03*
X-25200000Y-7200000D03*
X-67600000Y5550000D03*
X19800000Y-1950000D03*
X19800000Y5550000D03*
X-19800000Y-1200000D03*
D20*
X65810666Y-3227125D03*
D21*
X65273941Y-2076113D03*
X64737216Y-925103D03*
D13*
X25200000Y-10200000D03*
X-25200000Y-2700000D03*
X25200000Y300000D03*
X-25200000Y1800000D03*
X-25200000Y-450000D03*
X25200000Y-2700000D03*
X19800000Y-10950000D03*
X-25200000Y-3450000D03*
D22*
X64737215Y-9143780D03*
D23*
X65273941Y-7992770D03*
X65810665Y-6841758D03*
D13*
X-19800000Y-2700000D03*
X-67600000Y-1200000D03*
X-73000000Y-1200000D03*
X19800000Y4800000D03*
X19800000Y4050000D03*
D14*
X62800000Y-12000000D03*
X30000000Y2000000D03*
D13*
X-67600000Y1800000D03*
X-25200000Y1050000D03*
X-67600000Y-4200000D03*
X-73000000Y4800000D03*
X-19800000Y-7950000D03*
X19800000Y-9450000D03*
D24*
X28062786Y-925102D03*
D23*
X27526059Y-2076113D03*
X26989336Y-3227123D03*
D13*
X-67600000Y-1950000D03*
X-19800000Y-4200000D03*
X19800000Y-4950000D03*
X-67600000Y-6450000D03*
X-73000000Y-7200000D03*
X25200000Y-6450000D03*
X19800000Y2550000D03*
X-19800000Y-9450000D03*
X-25200000Y-7950000D03*
X19800000Y-2700000D03*
X-67600000Y1050000D03*
X25200000Y-1200000D03*
X-19800000Y5550000D03*
X-67600000Y-10950000D03*
X-25200000Y-9450000D03*
X25200000Y2550000D03*
X19800000Y3300000D03*
X-25200000Y-10200000D03*
X-73000000Y-3450000D03*
X-25200000Y2550000D03*
X-67600000Y-9450000D03*
X-25200000Y-6450000D03*
D25*
X28820312Y10465559D03*
X30545312Y10465559D03*
D26*
X27182812Y6118059D03*
X27182812Y7313059D03*
X-2250000Y-15847500D03*
X-2250000Y-14652500D03*
D27*
X-38750000Y11400000D03*
D28*
X42020300Y-10210800D03*
X40885300Y-10210800D03*
D29*
X-9600000Y-9900000D03*
X-9600000Y-8950000D03*
X-9600000Y-8000000D03*
X-7300000Y-8000000D03*
X-7300000Y-8950000D03*
X-7300000Y-9900000D03*
D30*
X64132812Y6528059D03*
X62232812Y6528059D03*
X63182812Y8403059D03*
D31*
X46932812Y-6284441D03*
D32*
X49795312Y-2709441D03*
X49795312Y-3359441D03*
X49795312Y-4009441D03*
X49795312Y-4659441D03*
X49795312Y-5309441D03*
X49795312Y-5959441D03*
X49795312Y-6609441D03*
X49795312Y-7259441D03*
X49795312Y-7909441D03*
X49795312Y-8559441D03*
X49795312Y-9209441D03*
X49795312Y-9859441D03*
X44070312Y-9859441D03*
X44070312Y-9209441D03*
X44070312Y-8559441D03*
X44070312Y-7909441D03*
X44070312Y-7259441D03*
X44070312Y-6609441D03*
X44070312Y-5959441D03*
X44070312Y-5309441D03*
X44070312Y-4659441D03*
X44070312Y-4009441D03*
X44070312Y-3359441D03*
X44070312Y-2709441D03*
D33*
X40182812Y-484441D03*
X40182812Y-3584441D03*
D34*
X45432812Y10965559D03*
D35*
X-52200000Y-6550000D03*
X-52200000Y-9350000D03*
D36*
X5525000Y15500000D03*
X3475000Y15500000D03*
D37*
X5612500Y17500000D03*
X3887500Y17500000D03*
D38*
X-112000000Y-22110000D03*
X-109600000Y-22110000D03*
X-109600000Y-25410000D03*
X-112000000Y-25410000D03*
D39*
X-50175000Y10150000D03*
X-51725000Y10150000D03*
D37*
X64045312Y10465559D03*
X62320312Y10465559D03*
D26*
X41147812Y5868059D03*
X41147812Y7063059D03*
D40*
X-4902500Y12400000D03*
X-6097500Y12400000D03*
D41*
X40865312Y-7034441D03*
X42000312Y-7034441D03*
D25*
X40070312Y-5534441D03*
X41795312Y-5534441D03*
D27*
X43932812Y4215559D03*
D42*
X60282812Y8715559D03*
X56782812Y8715559D03*
D40*
X-48902500Y-3850000D03*
X-50097500Y-3850000D03*
D43*
X-4500000Y16250000D03*
X500000Y16250000D03*
D40*
X-62152500Y7150000D03*
X-63347500Y7150000D03*
D44*
X5450000Y-15150000D03*
X2550000Y-15150000D03*
X2550000Y-12850000D03*
X5450000Y-12850000D03*
D28*
X9567500Y-13500000D03*
X8432500Y-13500000D03*
D45*
X-12075000Y-11750000D03*
X-12725000Y-11750000D03*
X-13375000Y-11750000D03*
X-14025000Y-11750000D03*
X-14025000Y-7950000D03*
X-13375000Y-7950000D03*
X-12725000Y-7950000D03*
X-12075000Y-7950000D03*
D46*
X-13050000Y-9850000D03*
D47*
X16225000Y-9500000D03*
X17775000Y-9500000D03*
D40*
X-41702500Y7500000D03*
X-42897500Y7500000D03*
D47*
X-42675000Y10200000D03*
X-41125000Y10200000D03*
D48*
X52019200Y-2686941D03*
X52019200Y-3881941D03*
D26*
X-3500000Y-15847500D03*
X-3500000Y-14652500D03*
X65500000Y7497500D03*
X65500000Y6302500D03*
D49*
X-1000000Y-15817500D03*
X-1000000Y-14682500D03*
D30*
X30632812Y6528059D03*
X28732812Y6528059D03*
X29682812Y8403059D03*
D27*
X48932812Y4215559D03*
D48*
X51682812Y7063059D03*
X51682812Y5868059D03*
D40*
X30280312Y11965559D03*
X29085312Y11965559D03*
D42*
X32482812Y8715559D03*
X35982812Y8715559D03*
D50*
X-5250000Y-8500000D03*
X-1950000Y-8500000D03*
D51*
X38085312Y11715559D03*
X39280312Y11715559D03*
D52*
X2525000Y10620000D03*
X-2525000Y10620000D03*
X2525000Y8080000D03*
X-2525000Y8080000D03*
X2525000Y5540000D03*
X-2525000Y5540000D03*
X2525000Y3000000D03*
X-2525000Y3000000D03*
X2525000Y460000D03*
X-2525000Y460000D03*
X2525000Y-2080000D03*
X-2525000Y-2080000D03*
X2525000Y-4620000D03*
X-2525000Y-4620000D03*
D42*
X-60300000Y8700000D03*
X-56800000Y8700000D03*
D38*
X-100000000Y-22110000D03*
X-97600000Y-22110000D03*
X-97600000Y-25410000D03*
X-100000000Y-25410000D03*
D51*
X-30647500Y7250000D03*
X-29452500Y7250000D03*
D34*
X42432812Y7965559D03*
D27*
X-29819600Y9702800D03*
D34*
X43432812Y10965559D03*
D53*
X-4750000Y-14682500D03*
X-4750000Y-15817500D03*
D38*
X-88000000Y-22110000D03*
X-85600000Y-22110000D03*
X-85600000Y-25410000D03*
X-88000000Y-25410000D03*
X-76000000Y-22110000D03*
X-73600000Y-22110000D03*
X-73600000Y-25410000D03*
X-76000000Y-25410000D03*
D25*
X3887500Y13500000D03*
X5612500Y13500000D03*
D37*
X39542812Y10315559D03*
X37817812Y10315559D03*
D34*
X44432812Y7965559D03*
D28*
X9567500Y-16000000D03*
X8432500Y-16000000D03*
D54*
X-49850000Y-6812500D03*
X-47950000Y-6812500D03*
X-48900000Y-8687500D03*
D28*
X-49982500Y8650000D03*
X-51117500Y8650000D03*
D34*
X46432812Y7965559D03*
D33*
X52682812Y-5484441D03*
X52682812Y-8584441D03*
D55*
X-5750000Y-18150000D03*
X-5250000Y-18150000D03*
X-4750000Y-18150000D03*
X-4250000Y-18150000D03*
X-3750000Y-18150000D03*
X-3250000Y-18150000D03*
X-2750000Y-18150000D03*
X-2250000Y-18150000D03*
X-1750000Y-18150000D03*
X-1250000Y-18150000D03*
X-750000Y-18150000D03*
X-250000Y-18150000D03*
X250000Y-18150000D03*
X750000Y-18150000D03*
X1250000Y-18150000D03*
X1750000Y-18150000D03*
X2250000Y-18150000D03*
X2750000Y-18150000D03*
X3250000Y-18150000D03*
X3750000Y-18150000D03*
X4250000Y-18150000D03*
X4750000Y-18150000D03*
X5250000Y-18150000D03*
X5750000Y-18150000D03*
D56*
X7400000Y-22050000D03*
X-7400000Y-22050000D03*
D30*
X39608800Y6580900D03*
X37708800Y6580900D03*
X38658800Y8455900D03*
X55153600Y6530100D03*
X53253600Y6530100D03*
X54203600Y8405100D03*
D27*
X-54051200Y11379200D03*
D48*
X53182812Y-2686941D03*
X53182812Y-3881941D03*
D51*
X53585312Y11965559D03*
X54780312Y11965559D03*
D41*
X16182500Y-12250000D03*
X17317500Y-12250000D03*
D40*
X-4902500Y13750000D03*
X-6097500Y13750000D03*
D51*
X-51147500Y7450000D03*
X-49952500Y7450000D03*
D41*
X16182500Y-13250000D03*
X17317500Y-13250000D03*
D34*
X49432812Y10965559D03*
X48432812Y7965559D03*
D57*
X11825000Y-11625000D03*
X11825000Y-10675000D03*
X11825000Y-9725000D03*
X14175000Y-9725000D03*
X14175000Y-11625000D03*
D58*
X-56100000Y-8550000D03*
X-56100000Y-1450000D03*
D59*
X-63200000Y-1450000D03*
D58*
X-63200000Y-8550000D03*
D40*
X60097500Y5900000D03*
X58902500Y5900000D03*
D34*
X51432812Y10965559D03*
D27*
X46432812Y4215559D03*
D42*
X-32500000Y8700000D03*
X-36000000Y8700000D03*
D25*
X-13887500Y-13500000D03*
X-12162500Y-13500000D03*
D41*
X-42867500Y8700000D03*
X-41732500Y8700000D03*
D60*
X34882812Y4015559D03*
X35882812Y4015559D03*
X36882812Y4015559D03*
X37882812Y4015559D03*
X38882812Y4015559D03*
X39882812Y4015559D03*
D61*
X40882812Y3715559D03*
X51882812Y3715559D03*
D60*
X52882812Y4015559D03*
X53882812Y4015559D03*
X54882812Y4015559D03*
X55882812Y4015559D03*
X56882812Y4015559D03*
X57882812Y4015559D03*
D34*
X47432812Y10965559D03*
X41432812Y10965559D03*
X50432812Y7965559D03*
D51*
X62637812Y11965559D03*
X63832812Y11965559D03*
D62*
X-3200000Y19950000D03*
X-2400000Y19950000D03*
D63*
X-1250000Y19950000D03*
X-250000Y19950000D03*
X250000Y19950000D03*
X1250000Y19950000D03*
D62*
X2400000Y19950000D03*
X3200000Y19950000D03*
X3200000Y19950000D03*
X2400000Y19950000D03*
D63*
X1750000Y19950000D03*
X750000Y19950000D03*
X-750000Y19950000D03*
X-1750000Y19950000D03*
D62*
X-2400000Y19950000D03*
X-3200000Y19950000D03*
D64*
X11400000Y-15700000D03*
X11400000Y-14750000D03*
X11400000Y-13800000D03*
X14100000Y-13800000D03*
X14100000Y-14750000D03*
X14100000Y-15700000D03*
D51*
X34835312Y5965559D03*
X36030312Y5965559D03*
D37*
X55045312Y10465559D03*
X53320312Y10465559D03*
D25*
X40070312Y-8534441D03*
X41795312Y-8534441D03*
D51*
X-50097500Y-5050000D03*
X-48902500Y-5050000D03*
D65*
X-35150000Y4250000D03*
X-37650000Y4250000D03*
X-40150000Y4250000D03*
X-42650000Y4250000D03*
X-45150000Y4250000D03*
X-47650000Y4250000D03*
X-50150000Y4250000D03*
X-52650000Y4250000D03*
X-55150000Y4250000D03*
X-57650000Y4250000D03*
M02*
