M48
; DRILL file {KiCad 8.0.8} date 2025-08-18T01:47:24+0300
; FORMAT={-:-/ absolute / inch / decimal}
; #@! TF.CreationDate,2025-08-18T01:47:24+03:00
; #@! TF.GenerationSoftware,Kicad,Pcbnew,8.0.8
; #@! TF.FileFunction,Plated,1,4,PTH
FMAT,2
INCH
; #@! TA.AperFunction,Plated,PTH,ViaDrill
T1C0.0118
; #@! TA.AperFunction,Plated,PTH,ComponentDrill
T2C0.0118
; #@! TA.AperFunction,Plated,PTH,ComponentDrill
T3C0.0236
; #@! TA.AperFunction,Plated,PTH,ComponentDrill
T4C0.0295
; #@! TA.AperFunction,Plated,PTH,ComponentDrill
T5C0.0315
; #@! TA.AperFunction,Plated,PTH,ComponentDrill
T6C0.0394
; #@! TA.AperFunction,Plated,PTH,ComponentDrill
T7C0.0591
; #@! TA.AperFunction,Plated,PTH,ComponentDrill
T8C0.0709
%
G90
G05
T1
X-4.4724Y-1.0079
X-4.4685Y0.8937
X-4.4567Y-0.8661
X-4.3661Y1.0866
X-4.3661Y-1.0866
X-4.3386Y1.122
X-4.3386Y1.0551
X-4.3346Y-0.3583
X-4.3346Y-1.0551
X-4.3346Y-1.122
X-4.3307Y-0.4094
X-4.3307Y-0.4646
X-4.2992Y1.0906
X-4.2992Y1.0197
X-4.2992Y-1.0197
X-4.2992Y-1.0906
X-4.2913Y-0.5591
X-4.2717Y-0.1969
X-4.2638Y1.122
X-4.2638Y1.0551
X-4.2598Y-1.0551
X-4.2598Y-1.122
X-4.2323Y1.0827
X-4.2323Y-1.0945
X-4.2047Y-1.0394
X-4.1969Y-0.378
X-4.185Y-0.8272
X-4.1811Y-0.9764
X-4.164Y-0.9325
X-4.1496Y-0.8762
X-4.1299Y-0.7559
X-4.1063Y-0.6024
X-4.0965Y-0.3449
X-4.0679Y-0.7647
X-4.063Y-0.6811
X-4.0584Y-0.9108
X-4.0537Y-0.8762
X-4.0472Y-0.5909
X-4.0433Y-0.7126
X-4.0157Y-0.6693
X-4.0118Y-0.1819
X-4.0082Y-0.311
X-4.0082Y-0.4092
X-3.9764Y-0.9075
X-3.937Y-0.6693
X-3.9055Y0.6614
X-3.8976Y-0.311
X-3.8976Y-0.4094
X-3.874Y-0.5591
X-3.874Y-0.6378
X-3.844Y0.118
X-3.84Y0.9
X-3.8386Y0.4173
X-3.8346Y0.0157
X-3.8307Y-0.0827
X-3.8166Y0.27
X-3.8166Y0.176
X-3.8071Y-0.3031
X-3.8071Y-0.3583
X-3.8031Y-0.4331
X-3.8031Y-0.9764
X-3.7805Y0.9
X-3.7717Y-0.5591
X-3.7717Y-0.6378
X-3.756Y0.27
X-3.756Y0.176
X-3.7283Y-0.7362
X-3.7283Y-0.7756
X-3.7283Y-0.8268
X-3.7283Y-0.8937
X-3.7009Y0.6683
X-3.7008Y-0.4331
X-3.6969Y0.626
X-3.6929Y-0.3031
X-3.6929Y-0.3583
X-3.684Y0.27
X-3.684Y0.176
X-3.6772Y0.4176
X-3.674Y0.118
X-3.6614Y0.8346
X-3.6614Y0.7874
X-3.6614Y0.7402
X-3.6417Y0.0157
X-3.6378Y-0.0866
X-3.634Y0.118
X-3.6282Y0.407
X-3.6063Y0.8346
X-3.6063Y0.7874
X-3.6063Y0.7402
X-3.5872Y0.6666
X-3.556Y0.662
X-3.53Y0.966
X-3.528Y0.902
X-3.5039Y-0.9213
X-3.4882Y-0.6535
X-3.46Y0.118
X-3.4488Y-0.622
X-3.4345Y0.524
X-3.4213Y-0.6992
X-3.416Y0.75
X-3.398Y-0.39
X-3.398Y-0.452
X-3.3819Y-0.6535
X-3.3465Y0.3346
X-3.3465Y0.2677
X-3.346Y-0.606
X-3.345Y-0.498
X-3.33Y-0.39
X-3.327Y-0.454
X-3.3258Y-0.9242
X-3.31Y-0.64
X-3.2795Y0.3346
X-3.2795Y0.2677
X-3.274Y-0.704
X-3.2402Y-0.8268
X-3.2402Y-0.9213
X-3.2205Y-0.5748
X-3.2205Y-0.6299
X-3.2047Y-0.4961
X-3.2008Y-0.3031
X-3.2008Y-0.374
X-3.2008Y-0.4409
X-3.0748Y1.0866
X-3.0748Y-1.0906
X-3.0512Y1.122
X-3.0512Y1.0551
X-3.0433Y-1.0551
X-3.0433Y-1.122
X-3.0118Y1.0906
X-3.0118Y1.0197
X-3.0079Y-1.0906
X-2.9961Y-0.8268
X-2.9764Y1.122
X-2.9764Y1.0551
X-2.9685Y-1.0551
X-2.9685Y-1.122
X-2.9409Y1.0866
X-2.9409Y-1.0866
X-2.8661Y0.7598
X-2.8583Y-1.0
X-2.528Y0.282
X-2.1732Y0.2913
X-2.1732Y0.0984
X-2.1732Y0.0154
X-2.128Y0.448
X-2.098Y-0.226
X-2.0748Y0.2441
X-2.0669Y0.3228
X-2.0364Y0.3645
X-1.9384Y0.3996
X-1.938Y0.4499
X-1.882Y-0.15
X-1.8268Y-0.2913
X-1.814Y0.102
X-1.8Y0.356
X-1.754Y0.1
X-1.728Y0.2364
X-1.7219Y0.3479
X-1.7149Y0.4511
X-1.694Y0.2164
X-1.674Y0.4791
X-1.6457Y0.3701
X-1.5112Y0.454
X-1.4803Y0.2917
X-1.4803Y0.0984
X-1.4803Y0.0154
X-1.37Y0.34
X-1.3232Y0.2594
X-1.174Y0.382
X-1.116Y0.284
X-0.734Y0.73
X-0.7165Y-0.5839
X-0.7126Y1.0866
X-0.7087Y-1.0866
X-0.6916Y-0.5601
X-0.685Y1.122
X-0.685Y1.0551
X-0.6811Y-1.0551
X-0.6811Y-1.122
X-0.669Y-0.6263
X-0.6663Y-0.534
X-0.666Y0.202
X-0.6634Y0.1556
X-0.6535Y0.0157
X-0.6457Y1.0906
X-0.6457Y1.0197
X-0.6457Y-1.0197
X-0.6457Y-1.0906
X-0.6299Y0.0591
X-0.6102Y1.122
X-0.6102Y1.0551
X-0.6102Y0.2677
X-0.6063Y-1.0551
X-0.6063Y-1.122
X-0.6Y0.823
X-0.5989Y-0.8466
X-0.5787Y1.0866
X-0.5787Y-1.0866
X-0.5669Y0.0551
X-0.5467Y0.0025
X-0.5433Y0.5256
X-0.5315Y-0.1771
X-0.5315Y-0.5
X-0.528Y0.478
X-0.5197Y-0.6063
X-0.518Y1.024
X-0.516Y0.202
X-0.516Y0.1571
X-0.5157Y-0.7638
X-0.5106Y0.7452
X-0.5079Y-0.1536
X-0.506Y0.45
X-0.5039Y0.0784
X-0.5Y-0.262
X-0.5Y-0.9488
X-0.4967Y0.614
X-0.494Y0.41
X-0.4921Y0.3308
X-0.4811Y0.6986
X-0.4764Y0.5256
X-0.4687Y-0.2439
X-0.4528Y-0.5
X-0.4411Y0.844
X-0.4411Y0.7831
X-0.438Y-0.5394
X-0.4366Y-0.0594
X-0.4364Y0.0244
X-0.43Y0.89
X-0.4291Y0.2736
X-0.4291Y0.2256
X-0.4291Y-0.7638
X-0.4291Y0.683
X-0.4242Y0.3219
X-0.418Y0.5756
X-0.4134Y0.946
X-0.4055Y-0.498
X-0.3984Y-0.9804
X-0.3921Y-0.6692
X-0.3882Y-0.9124
X-0.3796Y0.6569
X-0.3579Y-0.6366
X-0.3549Y-0.1063
X-0.3458Y-0.7113
X-0.3346Y-0.0746
X-0.3314Y-0.2711
X-0.3307Y0.437
X-0.328Y-0.898
X-0.3279Y-0.8407
X-0.311Y0.8359
X-0.311Y0.0709
X-0.311Y0.0315
X-0.311Y-0.0039
X-0.311Y-0.0354
X-0.311Y-0.435
X-0.3Y-1.044
X-0.2953Y-0.574
X-0.2906Y0.7401
X-0.2717Y-0.752
X-0.2592Y-0.6343
X-0.2591Y-0.185
X-0.256Y-0.898
X-0.2496Y-0.0704
X-0.248Y-0.548
X-0.244Y-0.435
X-0.238Y0.58
X-0.2362Y0.6654
X-0.2362Y0.6142
X-0.232Y0.5157
X-0.2276Y-0.2441
X-0.2248Y1.0339
X-0.22Y-0.92
X-0.2109Y-0.7533
X-0.2053Y-0.6344
X-0.1868Y-0.1723
X-0.182Y-0.418
X-0.18Y0.7244
X-0.1772Y0.1181
X-0.1683Y-0.2108
X-0.1654Y-0.7795
X-0.162Y-0.5476
X-0.1556Y-0.8856
X-0.1437Y-0.1819
X-0.1417Y0.5394
X-0.1339Y0.8189
X-0.1339Y0.752
X-0.1192Y-0.7995
X-0.1181Y0.6654
X-0.1181Y0.6142
X-0.1102Y-0.6575
X-0.0984Y0.7402
X-0.0945Y0.8201
X-0.063Y-0.5551
X-0.0627Y-0.6554
X-0.062Y-0.428
X-0.0551Y-0.8622
X-0.0354Y-0.6712
X-0.0295Y-0.429
X-0.0236Y0.1181
X-0.0157Y-0.5237
X-0.0059Y-0.0787
X0.0026Y-0.7544
X0.006Y0.4921
X0.0197Y0.3181
X0.0197Y0.2165
X0.0197Y-0.2146
X0.0236Y0.4173
X0.0236Y0.1181
X0.0354Y-0.3364
X0.046Y-0.474
X0.077Y-0.7839
X0.0924Y-0.7565
X0.094Y-0.64
X0.0945Y0.8201
X0.0945Y0.7402
X0.098Y0.4449
X0.1105Y-0.6673
X0.1299Y-0.2874
X0.1339Y0.8189
X0.1339Y0.752
X0.1371Y-0.8509
X0.142Y-0.6654
X0.1552Y-0.7838
X0.1575Y-0.9252
X0.172Y-0.426
X0.1755Y-0.6639
X0.1811Y0.3181
X0.1811Y0.2165
X0.1969Y0.5369
X0.2017Y-0.0758
X0.2069Y-0.6668
X0.2135Y-0.8237
X0.2165Y1.0354
X0.2165Y0.2677
X0.2165Y0.1654
X0.2175Y0.5984
X0.2205Y0.7087
X0.2205Y0.6614
X0.2219Y-0.937
X0.2257Y0.11
X0.2362Y0.3346
X0.2362Y0.2283
X0.2367Y-0.8005
X0.239Y-0.4336
X0.246Y0.536
X0.2474Y0.3792
X0.2756Y-0.4882
X0.286Y0.914
X0.2913Y-0.8584
X0.298Y-0.26
X0.3078Y-0.4036
X0.3156Y-0.3376
X0.332Y0.85
X0.3369Y-0.6991
X0.3464Y-0.166
X0.36Y1.0
X0.3619Y-0.8094
X0.3619Y-0.8584
X0.364Y0.676
X0.366Y0.442
X0.372Y-0.5744
X0.375Y0.374
X0.3767Y-0.2661
X0.3775Y-0.0555
X0.3804Y0.963
X0.3864Y0.4984
X0.388Y-0.956
X0.3936Y-0.148
X0.3966Y-0.764
X0.4128Y-0.4473
X0.429Y-0.303
X0.4298Y-0.6654
X0.4397Y0.9897
X0.4407Y-0.2493
X0.472Y0.77
X0.4749Y0.964
X0.4784Y0.6732
X0.4784Y0.831
X0.4921Y-0.7283
X0.4996Y-0.6807
X0.518Y-0.818
X0.52Y1.026
X0.524Y-0.034
X0.5433Y-0.5
X0.562Y0.1545
X0.576Y0.0466
X0.5787Y1.0866
X0.5787Y-1.0866
X0.588Y-0.254
X0.59Y-0.578
X0.6024Y1.122
X0.6024Y1.0551
X0.6102Y-1.0551
X0.6102Y-1.122
X0.616Y0.416
X0.6205Y-0.254
X0.6361Y0.0105
X0.6417Y1.0906
X0.6417Y1.0197
X0.6457Y-1.0197
X0.6457Y-1.0906
X0.652Y-0.2535
X0.6535Y-0.0157
X0.654Y0.14
X0.676Y-0.336
X0.6772Y1.122
X0.6772Y1.0551
X0.6775Y0.8855
X0.682Y-0.554
X0.685Y-0.6339
X0.685Y-0.685
X0.685Y-1.0551
X0.685Y-1.122
X0.7004Y0.6496
X0.7126Y1.0866
X0.7126Y-1.0866
X0.744Y0.912
X1.108Y0.454
X1.134Y0.362
X1.174Y0.268
X1.2864Y0.2283
X1.3336Y0.259
X1.3982Y0.2057
X1.4051Y0.244
X1.454Y0.212
X1.48Y0.096
X1.4843Y0.3163
X1.4994Y0.36
X1.5Y0.0
X1.502Y0.212
X1.526Y0.026
X1.5483Y0.3757
X1.5669Y-0.1929
X1.5669Y-0.2992
X1.574Y0.46
X1.584Y-0.058
X1.6311Y-0.0517
X1.6312Y0.4317
X1.6472Y0.2549
X1.702Y0.132
X1.7051Y-0.5354
X1.71Y0.4317
X1.726Y0.252
X1.7861Y0.2442
X1.7887Y0.4317
X1.796Y0.166
X1.811Y-0.5394
X1.812Y-0.6102
X1.8281Y0.3136
X1.854Y0.1589
X1.8674Y0.4317
X1.884Y-0.6102
X1.8858Y-0.5394
X1.9068Y0.3136
X1.9855Y0.3136
X2.0059Y-0.2278
X2.01Y-0.172
X2.012Y0.218
X2.018Y-0.324
X2.0249Y0.4317
X2.0472Y-0.4724
X2.0517Y0.0937
X2.054Y0.33
X2.0548Y-0.2612
X2.0665Y0.218
X2.074Y-0.366
X2.076Y-0.068
X2.0996Y0.0999
X2.1021Y-0.0857
X2.1021Y-0.2611
X2.1241Y0.2203
X2.14Y0.434
X2.1412Y0.4882
X2.1676Y0.085
X2.1705Y0.3134
X2.178Y0.028
X2.202Y0.222
X2.25Y0.0793
X2.25Y0.014
X2.264Y0.2694
X2.2804Y0.2196
X2.324Y0.342
X2.4136Y0.23
X2.4843Y0.23
X2.5354Y0.2953
X2.538Y0.37
X2.542Y0.462
T2
X-0.1535Y0.2992
X-0.1535Y0.2441
X-0.126Y0.3268
X-0.126Y0.2717
X-0.126Y0.2165
X-0.0984Y0.2992
X-0.0984Y0.2441
X-0.0709Y0.3268
X-0.0709Y0.2717
X-0.0709Y0.2165
X-0.0433Y0.2992
X-0.0433Y0.2441
T4
X1.0626Y-0.2694
X1.0626Y-0.1271
X1.0837Y-0.0817
X1.0837Y-0.3147
X1.1048Y-0.36
X1.1048Y-0.0364
X2.5487Y-0.36
X2.5487Y-0.0364
X2.5698Y-0.0817
X2.5698Y-0.3147
X2.591Y-0.2694
X2.591Y-0.1271
T6
X-0.689Y-0.3626
X-0.689Y-0.4626
T3
G00X-0.2181Y0.9961
M15
G01X-0.2181Y0.9488
M16
G05
G00X-0.2181Y0.8366
M15
G01X-0.2181Y0.8012
M16
G05
G00X0.2181Y0.9961
M15
G01X0.2181Y0.9488
M16
G05
G00X0.2181Y0.8366
M15
G01X0.2181Y0.8012
M16
G05
T5
G00X1.3138Y-0.0604
M15
G01X1.3532Y-0.0604
M16
G05
G00X1.3138Y-0.336
M15
G01X1.3532Y-0.336
M16
G05
G00X2.3004Y-0.0604
M15
G01X2.3398Y-0.0604
M16
G05
G00X2.3004Y-0.336
M15
G01X2.3398Y-0.336
M16
G05
T7
G00X-3.8701Y0.5606
M15
G01X-3.811Y0.5606
M16
G05
G00X-3.6339Y0.5606
M15
G01X-3.5748Y0.5606
M16
G05
T8
G00X-2.5787Y0.0787
M15
G01X-2.374Y0.0787
M16
G05
G00X-2.5787Y-0.4724
M15
G01X-2.374Y-0.4724
M16
G05
G00X-1.2795Y0.0787
M15
G01X-1.0748Y0.0787
M16
G05
G00X-1.2795Y-0.4724
M15
G01X-1.0748Y-0.4724
M16
G05
G00X1.0787Y0.0787
M15
G01X1.2835Y0.0787
M16
G05
G00X1.0787Y-0.4724
M15
G01X1.2835Y-0.4724
M16
G05
G00X2.3701Y0.0787
M15
G01X2.5748Y0.0787
M16
G05
G00X2.3701Y-0.4724
M15
G01X2.5748Y-0.4724
M16
G05
M30
